{
	"asset":{
		"generator":"Khronos glTF Blender I/O v4.0.44",
		"version":"2.0"
	},
	"scene":0,
	"scenes":[
		{
			"name":"Scene",
			"nodes":[
				0
			]
		}
	],
	"nodes":[
		{
			"mesh":0,
			"name":"Door_6_Round"
		}
	],
	"materials":[
		{
			"doubleSided":true,
			"name":"MI_WoodTrim_Wear",
			"normalTexture":{
				"index":0
			},
			"pbrMetallicRoughness":{
				"baseColorTexture":{
					"index":1
				},
				"metallicFactor":0,
				"metallicRoughnessTexture":{
					"index":2
				}
			}
		},
		{
			"doubleSided":true,
			"name":"MI_MetalOrnaments",
			"pbrMetallicRoughness":{
				"baseColorTexture":{
					"index":3
				},
				"metallicRoughnessTexture":{
					"index":4
				}
			}
		}
	],
	"meshes":[
		{
			"name":"Cube.246",
			"primitives":[
				{
					"attributes":{
						"POSITION":0,
						"NORMAL":1,
						"TEXCOORD_0":2,
						"TEXCOORD_1":3
					},
					"indices":4,
					"material":0
				},
				{
					"attributes":{
						"POSITION":5,
						"NORMAL":6,
						"TEXCOORD_0":7,
						"TEXCOORD_1":8
					},
					"indices":9,
					"material":1
				}
			]
		}
	],
	"textures":[
		{
			"sampler":0,
			"source":0
		},
		{
			"sampler":0,
			"source":1
		},
		{
			"sampler":0,
			"source":2
		},
		{
			"sampler":0,
			"source":3
		},
		{
			"sampler":0,
			"source":4
		}
	],
	"images":[
		{
			"mimeType":"image/png",
			"name":"T_WoodTrim_Normal",
			"uri":"T_WoodTrim_Normal.png"
		},
		{
			"mimeType":"image/png",
			"name":"T_WoodTrim_BaseColor",
			"uri":"T_WoodTrim_BaseColor.png"
		},
		{
			"mimeType":"image/png",
			"name":"T_WoodTrim_Roughness",
			"uri":"T_WoodTrim_Roughness.png"
		},
		{
			"mimeType":"image/png",
			"name":"T_MetalOrnaments_BaseColor",
			"uri":"T_MetalOrnaments_BaseColor.png"
		},
		{
			"mimeType":"image/png",
			"name":"T_MetalOrnaments_Roughness",
			"uri":"T_MetalOrnaments_Roughness.png"
		}
	],
	"accessors":[
		{
			"bufferView":0,
			"componentType":5126,
			"count":780,
			"max":[
				1.0826027393341064,
				2.355520009994507,
				0.07818779349327087
			],
			"min":[
				-0.04642772674560547,
				0.033089637756347656,
				-0.07840920239686966
			],
			"type":"VEC3"
		},
		{
			"bufferView":1,
			"componentType":5126,
			"count":780,
			"type":"VEC3"
		},
		{
			"bufferView":2,
			"componentType":5126,
			"count":780,
			"type":"VEC2"
		},
		{
			"bufferView":3,
			"componentType":5126,
			"count":780,
			"type":"VEC2"
		},
		{
			"bufferView":4,
			"componentType":5123,
			"count":1392,
			"type":"SCALAR"
		},
		{
			"bufferView":5,
			"componentType":5126,
			"count":397,
			"max":[
				0.9605340361595154,
				1.2313414812088013,
				0.0917586237192154
			],
			"min":[
				0.3917757570743561,
				0.9225069284439087,
				-0.10770562291145325
			],
			"type":"VEC3"
		},
		{
			"bufferView":6,
			"componentType":5126,
			"count":397,
			"type":"VEC3"
		},
		{
			"bufferView":7,
			"componentType":5126,
			"count":397,
			"type":"VEC2"
		},
		{
			"bufferView":8,
			"componentType":5126,
			"count":397,
			"type":"VEC2"
		},
		{
			"bufferView":9,
			"componentType":5123,
			"count":1170,
			"type":"SCALAR"
		}
	],
	"bufferViews":[
		{
			"buffer":0,
			"byteLength":9360,
			"byteOffset":0,
			"target":34962
		},
		{
			"buffer":0,
			"byteLength":9360,
			"byteOffset":9360,
			"target":34962
		},
		{
			"buffer":0,
			"byteLength":6240,
			"byteOffset":18720,
			"target":34962
		},
		{
			"buffer":0,
			"byteLength":6240,
			"byteOffset":24960,
			"target":34962
		},
		{
			"buffer":0,
			"byteLength":2784,
			"byteOffset":31200,
			"target":34963
		},
		{
			"buffer":0,
			"byteLength":4764,
			"byteOffset":33984,
			"target":34962
		},
		{
			"buffer":0,
			"byteLength":4764,
			"byteOffset":38748,
			"target":34962
		},
		{
			"buffer":0,
			"byteLength":3176,
			"byteOffset":43512,
			"target":34962
		},
		{
			"buffer":0,
			"byteLength":3176,
			"byteOffset":46688,
			"target":34962
		},
		{
			"buffer":0,
			"byteLength":2340,
			"byteOffset":49864,
			"target":34963
		}
	],
	"samplers":[
		{
			"magFilter":9729,
			"minFilter":9987
		}
	],
	"buffers":[
		{
			"byteLength":52204,
			"uri":"Door_6_Round.bin"
		}
	]
}
