{
	"asset":{
		"generator":"Khronos glTF Blender I/O v4.0.44",
		"version":"2.0"
	},
	"scene":0,
	"scenes":[
		{
			"name":"Scene",
			"nodes":[
				0
			]
		}
	],
	"nodes":[
		{
			"mesh":0,
			"name":"Door_7_Round"
		}
	],
	"materials":[
		{
			"alphaMode":"BLEND",
			"doubleSided":true,
			"name":"MI_WindowGlass",
			"pbrMetallicRoughness":{
				"baseColorFactor":[
					0.800000011920929,
					0.800000011920929,
					0.800000011920929,
					0.09545451402664185
				],
				"metallicFactor":0,
				"roughnessFactor":0.5
			}
		},
		{
			"doubleSided":true,
			"name":"MI_MetalOrnaments",
			"pbrMetallicRoughness":{
				"baseColorTexture":{
					"index":0
				},
				"metallicRoughnessTexture":{
					"index":1
				}
			}
		},
		{
			"doubleSided":true,
			"name":"MI_WoodTrim_Wear",
			"normalTexture":{
				"index":2
			},
			"pbrMetallicRoughness":{
				"baseColorTexture":{
					"index":3
				},
				"metallicFactor":0,
				"metallicRoughnessTexture":{
					"index":4
				}
			}
		}
	],
	"meshes":[
		{
			"name":"Cube.248",
			"primitives":[
				{
					"attributes":{
						"POSITION":0,
						"NORMAL":1,
						"TEXCOORD_0":2,
						"TEXCOORD_1":3
					},
					"indices":4,
					"material":0
				},
				{
					"attributes":{
						"POSITION":5,
						"NORMAL":6,
						"TEXCOORD_0":7,
						"TEXCOORD_1":8
					},
					"indices":9,
					"material":1
				},
				{
					"attributes":{
						"POSITION":10,
						"NORMAL":11,
						"TEXCOORD_0":12,
						"TEXCOORD_1":13
					},
					"indices":14,
					"material":2
				}
			]
		}
	],
	"textures":[
		{
			"sampler":0,
			"source":0
		},
		{
			"sampler":0,
			"source":1
		},
		{
			"sampler":0,
			"source":2
		},
		{
			"sampler":0,
			"source":3
		},
		{
			"sampler":0,
			"source":4
		}
	],
	"images":[
		{
			"mimeType":"image/png",
			"name":"T_MetalOrnaments_BaseColor",
			"uri":"T_MetalOrnaments_BaseColor.png"
		},
		{
			"mimeType":"image/png",
			"name":"T_MetalOrnaments_Roughness",
			"uri":"T_MetalOrnaments_Roughness.png"
		},
		{
			"mimeType":"image/png",
			"name":"T_WoodTrim_Normal",
			"uri":"T_WoodTrim_Normal.png"
		},
		{
			"mimeType":"image/png",
			"name":"T_WoodTrim_BaseColor",
			"uri":"T_WoodTrim_BaseColor.png"
		},
		{
			"mimeType":"image/png",
			"name":"T_WoodTrim_Roughness",
			"uri":"T_WoodTrim_Roughness.png"
		}
	],
	"accessors":[
		{
			"bufferView":0,
			"componentType":5126,
			"count":436,
			"max":[
				0.8816172480583191,
				1.6965113878250122,
				0.010714365169405937
			],
			"min":[
				0.14019635319709778,
				1.0434080362319946,
				0.010714029893279076
			],
			"type":"VEC3"
		},
		{
			"bufferView":1,
			"componentType":5126,
			"count":436,
			"type":"VEC3"
		},
		{
			"bufferView":2,
			"componentType":5126,
			"count":436,
			"type":"VEC2"
		},
		{
			"bufferView":3,
			"componentType":5126,
			"count":436,
			"type":"VEC2"
		},
		{
			"bufferView":4,
			"componentType":5123,
			"count":648,
			"type":"SCALAR"
		},
		{
			"bufferView":5,
			"componentType":5126,
			"count":2229,
			"max":[
				0.9482846856117249,
				1.9445364475250244,
				0.0917586237192154
			],
			"min":[
				-0.0465204194188118,
				0.5146335363388062,
				-0.11758765578269958
			],
			"type":"VEC3"
		},
		{
			"bufferView":6,
			"componentType":5126,
			"count":2229,
			"type":"VEC3"
		},
		{
			"bufferView":7,
			"componentType":5126,
			"count":2229,
			"type":"VEC2"
		},
		{
			"bufferView":8,
			"componentType":5126,
			"count":2229,
			"type":"VEC2"
		},
		{
			"bufferView":9,
			"componentType":5123,
			"count":7200,
			"type":"SCALAR"
		},
		{
			"bufferView":10,
			"componentType":5126,
			"count":1222,
			"max":[
				1.0794214010238647,
				2.3631083965301514,
				0.05755815654993057
			],
			"min":[
				-0.053952284157276154,
				0.033089637756347656,
				-0.05755755677819252
			],
			"type":"VEC3"
		},
		{
			"bufferView":11,
			"componentType":5126,
			"count":1222,
			"type":"VEC3"
		},
		{
			"bufferView":12,
			"componentType":5126,
			"count":1222,
			"type":"VEC2"
		},
		{
			"bufferView":13,
			"componentType":5126,
			"count":1222,
			"type":"VEC2"
		},
		{
			"bufferView":14,
			"componentType":5123,
			"count":2094,
			"type":"SCALAR"
		}
	],
	"bufferViews":[
		{
			"buffer":0,
			"byteLength":5232,
			"byteOffset":0,
			"target":34962
		},
		{
			"buffer":0,
			"byteLength":5232,
			"byteOffset":5232,
			"target":34962
		},
		{
			"buffer":0,
			"byteLength":3488,
			"byteOffset":10464,
			"target":34962
		},
		{
			"buffer":0,
			"byteLength":3488,
			"byteOffset":13952,
			"target":34962
		},
		{
			"buffer":0,
			"byteLength":1296,
			"byteOffset":17440,
			"target":34963
		},
		{
			"buffer":0,
			"byteLength":26748,
			"byteOffset":18736,
			"target":34962
		},
		{
			"buffer":0,
			"byteLength":26748,
			"byteOffset":45484,
			"target":34962
		},
		{
			"buffer":0,
			"byteLength":17832,
			"byteOffset":72232,
			"target":34962
		},
		{
			"buffer":0,
			"byteLength":17832,
			"byteOffset":90064,
			"target":34962
		},
		{
			"buffer":0,
			"byteLength":14400,
			"byteOffset":107896,
			"target":34963
		},
		{
			"buffer":0,
			"byteLength":14664,
			"byteOffset":122296,
			"target":34962
		},
		{
			"buffer":0,
			"byteLength":14664,
			"byteOffset":136960,
			"target":34962
		},
		{
			"buffer":0,
			"byteLength":9776,
			"byteOffset":151624,
			"target":34962
		},
		{
			"buffer":0,
			"byteLength":9776,
			"byteOffset":161400,
			"target":34962
		},
		{
			"buffer":0,
			"byteLength":4188,
			"byteOffset":171176,
			"target":34963
		}
	],
	"samplers":[
		{
			"magFilter":9729,
			"minFilter":9987
		}
	],
	"buffers":[
		{
			"byteLength":175364,
			"uri":"Door_7_Round.bin"
		}
	]
}
