{
	"asset":{
		"generator":"Khronos glTF Blender I/O v4.0.44",
		"version":"2.0"
	},
	"scene":0,
	"scenes":[
		{
			"name":"Scene",
			"nodes":[
				0
			]
		}
	],
	"nodes":[
		{
			"mesh":0,
			"name":"Door_7_Flat"
		}
	],
	"materials":[
		{
			"doubleSided":true,
			"name":"MI_WoodTrim",
			"normalTexture":{
				"index":0
			},
			"pbrMetallicRoughness":{
				"baseColorTexture":{
					"index":1
				},
				"metallicFactor":0,
				"metallicRoughnessTexture":{
					"index":2
				}
			}
		},
		{
			"alphaMode":"BLEND",
			"doubleSided":true,
			"name":"MI_WindowGlass",
			"pbrMetallicRoughness":{
				"baseColorFactor":[
					0.800000011920929,
					0.800000011920929,
					0.800000011920929,
					0.09545451402664185
				],
				"metallicFactor":0,
				"roughnessFactor":0.5
			}
		},
		{
			"doubleSided":true,
			"name":"MI_MetalOrnaments",
			"pbrMetallicRoughness":{
				"baseColorTexture":{
					"index":3
				},
				"metallicRoughnessTexture":{
					"index":4
				}
			}
		}
	],
	"meshes":[
		{
			"name":"Cube.212",
			"primitives":[
				{
					"attributes":{
						"POSITION":0,
						"NORMAL":1,
						"TEXCOORD_0":2,
						"TEXCOORD_1":3
					},
					"indices":4,
					"material":0
				},
				{
					"attributes":{
						"POSITION":5,
						"NORMAL":6,
						"TEXCOORD_0":7,
						"TEXCOORD_1":8
					},
					"indices":9,
					"material":1
				},
				{
					"attributes":{
						"POSITION":10,
						"NORMAL":11,
						"TEXCOORD_0":12,
						"TEXCOORD_1":13
					},
					"indices":14,
					"material":2
				}
			]
		}
	],
	"textures":[
		{
			"sampler":0,
			"source":0
		},
		{
			"sampler":0,
			"source":1
		},
		{
			"sampler":0,
			"source":2
		},
		{
			"sampler":0,
			"source":3
		},
		{
			"sampler":0,
			"source":4
		}
	],
	"images":[
		{
			"mimeType":"image/png",
			"name":"T_WoodTrim_Normal",
			"uri":"T_WoodTrim_Normal.png"
		},
		{
			"mimeType":"image/png",
			"name":"T_WoodTrim_BaseColor",
			"uri":"T_WoodTrim_BaseColor.png"
		},
		{
			"mimeType":"image/png",
			"name":"T_WoodTrim_Roughness",
			"uri":"T_WoodTrim_Roughness.png"
		},
		{
			"mimeType":"image/png",
			"name":"T_MetalOrnaments_BaseColor",
			"uri":"T_MetalOrnaments_BaseColor.png"
		},
		{
			"mimeType":"image/png",
			"name":"T_MetalOrnaments_Roughness",
			"uri":"T_MetalOrnaments_Roughness.png"
		}
	],
	"accessors":[
		{
			"bufferView":0,
			"componentType":5126,
			"count":1026,
			"max":[
				1.0794214010238647,
				2.139857292175293,
				0.05755815654993057
			],
			"min":[
				-0.053952284157276154,
				0.0352252721786499,
				-0.05755755677819252
			],
			"type":"VEC3"
		},
		{
			"bufferView":1,
			"componentType":5126,
			"count":1026,
			"type":"VEC3"
		},
		{
			"bufferView":2,
			"componentType":5126,
			"count":1026,
			"type":"VEC2"
		},
		{
			"bufferView":3,
			"componentType":5126,
			"count":1026,
			"type":"VEC2"
		},
		{
			"bufferView":4,
			"componentType":5123,
			"count":1626,
			"type":"SCALAR"
		},
		{
			"bufferView":5,
			"componentType":5126,
			"count":436,
			"max":[
				0.8816172480583191,
				1.6986470222473145,
				0.010714365169405937
			],
			"min":[
				0.14019635319709778,
				1.0455436706542969,
				0.010714029893279076
			],
			"type":"VEC3"
		},
		{
			"bufferView":6,
			"componentType":5126,
			"count":436,
			"type":"VEC3"
		},
		{
			"bufferView":7,
			"componentType":5126,
			"count":436,
			"type":"VEC2"
		},
		{
			"bufferView":8,
			"componentType":5126,
			"count":436,
			"type":"VEC2"
		},
		{
			"bufferView":9,
			"componentType":5123,
			"count":648,
			"type":"SCALAR"
		},
		{
			"bufferView":10,
			"componentType":5126,
			"count":2229,
			"max":[
				0.9482846856117249,
				1.9466720819473267,
				0.0917586237192154
			],
			"min":[
				-0.0465204194188118,
				0.5167691707611084,
				-0.11758765578269958
			],
			"type":"VEC3"
		},
		{
			"bufferView":11,
			"componentType":5126,
			"count":2229,
			"type":"VEC3"
		},
		{
			"bufferView":12,
			"componentType":5126,
			"count":2229,
			"type":"VEC2"
		},
		{
			"bufferView":13,
			"componentType":5126,
			"count":2229,
			"type":"VEC2"
		},
		{
			"bufferView":14,
			"componentType":5123,
			"count":7200,
			"type":"SCALAR"
		}
	],
	"bufferViews":[
		{
			"buffer":0,
			"byteLength":12312,
			"byteOffset":0,
			"target":34962
		},
		{
			"buffer":0,
			"byteLength":12312,
			"byteOffset":12312,
			"target":34962
		},
		{
			"buffer":0,
			"byteLength":8208,
			"byteOffset":24624,
			"target":34962
		},
		{
			"buffer":0,
			"byteLength":8208,
			"byteOffset":32832,
			"target":34962
		},
		{
			"buffer":0,
			"byteLength":3252,
			"byteOffset":41040,
			"target":34963
		},
		{
			"buffer":0,
			"byteLength":5232,
			"byteOffset":44292,
			"target":34962
		},
		{
			"buffer":0,
			"byteLength":5232,
			"byteOffset":49524,
			"target":34962
		},
		{
			"buffer":0,
			"byteLength":3488,
			"byteOffset":54756,
			"target":34962
		},
		{
			"buffer":0,
			"byteLength":3488,
			"byteOffset":58244,
			"target":34962
		},
		{
			"buffer":0,
			"byteLength":1296,
			"byteOffset":61732,
			"target":34963
		},
		{
			"buffer":0,
			"byteLength":26748,
			"byteOffset":63028,
			"target":34962
		},
		{
			"buffer":0,
			"byteLength":26748,
			"byteOffset":89776,
			"target":34962
		},
		{
			"buffer":0,
			"byteLength":17832,
			"byteOffset":116524,
			"target":34962
		},
		{
			"buffer":0,
			"byteLength":17832,
			"byteOffset":134356,
			"target":34962
		},
		{
			"buffer":0,
			"byteLength":14400,
			"byteOffset":152188,
			"target":34963
		}
	],
	"samplers":[
		{
			"magFilter":9729,
			"minFilter":9987
		}
	],
	"buffers":[
		{
			"byteLength":166588,
			"uri":"Door_7_Flat.bin"
		}
	]
}
