{
	"asset":{
		"generator":"Khronos glTF Blender I/O v4.0.44",
		"version":"2.0"
	},
	"scene":0,
	"scenes":[
		{
			"name":"Scene",
			"nodes":[
				0
			]
		}
	],
	"nodes":[
		{
			"mesh":0,
			"name":"Door_3_Flat"
		}
	],
	"materials":[
		{
			"doubleSided":true,
			"name":"MI_WoodTrim_Wear",
			"normalTexture":{
				"index":0
			},
			"pbrMetallicRoughness":{
				"baseColorTexture":{
					"index":1
				},
				"metallicFactor":0,
				"metallicRoughnessTexture":{
					"index":2
				}
			}
		},
		{
			"doubleSided":true,
			"name":"MI_MetalOrnaments",
			"pbrMetallicRoughness":{
				"baseColorTexture":{
					"index":3
				},
				"metallicRoughnessTexture":{
					"index":4
				}
			}
		}
	],
	"meshes":[
		{
			"name":"Cube.155",
			"primitives":[
				{
					"attributes":{
						"POSITION":0,
						"NORMAL":1,
						"TEXCOORD_0":2,
						"TEXCOORD_1":3
					},
					"indices":4,
					"material":0
				},
				{
					"attributes":{
						"POSITION":5,
						"NORMAL":6,
						"TEXCOORD_0":7,
						"TEXCOORD_1":8
					},
					"indices":9,
					"material":1
				}
			]
		}
	],
	"textures":[
		{
			"sampler":0,
			"source":0
		},
		{
			"sampler":0,
			"source":1
		},
		{
			"sampler":0,
			"source":2
		},
		{
			"sampler":0,
			"source":3
		},
		{
			"sampler":0,
			"source":4
		}
	],
	"images":[
		{
			"mimeType":"image/png",
			"name":"T_WoodTrim_Normal",
			"uri":"T_WoodTrim_Normal.png"
		},
		{
			"mimeType":"image/png",
			"name":"T_WoodTrim_BaseColor",
			"uri":"T_WoodTrim_BaseColor.png"
		},
		{
			"mimeType":"image/png",
			"name":"T_WoodTrim_Roughness",
			"uri":"T_WoodTrim_Roughness.png"
		},
		{
			"mimeType":"image/png",
			"name":"T_MetalOrnaments_BaseColor",
			"uri":"T_MetalOrnaments_BaseColor.png"
		},
		{
			"mimeType":"image/png",
			"name":"T_MetalOrnaments_Roughness",
			"uri":"T_MetalOrnaments_Roughness.png"
		}
	],
	"accessors":[
		{
			"bufferView":0,
			"componentType":5126,
			"count":722,
			"max":[
				1.0975979566574097,
				2.1270670890808105,
				0.07022200524806976
			],
			"min":[
				-0.0472869947552681,
				0.03647807985544205,
				-0.0702221468091011
			],
			"type":"VEC3"
		},
		{
			"bufferView":1,
			"componentType":5126,
			"count":722,
			"type":"VEC3"
		},
		{
			"bufferView":2,
			"componentType":5126,
			"count":722,
			"type":"VEC2"
		},
		{
			"bufferView":3,
			"componentType":5126,
			"count":722,
			"type":"VEC2"
		},
		{
			"bufferView":4,
			"componentType":5123,
			"count":1524,
			"type":"SCALAR"
		},
		{
			"bufferView":5,
			"componentType":5126,
			"count":2008,
			"max":[
				1.0157819986343384,
				2.0813355445861816,
				0.11758767068386078
			],
			"min":[
				0.027867160737514496,
				0.07581296563148499,
				-0.1353754699230194
			],
			"type":"VEC3"
		},
		{
			"bufferView":6,
			"componentType":5126,
			"count":2008,
			"type":"VEC3"
		},
		{
			"bufferView":7,
			"componentType":5126,
			"count":2008,
			"type":"VEC2"
		},
		{
			"bufferView":8,
			"componentType":5126,
			"count":2008,
			"type":"VEC2"
		},
		{
			"bufferView":9,
			"componentType":5123,
			"count":5052,
			"type":"SCALAR"
		}
	],
	"bufferViews":[
		{
			"buffer":0,
			"byteLength":8664,
			"byteOffset":0,
			"target":34962
		},
		{
			"buffer":0,
			"byteLength":8664,
			"byteOffset":8664,
			"target":34962
		},
		{
			"buffer":0,
			"byteLength":5776,
			"byteOffset":17328,
			"target":34962
		},
		{
			"buffer":0,
			"byteLength":5776,
			"byteOffset":23104,
			"target":34962
		},
		{
			"buffer":0,
			"byteLength":3048,
			"byteOffset":28880,
			"target":34963
		},
		{
			"buffer":0,
			"byteLength":24096,
			"byteOffset":31928,
			"target":34962
		},
		{
			"buffer":0,
			"byteLength":24096,
			"byteOffset":56024,
			"target":34962
		},
		{
			"buffer":0,
			"byteLength":16064,
			"byteOffset":80120,
			"target":34962
		},
		{
			"buffer":0,
			"byteLength":16064,
			"byteOffset":96184,
			"target":34962
		},
		{
			"buffer":0,
			"byteLength":10104,
			"byteOffset":112248,
			"target":34963
		}
	],
	"samplers":[
		{
			"magFilter":9729,
			"minFilter":9987
		}
	],
	"buffers":[
		{
			"byteLength":122352,
			"uri":"Door_3_Flat.bin"
		}
	]
}
