{
	"asset":{
		"generator":"Khronos glTF Blender I/O v4.0.44",
		"version":"2.0"
	},
	"scene":0,
	"scenes":[
		{
			"name":"Scene",
			"nodes":[
				0
			]
		}
	],
	"nodes":[
		{
			"mesh":0,
			"name":"Door_6_Flat"
		}
	],
	"materials":[
		{
			"doubleSided":true,
			"name":"MI_WoodTrim_Wear",
			"normalTexture":{
				"index":0
			},
			"pbrMetallicRoughness":{
				"baseColorTexture":{
					"index":1
				},
				"metallicFactor":0,
				"metallicRoughnessTexture":{
					"index":2
				}
			}
		},
		{
			"doubleSided":true,
			"name":"MI_MetalOrnaments",
			"pbrMetallicRoughness":{
				"baseColorTexture":{
					"index":3
				},
				"metallicRoughnessTexture":{
					"index":4
				}
			}
		}
	],
	"meshes":[
		{
			"name":"Cube.206",
			"primitives":[
				{
					"attributes":{
						"POSITION":0,
						"NORMAL":1,
						"TEXCOORD_0":2,
						"TEXCOORD_1":3
					},
					"indices":4,
					"material":0
				},
				{
					"attributes":{
						"POSITION":5,
						"NORMAL":6,
						"TEXCOORD_0":7,
						"TEXCOORD_1":8
					},
					"indices":9,
					"material":1
				}
			]
		}
	],
	"textures":[
		{
			"sampler":0,
			"source":0
		},
		{
			"sampler":0,
			"source":1
		},
		{
			"sampler":0,
			"source":2
		},
		{
			"sampler":0,
			"source":3
		},
		{
			"sampler":0,
			"source":4
		}
	],
	"images":[
		{
			"mimeType":"image/png",
			"name":"T_WoodTrim_Normal",
			"uri":"T_WoodTrim_Normal.png"
		},
		{
			"mimeType":"image/png",
			"name":"T_WoodTrim_BaseColor",
			"uri":"T_WoodTrim_BaseColor.png"
		},
		{
			"mimeType":"image/png",
			"name":"T_WoodTrim_Roughness",
			"uri":"T_WoodTrim_Roughness.png"
		},
		{
			"mimeType":"image/png",
			"name":"T_MetalOrnaments_BaseColor",
			"uri":"T_MetalOrnaments_BaseColor.png"
		},
		{
			"mimeType":"image/png",
			"name":"T_MetalOrnaments_Roughness",
			"uri":"T_MetalOrnaments_Roughness.png"
		}
	],
	"accessors":[
		{
			"bufferView":0,
			"componentType":5126,
			"count":584,
			"max":[
				1.0716030597686768,
				2.133471965789795,
				0.07818779349327087
			],
			"min":[
				-0.04626310616731644,
				0.0352252721786499,
				-0.07840920239686966
			],
			"type":"VEC3"
		},
		{
			"bufferView":1,
			"componentType":5126,
			"count":584,
			"type":"VEC3"
		},
		{
			"bufferView":2,
			"componentType":5126,
			"count":584,
			"type":"VEC2"
		},
		{
			"bufferView":3,
			"componentType":5126,
			"count":584,
			"type":"VEC2"
		},
		{
			"bufferView":4,
			"componentType":5123,
			"count":924,
			"type":"SCALAR"
		},
		{
			"bufferView":5,
			"componentType":5126,
			"count":289,
			"max":[
				0.9605340361595154,
				1.2348203659057617,
				0.0917586237192154
			],
			"min":[
				0.3917757570743561,
				0.9259858131408691,
				-0.10770562291145325
			],
			"type":"VEC3"
		},
		{
			"bufferView":6,
			"componentType":5126,
			"count":289,
			"type":"VEC3"
		},
		{
			"bufferView":7,
			"componentType":5126,
			"count":289,
			"type":"VEC2"
		},
		{
			"bufferView":8,
			"componentType":5126,
			"count":289,
			"type":"VEC2"
		},
		{
			"bufferView":9,
			"componentType":5123,
			"count":1170,
			"type":"SCALAR"
		}
	],
	"bufferViews":[
		{
			"buffer":0,
			"byteLength":7008,
			"byteOffset":0,
			"target":34962
		},
		{
			"buffer":0,
			"byteLength":7008,
			"byteOffset":7008,
			"target":34962
		},
		{
			"buffer":0,
			"byteLength":4672,
			"byteOffset":14016,
			"target":34962
		},
		{
			"buffer":0,
			"byteLength":4672,
			"byteOffset":18688,
			"target":34962
		},
		{
			"buffer":0,
			"byteLength":1848,
			"byteOffset":23360,
			"target":34963
		},
		{
			"buffer":0,
			"byteLength":3468,
			"byteOffset":25208,
			"target":34962
		},
		{
			"buffer":0,
			"byteLength":3468,
			"byteOffset":28676,
			"target":34962
		},
		{
			"buffer":0,
			"byteLength":2312,
			"byteOffset":32144,
			"target":34962
		},
		{
			"buffer":0,
			"byteLength":2312,
			"byteOffset":34456,
			"target":34962
		},
		{
			"buffer":0,
			"byteLength":2340,
			"byteOffset":36768,
			"target":34963
		}
	],
	"samplers":[
		{
			"magFilter":9729,
			"minFilter":9987
		}
	],
	"buffers":[
		{
			"byteLength":39108,
			"uri":"Door_6_Flat.bin"
		}
	]
}
