{
	"asset":{
		"generator":"Khronos glTF Blender I/O v4.0.44",
		"version":"2.0"
	},
	"scene":0,
	"scenes":[
		{
			"name":"Scene",
			"nodes":[
				0
			]
		}
	],
	"nodes":[
		{
			"mesh":0,
			"name":"Door_5_Flat"
		}
	],
	"materials":[
		{
			"doubleSided":true,
			"name":"MI_WoodTrim_Wear",
			"normalTexture":{
				"index":0
			},
			"pbrMetallicRoughness":{
				"baseColorTexture":{
					"index":1
				},
				"metallicFactor":0,
				"metallicRoughnessTexture":{
					"index":2
				}
			}
		},
		{
			"doubleSided":true,
			"name":"MI_MetalOrnaments",
			"pbrMetallicRoughness":{
				"baseColorTexture":{
					"index":3
				},
				"metallicRoughnessTexture":{
					"index":4
				}
			}
		}
	],
	"meshes":[
		{
			"name":"Cube.033",
			"primitives":[
				{
					"attributes":{
						"POSITION":0,
						"NORMAL":1,
						"TEXCOORD_0":2,
						"TEXCOORD_1":3
					},
					"indices":4,
					"material":0
				},
				{
					"attributes":{
						"POSITION":5,
						"NORMAL":6,
						"TEXCOORD_0":7,
						"TEXCOORD_1":8
					},
					"indices":9,
					"material":1
				}
			]
		}
	],
	"textures":[
		{
			"sampler":0,
			"source":0
		},
		{
			"sampler":0,
			"source":1
		},
		{
			"sampler":0,
			"source":2
		},
		{
			"sampler":0,
			"source":3
		},
		{
			"sampler":0,
			"source":4
		}
	],
	"images":[
		{
			"mimeType":"image/png",
			"name":"T_WoodTrim_Normal",
			"uri":"T_WoodTrim_Normal.png"
		},
		{
			"mimeType":"image/png",
			"name":"T_WoodTrim_BaseColor",
			"uri":"T_WoodTrim_BaseColor.png"
		},
		{
			"mimeType":"image/png",
			"name":"T_WoodTrim_Roughness",
			"uri":"T_WoodTrim_Roughness.png"
		},
		{
			"mimeType":"image/png",
			"name":"T_MetalOrnaments_BaseColor",
			"uri":"T_MetalOrnaments_BaseColor.png"
		},
		{
			"mimeType":"image/png",
			"name":"T_MetalOrnaments_Roughness",
			"uri":"T_MetalOrnaments_Roughness.png"
		}
	],
	"accessors":[
		{
			"bufferView":0,
			"componentType":5126,
			"count":348,
			"max":[
				1.0716030597686768,
				2.1323747634887695,
				0.05755815654993057
			],
			"min":[
				-0.04626310616731644,
				0.0352252721786499,
				-0.05755755677819252
			],
			"type":"VEC3"
		},
		{
			"bufferView":1,
			"componentType":5126,
			"count":348,
			"type":"VEC3"
		},
		{
			"bufferView":2,
			"componentType":5126,
			"count":348,
			"type":"VEC2"
		},
		{
			"bufferView":3,
			"componentType":5126,
			"count":348,
			"type":"VEC2"
		},
		{
			"bufferView":4,
			"componentType":5123,
			"count":528,
			"type":"SCALAR"
		},
		{
			"bufferView":5,
			"componentType":5126,
			"count":2391,
			"max":[
				0.9605340361595154,
				1.646693468093872,
				0.0917586237192154
			],
			"min":[
				0.04198461025953293,
				0.6207091212272644,
				-0.10770562291145325
			],
			"type":"VEC3"
		},
		{
			"bufferView":6,
			"componentType":5126,
			"count":2391,
			"type":"VEC3"
		},
		{
			"bufferView":7,
			"componentType":5126,
			"count":2391,
			"type":"VEC2"
		},
		{
			"bufferView":8,
			"componentType":5126,
			"count":2391,
			"type":"VEC2"
		},
		{
			"bufferView":9,
			"componentType":5123,
			"count":7794,
			"type":"SCALAR"
		}
	],
	"bufferViews":[
		{
			"buffer":0,
			"byteLength":4176,
			"byteOffset":0,
			"target":34962
		},
		{
			"buffer":0,
			"byteLength":4176,
			"byteOffset":4176,
			"target":34962
		},
		{
			"buffer":0,
			"byteLength":2784,
			"byteOffset":8352,
			"target":34962
		},
		{
			"buffer":0,
			"byteLength":2784,
			"byteOffset":11136,
			"target":34962
		},
		{
			"buffer":0,
			"byteLength":1056,
			"byteOffset":13920,
			"target":34963
		},
		{
			"buffer":0,
			"byteLength":28692,
			"byteOffset":14976,
			"target":34962
		},
		{
			"buffer":0,
			"byteLength":28692,
			"byteOffset":43668,
			"target":34962
		},
		{
			"buffer":0,
			"byteLength":19128,
			"byteOffset":72360,
			"target":34962
		},
		{
			"buffer":0,
			"byteLength":19128,
			"byteOffset":91488,
			"target":34962
		},
		{
			"buffer":0,
			"byteLength":15588,
			"byteOffset":110616,
			"target":34963
		}
	],
	"samplers":[
		{
			"magFilter":9729,
			"minFilter":9987
		}
	],
	"buffers":[
		{
			"byteLength":126204,
			"uri":"Door_5_Flat.bin"
		}
	]
}
