{
	"asset":{
		"generator":"Khronos glTF Blender I/O v4.0.44",
		"version":"2.0"
	},
	"scene":0,
	"scenes":[
		{
			"name":"Scene",
			"nodes":[
				0
			]
		}
	],
	"nodes":[
		{
			"mesh":0,
			"name":"Overhang_WoodBrick_Corner"
		}
	],
	"materials":[
		{
			"doubleSided":true,
			"name":"MI_Plaster",
			"normalTexture":{
				"index":0
			},
			"pbrMetallicRoughness":{
				"baseColorTexture":{
					"index":1
				},
				"metallicRoughnessTexture":{
					"index":2
				}
			}
		},
		{
			"doubleSided":true,
			"name":"MI_WoodTrim",
			"normalTexture":{
				"index":3
			},
			"pbrMetallicRoughness":{
				"baseColorTexture":{
					"index":4
				},
				"metallicFactor":0,
				"metallicRoughnessTexture":{
					"index":5
				}
			}
		},
		{
			"doubleSided":true,
			"name":"MI_WoodTrim_Wear",
			"normalTexture":{
				"index":6
			},
			"pbrMetallicRoughness":{
				"baseColorTexture":{
					"index":7
				},
				"metallicFactor":0,
				"metallicRoughnessTexture":{
					"index":8
				}
			}
		},
		{
			"doubleSided":true,
			"name":"MI_UnevenBrick",
			"normalTexture":{
				"index":9
			},
			"pbrMetallicRoughness":{
				"baseColorTexture":{
					"index":10
				},
				"metallicFactor":0,
				"metallicRoughnessTexture":{
					"index":11
				}
			}
		}
	],
	"meshes":[
		{
			"name":"Plane.054",
			"primitives":[
				{
					"attributes":{
						"POSITION":0,
						"NORMAL":1,
						"TEXCOORD_0":2,
						"TEXCOORD_1":3
					},
					"indices":4,
					"material":0
				},
				{
					"attributes":{
						"POSITION":5,
						"NORMAL":6,
						"TEXCOORD_0":7,
						"TEXCOORD_1":8
					},
					"indices":9,
					"material":1
				},
				{
					"attributes":{
						"POSITION":10,
						"NORMAL":11,
						"TEXCOORD_0":12,
						"TEXCOORD_1":13
					},
					"indices":14,
					"material":2
				},
				{
					"attributes":{
						"POSITION":15,
						"NORMAL":16,
						"TEXCOORD_0":17,
						"TEXCOORD_1":18
					},
					"indices":19,
					"material":3
				}
			]
		}
	],
	"textures":[
		{
			"sampler":0,
			"source":0
		},
		{
			"sampler":0,
			"source":1
		},
		{
			"sampler":0,
			"source":2
		},
		{
			"sampler":0,
			"source":3
		},
		{
			"sampler":0,
			"source":4
		},
		{
			"sampler":0,
			"source":5
		},
		{
			"sampler":0,
			"source":3
		},
		{
			"sampler":0,
			"source":4
		},
		{
			"sampler":0,
			"source":5
		},
		{
			"sampler":0,
			"source":6
		},
		{
			"sampler":0,
			"source":7
		},
		{
			"sampler":0,
			"source":8
		}
	],
	"images":[
		{
			"mimeType":"image/png",
			"name":"T_Plaster_Normal",
			"uri":"T_Plaster_Normal.png"
		},
		{
			"mimeType":"image/png",
			"name":"T_Plaster_BaseColor",
			"uri":"T_Plaster_BaseColor.png"
		},
		{
			"mimeType":"image/png",
			"name":"T_Plaster_ORM",
			"uri":"T_Plaster_ORM.png"
		},
		{
			"mimeType":"image/png",
			"name":"T_WoodTrim_Normal",
			"uri":"T_WoodTrim_Normal.png"
		},
		{
			"mimeType":"image/png",
			"name":"T_WoodTrim_BaseColor",
			"uri":"T_WoodTrim_BaseColor.png"
		},
		{
			"mimeType":"image/png",
			"name":"T_WoodTrim_Roughness",
			"uri":"T_WoodTrim_Roughness.png"
		},
		{
			"mimeType":"image/png",
			"name":"T_UnevenBrick_Normal",
			"uri":"T_UnevenBrick_Normal.png"
		},
		{
			"mimeType":"image/png",
			"name":"T_UnevenBrick_BaseColor",
			"uri":"T_UnevenBrick_BaseColor.png"
		},
		{
			"mimeType":"image/png",
			"name":"T_UnevenBrick_Roughness",
			"uri":"T_UnevenBrick_Roughness.png"
		}
	],
	"accessors":[
		{
			"bufferView":0,
			"componentType":5126,
			"count":81,
			"max":[
				0.7096809148788452,
				2.8951454162597656,
				2
			],
			"min":[
				-2,
				0,
				-0.7096808552742004
			],
			"type":"VEC3"
		},
		{
			"bufferView":1,
			"componentType":5126,
			"count":81,
			"type":"VEC3"
		},
		{
			"bufferView":2,
			"componentType":5126,
			"count":81,
			"type":"VEC2"
		},
		{
			"bufferView":3,
			"componentType":5126,
			"count":81,
			"type":"VEC2"
		},
		{
			"bufferView":4,
			"componentType":5123,
			"count":207,
			"type":"SCALAR"
		},
		{
			"bufferView":5,
			"componentType":5126,
			"count":360,
			"max":[
				1.100797176361084,
				3.116764545440674,
				2
			],
			"min":[
				-2,
				0.41332197189331055,
				-1.1007977724075317
			],
			"type":"VEC3"
		},
		{
			"bufferView":6,
			"componentType":5126,
			"count":360,
			"type":"VEC3"
		},
		{
			"bufferView":7,
			"componentType":5126,
			"count":360,
			"type":"VEC2"
		},
		{
			"bufferView":8,
			"componentType":5126,
			"count":360,
			"type":"VEC2"
		},
		{
			"bufferView":9,
			"componentType":5123,
			"count":846,
			"type":"SCALAR"
		},
		{
			"bufferView":10,
			"componentType":5126,
			"count":192,
			"max":[
				0.035134196281433105,
				0.8310797214508057,
				2
			],
			"min":[
				-2.000000238418579,
				-1.9470715528768778e-07,
				-0.03513365611433983
			],
			"type":"VEC3"
		},
		{
			"bufferView":11,
			"componentType":5126,
			"count":192,
			"type":"VEC3"
		},
		{
			"bufferView":12,
			"componentType":5126,
			"count":192,
			"type":"VEC2"
		},
		{
			"bufferView":13,
			"componentType":5126,
			"count":192,
			"type":"VEC2"
		},
		{
			"bufferView":14,
			"componentType":5123,
			"count":288,
			"type":"SCALAR"
		},
		{
			"bufferView":15,
			"componentType":5126,
			"count":95,
			"max":[
				1.0948179960250854,
				2.91355037689209,
				2
			],
			"min":[
				-2,
				0.8360880613327026,
				-1.094817876815796
			],
			"type":"VEC3"
		},
		{
			"bufferView":16,
			"componentType":5126,
			"count":95,
			"type":"VEC3"
		},
		{
			"bufferView":17,
			"componentType":5126,
			"count":95,
			"type":"VEC2"
		},
		{
			"bufferView":18,
			"componentType":5126,
			"count":95,
			"type":"VEC2"
		},
		{
			"bufferView":19,
			"componentType":5123,
			"count":255,
			"type":"SCALAR"
		}
	],
	"bufferViews":[
		{
			"buffer":0,
			"byteLength":972,
			"byteOffset":0,
			"target":34962
		},
		{
			"buffer":0,
			"byteLength":972,
			"byteOffset":972,
			"target":34962
		},
		{
			"buffer":0,
			"byteLength":648,
			"byteOffset":1944,
			"target":34962
		},
		{
			"buffer":0,
			"byteLength":648,
			"byteOffset":2592,
			"target":34962
		},
		{
			"buffer":0,
			"byteLength":414,
			"byteOffset":3240,
			"target":34963
		},
		{
			"buffer":0,
			"byteLength":4320,
			"byteOffset":3656,
			"target":34962
		},
		{
			"buffer":0,
			"byteLength":4320,
			"byteOffset":7976,
			"target":34962
		},
		{
			"buffer":0,
			"byteLength":2880,
			"byteOffset":12296,
			"target":34962
		},
		{
			"buffer":0,
			"byteLength":2880,
			"byteOffset":15176,
			"target":34962
		},
		{
			"buffer":0,
			"byteLength":1692,
			"byteOffset":18056,
			"target":34963
		},
		{
			"buffer":0,
			"byteLength":2304,
			"byteOffset":19748,
			"target":34962
		},
		{
			"buffer":0,
			"byteLength":2304,
			"byteOffset":22052,
			"target":34962
		},
		{
			"buffer":0,
			"byteLength":1536,
			"byteOffset":24356,
			"target":34962
		},
		{
			"buffer":0,
			"byteLength":1536,
			"byteOffset":25892,
			"target":34962
		},
		{
			"buffer":0,
			"byteLength":576,
			"byteOffset":27428,
			"target":34963
		},
		{
			"buffer":0,
			"byteLength":1140,
			"byteOffset":28004,
			"target":34962
		},
		{
			"buffer":0,
			"byteLength":1140,
			"byteOffset":29144,
			"target":34962
		},
		{
			"buffer":0,
			"byteLength":760,
			"byteOffset":30284,
			"target":34962
		},
		{
			"buffer":0,
			"byteLength":760,
			"byteOffset":31044,
			"target":34962
		},
		{
			"buffer":0,
			"byteLength":510,
			"byteOffset":31804,
			"target":34963
		}
	],
	"samplers":[
		{
			"magFilter":9729,
			"minFilter":9987
		}
	],
	"buffers":[
		{
			"byteLength":32316,
			"uri":"Overhang_WoodBrick_Corner.bin"
		}
	]
}
