{
	"asset":{
		"generator":"Khronos glTF Blender I/O v4.0.44",
		"version":"2.0"
	},
	"scene":0,
	"scenes":[
		{
			"name":"Scene",
			"nodes":[
				0
			]
		}
	],
	"nodes":[
		{
			"mesh":0,
			"name":"Overhang_Side_WoodWear_Long_R"
		}
	],
	"materials":[
		{
			"doubleSided":true,
			"name":"MI_WoodTrim",
			"normalTexture":{
				"index":0
			},
			"pbrMetallicRoughness":{
				"baseColorTexture":{
					"index":1
				},
				"metallicFactor":0,
				"metallicRoughnessTexture":{
					"index":2
				}
			}
		},
		{
			"doubleSided":true,
			"name":"MI_Plaster",
			"normalTexture":{
				"index":3
			},
			"pbrMetallicRoughness":{
				"baseColorTexture":{
					"index":4
				},
				"metallicRoughnessTexture":{
					"index":5
				}
			}
		},
		{
			"doubleSided":true,
			"name":"MI_WoodTrim_Wear",
			"normalTexture":{
				"index":6
			},
			"pbrMetallicRoughness":{
				"baseColorTexture":{
					"index":7
				},
				"metallicFactor":0,
				"metallicRoughnessTexture":{
					"index":8
				}
			}
		}
	],
	"meshes":[
		{
			"name":"Cube.1696",
			"primitives":[
				{
					"attributes":{
						"POSITION":0,
						"NORMAL":1,
						"TEXCOORD_0":2,
						"TEXCOORD_1":3
					},
					"indices":4,
					"material":0
				},
				{
					"attributes":{
						"POSITION":5,
						"NORMAL":6,
						"TEXCOORD_0":7,
						"TEXCOORD_1":8
					},
					"indices":9,
					"material":1
				},
				{
					"attributes":{
						"POSITION":10,
						"NORMAL":11,
						"TEXCOORD_0":12,
						"TEXCOORD_1":13
					},
					"indices":14,
					"material":2
				}
			]
		}
	],
	"textures":[
		{
			"sampler":0,
			"source":0
		},
		{
			"sampler":0,
			"source":1
		},
		{
			"sampler":0,
			"source":2
		},
		{
			"sampler":0,
			"source":3
		},
		{
			"sampler":0,
			"source":4
		},
		{
			"sampler":0,
			"source":5
		},
		{
			"sampler":0,
			"source":0
		},
		{
			"sampler":0,
			"source":1
		},
		{
			"sampler":0,
			"source":2
		}
	],
	"images":[
		{
			"mimeType":"image/png",
			"name":"T_WoodTrim_Normal",
			"uri":"T_WoodTrim_Normal.png"
		},
		{
			"mimeType":"image/png",
			"name":"T_WoodTrim_BaseColor",
			"uri":"T_WoodTrim_BaseColor.png"
		},
		{
			"mimeType":"image/png",
			"name":"T_WoodTrim_Roughness",
			"uri":"T_WoodTrim_Roughness.png"
		},
		{
			"mimeType":"image/png",
			"name":"T_Plaster_Normal",
			"uri":"T_Plaster_Normal.png"
		},
		{
			"mimeType":"image/png",
			"name":"T_Plaster_BaseColor",
			"uri":"T_Plaster_BaseColor.png"
		},
		{
			"mimeType":"image/png",
			"name":"T_Plaster_ORM",
			"uri":"T_Plaster_ORM.png"
		}
	],
	"accessors":[
		{
			"bufferView":0,
			"componentType":5126,
			"count":352,
			"max":[
				1.1652966737747192,
				6.116764545440674,
				2
			],
			"min":[
				0.6859644055366516,
				-2.384185791015625e-07,
				-0.3140338957309723
			],
			"type":"VEC3"
		},
		{
			"bufferView":1,
			"componentType":5126,
			"count":352,
			"type":"VEC3"
		},
		{
			"bufferView":2,
			"componentType":5126,
			"count":352,
			"type":"VEC2"
		},
		{
			"bufferView":3,
			"componentType":5126,
			"count":352,
			"type":"VEC2"
		},
		{
			"bufferView":4,
			"componentType":5123,
			"count":726,
			"type":"SCALAR"
		},
		{
			"bufferView":5,
			"componentType":5126,
			"count":32,
			"max":[
				0.8000000715255737,
				6,
				2.000000476837158
			],
			"min":[
				0.7999998331069946,
				1.906325340270996,
				-0.0009438991546630859
			],
			"type":"VEC3"
		},
		{
			"bufferView":6,
			"componentType":5126,
			"count":32,
			"type":"VEC3"
		},
		{
			"bufferView":7,
			"componentType":5126,
			"count":32,
			"type":"VEC2"
		},
		{
			"bufferView":8,
			"componentType":5126,
			"count":32,
			"type":"VEC2"
		},
		{
			"bufferView":9,
			"componentType":5123,
			"count":84,
			"type":"SCALAR"
		},
		{
			"bufferView":10,
			"componentType":5126,
			"count":320,
			"max":[
				1.035133719444275,
				6,
				2.000000238418579
			],
			"min":[
				0.9690671563148499,
				2.3538358211517334,
				-0.023023637011647224
			],
			"type":"VEC3"
		},
		{
			"bufferView":11,
			"componentType":5126,
			"count":320,
			"type":"VEC3"
		},
		{
			"bufferView":12,
			"componentType":5126,
			"count":320,
			"type":"VEC2"
		},
		{
			"bufferView":13,
			"componentType":5126,
			"count":320,
			"type":"VEC2"
		},
		{
			"bufferView":14,
			"componentType":5123,
			"count":480,
			"type":"SCALAR"
		}
	],
	"bufferViews":[
		{
			"buffer":0,
			"byteLength":4224,
			"byteOffset":0,
			"target":34962
		},
		{
			"buffer":0,
			"byteLength":4224,
			"byteOffset":4224,
			"target":34962
		},
		{
			"buffer":0,
			"byteLength":2816,
			"byteOffset":8448,
			"target":34962
		},
		{
			"buffer":0,
			"byteLength":2816,
			"byteOffset":11264,
			"target":34962
		},
		{
			"buffer":0,
			"byteLength":1452,
			"byteOffset":14080,
			"target":34963
		},
		{
			"buffer":0,
			"byteLength":384,
			"byteOffset":15532,
			"target":34962
		},
		{
			"buffer":0,
			"byteLength":384,
			"byteOffset":15916,
			"target":34962
		},
		{
			"buffer":0,
			"byteLength":256,
			"byteOffset":16300,
			"target":34962
		},
		{
			"buffer":0,
			"byteLength":256,
			"byteOffset":16556,
			"target":34962
		},
		{
			"buffer":0,
			"byteLength":168,
			"byteOffset":16812,
			"target":34963
		},
		{
			"buffer":0,
			"byteLength":3840,
			"byteOffset":16980,
			"target":34962
		},
		{
			"buffer":0,
			"byteLength":3840,
			"byteOffset":20820,
			"target":34962
		},
		{
			"buffer":0,
			"byteLength":2560,
			"byteOffset":24660,
			"target":34962
		},
		{
			"buffer":0,
			"byteLength":2560,
			"byteOffset":27220,
			"target":34962
		},
		{
			"buffer":0,
			"byteLength":960,
			"byteOffset":29780,
			"target":34963
		}
	],
	"samplers":[
		{
			"magFilter":9729,
			"minFilter":9987
		}
	],
	"buffers":[
		{
			"byteLength":30740,
			"uri":"Overhang_Side_WoodWear_Long_R.bin"
		}
	]
}
