{
	"asset":{
		"generator":"Khronos glTF Blender I/O v4.0.44",
		"version":"2.0"
	},
	"scene":0,
	"scenes":[
		{
			"name":"Scene",
			"nodes":[
				0
			]
		}
	],
	"nodes":[
		{
			"mesh":0,
			"name":"Overhang_WoodBrick_Corner_Front"
		}
	],
	"materials":[
		{
			"doubleSided":true,
			"name":"MI_WoodTrim",
			"normalTexture":{
				"index":0
			},
			"pbrMetallicRoughness":{
				"baseColorTexture":{
					"index":1
				},
				"metallicFactor":0,
				"metallicRoughnessTexture":{
					"index":2
				}
			}
		},
		{
			"doubleSided":true,
			"name":"MI_Plaster",
			"normalTexture":{
				"index":3
			},
			"pbrMetallicRoughness":{
				"baseColorTexture":{
					"index":4
				},
				"metallicRoughnessTexture":{
					"index":5
				}
			}
		},
		{
			"doubleSided":true,
			"name":"MI_WoodTrim_Wear",
			"normalTexture":{
				"index":6
			},
			"pbrMetallicRoughness":{
				"baseColorTexture":{
					"index":7
				},
				"metallicFactor":0,
				"metallicRoughnessTexture":{
					"index":8
				}
			}
		},
		{
			"doubleSided":true,
			"name":"MI_UnevenBrick",
			"normalTexture":{
				"index":9
			},
			"pbrMetallicRoughness":{
				"baseColorTexture":{
					"index":10
				},
				"metallicFactor":0,
				"metallicRoughnessTexture":{
					"index":11
				}
			}
		}
	],
	"meshes":[
		{
			"name":"Cube.157",
			"primitives":[
				{
					"attributes":{
						"POSITION":0,
						"NORMAL":1,
						"TEXCOORD_0":2,
						"TEXCOORD_1":3
					},
					"indices":4,
					"material":0
				},
				{
					"attributes":{
						"POSITION":5,
						"NORMAL":6,
						"TEXCOORD_0":7,
						"TEXCOORD_1":8
					},
					"indices":9,
					"material":1
				},
				{
					"attributes":{
						"POSITION":10,
						"NORMAL":11,
						"TEXCOORD_0":12,
						"TEXCOORD_1":13
					},
					"indices":14,
					"material":2
				},
				{
					"attributes":{
						"POSITION":15,
						"NORMAL":16,
						"TEXCOORD_0":17,
						"TEXCOORD_1":18
					},
					"indices":19,
					"material":3
				}
			]
		}
	],
	"textures":[
		{
			"sampler":0,
			"source":0
		},
		{
			"sampler":0,
			"source":1
		},
		{
			"sampler":0,
			"source":2
		},
		{
			"sampler":0,
			"source":3
		},
		{
			"sampler":0,
			"source":4
		},
		{
			"sampler":0,
			"source":5
		},
		{
			"sampler":0,
			"source":0
		},
		{
			"sampler":0,
			"source":1
		},
		{
			"sampler":0,
			"source":2
		},
		{
			"sampler":0,
			"source":6
		},
		{
			"sampler":0,
			"source":7
		},
		{
			"sampler":0,
			"source":8
		}
	],
	"images":[
		{
			"mimeType":"image/png",
			"name":"T_WoodTrim_Normal",
			"uri":"T_WoodTrim_Normal.png"
		},
		{
			"mimeType":"image/png",
			"name":"T_WoodTrim_BaseColor",
			"uri":"T_WoodTrim_BaseColor.png"
		},
		{
			"mimeType":"image/png",
			"name":"T_WoodTrim_Roughness",
			"uri":"T_WoodTrim_Roughness.png"
		},
		{
			"mimeType":"image/png",
			"name":"T_Plaster_Normal",
			"uri":"T_Plaster_Normal.png"
		},
		{
			"mimeType":"image/png",
			"name":"T_Plaster_BaseColor",
			"uri":"T_Plaster_BaseColor.png"
		},
		{
			"mimeType":"image/png",
			"name":"T_Plaster_ORM",
			"uri":"T_Plaster_ORM.png"
		},
		{
			"mimeType":"image/png",
			"name":"T_UnevenBrick_Normal",
			"uri":"T_UnevenBrick_Normal.png"
		},
		{
			"mimeType":"image/png",
			"name":"T_UnevenBrick_BaseColor",
			"uri":"T_UnevenBrick_BaseColor.png"
		},
		{
			"mimeType":"image/png",
			"name":"T_UnevenBrick_Roughness",
			"uri":"T_UnevenBrick_Roughness.png"
		}
	],
	"accessors":[
		{
			"bufferView":0,
			"componentType":5126,
			"count":108,
			"max":[
				1.1175693273544312,
				3.116764545440674,
				2.0000011920928955
			],
			"min":[
				-2,
				0.6495776176452637,
				-1.1175700426101685
			],
			"type":"VEC3"
		},
		{
			"bufferView":1,
			"componentType":5126,
			"count":108,
			"type":"VEC3"
		},
		{
			"bufferView":2,
			"componentType":5126,
			"count":108,
			"type":"VEC2"
		},
		{
			"bufferView":3,
			"componentType":5126,
			"count":108,
			"type":"VEC2"
		},
		{
			"bufferView":4,
			"componentType":5123,
			"count":198,
			"type":"SCALAR"
		},
		{
			"bufferView":5,
			"componentType":5126,
			"count":12,
			"max":[
				0.8000000715255737,
				3,
				2.000000476837158
			],
			"min":[
				-2,
				0,
				-0.800000786781311
			],
			"type":"VEC3"
		},
		{
			"bufferView":6,
			"componentType":5126,
			"count":12,
			"type":"VEC3"
		},
		{
			"bufferView":7,
			"componentType":5126,
			"count":12,
			"type":"VEC2"
		},
		{
			"bufferView":8,
			"componentType":5126,
			"count":12,
			"type":"VEC2"
		},
		{
			"bufferView":9,
			"componentType":5123,
			"count":18,
			"type":"SCALAR"
		},
		{
			"bufferView":10,
			"componentType":5126,
			"count":264,
			"max":[
				1.035134196281433,
				0.8310797214508057,
				1.9999995231628418
			],
			"min":[
				-2.000000476837158,
				-1.9470715528768778e-07,
				-1.035133719444275
			],
			"type":"VEC3"
		},
		{
			"bufferView":11,
			"componentType":5126,
			"count":264,
			"type":"VEC3"
		},
		{
			"bufferView":12,
			"componentType":5126,
			"count":264,
			"type":"VEC2"
		},
		{
			"bufferView":13,
			"componentType":5126,
			"count":264,
			"type":"VEC2"
		},
		{
			"bufferView":14,
			"componentType":5123,
			"count":396,
			"type":"SCALAR"
		},
		{
			"bufferView":15,
			"componentType":5126,
			"count":23,
			"max":[
				1.0000007152557373,
				3,
				1.9999996423721313
			],
			"min":[
				-2.000000238418579,
				0,
				-1.0000001192092896
			],
			"type":"VEC3"
		},
		{
			"bufferView":16,
			"componentType":5126,
			"count":23,
			"type":"VEC3"
		},
		{
			"bufferView":17,
			"componentType":5126,
			"count":23,
			"type":"VEC2"
		},
		{
			"bufferView":18,
			"componentType":5126,
			"count":23,
			"type":"VEC2"
		},
		{
			"bufferView":19,
			"componentType":5123,
			"count":36,
			"type":"SCALAR"
		}
	],
	"bufferViews":[
		{
			"buffer":0,
			"byteLength":1296,
			"byteOffset":0,
			"target":34962
		},
		{
			"buffer":0,
			"byteLength":1296,
			"byteOffset":1296,
			"target":34962
		},
		{
			"buffer":0,
			"byteLength":864,
			"byteOffset":2592,
			"target":34962
		},
		{
			"buffer":0,
			"byteLength":864,
			"byteOffset":3456,
			"target":34962
		},
		{
			"buffer":0,
			"byteLength":396,
			"byteOffset":4320,
			"target":34963
		},
		{
			"buffer":0,
			"byteLength":144,
			"byteOffset":4716,
			"target":34962
		},
		{
			"buffer":0,
			"byteLength":144,
			"byteOffset":4860,
			"target":34962
		},
		{
			"buffer":0,
			"byteLength":96,
			"byteOffset":5004,
			"target":34962
		},
		{
			"buffer":0,
			"byteLength":96,
			"byteOffset":5100,
			"target":34962
		},
		{
			"buffer":0,
			"byteLength":36,
			"byteOffset":5196,
			"target":34963
		},
		{
			"buffer":0,
			"byteLength":3168,
			"byteOffset":5232,
			"target":34962
		},
		{
			"buffer":0,
			"byteLength":3168,
			"byteOffset":8400,
			"target":34962
		},
		{
			"buffer":0,
			"byteLength":2112,
			"byteOffset":11568,
			"target":34962
		},
		{
			"buffer":0,
			"byteLength":2112,
			"byteOffset":13680,
			"target":34962
		},
		{
			"buffer":0,
			"byteLength":792,
			"byteOffset":15792,
			"target":34963
		},
		{
			"buffer":0,
			"byteLength":276,
			"byteOffset":16584,
			"target":34962
		},
		{
			"buffer":0,
			"byteLength":276,
			"byteOffset":16860,
			"target":34962
		},
		{
			"buffer":0,
			"byteLength":184,
			"byteOffset":17136,
			"target":34962
		},
		{
			"buffer":0,
			"byteLength":184,
			"byteOffset":17320,
			"target":34962
		},
		{
			"buffer":0,
			"byteLength":72,
			"byteOffset":17504,
			"target":34963
		}
	],
	"samplers":[
		{
			"magFilter":9729,
			"minFilter":9987
		}
	],
	"buffers":[
		{
			"byteLength":17576,
			"uri":"Overhang_WoodBrick_Corner_Front.bin"
		}
	]
}
