{
	"asset":{
		"generator":"Khronos glTF Blender I/O v4.0.44",
		"version":"2.0"
	},
	"scene":0,
	"scenes":[
		{
			"name":"Scene",
			"nodes":[
				0
			]
		}
	],
	"nodes":[
		{
			"mesh":0,
			"name":"Overhang_Side_WoodWear_Short_L"
		}
	],
	"materials":[
		{
			"doubleSided":true,
			"name":"MI_WoodTrim_Wear",
			"normalTexture":{
				"index":0
			},
			"pbrMetallicRoughness":{
				"baseColorTexture":{
					"index":1
				},
				"metallicFactor":0,
				"metallicRoughnessTexture":{
					"index":2
				}
			}
		},
		{
			"doubleSided":true,
			"name":"MI_WoodTrim",
			"normalTexture":{
				"index":3
			},
			"pbrMetallicRoughness":{
				"baseColorTexture":{
					"index":4
				},
				"metallicFactor":0,
				"metallicRoughnessTexture":{
					"index":5
				}
			}
		},
		{
			"doubleSided":true,
			"name":"MI_Plaster",
			"normalTexture":{
				"index":6
			},
			"pbrMetallicRoughness":{
				"baseColorTexture":{
					"index":7
				},
				"metallicRoughnessTexture":{
					"index":8
				}
			}
		}
	],
	"meshes":[
		{
			"name":"Plane.016",
			"primitives":[
				{
					"attributes":{
						"POSITION":0,
						"NORMAL":1,
						"TEXCOORD_0":2,
						"TEXCOORD_1":3
					},
					"indices":4,
					"material":0
				},
				{
					"attributes":{
						"POSITION":5,
						"NORMAL":6,
						"TEXCOORD_0":7,
						"TEXCOORD_1":8
					},
					"indices":9,
					"material":1
				},
				{
					"attributes":{
						"POSITION":10,
						"NORMAL":11,
						"TEXCOORD_0":12,
						"TEXCOORD_1":13
					},
					"indices":14,
					"material":2
				}
			]
		}
	],
	"textures":[
		{
			"sampler":0,
			"source":0
		},
		{
			"sampler":0,
			"source":1
		},
		{
			"sampler":0,
			"source":2
		},
		{
			"sampler":0,
			"source":0
		},
		{
			"sampler":0,
			"source":1
		},
		{
			"sampler":0,
			"source":2
		},
		{
			"sampler":0,
			"source":3
		},
		{
			"sampler":0,
			"source":4
		},
		{
			"sampler":0,
			"source":5
		}
	],
	"images":[
		{
			"mimeType":"image/png",
			"name":"T_WoodTrim_Normal",
			"uri":"T_WoodTrim_Normal.png"
		},
		{
			"mimeType":"image/png",
			"name":"T_WoodTrim_BaseColor",
			"uri":"T_WoodTrim_BaseColor.png"
		},
		{
			"mimeType":"image/png",
			"name":"T_WoodTrim_Roughness",
			"uri":"T_WoodTrim_Roughness.png"
		},
		{
			"mimeType":"image/png",
			"name":"T_Plaster_Normal",
			"uri":"T_Plaster_Normal.png"
		},
		{
			"mimeType":"image/png",
			"name":"T_Plaster_BaseColor",
			"uri":"T_Plaster_BaseColor.png"
		},
		{
			"mimeType":"image/png",
			"name":"T_Plaster_ORM",
			"uri":"T_Plaster_ORM.png"
		}
	],
	"accessors":[
		{
			"bufferView":0,
			"componentType":5126,
			"count":176,
			"max":[
				-0.9690671563148499,
				5.962258338928223,
				0.8870139718055725
			],
			"min":[
				-1.0042009353637695,
				2.3538358211517334,
				-0.023023637011647224
			],
			"type":"VEC3"
		},
		{
			"bufferView":1,
			"componentType":5126,
			"count":176,
			"type":"VEC3"
		},
		{
			"bufferView":2,
			"componentType":5126,
			"count":176,
			"type":"VEC2"
		},
		{
			"bufferView":3,
			"componentType":5126,
			"count":176,
			"type":"VEC2"
		},
		{
			"bufferView":4,
			"componentType":5123,
			"count":264,
			"type":"SCALAR"
		},
		{
			"bufferView":5,
			"componentType":5126,
			"count":358,
			"max":[
				-0.6859644055366516,
				6.116765022277832,
				1.1228351593017578
			],
			"min":[
				-1.1652967929840088,
				-2.384185791015625e-07,
				-0.3140338957309723
			],
			"type":"VEC3"
		},
		{
			"bufferView":6,
			"componentType":5126,
			"count":358,
			"type":"VEC3"
		},
		{
			"bufferView":7,
			"componentType":5126,
			"count":358,
			"type":"VEC2"
		},
		{
			"bufferView":8,
			"componentType":5126,
			"count":358,
			"type":"VEC2"
		},
		{
			"bufferView":9,
			"componentType":5123,
			"count":738,
			"type":"SCALAR"
		},
		{
			"bufferView":10,
			"componentType":5126,
			"count":30,
			"max":[
				-0.7999998331069946,
				6.000000476837158,
				1.0000004768371582
			],
			"min":[
				-0.7999998331069946,
				1.9063254594802856,
				-0.0009438991546630859
			],
			"type":"VEC3"
		},
		{
			"bufferView":11,
			"componentType":5126,
			"count":30,
			"type":"VEC3"
		},
		{
			"bufferView":12,
			"componentType":5126,
			"count":30,
			"type":"VEC2"
		},
		{
			"bufferView":13,
			"componentType":5126,
			"count":30,
			"type":"VEC2"
		},
		{
			"bufferView":14,
			"componentType":5123,
			"count":84,
			"type":"SCALAR"
		}
	],
	"bufferViews":[
		{
			"buffer":0,
			"byteLength":2112,
			"byteOffset":0,
			"target":34962
		},
		{
			"buffer":0,
			"byteLength":2112,
			"byteOffset":2112,
			"target":34962
		},
		{
			"buffer":0,
			"byteLength":1408,
			"byteOffset":4224,
			"target":34962
		},
		{
			"buffer":0,
			"byteLength":1408,
			"byteOffset":5632,
			"target":34962
		},
		{
			"buffer":0,
			"byteLength":528,
			"byteOffset":7040,
			"target":34963
		},
		{
			"buffer":0,
			"byteLength":4296,
			"byteOffset":7568,
			"target":34962
		},
		{
			"buffer":0,
			"byteLength":4296,
			"byteOffset":11864,
			"target":34962
		},
		{
			"buffer":0,
			"byteLength":2864,
			"byteOffset":16160,
			"target":34962
		},
		{
			"buffer":0,
			"byteLength":2864,
			"byteOffset":19024,
			"target":34962
		},
		{
			"buffer":0,
			"byteLength":1476,
			"byteOffset":21888,
			"target":34963
		},
		{
			"buffer":0,
			"byteLength":360,
			"byteOffset":23364,
			"target":34962
		},
		{
			"buffer":0,
			"byteLength":360,
			"byteOffset":23724,
			"target":34962
		},
		{
			"buffer":0,
			"byteLength":240,
			"byteOffset":24084,
			"target":34962
		},
		{
			"buffer":0,
			"byteLength":240,
			"byteOffset":24324,
			"target":34962
		},
		{
			"buffer":0,
			"byteLength":168,
			"byteOffset":24564,
			"target":34963
		}
	],
	"samplers":[
		{
			"magFilter":9729,
			"minFilter":9987
		}
	],
	"buffers":[
		{
			"byteLength":24732,
			"uri":"Overhang_Side_WoodWear_Short_L.bin"
		}
	]
}
