{
	"asset":{
		"generator":"Khronos glTF Blender I/O v4.0.44",
		"version":"2.0"
	},
	"scene":0,
	"scenes":[
		{
			"name":"Scene",
			"nodes":[
				0
			]
		}
	],
	"nodes":[
		{
			"mesh":0,
			"name":"Roof_Modular_FlatTiles_8_R_Half"
		}
	],
	"materials":[
		{
			"doubleSided":true,
			"name":"MI_WoodTrim",
			"normalTexture":{
				"index":0
			},
			"pbrMetallicRoughness":{
				"baseColorTexture":{
					"index":1
				},
				"metallicFactor":0,
				"metallicRoughnessTexture":{
					"index":2
				}
			}
		},
		{
			"doubleSided":true,
			"name":"MI_FlatTiles",
			"normalTexture":{
				"index":3
			},
			"pbrMetallicRoughness":{
				"baseColorTexture":{
					"index":4
				},
				"metallicFactor":0,
				"metallicRoughnessTexture":{
					"index":5
				}
			}
		}
	],
	"meshes":[
		{
			"name":"Cube.241",
			"primitives":[
				{
					"attributes":{
						"POSITION":0,
						"NORMAL":1,
						"TEXCOORD_0":2,
						"TEXCOORD_1":3
					},
					"indices":4,
					"material":0
				},
				{
					"attributes":{
						"POSITION":5,
						"NORMAL":6,
						"TEXCOORD_0":7,
						"TEXCOORD_1":8
					},
					"indices":9,
					"material":1
				}
			]
		}
	],
	"textures":[
		{
			"sampler":0,
			"source":0
		},
		{
			"sampler":0,
			"source":1
		},
		{
			"sampler":0,
			"source":2
		},
		{
			"sampler":0,
			"source":3
		},
		{
			"sampler":0,
			"source":4
		},
		{
			"sampler":0,
			"source":5
		}
	],
	"images":[
		{
			"mimeType":"image/png",
			"name":"T_WoodTrim_Normal",
			"uri":"T_WoodTrim_Normal.png"
		},
		{
			"mimeType":"image/png",
			"name":"T_WoodTrim_BaseColor",
			"uri":"T_WoodTrim_BaseColor.png"
		},
		{
			"mimeType":"image/png",
			"name":"T_WoodTrim_Roughness",
			"uri":"T_WoodTrim_Roughness.png"
		},
		{
			"mimeType":"image/png",
			"name":"T_FlatTiles_Normal",
			"uri":"T_FlatTiles_Normal.png"
		},
		{
			"mimeType":"image/png",
			"name":"T_FlatTiles_BaseColor",
			"uri":"T_FlatTiles_BaseColor.png"
		},
		{
			"mimeType":"image/png",
			"name":"T_FlatTiles_Roughness",
			"uri":"T_FlatTiles_Roughness.png"
		}
	],
	"accessors":[
		{
			"bufferView":0,
			"componentType":5126,
			"count":273,
			"max":[
				4.901004791259766,
				5.555031776428223,
				0.9999997615814209
			],
			"min":[
				-0.05147707462310791,
				-0.7534207701683044,
				-1.1828360557556152
			],
			"type":"VEC3"
		},
		{
			"bufferView":1,
			"componentType":5126,
			"count":273,
			"type":"VEC3"
		},
		{
			"bufferView":2,
			"componentType":5126,
			"count":273,
			"type":"VEC2"
		},
		{
			"bufferView":3,
			"componentType":5126,
			"count":273,
			"type":"VEC2"
		},
		{
			"bufferView":4,
			"componentType":5123,
			"count":474,
			"type":"SCALAR"
		},
		{
			"bufferView":5,
			"componentType":5126,
			"count":111,
			"max":[
				4.974742412567139,
				5.788626670837402,
				1.000000238418579
			],
			"min":[
				0,
				-0.6048029661178589,
				-1.142287254333496
			],
			"type":"VEC3"
		},
		{
			"bufferView":6,
			"componentType":5126,
			"count":111,
			"type":"VEC3"
		},
		{
			"bufferView":7,
			"componentType":5126,
			"count":111,
			"type":"VEC2"
		},
		{
			"bufferView":8,
			"componentType":5126,
			"count":111,
			"type":"VEC2"
		},
		{
			"bufferView":9,
			"componentType":5123,
			"count":381,
			"type":"SCALAR"
		}
	],
	"bufferViews":[
		{
			"buffer":0,
			"byteLength":3276,
			"byteOffset":0,
			"target":34962
		},
		{
			"buffer":0,
			"byteLength":3276,
			"byteOffset":3276,
			"target":34962
		},
		{
			"buffer":0,
			"byteLength":2184,
			"byteOffset":6552,
			"target":34962
		},
		{
			"buffer":0,
			"byteLength":2184,
			"byteOffset":8736,
			"target":34962
		},
		{
			"buffer":0,
			"byteLength":948,
			"byteOffset":10920,
			"target":34963
		},
		{
			"buffer":0,
			"byteLength":1332,
			"byteOffset":11868,
			"target":34962
		},
		{
			"buffer":0,
			"byteLength":1332,
			"byteOffset":13200,
			"target":34962
		},
		{
			"buffer":0,
			"byteLength":888,
			"byteOffset":14532,
			"target":34962
		},
		{
			"buffer":0,
			"byteLength":888,
			"byteOffset":15420,
			"target":34962
		},
		{
			"buffer":0,
			"byteLength":762,
			"byteOffset":16308,
			"target":34963
		}
	],
	"samplers":[
		{
			"magFilter":9729,
			"minFilter":9987
		}
	],
	"buffers":[
		{
			"byteLength":17072,
			"uri":"Roof_Modular_FlatTiles_8_R_Half.bin"
		}
	]
}
