{
	"asset":{
		"generator":"Khronos glTF Blender I/O v4.0.44",
		"version":"2.0"
	},
	"scene":0,
	"scenes":[
		{
			"name":"Scene",
			"nodes":[
				0
			]
		}
	],
	"nodes":[
		{
			"mesh":0,
			"name":"Roof_Modular_FlatTiles_4_R_Half"
		}
	],
	"materials":[
		{
			"doubleSided":true,
			"name":"MI_WoodTrim",
			"normalTexture":{
				"index":0
			},
			"pbrMetallicRoughness":{
				"baseColorTexture":{
					"index":1
				},
				"metallicFactor":0,
				"metallicRoughnessTexture":{
					"index":2
				}
			}
		},
		{
			"doubleSided":true,
			"name":"MI_FlatTiles",
			"normalTexture":{
				"index":3
			},
			"pbrMetallicRoughness":{
				"baseColorTexture":{
					"index":4
				},
				"metallicFactor":0,
				"metallicRoughnessTexture":{
					"index":5
				}
			}
		}
	],
	"meshes":[
		{
			"name":"Cube.219",
			"primitives":[
				{
					"attributes":{
						"POSITION":0,
						"NORMAL":1,
						"TEXCOORD_0":2,
						"TEXCOORD_1":3
					},
					"indices":4,
					"material":0
				},
				{
					"attributes":{
						"POSITION":5,
						"NORMAL":6,
						"TEXCOORD_0":7,
						"TEXCOORD_1":8
					},
					"indices":9,
					"material":1
				}
			]
		}
	],
	"textures":[
		{
			"sampler":0,
			"source":0
		},
		{
			"sampler":0,
			"source":1
		},
		{
			"sampler":0,
			"source":2
		},
		{
			"sampler":0,
			"source":3
		},
		{
			"sampler":0,
			"source":4
		},
		{
			"sampler":0,
			"source":5
		}
	],
	"images":[
		{
			"mimeType":"image/png",
			"name":"T_WoodTrim_Normal",
			"uri":"T_WoodTrim_Normal.png"
		},
		{
			"mimeType":"image/png",
			"name":"T_WoodTrim_BaseColor",
			"uri":"T_WoodTrim_BaseColor.png"
		},
		{
			"mimeType":"image/png",
			"name":"T_WoodTrim_Roughness",
			"uri":"T_WoodTrim_Roughness.png"
		},
		{
			"mimeType":"image/png",
			"name":"T_FlatTiles_Normal",
			"uri":"T_FlatTiles_Normal.png"
		},
		{
			"mimeType":"image/png",
			"name":"T_FlatTiles_BaseColor",
			"uri":"T_FlatTiles_BaseColor.png"
		},
		{
			"mimeType":"image/png",
			"name":"T_FlatTiles_Roughness",
			"uri":"T_FlatTiles_Roughness.png"
		}
	],
	"accessors":[
		{
			"bufferView":0,
			"componentType":5126,
			"count":220,
			"max":[
				2.612257957458496,
				3.2241735458374023,
				0.9999992847442627
			],
			"min":[
				-0.0005674958229064941,
				-0.5222746729850769,
				-1.2385139465332031
			],
			"type":"VEC3"
		},
		{
			"bufferView":1,
			"componentType":5126,
			"count":220,
			"type":"VEC3"
		},
		{
			"bufferView":2,
			"componentType":5126,
			"count":220,
			"type":"VEC2"
		},
		{
			"bufferView":3,
			"componentType":5126,
			"count":220,
			"type":"VEC2"
		},
		{
			"bufferView":4,
			"componentType":5123,
			"count":378,
			"type":"SCALAR"
		},
		{
			"bufferView":5,
			"componentType":5126,
			"count":105,
			"max":[
				2.697944402694702,
				3.372676372528076,
				0.9999997615814209
			],
			"min":[
				-0.0005674362182617188,
				-0.38829052448272705,
				-1.1972007751464844
			],
			"type":"VEC3"
		},
		{
			"bufferView":6,
			"componentType":5126,
			"count":105,
			"type":"VEC3"
		},
		{
			"bufferView":7,
			"componentType":5126,
			"count":105,
			"type":"VEC2"
		},
		{
			"bufferView":8,
			"componentType":5126,
			"count":105,
			"type":"VEC2"
		},
		{
			"bufferView":9,
			"componentType":5123,
			"count":321,
			"type":"SCALAR"
		}
	],
	"bufferViews":[
		{
			"buffer":0,
			"byteLength":2640,
			"byteOffset":0,
			"target":34962
		},
		{
			"buffer":0,
			"byteLength":2640,
			"byteOffset":2640,
			"target":34962
		},
		{
			"buffer":0,
			"byteLength":1760,
			"byteOffset":5280,
			"target":34962
		},
		{
			"buffer":0,
			"byteLength":1760,
			"byteOffset":7040,
			"target":34962
		},
		{
			"buffer":0,
			"byteLength":756,
			"byteOffset":8800,
			"target":34963
		},
		{
			"buffer":0,
			"byteLength":1260,
			"byteOffset":9556,
			"target":34962
		},
		{
			"buffer":0,
			"byteLength":1260,
			"byteOffset":10816,
			"target":34962
		},
		{
			"buffer":0,
			"byteLength":840,
			"byteOffset":12076,
			"target":34962
		},
		{
			"buffer":0,
			"byteLength":840,
			"byteOffset":12916,
			"target":34962
		},
		{
			"buffer":0,
			"byteLength":642,
			"byteOffset":13756,
			"target":34963
		}
	],
	"samplers":[
		{
			"magFilter":9729,
			"minFilter":9987
		}
	],
	"buffers":[
		{
			"byteLength":14400,
			"uri":"Roof_Modular_FlatTiles_4_R_Half.bin"
		}
	]
}
