{
	"asset":{
		"generator":"Khronos glTF Blender I/O v4.0.44",
		"version":"2.0"
	},
	"scene":0,
	"scenes":[
		{
			"name":"Scene",
			"nodes":[
				0
			]
		}
	],
	"nodes":[
		{
			"mesh":0,
			"name":"Roof_Tower_FlatTiles"
		}
	],
	"materials":[
		{
			"doubleSided":true,
			"name":"MI_WoodTrim",
			"normalTexture":{
				"index":0
			},
			"pbrMetallicRoughness":{
				"baseColorTexture":{
					"index":1
				},
				"metallicFactor":0,
				"metallicRoughnessTexture":{
					"index":2
				}
			}
		},
		{
			"doubleSided":true,
			"name":"MI_RockTrim",
			"normalTexture":{
				"index":3
			},
			"pbrMetallicRoughness":{
				"baseColorTexture":{
					"index":4
				},
				"metallicRoughnessTexture":{
					"index":5
				}
			}
		},
		{
			"doubleSided":true,
			"name":"MI_FlatTiles",
			"normalTexture":{
				"index":6
			},
			"pbrMetallicRoughness":{
				"baseColorTexture":{
					"index":7
				},
				"metallicFactor":0,
				"metallicRoughnessTexture":{
					"index":8
				}
			}
		},
		{
			"doubleSided":true,
			"name":"MI_MetalOrnaments",
			"pbrMetallicRoughness":{
				"baseColorTexture":{
					"index":9
				},
				"metallicRoughnessTexture":{
					"index":10
				}
			}
		}
	],
	"meshes":[
		{
			"name":"Cube.061",
			"primitives":[
				{
					"attributes":{
						"POSITION":0,
						"NORMAL":1,
						"TEXCOORD_0":2,
						"TEXCOORD_1":3
					},
					"indices":4,
					"material":0
				},
				{
					"attributes":{
						"POSITION":5,
						"NORMAL":6,
						"TEXCOORD_0":7,
						"TEXCOORD_1":8
					},
					"indices":9,
					"material":1
				},
				{
					"attributes":{
						"POSITION":10,
						"NORMAL":11,
						"TEXCOORD_0":12,
						"TEXCOORD_1":13
					},
					"indices":14,
					"material":2
				},
				{
					"attributes":{
						"POSITION":15,
						"NORMAL":16,
						"TEXCOORD_0":17,
						"TEXCOORD_1":18
					},
					"indices":19,
					"material":3
				}
			]
		}
	],
	"textures":[
		{
			"sampler":0,
			"source":0
		},
		{
			"sampler":0,
			"source":1
		},
		{
			"sampler":0,
			"source":2
		},
		{
			"sampler":0,
			"source":3
		},
		{
			"sampler":0,
			"source":4
		},
		{
			"sampler":0,
			"source":5
		},
		{
			"sampler":0,
			"source":6
		},
		{
			"sampler":0,
			"source":7
		},
		{
			"sampler":0,
			"source":8
		},
		{
			"sampler":0,
			"source":9
		},
		{
			"sampler":0,
			"source":10
		}
	],
	"images":[
		{
			"mimeType":"image/png",
			"name":"T_WoodTrim_Normal",
			"uri":"T_WoodTrim_Normal.png"
		},
		{
			"mimeType":"image/png",
			"name":"T_WoodTrim_BaseColor",
			"uri":"T_WoodTrim_BaseColor.png"
		},
		{
			"mimeType":"image/png",
			"name":"T_WoodTrim_Roughness",
			"uri":"T_WoodTrim_Roughness.png"
		},
		{
			"mimeType":"image/png",
			"name":"T_RockTrim_Normal",
			"uri":"T_RockTrim_Normal.png"
		},
		{
			"mimeType":"image/png",
			"name":"T_RockTrim_BaseColor",
			"uri":"T_RockTrim_BaseColor.png"
		},
		{
			"mimeType":"image/png",
			"name":"T_RockTrim_ORM",
			"uri":"T_RockTrim_ORM.png"
		},
		{
			"mimeType":"image/png",
			"name":"T_FlatTiles_Normal",
			"uri":"T_FlatTiles_Normal.png"
		},
		{
			"mimeType":"image/png",
			"name":"T_FlatTiles_BaseColor",
			"uri":"T_FlatTiles_BaseColor.png"
		},
		{
			"mimeType":"image/png",
			"name":"T_FlatTiles_Roughness",
			"uri":"T_FlatTiles_Roughness.png"
		},
		{
			"mimeType":"image/png",
			"name":"T_MetalOrnaments_BaseColor",
			"uri":"T_MetalOrnaments_BaseColor.png"
		},
		{
			"mimeType":"image/png",
			"name":"T_MetalOrnaments_Roughness",
			"uri":"T_MetalOrnaments_Roughness.png"
		}
	],
	"accessors":[
		{
			"bufferView":0,
			"componentType":5126,
			"count":1500,
			"max":[
				2.6192500591278076,
				4.712187767028809,
				2.5960004329681396
			],
			"min":[
				-2.6192500591278076,
				-0.5719583630561829,
				-2.6032395362854004
			],
			"type":"VEC3"
		},
		{
			"bufferView":1,
			"componentType":5126,
			"count":1500,
			"type":"VEC3"
		},
		{
			"bufferView":2,
			"componentType":5126,
			"count":1500,
			"type":"VEC2"
		},
		{
			"bufferView":3,
			"componentType":5126,
			"count":1500,
			"type":"VEC2"
		},
		{
			"bufferView":4,
			"componentType":5123,
			"count":2928,
			"type":"SCALAR"
		},
		{
			"bufferView":5,
			"componentType":5126,
			"count":85,
			"max":[
				0.8499592542648315,
				4.8593950271606445,
				0.8499592542648315
			],
			"min":[
				-0.8499592542648315,
				2.8834099769592285,
				-0.8499592542648315
			],
			"type":"VEC3"
		},
		{
			"bufferView":6,
			"componentType":5126,
			"count":85,
			"type":"VEC3"
		},
		{
			"bufferView":7,
			"componentType":5126,
			"count":85,
			"type":"VEC2"
		},
		{
			"bufferView":8,
			"componentType":5126,
			"count":85,
			"type":"VEC2"
		},
		{
			"bufferView":9,
			"componentType":5123,
			"count":186,
			"type":"SCALAR"
		},
		{
			"bufferView":10,
			"componentType":5126,
			"count":64,
			"max":[
				2.508633852005005,
				4.579530239105225,
				2.508633852005005
			],
			"min":[
				-2.508633852005005,
				-0.171311616897583,
				-2.508633852005005
			],
			"type":"VEC3"
		},
		{
			"bufferView":11,
			"componentType":5126,
			"count":64,
			"type":"VEC3"
		},
		{
			"bufferView":12,
			"componentType":5126,
			"count":64,
			"type":"VEC2"
		},
		{
			"bufferView":13,
			"componentType":5126,
			"count":64,
			"type":"VEC2"
		},
		{
			"bufferView":14,
			"componentType":5123,
			"count":168,
			"type":"SCALAR"
		},
		{
			"bufferView":15,
			"componentType":5126,
			"count":276,
			"max":[
				0.12427186965942383,
				6.788815498352051,
				0.12506477534770966
			],
			"min":[
				-0.12427186965942383,
				4.511778354644775,
				-0.12319160252809525
			],
			"type":"VEC3"
		},
		{
			"bufferView":16,
			"componentType":5126,
			"count":276,
			"type":"VEC3"
		},
		{
			"bufferView":17,
			"componentType":5126,
			"count":276,
			"type":"VEC2"
		},
		{
			"bufferView":18,
			"componentType":5126,
			"count":276,
			"type":"VEC2"
		},
		{
			"bufferView":19,
			"componentType":5123,
			"count":702,
			"type":"SCALAR"
		}
	],
	"bufferViews":[
		{
			"buffer":0,
			"byteLength":18000,
			"byteOffset":0,
			"target":34962
		},
		{
			"buffer":0,
			"byteLength":18000,
			"byteOffset":18000,
			"target":34962
		},
		{
			"buffer":0,
			"byteLength":12000,
			"byteOffset":36000,
			"target":34962
		},
		{
			"buffer":0,
			"byteLength":12000,
			"byteOffset":48000,
			"target":34962
		},
		{
			"buffer":0,
			"byteLength":5856,
			"byteOffset":60000,
			"target":34963
		},
		{
			"buffer":0,
			"byteLength":1020,
			"byteOffset":65856,
			"target":34962
		},
		{
			"buffer":0,
			"byteLength":1020,
			"byteOffset":66876,
			"target":34962
		},
		{
			"buffer":0,
			"byteLength":680,
			"byteOffset":67896,
			"target":34962
		},
		{
			"buffer":0,
			"byteLength":680,
			"byteOffset":68576,
			"target":34962
		},
		{
			"buffer":0,
			"byteLength":372,
			"byteOffset":69256,
			"target":34963
		},
		{
			"buffer":0,
			"byteLength":768,
			"byteOffset":69628,
			"target":34962
		},
		{
			"buffer":0,
			"byteLength":768,
			"byteOffset":70396,
			"target":34962
		},
		{
			"buffer":0,
			"byteLength":512,
			"byteOffset":71164,
			"target":34962
		},
		{
			"buffer":0,
			"byteLength":512,
			"byteOffset":71676,
			"target":34962
		},
		{
			"buffer":0,
			"byteLength":336,
			"byteOffset":72188,
			"target":34963
		},
		{
			"buffer":0,
			"byteLength":3312,
			"byteOffset":72524,
			"target":34962
		},
		{
			"buffer":0,
			"byteLength":3312,
			"byteOffset":75836,
			"target":34962
		},
		{
			"buffer":0,
			"byteLength":2208,
			"byteOffset":79148,
			"target":34962
		},
		{
			"buffer":0,
			"byteLength":2208,
			"byteOffset":81356,
			"target":34962
		},
		{
			"buffer":0,
			"byteLength":1404,
			"byteOffset":83564,
			"target":34963
		}
	],
	"samplers":[
		{
			"magFilter":9729,
			"minFilter":9987
		}
	],
	"buffers":[
		{
			"byteLength":84968,
			"uri":"Roof_Tower_FlatTiles.bin"
		}
	]
}
