{
	"asset":{
		"generator":"Khronos glTF Blender I/O v4.0.44",
		"version":"2.0"
	},
	"scene":0,
	"scenes":[
		{
			"name":"Scene",
			"nodes":[
				0
			]
		}
	],
	"nodes":[
		{
			"mesh":0,
			"name":"Roof_Front_Wood2"
		}
	],
	"materials":[
		{
			"doubleSided":true,
			"name":"MI_WoodTrim",
			"normalTexture":{
				"index":0
			},
			"pbrMetallicRoughness":{
				"baseColorTexture":{
					"index":1
				},
				"metallicFactor":0,
				"metallicRoughnessTexture":{
					"index":2
				}
			}
		},
		{
			"doubleSided":true,
			"name":"MI_Plaster",
			"normalTexture":{
				"index":3
			},
			"pbrMetallicRoughness":{
				"baseColorTexture":{
					"index":4
				},
				"metallicRoughnessTexture":{
					"index":5
				}
			}
		}
	],
	"meshes":[
		{
			"name":"Cube.162",
			"primitives":[
				{
					"attributes":{
						"POSITION":0,
						"NORMAL":1,
						"TEXCOORD_0":2
					},
					"indices":3,
					"material":0
				},
				{
					"attributes":{
						"POSITION":4,
						"NORMAL":5,
						"TEXCOORD_0":6
					},
					"indices":7,
					"material":1
				}
			]
		}
	],
	"textures":[
		{
			"sampler":0,
			"source":0
		},
		{
			"sampler":0,
			"source":1
		},
		{
			"sampler":0,
			"source":2
		},
		{
			"sampler":0,
			"source":3
		},
		{
			"sampler":0,
			"source":4
		},
		{
			"sampler":0,
			"source":5
		}
	],
	"images":[
		{
			"mimeType":"image/png",
			"name":"T_WoodTrim_Normal",
			"uri":"T_WoodTrim_Normal.png"
		},
		{
			"mimeType":"image/png",
			"name":"T_WoodTrim_BaseColor",
			"uri":"T_WoodTrim_BaseColor.png"
		},
		{
			"mimeType":"image/png",
			"name":"T_WoodTrim_Roughness",
			"uri":"T_WoodTrim_Roughness.png"
		},
		{
			"mimeType":"image/png",
			"name":"T_Plaster_Normal",
			"uri":"T_Plaster_Normal.png"
		},
		{
			"mimeType":"image/png",
			"name":"T_Plaster_BaseColor",
			"uri":"T_Plaster_BaseColor.png"
		},
		{
			"mimeType":"image/png",
			"name":"T_Plaster_ORM",
			"uri":"T_Plaster_ORM.png"
		}
	],
	"accessors":[
		{
			"bufferView":0,
			"componentType":5126,
			"count":162,
			"max":[
				1.2748736143112183,
				1.6359994411468506,
				0.41629892587661743
			],
			"min":[
				-1.3322436809539795,
				-0.13308730721473694,
				-0.3349645733833313
			],
			"type":"VEC3"
		},
		{
			"bufferView":1,
			"componentType":5126,
			"count":162,
			"type":"VEC3"
		},
		{
			"bufferView":2,
			"componentType":5126,
			"count":162,
			"type":"VEC2"
		},
		{
			"bufferView":3,
			"componentType":5123,
			"count":240,
			"type":"SCALAR"
		},
		{
			"bufferView":4,
			"componentType":5126,
			"count":8,
			"max":[
				1.1078823804855347,
				1.6417748928070068,
				-0.19999921321868896
			],
			"min":[
				-1.1053818464279175,
				0.01916709542274475,
				-0.20000086724758148
			],
			"type":"VEC3"
		},
		{
			"bufferView":5,
			"componentType":5126,
			"count":8,
			"type":"VEC3"
		},
		{
			"bufferView":6,
			"componentType":5126,
			"count":8,
			"type":"VEC2"
		},
		{
			"bufferView":7,
			"componentType":5123,
			"count":18,
			"type":"SCALAR"
		}
	],
	"bufferViews":[
		{
			"buffer":0,
			"byteLength":1944,
			"byteOffset":0,
			"target":34962
		},
		{
			"buffer":0,
			"byteLength":1944,
			"byteOffset":1944,
			"target":34962
		},
		{
			"buffer":0,
			"byteLength":1296,
			"byteOffset":3888,
			"target":34962
		},
		{
			"buffer":0,
			"byteLength":480,
			"byteOffset":5184,
			"target":34963
		},
		{
			"buffer":0,
			"byteLength":96,
			"byteOffset":5664,
			"target":34962
		},
		{
			"buffer":0,
			"byteLength":96,
			"byteOffset":5760,
			"target":34962
		},
		{
			"buffer":0,
			"byteLength":64,
			"byteOffset":5856,
			"target":34962
		},
		{
			"buffer":0,
			"byteLength":36,
			"byteOffset":5920,
			"target":34963
		}
	],
	"samplers":[
		{
			"magFilter":9729,
			"minFilter":9987
		}
	],
	"buffers":[
		{
			"byteLength":5956,
			"uri":"Roof_Front_Wood2.bin"
		}
	]
}
