{
	"asset":{
		"generator":"Khronos glTF Blender I/O v4.0.44",
		"version":"2.0"
	},
	"scene":0,
	"scenes":[
		{
			"name":"Scene",
			"nodes":[
				0
			]
		}
	],
	"nodes":[
		{
			"mesh":0,
			"name":"Roof_FlatTiles_4x4"
		}
	],
	"materials":[
		{
			"doubleSided":true,
			"name":"MI_FlatTiles",
			"normalTexture":{
				"index":0
			},
			"pbrMetallicRoughness":{
				"baseColorTexture":{
					"index":1
				},
				"metallicFactor":0,
				"metallicRoughnessTexture":{
					"index":2
				}
			}
		},
		{
			"doubleSided":true,
			"name":"MI_WoodTrim",
			"normalTexture":{
				"index":3
			},
			"pbrMetallicRoughness":{
				"baseColorTexture":{
					"index":4
				},
				"metallicFactor":0,
				"metallicRoughnessTexture":{
					"index":5
				}
			}
		},
		{
			"doubleSided":true,
			"name":"MI_RoundTiles",
			"normalTexture":{
				"index":6
			},
			"pbrMetallicRoughness":{
				"baseColorTexture":{
					"index":7
				},
				"metallicFactor":0,
				"metallicRoughnessTexture":{
					"index":8
				}
			}
		}
	],
	"meshes":[
		{
			"name":"Plane.015",
			"primitives":[
				{
					"attributes":{
						"POSITION":0,
						"NORMAL":1,
						"TEXCOORD_0":2,
						"TEXCOORD_1":3
					},
					"indices":4,
					"material":0
				},
				{
					"attributes":{
						"POSITION":5,
						"NORMAL":6,
						"TEXCOORD_0":7,
						"TEXCOORD_1":8
					},
					"indices":9,
					"material":1
				},
				{
					"attributes":{
						"POSITION":10,
						"NORMAL":11,
						"TEXCOORD_0":12,
						"TEXCOORD_1":13
					},
					"indices":14,
					"material":2
				}
			]
		}
	],
	"textures":[
		{
			"sampler":0,
			"source":0
		},
		{
			"sampler":0,
			"source":1
		},
		{
			"sampler":0,
			"source":2
		},
		{
			"sampler":0,
			"source":3
		},
		{
			"sampler":0,
			"source":4
		},
		{
			"sampler":0,
			"source":5
		},
		{
			"sampler":0,
			"source":6
		},
		{
			"sampler":0,
			"source":7
		},
		{
			"sampler":0,
			"source":8
		}
	],
	"images":[
		{
			"mimeType":"image/png",
			"name":"T_FlatTiles_Normal",
			"uri":"T_FlatTiles_Normal.png"
		},
		{
			"mimeType":"image/png",
			"name":"T_FlatTiles_BaseColor",
			"uri":"T_FlatTiles_BaseColor.png"
		},
		{
			"mimeType":"image/png",
			"name":"T_FlatTiles_Roughness",
			"uri":"T_FlatTiles_Roughness.png"
		},
		{
			"mimeType":"image/png",
			"name":"T_WoodTrim_Normal",
			"uri":"T_WoodTrim_Normal.png"
		},
		{
			"mimeType":"image/png",
			"name":"T_WoodTrim_BaseColor",
			"uri":"T_WoodTrim_BaseColor.png"
		},
		{
			"mimeType":"image/png",
			"name":"T_WoodTrim_Roughness",
			"uri":"T_WoodTrim_Roughness.png"
		},
		{
			"mimeType":"image/png",
			"name":"T_RoundTiles_Normal",
			"uri":"T_RoundTiles_Normal.png"
		},
		{
			"mimeType":"image/png",
			"name":"T_RoundTiles_BaseColor",
			"uri":"T_RoundTiles_BaseColor.png"
		},
		{
			"mimeType":"image/png",
			"name":"T_RoundTiles_Roughness",
			"uri":"T_RoundTiles_Roughness.png"
		}
	],
	"accessors":[
		{
			"bufferView":0,
			"componentType":5126,
			"count":752,
			"max":[
				2.767246961593628,
				3.3734469413757324,
				2.70072340965271
			],
			"min":[
				-2.767246961593628,
				-0.5579695701599121,
				-2.6960670948028564
			],
			"type":"VEC3"
		},
		{
			"bufferView":1,
			"componentType":5126,
			"count":752,
			"type":"VEC3"
		},
		{
			"bufferView":2,
			"componentType":5126,
			"count":752,
			"type":"VEC2"
		},
		{
			"bufferView":3,
			"componentType":5126,
			"count":752,
			"type":"VEC2"
		},
		{
			"bufferView":4,
			"componentType":5123,
			"count":2340,
			"type":"SCALAR"
		},
		{
			"bufferView":5,
			"componentType":5126,
			"count":1176,
			"max":[
				2.5676209926605225,
				3.200705051422119,
				2.7454771995544434
			],
			"min":[
				-2.5676209926605225,
				-0.5157185792922974,
				-2.73990797996521
			],
			"type":"VEC3"
		},
		{
			"bufferView":6,
			"componentType":5126,
			"count":1176,
			"type":"VEC3"
		},
		{
			"bufferView":7,
			"componentType":5126,
			"count":1176,
			"type":"VEC2"
		},
		{
			"bufferView":8,
			"componentType":5126,
			"count":1176,
			"type":"VEC2"
		},
		{
			"bufferView":9,
			"componentType":5123,
			"count":2160,
			"type":"SCALAR"
		},
		{
			"bufferView":10,
			"componentType":5126,
			"count":480,
			"max":[
				0.34674370288848877,
				3.527637004852295,
				2.8215668201446533
			],
			"min":[
				-0.34845757484436035,
				3.0169153213500977,
				-2.7018470764160156
			],
			"type":"VEC3"
		},
		{
			"bufferView":11,
			"componentType":5126,
			"count":480,
			"type":"VEC3"
		},
		{
			"bufferView":12,
			"componentType":5126,
			"count":480,
			"type":"VEC2"
		},
		{
			"bufferView":13,
			"componentType":5126,
			"count":480,
			"type":"VEC2"
		},
		{
			"bufferView":14,
			"componentType":5123,
			"count":1224,
			"type":"SCALAR"
		}
	],
	"bufferViews":[
		{
			"buffer":0,
			"byteLength":9024,
			"byteOffset":0,
			"target":34962
		},
		{
			"buffer":0,
			"byteLength":9024,
			"byteOffset":9024,
			"target":34962
		},
		{
			"buffer":0,
			"byteLength":6016,
			"byteOffset":18048,
			"target":34962
		},
		{
			"buffer":0,
			"byteLength":6016,
			"byteOffset":24064,
			"target":34962
		},
		{
			"buffer":0,
			"byteLength":4680,
			"byteOffset":30080,
			"target":34963
		},
		{
			"buffer":0,
			"byteLength":14112,
			"byteOffset":34760,
			"target":34962
		},
		{
			"buffer":0,
			"byteLength":14112,
			"byteOffset":48872,
			"target":34962
		},
		{
			"buffer":0,
			"byteLength":9408,
			"byteOffset":62984,
			"target":34962
		},
		{
			"buffer":0,
			"byteLength":9408,
			"byteOffset":72392,
			"target":34962
		},
		{
			"buffer":0,
			"byteLength":4320,
			"byteOffset":81800,
			"target":34963
		},
		{
			"buffer":0,
			"byteLength":5760,
			"byteOffset":86120,
			"target":34962
		},
		{
			"buffer":0,
			"byteLength":5760,
			"byteOffset":91880,
			"target":34962
		},
		{
			"buffer":0,
			"byteLength":3840,
			"byteOffset":97640,
			"target":34962
		},
		{
			"buffer":0,
			"byteLength":3840,
			"byteOffset":101480,
			"target":34962
		},
		{
			"buffer":0,
			"byteLength":2448,
			"byteOffset":105320,
			"target":34963
		}
	],
	"samplers":[
		{
			"magFilter":9729,
			"minFilter":9987
		}
	],
	"buffers":[
		{
			"byteLength":107768,
			"uri":"Roof_FlatTiles_4x4.bin"
		}
	]
}
