{
	"asset":{
		"generator":"Khronos glTF Blender I/O v4.0.44",
		"version":"2.0"
	},
	"scene":0,
	"scenes":[
		{
			"name":"Scene",
			"nodes":[
				0
			]
		}
	],
	"nodes":[
		{
			"mesh":0,
			"name":"Roof_FlatTiles_8x10"
		}
	],
	"materials":[
		{
			"doubleSided":true,
			"name":"MI_WoodTrim",
			"normalTexture":{
				"index":0,
				"texCoord":1
			},
			"pbrMetallicRoughness":{
				"baseColorTexture":{
					"index":1,
					"texCoord":1
				},
				"metallicFactor":0,
				"metallicRoughnessTexture":{
					"index":2,
					"texCoord":1
				}
			}
		},
		{
			"doubleSided":true,
			"name":"MI_FlatTiles",
			"normalTexture":{
				"index":3,
				"texCoord":1
			},
			"pbrMetallicRoughness":{
				"baseColorTexture":{
					"index":4,
					"texCoord":1
				},
				"metallicFactor":0,
				"metallicRoughnessTexture":{
					"index":5,
					"texCoord":1
				}
			}
		},
		{
			"doubleSided":true,
			"name":"MI_RoundTiles",
			"normalTexture":{
				"index":6,
				"texCoord":1
			},
			"pbrMetallicRoughness":{
				"baseColorTexture":{
					"index":7,
					"texCoord":1
				},
				"metallicFactor":0,
				"metallicRoughnessTexture":{
					"index":8,
					"texCoord":1
				}
			}
		}
	],
	"meshes":[
		{
			"name":"Cube.085",
			"primitives":[
				{
					"attributes":{
						"POSITION":0,
						"NORMAL":1,
						"TEXCOORD_0":2,
						"TEXCOORD_1":3
					},
					"indices":4,
					"material":0
				},
				{
					"attributes":{
						"POSITION":5,
						"NORMAL":6,
						"TEXCOORD_0":7,
						"TEXCOORD_1":8
					},
					"indices":9,
					"material":1
				},
				{
					"attributes":{
						"POSITION":10,
						"NORMAL":11,
						"TEXCOORD_0":12,
						"TEXCOORD_1":13
					},
					"indices":14,
					"material":2
				}
			]
		}
	],
	"textures":[
		{
			"sampler":0,
			"source":0
		},
		{
			"sampler":0,
			"source":1
		},
		{
			"sampler":0,
			"source":2
		},
		{
			"sampler":0,
			"source":3
		},
		{
			"sampler":0,
			"source":4
		},
		{
			"sampler":0,
			"source":5
		},
		{
			"sampler":0,
			"source":6
		},
		{
			"sampler":0,
			"source":7
		},
		{
			"sampler":0,
			"source":8
		}
	],
	"images":[
		{
			"mimeType":"image/png",
			"name":"T_WoodTrim_Normal",
			"uri":"T_WoodTrim_Normal.png"
		},
		{
			"mimeType":"image/png",
			"name":"T_WoodTrim_BaseColor",
			"uri":"T_WoodTrim_BaseColor.png"
		},
		{
			"mimeType":"image/png",
			"name":"T_WoodTrim_Roughness",
			"uri":"T_WoodTrim_Roughness.png"
		},
		{
			"mimeType":"image/png",
			"name":"T_FlatTiles_Normal",
			"uri":"T_FlatTiles_Normal.png"
		},
		{
			"mimeType":"image/png",
			"name":"T_FlatTiles_BaseColor",
			"uri":"T_FlatTiles_BaseColor.png"
		},
		{
			"mimeType":"image/png",
			"name":"T_FlatTiles_Roughness",
			"uri":"T_FlatTiles_Roughness.png"
		},
		{
			"mimeType":"image/png",
			"name":"T_RoundTiles_Normal",
			"uri":"T_RoundTiles_Normal.png"
		},
		{
			"mimeType":"image/png",
			"name":"T_RoundTiles_BaseColor",
			"uri":"T_RoundTiles_BaseColor.png"
		},
		{
			"mimeType":"image/png",
			"name":"T_RoundTiles_Roughness",
			"uri":"T_RoundTiles_Roughness.png"
		}
	],
	"accessors":[
		{
			"bufferView":0,
			"componentType":5126,
			"count":1632,
			"max":[
				4.9567179679870605,
				5.600559711456299,
				5.858181953430176
			],
			"min":[
				-4.9567179679870605,
				-0.7799561023712158,
				-5.851998329162598
			],
			"type":"VEC3"
		},
		{
			"bufferView":1,
			"componentType":5126,
			"count":1632,
			"type":"VEC3"
		},
		{
			"bufferView":2,
			"componentType":5126,
			"count":1632,
			"type":"VEC2"
		},
		{
			"bufferView":3,
			"componentType":5126,
			"count":1632,
			"type":"VEC2"
		},
		{
			"bufferView":4,
			"componentType":5123,
			"count":2712,
			"type":"SCALAR"
		},
		{
			"bufferView":5,
			"componentType":5126,
			"count":1349,
			"max":[
				5.479649543762207,
				5.770544052124023,
				5.798664569854736
			],
			"min":[
				-5.479649543762207,
				-0.9689667224884033,
				-5.781564712524414
			],
			"type":"VEC3"
		},
		{
			"bufferView":6,
			"componentType":5126,
			"count":1349,
			"type":"VEC3"
		},
		{
			"bufferView":7,
			"componentType":5126,
			"count":1349,
			"type":"VEC2"
		},
		{
			"bufferView":8,
			"componentType":5126,
			"count":1349,
			"type":"VEC2"
		},
		{
			"bufferView":9,
			"componentType":5123,
			"count":4524,
			"type":"SCALAR"
		},
		{
			"bufferView":10,
			"componentType":5126,
			"count":1200,
			"max":[
				0.3307531774044037,
				6.001367092132568,
				6.0074462890625
			],
			"min":[
				-0.33246704936027527,
				5.495884418487549,
				-5.844740390777588
			],
			"type":"VEC3"
		},
		{
			"bufferView":11,
			"componentType":5126,
			"count":1200,
			"type":"VEC3"
		},
		{
			"bufferView":12,
			"componentType":5126,
			"count":1200,
			"type":"VEC2"
		},
		{
			"bufferView":13,
			"componentType":5126,
			"count":1200,
			"type":"VEC2"
		},
		{
			"bufferView":14,
			"componentType":5123,
			"count":3060,
			"type":"SCALAR"
		}
	],
	"bufferViews":[
		{
			"buffer":0,
			"byteLength":19584,
			"byteOffset":0,
			"target":34962
		},
		{
			"buffer":0,
			"byteLength":19584,
			"byteOffset":19584,
			"target":34962
		},
		{
			"buffer":0,
			"byteLength":13056,
			"byteOffset":39168,
			"target":34962
		},
		{
			"buffer":0,
			"byteLength":13056,
			"byteOffset":52224,
			"target":34962
		},
		{
			"buffer":0,
			"byteLength":5424,
			"byteOffset":65280,
			"target":34963
		},
		{
			"buffer":0,
			"byteLength":16188,
			"byteOffset":70704,
			"target":34962
		},
		{
			"buffer":0,
			"byteLength":16188,
			"byteOffset":86892,
			"target":34962
		},
		{
			"buffer":0,
			"byteLength":10792,
			"byteOffset":103080,
			"target":34962
		},
		{
			"buffer":0,
			"byteLength":10792,
			"byteOffset":113872,
			"target":34962
		},
		{
			"buffer":0,
			"byteLength":9048,
			"byteOffset":124664,
			"target":34963
		},
		{
			"buffer":0,
			"byteLength":14400,
			"byteOffset":133712,
			"target":34962
		},
		{
			"buffer":0,
			"byteLength":14400,
			"byteOffset":148112,
			"target":34962
		},
		{
			"buffer":0,
			"byteLength":9600,
			"byteOffset":162512,
			"target":34962
		},
		{
			"buffer":0,
			"byteLength":9600,
			"byteOffset":172112,
			"target":34962
		},
		{
			"buffer":0,
			"byteLength":6120,
			"byteOffset":181712,
			"target":34963
		}
	],
	"samplers":[
		{
			"magFilter":9729,
			"minFilter":9987
		}
	],
	"buffers":[
		{
			"byteLength":187832,
			"uri":"Roof_FlatTiles_8x10.bin"
		}
	]
}
