{
	"asset":{
		"generator":"Khronos glTF Blender I/O v4.0.44",
		"version":"2.0"
	},
	"scene":0,
	"scenes":[
		{
			"name":"Scene",
			"nodes":[
				0
			]
		}
	],
	"nodes":[
		{
			"mesh":0,
			"name":"Roof_Spikes10"
		}
	],
	"materials":[
		{
			"doubleSided":true,
			"name":"MI_MetalOrnaments",
			"pbrMetallicRoughness":{
				"baseColorTexture":{
					"index":0
				},
				"metallicRoughnessTexture":{
					"index":1
				}
			}
		}
	],
	"meshes":[
		{
			"name":"Torus.020",
			"primitives":[
				{
					"attributes":{
						"POSITION":0,
						"NORMAL":1,
						"TEXCOORD_0":2
					},
					"indices":3,
					"material":0
				}
			]
		}
	],
	"textures":[
		{
			"sampler":0,
			"source":0
		},
		{
			"sampler":0,
			"source":1
		}
	],
	"images":[
		{
			"mimeType":"image/png",
			"name":"T_MetalOrnaments_BaseColor",
			"uri":"T_MetalOrnaments_BaseColor.png"
		},
		{
			"mimeType":"image/png",
			"name":"T_MetalOrnaments_Roughness",
			"uri":"T_MetalOrnaments_Roughness.png"
		}
	],
	"accessors":[
		{
			"bufferView":0,
			"componentType":5126,
			"count":3496,
			"max":[
				0.08931872248649597,
				1.5295624732971191,
				4.793522834777832
			],
			"min":[
				-0.08931872248649597,
				-0.03507280349731445,
				-4.8751301765441895
			],
			"type":"VEC3"
		},
		{
			"bufferView":1,
			"componentType":5126,
			"count":3496,
			"type":"VEC3"
		},
		{
			"bufferView":2,
			"componentType":5126,
			"count":3496,
			"type":"VEC2"
		},
		{
			"bufferView":3,
			"componentType":5123,
			"count":11376,
			"type":"SCALAR"
		}
	],
	"bufferViews":[
		{
			"buffer":0,
			"byteLength":41952,
			"byteOffset":0,
			"target":34962
		},
		{
			"buffer":0,
			"byteLength":41952,
			"byteOffset":41952,
			"target":34962
		},
		{
			"buffer":0,
			"byteLength":27968,
			"byteOffset":83904,
			"target":34962
		},
		{
			"buffer":0,
			"byteLength":22752,
			"byteOffset":111872,
			"target":34963
		}
	],
	"samplers":[
		{
			"magFilter":9729,
			"minFilter":9987
		}
	],
	"buffers":[
		{
			"byteLength":134624,
			"uri":"Roof_Spikes10.bin"
		}
	]
}
