{
	"asset":{
		"generator":"Khronos glTF Blender I/O v4.0.44",
		"version":"2.0"
	},
	"scene":0,
	"scenes":[
		{
			"name":"Scene",
			"nodes":[
				0
			]
		}
	],
	"nodes":[
		{
			"mesh":0,
			"name":"Roof_FlatTile_2x1_Long"
		}
	],
	"materials":[
		{
			"doubleSided":true,
			"name":"MI_RoundTiles",
			"normalTexture":{
				"index":0
			},
			"pbrMetallicRoughness":{
				"baseColorTexture":{
					"index":1
				},
				"metallicFactor":0,
				"metallicRoughnessTexture":{
					"index":2
				}
			}
		},
		{
			"doubleSided":true,
			"name":"MI_WoodTrim",
			"normalTexture":{
				"index":3
			},
			"pbrMetallicRoughness":{
				"baseColorTexture":{
					"index":4
				},
				"metallicFactor":0,
				"metallicRoughnessTexture":{
					"index":5
				}
			}
		},
		{
			"doubleSided":true,
			"name":"MI_FlatTiles",
			"normalTexture":{
				"index":6
			},
			"pbrMetallicRoughness":{
				"baseColorTexture":{
					"index":7
				},
				"metallicFactor":0,
				"metallicRoughnessTexture":{
					"index":8
				}
			}
		}
	],
	"meshes":[
		{
			"name":"Cylinder.002",
			"primitives":[
				{
					"attributes":{
						"POSITION":0,
						"NORMAL":1,
						"TEXCOORD_0":2,
						"TEXCOORD_1":3
					},
					"indices":4,
					"material":0
				},
				{
					"attributes":{
						"POSITION":5,
						"NORMAL":6,
						"TEXCOORD_0":7,
						"TEXCOORD_1":8
					},
					"indices":9,
					"material":1
				},
				{
					"attributes":{
						"POSITION":10,
						"NORMAL":11,
						"TEXCOORD_0":12,
						"TEXCOORD_1":13
					},
					"indices":14,
					"material":2
				}
			]
		}
	],
	"textures":[
		{
			"sampler":0,
			"source":0
		},
		{
			"sampler":0,
			"source":1
		},
		{
			"sampler":0,
			"source":2
		},
		{
			"sampler":0,
			"source":3
		},
		{
			"sampler":0,
			"source":4
		},
		{
			"sampler":0,
			"source":5
		},
		{
			"sampler":0,
			"source":6
		},
		{
			"sampler":0,
			"source":7
		},
		{
			"sampler":0,
			"source":8
		}
	],
	"images":[
		{
			"mimeType":"image/png",
			"name":"T_RoundTiles_Normal",
			"uri":"T_RoundTiles_Normal.png"
		},
		{
			"mimeType":"image/png",
			"name":"T_RoundTiles_BaseColor",
			"uri":"T_RoundTiles_BaseColor.png"
		},
		{
			"mimeType":"image/png",
			"name":"T_RoundTiles_Roughness",
			"uri":"T_RoundTiles_Roughness.png"
		},
		{
			"mimeType":"image/png",
			"name":"T_WoodTrim_Normal",
			"uri":"T_WoodTrim_Normal.png"
		},
		{
			"mimeType":"image/png",
			"name":"T_WoodTrim_BaseColor",
			"uri":"T_WoodTrim_BaseColor.png"
		},
		{
			"mimeType":"image/png",
			"name":"T_WoodTrim_Roughness",
			"uri":"T_WoodTrim_Roughness.png"
		},
		{
			"mimeType":"image/png",
			"name":"T_FlatTiles_Normal",
			"uri":"T_FlatTiles_Normal.png"
		},
		{
			"mimeType":"image/png",
			"name":"T_FlatTiles_BaseColor",
			"uri":"T_FlatTiles_BaseColor.png"
		},
		{
			"mimeType":"image/png",
			"name":"T_FlatTiles_Roughness",
			"uri":"T_FlatTiles_Roughness.png"
		}
	],
	"accessors":[
		{
			"bufferView":0,
			"componentType":5126,
			"count":160,
			"max":[
				0.33075252175331116,
				2.165245771408081,
				1.4594858884811401
			],
			"min":[
				-0.3324677050113678,
				1.7054446935653687,
				-0.44728535413742065
			],
			"type":"VEC3"
		},
		{
			"bufferView":1,
			"componentType":5126,
			"count":160,
			"type":"VEC3"
		},
		{
			"bufferView":2,
			"componentType":5126,
			"count":160,
			"type":"VEC2"
		},
		{
			"bufferView":3,
			"componentType":5126,
			"count":160,
			"type":"VEC2"
		},
		{
			"bufferView":4,
			"componentType":5123,
			"count":408,
			"type":"SCALAR"
		},
		{
			"bufferView":5,
			"componentType":5126,
			"count":388,
			"max":[
				2.0059471130371094,
				1.903069019317627,
				1.4169507026672363
			],
			"min":[
				-2.005948543548584,
				-1.008133888244629,
				-0.4128984212875366
			],
			"type":"VEC3"
		},
		{
			"bufferView":6,
			"componentType":5126,
			"count":388,
			"type":"VEC3"
		},
		{
			"bufferView":7,
			"componentType":5126,
			"count":388,
			"type":"VEC2"
		},
		{
			"bufferView":8,
			"componentType":5126,
			"count":388,
			"type":"VEC2"
		},
		{
			"bufferView":9,
			"componentType":5123,
			"count":672,
			"type":"SCALAR"
		},
		{
			"bufferView":10,
			"componentType":5126,
			"count":302,
			"max":[
				2.0734076499938965,
				1.9957880973815918,
				1.3133958578109741
			],
			"min":[
				-2.0734076499938965,
				-0.8092353343963623,
				-0.36513054370880127
			],
			"type":"VEC3"
		},
		{
			"bufferView":11,
			"componentType":5126,
			"count":302,
			"type":"VEC3"
		},
		{
			"bufferView":12,
			"componentType":5126,
			"count":302,
			"type":"VEC2"
		},
		{
			"bufferView":13,
			"componentType":5126,
			"count":302,
			"type":"VEC2"
		},
		{
			"bufferView":14,
			"componentType":5123,
			"count":732,
			"type":"SCALAR"
		}
	],
	"bufferViews":[
		{
			"buffer":0,
			"byteLength":1920,
			"byteOffset":0,
			"target":34962
		},
		{
			"buffer":0,
			"byteLength":1920,
			"byteOffset":1920,
			"target":34962
		},
		{
			"buffer":0,
			"byteLength":1280,
			"byteOffset":3840,
			"target":34962
		},
		{
			"buffer":0,
			"byteLength":1280,
			"byteOffset":5120,
			"target":34962
		},
		{
			"buffer":0,
			"byteLength":816,
			"byteOffset":6400,
			"target":34963
		},
		{
			"buffer":0,
			"byteLength":4656,
			"byteOffset":7216,
			"target":34962
		},
		{
			"buffer":0,
			"byteLength":4656,
			"byteOffset":11872,
			"target":34962
		},
		{
			"buffer":0,
			"byteLength":3104,
			"byteOffset":16528,
			"target":34962
		},
		{
			"buffer":0,
			"byteLength":3104,
			"byteOffset":19632,
			"target":34962
		},
		{
			"buffer":0,
			"byteLength":1344,
			"byteOffset":22736,
			"target":34963
		},
		{
			"buffer":0,
			"byteLength":3624,
			"byteOffset":24080,
			"target":34962
		},
		{
			"buffer":0,
			"byteLength":3624,
			"byteOffset":27704,
			"target":34962
		},
		{
			"buffer":0,
			"byteLength":2416,
			"byteOffset":31328,
			"target":34962
		},
		{
			"buffer":0,
			"byteLength":2416,
			"byteOffset":33744,
			"target":34962
		},
		{
			"buffer":0,
			"byteLength":1464,
			"byteOffset":36160,
			"target":34963
		}
	],
	"samplers":[
		{
			"magFilter":9729,
			"minFilter":9987
		}
	],
	"buffers":[
		{
			"byteLength":37624,
			"uri":"Roof_FlatTile_2x1_Long.bin"
		}
	]
}
