{
	"asset":{
		"generator":"Khronos glTF Blender I/O v4.0.44",
		"version":"2.0"
	},
	"scene":0,
	"scenes":[
		{
			"name":"Scene",
			"nodes":[
				0
			]
		}
	],
	"nodes":[
		{
			"mesh":0,
			"name":"Roof_FlatTiles_4x6"
		}
	],
	"materials":[
		{
			"doubleSided":true,
			"name":"MI_FlatTiles",
			"normalTexture":{
				"index":0
			},
			"pbrMetallicRoughness":{
				"baseColorTexture":{
					"index":1
				},
				"metallicFactor":0,
				"metallicRoughnessTexture":{
					"index":2
				}
			}
		},
		{
			"doubleSided":true,
			"name":"MI_WoodTrim",
			"normalTexture":{
				"index":3
			},
			"pbrMetallicRoughness":{
				"baseColorTexture":{
					"index":4
				},
				"metallicFactor":0,
				"metallicRoughnessTexture":{
					"index":5
				}
			}
		},
		{
			"doubleSided":true,
			"name":"MI_RoundTiles",
			"normalTexture":{
				"index":6
			},
			"pbrMetallicRoughness":{
				"baseColorTexture":{
					"index":7
				},
				"metallicFactor":0,
				"metallicRoughnessTexture":{
					"index":8
				}
			}
		}
	],
	"meshes":[
		{
			"name":"Plane.011",
			"primitives":[
				{
					"attributes":{
						"POSITION":0,
						"NORMAL":1,
						"TEXCOORD_0":2,
						"TEXCOORD_1":3
					},
					"indices":4,
					"material":0
				},
				{
					"attributes":{
						"POSITION":5,
						"NORMAL":6,
						"TEXCOORD_0":7,
						"TEXCOORD_1":8
					},
					"indices":9,
					"material":1
				},
				{
					"attributes":{
						"POSITION":10,
						"NORMAL":11,
						"TEXCOORD_0":12,
						"TEXCOORD_1":13
					},
					"indices":14,
					"material":2
				}
			]
		}
	],
	"textures":[
		{
			"sampler":0,
			"source":0
		},
		{
			"sampler":0,
			"source":1
		},
		{
			"sampler":0,
			"source":2
		},
		{
			"sampler":0,
			"source":3
		},
		{
			"sampler":0,
			"source":4
		},
		{
			"sampler":0,
			"source":5
		},
		{
			"sampler":0,
			"source":6
		},
		{
			"sampler":0,
			"source":7
		},
		{
			"sampler":0,
			"source":8
		}
	],
	"images":[
		{
			"mimeType":"image/png",
			"name":"T_FlatTiles_Normal",
			"uri":"T_FlatTiles_Normal.png"
		},
		{
			"mimeType":"image/png",
			"name":"T_FlatTiles_BaseColor",
			"uri":"T_FlatTiles_BaseColor.png"
		},
		{
			"mimeType":"image/png",
			"name":"T_FlatTiles_Roughness",
			"uri":"T_FlatTiles_Roughness.png"
		},
		{
			"mimeType":"image/png",
			"name":"T_WoodTrim_Normal",
			"uri":"T_WoodTrim_Normal.png"
		},
		{
			"mimeType":"image/png",
			"name":"T_WoodTrim_BaseColor",
			"uri":"T_WoodTrim_BaseColor.png"
		},
		{
			"mimeType":"image/png",
			"name":"T_WoodTrim_Roughness",
			"uri":"T_WoodTrim_Roughness.png"
		},
		{
			"mimeType":"image/png",
			"name":"T_RoundTiles_Normal",
			"uri":"T_RoundTiles_Normal.png"
		},
		{
			"mimeType":"image/png",
			"name":"T_RoundTiles_BaseColor",
			"uri":"T_RoundTiles_BaseColor.png"
		},
		{
			"mimeType":"image/png",
			"name":"T_RoundTiles_Roughness",
			"uri":"T_RoundTiles_Roughness.png"
		}
	],
	"accessors":[
		{
			"bufferView":0,
			"componentType":5126,
			"count":928,
			"max":[
				2.8514444828033447,
				3.3734469413757324,
				3.7212865352630615
			],
			"min":[
				-2.8514444828033447,
				-0.6229217648506165,
				-3.7566182613372803
			],
			"type":"VEC3"
		},
		{
			"bufferView":1,
			"componentType":5126,
			"count":928,
			"type":"VEC3"
		},
		{
			"bufferView":2,
			"componentType":5126,
			"count":928,
			"type":"VEC2"
		},
		{
			"bufferView":3,
			"componentType":5126,
			"count":928,
			"type":"VEC2"
		},
		{
			"bufferView":4,
			"componentType":5123,
			"count":2928,
			"type":"SCALAR"
		},
		{
			"bufferView":5,
			"componentType":5126,
			"count":1184,
			"max":[
				2.5676209926605225,
				3.200705051422119,
				3.786245822906494
			],
			"min":[
				-2.5676209926605225,
				-0.5157185792922974,
				-3.786034107208252
			],
			"type":"VEC3"
		},
		{
			"bufferView":6,
			"componentType":5126,
			"count":1184,
			"type":"VEC3"
		},
		{
			"bufferView":7,
			"componentType":5126,
			"count":1184,
			"type":"VEC2"
		},
		{
			"bufferView":8,
			"componentType":5126,
			"count":1184,
			"type":"VEC2"
		},
		{
			"bufferView":9,
			"componentType":5123,
			"count":2160,
			"type":"SCALAR"
		},
		{
			"bufferView":10,
			"componentType":5126,
			"count":720,
			"max":[
				0.3394588530063629,
				3.5263917446136475,
				3.777724266052246
			],
			"min":[
				-0.3411727249622345,
				3.007638454437256,
				-3.7651960849761963
			],
			"type":"VEC3"
		},
		{
			"bufferView":11,
			"componentType":5126,
			"count":720,
			"type":"VEC3"
		},
		{
			"bufferView":12,
			"componentType":5126,
			"count":720,
			"type":"VEC2"
		},
		{
			"bufferView":13,
			"componentType":5126,
			"count":720,
			"type":"VEC2"
		},
		{
			"bufferView":14,
			"componentType":5123,
			"count":1836,
			"type":"SCALAR"
		}
	],
	"bufferViews":[
		{
			"buffer":0,
			"byteLength":11136,
			"byteOffset":0,
			"target":34962
		},
		{
			"buffer":0,
			"byteLength":11136,
			"byteOffset":11136,
			"target":34962
		},
		{
			"buffer":0,
			"byteLength":7424,
			"byteOffset":22272,
			"target":34962
		},
		{
			"buffer":0,
			"byteLength":7424,
			"byteOffset":29696,
			"target":34962
		},
		{
			"buffer":0,
			"byteLength":5856,
			"byteOffset":37120,
			"target":34963
		},
		{
			"buffer":0,
			"byteLength":14208,
			"byteOffset":42976,
			"target":34962
		},
		{
			"buffer":0,
			"byteLength":14208,
			"byteOffset":57184,
			"target":34962
		},
		{
			"buffer":0,
			"byteLength":9472,
			"byteOffset":71392,
			"target":34962
		},
		{
			"buffer":0,
			"byteLength":9472,
			"byteOffset":80864,
			"target":34962
		},
		{
			"buffer":0,
			"byteLength":4320,
			"byteOffset":90336,
			"target":34963
		},
		{
			"buffer":0,
			"byteLength":8640,
			"byteOffset":94656,
			"target":34962
		},
		{
			"buffer":0,
			"byteLength":8640,
			"byteOffset":103296,
			"target":34962
		},
		{
			"buffer":0,
			"byteLength":5760,
			"byteOffset":111936,
			"target":34962
		},
		{
			"buffer":0,
			"byteLength":5760,
			"byteOffset":117696,
			"target":34962
		},
		{
			"buffer":0,
			"byteLength":3672,
			"byteOffset":123456,
			"target":34963
		}
	],
	"samplers":[
		{
			"magFilter":9729,
			"minFilter":9987
		}
	],
	"buffers":[
		{
			"byteLength":127128,
			"uri":"Roof_FlatTiles_4x6.bin"
		}
	]
}
