{
	"asset":{
		"generator":"Khronos glTF Blender I/O v4.0.44",
		"version":"2.0"
	},
	"scene":0,
	"scenes":[
		{
			"name":"Scene",
			"nodes":[
				0
			]
		}
	],
	"nodes":[
		{
			"mesh":0,
			"name":"Roof_Modular_RoundTiles_8_L"
		}
	],
	"materials":[
		{
			"doubleSided":true,
			"name":"MI_WoodTrim",
			"normalTexture":{
				"index":0
			},
			"pbrMetallicRoughness":{
				"baseColorTexture":{
					"index":1
				},
				"metallicFactor":0,
				"metallicRoughnessTexture":{
					"index":2
				}
			}
		},
		{
			"doubleSided":true,
			"name":"MI_RoundTiles",
			"normalTexture":{
				"index":3
			},
			"pbrMetallicRoughness":{
				"baseColorTexture":{
					"index":4
				},
				"metallicFactor":0,
				"metallicRoughnessTexture":{
					"index":5
				}
			}
		}
	],
	"meshes":[
		{
			"name":"Cube.146",
			"primitives":[
				{
					"attributes":{
						"POSITION":0,
						"NORMAL":1,
						"TEXCOORD_0":2,
						"TEXCOORD_1":3
					},
					"indices":4,
					"material":0
				},
				{
					"attributes":{
						"POSITION":5,
						"NORMAL":6,
						"TEXCOORD_0":7,
						"TEXCOORD_1":8
					},
					"indices":9,
					"material":1
				}
			]
		}
	],
	"textures":[
		{
			"sampler":0,
			"source":0
		},
		{
			"sampler":0,
			"source":1
		},
		{
			"sampler":0,
			"source":2
		},
		{
			"sampler":0,
			"source":3
		},
		{
			"sampler":0,
			"source":4
		},
		{
			"sampler":0,
			"source":5
		}
	],
	"images":[
		{
			"mimeType":"image/png",
			"name":"T_WoodTrim_Normal",
			"uri":"T_WoodTrim_Normal.png"
		},
		{
			"mimeType":"image/png",
			"name":"T_WoodTrim_BaseColor",
			"uri":"T_WoodTrim_BaseColor.png"
		},
		{
			"mimeType":"image/png",
			"name":"T_WoodTrim_Roughness",
			"uri":"T_WoodTrim_Roughness.png"
		},
		{
			"mimeType":"image/png",
			"name":"T_RoundTiles_Normal",
			"uri":"T_RoundTiles_Normal.png"
		},
		{
			"mimeType":"image/png",
			"name":"T_RoundTiles_BaseColor",
			"uri":"T_RoundTiles_BaseColor.png"
		},
		{
			"mimeType":"image/png",
			"name":"T_RoundTiles_Roughness",
			"uri":"T_RoundTiles_Roughness.png"
		}
	],
	"accessors":[
		{
			"bufferView":0,
			"componentType":5126,
			"count":538,
			"max":[
				4.901004791259766,
				5.555031776428223,
				0.9787100553512573
			],
			"min":[
				-4.901004791259766,
				-0.7534207701683044,
				-0.9999997615814209
			],
			"type":"VEC3"
		},
		{
			"bufferView":1,
			"componentType":5126,
			"count":538,
			"type":"VEC3"
		},
		{
			"bufferView":2,
			"componentType":5126,
			"count":538,
			"type":"VEC2"
		},
		{
			"bufferView":3,
			"componentType":5126,
			"count":538,
			"type":"VEC2"
		},
		{
			"bufferView":4,
			"componentType":5123,
			"count":948,
			"type":"SCALAR"
		},
		{
			"bufferView":5,
			"componentType":5126,
			"count":544,
			"max":[
				5.063900947570801,
				6.102469444274902,
				1.045536756515503
			],
			"min":[
				-5.063900947570801,
				-0.6048029065132141,
				-1.2061223983764648
			],
			"type":"VEC3"
		},
		{
			"bufferView":6,
			"componentType":5126,
			"count":544,
			"type":"VEC3"
		},
		{
			"bufferView":7,
			"componentType":5126,
			"count":544,
			"type":"VEC2"
		},
		{
			"bufferView":8,
			"componentType":5126,
			"count":544,
			"type":"VEC2"
		},
		{
			"bufferView":9,
			"componentType":5123,
			"count":1842,
			"type":"SCALAR"
		}
	],
	"bufferViews":[
		{
			"buffer":0,
			"byteLength":6456,
			"byteOffset":0,
			"target":34962
		},
		{
			"buffer":0,
			"byteLength":6456,
			"byteOffset":6456,
			"target":34962
		},
		{
			"buffer":0,
			"byteLength":4304,
			"byteOffset":12912,
			"target":34962
		},
		{
			"buffer":0,
			"byteLength":4304,
			"byteOffset":17216,
			"target":34962
		},
		{
			"buffer":0,
			"byteLength":1896,
			"byteOffset":21520,
			"target":34963
		},
		{
			"buffer":0,
			"byteLength":6528,
			"byteOffset":23416,
			"target":34962
		},
		{
			"buffer":0,
			"byteLength":6528,
			"byteOffset":29944,
			"target":34962
		},
		{
			"buffer":0,
			"byteLength":4352,
			"byteOffset":36472,
			"target":34962
		},
		{
			"buffer":0,
			"byteLength":4352,
			"byteOffset":40824,
			"target":34962
		},
		{
			"buffer":0,
			"byteLength":3684,
			"byteOffset":45176,
			"target":34963
		}
	],
	"samplers":[
		{
			"magFilter":9729,
			"minFilter":9987
		}
	],
	"buffers":[
		{
			"byteLength":48860,
			"uri":"Roof_Modular_RoundTiles_8_L.bin"
		}
	]
}
