{
	"asset":{
		"generator":"Khronos glTF Blender I/O v4.0.44",
		"version":"2.0"
	},
	"scene":0,
	"scenes":[
		{
			"name":"Scene",
			"nodes":[
				0
			]
		}
	],
	"nodes":[
		{
			"mesh":0,
			"name":"Roof_FlatTiles_6x14"
		}
	],
	"materials":[
		{
			"doubleSided":true,
			"name":"MI_WoodTrim",
			"normalTexture":{
				"index":0
			},
			"pbrMetallicRoughness":{
				"baseColorTexture":{
					"index":1
				},
				"metallicFactor":0,
				"metallicRoughnessTexture":{
					"index":2
				}
			}
		},
		{
			"doubleSided":true,
			"name":"MI_RoundTiles",
			"normalTexture":{
				"index":3
			},
			"pbrMetallicRoughness":{
				"baseColorTexture":{
					"index":4
				},
				"metallicFactor":0,
				"metallicRoughnessTexture":{
					"index":5
				}
			}
		},
		{
			"doubleSided":true,
			"name":"MI_FlatTiles",
			"normalTexture":{
				"index":6
			},
			"pbrMetallicRoughness":{
				"baseColorTexture":{
					"index":7
				},
				"metallicFactor":0,
				"metallicRoughnessTexture":{
					"index":8
				}
			}
		}
	],
	"meshes":[
		{
			"name":"Cube.024",
			"primitives":[
				{
					"attributes":{
						"POSITION":0,
						"NORMAL":1,
						"TEXCOORD_0":2,
						"TEXCOORD_1":3
					},
					"indices":4,
					"material":0
				},
				{
					"attributes":{
						"POSITION":5,
						"NORMAL":6,
						"TEXCOORD_0":7,
						"TEXCOORD_1":8
					},
					"indices":9,
					"material":1
				},
				{
					"attributes":{
						"POSITION":10,
						"NORMAL":11,
						"TEXCOORD_0":12,
						"TEXCOORD_1":13
					},
					"indices":14,
					"material":2
				}
			]
		}
	],
	"textures":[
		{
			"sampler":0,
			"source":0
		},
		{
			"sampler":0,
			"source":1
		},
		{
			"sampler":0,
			"source":2
		},
		{
			"sampler":0,
			"source":3
		},
		{
			"sampler":0,
			"source":4
		},
		{
			"sampler":0,
			"source":5
		},
		{
			"sampler":0,
			"source":6
		},
		{
			"sampler":0,
			"source":7
		},
		{
			"sampler":0,
			"source":8
		}
	],
	"images":[
		{
			"mimeType":"image/png",
			"name":"T_WoodTrim_Normal",
			"uri":"T_WoodTrim_Normal.png"
		},
		{
			"mimeType":"image/png",
			"name":"T_WoodTrim_BaseColor",
			"uri":"T_WoodTrim_BaseColor.png"
		},
		{
			"mimeType":"image/png",
			"name":"T_WoodTrim_Roughness",
			"uri":"T_WoodTrim_Roughness.png"
		},
		{
			"mimeType":"image/png",
			"name":"T_RoundTiles_Normal",
			"uri":"T_RoundTiles_Normal.png"
		},
		{
			"mimeType":"image/png",
			"name":"T_RoundTiles_BaseColor",
			"uri":"T_RoundTiles_BaseColor.png"
		},
		{
			"mimeType":"image/png",
			"name":"T_RoundTiles_Roughness",
			"uri":"T_RoundTiles_Roughness.png"
		},
		{
			"mimeType":"image/png",
			"name":"T_FlatTiles_Normal",
			"uri":"T_FlatTiles_Normal.png"
		},
		{
			"mimeType":"image/png",
			"name":"T_FlatTiles_BaseColor",
			"uri":"T_FlatTiles_BaseColor.png"
		},
		{
			"mimeType":"image/png",
			"name":"T_FlatTiles_Roughness",
			"uri":"T_FlatTiles_Roughness.png"
		}
	],
	"accessors":[
		{
			"bufferView":0,
			"componentType":5126,
			"count":1640,
			"max":[
				3.958951234817505,
				4.342607498168945,
				7.82875394821167
			],
			"min":[
				-3.958951234817505,
				-0.7821269035339355,
				-7.82875394821167
			],
			"type":"VEC3"
		},
		{
			"bufferView":1,
			"componentType":5126,
			"count":1640,
			"type":"VEC3"
		},
		{
			"bufferView":2,
			"componentType":5126,
			"count":1640,
			"type":"VEC2"
		},
		{
			"bufferView":3,
			"componentType":5126,
			"count":1640,
			"type":"VEC2"
		},
		{
			"bufferView":4,
			"componentType":5123,
			"count":2712,
			"type":"SCALAR"
		},
		{
			"bufferView":5,
			"componentType":5126,
			"count":1600,
			"max":[
				0.3307531774044037,
				4.890044689178467,
				7.775058746337891
			],
			"min":[
				-0.33246704936027527,
				4.384562015533447,
				-7.877129077911377
			],
			"type":"VEC3"
		},
		{
			"bufferView":6,
			"componentType":5126,
			"count":1600,
			"type":"VEC3"
		},
		{
			"bufferView":7,
			"componentType":5126,
			"count":1600,
			"type":"VEC2"
		},
		{
			"bufferView":8,
			"componentType":5126,
			"count":1600,
			"type":"VEC2"
		},
		{
			"bufferView":9,
			"componentType":5123,
			"count":4080,
			"type":"SCALAR"
		},
		{
			"bufferView":10,
			"componentType":5126,
			"count":1811,
			"max":[
				4.489750862121582,
				4.576201915740967,
				7.754342079162598
			],
			"min":[
				-4.489750862121582,
				-0.8889676332473755,
				-7.679164886474609
			],
			"type":"VEC3"
		},
		{
			"bufferView":11,
			"componentType":5126,
			"count":1811,
			"type":"VEC3"
		},
		{
			"bufferView":12,
			"componentType":5126,
			"count":1811,
			"type":"VEC2"
		},
		{
			"bufferView":13,
			"componentType":5126,
			"count":1811,
			"type":"VEC2"
		},
		{
			"bufferView":14,
			"componentType":5123,
			"count":5532,
			"type":"SCALAR"
		}
	],
	"bufferViews":[
		{
			"buffer":0,
			"byteLength":19680,
			"byteOffset":0,
			"target":34962
		},
		{
			"buffer":0,
			"byteLength":19680,
			"byteOffset":19680,
			"target":34962
		},
		{
			"buffer":0,
			"byteLength":13120,
			"byteOffset":39360,
			"target":34962
		},
		{
			"buffer":0,
			"byteLength":13120,
			"byteOffset":52480,
			"target":34962
		},
		{
			"buffer":0,
			"byteLength":5424,
			"byteOffset":65600,
			"target":34963
		},
		{
			"buffer":0,
			"byteLength":19200,
			"byteOffset":71024,
			"target":34962
		},
		{
			"buffer":0,
			"byteLength":19200,
			"byteOffset":90224,
			"target":34962
		},
		{
			"buffer":0,
			"byteLength":12800,
			"byteOffset":109424,
			"target":34962
		},
		{
			"buffer":0,
			"byteLength":12800,
			"byteOffset":122224,
			"target":34962
		},
		{
			"buffer":0,
			"byteLength":8160,
			"byteOffset":135024,
			"target":34963
		},
		{
			"buffer":0,
			"byteLength":21732,
			"byteOffset":143184,
			"target":34962
		},
		{
			"buffer":0,
			"byteLength":21732,
			"byteOffset":164916,
			"target":34962
		},
		{
			"buffer":0,
			"byteLength":14488,
			"byteOffset":186648,
			"target":34962
		},
		{
			"buffer":0,
			"byteLength":14488,
			"byteOffset":201136,
			"target":34962
		},
		{
			"buffer":0,
			"byteLength":11064,
			"byteOffset":215624,
			"target":34963
		}
	],
	"samplers":[
		{
			"magFilter":9729,
			"minFilter":9987
		}
	],
	"buffers":[
		{
			"byteLength":226688,
			"uri":"Roof_FlatTiles_6x14.bin"
		}
	]
}
