{
	"asset":{
		"generator":"Khronos glTF Blender I/O v4.0.44",
		"version":"2.0"
	},
	"scene":0,
	"scenes":[
		{
			"name":"Scene",
			"nodes":[
				0
			]
		}
	],
	"nodes":[
		{
			"mesh":0,
			"name":"Roof_FlatTiles_6x6"
		}
	],
	"materials":[
		{
			"doubleSided":true,
			"name":"MI_WoodTrim",
			"normalTexture":{
				"index":0
			},
			"pbrMetallicRoughness":{
				"baseColorTexture":{
					"index":1
				},
				"metallicFactor":0,
				"metallicRoughnessTexture":{
					"index":2
				}
			}
		},
		{
			"doubleSided":true,
			"name":"MI_RoundTiles",
			"normalTexture":{
				"index":3
			},
			"pbrMetallicRoughness":{
				"baseColorTexture":{
					"index":4
				},
				"metallicFactor":0,
				"metallicRoughnessTexture":{
					"index":5
				}
			}
		},
		{
			"doubleSided":true,
			"name":"MI_FlatTiles",
			"normalTexture":{
				"index":6
			},
			"pbrMetallicRoughness":{
				"baseColorTexture":{
					"index":7
				},
				"metallicFactor":0,
				"metallicRoughnessTexture":{
					"index":8
				}
			}
		}
	],
	"meshes":[
		{
			"name":"Cube.165",
			"primitives":[
				{
					"attributes":{
						"POSITION":0,
						"NORMAL":1,
						"TEXCOORD_0":2,
						"TEXCOORD_1":3
					},
					"indices":4,
					"material":0
				},
				{
					"attributes":{
						"POSITION":5,
						"NORMAL":6,
						"TEXCOORD_0":7,
						"TEXCOORD_1":8
					},
					"indices":9,
					"material":1
				},
				{
					"attributes":{
						"POSITION":10,
						"NORMAL":11,
						"TEXCOORD_0":12,
						"TEXCOORD_1":13
					},
					"indices":14,
					"material":2
				}
			]
		}
	],
	"textures":[
		{
			"sampler":0,
			"source":0
		},
		{
			"sampler":0,
			"source":1
		},
		{
			"sampler":0,
			"source":2
		},
		{
			"sampler":0,
			"source":3
		},
		{
			"sampler":0,
			"source":4
		},
		{
			"sampler":0,
			"source":5
		},
		{
			"sampler":0,
			"source":6
		},
		{
			"sampler":0,
			"source":7
		},
		{
			"sampler":0,
			"source":8
		}
	],
	"images":[
		{
			"mimeType":"image/png",
			"name":"T_WoodTrim_Normal",
			"uri":"T_WoodTrim_Normal.png"
		},
		{
			"mimeType":"image/png",
			"name":"T_WoodTrim_BaseColor",
			"uri":"T_WoodTrim_BaseColor.png"
		},
		{
			"mimeType":"image/png",
			"name":"T_WoodTrim_Roughness",
			"uri":"T_WoodTrim_Roughness.png"
		},
		{
			"mimeType":"image/png",
			"name":"T_RoundTiles_Normal",
			"uri":"T_RoundTiles_Normal.png"
		},
		{
			"mimeType":"image/png",
			"name":"T_RoundTiles_BaseColor",
			"uri":"T_RoundTiles_BaseColor.png"
		},
		{
			"mimeType":"image/png",
			"name":"T_RoundTiles_Roughness",
			"uri":"T_RoundTiles_Roughness.png"
		},
		{
			"mimeType":"image/png",
			"name":"T_FlatTiles_Normal",
			"uri":"T_FlatTiles_Normal.png"
		},
		{
			"mimeType":"image/png",
			"name":"T_FlatTiles_BaseColor",
			"uri":"T_FlatTiles_BaseColor.png"
		},
		{
			"mimeType":"image/png",
			"name":"T_FlatTiles_Roughness",
			"uri":"T_FlatTiles_Roughness.png"
		}
	],
	"accessors":[
		{
			"bufferView":0,
			"componentType":5126,
			"count":1740,
			"max":[
				3.958951234817505,
				4.342607498168945,
				3.7993175983428955
			],
			"min":[
				-3.958951234817505,
				-0.7821269035339355,
				-3.7874298095703125
			],
			"type":"VEC3"
		},
		{
			"bufferView":1,
			"componentType":5126,
			"count":1740,
			"type":"VEC3"
		},
		{
			"bufferView":2,
			"componentType":5126,
			"count":1740,
			"type":"VEC2"
		},
		{
			"bufferView":3,
			"componentType":5126,
			"count":1740,
			"type":"VEC2"
		},
		{
			"bufferView":4,
			"componentType":5123,
			"count":3048,
			"type":"SCALAR"
		},
		{
			"bufferView":5,
			"componentType":5126,
			"count":720,
			"max":[
				0.3307531774044037,
				4.653240203857422,
				3.7384586334228516
			],
			"min":[
				-0.33246704936027527,
				4.147757530212402,
				-3.7242655754089355
			],
			"type":"VEC3"
		},
		{
			"bufferView":6,
			"componentType":5126,
			"count":720,
			"type":"VEC3"
		},
		{
			"bufferView":7,
			"componentType":5126,
			"count":720,
			"type":"VEC2"
		},
		{
			"bufferView":8,
			"componentType":5126,
			"count":720,
			"type":"VEC2"
		},
		{
			"bufferView":9,
			"componentType":5123,
			"count":1836,
			"type":"SCALAR"
		},
		{
			"bufferView":10,
			"componentType":5126,
			"count":1200,
			"max":[
				4.303678512573242,
				4.514298439025879,
				3.704273223876953
			],
			"min":[
				-4.303678512573242,
				-0.8686880469322205,
				-3.7660253047943115
			],
			"type":"VEC3"
		},
		{
			"bufferView":11,
			"componentType":5126,
			"count":1200,
			"type":"VEC3"
		},
		{
			"bufferView":12,
			"componentType":5126,
			"count":1200,
			"type":"VEC2"
		},
		{
			"bufferView":13,
			"componentType":5126,
			"count":1200,
			"type":"VEC2"
		},
		{
			"bufferView":14,
			"componentType":5123,
			"count":3564,
			"type":"SCALAR"
		}
	],
	"bufferViews":[
		{
			"buffer":0,
			"byteLength":20880,
			"byteOffset":0,
			"target":34962
		},
		{
			"buffer":0,
			"byteLength":20880,
			"byteOffset":20880,
			"target":34962
		},
		{
			"buffer":0,
			"byteLength":13920,
			"byteOffset":41760,
			"target":34962
		},
		{
			"buffer":0,
			"byteLength":13920,
			"byteOffset":55680,
			"target":34962
		},
		{
			"buffer":0,
			"byteLength":6096,
			"byteOffset":69600,
			"target":34963
		},
		{
			"buffer":0,
			"byteLength":8640,
			"byteOffset":75696,
			"target":34962
		},
		{
			"buffer":0,
			"byteLength":8640,
			"byteOffset":84336,
			"target":34962
		},
		{
			"buffer":0,
			"byteLength":5760,
			"byteOffset":92976,
			"target":34962
		},
		{
			"buffer":0,
			"byteLength":5760,
			"byteOffset":98736,
			"target":34962
		},
		{
			"buffer":0,
			"byteLength":3672,
			"byteOffset":104496,
			"target":34963
		},
		{
			"buffer":0,
			"byteLength":14400,
			"byteOffset":108168,
			"target":34962
		},
		{
			"buffer":0,
			"byteLength":14400,
			"byteOffset":122568,
			"target":34962
		},
		{
			"buffer":0,
			"byteLength":9600,
			"byteOffset":136968,
			"target":34962
		},
		{
			"buffer":0,
			"byteLength":9600,
			"byteOffset":146568,
			"target":34962
		},
		{
			"buffer":0,
			"byteLength":7128,
			"byteOffset":156168,
			"target":34963
		}
	],
	"samplers":[
		{
			"magFilter":9729,
			"minFilter":9987
		}
	],
	"buffers":[
		{
			"byteLength":163296,
			"uri":"Roof_FlatTiles_6x6.bin"
		}
	]
}
