{
	"asset":{
		"generator":"Khronos glTF Blender I/O v4.0.44",
		"version":"2.0"
	},
	"scene":0,
	"scenes":[
		{
			"name":"Scene",
			"nodes":[
				0
			]
		}
	],
	"nodes":[
		{
			"mesh":0,
			"name":"Roof_Modular_FlatTiles_6_Dormer"
		}
	],
	"materials":[
		{
			"doubleSided":true,
			"name":"MI_FlatTiles",
			"normalTexture":{
				"index":0
			},
			"pbrMetallicRoughness":{
				"baseColorTexture":{
					"index":1
				},
				"metallicFactor":0,
				"metallicRoughnessTexture":{
					"index":2
				}
			}
		},
		{
			"doubleSided":true,
			"name":"MI_WoodTrim",
			"normalTexture":{
				"index":3
			},
			"pbrMetallicRoughness":{
				"baseColorTexture":{
					"index":4
				},
				"metallicFactor":0,
				"metallicRoughnessTexture":{
					"index":5
				}
			}
		},
		{
			"doubleSided":true,
			"name":"MI_RoundTiles",
			"normalTexture":{
				"index":6
			},
			"pbrMetallicRoughness":{
				"baseColorTexture":{
					"index":7
				},
				"metallicFactor":0,
				"metallicRoughnessTexture":{
					"index":8
				}
			}
		}
	],
	"meshes":[
		{
			"name":"Cube.243",
			"primitives":[
				{
					"attributes":{
						"POSITION":0,
						"NORMAL":1,
						"TEXCOORD_0":2,
						"TEXCOORD_1":3
					},
					"indices":4,
					"material":0
				},
				{
					"attributes":{
						"POSITION":5,
						"NORMAL":6,
						"TEXCOORD_0":7,
						"TEXCOORD_1":8
					},
					"indices":9,
					"material":1
				},
				{
					"attributes":{
						"POSITION":10,
						"NORMAL":11,
						"TEXCOORD_0":12,
						"TEXCOORD_1":13
					},
					"indices":14,
					"material":2
				}
			]
		}
	],
	"textures":[
		{
			"sampler":0,
			"source":0
		},
		{
			"sampler":0,
			"source":1
		},
		{
			"sampler":0,
			"source":2
		},
		{
			"sampler":0,
			"source":3
		},
		{
			"sampler":0,
			"source":4
		},
		{
			"sampler":0,
			"source":5
		},
		{
			"sampler":0,
			"source":6
		},
		{
			"sampler":0,
			"source":7
		},
		{
			"sampler":0,
			"source":8
		}
	],
	"images":[
		{
			"mimeType":"image/png",
			"name":"T_FlatTiles_Normal",
			"uri":"T_FlatTiles_Normal.png"
		},
		{
			"mimeType":"image/png",
			"name":"T_FlatTiles_BaseColor",
			"uri":"T_FlatTiles_BaseColor.png"
		},
		{
			"mimeType":"image/png",
			"name":"T_FlatTiles_Roughness",
			"uri":"T_FlatTiles_Roughness.png"
		},
		{
			"mimeType":"image/png",
			"name":"T_WoodTrim_Normal",
			"uri":"T_WoodTrim_Normal.png"
		},
		{
			"mimeType":"image/png",
			"name":"T_WoodTrim_BaseColor",
			"uri":"T_WoodTrim_BaseColor.png"
		},
		{
			"mimeType":"image/png",
			"name":"T_WoodTrim_Roughness",
			"uri":"T_WoodTrim_Roughness.png"
		},
		{
			"mimeType":"image/png",
			"name":"T_RoundTiles_Normal",
			"uri":"T_RoundTiles_Normal.png"
		},
		{
			"mimeType":"image/png",
			"name":"T_RoundTiles_BaseColor",
			"uri":"T_RoundTiles_BaseColor.png"
		},
		{
			"mimeType":"image/png",
			"name":"T_RoundTiles_Roughness",
			"uri":"T_RoundTiles_Roughness.png"
		}
	],
	"accessors":[
		{
			"bufferView":0,
			"componentType":5126,
			"count":288,
			"max":[
				4.0339436531066895,
				4.576201915740967,
				1
			],
			"min":[
				-4.0339436531066895,
				-0.5934686064720154,
				-0.9999990463256836
			],
			"type":"VEC3"
		},
		{
			"bufferView":1,
			"componentType":5126,
			"count":288,
			"type":"VEC3"
		},
		{
			"bufferView":2,
			"componentType":5126,
			"count":288,
			"type":"VEC2"
		},
		{
			"bufferView":3,
			"componentType":5126,
			"count":288,
			"type":"VEC2"
		},
		{
			"bufferView":4,
			"componentType":5123,
			"count":888,
			"type":"SCALAR"
		},
		{
			"bufferView":5,
			"componentType":5126,
			"count":696,
			"max":[
				3.9162421226501465,
				4.011433124542236,
				1.0000004768371582
			],
			"min":[
				-3.9162421226501465,
				-0.7435548305511475,
				-1.0000009536743164
			],
			"type":"VEC3"
		},
		{
			"bufferView":6,
			"componentType":5126,
			"count":696,
			"type":"VEC3"
		},
		{
			"bufferView":7,
			"componentType":5126,
			"count":696,
			"type":"VEC2"
		},
		{
			"bufferView":8,
			"componentType":5126,
			"count":696,
			"type":"VEC2"
		},
		{
			"bufferView":9,
			"componentType":5123,
			"count":1332,
			"type":"SCALAR"
		},
		{
			"bufferView":10,
			"componentType":5126,
			"count":160,
			"max":[
				0.3307531774044037,
				4.890044689178467,
				1.045536756515503
			],
			"min":[
				-0.33246704936027527,
				4.384562015533447,
				-1.2061223983764648
			],
			"type":"VEC3"
		},
		{
			"bufferView":11,
			"componentType":5126,
			"count":160,
			"type":"VEC3"
		},
		{
			"bufferView":12,
			"componentType":5126,
			"count":160,
			"type":"VEC2"
		},
		{
			"bufferView":13,
			"componentType":5126,
			"count":160,
			"type":"VEC2"
		},
		{
			"bufferView":14,
			"componentType":5123,
			"count":408,
			"type":"SCALAR"
		}
	],
	"bufferViews":[
		{
			"buffer":0,
			"byteLength":3456,
			"byteOffset":0,
			"target":34962
		},
		{
			"buffer":0,
			"byteLength":3456,
			"byteOffset":3456,
			"target":34962
		},
		{
			"buffer":0,
			"byteLength":2304,
			"byteOffset":6912,
			"target":34962
		},
		{
			"buffer":0,
			"byteLength":2304,
			"byteOffset":9216,
			"target":34962
		},
		{
			"buffer":0,
			"byteLength":1776,
			"byteOffset":11520,
			"target":34963
		},
		{
			"buffer":0,
			"byteLength":8352,
			"byteOffset":13296,
			"target":34962
		},
		{
			"buffer":0,
			"byteLength":8352,
			"byteOffset":21648,
			"target":34962
		},
		{
			"buffer":0,
			"byteLength":5568,
			"byteOffset":30000,
			"target":34962
		},
		{
			"buffer":0,
			"byteLength":5568,
			"byteOffset":35568,
			"target":34962
		},
		{
			"buffer":0,
			"byteLength":2664,
			"byteOffset":41136,
			"target":34963
		},
		{
			"buffer":0,
			"byteLength":1920,
			"byteOffset":43800,
			"target":34962
		},
		{
			"buffer":0,
			"byteLength":1920,
			"byteOffset":45720,
			"target":34962
		},
		{
			"buffer":0,
			"byteLength":1280,
			"byteOffset":47640,
			"target":34962
		},
		{
			"buffer":0,
			"byteLength":1280,
			"byteOffset":48920,
			"target":34962
		},
		{
			"buffer":0,
			"byteLength":816,
			"byteOffset":50200,
			"target":34963
		}
	],
	"samplers":[
		{
			"magFilter":9729,
			"minFilter":9987
		}
	],
	"buffers":[
		{
			"byteLength":51016,
			"uri":"Roof_Modular_FlatTiles_6_Dormer.bin"
		}
	]
}
