{
	"asset":{
		"generator":"Khronos glTF Blender I/O v4.0.44",
		"version":"2.0"
	},
	"scene":0,
	"scenes":[
		{
			"name":"Scene",
			"nodes":[
				0
			]
		}
	],
	"nodes":[
		{
			"mesh":0,
			"name":"Roof_FlatTiles_6x10"
		}
	],
	"materials":[
		{
			"doubleSided":true,
			"name":"MI_WoodTrim",
			"normalTexture":{
				"index":0
			},
			"pbrMetallicRoughness":{
				"baseColorTexture":{
					"index":1
				},
				"metallicFactor":0,
				"metallicRoughnessTexture":{
					"index":2
				}
			}
		},
		{
			"doubleSided":true,
			"name":"MI_FlatTiles",
			"normalTexture":{
				"index":3
			},
			"pbrMetallicRoughness":{
				"baseColorTexture":{
					"index":4
				},
				"metallicFactor":0,
				"metallicRoughnessTexture":{
					"index":5
				}
			}
		},
		{
			"doubleSided":true,
			"name":"MI_RoundTiles",
			"normalTexture":{
				"index":6
			},
			"pbrMetallicRoughness":{
				"baseColorTexture":{
					"index":7
				},
				"metallicFactor":0,
				"metallicRoughnessTexture":{
					"index":8
				}
			}
		}
	],
	"meshes":[
		{
			"name":"Cube.088",
			"primitives":[
				{
					"attributes":{
						"POSITION":0,
						"NORMAL":1,
						"TEXCOORD_0":2,
						"TEXCOORD_1":3
					},
					"indices":4,
					"material":0
				},
				{
					"attributes":{
						"POSITION":5,
						"NORMAL":6,
						"TEXCOORD_0":7,
						"TEXCOORD_1":8
					},
					"indices":9,
					"material":1
				},
				{
					"attributes":{
						"POSITION":10,
						"NORMAL":11,
						"TEXCOORD_0":12,
						"TEXCOORD_1":13
					},
					"indices":14,
					"material":2
				}
			]
		}
	],
	"textures":[
		{
			"sampler":0,
			"source":0
		},
		{
			"sampler":0,
			"source":1
		},
		{
			"sampler":0,
			"source":2
		},
		{
			"sampler":0,
			"source":3
		},
		{
			"sampler":0,
			"source":4
		},
		{
			"sampler":0,
			"source":5
		},
		{
			"sampler":0,
			"source":6
		},
		{
			"sampler":0,
			"source":7
		},
		{
			"sampler":0,
			"source":8
		}
	],
	"images":[
		{
			"mimeType":"image/png",
			"name":"T_WoodTrim_Normal",
			"uri":"T_WoodTrim_Normal.png"
		},
		{
			"mimeType":"image/png",
			"name":"T_WoodTrim_BaseColor",
			"uri":"T_WoodTrim_BaseColor.png"
		},
		{
			"mimeType":"image/png",
			"name":"T_WoodTrim_Roughness",
			"uri":"T_WoodTrim_Roughness.png"
		},
		{
			"mimeType":"image/png",
			"name":"T_FlatTiles_Normal",
			"uri":"T_FlatTiles_Normal.png"
		},
		{
			"mimeType":"image/png",
			"name":"T_FlatTiles_BaseColor",
			"uri":"T_FlatTiles_BaseColor.png"
		},
		{
			"mimeType":"image/png",
			"name":"T_FlatTiles_Roughness",
			"uri":"T_FlatTiles_Roughness.png"
		},
		{
			"mimeType":"image/png",
			"name":"T_RoundTiles_Normal",
			"uri":"T_RoundTiles_Normal.png"
		},
		{
			"mimeType":"image/png",
			"name":"T_RoundTiles_BaseColor",
			"uri":"T_RoundTiles_BaseColor.png"
		},
		{
			"mimeType":"image/png",
			"name":"T_RoundTiles_Roughness",
			"uri":"T_RoundTiles_Roughness.png"
		}
	],
	"accessors":[
		{
			"bufferView":0,
			"componentType":5126,
			"count":1640,
			"max":[
				3.958951234817505,
				4.342607498168945,
				5.828753471374512
			],
			"min":[
				-3.958951234817505,
				-0.7821269035339355,
				-5.828753471374512
			],
			"type":"VEC3"
		},
		{
			"bufferView":1,
			"componentType":5126,
			"count":1640,
			"type":"VEC3"
		},
		{
			"bufferView":2,
			"componentType":5126,
			"count":1640,
			"type":"VEC2"
		},
		{
			"bufferView":3,
			"componentType":5126,
			"count":1640,
			"type":"VEC2"
		},
		{
			"bufferView":4,
			"componentType":5123,
			"count":2712,
			"type":"SCALAR"
		},
		{
			"bufferView":5,
			"componentType":5126,
			"count":1379,
			"max":[
				4.444864749908447,
				4.576201915740967,
				5.8229875564575195
			],
			"min":[
				-4.444864749908447,
				-0.9821903109550476,
				-5.780182361602783
			],
			"type":"VEC3"
		},
		{
			"bufferView":6,
			"componentType":5126,
			"count":1379,
			"type":"VEC3"
		},
		{
			"bufferView":7,
			"componentType":5126,
			"count":1379,
			"type":"VEC2"
		},
		{
			"bufferView":8,
			"componentType":5126,
			"count":1379,
			"type":"VEC2"
		},
		{
			"bufferView":9,
			"componentType":5123,
			"count":4356,
			"type":"SCALAR"
		},
		{
			"bufferView":10,
			"componentType":5126,
			"count":1200,
			"max":[
				0.3307531774044037,
				4.890044689178467,
				5.954605579376221
			],
			"min":[
				-0.33246704936027527,
				4.384562015533447,
				-5.897581100463867
			],
			"type":"VEC3"
		},
		{
			"bufferView":11,
			"componentType":5126,
			"count":1200,
			"type":"VEC3"
		},
		{
			"bufferView":12,
			"componentType":5126,
			"count":1200,
			"type":"VEC2"
		},
		{
			"bufferView":13,
			"componentType":5126,
			"count":1200,
			"type":"VEC2"
		},
		{
			"bufferView":14,
			"componentType":5123,
			"count":3060,
			"type":"SCALAR"
		}
	],
	"bufferViews":[
		{
			"buffer":0,
			"byteLength":19680,
			"byteOffset":0,
			"target":34962
		},
		{
			"buffer":0,
			"byteLength":19680,
			"byteOffset":19680,
			"target":34962
		},
		{
			"buffer":0,
			"byteLength":13120,
			"byteOffset":39360,
			"target":34962
		},
		{
			"buffer":0,
			"byteLength":13120,
			"byteOffset":52480,
			"target":34962
		},
		{
			"buffer":0,
			"byteLength":5424,
			"byteOffset":65600,
			"target":34963
		},
		{
			"buffer":0,
			"byteLength":16548,
			"byteOffset":71024,
			"target":34962
		},
		{
			"buffer":0,
			"byteLength":16548,
			"byteOffset":87572,
			"target":34962
		},
		{
			"buffer":0,
			"byteLength":11032,
			"byteOffset":104120,
			"target":34962
		},
		{
			"buffer":0,
			"byteLength":11032,
			"byteOffset":115152,
			"target":34962
		},
		{
			"buffer":0,
			"byteLength":8712,
			"byteOffset":126184,
			"target":34963
		},
		{
			"buffer":0,
			"byteLength":14400,
			"byteOffset":134896,
			"target":34962
		},
		{
			"buffer":0,
			"byteLength":14400,
			"byteOffset":149296,
			"target":34962
		},
		{
			"buffer":0,
			"byteLength":9600,
			"byteOffset":163696,
			"target":34962
		},
		{
			"buffer":0,
			"byteLength":9600,
			"byteOffset":173296,
			"target":34962
		},
		{
			"buffer":0,
			"byteLength":6120,
			"byteOffset":182896,
			"target":34963
		}
	],
	"samplers":[
		{
			"magFilter":9729,
			"minFilter":9987
		}
	],
	"buffers":[
		{
			"byteLength":189016,
			"uri":"Roof_FlatTiles_6x10.bin"
		}
	]
}
