{
	"asset":{
		"generator":"Khronos glTF Blender I/O v4.0.44",
		"version":"2.0"
	},
	"scene":0,
	"scenes":[
		{
			"name":"Scene",
			"nodes":[
				0
			]
		}
	],
	"nodes":[
		{
			"mesh":0,
			"name":"Roof_FlatTiles_6x4"
		}
	],
	"materials":[
		{
			"doubleSided":true,
			"name":"MI_RoundTiles",
			"normalTexture":{
				"index":0
			},
			"pbrMetallicRoughness":{
				"baseColorTexture":{
					"index":1
				},
				"metallicFactor":0,
				"metallicRoughnessTexture":{
					"index":2
				}
			}
		},
		{
			"doubleSided":true,
			"name":"MI_WoodTrim",
			"normalTexture":{
				"index":3
			},
			"pbrMetallicRoughness":{
				"baseColorTexture":{
					"index":4
				},
				"metallicFactor":0,
				"metallicRoughnessTexture":{
					"index":5
				}
			}
		},
		{
			"doubleSided":true,
			"name":"MI_FlatTiles",
			"normalTexture":{
				"index":6
			},
			"pbrMetallicRoughness":{
				"baseColorTexture":{
					"index":7
				},
				"metallicFactor":0,
				"metallicRoughnessTexture":{
					"index":8
				}
			}
		}
	],
	"meshes":[
		{
			"name":"Plane.010",
			"primitives":[
				{
					"attributes":{
						"POSITION":0,
						"NORMAL":1,
						"TEXCOORD_0":2,
						"TEXCOORD_1":3
					},
					"indices":4,
					"material":0
				},
				{
					"attributes":{
						"POSITION":5,
						"NORMAL":6,
						"TEXCOORD_0":7,
						"TEXCOORD_1":8
					},
					"indices":9,
					"material":1
				},
				{
					"attributes":{
						"POSITION":10,
						"NORMAL":11,
						"TEXCOORD_0":12,
						"TEXCOORD_1":13
					},
					"indices":14,
					"material":2
				}
			]
		}
	],
	"textures":[
		{
			"sampler":0,
			"source":0
		},
		{
			"sampler":0,
			"source":1
		},
		{
			"sampler":0,
			"source":2
		},
		{
			"sampler":0,
			"source":3
		},
		{
			"sampler":0,
			"source":4
		},
		{
			"sampler":0,
			"source":5
		},
		{
			"sampler":0,
			"source":6
		},
		{
			"sampler":0,
			"source":7
		},
		{
			"sampler":0,
			"source":8
		}
	],
	"images":[
		{
			"mimeType":"image/png",
			"name":"T_RoundTiles_Normal",
			"uri":"T_RoundTiles_Normal.png"
		},
		{
			"mimeType":"image/png",
			"name":"T_RoundTiles_BaseColor",
			"uri":"T_RoundTiles_BaseColor.png"
		},
		{
			"mimeType":"image/png",
			"name":"T_RoundTiles_Roughness",
			"uri":"T_RoundTiles_Roughness.png"
		},
		{
			"mimeType":"image/png",
			"name":"T_WoodTrim_Normal",
			"uri":"T_WoodTrim_Normal.png"
		},
		{
			"mimeType":"image/png",
			"name":"T_WoodTrim_BaseColor",
			"uri":"T_WoodTrim_BaseColor.png"
		},
		{
			"mimeType":"image/png",
			"name":"T_WoodTrim_Roughness",
			"uri":"T_WoodTrim_Roughness.png"
		},
		{
			"mimeType":"image/png",
			"name":"T_FlatTiles_Normal",
			"uri":"T_FlatTiles_Normal.png"
		},
		{
			"mimeType":"image/png",
			"name":"T_FlatTiles_BaseColor",
			"uri":"T_FlatTiles_BaseColor.png"
		},
		{
			"mimeType":"image/png",
			"name":"T_FlatTiles_Roughness",
			"uri":"T_FlatTiles_Roughness.png"
		}
	],
	"accessors":[
		{
			"bufferView":0,
			"componentType":5126,
			"count":480,
			"max":[
				0.33075323700904846,
				4.6156439781188965,
				4.845734119415283
			],
			"min":[
				-0.33246710896492004,
				4.088809490203857,
				-0.1397646814584732
			],
			"type":"VEC3"
		},
		{
			"bufferView":1,
			"componentType":5126,
			"count":480,
			"type":"VEC3"
		},
		{
			"bufferView":2,
			"componentType":5126,
			"count":480,
			"type":"VEC2"
		},
		{
			"bufferView":3,
			"componentType":5126,
			"count":480,
			"type":"VEC2"
		},
		{
			"bufferView":4,
			"componentType":5123,
			"count":1224,
			"type":"SCALAR"
		},
		{
			"bufferView":5,
			"componentType":5126,
			"count":1298,
			"max":[
				3.958950996398926,
				4.341731071472168,
				4.852980613708496
			],
			"min":[
				-3.958950996398926,
				-0.7821268439292908,
				-0.14947161078453064
			],
			"type":"VEC3"
		},
		{
			"bufferView":6,
			"componentType":5126,
			"count":1298,
			"type":"VEC3"
		},
		{
			"bufferView":7,
			"componentType":5126,
			"count":1298,
			"type":"VEC2"
		},
		{
			"bufferView":8,
			"componentType":5126,
			"count":1298,
			"type":"VEC2"
		},
		{
			"bufferView":9,
			"componentType":5123,
			"count":2268,
			"type":"SCALAR"
		},
		{
			"bufferView":10,
			"componentType":5126,
			"count":838,
			"max":[
				4.12752103805542,
				4.514247894287109,
				4.844181537628174
			],
			"min":[
				-4.12752103805542,
				-0.7364983558654785,
				-0.15014606714248657
			],
			"type":"VEC3"
		},
		{
			"bufferView":11,
			"componentType":5126,
			"count":838,
			"type":"VEC3"
		},
		{
			"bufferView":12,
			"componentType":5126,
			"count":838,
			"type":"VEC2"
		},
		{
			"bufferView":13,
			"componentType":5126,
			"count":838,
			"type":"VEC2"
		},
		{
			"bufferView":14,
			"componentType":5123,
			"count":2724,
			"type":"SCALAR"
		}
	],
	"bufferViews":[
		{
			"buffer":0,
			"byteLength":5760,
			"byteOffset":0,
			"target":34962
		},
		{
			"buffer":0,
			"byteLength":5760,
			"byteOffset":5760,
			"target":34962
		},
		{
			"buffer":0,
			"byteLength":3840,
			"byteOffset":11520,
			"target":34962
		},
		{
			"buffer":0,
			"byteLength":3840,
			"byteOffset":15360,
			"target":34962
		},
		{
			"buffer":0,
			"byteLength":2448,
			"byteOffset":19200,
			"target":34963
		},
		{
			"buffer":0,
			"byteLength":15576,
			"byteOffset":21648,
			"target":34962
		},
		{
			"buffer":0,
			"byteLength":15576,
			"byteOffset":37224,
			"target":34962
		},
		{
			"buffer":0,
			"byteLength":10384,
			"byteOffset":52800,
			"target":34962
		},
		{
			"buffer":0,
			"byteLength":10384,
			"byteOffset":63184,
			"target":34962
		},
		{
			"buffer":0,
			"byteLength":4536,
			"byteOffset":73568,
			"target":34963
		},
		{
			"buffer":0,
			"byteLength":10056,
			"byteOffset":78104,
			"target":34962
		},
		{
			"buffer":0,
			"byteLength":10056,
			"byteOffset":88160,
			"target":34962
		},
		{
			"buffer":0,
			"byteLength":6704,
			"byteOffset":98216,
			"target":34962
		},
		{
			"buffer":0,
			"byteLength":6704,
			"byteOffset":104920,
			"target":34962
		},
		{
			"buffer":0,
			"byteLength":5448,
			"byteOffset":111624,
			"target":34963
		}
	],
	"samplers":[
		{
			"magFilter":9729,
			"minFilter":9987
		}
	],
	"buffers":[
		{
			"byteLength":117072,
			"uri":"Roof_FlatTiles_6x4.bin"
		}
	]
}
