{
	"asset":{
		"generator":"Khronos glTF Blender I/O v4.0.44",
		"version":"2.0"
	},
	"scene":0,
	"scenes":[
		{
			"name":"Scene",
			"nodes":[
				0
			]
		}
	],
	"nodes":[
		{
			"mesh":0,
			"name":"Roof_Modular_FlatTiles_6_R_Half"
		}
	],
	"materials":[
		{
			"doubleSided":true,
			"name":"MI_WoodTrim",
			"normalTexture":{
				"index":0
			},
			"pbrMetallicRoughness":{
				"baseColorTexture":{
					"index":1
				},
				"metallicFactor":0,
				"metallicRoughnessTexture":{
					"index":2
				}
			}
		},
		{
			"doubleSided":true,
			"name":"MI_FlatTiles",
			"normalTexture":{
				"index":3
			},
			"pbrMetallicRoughness":{
				"baseColorTexture":{
					"index":4
				},
				"metallicFactor":0,
				"metallicRoughnessTexture":{
					"index":5
				}
			}
		}
	],
	"meshes":[
		{
			"name":"Cube.733",
			"primitives":[
				{
					"attributes":{
						"POSITION":0,
						"NORMAL":1,
						"TEXCOORD_0":2,
						"TEXCOORD_1":3
					},
					"indices":4,
					"material":0
				},
				{
					"attributes":{
						"POSITION":5,
						"NORMAL":6,
						"TEXCOORD_0":7,
						"TEXCOORD_1":8
					},
					"indices":9,
					"material":1
				}
			]
		}
	],
	"textures":[
		{
			"sampler":0,
			"source":0
		},
		{
			"sampler":0,
			"source":1
		},
		{
			"sampler":0,
			"source":2
		},
		{
			"sampler":0,
			"source":3
		},
		{
			"sampler":0,
			"source":4
		},
		{
			"sampler":0,
			"source":5
		}
	],
	"images":[
		{
			"mimeType":"image/png",
			"name":"T_WoodTrim_Normal",
			"uri":"T_WoodTrim_Normal.png"
		},
		{
			"mimeType":"image/png",
			"name":"T_WoodTrim_BaseColor",
			"uri":"T_WoodTrim_BaseColor.png"
		},
		{
			"mimeType":"image/png",
			"name":"T_WoodTrim_Roughness",
			"uri":"T_WoodTrim_Roughness.png"
		},
		{
			"mimeType":"image/png",
			"name":"T_FlatTiles_Normal",
			"uri":"T_FlatTiles_Normal.png"
		},
		{
			"mimeType":"image/png",
			"name":"T_FlatTiles_BaseColor",
			"uri":"T_FlatTiles_BaseColor.png"
		},
		{
			"mimeType":"image/png",
			"name":"T_FlatTiles_Roughness",
			"uri":"T_FlatTiles_Roughness.png"
		}
	],
	"accessors":[
		{
			"bufferView":0,
			"componentType":5126,
			"count":276,
			"max":[
				3.958951234817505,
				4.342607498168945,
				0.9999995231628418
			],
			"min":[
				-0.06753420829772949,
				-0.7821269035339355,
				-1.2433161735534668
			],
			"type":"VEC3"
		},
		{
			"bufferView":1,
			"componentType":5126,
			"count":276,
			"type":"VEC3"
		},
		{
			"bufferView":2,
			"componentType":5126,
			"count":276,
			"type":"VEC2"
		},
		{
			"bufferView":3,
			"componentType":5126,
			"count":276,
			"type":"VEC2"
		},
		{
			"bufferView":4,
			"componentType":5123,
			"count":474,
			"type":"SCALAR"
		},
		{
			"bufferView":5,
			"componentType":5126,
			"count":111,
			"max":[
				4.034413814544678,
				4.576201915740967,
				1
			],
			"min":[
				0,
				-0.6355158090591431,
				-1.202275276184082
			],
			"type":"VEC3"
		},
		{
			"bufferView":6,
			"componentType":5126,
			"count":111,
			"type":"VEC3"
		},
		{
			"bufferView":7,
			"componentType":5126,
			"count":111,
			"type":"VEC2"
		},
		{
			"bufferView":8,
			"componentType":5126,
			"count":111,
			"type":"VEC2"
		},
		{
			"bufferView":9,
			"componentType":5123,
			"count":381,
			"type":"SCALAR"
		}
	],
	"bufferViews":[
		{
			"buffer":0,
			"byteLength":3312,
			"byteOffset":0,
			"target":34962
		},
		{
			"buffer":0,
			"byteLength":3312,
			"byteOffset":3312,
			"target":34962
		},
		{
			"buffer":0,
			"byteLength":2208,
			"byteOffset":6624,
			"target":34962
		},
		{
			"buffer":0,
			"byteLength":2208,
			"byteOffset":8832,
			"target":34962
		},
		{
			"buffer":0,
			"byteLength":948,
			"byteOffset":11040,
			"target":34963
		},
		{
			"buffer":0,
			"byteLength":1332,
			"byteOffset":11988,
			"target":34962
		},
		{
			"buffer":0,
			"byteLength":1332,
			"byteOffset":13320,
			"target":34962
		},
		{
			"buffer":0,
			"byteLength":888,
			"byteOffset":14652,
			"target":34962
		},
		{
			"buffer":0,
			"byteLength":888,
			"byteOffset":15540,
			"target":34962
		},
		{
			"buffer":0,
			"byteLength":762,
			"byteOffset":16428,
			"target":34963
		}
	],
	"samplers":[
		{
			"magFilter":9729,
			"minFilter":9987
		}
	],
	"buffers":[
		{
			"byteLength":17192,
			"uri":"Roof_Modular_FlatTiles_6_R_Half.bin"
		}
	]
}
