{
	"asset":{
		"generator":"Khronos glTF Blender I/O v4.0.44",
		"version":"2.0"
	},
	"scene":0,
	"scenes":[
		{
			"name":"Scene",
			"nodes":[
				0
			]
		}
	],
	"nodes":[
		{
			"mesh":0,
			"name":"Roof_Spikes_Mid2"
		}
	],
	"materials":[
		{
			"doubleSided":true,
			"name":"MI_MetalOrnaments",
			"pbrMetallicRoughness":{
				"baseColorTexture":{
					"index":0
				},
				"metallicRoughnessTexture":{
					"index":1
				}
			}
		}
	],
	"meshes":[
		{
			"name":"Torus.014",
			"primitives":[
				{
					"attributes":{
						"POSITION":0,
						"NORMAL":1,
						"TEXCOORD_0":2
					},
					"indices":3,
					"material":0
				}
			]
		}
	],
	"textures":[
		{
			"sampler":0,
			"source":0
		},
		{
			"sampler":0,
			"source":1
		}
	],
	"images":[
		{
			"mimeType":"image/png",
			"name":"T_MetalOrnaments_BaseColor",
			"uri":"T_MetalOrnaments_BaseColor.png"
		},
		{
			"mimeType":"image/png",
			"name":"T_MetalOrnaments_Roughness",
			"uri":"T_MetalOrnaments_Roughness.png"
		}
	],
	"accessors":[
		{
			"bufferView":0,
			"componentType":5126,
			"count":908,
			"max":[
				0.07714157551527023,
				1.2590627670288086,
				2.2238168716430664
			],
			"min":[
				-0.07714157551527023,
				-0.07898187637329102,
				-0.8514573574066162
			],
			"type":"VEC3"
		},
		{
			"bufferView":1,
			"componentType":5126,
			"count":908,
			"type":"VEC3"
		},
		{
			"bufferView":2,
			"componentType":5126,
			"count":908,
			"type":"VEC2"
		},
		{
			"bufferView":3,
			"componentType":5123,
			"count":3012,
			"type":"SCALAR"
		}
	],
	"bufferViews":[
		{
			"buffer":0,
			"byteLength":10896,
			"byteOffset":0,
			"target":34962
		},
		{
			"buffer":0,
			"byteLength":10896,
			"byteOffset":10896,
			"target":34962
		},
		{
			"buffer":0,
			"byteLength":7264,
			"byteOffset":21792,
			"target":34962
		},
		{
			"buffer":0,
			"byteLength":6024,
			"byteOffset":29056,
			"target":34963
		}
	],
	"samplers":[
		{
			"magFilter":9729,
			"minFilter":9987
		}
	],
	"buffers":[
		{
			"byteLength":35080,
			"uri":"Roof_Spikes_Mid2.bin"
		}
	]
}
