{
	"asset":{
		"generator":"Khronos glTF Blender I/O v4.0.44",
		"version":"2.0"
	},
	"scene":0,
	"scenes":[
		{
			"name":"Scene",
			"nodes":[
				0
			]
		}
	],
	"nodes":[
		{
			"mesh":0,
			"name":"Roof_FlatTiles_6x8"
		}
	],
	"materials":[
		{
			"doubleSided":true,
			"name":"MI_FlatTiles",
			"normalTexture":{
				"index":0
			},
			"pbrMetallicRoughness":{
				"baseColorTexture":{
					"index":1
				},
				"metallicFactor":0,
				"metallicRoughnessTexture":{
					"index":2
				}
			}
		},
		{
			"doubleSided":true,
			"name":"MI_WoodTrim",
			"normalTexture":{
				"index":3
			},
			"pbrMetallicRoughness":{
				"baseColorTexture":{
					"index":4
				},
				"metallicFactor":0,
				"metallicRoughnessTexture":{
					"index":5
				}
			}
		},
		{
			"doubleSided":true,
			"name":"MI_RoundTiles",
			"normalTexture":{
				"index":6
			},
			"pbrMetallicRoughness":{
				"baseColorTexture":{
					"index":7
				},
				"metallicFactor":0,
				"metallicRoughnessTexture":{
					"index":8
				}
			}
		}
	],
	"meshes":[
		{
			"name":"Plane.003",
			"primitives":[
				{
					"attributes":{
						"POSITION":0,
						"NORMAL":1,
						"TEXCOORD_0":2,
						"TEXCOORD_1":3
					},
					"indices":4,
					"material":0
				},
				{
					"attributes":{
						"POSITION":5,
						"NORMAL":6,
						"TEXCOORD_0":7,
						"TEXCOORD_1":8
					},
					"indices":9,
					"material":1
				},
				{
					"attributes":{
						"POSITION":10,
						"NORMAL":11,
						"TEXCOORD_0":12,
						"TEXCOORD_1":13
					},
					"indices":14,
					"material":2
				}
			]
		}
	],
	"textures":[
		{
			"sampler":0,
			"source":0
		},
		{
			"sampler":0,
			"source":1
		},
		{
			"sampler":0,
			"source":2
		},
		{
			"sampler":0,
			"source":3
		},
		{
			"sampler":0,
			"source":4
		},
		{
			"sampler":0,
			"source":5
		},
		{
			"sampler":0,
			"source":6
		},
		{
			"sampler":0,
			"source":7
		},
		{
			"sampler":0,
			"source":8
		}
	],
	"images":[
		{
			"mimeType":"image/png",
			"name":"T_FlatTiles_Normal",
			"uri":"T_FlatTiles_Normal.png"
		},
		{
			"mimeType":"image/png",
			"name":"T_FlatTiles_BaseColor",
			"uri":"T_FlatTiles_BaseColor.png"
		},
		{
			"mimeType":"image/png",
			"name":"T_FlatTiles_Roughness",
			"uri":"T_FlatTiles_Roughness.png"
		},
		{
			"mimeType":"image/png",
			"name":"T_WoodTrim_Normal",
			"uri":"T_WoodTrim_Normal.png"
		},
		{
			"mimeType":"image/png",
			"name":"T_WoodTrim_BaseColor",
			"uri":"T_WoodTrim_BaseColor.png"
		},
		{
			"mimeType":"image/png",
			"name":"T_WoodTrim_Roughness",
			"uri":"T_WoodTrim_Roughness.png"
		},
		{
			"mimeType":"image/png",
			"name":"T_RoundTiles_Normal",
			"uri":"T_RoundTiles_Normal.png"
		},
		{
			"mimeType":"image/png",
			"name":"T_RoundTiles_BaseColor",
			"uri":"T_RoundTiles_BaseColor.png"
		},
		{
			"mimeType":"image/png",
			"name":"T_RoundTiles_Roughness",
			"uri":"T_RoundTiles_Roughness.png"
		}
	],
	"accessors":[
		{
			"bufferView":0,
			"componentType":5126,
			"count":1392,
			"max":[
				4.359762191772461,
				4.514297962188721,
				4.850320339202881
			],
			"min":[
				-4.359762191772461,
				-0.9027731418609619,
				-4.828295707702637
			],
			"type":"VEC3"
		},
		{
			"bufferView":1,
			"componentType":5126,
			"count":1392,
			"type":"VEC3"
		},
		{
			"bufferView":2,
			"componentType":5126,
			"count":1392,
			"type":"VEC2"
		},
		{
			"bufferView":3,
			"componentType":5126,
			"count":1392,
			"type":"VEC2"
		},
		{
			"bufferView":4,
			"componentType":5123,
			"count":4620,
			"type":"SCALAR"
		},
		{
			"bufferView":5,
			"componentType":5126,
			"count":1752,
			"max":[
				3.958950996398926,
				4.342607021331787,
				4.85014009475708
			],
			"min":[
				-3.958950996398926,
				-0.7821268439292908,
				-4.8360066413879395
			],
			"type":"VEC3"
		},
		{
			"bufferView":6,
			"componentType":5126,
			"count":1752,
			"type":"VEC3"
		},
		{
			"bufferView":7,
			"componentType":5126,
			"count":1752,
			"type":"VEC2"
		},
		{
			"bufferView":8,
			"componentType":5126,
			"count":1752,
			"type":"VEC2"
		},
		{
			"bufferView":9,
			"componentType":5123,
			"count":3048,
			"type":"SCALAR"
		},
		{
			"bufferView":10,
			"componentType":5126,
			"count":960,
			"max":[
				0.33671000599861145,
				4.655920505523682,
				4.941406726837158
			],
			"min":[
				-0.3384547531604767,
				4.141334056854248,
				-4.782817840576172
			],
			"type":"VEC3"
		},
		{
			"bufferView":11,
			"componentType":5126,
			"count":960,
			"type":"VEC3"
		},
		{
			"bufferView":12,
			"componentType":5126,
			"count":960,
			"type":"VEC2"
		},
		{
			"bufferView":13,
			"componentType":5126,
			"count":960,
			"type":"VEC2"
		},
		{
			"bufferView":14,
			"componentType":5123,
			"count":2448,
			"type":"SCALAR"
		}
	],
	"bufferViews":[
		{
			"buffer":0,
			"byteLength":16704,
			"byteOffset":0,
			"target":34962
		},
		{
			"buffer":0,
			"byteLength":16704,
			"byteOffset":16704,
			"target":34962
		},
		{
			"buffer":0,
			"byteLength":11136,
			"byteOffset":33408,
			"target":34962
		},
		{
			"buffer":0,
			"byteLength":11136,
			"byteOffset":44544,
			"target":34962
		},
		{
			"buffer":0,
			"byteLength":9240,
			"byteOffset":55680,
			"target":34963
		},
		{
			"buffer":0,
			"byteLength":21024,
			"byteOffset":64920,
			"target":34962
		},
		{
			"buffer":0,
			"byteLength":21024,
			"byteOffset":85944,
			"target":34962
		},
		{
			"buffer":0,
			"byteLength":14016,
			"byteOffset":106968,
			"target":34962
		},
		{
			"buffer":0,
			"byteLength":14016,
			"byteOffset":120984,
			"target":34962
		},
		{
			"buffer":0,
			"byteLength":6096,
			"byteOffset":135000,
			"target":34963
		},
		{
			"buffer":0,
			"byteLength":11520,
			"byteOffset":141096,
			"target":34962
		},
		{
			"buffer":0,
			"byteLength":11520,
			"byteOffset":152616,
			"target":34962
		},
		{
			"buffer":0,
			"byteLength":7680,
			"byteOffset":164136,
			"target":34962
		},
		{
			"buffer":0,
			"byteLength":7680,
			"byteOffset":171816,
			"target":34962
		},
		{
			"buffer":0,
			"byteLength":4896,
			"byteOffset":179496,
			"target":34963
		}
	],
	"samplers":[
		{
			"magFilter":9729,
			"minFilter":9987
		}
	],
	"buffers":[
		{
			"byteLength":184392,
			"uri":"Roof_FlatTiles_6x8.bin"
		}
	]
}
