{
	"asset":{
		"generator":"Khronos glTF Blender I/O v4.0.44",
		"version":"2.0"
	},
	"scene":0,
	"scenes":[
		{
			"name":"Scene",
			"nodes":[
				0
			]
		}
	],
	"nodes":[
		{
			"mesh":0,
			"name":"Roof_FlatTiles_6x12"
		}
	],
	"materials":[
		{
			"doubleSided":true,
			"name":"MI_WoodTrim",
			"normalTexture":{
				"index":0
			},
			"pbrMetallicRoughness":{
				"baseColorTexture":{
					"index":1
				},
				"metallicFactor":0,
				"metallicRoughnessTexture":{
					"index":2
				}
			}
		},
		{
			"doubleSided":true,
			"name":"MI_FlatTiles",
			"normalTexture":{
				"index":3
			},
			"pbrMetallicRoughness":{
				"baseColorTexture":{
					"index":4
				},
				"metallicFactor":0,
				"metallicRoughnessTexture":{
					"index":5
				}
			}
		},
		{
			"doubleSided":true,
			"name":"MI_RoundTiles",
			"normalTexture":{
				"index":6
			},
			"pbrMetallicRoughness":{
				"baseColorTexture":{
					"index":7
				},
				"metallicFactor":0,
				"metallicRoughnessTexture":{
					"index":8
				}
			}
		}
	],
	"meshes":[
		{
			"name":"Cube.045",
			"primitives":[
				{
					"attributes":{
						"POSITION":0,
						"NORMAL":1,
						"TEXCOORD_0":2,
						"TEXCOORD_1":3
					},
					"indices":4,
					"material":0
				},
				{
					"attributes":{
						"POSITION":5,
						"NORMAL":6,
						"TEXCOORD_0":7,
						"TEXCOORD_1":8
					},
					"indices":9,
					"material":1
				},
				{
					"attributes":{
						"POSITION":10,
						"NORMAL":11,
						"TEXCOORD_0":12,
						"TEXCOORD_1":13
					},
					"indices":14,
					"material":2
				}
			]
		}
	],
	"textures":[
		{
			"sampler":0,
			"source":0
		},
		{
			"sampler":0,
			"source":1
		},
		{
			"sampler":0,
			"source":2
		},
		{
			"sampler":0,
			"source":3
		},
		{
			"sampler":0,
			"source":4
		},
		{
			"sampler":0,
			"source":5
		},
		{
			"sampler":0,
			"source":6
		},
		{
			"sampler":0,
			"source":7
		},
		{
			"sampler":0,
			"source":8
		}
	],
	"images":[
		{
			"mimeType":"image/png",
			"name":"T_WoodTrim_Normal",
			"uri":"T_WoodTrim_Normal.png"
		},
		{
			"mimeType":"image/png",
			"name":"T_WoodTrim_BaseColor",
			"uri":"T_WoodTrim_BaseColor.png"
		},
		{
			"mimeType":"image/png",
			"name":"T_WoodTrim_Roughness",
			"uri":"T_WoodTrim_Roughness.png"
		},
		{
			"mimeType":"image/png",
			"name":"T_FlatTiles_Normal",
			"uri":"T_FlatTiles_Normal.png"
		},
		{
			"mimeType":"image/png",
			"name":"T_FlatTiles_BaseColor",
			"uri":"T_FlatTiles_BaseColor.png"
		},
		{
			"mimeType":"image/png",
			"name":"T_FlatTiles_Roughness",
			"uri":"T_FlatTiles_Roughness.png"
		},
		{
			"mimeType":"image/png",
			"name":"T_RoundTiles_Normal",
			"uri":"T_RoundTiles_Normal.png"
		},
		{
			"mimeType":"image/png",
			"name":"T_RoundTiles_BaseColor",
			"uri":"T_RoundTiles_BaseColor.png"
		},
		{
			"mimeType":"image/png",
			"name":"T_RoundTiles_Roughness",
			"uri":"T_RoundTiles_Roughness.png"
		}
	],
	"accessors":[
		{
			"bufferView":0,
			"componentType":5126,
			"count":1640,
			"max":[
				3.958951234817505,
				4.342607498168945,
				6.828753471374512
			],
			"min":[
				-3.958951234817505,
				-0.7821269035339355,
				-6.828753471374512
			],
			"type":"VEC3"
		},
		{
			"bufferView":1,
			"componentType":5126,
			"count":1640,
			"type":"VEC3"
		},
		{
			"bufferView":2,
			"componentType":5126,
			"count":1640,
			"type":"VEC2"
		},
		{
			"bufferView":3,
			"componentType":5126,
			"count":1640,
			"type":"VEC2"
		},
		{
			"bufferView":4,
			"componentType":5123,
			"count":2712,
			"type":"SCALAR"
		},
		{
			"bufferView":5,
			"componentType":5126,
			"count":1673,
			"max":[
				4.563756942749023,
				4.576201915740967,
				6.8062944412231445
			],
			"min":[
				-4.563756942749023,
				-1.1347471475601196,
				-6.792281627655029
			],
			"type":"VEC3"
		},
		{
			"bufferView":6,
			"componentType":5126,
			"count":1673,
			"type":"VEC3"
		},
		{
			"bufferView":7,
			"componentType":5126,
			"count":1673,
			"type":"VEC2"
		},
		{
			"bufferView":8,
			"componentType":5126,
			"count":1673,
			"type":"VEC2"
		},
		{
			"bufferView":9,
			"componentType":5123,
			"count":5196,
			"type":"SCALAR"
		},
		{
			"bufferView":10,
			"componentType":5126,
			"count":1360,
			"max":[
				0.3307531774044037,
				4.890044689178467,
				6.670813083648682
			],
			"min":[
				-0.33246704936027527,
				4.384562015533447,
				-6.701374053955078
			],
			"type":"VEC3"
		},
		{
			"bufferView":11,
			"componentType":5126,
			"count":1360,
			"type":"VEC3"
		},
		{
			"bufferView":12,
			"componentType":5126,
			"count":1360,
			"type":"VEC2"
		},
		{
			"bufferView":13,
			"componentType":5126,
			"count":1360,
			"type":"VEC2"
		},
		{
			"bufferView":14,
			"componentType":5123,
			"count":3468,
			"type":"SCALAR"
		}
	],
	"bufferViews":[
		{
			"buffer":0,
			"byteLength":19680,
			"byteOffset":0,
			"target":34962
		},
		{
			"buffer":0,
			"byteLength":19680,
			"byteOffset":19680,
			"target":34962
		},
		{
			"buffer":0,
			"byteLength":13120,
			"byteOffset":39360,
			"target":34962
		},
		{
			"buffer":0,
			"byteLength":13120,
			"byteOffset":52480,
			"target":34962
		},
		{
			"buffer":0,
			"byteLength":5424,
			"byteOffset":65600,
			"target":34963
		},
		{
			"buffer":0,
			"byteLength":20076,
			"byteOffset":71024,
			"target":34962
		},
		{
			"buffer":0,
			"byteLength":20076,
			"byteOffset":91100,
			"target":34962
		},
		{
			"buffer":0,
			"byteLength":13384,
			"byteOffset":111176,
			"target":34962
		},
		{
			"buffer":0,
			"byteLength":13384,
			"byteOffset":124560,
			"target":34962
		},
		{
			"buffer":0,
			"byteLength":10392,
			"byteOffset":137944,
			"target":34963
		},
		{
			"buffer":0,
			"byteLength":16320,
			"byteOffset":148336,
			"target":34962
		},
		{
			"buffer":0,
			"byteLength":16320,
			"byteOffset":164656,
			"target":34962
		},
		{
			"buffer":0,
			"byteLength":10880,
			"byteOffset":180976,
			"target":34962
		},
		{
			"buffer":0,
			"byteLength":10880,
			"byteOffset":191856,
			"target":34962
		},
		{
			"buffer":0,
			"byteLength":6936,
			"byteOffset":202736,
			"target":34963
		}
	],
	"samplers":[
		{
			"magFilter":9729,
			"minFilter":9987
		}
	],
	"buffers":[
		{
			"byteLength":209672,
			"uri":"Roof_FlatTiles_6x12.bin"
		}
	]
}
