{
	"asset":{
		"generator":"Khronos glTF Blender I/O v4.0.44",
		"version":"2.0"
	},
	"scene":0,
	"scenes":[
		{
			"name":"Scene",
			"nodes":[
				0
			]
		}
	],
	"nodes":[
		{
			"mesh":0,
			"name":"Roof_FlatTiles_4x8"
		}
	],
	"materials":[
		{
			"doubleSided":true,
			"name":"MI_FlatTiles",
			"normalTexture":{
				"index":0
			},
			"pbrMetallicRoughness":{
				"baseColorTexture":{
					"index":1
				},
				"metallicFactor":0,
				"metallicRoughnessTexture":{
					"index":2
				}
			}
		},
		{
			"doubleSided":true,
			"name":"MI_WoodTrim",
			"normalTexture":{
				"index":3
			},
			"pbrMetallicRoughness":{
				"baseColorTexture":{
					"index":4
				},
				"metallicFactor":0,
				"metallicRoughnessTexture":{
					"index":5
				}
			}
		},
		{
			"doubleSided":true,
			"name":"MI_RoundTiles",
			"normalTexture":{
				"index":6
			},
			"pbrMetallicRoughness":{
				"baseColorTexture":{
					"index":7
				},
				"metallicFactor":0,
				"metallicRoughnessTexture":{
					"index":8
				}
			}
		}
	],
	"meshes":[
		{
			"name":"Plane.008",
			"primitives":[
				{
					"attributes":{
						"POSITION":0,
						"NORMAL":1,
						"TEXCOORD_0":2,
						"TEXCOORD_1":3
					},
					"indices":4,
					"material":0
				},
				{
					"attributes":{
						"POSITION":5,
						"NORMAL":6,
						"TEXCOORD_0":7,
						"TEXCOORD_1":8
					},
					"indices":9,
					"material":1
				},
				{
					"attributes":{
						"POSITION":10,
						"NORMAL":11,
						"TEXCOORD_0":12,
						"TEXCOORD_1":13
					},
					"indices":14,
					"material":2
				}
			]
		}
	],
	"textures":[
		{
			"sampler":0,
			"source":0
		},
		{
			"sampler":0,
			"source":1
		},
		{
			"sampler":0,
			"source":2
		},
		{
			"sampler":0,
			"source":3
		},
		{
			"sampler":0,
			"source":4
		},
		{
			"sampler":0,
			"source":5
		},
		{
			"sampler":0,
			"source":6
		},
		{
			"sampler":0,
			"source":7
		},
		{
			"sampler":0,
			"source":8
		}
	],
	"images":[
		{
			"mimeType":"image/png",
			"name":"T_FlatTiles_Normal",
			"uri":"T_FlatTiles_Normal.png"
		},
		{
			"mimeType":"image/png",
			"name":"T_FlatTiles_BaseColor",
			"uri":"T_FlatTiles_BaseColor.png"
		},
		{
			"mimeType":"image/png",
			"name":"T_FlatTiles_Roughness",
			"uri":"T_FlatTiles_Roughness.png"
		},
		{
			"mimeType":"image/png",
			"name":"T_WoodTrim_Normal",
			"uri":"T_WoodTrim_Normal.png"
		},
		{
			"mimeType":"image/png",
			"name":"T_WoodTrim_BaseColor",
			"uri":"T_WoodTrim_BaseColor.png"
		},
		{
			"mimeType":"image/png",
			"name":"T_WoodTrim_Roughness",
			"uri":"T_WoodTrim_Roughness.png"
		},
		{
			"mimeType":"image/png",
			"name":"T_RoundTiles_Normal",
			"uri":"T_RoundTiles_Normal.png"
		},
		{
			"mimeType":"image/png",
			"name":"T_RoundTiles_BaseColor",
			"uri":"T_RoundTiles_BaseColor.png"
		},
		{
			"mimeType":"image/png",
			"name":"T_RoundTiles_Roughness",
			"uri":"T_RoundTiles_Roughness.png"
		}
	],
	"accessors":[
		{
			"bufferView":0,
			"componentType":5126,
			"count":1096,
			"max":[
				2.875328540802002,
				3.4242000579833984,
				4.812938690185547
			],
			"min":[
				-2.875328540802002,
				-0.6453323364257812,
				-4.7911057472229
			],
			"type":"VEC3"
		},
		{
			"bufferView":1,
			"componentType":5126,
			"count":1096,
			"type":"VEC3"
		},
		{
			"bufferView":2,
			"componentType":5126,
			"count":1096,
			"type":"VEC2"
		},
		{
			"bufferView":3,
			"componentType":5126,
			"count":1096,
			"type":"VEC2"
		},
		{
			"bufferView":4,
			"componentType":5123,
			"count":3516,
			"type":"SCALAR"
		},
		{
			"bufferView":5,
			"componentType":5126,
			"count":1328,
			"max":[
				2.5676209926605225,
				3.200705051422119,
				4.828753471374512
			],
			"min":[
				-2.5676209926605225,
				-0.5157185792922974,
				-4.828753471374512
			],
			"type":"VEC3"
		},
		{
			"bufferView":6,
			"componentType":5126,
			"count":1328,
			"type":"VEC3"
		},
		{
			"bufferView":7,
			"componentType":5126,
			"count":1328,
			"type":"VEC2"
		},
		{
			"bufferView":8,
			"componentType":5126,
			"count":1328,
			"type":"VEC2"
		},
		{
			"bufferView":9,
			"componentType":5123,
			"count":2376,
			"type":"SCALAR"
		},
		{
			"bufferView":10,
			"componentType":5126,
			"count":960,
			"max":[
				0.3307531177997589,
				3.5199263095855713,
				4.853985786437988
			],
			"min":[
				-0.3324669897556305,
				3.0144433975219727,
				-4.698203086853027
			],
			"type":"VEC3"
		},
		{
			"bufferView":11,
			"componentType":5126,
			"count":960,
			"type":"VEC3"
		},
		{
			"bufferView":12,
			"componentType":5126,
			"count":960,
			"type":"VEC2"
		},
		{
			"bufferView":13,
			"componentType":5126,
			"count":960,
			"type":"VEC2"
		},
		{
			"bufferView":14,
			"componentType":5123,
			"count":2448,
			"type":"SCALAR"
		}
	],
	"bufferViews":[
		{
			"buffer":0,
			"byteLength":13152,
			"byteOffset":0,
			"target":34962
		},
		{
			"buffer":0,
			"byteLength":13152,
			"byteOffset":13152,
			"target":34962
		},
		{
			"buffer":0,
			"byteLength":8768,
			"byteOffset":26304,
			"target":34962
		},
		{
			"buffer":0,
			"byteLength":8768,
			"byteOffset":35072,
			"target":34962
		},
		{
			"buffer":0,
			"byteLength":7032,
			"byteOffset":43840,
			"target":34963
		},
		{
			"buffer":0,
			"byteLength":15936,
			"byteOffset":50872,
			"target":34962
		},
		{
			"buffer":0,
			"byteLength":15936,
			"byteOffset":66808,
			"target":34962
		},
		{
			"buffer":0,
			"byteLength":10624,
			"byteOffset":82744,
			"target":34962
		},
		{
			"buffer":0,
			"byteLength":10624,
			"byteOffset":93368,
			"target":34962
		},
		{
			"buffer":0,
			"byteLength":4752,
			"byteOffset":103992,
			"target":34963
		},
		{
			"buffer":0,
			"byteLength":11520,
			"byteOffset":108744,
			"target":34962
		},
		{
			"buffer":0,
			"byteLength":11520,
			"byteOffset":120264,
			"target":34962
		},
		{
			"buffer":0,
			"byteLength":7680,
			"byteOffset":131784,
			"target":34962
		},
		{
			"buffer":0,
			"byteLength":7680,
			"byteOffset":139464,
			"target":34962
		},
		{
			"buffer":0,
			"byteLength":4896,
			"byteOffset":147144,
			"target":34963
		}
	],
	"samplers":[
		{
			"magFilter":9729,
			"minFilter":9987
		}
	],
	"buffers":[
		{
			"byteLength":152040,
			"uri":"Roof_FlatTiles_4x8.bin"
		}
	]
}
