{
	"asset":{
		"generator":"Khronos glTF Blender I/O v4.0.44",
		"version":"2.0"
	},
	"scene":0,
	"scenes":[
		{
			"name":"Scene",
			"nodes":[
				0
			]
		}
	],
	"nodes":[
		{
			"mesh":0,
			"name":"Roof_Spikes5"
		}
	],
	"materials":[
		{
			"doubleSided":true,
			"name":"MI_MetalOrnaments",
			"pbrMetallicRoughness":{
				"baseColorTexture":{
					"index":0
				},
				"metallicRoughnessTexture":{
					"index":1
				}
			}
		}
	],
	"meshes":[
		{
			"name":"Torus.022",
			"primitives":[
				{
					"attributes":{
						"POSITION":0,
						"NORMAL":1,
						"TEXCOORD_0":2
					},
					"indices":3,
					"material":0
				}
			]
		}
	],
	"textures":[
		{
			"sampler":0,
			"source":0
		},
		{
			"sampler":0,
			"source":1
		}
	],
	"images":[
		{
			"mimeType":"image/png",
			"name":"T_MetalOrnaments_BaseColor",
			"uri":"T_MetalOrnaments_BaseColor.png"
		},
		{
			"mimeType":"image/png",
			"name":"T_MetalOrnaments_Roughness",
			"uri":"T_MetalOrnaments_Roughness.png"
		}
	],
	"accessors":[
		{
			"bufferView":0,
			"componentType":5126,
			"count":1640,
			"max":[
				0.08931872248649597,
				1.5015766620635986,
				4.885021209716797
			],
			"min":[
				-0.08931872248649597,
				-0.06305817514657974,
				0.6921352744102478
			],
			"type":"VEC3"
		},
		{
			"bufferView":1,
			"componentType":5126,
			"count":1640,
			"type":"VEC3"
		},
		{
			"bufferView":2,
			"componentType":5126,
			"count":1640,
			"type":"VEC2"
		},
		{
			"bufferView":3,
			"componentType":5123,
			"count":5292,
			"type":"SCALAR"
		}
	],
	"bufferViews":[
		{
			"buffer":0,
			"byteLength":19680,
			"byteOffset":0,
			"target":34962
		},
		{
			"buffer":0,
			"byteLength":19680,
			"byteOffset":19680,
			"target":34962
		},
		{
			"buffer":0,
			"byteLength":13120,
			"byteOffset":39360,
			"target":34962
		},
		{
			"buffer":0,
			"byteLength":10584,
			"byteOffset":52480,
			"target":34963
		}
	],
	"samplers":[
		{
			"magFilter":9729,
			"minFilter":9987
		}
	],
	"buffers":[
		{
			"byteLength":63064,
			"uri":"Roof_Spikes5.bin"
		}
	]
}
