{
	"asset":{
		"generator":"Khronos glTF Blender I/O v4.0.44",
		"version":"2.0"
	},
	"scene":0,
	"scenes":[
		{
			"name":"Scene",
			"nodes":[
				0
			]
		}
	],
	"nodes":[
		{
			"mesh":0,
			"name":"Roof_FlatTiles_8x12"
		}
	],
	"materials":[
		{
			"doubleSided":true,
			"name":"MI_WoodTrim",
			"normalTexture":{
				"index":0
			},
			"pbrMetallicRoughness":{
				"baseColorTexture":{
					"index":1
				},
				"metallicFactor":0,
				"metallicRoughnessTexture":{
					"index":2
				}
			}
		},
		{
			"doubleSided":true,
			"name":"MI_FlatTiles",
			"normalTexture":{
				"index":3
			},
			"pbrMetallicRoughness":{
				"baseColorTexture":{
					"index":4
				},
				"metallicFactor":0,
				"metallicRoughnessTexture":{
					"index":5
				}
			}
		},
		{
			"doubleSided":true,
			"name":"MI_RoundTiles",
			"normalTexture":{
				"index":6
			},
			"pbrMetallicRoughness":{
				"baseColorTexture":{
					"index":7
				},
				"metallicFactor":0,
				"metallicRoughnessTexture":{
					"index":8
				}
			}
		}
	],
	"meshes":[
		{
			"name":"Cube.104",
			"primitives":[
				{
					"attributes":{
						"POSITION":0,
						"NORMAL":1,
						"TEXCOORD_0":2,
						"TEXCOORD_1":3
					},
					"indices":4,
					"material":0
				},
				{
					"attributes":{
						"POSITION":5,
						"NORMAL":6,
						"TEXCOORD_0":7,
						"TEXCOORD_1":8
					},
					"indices":9,
					"material":1
				},
				{
					"attributes":{
						"POSITION":10,
						"NORMAL":11,
						"TEXCOORD_0":12,
						"TEXCOORD_1":13
					},
					"indices":14,
					"material":2
				}
			]
		}
	],
	"textures":[
		{
			"sampler":0,
			"source":0
		},
		{
			"sampler":0,
			"source":1
		},
		{
			"sampler":0,
			"source":2
		},
		{
			"sampler":0,
			"source":3
		},
		{
			"sampler":0,
			"source":4
		},
		{
			"sampler":0,
			"source":5
		},
		{
			"sampler":0,
			"source":6
		},
		{
			"sampler":0,
			"source":7
		},
		{
			"sampler":0,
			"source":8
		}
	],
	"images":[
		{
			"mimeType":"image/png",
			"name":"T_WoodTrim_Normal",
			"uri":"T_WoodTrim_Normal.png"
		},
		{
			"mimeType":"image/png",
			"name":"T_WoodTrim_BaseColor",
			"uri":"T_WoodTrim_BaseColor.png"
		},
		{
			"mimeType":"image/png",
			"name":"T_WoodTrim_Roughness",
			"uri":"T_WoodTrim_Roughness.png"
		},
		{
			"mimeType":"image/png",
			"name":"T_FlatTiles_Normal",
			"uri":"T_FlatTiles_Normal.png"
		},
		{
			"mimeType":"image/png",
			"name":"T_FlatTiles_BaseColor",
			"uri":"T_FlatTiles_BaseColor.png"
		},
		{
			"mimeType":"image/png",
			"name":"T_FlatTiles_Roughness",
			"uri":"T_FlatTiles_Roughness.png"
		},
		{
			"mimeType":"image/png",
			"name":"T_RoundTiles_Normal",
			"uri":"T_RoundTiles_Normal.png"
		},
		{
			"mimeType":"image/png",
			"name":"T_RoundTiles_BaseColor",
			"uri":"T_RoundTiles_BaseColor.png"
		},
		{
			"mimeType":"image/png",
			"name":"T_RoundTiles_Roughness",
			"uri":"T_RoundTiles_Roughness.png"
		}
	],
	"accessors":[
		{
			"bufferView":0,
			"componentType":5126,
			"count":1632,
			"max":[
				4.9567179679870605,
				5.600559711456299,
				6.9715046882629395
			],
			"min":[
				-4.9567179679870605,
				-0.7799561023712158,
				-6.918720722198486
			],
			"type":"VEC3"
		},
		{
			"bufferView":1,
			"componentType":5126,
			"count":1632,
			"type":"VEC3"
		},
		{
			"bufferView":2,
			"componentType":5126,
			"count":1632,
			"type":"VEC2"
		},
		{
			"bufferView":3,
			"componentType":5126,
			"count":1632,
			"type":"VEC2"
		},
		{
			"bufferView":4,
			"componentType":5123,
			"count":2712,
			"type":"SCALAR"
		},
		{
			"bufferView":5,
			"componentType":5126,
			"count":1534,
			"max":[
				5.488919258117676,
				5.81857967376709,
				6.871072292327881
			],
			"min":[
				-5.488919258117676,
				-0.9922786951065063,
				-6.856925964355469
			],
			"type":"VEC3"
		},
		{
			"bufferView":6,
			"componentType":5126,
			"count":1534,
			"type":"VEC3"
		},
		{
			"bufferView":7,
			"componentType":5126,
			"count":1534,
			"type":"VEC2"
		},
		{
			"bufferView":8,
			"componentType":5126,
			"count":1534,
			"type":"VEC2"
		},
		{
			"bufferView":9,
			"componentType":5123,
			"count":4884,
			"type":"SCALAR"
		},
		{
			"bufferView":10,
			"componentType":5126,
			"count":2880,
			"max":[
				0.33246704936027527,
				6.001367092132568,
				7.015058994293213
			],
			"min":[
				-0.33246704936027527,
				5.495884418487549,
				-7.117127895355225
			],
			"type":"VEC3"
		},
		{
			"bufferView":11,
			"componentType":5126,
			"count":2880,
			"type":"VEC3"
		},
		{
			"bufferView":12,
			"componentType":5126,
			"count":2880,
			"type":"VEC2"
		},
		{
			"bufferView":13,
			"componentType":5126,
			"count":2880,
			"type":"VEC2"
		},
		{
			"bufferView":14,
			"componentType":5123,
			"count":7344,
			"type":"SCALAR"
		}
	],
	"bufferViews":[
		{
			"buffer":0,
			"byteLength":19584,
			"byteOffset":0,
			"target":34962
		},
		{
			"buffer":0,
			"byteLength":19584,
			"byteOffset":19584,
			"target":34962
		},
		{
			"buffer":0,
			"byteLength":13056,
			"byteOffset":39168,
			"target":34962
		},
		{
			"buffer":0,
			"byteLength":13056,
			"byteOffset":52224,
			"target":34962
		},
		{
			"buffer":0,
			"byteLength":5424,
			"byteOffset":65280,
			"target":34963
		},
		{
			"buffer":0,
			"byteLength":18408,
			"byteOffset":70704,
			"target":34962
		},
		{
			"buffer":0,
			"byteLength":18408,
			"byteOffset":89112,
			"target":34962
		},
		{
			"buffer":0,
			"byteLength":12272,
			"byteOffset":107520,
			"target":34962
		},
		{
			"buffer":0,
			"byteLength":12272,
			"byteOffset":119792,
			"target":34962
		},
		{
			"buffer":0,
			"byteLength":9768,
			"byteOffset":132064,
			"target":34963
		},
		{
			"buffer":0,
			"byteLength":34560,
			"byteOffset":141832,
			"target":34962
		},
		{
			"buffer":0,
			"byteLength":34560,
			"byteOffset":176392,
			"target":34962
		},
		{
			"buffer":0,
			"byteLength":23040,
			"byteOffset":210952,
			"target":34962
		},
		{
			"buffer":0,
			"byteLength":23040,
			"byteOffset":233992,
			"target":34962
		},
		{
			"buffer":0,
			"byteLength":14688,
			"byteOffset":257032,
			"target":34963
		}
	],
	"samplers":[
		{
			"magFilter":9729,
			"minFilter":9987
		}
	],
	"buffers":[
		{
			"byteLength":271720,
			"uri":"Roof_FlatTiles_8x12.bin"
		}
	]
}
