{
	"asset":{
		"generator":"Khronos glTF Blender I/O v4.0.44",
		"version":"2.0"
	},
	"scene":0,
	"scenes":[
		{
			"name":"Scene",
			"nodes":[
				0
			]
		}
	],
	"nodes":[
		{
			"mesh":0,
			"name":"Roof_FlatTiles_8x8"
		}
	],
	"materials":[
		{
			"doubleSided":true,
			"name":"MI_WoodTrim",
			"normalTexture":{
				"index":0
			},
			"pbrMetallicRoughness":{
				"baseColorTexture":{
					"index":1
				},
				"metallicFactor":0,
				"metallicRoughnessTexture":{
					"index":2
				}
			}
		},
		{
			"doubleSided":true,
			"name":"MI_FlatTiles",
			"normalTexture":{
				"index":3
			},
			"pbrMetallicRoughness":{
				"baseColorTexture":{
					"index":4
				},
				"metallicFactor":0,
				"metallicRoughnessTexture":{
					"index":5
				}
			}
		},
		{
			"doubleSided":true,
			"name":"MI_RoundTiles",
			"normalTexture":{
				"index":6
			},
			"pbrMetallicRoughness":{
				"baseColorTexture":{
					"index":7
				},
				"metallicFactor":0,
				"metallicRoughnessTexture":{
					"index":8
				}
			}
		}
	],
	"meshes":[
		{
			"name":"Cube.115",
			"primitives":[
				{
					"attributes":{
						"POSITION":0,
						"NORMAL":1,
						"TEXCOORD_0":2,
						"TEXCOORD_1":3
					},
					"indices":4,
					"material":0
				},
				{
					"attributes":{
						"POSITION":5,
						"NORMAL":6,
						"TEXCOORD_0":7,
						"TEXCOORD_1":8
					},
					"indices":9,
					"material":1
				},
				{
					"attributes":{
						"POSITION":10,
						"NORMAL":11,
						"TEXCOORD_0":12,
						"TEXCOORD_1":13
					},
					"indices":14,
					"material":2
				}
			]
		}
	],
	"textures":[
		{
			"sampler":0,
			"source":0
		},
		{
			"sampler":0,
			"source":1
		},
		{
			"sampler":0,
			"source":2
		},
		{
			"sampler":0,
			"source":3
		},
		{
			"sampler":0,
			"source":4
		},
		{
			"sampler":0,
			"source":5
		},
		{
			"sampler":0,
			"source":6
		},
		{
			"sampler":0,
			"source":7
		},
		{
			"sampler":0,
			"source":8
		}
	],
	"images":[
		{
			"mimeType":"image/png",
			"name":"T_WoodTrim_Normal",
			"uri":"T_WoodTrim_Normal.png"
		},
		{
			"mimeType":"image/png",
			"name":"T_WoodTrim_BaseColor",
			"uri":"T_WoodTrim_BaseColor.png"
		},
		{
			"mimeType":"image/png",
			"name":"T_WoodTrim_Roughness",
			"uri":"T_WoodTrim_Roughness.png"
		},
		{
			"mimeType":"image/png",
			"name":"T_FlatTiles_Normal",
			"uri":"T_FlatTiles_Normal.png"
		},
		{
			"mimeType":"image/png",
			"name":"T_FlatTiles_BaseColor",
			"uri":"T_FlatTiles_BaseColor.png"
		},
		{
			"mimeType":"image/png",
			"name":"T_FlatTiles_Roughness",
			"uri":"T_FlatTiles_Roughness.png"
		},
		{
			"mimeType":"image/png",
			"name":"T_RoundTiles_Normal",
			"uri":"T_RoundTiles_Normal.png"
		},
		{
			"mimeType":"image/png",
			"name":"T_RoundTiles_BaseColor",
			"uri":"T_RoundTiles_BaseColor.png"
		},
		{
			"mimeType":"image/png",
			"name":"T_RoundTiles_Roughness",
			"uri":"T_RoundTiles_Roughness.png"
		}
	],
	"accessors":[
		{
			"bufferView":0,
			"componentType":5126,
			"count":1604,
			"max":[
				4.9567179679870605,
				5.600559711456299,
				4.856163024902344
			],
			"min":[
				-4.9567179679870605,
				-0.7799561023712158,
				-4.856163024902344
			],
			"type":"VEC3"
		},
		{
			"bufferView":1,
			"componentType":5126,
			"count":1604,
			"type":"VEC3"
		},
		{
			"bufferView":2,
			"componentType":5126,
			"count":1604,
			"type":"VEC2"
		},
		{
			"bufferView":3,
			"componentType":5126,
			"count":1604,
			"type":"VEC2"
		},
		{
			"bufferView":4,
			"componentType":5123,
			"count":2688,
			"type":"SCALAR"
		},
		{
			"bufferView":5,
			"componentType":5126,
			"count":1141,
			"max":[
				5.354668617248535,
				5.8703694343566895,
				4.776254653930664
			],
			"min":[
				-5.354668617248535,
				-0.8632824420928955,
				-4.793331146240234
			],
			"type":"VEC3"
		},
		{
			"bufferView":6,
			"componentType":5126,
			"count":1141,
			"type":"VEC3"
		},
		{
			"bufferView":7,
			"componentType":5126,
			"count":1141,
			"type":"VEC2"
		},
		{
			"bufferView":8,
			"componentType":5126,
			"count":1141,
			"type":"VEC2"
		},
		{
			"bufferView":9,
			"componentType":5123,
			"count":3888,
			"type":"SCALAR"
		},
		{
			"bufferView":10,
			"componentType":5126,
			"count":1040,
			"max":[
				0.3307531774044037,
				6.001367092132568,
				5.247446537017822
			],
			"min":[
				-0.33246704936027527,
				5.495884418487549,
				-5.08474063873291
			],
			"type":"VEC3"
		},
		{
			"bufferView":11,
			"componentType":5126,
			"count":1040,
			"type":"VEC3"
		},
		{
			"bufferView":12,
			"componentType":5126,
			"count":1040,
			"type":"VEC2"
		},
		{
			"bufferView":13,
			"componentType":5126,
			"count":1040,
			"type":"VEC2"
		},
		{
			"bufferView":14,
			"componentType":5123,
			"count":2652,
			"type":"SCALAR"
		}
	],
	"bufferViews":[
		{
			"buffer":0,
			"byteLength":19248,
			"byteOffset":0,
			"target":34962
		},
		{
			"buffer":0,
			"byteLength":19248,
			"byteOffset":19248,
			"target":34962
		},
		{
			"buffer":0,
			"byteLength":12832,
			"byteOffset":38496,
			"target":34962
		},
		{
			"buffer":0,
			"byteLength":12832,
			"byteOffset":51328,
			"target":34962
		},
		{
			"buffer":0,
			"byteLength":5376,
			"byteOffset":64160,
			"target":34963
		},
		{
			"buffer":0,
			"byteLength":13692,
			"byteOffset":69536,
			"target":34962
		},
		{
			"buffer":0,
			"byteLength":13692,
			"byteOffset":83228,
			"target":34962
		},
		{
			"buffer":0,
			"byteLength":9128,
			"byteOffset":96920,
			"target":34962
		},
		{
			"buffer":0,
			"byteLength":9128,
			"byteOffset":106048,
			"target":34962
		},
		{
			"buffer":0,
			"byteLength":7776,
			"byteOffset":115176,
			"target":34963
		},
		{
			"buffer":0,
			"byteLength":12480,
			"byteOffset":122952,
			"target":34962
		},
		{
			"buffer":0,
			"byteLength":12480,
			"byteOffset":135432,
			"target":34962
		},
		{
			"buffer":0,
			"byteLength":8320,
			"byteOffset":147912,
			"target":34962
		},
		{
			"buffer":0,
			"byteLength":8320,
			"byteOffset":156232,
			"target":34962
		},
		{
			"buffer":0,
			"byteLength":5304,
			"byteOffset":164552,
			"target":34963
		}
	],
	"samplers":[
		{
			"magFilter":9729,
			"minFilter":9987
		}
	],
	"buffers":[
		{
			"byteLength":169856,
			"uri":"Roof_FlatTiles_8x8.bin"
		}
	]
}
