{
	"asset":{
		"generator":"Khronos glTF Blender I/O v4.0.44",
		"version":"2.0"
	},
	"scene":0,
	"scenes":[
		{
			"name":"Scene",
			"nodes":[
				0
			]
		}
	],
	"nodes":[
		{
			"mesh":0,
			"name":"Roof_Dormer_FlatTile"
		}
	],
	"materials":[
		{
			"doubleSided":true,
			"name":"MI_WoodTrim",
			"normalTexture":{
				"index":0
			},
			"pbrMetallicRoughness":{
				"baseColorTexture":{
					"index":1
				},
				"metallicFactor":0,
				"metallicRoughnessTexture":{
					"index":2
				}
			}
		},
		{
			"doubleSided":true,
			"name":"MI_Plaster",
			"normalTexture":{
				"index":3
			},
			"pbrMetallicRoughness":{
				"baseColorTexture":{
					"index":4
				},
				"metallicRoughnessTexture":{
					"index":5
				}
			}
		},
		{
			"doubleSided":true,
			"name":"MI_FlatTiles",
			"normalTexture":{
				"index":6
			},
			"pbrMetallicRoughness":{
				"baseColorTexture":{
					"index":7
				},
				"metallicFactor":0,
				"metallicRoughnessTexture":{
					"index":8
				}
			}
		},
		{
			"alphaMode":"BLEND",
			"doubleSided":true,
			"name":"MI_WindowGlass",
			"pbrMetallicRoughness":{
				"baseColorFactor":[
					0.800000011920929,
					0.800000011920929,
					0.800000011920929,
					0.09545451402664185
				],
				"metallicFactor":0,
				"roughnessFactor":0.5
			}
		}
	],
	"meshes":[
		{
			"name":"Cube.168",
			"primitives":[
				{
					"attributes":{
						"POSITION":0,
						"NORMAL":1,
						"TEXCOORD_0":2,
						"TEXCOORD_1":3
					},
					"indices":4,
					"material":0
				},
				{
					"attributes":{
						"POSITION":5,
						"NORMAL":6,
						"TEXCOORD_0":7,
						"TEXCOORD_1":8
					},
					"indices":9,
					"material":1
				},
				{
					"attributes":{
						"POSITION":10,
						"NORMAL":11,
						"TEXCOORD_0":12,
						"TEXCOORD_1":13
					},
					"indices":14,
					"material":2
				},
				{
					"attributes":{
						"POSITION":15,
						"NORMAL":16,
						"TEXCOORD_0":17,
						"TEXCOORD_1":18
					},
					"indices":19,
					"material":3
				}
			]
		}
	],
	"textures":[
		{
			"sampler":0,
			"source":0
		},
		{
			"sampler":0,
			"source":1
		},
		{
			"sampler":0,
			"source":2
		},
		{
			"sampler":0,
			"source":3
		},
		{
			"sampler":0,
			"source":4
		},
		{
			"sampler":0,
			"source":5
		},
		{
			"sampler":0,
			"source":6
		},
		{
			"sampler":0,
			"source":7
		},
		{
			"sampler":0,
			"source":8
		}
	],
	"images":[
		{
			"mimeType":"image/png",
			"name":"T_WoodTrim_Normal",
			"uri":"T_WoodTrim_Normal.png"
		},
		{
			"mimeType":"image/png",
			"name":"T_WoodTrim_BaseColor",
			"uri":"T_WoodTrim_BaseColor.png"
		},
		{
			"mimeType":"image/png",
			"name":"T_WoodTrim_Roughness",
			"uri":"T_WoodTrim_Roughness.png"
		},
		{
			"mimeType":"image/png",
			"name":"T_Plaster_Normal",
			"uri":"T_Plaster_Normal.png"
		},
		{
			"mimeType":"image/png",
			"name":"T_Plaster_BaseColor",
			"uri":"T_Plaster_BaseColor.png"
		},
		{
			"mimeType":"image/png",
			"name":"T_Plaster_ORM",
			"uri":"T_Plaster_ORM.png"
		},
		{
			"mimeType":"image/png",
			"name":"T_FlatTiles_Normal",
			"uri":"T_FlatTiles_Normal.png"
		},
		{
			"mimeType":"image/png",
			"name":"T_FlatTiles_BaseColor",
			"uri":"T_FlatTiles_BaseColor.png"
		},
		{
			"mimeType":"image/png",
			"name":"T_FlatTiles_Roughness",
			"uri":"T_FlatTiles_Roughness.png"
		}
	],
	"accessors":[
		{
			"bufferView":0,
			"componentType":5126,
			"count":608,
			"max":[
				1.8913874626159668,
				1.848653793334961,
				0.8708664178848267
			],
			"min":[
				0.37738314270973206,
				0.01067015528678894,
				-0.8569028377532959
			],
			"type":"VEC3"
		},
		{
			"bufferView":1,
			"componentType":5126,
			"count":608,
			"type":"VEC3"
		},
		{
			"bufferView":2,
			"componentType":5126,
			"count":608,
			"type":"VEC2"
		},
		{
			"bufferView":3,
			"componentType":5126,
			"count":608,
			"type":"VEC2"
		},
		{
			"bufferView":4,
			"componentType":5123,
			"count":996,
			"type":"SCALAR"
		},
		{
			"bufferView":5,
			"componentType":5126,
			"count":88,
			"max":[
				1.7800445556640625,
				1.8569061756134033,
				0.7230108380317688
			],
			"min":[
				0.34622669219970703,
				0.05461740493774414,
				-0.7205518484115601
			],
			"type":"VEC3"
		},
		{
			"bufferView":6,
			"componentType":5126,
			"count":88,
			"type":"VEC3"
		},
		{
			"bufferView":7,
			"componentType":5126,
			"count":88,
			"type":"VEC2"
		},
		{
			"bufferView":8,
			"componentType":5126,
			"count":88,
			"type":"VEC2"
		},
		{
			"bufferView":9,
			"componentType":5123,
			"count":240,
			"type":"SCALAR"
		},
		{
			"bufferView":10,
			"componentType":5126,
			"count":84,
			"max":[
				2.1375699043273926,
				1.9108400344848633,
				1.030438780784607
			],
			"min":[
				0.04211324453353882,
				0.937466025352478,
				-1.0224263668060303
			],
			"type":"VEC3"
		},
		{
			"bufferView":11,
			"componentType":5126,
			"count":84,
			"type":"VEC3"
		},
		{
			"bufferView":12,
			"componentType":5126,
			"count":84,
			"type":"VEC2"
		},
		{
			"bufferView":13,
			"componentType":5126,
			"count":84,
			"type":"VEC2"
		},
		{
			"bufferView":14,
			"componentType":5123,
			"count":204,
			"type":"SCALAR"
		},
		{
			"bufferView":15,
			"componentType":5126,
			"count":148,
			"max":[
				1.7838306427001953,
				1.017635464668274,
				0.4391106963157654
			],
			"min":[
				1.7838304042816162,
				0.22999072074890137,
				-0.43071889877319336
			],
			"type":"VEC3"
		},
		{
			"bufferView":16,
			"componentType":5126,
			"count":148,
			"type":"VEC3"
		},
		{
			"bufferView":17,
			"componentType":5126,
			"count":148,
			"type":"VEC2"
		},
		{
			"bufferView":18,
			"componentType":5126,
			"count":148,
			"type":"VEC2"
		},
		{
			"bufferView":19,
			"componentType":5123,
			"count":222,
			"type":"SCALAR"
		}
	],
	"bufferViews":[
		{
			"buffer":0,
			"byteLength":7296,
			"byteOffset":0,
			"target":34962
		},
		{
			"buffer":0,
			"byteLength":7296,
			"byteOffset":7296,
			"target":34962
		},
		{
			"buffer":0,
			"byteLength":4864,
			"byteOffset":14592,
			"target":34962
		},
		{
			"buffer":0,
			"byteLength":4864,
			"byteOffset":19456,
			"target":34962
		},
		{
			"buffer":0,
			"byteLength":1992,
			"byteOffset":24320,
			"target":34963
		},
		{
			"buffer":0,
			"byteLength":1056,
			"byteOffset":26312,
			"target":34962
		},
		{
			"buffer":0,
			"byteLength":1056,
			"byteOffset":27368,
			"target":34962
		},
		{
			"buffer":0,
			"byteLength":704,
			"byteOffset":28424,
			"target":34962
		},
		{
			"buffer":0,
			"byteLength":704,
			"byteOffset":29128,
			"target":34962
		},
		{
			"buffer":0,
			"byteLength":480,
			"byteOffset":29832,
			"target":34963
		},
		{
			"buffer":0,
			"byteLength":1008,
			"byteOffset":30312,
			"target":34962
		},
		{
			"buffer":0,
			"byteLength":1008,
			"byteOffset":31320,
			"target":34962
		},
		{
			"buffer":0,
			"byteLength":672,
			"byteOffset":32328,
			"target":34962
		},
		{
			"buffer":0,
			"byteLength":672,
			"byteOffset":33000,
			"target":34962
		},
		{
			"buffer":0,
			"byteLength":408,
			"byteOffset":33672,
			"target":34963
		},
		{
			"buffer":0,
			"byteLength":1776,
			"byteOffset":34080,
			"target":34962
		},
		{
			"buffer":0,
			"byteLength":1776,
			"byteOffset":35856,
			"target":34962
		},
		{
			"buffer":0,
			"byteLength":1184,
			"byteOffset":37632,
			"target":34962
		},
		{
			"buffer":0,
			"byteLength":1184,
			"byteOffset":38816,
			"target":34962
		},
		{
			"buffer":0,
			"byteLength":444,
			"byteOffset":40000,
			"target":34963
		}
	],
	"samplers":[
		{
			"magFilter":9729,
			"minFilter":9987
		}
	],
	"buffers":[
		{
			"byteLength":40444,
			"uri":"Roof_Dormer_FlatTile.bin"
		}
	]
}
