{
	"asset":{
		"generator":"Khronos glTF Blender I/O v4.0.44",
		"version":"2.0"
	},
	"scene":0,
	"scenes":[
		{
			"name":"Scene",
			"nodes":[
				0
			]
		}
	],
	"nodes":[
		{
			"mesh":0,
			"name":"Stair_Interior_SolidCorner"
		}
	],
	"materials":[
		{
			"doubleSided":true,
			"name":"MI_WoodTrim",
			"normalTexture":{
				"index":0
			},
			"pbrMetallicRoughness":{
				"baseColorTexture":{
					"index":1
				},
				"metallicFactor":0,
				"metallicRoughnessTexture":{
					"index":2
				}
			}
		}
	],
	"meshes":[
		{
			"name":"Cube.083",
			"primitives":[
				{
					"attributes":{
						"POSITION":0,
						"NORMAL":1,
						"TEXCOORD_0":2,
						"TEXCOORD_1":3
					},
					"indices":4,
					"material":0
				}
			]
		}
	],
	"textures":[
		{
			"sampler":0,
			"source":0
		},
		{
			"sampler":0,
			"source":1
		},
		{
			"sampler":0,
			"source":2
		}
	],
	"images":[
		{
			"mimeType":"image/png",
			"name":"T_WoodTrim_Normal",
			"uri":"T_WoodTrim_Normal.png"
		},
		{
			"mimeType":"image/png",
			"name":"T_WoodTrim_BaseColor",
			"uri":"T_WoodTrim_BaseColor.png"
		},
		{
			"mimeType":"image/png",
			"name":"T_WoodTrim_Roughness",
			"uri":"T_WoodTrim_Roughness.png"
		}
	],
	"accessors":[
		{
			"bufferView":0,
			"componentType":5126,
			"count":922,
			"max":[
				4.987251281738281,
				3.0278210639953613,
				0.35783982276916504
			],
			"min":[
				-0.8845078945159912,
				-0.018151553347706795,
				-3.8761343955993652
			],
			"type":"VEC3"
		},
		{
			"bufferView":1,
			"componentType":5126,
			"count":922,
			"type":"VEC3"
		},
		{
			"bufferView":2,
			"componentType":5126,
			"count":922,
			"type":"VEC2"
		},
		{
			"bufferView":3,
			"componentType":5126,
			"count":922,
			"type":"VEC2"
		},
		{
			"bufferView":4,
			"componentType":5123,
			"count":1479,
			"type":"SCALAR"
		}
	],
	"bufferViews":[
		{
			"buffer":0,
			"byteLength":11064,
			"byteOffset":0,
			"target":34962
		},
		{
			"buffer":0,
			"byteLength":11064,
			"byteOffset":11064,
			"target":34962
		},
		{
			"buffer":0,
			"byteLength":7376,
			"byteOffset":22128,
			"target":34962
		},
		{
			"buffer":0,
			"byteLength":7376,
			"byteOffset":29504,
			"target":34962
		},
		{
			"buffer":0,
			"byteLength":2958,
			"byteOffset":36880,
			"target":34963
		}
	],
	"samplers":[
		{
			"magFilter":9729,
			"minFilter":9987
		}
	],
	"buffers":[
		{
			"byteLength":39840,
			"uri":"Stair_Interior_SolidCorner.bin"
		}
	]
}
