{
	"asset":{
		"generator":"Khronos glTF Blender I/O v4.0.44",
		"version":"2.0"
	},
	"scene":0,
	"scenes":[
		{
			"name":"Scene",
			"nodes":[
				0
			]
		}
	],
	"nodes":[
		{
			"mesh":0,
			"name":"Window_Thin_Round3"
		}
	],
	"materials":[
		{
			"doubleSided":true,
			"name":"MI_WoodTrim_Wear",
			"normalTexture":{
				"index":0
			},
			"pbrMetallicRoughness":{
				"baseColorTexture":{
					"index":1
				},
				"metallicFactor":0,
				"metallicRoughnessTexture":{
					"index":2
				}
			}
		},
		{
			"alphaMode":"BLEND",
			"doubleSided":true,
			"name":"MI_WindowGlass",
			"pbrMetallicRoughness":{
				"baseColorFactor":[
					0.800000011920929,
					0.800000011920929,
					0.800000011920929,
					0.09545451402664185
				],
				"metallicFactor":0,
				"roughnessFactor":0.5
			}
		}
	],
	"meshes":[
		{
			"name":"Cube.018",
			"primitives":[
				{
					"attributes":{
						"POSITION":0,
						"NORMAL":1,
						"TEXCOORD_0":2,
						"TEXCOORD_1":3
					},
					"indices":4,
					"material":0
				},
				{
					"attributes":{
						"POSITION":5,
						"NORMAL":6,
						"TEXCOORD_0":7,
						"TEXCOORD_1":8
					},
					"indices":9,
					"material":1
				}
			]
		}
	],
	"textures":[
		{
			"sampler":0,
			"source":0
		},
		{
			"sampler":0,
			"source":1
		},
		{
			"sampler":0,
			"source":2
		}
	],
	"images":[
		{
			"mimeType":"image/png",
			"name":"T_WoodTrim_Normal",
			"uri":"T_WoodTrim_Normal.png"
		},
		{
			"mimeType":"image/png",
			"name":"T_WoodTrim_BaseColor",
			"uri":"T_WoodTrim_BaseColor.png"
		},
		{
			"mimeType":"image/png",
			"name":"T_WoodTrim_Roughness",
			"uri":"T_WoodTrim_Roughness.png"
		}
	],
	"accessors":[
		{
			"bufferView":0,
			"componentType":5126,
			"count":658,
			"max":[
				0.44560837745666504,
				2.5875401496887207,
				0.1691620796918869
			],
			"min":[
				-0.4374321401119232,
				0.9818627834320068,
				-0.24436704814434052
			],
			"type":"VEC3"
		},
		{
			"bufferView":1,
			"componentType":5126,
			"count":658,
			"type":"VEC3"
		},
		{
			"bufferView":2,
			"componentType":5126,
			"count":658,
			"type":"VEC2"
		},
		{
			"bufferView":3,
			"componentType":5126,
			"count":658,
			"type":"VEC2"
		},
		{
			"bufferView":4,
			"componentType":5123,
			"count":1356,
			"type":"SCALAR"
		},
		{
			"bufferView":5,
			"componentType":5126,
			"count":138,
			"max":[
				0.277061402797699,
				2.407123565673828,
				0.003888234496116638
			],
			"min":[
				-0.27706146240234375,
				1.1722246408462524,
				0.0038879886269569397
			],
			"type":"VEC3"
		},
		{
			"bufferView":6,
			"componentType":5126,
			"count":138,
			"type":"VEC3"
		},
		{
			"bufferView":7,
			"componentType":5126,
			"count":138,
			"type":"VEC2"
		},
		{
			"bufferView":8,
			"componentType":5126,
			"count":138,
			"type":"VEC2"
		},
		{
			"bufferView":9,
			"componentType":5123,
			"count":348,
			"type":"SCALAR"
		}
	],
	"bufferViews":[
		{
			"buffer":0,
			"byteLength":7896,
			"byteOffset":0,
			"target":34962
		},
		{
			"buffer":0,
			"byteLength":7896,
			"byteOffset":7896,
			"target":34962
		},
		{
			"buffer":0,
			"byteLength":5264,
			"byteOffset":15792,
			"target":34962
		},
		{
			"buffer":0,
			"byteLength":5264,
			"byteOffset":21056,
			"target":34962
		},
		{
			"buffer":0,
			"byteLength":2712,
			"byteOffset":26320,
			"target":34963
		},
		{
			"buffer":0,
			"byteLength":1656,
			"byteOffset":29032,
			"target":34962
		},
		{
			"buffer":0,
			"byteLength":1656,
			"byteOffset":30688,
			"target":34962
		},
		{
			"buffer":0,
			"byteLength":1104,
			"byteOffset":32344,
			"target":34962
		},
		{
			"buffer":0,
			"byteLength":1104,
			"byteOffset":33448,
			"target":34962
		},
		{
			"buffer":0,
			"byteLength":696,
			"byteOffset":34552,
			"target":34963
		}
	],
	"samplers":[
		{
			"magFilter":9729,
			"minFilter":9987
		}
	],
	"buffers":[
		{
			"byteLength":35248,
			"uri":"Window_Thin_Round3.bin"
		}
	]
}
