{
	"asset":{
		"generator":"Khronos glTF Blender I/O v4.0.44",
		"version":"2.0"
	},
	"scene":0,
	"scenes":[
		{
			"name":"Scene",
			"nodes":[
				0
			]
		}
	],
	"nodes":[
		{
			"mesh":0,
			"name":"Window_Wide_Round_Rocks"
		}
	],
	"materials":[
		{
			"doubleSided":true,
			"name":"MI_RockTrim",
			"normalTexture":{
				"index":0
			},
			"pbrMetallicRoughness":{
				"baseColorTexture":{
					"index":1
				},
				"metallicRoughnessTexture":{
					"index":2
				}
			}
		}
	],
	"meshes":[
		{
			"name":"Cube.017_Retopology.011",
			"primitives":[
				{
					"attributes":{
						"POSITION":0,
						"NORMAL":1,
						"TEXCOORD_0":2
					},
					"indices":3,
					"material":0
				}
			]
		}
	],
	"textures":[
		{
			"sampler":0,
			"source":0
		},
		{
			"sampler":0,
			"source":1
		},
		{
			"sampler":0,
			"source":2
		}
	],
	"images":[
		{
			"mimeType":"image/png",
			"name":"T_RockTrim_Normal",
			"uri":"T_RockTrim_Normal.png"
		},
		{
			"mimeType":"image/png",
			"name":"T_RockTrim_BaseColor",
			"uri":"T_RockTrim_BaseColor.png"
		},
		{
			"mimeType":"image/png",
			"name":"T_RockTrim_ORM",
			"uri":"T_RockTrim_ORM.png"
		}
	],
	"accessors":[
		{
			"bufferView":0,
			"componentType":5126,
			"count":1330,
			"max":[
				0.7588589787483215,
				2.8123748302459717,
				0.12276199460029602
			],
			"min":[
				-0.7548487186431885,
				0.9966626167297363,
				-0.2781311571598053
			],
			"type":"VEC3"
		},
		{
			"bufferView":1,
			"componentType":5126,
			"count":1330,
			"type":"VEC3"
		},
		{
			"bufferView":2,
			"componentType":5126,
			"count":1330,
			"type":"VEC2"
		},
		{
			"bufferView":3,
			"componentType":5123,
			"count":5094,
			"type":"SCALAR"
		}
	],
	"bufferViews":[
		{
			"buffer":0,
			"byteLength":15960,
			"byteOffset":0,
			"target":34962
		},
		{
			"buffer":0,
			"byteLength":15960,
			"byteOffset":15960,
			"target":34962
		},
		{
			"buffer":0,
			"byteLength":10640,
			"byteOffset":31920,
			"target":34962
		},
		{
			"buffer":0,
			"byteLength":10188,
			"byteOffset":42560,
			"target":34963
		}
	],
	"samplers":[
		{
			"magFilter":9729,
			"minFilter":9987
		}
	],
	"buffers":[
		{
			"byteLength":52748,
			"uri":"Window_Wide_Round_Rocks.bin"
		}
	]
}
