{
	"asset":{
		"generator":"Khronos glTF Blender I/O v4.0.44",
		"version":"2.0"
	},
	"scene":0,
	"scenes":[
		{
			"name":"Scene",
			"nodes":[
				0
			]
		}
	],
	"nodes":[
		{
			"mesh":0,
			"name":"Window_Thin_Round_Rocks"
		}
	],
	"materials":[
		{
			"doubleSided":true,
			"name":"MI_RockTrim",
			"normalTexture":{
				"index":0
			},
			"pbrMetallicRoughness":{
				"baseColorTexture":{
					"index":1
				},
				"metallicRoughnessTexture":{
					"index":2
				}
			}
		}
	],
	"meshes":[
		{
			"name":"Cube.017_Retopology.013",
			"primitives":[
				{
					"attributes":{
						"POSITION":0,
						"NORMAL":1,
						"TEXCOORD_0":2
					},
					"indices":3,
					"material":0
				}
			]
		}
	],
	"textures":[
		{
			"sampler":0,
			"source":0
		},
		{
			"sampler":0,
			"source":1
		},
		{
			"sampler":0,
			"source":2
		}
	],
	"images":[
		{
			"mimeType":"image/png",
			"name":"T_RockTrim_Normal",
			"uri":"T_RockTrim_Normal.png"
		},
		{
			"mimeType":"image/png",
			"name":"T_RockTrim_BaseColor",
			"uri":"T_RockTrim_BaseColor.png"
		},
		{
			"mimeType":"image/png",
			"name":"T_RockTrim_ORM",
			"uri":"T_RockTrim_ORM.png"
		}
	],
	"accessors":[
		{
			"bufferView":0,
			"componentType":5126,
			"count":1393,
			"max":[
				0.43095409870147705,
				2.6580591201782227,
				0.08223901689052582
			],
			"min":[
				-0.413989394903183,
				0.9781633615493774,
				-0.2657886743545532
			],
			"type":"VEC3"
		},
		{
			"bufferView":1,
			"componentType":5126,
			"count":1393,
			"type":"VEC3"
		},
		{
			"bufferView":2,
			"componentType":5126,
			"count":1393,
			"type":"VEC2"
		},
		{
			"bufferView":3,
			"componentType":5123,
			"count":5382,
			"type":"SCALAR"
		}
	],
	"bufferViews":[
		{
			"buffer":0,
			"byteLength":16716,
			"byteOffset":0,
			"target":34962
		},
		{
			"buffer":0,
			"byteLength":16716,
			"byteOffset":16716,
			"target":34962
		},
		{
			"buffer":0,
			"byteLength":11144,
			"byteOffset":33432,
			"target":34962
		},
		{
			"buffer":0,
			"byteLength":10764,
			"byteOffset":44576,
			"target":34963
		}
	],
	"samplers":[
		{
			"magFilter":9729,
			"minFilter":9987
		}
	],
	"buffers":[
		{
			"byteLength":55340,
			"uri":"Window_Thin_Round_Rocks.bin"
		}
	]
}
