{
	"asset":{
		"generator":"Khronos glTF Blender I/O v4.0.44",
		"version":"2.0"
	},
	"scene":0,
	"scenes":[
		{
			"name":"Scene",
			"nodes":[
				0
			]
		}
	],
	"nodes":[
		{
			"mesh":0,
			"name":"Window_Thin_Flat2"
		}
	],
	"materials":[
		{
			"doubleSided":true,
			"name":"MI_WoodTrim",
			"normalTexture":{
				"index":0
			},
			"pbrMetallicRoughness":{
				"baseColorTexture":{
					"index":1
				},
				"metallicFactor":0,
				"metallicRoughnessTexture":{
					"index":2
				}
			}
		},
		{
			"alphaMode":"BLEND",
			"doubleSided":true,
			"name":"MI_WindowGlass",
			"pbrMetallicRoughness":{
				"baseColorFactor":[
					0.800000011920929,
					0.800000011920929,
					0.800000011920929,
					0.09545451402664185
				],
				"metallicFactor":0,
				"roughnessFactor":0.5
			}
		}
	],
	"meshes":[
		{
			"name":"Cube.160",
			"primitives":[
				{
					"attributes":{
						"POSITION":0,
						"NORMAL":1,
						"TEXCOORD_0":2,
						"TEXCOORD_1":3
					},
					"indices":4,
					"material":0
				},
				{
					"attributes":{
						"POSITION":5,
						"NORMAL":6,
						"TEXCOORD_0":7,
						"TEXCOORD_1":8
					},
					"indices":9,
					"material":1
				}
			]
		}
	],
	"textures":[
		{
			"sampler":0,
			"source":0
		},
		{
			"sampler":0,
			"source":1
		},
		{
			"sampler":0,
			"source":2
		}
	],
	"images":[
		{
			"mimeType":"image/png",
			"name":"T_WoodTrim_Normal",
			"uri":"T_WoodTrim_Normal.png"
		},
		{
			"mimeType":"image/png",
			"name":"T_WoodTrim_BaseColor",
			"uri":"T_WoodTrim_BaseColor.png"
		},
		{
			"mimeType":"image/png",
			"name":"T_WoodTrim_Roughness",
			"uri":"T_WoodTrim_Roughness.png"
		}
	],
	"accessors":[
		{
			"bufferView":0,
			"componentType":5126,
			"count":448,
			"max":[
				0.3829127252101898,
				2.532715082168579,
				0.16916218400001526
			],
			"min":[
				-0.4050583243370056,
				0.9747479557991028,
				-0.26658084988594055
			],
			"type":"VEC3"
		},
		{
			"bufferView":1,
			"componentType":5126,
			"count":448,
			"type":"VEC3"
		},
		{
			"bufferView":2,
			"componentType":5126,
			"count":448,
			"type":"VEC2"
		},
		{
			"bufferView":3,
			"componentType":5126,
			"count":448,
			"type":"VEC2"
		},
		{
			"bufferView":4,
			"componentType":5123,
			"count":672,
			"type":"SCALAR"
		},
		{
			"bufferView":5,
			"componentType":5126,
			"count":218,
			"max":[
				0.25280359387397766,
				2.3963470458984375,
				0.010473685339093208
			],
			"min":[
				-0.26286745071411133,
				1.1379984617233276,
				0.010473486967384815
			],
			"type":"VEC3"
		},
		{
			"bufferView":6,
			"componentType":5126,
			"count":218,
			"type":"VEC3"
		},
		{
			"bufferView":7,
			"componentType":5126,
			"count":218,
			"type":"VEC2"
		},
		{
			"bufferView":8,
			"componentType":5126,
			"count":218,
			"type":"VEC2"
		},
		{
			"bufferView":9,
			"componentType":5123,
			"count":324,
			"type":"SCALAR"
		}
	],
	"bufferViews":[
		{
			"buffer":0,
			"byteLength":5376,
			"byteOffset":0,
			"target":34962
		},
		{
			"buffer":0,
			"byteLength":5376,
			"byteOffset":5376,
			"target":34962
		},
		{
			"buffer":0,
			"byteLength":3584,
			"byteOffset":10752,
			"target":34962
		},
		{
			"buffer":0,
			"byteLength":3584,
			"byteOffset":14336,
			"target":34962
		},
		{
			"buffer":0,
			"byteLength":1344,
			"byteOffset":17920,
			"target":34963
		},
		{
			"buffer":0,
			"byteLength":2616,
			"byteOffset":19264,
			"target":34962
		},
		{
			"buffer":0,
			"byteLength":2616,
			"byteOffset":21880,
			"target":34962
		},
		{
			"buffer":0,
			"byteLength":1744,
			"byteOffset":24496,
			"target":34962
		},
		{
			"buffer":0,
			"byteLength":1744,
			"byteOffset":26240,
			"target":34962
		},
		{
			"buffer":0,
			"byteLength":648,
			"byteOffset":27984,
			"target":34963
		}
	],
	"samplers":[
		{
			"magFilter":9729,
			"minFilter":9987
		}
	],
	"buffers":[
		{
			"byteLength":28632,
			"uri":"Window_Thin_Flat2.bin"
		}
	]
}
