# Blender 4.0.2
# www.blender.org
mtllib DoorFrame_Round_WoodLight.mtl
o DoorFrame_Round_WoodLight
v 0.688110 -0.008545 0.090014
v 0.688110 0.033029 0.090014
v 0.688110 -0.008545 -0.228242
v 0.688110 0.033029 -0.228242
v -0.688112 -0.008544 0.090015
v -0.688112 0.033030 0.090015
v -0.688112 -0.008544 -0.228241
v -0.688112 0.033030 -0.228241
v 0.703669 0.000000 -0.240028
v -0.703671 0.000000 -0.240028
v -0.703671 0.910062 -0.240028
v 0.703669 0.910062 -0.240028
v 0.703669 2.233203 -0.240028
v -0.703671 2.233203 -0.240028
v 0.703669 0.000000 0.105229
v -0.703671 0.000000 0.105229
v -0.703671 0.910062 0.105229
v 0.703669 0.910062 0.105229
v 0.703669 2.233203 0.105229
v -0.703671 2.233203 0.105229
v 0.559179 0.910061 -0.240028
v 0.559179 0.000000 -0.240028
v -0.559181 0.000000 -0.240028
v -0.559181 0.910061 -0.240028
v -0.559181 2.124182 -0.240028
v 0.559179 2.124182 -0.240028
v -0.428803 2.228015 -0.240028
v -0.295364 2.295707 -0.240028
v -0.150576 2.337392 -0.240028
v -0.000001 2.351467 -0.240028
v 0.150574 2.337392 -0.240028
v 0.295363 2.295707 -0.240028
v 0.428801 2.228015 -0.240028
v 0.559179 0.910061 0.105229
v 0.559179 0.000000 0.105229
v -0.559181 0.000000 0.105229
v -0.559181 0.910061 0.105229
v -0.559181 2.124182 0.105229
v 0.559179 2.124182 0.105229
v -0.428803 2.228015 0.105229
v -0.295364 2.295707 0.105229
v -0.150576 2.337392 0.105229
v -0.000001 2.351467 0.105229
v 0.150574 2.337392 0.105229
v 0.295363 2.295707 0.105229
v 0.428801 2.228015 0.105229
v -0.187614 2.534702 -0.240028
v -0.368175 2.474976 -0.240028
v -0.534526 2.377523 -0.240028
v -0.187614 2.534702 0.105229
v -0.368175 2.474976 0.105229
v -0.534526 2.377523 0.105229
v -0.000001 2.554849 -0.240028
v -0.000001 2.554849 0.105229
v 0.187613 2.534702 -0.240028
v 0.187613 2.534702 0.105229
v 0.368174 2.474976 -0.240028
v 0.368174 2.474976 0.105229
v 0.534524 2.377523 -0.240028
v 0.534524 2.377523 0.105229
v -0.362084 2.268743 -0.240028
v -0.362084 2.268743 0.105229
v -0.451351 2.433131 -0.240028
v -0.451351 2.433131 0.105229
v -0.222536 2.323556 -0.240028
v -0.222536 2.323556 0.105229
v -0.277354 2.511900 0.105229
v -0.277354 2.511900 -0.240028
v -0.075288 2.347182 -0.240028
v -0.075288 2.347182 0.105229
v -0.093807 2.547528 -0.240028
v -0.093807 2.547528 0.105229
v 0.075287 2.347182 -0.240028
v 0.075287 2.347182 0.105229
v 0.093806 2.547528 -0.240028
v 0.093806 2.547528 0.105229
v 0.222969 2.323431 -0.240028
v 0.222969 2.323431 0.105229
v 0.277893 2.511721 -0.240028
v 0.277893 2.511721 0.105229
v 0.362082 2.268743 -0.240028
v 0.362082 2.268743 0.105229
v 0.451349 2.433131 -0.240028
v 0.451349 2.433131 0.105229
v 0.493990 2.182980 -0.240028
v 0.493990 2.182980 0.105229
v 0.619097 2.312245 0.105229
v 0.619097 2.312245 -0.240028
v -0.493992 2.182980 -0.240028
v -0.493992 2.182980 0.105229
v -0.619098 2.312245 0.105229
v -0.619098 2.312245 -0.240028
v -0.703671 2.124182 0.105229
v -0.703671 2.124182 -0.240028
v 0.703669 2.124182 0.105229
v 0.703669 2.124182 -0.240028
v 0.703669 2.233203 0.113752
v -0.703671 2.233203 0.113752
v 0.703669 2.233203 0.298936
v -0.703671 2.233203 0.298936
v -0.559181 2.124182 0.113752
v 0.559179 2.124182 0.113752
v -0.428803 2.228015 0.113752
v -0.295364 2.295707 0.113752
v -0.150576 2.337392 0.113752
v -0.000001 2.351467 0.113752
v 0.150574 2.337392 0.113752
v 0.295363 2.295707 0.113752
v 0.428801 2.228015 0.113752
v -0.559181 2.124182 0.298936
v 0.559179 2.124182 0.298936
v -0.428803 2.228015 0.298936
v -0.295364 2.295707 0.298936
v -0.150576 2.337392 0.298936
v -0.000001 2.351467 0.298936
v 0.150574 2.337392 0.298936
v 0.295363 2.295707 0.298936
v 0.428801 2.228015 0.298936
v -0.187614 2.534702 0.113752
v -0.368175 2.474976 0.113752
v -0.534526 2.377523 0.113752
v -0.187614 2.534702 0.298936
v -0.368175 2.474976 0.298936
v -0.534526 2.377523 0.298936
v -0.000001 2.554849 0.113752
v -0.000001 2.554849 0.298936
v 0.187613 2.534702 0.113752
v 0.187613 2.534702 0.298936
v 0.368174 2.474976 0.113752
v 0.368174 2.474976 0.298936
v 0.534524 2.377523 0.113752
v 0.534524 2.377523 0.298936
v -0.362084 2.268743 0.113752
v -0.362084 2.268743 0.298936
v -0.451351 2.433131 0.113752
v -0.451351 2.433131 0.298936
v -0.222536 2.323556 0.113752
v -0.222536 2.323556 0.298936
v -0.277354 2.511900 0.298936
v -0.277354 2.511900 0.113752
v -0.075288 2.347182 0.113752
v -0.075288 2.347182 0.298936
v -0.093807 2.547528 0.113752
v -0.093807 2.547528 0.298936
v 0.075287 2.347182 0.113752
v 0.075287 2.347182 0.298936
v 0.093806 2.547528 0.113752
v 0.093806 2.547528 0.298936
v 0.222969 2.323431 0.113752
v 0.222969 2.323431 0.298936
v 0.277893 2.511721 0.113752
v 0.277893 2.511721 0.298936
v 0.362082 2.268743 0.113752
v 0.362082 2.268743 0.298936
v 0.451349 2.433131 0.113752
v 0.451349 2.433131 0.298936
v 0.493990 2.182980 0.113752
v 0.493990 2.182980 0.298936
v 0.619097 2.312245 0.298936
v 0.619097 2.312245 0.113752
v -0.493992 2.182980 0.113752
v -0.493992 2.182980 0.298936
v -0.619098 2.312245 0.298936
v -0.619098 2.312245 0.113752
v -0.703671 2.124182 0.298936
v -0.703671 2.124182 0.113752
v 0.703669 2.124182 0.298936
v 0.703669 2.124182 0.113752
vn 1.0000 -0.0000 -0.0000
vn -1.0000 -0.0000 -0.0000
vn -0.0000 -0.0000 -1.0000
vn -0.0000 1.0000 -0.0000
vn -0.0000 -1.0000 -0.0000
vn -0.0000 -0.0000 1.0000
vn -0.6204 -0.7843 -0.0000
vn -0.5449 -0.8385 -0.0000
vn -0.2745 -0.9616 -0.0000
vn -0.1592 -0.9872 -0.0000
vn -0.4494 -0.8933 -0.0000
vn -0.3662 -0.9305 -0.0000
vn 0.6204 -0.7843 -0.0000
vn 0.6698 -0.7426 -0.0000
vn 0.4494 -0.8933 -0.0000
vn 0.5449 -0.8385 -0.0000
vn 0.2740 -0.9617 -0.0000
vn 0.3660 -0.9306 -0.0000
vn 0.0929 -0.9957 -0.0000
vn 0.1590 -0.9873 -0.0000
vn -0.0929 -0.9957 -0.0000
vn -0.5036 0.8640 -0.0000
vn -0.4134 0.9106 -0.0000
vn -0.3122 0.9500 -0.0000
vn -0.1912 0.9816 -0.0000
vn -0.1067 0.9943 -0.0000
vn 0.5036 0.8640 -0.0000
vn 0.5837 0.8119 -0.0000
vn -0.6476 0.7619 -0.0000
vn -0.6828 0.7306 -0.0000
vn 0.3126 0.9499 -0.0000
vn 0.1914 0.9815 -0.0000
vn 0.1067 0.9943 -0.0000
vn 0.6476 0.7619 -0.0000
vn 0.6828 0.7306 -0.0000
vn -0.5837 0.8119 -0.0000
vn 0.4135 0.9105 -0.0000
vn -0.6698 -0.7426 -0.0000
vt 0.332501 0.333088
vt 0.490323 0.333088
vt 0.490323 0.373570
vt 0.332501 0.373570
vt 0.490323 0.333088
vt 0.332501 0.333088
vt 1.000000 0.967568
vt 0.000000 0.967569
vt 0.000000 0.996169
vt 1.000000 0.996169
vt 1.000000 0.867594
vt 1.000000 0.757548
vt 0.000000 0.757548
vt 0.000000 0.867594
vt 0.000000 0.867594
vt 1.000000 0.882737
vt 0.000000 0.882737
vt 0.000000 0.911338
vt 1.000000 0.911337
vt 2.120719 0.874218
vt 2.771665 0.874218
vt 2.771665 0.754462
vt 2.120719 0.754462
vt 1.208680 0.874218
vt 1.252287 0.874218
vt 1.252287 0.754463
vt 1.208680 0.754463
vt -0.811055 0.874218
vt 0.057378 0.874218
vt 0.057378 0.754463
vt -0.811055 0.754463
vt 0.895371 0.874218
vt 0.895371 0.754463
vt 0.839965 0.754463
vt 0.839965 0.874218
vt 0.147801 0.874218
vt 0.147801 0.754463
vt 0.078054 0.754463
vt 0.078054 0.874218
vt 0.272052 0.874218
vt 0.272052 0.754463
vt 0.211328 0.754463
vt 0.211328 0.874218
vt 0.387718 0.874218
vt 0.387718 0.754463
vt 0.328069 0.754463
vt 0.328069 0.874218
vt -1.462001 0.874218
vt -1.462001 0.754463
vt -0.773838 0.874218
vt -0.773838 0.754463
vt -1.424784 0.754463
vt -1.424784 0.874218
vt 0.681545 0.874218
vt 0.681545 0.754463
vt 0.630496 0.754463
vt 0.630496 0.874218
vt 0.094595 0.874218
vt 0.094595 0.754463
vt 0.785399 0.874218
vt 0.785400 0.754463
vt 0.735392 0.754463
vt 0.735392 0.874218
vt 1.825456 0.874218
vt 1.825456 0.754463
vt 0.957024 0.754463
vt 0.957024 0.874218
vt 0.156247 0.874218
vt 0.156247 0.754463
vt 0.266219 0.874218
vt 0.266219 0.754463
vt 0.211654 0.754463
vt 0.211654 0.874218
vt 0.370386 0.874218
vt 0.370386 0.754463
vt 0.316226 0.754463
vt 0.316226 0.874218
vt 0.473656 0.874218
vt 0.473655 0.754463
vt 0.421123 0.754463
vt 0.421123 0.874218
vt 2.476402 0.874218
vt 2.476402 0.754462
vt 0.577963 0.874218
vt 0.577963 0.754463
vt 0.525810 0.754463
vt 0.525809 0.874218
vt 2.037314 0.754463
vt 2.037314 0.874218
vt 2.777900 0.874218
vt 2.777900 0.754462
vt -0.790378 0.874218
vt -0.790378 0.754463
vt -1.425382 0.754463
vt -1.425382 0.874218
vt -1.849633 0.754463
vt -1.849633 0.874218
vt -1.109048 0.874218
vt -1.109048 0.754463
vt 0.036532 0.874218
vt -0.096223 0.874218
vt -0.144649 0.754463
vt 1.907422 0.874218
vt 1.907422 0.754463
vt 1.038990 0.754463
vt 1.080512 0.874218
vt 1.024488 0.754463
vt 1.024488 0.874218
vt 1.072913 0.754463
vt 0.982567 0.754463
vt 0.917728 0.754463
vt 0.917728 0.874218
vt 0.982567 0.874218
vt -0.014880 0.754463
vt -0.014880 0.874218
vt 0.059210 0.874218
vt 0.059210 0.754463
vt 0.849594 0.754463
vt 0.785429 0.754463
vt 0.785429 0.874218
vt 0.849594 0.874218
vt 0.130030 0.874218
vt 0.195361 0.874218
vt 0.195361 0.754463
vt 0.130030 0.754463
vt 0.719913 0.754463
vt 0.654832 0.754463
vt 0.654832 0.874218
vt 0.719913 0.874218
vt 0.264928 0.874218
vt 0.330290 0.874218
vt 0.330290 0.754463
vt 0.264928 0.754463
vt 0.327097 0.754463
vt 0.257166 0.754463
vt 0.257166 0.874218
vt 0.327097 0.874218
vt 0.397442 0.754463
vt 0.397442 0.874218
vt 0.464132 0.874218
vt 0.464132 0.754463
vt 1.127336 0.874218
vt 1.127336 0.754463
vt 2.542425 0.874218
vt 2.542425 0.754462
vt 0.459676 0.874218
vt 0.524235 0.874218
vt 0.524235 0.754463
vt 0.459676 0.754463
vt 0.969243 0.874218
vt 0.969243 0.754463
vt 0.905717 0.754463
vt 0.905717 0.874218
vt 0.589751 0.874218
vt 0.589751 0.754463
vt 0.182328 0.754463
vt 0.100985 0.754463
vt 0.100985 0.874218
vt 0.182328 0.874218
vt 0.530822 0.874218
vt 0.597974 0.874218
vt 0.597974 0.754463
vt 0.530822 0.754463
vt 0.501341 0.754463
vt 0.443762 0.754463
vt 0.443762 0.874218
vt 0.501341 0.874218
vt 0.663738 0.874218
vt 0.732902 0.874218
vt 0.732902 0.754463
vt 0.663738 0.754463
vt 0.615704 0.754463
vt 0.558522 0.754463
vt 0.558522 0.874218
vt 0.615704 0.874218
vt 0.729671 0.754463
vt 0.673283 0.754463
vt 0.673283 0.874218
vt 0.729671 0.874218
vt 0.798234 0.874218
vt 0.869054 0.874218
vt 0.869054 0.754463
vt 0.798234 0.754463
vt 0.844993 0.754463
vt 0.788976 0.754463
vt 0.788976 0.874218
vt 0.844993 0.874218
vt 0.943144 0.874218
vt 0.943144 0.754463
vt 1.052499 0.754463
vt 1.052499 0.874218
vt 0.391937 0.874218
vt 0.391937 0.754463
vt 1.038990 0.874218
vt -0.096223 0.754463
vt 1.208680 0.998241
vt 1.252287 0.998241
vt 1.252287 0.878486
vt 1.208680 0.878486
vt 0.876760 0.999553
vt 0.876760 0.877400
vt 0.824605 0.877400
vt 0.824605 0.999553
vt 0.675481 0.999553
vt 0.675481 0.877400
vt 0.627428 0.877400
vt 0.627428 0.999553
vt 0.773241 0.999553
vt 0.773241 0.877400
vt 0.726169 0.877400
vt 0.726169 0.999553
vt 0.181010 0.999553
vt 0.181010 0.877400
vt 0.122976 0.877400
vt 0.122976 0.999553
vt 0.284529 0.999553
vt 0.284529 0.877400
vt 0.233165 0.877400
vt 0.233165 0.999553
vt 0.382582 0.999553
vt 0.382582 0.877400
vt 0.331601 0.877400
vt 0.331601 0.999553
vt 0.479792 0.999553
vt 0.479792 0.877400
vt 0.430342 0.877400
vt 0.430342 0.999553
vt 0.577978 0.999553
vt 0.577978 0.877400
vt 0.528885 0.877400
vt 0.528885 0.999553
vt 0.982567 0.878486
vt 0.917728 0.878486
vt 0.917728 0.998241
vt 0.982567 0.998241
vt 0.849594 0.878486
vt 0.785429 0.878486
vt 0.785429 0.998241
vt 0.849594 0.998241
vt 0.719913 0.878486
vt 0.654832 0.878486
vt 0.654832 0.998241
vt 0.719913 0.998241
vt 0.327097 0.878486
vt 0.257166 0.878486
vt 0.257166 0.998241
vt 0.327097 0.998241
vt 1.127336 0.998241
vt 1.127336 0.878486
vt 0.459676 0.998241
vt 0.524235 0.998241
vt 0.524235 0.878486
vt 0.459676 0.878486
vt 0.589751 0.998241
vt 0.589751 0.878486
vt 0.182328 0.878486
vt 0.100985 0.878486
vt 0.100985 0.998241
vt 0.182328 0.998241
vt 1.052499 0.878486
vt 1.052499 0.998241
vt 0.391937 0.998241
vt 0.391937 0.878486
vt 0.934794 0.999553
vt 0.934794 0.877400
vt 0.057378 0.998241
vt 0.057378 0.878486
vt 0.028920 0.877400
vt 0.028920 0.999553
vt 1.028850 0.999553
vt 1.028850 0.877400
s 0
usemtl MI_WoodTrim
f 1/1/1 3/2/1 4/3/1 2/4/1
f 7/5/2 5/6/2 6/4/2 8/3/2
f 3/7/3 7/8/3 8/9/3 4/10/3
f 8/11/4 6/12/4 2/13/4 4/14/4
f 3/15/5 1/13/5 5/12/5 7/11/5
f 2/16/6 6/17/6 5/18/6 1/19/6
s 7
f 11/20/2 10/21/2 16/22/2 17/23/2
f 14/24/2 94/25/2 93/26/2 20/27/2
f 12/28/1 96/29/1 95/30/1 18/31/1
s 8
f 85/32/7 86/33/7 46/34/8 33/35/8
s 7
f 92/36/3 89/37/3 25/38/3 14/39/3
f 63/40/3 61/41/3 27/42/3 49/43/3
f 68/44/3 65/45/3 28/46/3 48/47/3
f 9/48/1 12/28/1 18/31/1 15/49/1
s 8
f 24/50/1 37/51/1 36/52/1 23/53/1
f 77/54/9 78/55/9 44/56/10 31/57/10
f 25/58/1 38/59/1 37/51/1 24/50/1
f 81/60/11 82/61/11 45/62/12 32/63/12
f 21/64/2 34/65/2 39/66/2 26/67/2
f 89/68/13 90/69/13 38/59/14 25/58/14
f 61/70/15 62/71/15 40/72/16 27/73/16
f 65/74/17 66/75/17 41/76/18 28/77/18
f 69/78/19 70/79/19 42/80/20 29/81/20
f 22/82/2 35/83/2 34/65/2 21/64/2
f 73/84/21 74/85/21 43/86/5 30/87/5
s 7
f 18/88/6 34/89/6 35/90/6 15/91/6
f 11/92/3 24/93/3 23/94/3 10/95/3
f 16/96/6 36/97/6 37/98/6 17/99/6
f 14/39/3 25/38/3 94/100/3
f 17/99/6 37/98/6 38/101/6 93/102/6
f 12/103/3 21/104/3 26/105/3 96/106/3
f 19/107/6 39/108/6 95/109/6
f 64/110/22 51/111/23 48/112/23 63/113/22
f 91/114/6 90/115/6 40/116/6 52/117/6
f 67/118/24 50/119/25 47/120/25 68/121/24
f 62/122/6 41/123/6 51/124/6 64/125/6
f 72/126/26 54/127/4 53/128/4 71/129/26
f 66/130/6 42/131/6 50/132/6 67/133/6
f 84/134/27 60/135/28 59/136/28 83/137/27
f 72/138/6 70/139/6 43/140/6 54/141/6
f 92/142/29 14/24/30 20/27/30 91/143/29
f 9/144/3 22/145/3 21/104/3 12/103/3
f 79/146/31 55/147/32 56/148/32 80/149/31
f 88/150/3 85/151/3 33/152/3 59/153/3
f 75/154/33 53/128/4 54/127/4 76/155/33
f 87/156/34 19/157/35 13/158/35 88/159/34
f 74/160/6 44/161/6 56/162/6 76/163/6
f 69/164/3 29/165/3 47/166/3 71/167/3
f 78/168/6 45/169/6 58/170/6 80/171/6
f 73/172/3 30/173/3 53/174/3 75/175/3
f 77/176/3 31/177/3 55/178/3 79/179/3
f 82/180/6 46/181/6 60/182/6 84/183/6
f 81/184/3 32/185/3 57/186/3 83/187/3
f 86/188/6 39/108/6 19/107/6 87/189/6
f 40/116/6 62/122/6 64/125/6 52/117/6
f 52/190/36 64/110/22 63/113/22 49/191/36
s 8
f 28/77/18 41/76/18 62/71/15 61/70/15
s 7
f 48/47/3 28/46/3 61/41/3 63/40/3
f 41/123/6 66/130/6 67/133/6 51/124/6
f 51/111/23 67/118/24 68/121/24 48/112/23
s 8
f 29/81/20 42/80/20 66/75/17 65/74/17
s 7
f 47/166/3 29/165/3 65/45/3 68/44/3
f 30/173/3 69/164/3 71/167/3 53/174/3
f 50/132/6 42/131/6 70/139/6 72/138/6
f 50/119/25 72/126/26 71/129/26 47/120/25
s 8
f 30/87/5 43/86/5 70/79/19 69/78/19
s 7
f 31/177/3 73/172/3 75/175/3 55/178/3
f 43/140/6 74/160/6 76/163/6 54/141/6
f 55/147/32 75/154/33 76/155/33 56/148/32
s 8
f 31/57/10 44/56/10 74/85/21 73/84/21
s 7
f 32/185/3 77/176/3 79/179/3 57/186/3
f 44/161/6 78/168/6 80/171/6 56/162/6
f 57/192/37 79/146/31 80/149/31 58/193/37
s 8
f 32/63/12 45/62/12 78/55/9 77/54/9
s 7
f 33/152/3 81/184/3 83/187/3 59/153/3
f 45/169/6 82/180/6 84/183/6 58/170/6
f 58/193/37 84/134/27 83/137/27 57/192/37
s 8
f 33/35/8 46/34/8 82/61/11 81/60/11
s 7
f 46/181/6 86/188/6 87/189/6 60/182/6
f 60/135/28 87/156/34 88/159/34 59/136/28
f 13/194/3 26/105/3 85/151/3 88/150/3
s 8
f 26/67/38 39/66/38 86/33/7 85/32/7
s 7
f 49/191/36 92/142/29 91/143/29 52/190/36
f 20/195/6 38/101/6 90/115/6 91/114/6
s 8
f 27/73/16 40/72/16 90/69/13 89/68/13
s 7
f 49/43/3 27/42/3 89/37/3 92/36/3
s 9
f 98/196/2 166/197/2 165/198/2 100/199/2
s 7
f 25/38/3 24/93/3 11/92/3 94/100/3
f 38/101/6 20/195/6 93/102/6
f 94/25/2 11/20/2 17/23/2 93/26/2
f 96/29/1 13/158/1 19/157/1 95/30/1
f 26/105/3 13/194/3 96/106/3
f 39/108/6 34/89/6 18/88/6 95/109/6
s 9
f 157/200/7 158/201/7 118/202/8 109/203/8
f 164/36/3 161/37/3 101/38/3 98/39/3
f 135/40/3 133/41/3 103/42/3 121/43/3
f 140/44/3 137/45/3 104/46/3 120/47/3
f 149/204/9 150/205/9 116/206/10 107/207/10
f 153/208/11 154/209/11 117/210/12 108/211/12
f 161/212/13 162/213/13 110/214/14 101/215/14
f 133/216/15 134/217/15 112/218/16 103/219/16
f 137/220/17 138/221/17 113/222/18 104/223/18
f 141/224/19 142/225/19 114/226/20 105/227/20
f 145/228/21 146/229/21 115/230/5 106/231/5
f 98/39/3 101/38/3 166/100/3
f 99/107/6 111/108/6 167/109/6
f 136/232/22 123/233/23 120/234/23 135/235/22
f 163/114/6 162/115/6 112/116/6 124/117/6
f 139/236/24 122/237/25 119/238/25 140/239/24
f 134/122/6 113/123/6 123/124/6 136/125/6
f 144/240/26 126/241/4 125/242/4 143/243/26
f 138/130/6 114/131/6 122/132/6 139/133/6
f 156/244/27 132/245/28 131/246/28 155/247/27
f 144/138/6 142/139/6 115/140/6 126/141/6
f 164/248/29 98/196/30 100/199/30 163/249/29
f 151/250/31 127/251/32 128/252/32 152/253/31
f 160/150/3 157/151/3 109/152/3 131/153/3
f 147/254/33 125/242/4 126/241/4 148/255/33
f 159/256/34 99/257/35 97/258/35 160/259/34
f 146/160/6 116/161/6 128/162/6 148/163/6
f 141/164/3 105/165/3 119/166/3 143/167/3
f 150/168/6 117/169/6 130/170/6 152/171/6
f 145/172/3 106/173/3 125/174/3 147/175/3
f 149/176/3 107/177/3 127/178/3 151/179/3
f 154/180/6 118/181/6 132/182/6 156/183/6
f 153/184/3 108/185/3 129/186/3 155/187/3
f 158/188/6 111/108/6 99/107/6 159/189/6
f 112/116/6 134/122/6 136/125/6 124/117/6
f 124/260/36 136/232/22 135/235/22 121/261/36
f 104/223/18 113/222/18 134/217/15 133/216/15
f 120/47/3 104/46/3 133/41/3 135/40/3
f 113/123/6 138/130/6 139/133/6 123/124/6
f 123/233/23 139/236/24 140/239/24 120/234/23
f 105/227/20 114/226/20 138/221/17 137/220/17
f 119/166/3 105/165/3 137/45/3 140/44/3
f 106/173/3 141/164/3 143/167/3 125/174/3
f 122/132/6 114/131/6 142/139/6 144/138/6
f 122/237/25 144/240/26 143/243/26 119/238/25
f 106/231/5 115/230/5 142/225/19 141/224/19
f 107/177/3 145/172/3 147/175/3 127/178/3
f 115/140/6 146/160/6 148/163/6 126/141/6
f 127/251/32 147/254/33 148/255/33 128/252/32
f 107/207/10 116/206/10 146/229/21 145/228/21
f 108/185/3 149/176/3 151/179/3 129/186/3
f 116/161/6 150/168/6 152/171/6 128/162/6
f 129/262/37 151/250/31 152/253/31 130/263/37
f 108/211/12 117/210/12 150/205/9 149/204/9
f 109/152/3 153/184/3 155/187/3 131/153/3
f 117/169/6 154/180/6 156/183/6 130/170/6
f 130/263/37 156/244/27 155/247/27 129/262/37
f 109/203/8 118/202/8 154/209/11 153/208/11
f 118/181/6 158/188/6 159/189/6 132/182/6
f 132/245/28 159/256/34 160/259/34 131/246/28
f 97/194/3 102/105/3 157/151/3 160/150/3
f 102/264/38 111/265/38 158/201/7 157/200/7
f 121/261/36 164/248/29 163/249/29 124/260/36
f 100/195/6 110/101/6 162/115/6 163/114/6
f 103/219/16 112/218/16 162/213/13 161/212/13
f 121/43/3 103/42/3 161/37/3 164/36/3
f 110/101/6 100/195/6 165/102/6
f 168/266/1 97/258/1 99/257/1 167/267/1
f 102/105/3 97/194/3 168/106/3
f 101/215/5 110/214/5 165/268/5 166/269/5
f 102/264/5 168/270/5 167/271/5 111/265/5
