# Blender 4.0.2
# www.blender.org
mtllib Overhang_RoofIncline_Wood.mtl
o Overhang_RoofIncline_Wood
v -0.062164 -0.090697 -1.000000
v -0.062164 -0.324432 -1.000000
v 0.061420 -0.090697 -1.000000
v 0.061420 -0.324432 -1.000000
v 1.000000 -0.058567 -0.903426
v 1.000000 -0.173276 -0.903426
v 1.000000 -0.058567 -1.021612
v 1.000000 -0.173276 -1.021612
v -1.000000 -0.058568 -0.903426
v -1.000000 -0.173277 -0.903426
v -1.000000 -0.058568 -1.021612
v -1.000000 -0.173277 -1.021612
v 1.000000 -0.058567 0.059093
v 1.000000 -0.173276 0.059093
v 1.000000 -0.058567 -0.059093
v 1.000000 -0.173276 -0.059093
v -1.000000 -0.058568 0.059093
v -1.000000 -0.173277 0.059093
v -1.000000 -0.058568 -0.059093
v -1.000000 -0.173277 -0.059093
v 1.000000 -0.075468 -1.000000
v -1.000000 -0.075467 -1.000000
v -0.750000 -0.075467 -1.000000
v -0.500000 -0.075467 -1.000000
v -0.250000 -0.075467 -1.000000
v -0.000000 -0.075467 -1.000000
v 0.250000 -0.075468 -1.000000
v 0.500000 -0.075468 -1.000000
v 0.750000 -0.075468 -1.000000
v 0.500000 -0.075468 0.192926
v 1.000000 -0.075468 0.192926
v 0.250000 -0.075468 0.192926
v 0.000000 -0.075468 0.192926
v -0.062164 -0.090697 0.205890
v -1.000000 -0.075467 0.192926
v -0.250000 -0.075468 0.192926
v 0.061420 -0.090697 0.205890
v -0.500000 -0.075468 0.192926
v -0.062164 -0.324432 0.404865
v -0.750000 -0.075468 0.192926
v 0.750000 -0.075468 0.192926
v 0.061420 -0.324432 0.404865
vn -0.0000 -0.0000 -1.0000
vn -0.0000 1.0000 -0.0000
vn -1.0000 -0.0000 -0.0000
vn -0.0000 -1.0000 -0.0000
vn 1.0000 -0.0000 -0.0000
vn -0.0000 -0.0000 1.0000
vt 0.156396 0.377337
vt 0.156396 0.217649
vt 0.087430 0.217649
vt 0.087430 0.377337
vt 1.000000 0.691466
vt 1.000000 0.750526
vt 0.397055 0.750526
vt 0.397055 0.691466
vt 1.000000 0.880729
vt 1.000000 0.996545
vt 0.297568 0.996545
vt 0.397055 0.880729
vt 0.297568 0.691466
vt 0.297568 0.750526
vt 1.300223 0.691876
vt 1.300223 0.750551
vt 0.000000 0.750551
vt 0.000000 0.691876
vt 0.496712 0.371929
vt 0.330910 0.371929
vt 0.330910 0.211005
vt 0.496712 0.211005
vt 0.496712 0.371928
vt 0.496712 0.211004
vt 0.330910 0.211004
vt 0.330910 0.371928
vt 0.500035 0.873759
vt 1.096456 0.873759
vt 1.096456 0.753424
vt 0.500035 0.753424
vt 0.499965 0.996854
vt -0.096456 0.996853
vt -0.096456 0.875933
vt 0.499965 0.875933
vt -0.499965 0.873759
vt 0.096456 0.873759
vt 0.096456 0.753424
vt -0.499965 0.753424
vt 0.999965 0.996854
vt 0.403544 0.996853
vt 0.403544 0.875934
vt 0.999965 0.875933
vt 0.499965 0.753424
vt -0.096456 0.753424
vt -0.096456 0.873759
vt 0.499965 0.873759
vt 0.000035 0.996854
vt 0.596456 0.996853
vt 0.596456 0.875933
vt 0.000035 0.875933
vt -0.096456 0.996853
vt -0.096456 0.875933
vt 0.499965 0.753424
vt -0.096456 0.753424
vt -0.096456 0.873759
vt 0.499965 0.873759
s 1
usemtl MI_WoodTrim
f 3/1/1 4/2/1 2/3/1 1/4/1
f 3/5/2 1/6/2 34/7/2 37/8/2
f 1/9/3 2/10/3 39/11/3 34/12/3
f 2/6/4 4/5/4 42/13/4 39/14/4
f 4/10/5 3/9/5 37/12/5 42/11/5
s 0
f 7/15/1 8/16/1 12/17/1 11/18/1
f 12/16/4 8/17/4 6/18/4 10/15/4
f 7/17/2 11/16/2 9/15/2 5/18/2
f 6/15/6 5/16/6 9/17/6 10/18/6
f 7/19/5 5/20/5 6/21/5 8/22/5
f 11/23/3 12/24/3 10/25/3 9/26/3
f 15/15/1 16/16/1 20/17/1 19/18/1
f 20/16/4 16/17/4 14/18/4 18/15/4
f 15/17/2 19/16/2 17/15/2 13/18/2
f 14/15/6 13/16/6 17/17/6 18/18/6
f 15/19/5 13/20/5 14/21/5 16/22/5
f 19/23/3 20/24/3 18/25/3 17/26/3
f 23/27/4 40/28/4 35/29/4 22/30/4
f 21/31/4 31/32/4 41/33/4 29/34/4
f 29/35/4 41/36/4 30/37/4 28/38/4
f 28/39/4 30/40/4 32/41/4 27/42/4
f 27/43/4 32/44/4 33/45/4 26/46/4
f 26/47/4 33/48/4 36/49/4 25/50/4
f 25/31/4 36/51/4 38/52/4 24/34/4
f 24/53/4 38/54/4 40/55/4 23/56/4
