# Blender 4.0.2
# www.blender.org
mtllib Overhang_Side_WoodBrick_Short_L.mtl
o Overhang_Side_WoodBrick_Short_L
v -0.969067 2.962142 0.887014
v -1.004201 2.962142 0.652945
v -1.004201 2.962142 0.871082
v -1.004201 2.962142 -0.023023
v -0.969067 3.793338 0.887014
v -0.969067 3.793338 0.637014
v -0.969067 3.793338 0.387013
v -0.969067 3.793338 0.137014
v -1.004201 3.793338 0.652945
v -1.004201 3.793338 0.871082
v -1.004201 3.793338 0.402945
v -1.004201 3.793338 0.621082
v -1.004201 3.793338 0.152945
v -1.004201 3.793338 0.371082
v -1.004201 3.793338 0.121082
v -1.004201 3.793338 -0.023023
v -0.969067 2.962142 0.637014
v -0.969067 2.962142 0.387014
v -0.969067 2.962142 0.137014
v -1.004201 2.962142 0.621082
v -1.004201 2.962142 0.402945
v -0.969067 2.353836 0.137014
v -1.004201 2.353836 0.121082
v -1.004201 2.962142 0.371082
v -1.004201 2.962142 0.152945
v -1.004201 2.962142 0.121082
v -1.004201 2.353836 -0.023023
v -1.004201 2.353836 0.152945
v -0.969067 2.786408 0.637014
v -0.969067 2.634551 0.387014
v -1.004201 2.621310 0.371082
v -1.004201 2.647459 0.402945
v -0.969067 2.863765 0.887014
v -1.004201 2.791693 0.652945
v -1.004201 2.779703 0.621082
v -1.004201 2.860815 0.871082
v -1.005432 6.000000 0.007269
v -0.795260 6.000000 0.007269
v -1.005432 6.000000 -0.232370
v -0.795260 6.000000 -0.232370
v -1.005431 3.000000 0.007270
v -0.795260 3.000000 0.007269
v -1.005432 3.000000 -0.232370
v -0.795260 3.000000 -0.232370
v -0.795260 3.000000 0.007269
v -0.985431 3.000000 0.007270
v -1.005431 -0.000000 -0.232370
v -0.795258 0.000000 -0.232370
v -1.005431 -0.000000 -0.154635
v -0.795258 0.000000 -0.154635
v -0.999999 0.102187 -0.007063
v -0.999999 0.510897 0.222927
v -1.000000 1.849939 -0.010602
v -1.000000 1.849939 0.222926
v -1.000000 1.997336 -0.002258
v -1.000000 1.966854 0.229271
v -1.000000 2.142382 0.025253
v -1.000000 2.081941 0.250823
v -1.000000 2.282597 0.071460
v -1.000000 2.193230 0.287211
v -1.000000 2.415581 0.135575
v -1.000000 2.297776 0.337815
v -1.000000 2.538660 0.216499
v -1.000000 2.391136 0.401768
v -1.000000 2.646050 0.312847
v -1.000000 2.472020 0.477976
v -1.000000 2.735808 0.422972
v -1.000000 2.539707 0.565134
v -1.000000 2.807593 0.544989
v -1.000000 2.593880 0.661752
v -1.000000 2.860154 0.676810
v -1.000000 2.634542 0.766018
v -1.000000 2.893213 0.814220
v -1.000000 2.661434 0.871217
v -1.000000 2.909489 0.950841
v -1.000000 2.675708 0.980552
v -1.000000 2.909303 1.122835
v -1.000000 2.675568 1.122835
v -1.123585 0.102187 -0.007063
v -1.123585 0.510897 0.222927
v -1.123584 1.849939 -0.010602
v -1.123584 1.849939 0.222926
v -1.123584 1.997336 -0.002258
v -1.123584 1.966854 0.229271
v -1.123584 2.142382 0.025253
v -1.123584 2.081941 0.250823
v -1.123584 2.282597 0.071460
v -1.123584 2.193230 0.287211
v -1.123584 2.415581 0.135575
v -1.123584 2.297776 0.337815
v -1.123584 2.538660 0.216499
v -1.123584 2.391136 0.401768
v -1.123584 2.646050 0.312847
v -1.123584 2.472020 0.477976
v -1.123584 2.735808 0.422972
v -1.123584 2.539707 0.565134
v -1.123584 2.807593 0.544989
v -1.123584 2.593880 0.661752
v -1.123584 2.860154 0.676810
v -1.123584 2.634542 0.766018
v -1.123584 2.893213 0.814220
v -1.123584 2.661434 0.871217
v -1.123584 2.909489 0.950841
v -1.123584 2.675708 0.980552
v -1.123584 2.909303 1.122835
v -1.123584 2.675568 1.122835
v -0.952823 3.883107 1.000000
v -0.952823 3.649580 1.000000
v -1.071764 3.883107 1.000000
v -1.071764 3.649580 1.000000
v -1.071763 3.649579 0.000000
v -0.952823 3.883106 0.000000
v -1.071763 3.883106 0.000000
v -0.952823 3.649579 0.000000
v -1.105087 6.000000 1.119820
v -0.894915 6.000000 1.119820
v -1.105087 6.000000 0.880180
v -0.894915 6.000000 0.880180
v -1.165297 2.907979 1.119820
v -0.894913 2.907979 1.119820
v -1.165297 2.907979 0.880180
v -0.894913 2.907979 0.880180
v -1.105966 2.909538 0.120823
v -0.894034 2.909538 0.120823
v -1.105966 2.909538 -0.120823
v -0.894034 2.909538 -0.120823
v -1.105087 2.020782 0.197371
v -1.105087 1.979217 0.004497
v -1.102772 2.364242 -0.112410
v -0.897228 2.424341 0.123826
v -0.897228 2.364243 -0.112410
v -1.102772 2.424340 0.123827
v -1.105087 6.000000 0.119820
v -0.894915 6.000000 0.119820
v -1.105087 6.000000 -0.119820
v -0.894915 6.000000 -0.119820
v -1.014672 2.909538 0.120823
v -1.014672 2.909538 -0.120823
v -1.014550 2.020782 0.197371
v -1.014550 1.979218 0.004497
v -1.014230 2.364243 -0.112410
v -1.014230 2.424341 0.123826
v -1.014551 6.000000 0.119820
v -1.014551 6.000000 -0.119820
v -0.896966 2.320654 -0.099175
v -1.103034 2.378653 0.132153
v -1.103034 2.320653 -0.099175
v -0.897144 2.409759 0.126484
v -1.014266 2.320653 -0.099175
v -1.014242 2.409759 0.126484
v -1.100798 3.144125 1.000000
v -1.100798 2.910598 1.000000
v -0.981857 3.144125 1.000000
v -0.981857 2.910598 1.000000
v -0.981857 2.910599 -0.000000
v -1.100797 3.144126 -0.000000
v -0.981857 3.144126 -0.000000
v -1.100797 2.910599 -0.000000
v -0.800000 1.906325 0.000000
v -0.800000 2.036852 0.008555
v -0.800000 2.165144 0.034074
v -0.800000 2.289009 0.076121
v -0.800000 2.406325 0.133975
v -0.800000 2.515087 0.206647
v -0.800000 2.613432 0.292893
v -0.800000 2.699679 0.391239
v -0.800000 2.772351 0.500000
v -0.800000 2.830205 0.617317
v -0.800000 2.872251 0.741181
v -0.800000 2.897770 0.869474
v -0.800000 2.906325 1.000000
v -0.800000 2.913550 1.000000
v -0.800000 1.906325 -0.000944
v -0.800000 2.036852 -0.000944
v -0.800000 2.165144 -0.000944
v -0.800000 2.289009 -0.000944
v -0.800000 2.406325 -0.000944
v -0.800000 2.515087 -0.000944
v -0.800000 2.613432 -0.000944
v -0.800000 2.699679 -0.000944
v -0.800000 2.772351 -0.000944
v -0.800000 2.830205 -0.000944
v -0.800000 2.872251 -0.000944
v -0.800000 2.897770 -0.000944
v -0.800000 2.906325 -0.000944
v -0.800000 2.913550 -0.000944
v -0.800000 6.000000 1.000000
v -0.800000 6.000000 -0.000944
v -1.000000 3.116765 -0.314034
v -1.000000 2.883237 -0.314034
v -1.000000 3.116765 -0.195093
v -1.000000 2.883237 -0.195093
v -0.685964 3.116763 -0.313710
v -0.685965 2.883235 -0.313710
v -0.806933 3.116765 -0.195093
v -0.806630 2.883237 -0.195093
v -0.685966 3.116765 1.000000
v -0.685966 2.883237 1.000000
v -0.804906 3.116765 1.000000
v -0.804906 2.883237 1.000000
v -1.000000 6.116765 -0.314034
v -1.000000 5.883237 -0.314034
v -1.000000 6.116765 -0.195093
v -1.000000 5.883237 -0.195093
v -0.685964 6.116763 -0.313710
v -0.685965 5.883235 -0.313710
v -0.806933 6.116765 -0.195093
v -0.806630 5.883237 -0.195093
v -0.685966 6.116765 1.000000
v -0.685966 5.883237 1.000000
v -0.804906 6.116765 1.000000
v -0.804906 5.883237 1.000000
v -1.117569 6.116765 0.000000
v -1.117569 5.883237 -0.000000
v -0.998629 6.116765 0.000000
v -0.998629 5.883237 0.000000
v -1.117570 6.116763 1.000000
v -1.117570 5.883235 1.000000
v -0.998630 6.116763 1.000000
v -0.998630 5.883235 1.000000
v -1.000000 6.000000 1.000000
v -1.000000 3.880000 1.000000
v -1.000000 3.880000 0.000000
v -1.000000 6.000000 0.000000
v -0.985432 3.000000 -0.232370
v -0.795260 3.000000 -0.232370
v -0.985431 -0.000000 -0.232370
v -0.795258 0.000000 -0.232370
v -0.795259 1.796203 -0.232370
v -0.985432 1.796202 -0.232370
v -0.985432 2.382959 -0.232370
v -0.795259 2.382959 0.007269
v -0.795259 2.382959 -0.232370
v -0.985431 2.382959 0.007270
v -0.985431 -0.000000 -0.154635
v -0.795259 1.796203 -0.154635
v -0.795258 0.000000 -0.154635
v -0.985432 1.796202 -0.154635
vn -0.4130 -0.0000 0.9107
vn -0.4130 -0.0000 -0.9107
vn -1.0000 -0.0000 -0.0000
vn -0.0000 1.0000 -0.0000
vn -0.0000 -0.0000 -1.0000
vn 1.0000 -0.0000 -0.0000
vn -0.0000 -0.0000 1.0000
vn -0.0000 -1.0000 -0.0000
vn -0.0000 -0.4904 0.8715
vn -0.0000 -0.2535 0.9673
vn -0.0000 0.0273 -0.9996
vn -0.0000 -0.0020 -1.0000
vn -0.0000 -0.0271 0.9996
vn -0.0000 -0.1194 0.9928
vn -0.0000 0.1217 -0.9926
vn -0.0000 -0.2480 0.9688
vn -0.0000 -0.3741 0.9274
vn -0.0000 -0.5018 0.8650
vn -0.0000 0.4929 -0.8701
vn -0.0000 0.3744 -0.9273
vn -0.0000 -0.6273 0.7788
vn -0.0000 -0.7400 0.6726
vn -0.0000 -0.8333 0.5528
vn -0.0000 0.8209 -0.5711
vn -0.0000 0.7237 -0.6902
vn -0.0000 -0.9041 0.4272
vn -0.0000 -0.9520 0.3061
vn -0.0000 0.9530 -0.3029
vn -0.0000 0.8980 -0.4400
vn -0.0000 -0.9820 0.1889
vn -0.0000 -0.9979 0.0644
vn -0.0000 -1.0000 -0.0010
vn -0.0000 1.0000 0.0011
vn -0.0000 0.9983 -0.0587
vn -0.0000 0.9843 -0.1764
vn -0.0000 0.6103 -0.7922
vn -0.0000 0.2502 -0.9682
vn -0.9998 0.0195 -0.0000
vn 1.0000 -0.0062 0.0008
vn -0.0000 0.1793 0.9838
vn -1.0000 0.0056 -0.0013
vn -0.0000 -0.0154 -0.9999
vn -1.0000 -0.0062 0.0008
vn -0.0000 0.0062 1.0000
vn 1.0000 0.0056 -0.0014
vn -0.0000 0.0003 -1.0000
vn 1.0000 0.0003 -0.0000
vn -1.0000 0.0003 -0.0000
vn -0.0000 0.0003 1.0000
vn -0.0000 -0.2905 -0.9569
vn -1.0000 0.0055 -0.0014
vn 0.0010 -0.0000 -1.0000
vt -0.084454 0.995896
vt -0.084454 0.988190
vt -0.499965 0.988190
vt -0.499965 0.995896
vt 0.000000 0.873889
vt 0.084454 0.865133
vt 0.499965 0.865133
vt 0.499965 0.872802
vt -0.081754 0.874976
vt -0.081754 0.882682
vt 0.333756 0.882682
vt 0.333756 0.874976
vt -0.084454 0.752466
vt -0.084454 0.760135
vt -0.499965 0.760135
vt -0.499965 0.752466
vt 0.084454 0.760135
vt 0.084454 0.752466
vt 0.499965 0.752466
vt 0.499965 0.760135
vt -0.081754 0.988190
vt -0.081754 0.995896
vt 0.333756 0.995896
vt 0.333756 0.988190
vt -0.084454 0.882682
vt -0.499965 0.874976
vt -0.499965 0.882682
vt -0.000000 0.995896
vt -0.000000 0.988121
vt -0.050654 0.988128
vt -0.049179 0.995896
vt -0.000000 0.873889
vt -0.000000 0.866151
vt 0.091202 0.865966
vt 0.087851 0.873698
vt -0.166208 0.874976
vt -0.166208 0.882682
vt 0.004176 0.882682
vt -0.002443 0.874976
vt 0.000000 0.752466
vt 0.000000 0.760135
vt -0.304096 0.760135
vt -0.304096 0.752466
vt -0.000000 0.881664
vt -0.087851 0.874080
vt -0.085209 0.881838
vt -0.000000 0.760204
vt -0.000000 0.752466
vt 0.163765 0.752466
vt 0.157312 0.760182
vt -0.166208 0.988190
vt -0.166208 0.995896
vt 0.137888 0.995896
vt 0.137888 0.988190
vt -0.499965 0.829499
vt -0.084454 0.829499
vt 0.000000 0.829499
vt -0.304096 0.829499
vt 0.332501 0.213019
vt 0.332501 0.373570
vt 0.490323 0.373570
vt 0.490323 0.213019
vt 1.000000 0.882737
vt 1.000000 0.996169
vt 0.000000 0.996169
vt 0.000000 0.882737
vt 1.000000 0.867594
vt 0.000000 0.867594
vt 0.000000 0.757548
vt 1.000000 0.757548
vt 0.439128 0.373570
vt 0.439128 0.213019
vt 0.598734 0.882737
vt 0.598734 0.996169
vt 0.083520 0.210885
vt 0.083520 0.377037
vt 0.158193 0.377037
vt 0.158193 0.210885
vt 0.475559 0.996545
vt -0.261302 0.996545
vt -0.261302 0.880729
vt 0.475559 0.880729
vt 0.505059 0.732618
vt 0.000000 0.732618
vt 0.000000 0.697371
vt 0.505059 0.697371
vt 0.546983 0.880729
vt 0.546983 0.996545
vt 0.403693 0.691466
vt 0.403693 0.750526
vt 0.459648 0.750526
vt 0.459648 0.691466
vt 0.547164 0.732618
vt 0.547164 0.697371
vt 0.618407 0.880729
vt 0.618407 0.996545
vt 0.515604 0.750526
vt 0.515604 0.691466
vt 0.689831 0.880729
vt 0.689831 0.996545
vt 0.761254 0.880729
vt 0.761254 0.996545
vt 0.571559 0.691466
vt 0.571559 0.750526
vt 0.627514 0.750526
vt 0.627514 0.691466
vt 0.673478 0.732618
vt 0.631373 0.732618
vt 0.631373 0.697371
vt 0.673478 0.697371
vt 0.832678 0.880729
vt 0.832678 0.996545
vt 0.904102 0.880729
vt 0.904102 0.996545
vt 0.683469 0.691466
vt 0.683469 0.750526
vt 0.739425 0.750526
vt 0.739425 0.691466
vt 0.975527 0.880729
vt 0.975527 0.996545
vt 0.795380 0.750526
vt 0.795380 0.691466
vt 0.797153 0.732618
vt 0.756635 0.732618
vt 0.756635 0.697371
vt 0.797153 0.697371
vt 1.046950 0.880729
vt 1.046950 0.996545
vt 1.118374 0.880729
vt 1.118374 0.996545
vt 0.851335 0.691466
vt 0.851335 0.750526
vt 0.907291 0.750526
vt 0.907291 0.691466
vt 1.189798 0.880729
vt 1.189798 0.996545
vt 0.878002 0.732617
vt 0.837528 0.732618
vt 0.837528 0.697371
vt 0.878001 0.697371
vt 0.963246 0.750526
vt 0.963246 0.691466
vt 1.261222 0.880729
vt 1.261222 0.996545
vt 1.278061 0.880729
vt 1.278061 0.996545
vt 1.019201 0.691466
vt 1.019201 0.750526
vt 1.032801 0.750526
vt 1.032801 0.691466
vt 1.000000 0.732617
vt 0.957549 0.732617
vt 0.957549 0.697371
vt 1.000000 0.697371
vt 0.918309 0.732617
vt 0.918309 0.697371
vt 0.715488 0.732618
vt 0.715487 0.697371
vt 0.589269 0.732618
vt 0.589269 0.697371
vt -0.087537 0.750526
vt -0.087537 0.691465
vt 1.278061 0.880729
vt 0.156396 0.377337
vt 0.156396 0.217649
vt 0.087430 0.217649
vt 0.087430 0.377337
vt 0.500000 0.747971
vt 0.500000 0.692612
vt 0.000000 0.692612
vt 0.000000 0.747971
vt 0.500000 0.882737
vt 0.500000 0.996169
vt 0.271477 0.867594
vt 0.271477 0.757548
vt 0.720265 0.947306
vt 0.702652 0.996169
vt 0.500000 0.947306
vt 0.297349 0.867594
vt 0.500000 0.867594
vt 0.500000 0.757548
vt 0.297349 0.757548
vt 1.000000 0.931600
vt 0.728523 0.996169
vt 0.728523 0.931600
vt 0.271477 0.867594
vt 0.271477 0.757548
vt 1.000000 0.947306
vt 0.728523 0.996169
vt 0.728523 0.947306
vt 0.297348 0.867594
vt 0.279734 0.757548
vt 0.332501 0.282179
vt 0.490323 0.282179
vt 1.000000 0.931600
vt 0.000000 0.931600
vt 1.000000 0.947306
vt 0.000000 0.947306
vt 0.728523 0.882737
vt 0.728523 0.882737
vt 0.702652 0.882737
vt 0.702652 0.931600
vt 0.500000 0.931600
vt 0.720265 0.882737
vt 0.702652 0.996169
vt 1.000000 0.692612
vt 1.000000 0.747971
vt 0.206645 -0.345960
vt 0.251908 -0.376204
vt 0.415121 -0.376204
vt 0.415121 -0.345960
vt 0.411168 -0.652049
vt 0.414728 -0.706370
vt 0.415121 -0.706370
vt 0.415121 -0.652049
vt 0.157822 -0.321883
vt 0.415121 -0.321883
vt 0.400547 -0.598658
vt 0.415121 -0.598658
vt 0.106274 -0.304385
vt 0.415121 -0.304385
vt 0.383049 -0.547110
vt 0.415121 -0.547110
vt 0.052884 -0.293765
vt 0.415121 -0.293765
vt 0.358972 -0.498287
vt 0.415121 -0.498287
vt -0.001436 -0.290205
vt 0.415121 -0.290205
vt 0.328729 -0.453024
vt 0.415121 -0.453024
vt -0.001436 -0.287198
vt 0.415121 -0.287198
vt 0.292836 -0.412097
vt 0.415121 -0.412097
vt 0.415121 0.997272
vt -0.001436 0.997272
vt 0.916992 0.692612
vt 0.916992 0.747971
vt 0.103516 0.996169
vt 0.103516 0.882737
vt 0.878191 0.747971
vt 0.878191 0.692612
vt 0.000000 0.000000
vt 0.000000 1.000000
vt 0.500000 1.000000
vt 0.500000 0.000000
vt 0.205680 0.867594
vt 0.205680 0.757548
vt 0.401266 0.867594
vt 1.000000 0.831897
vt 0.401266 0.831897
vt 0.205680 0.867594
vt 0.205680 0.757548
vt 0.401266 0.867594
vt 0.401266 0.831897
vt 1.000000 0.831897
vt 0.794320 0.882737
vt 0.794320 0.996169
s 0
usemtl MI_WoodTrim_Wear
f 5/1/1 10/2/1 3/3/1 1/4/1
f 6/5/1 12/6/1 20/7/1 17/8/1
f 7/9/1 14/10/1 24/11/1 18/12/1
f 8/13/1 15/14/1 26/15/1 19/16/1
f 11/17/2 7/18/2 18/19/2 21/20/2
f 13/21/2 8/22/2 19/23/2 25/24/2
f 9/25/2 6/5/2 17/26/2 2/27/2
f 25/24/3 24/11/3 14/10/3 13/21/3
f 21/20/3 20/7/3 12/6/3 11/17/3
f 2/27/3 3/3/3 10/2/3 9/25/3
f 1/28/1 3/29/1 36/30/1 33/31/1
f 17/32/1 20/33/1 35/34/1 29/35/1
f 18/36/1 24/37/1 31/38/1 30/39/1
f 19/40/1 26/41/1 23/42/1 22/43/1
f 2/44/2 17/32/2 29/45/2 34/46/2
f 21/47/2 18/48/2 30/49/2 32/50/2
f 25/51/2 19/52/2 22/53/2 28/54/2
f 4/55/3 26/15/3 15/14/3 16/56/3
f 31/38/3 24/37/3 25/51/3 28/54/3
f 36/30/3 3/29/3 2/44/3 34/46/3
f 23/42/3 26/41/3 4/57/3 27/58/3
f 35/34/3 20/33/3 21/47/3 32/50/3
usemtl MI_WoodTrim
f 37/59/4 38/60/4 40/61/4 39/62/4
f 39/63/5 40/64/5 44/65/5 43/66/5
f 44/67/6 40/68/6 38/69/6 42/70/6
f 39/68/3 43/67/3 41/70/3 37/69/3
f 38/63/7 37/64/7 41/65/7 42/66/7
f 47/62/8 48/61/8 50/71/8 49/72/8
f 230/73/5 229/74/5 228/65/5 227/66/5
s 30
f 51/75/9 52/76/10 80/77/10 79/78/9
f 54/79/6 52/80/6 51/81/6 53/82/6
f 53/83/11 51/84/12 79/85/12 81/86/11
f 53/82/6 55/87/6 56/88/6 54/79/6
f 82/89/13 54/90/13 56/91/14 84/92/14
f 55/93/15 53/83/11 81/86/11 83/94/15
f 55/87/6 57/95/6 58/96/6 56/88/6
f 84/92/14 56/91/14 58/97/16 86/98/16
f 57/95/6 59/99/6 60/100/6 58/96/6
f 59/99/6 61/101/6 62/102/6 60/100/6
f 88/103/17 60/104/17 62/105/18 90/106/18
f 61/107/19 59/108/20 87/109/20 89/110/19
f 61/101/6 63/111/6 64/112/6 62/102/6
f 63/111/6 65/113/6 66/114/6 64/112/6
f 92/115/21 64/116/21 66/117/22 94/118/22
f 65/113/6 67/119/6 68/120/6 66/114/6
f 94/118/22 66/117/22 68/121/23 96/122/23
f 67/123/24 65/124/25 93/125/25 95/126/24
f 67/119/6 69/127/6 70/128/6 68/120/6
f 69/127/6 71/129/6 72/130/6 70/128/6
f 98/131/26 70/132/26 72/133/27 100/134/27
f 71/129/6 73/135/6 74/136/6 72/130/6
f 71/137/28 69/138/29 97/139/29 99/140/28
f 100/134/27 72/133/27 74/141/30 102/142/30
f 73/135/6 75/143/6 76/144/6 74/136/6
f 75/143/6 77/145/6 78/146/6 76/144/6
f 104/147/31 76/148/31 78/149/32 106/150/32
f 77/151/33 75/152/34 103/153/34 105/154/33
f 102/142/30 74/141/30 76/148/31 104/147/31
f 75/152/34 73/155/35 101/156/35 103/153/34
f 73/155/35 71/137/28 99/140/28 101/156/35
f 96/122/23 68/121/23 70/132/26 98/131/26
f 69/138/29 67/123/24 95/126/24 97/139/29
f 65/124/25 63/157/36 91/158/36 93/125/25
f 90/106/18 62/105/18 64/116/21 92/115/21
f 63/157/36 61/107/19 89/110/19 91/158/36
f 86/98/16 58/97/16 60/104/17 88/103/17
f 59/108/20 57/159/37 85/160/37 87/109/20
f 57/159/37 55/93/15 83/94/15 85/160/37
f 52/161/10 54/90/13 82/89/13 80/162/10
f 82/79/3 81/82/3 79/81/3 80/80/3
f 81/82/3 82/79/3 84/88/3 83/87/3
f 83/87/3 84/88/3 86/96/3 85/95/3
f 85/95/3 86/96/3 88/100/3 87/99/3
f 87/99/3 88/100/3 90/102/3 89/101/3
f 89/101/3 90/102/3 92/112/3 91/111/3
f 91/111/3 92/112/3 94/114/3 93/113/3
f 93/113/3 94/114/3 96/120/3 95/119/3
f 95/119/3 96/120/3 98/128/3 97/127/3
f 97/127/3 98/128/3 100/130/3 99/129/3
f 99/129/3 100/130/3 102/136/3 101/135/3
f 101/135/3 102/136/3 104/144/3 103/143/3
f 103/143/3 104/144/3 106/146/3 105/163/3
f 105/164/7 106/165/7 78/166/7 77/167/7
s 0
f 111/168/8 114/169/8 108/170/8 110/171/8
f 108/63/6 114/172/6 112/173/6 107/64/6
f 109/171/4 107/170/4 112/169/4 113/168/4
f 109/63/3 113/172/3 111/173/3 110/64/3
f 115/59/4 116/60/4 118/61/4 117/62/4
f 121/62/8 122/61/8 120/60/8 119/59/8
f 117/63/5 118/64/5 122/65/5 121/66/5
f 122/67/6 118/68/6 116/69/6 120/70/6
f 117/68/38 121/67/38 119/70/38 115/69/38
f 116/63/7 115/64/7 119/65/7 120/66/7
f 131/174/39 126/68/39 124/69/39 130/175/39
f 150/176/40 146/177/40 127/173/40 139/178/40
f 147/179/41 128/180/41 127/181/41 146/182/41
f 138/183/42 126/64/42 131/184/42 141/185/42
f 125/68/43 129/186/43 132/187/43 123/69/43
f 137/188/44 123/64/44 132/189/44 142/190/44
f 145/191/45 131/174/45 130/175/45 148/192/45
f 143/193/4 134/60/4 136/61/4 144/194/4
f 144/195/46 136/64/46 126/65/46 138/196/46
f 126/67/47 136/68/47 134/69/47 124/70/47
f 135/68/48 125/67/48 123/70/48 133/69/48
f 143/197/49 133/64/49 123/65/49 137/198/49
f 134/63/49 143/197/49 137/198/49 124/66/49
f 135/63/46 144/195/46 138/196/46 125/66/46
f 133/59/4 143/193/4 144/194/4 135/62/4
f 124/63/44 137/188/44 142/190/44 130/199/44
f 125/63/42 138/183/42 141/185/42 129/200/42
f 147/201/50 149/202/50 140/203/50 128/172/50
f 130/199/40 142/190/40 150/176/40 148/204/40
f 129/200/50 141/185/50 149/202/50 147/201/50
f 141/185/50 131/184/50 145/205/50 149/202/50
f 129/186/51 147/179/51 146/182/51 132/187/51
f 142/190/40 132/189/40 146/177/40 150/176/40
f 157/172/6 153/66/6 154/65/6 155/173/6
f 157/168/4 156/169/4 151/206/4 153/207/4
f 158/172/3 152/66/3 151/65/3 156/173/3
f 154/207/8 152/206/8 158/169/8 155/168/8
f 192/207/8 190/206/8 194/238/8 196/239/8
f 190/66/52 189/65/52 193/240/52 194/241/52
f 189/206/4 191/207/4 195/242/4 193/243/4
f 196/239/8 194/238/8 198/170/8 200/171/8
f 199/171/4 197/170/4 193/243/4 195/242/4
f 198/63/6 194/241/6 193/240/6 197/64/6
f 204/207/8 202/206/8 206/238/8 208/239/8
f 202/66/52 201/65/52 205/240/52 206/241/52
f 201/206/4 203/207/4 207/242/4 205/243/4
f 208/239/8 206/238/8 210/170/8 212/171/8
f 211/171/4 209/170/4 205/243/4 207/242/4
f 210/63/6 206/241/6 205/240/6 209/64/6
f 215/63/6 219/66/6 220/65/6 216/64/6
f 220/207/8 218/206/8 214/170/8 216/171/8
f 215/171/4 213/170/4 217/206/4 219/207/4
f 214/63/3 218/66/3 217/65/3 213/64/3
f 233/248/6 226/68/6 45/69/6 232/249/6
f 230/250/3 227/67/3 235/251/3 238/252/3
f 231/253/3 230/250/3 238/252/3 234/254/3
f 228/67/6 229/255/6 236/256/6 237/257/6
f 231/258/5 233/259/5 229/74/5 230/73/5
f 225/63/5 226/64/5 233/259/5 231/258/5
f 225/68/3 231/253/3 234/254/3 46/69/3
f 45/63/7 46/64/7 234/259/7 232/258/7
f 229/255/6 233/248/6 232/249/6 236/256/6
usemtl MI_Plaster
f 167/208/6 166/209/6 180/210/6 181/211/6
f 160/212/6 159/213/6 173/214/6 174/215/6
f 168/216/6 167/208/6 181/211/6 182/217/6
f 161/218/6 160/212/6 174/215/6 175/219/6
f 169/220/6 168/216/6 182/217/6 183/221/6
f 162/222/6 161/218/6 175/219/6 176/223/6
f 170/224/6 169/220/6 183/221/6 184/225/6
f 163/226/6 162/222/6 176/223/6 177/227/6
f 171/228/6 170/224/6 184/225/6 185/229/6
f 164/230/6 163/226/6 177/227/6 178/231/6
f 172/232/6 171/228/6 185/229/6 186/233/6
f 165/234/6 164/230/6 178/231/6 179/235/6
f 166/209/6 165/234/6 179/235/6 180/210/6
f 172/232/6 186/233/6 188/236/6 187/237/6
s 98
usemtl MI_UnevenBrick
f 222/244/3 221/245/3 224/246/3 223/247/3
