# Blender 4.0.2
# www.blender.org
mtllib Overhang_WoodBrick_Short.mtl
o Overhang_WoodBrick_Short
v -1.000000 0.000000 -0.200000
v 1.000000 0.000000 -0.200000
v -1.000000 1.899696 -0.200000
v 1.000000 1.899696 -0.200000
v -1.000000 2.056327 -0.189734
v 1.000000 2.056327 -0.189734
v -1.000000 2.210279 -0.159111
v 1.000000 2.210279 -0.159111
v -1.000000 2.358916 -0.108655
v 1.000000 2.358916 -0.108655
v -1.000000 2.499696 -0.039230
v 1.000000 2.499696 -0.039230
v -1.000000 2.630209 0.047976
v 1.000000 2.630209 0.047976
v -1.000000 2.748224 0.151472
v 1.000000 2.748224 0.151472
v -1.000000 2.820442 0.269486
v 1.000000 2.820442 0.269486
v -1.000000 2.862151 0.400000
v 1.000000 2.862151 0.400000
v -1.000000 2.881086 0.540780
v 1.000000 2.881086 0.540780
v -1.000000 2.881086 0.689417
v 1.000000 2.881086 0.689417
v -1.000000 2.895145 0.709681
v 1.000000 2.895145 0.709681
v -1.000000 0.836088 0.000000
v 1.000000 0.836088 0.000000
v 1.000000 1.000000 0.000000
v -1.000000 1.000000 0.000000
v 1.000000 1.906325 0.000000
v -1.000000 1.906325 0.000000
v 1.000000 2.036852 0.008555
v -1.000000 2.036852 0.008555
v 1.000000 2.165144 0.034074
v -1.000000 2.165144 0.034074
v 1.000000 2.289009 0.076121
v -1.000000 2.289009 0.076121
v 1.000000 2.406325 0.133975
v -1.000000 2.406325 0.133975
v 1.000000 2.515087 0.206647
v -1.000000 2.515087 0.206647
v 1.000000 2.613432 0.292893
v -1.000000 2.613432 0.292893
v 1.000000 2.699679 0.391239
v -1.000000 2.699679 0.391239
v 1.000000 2.772351 0.500000
v -1.000000 2.772351 0.500000
v 1.000000 2.830205 0.617317
v -1.000000 2.830205 0.617317
v 1.000000 2.872251 0.741181
v -1.000000 2.872251 0.741181
v 1.000000 2.881515 0.869474
v -1.000000 2.881515 0.869474
v 1.000000 2.882728 1.000000
v -1.000000 2.882728 1.000000
v 1.000000 2.911675 1.089049
v -1.000000 2.911675 1.089049
v -0.062165 0.413322 -0.007063
v -0.062165 0.822032 0.222927
v -0.062164 1.849939 -0.010601
v -0.062164 1.849939 0.222926
v -0.062164 1.997336 -0.002258
v -0.062164 1.966854 0.229271
v -0.062164 2.142382 0.025253
v -0.062164 2.081941 0.250823
v -0.062164 2.282597 0.071461
v -0.062164 2.193230 0.287212
v -0.062164 2.415581 0.135575
v -0.062164 2.297776 0.337815
v -0.062164 2.538660 0.216499
v -0.062164 2.391136 0.401768
v -0.062164 2.646050 0.312847
v -0.062164 2.472020 0.477976
v -0.062164 2.735808 0.422972
v -0.062164 2.539707 0.565134
v -0.062164 2.807593 0.544989
v -0.062164 2.593880 0.661752
v -0.062164 2.860154 0.676809
v -0.062164 2.634542 0.766018
v -0.062164 2.893213 0.814220
v -0.062164 2.661434 0.871217
v -0.062164 2.909489 0.950841
v -0.062164 2.675708 0.980552
v -0.062164 2.909303 1.000000
v -0.062164 2.675568 1.000000
v 0.061421 0.413322 -0.007063
v 0.061421 0.822032 0.222927
v 0.061420 1.849939 -0.010601
v 0.061420 1.849939 0.222926
v 0.061420 1.997336 -0.002258
v 0.061420 1.966854 0.229271
v 0.061420 2.142382 0.025253
v 0.061420 2.081941 0.250823
v 0.061420 2.282597 0.071461
v 0.061420 2.193230 0.287212
v 0.061420 2.415581 0.135575
v 0.061420 2.297776 0.337815
v 0.061420 2.538660 0.216499
v 0.061420 2.391136 0.401768
v 0.061420 2.646050 0.312847
v 0.061420 2.472020 0.477976
v 0.061420 2.735808 0.422972
v 0.061420 2.539707 0.565134
v 0.061420 2.807593 0.544989
v 0.061420 2.593880 0.661752
v 0.061420 2.860154 0.676809
v 0.061420 2.634542 0.766018
v 0.061420 2.893213 0.814220
v 0.061420 2.661434 0.871217
v 0.061420 2.909489 0.950841
v 0.061420 2.675708 0.980552
v 0.061420 2.909303 1.000000
v 0.061420 2.675568 1.000000
v -1.000000 -0.000000 0.000000
v 1.000000 0.000000 -0.000000
v -0.750000 -0.000000 -0.000000
v -0.500000 -0.000000 -0.000000
v -0.250000 -0.000000 0.000000
v 0.000000 0.000000 -0.000000
v 0.250000 0.000000 -0.000000
v 0.500000 0.000000 0.000000
v 0.750000 0.000000 0.000000
v -0.765931 -0.000000 0.035134
v -0.984068 -0.000000 0.035134
v -0.515931 -0.000000 0.035134
v -0.734068 -0.000000 0.035134
v -0.265931 -0.000000 0.035134
v -0.484068 -0.000000 0.035134
v -0.015931 0.000000 0.035134
v -0.234068 -0.000000 0.035134
v 0.234069 0.000000 0.035134
v 0.015932 0.000000 0.035134
v 0.481383 0.000000 0.035134
v 0.263246 0.000000 0.035134
v 0.734069 0.000000 0.035134
v 0.515932 0.000000 0.035134
v 0.984069 0.000000 0.035134
v 0.765932 0.000000 0.035134
v -1.000000 0.831079 -0.000000
v 1.000000 0.831080 -0.000000
v 0.000000 0.831079 -0.000000
v -0.750000 0.831079 -0.000000
v -0.500000 0.831079 -0.000000
v -0.250000 0.831079 -0.000000
v 0.250000 0.831079 -0.000000
v 0.500000 0.831079 -0.000000
v 0.750000 0.831080 -0.000000
v -0.765932 0.831079 0.035134
v -0.984068 0.831079 0.035134
v -0.515931 0.831079 0.035134
v -0.734068 0.831079 0.035134
v -0.265931 0.831079 0.035134
v -0.484068 0.831079 0.035134
v -0.015931 0.831079 0.035134
v -0.234068 0.831079 0.035134
v 0.234069 0.831079 0.035134
v 0.015932 0.831079 0.035134
v 0.481383 0.831079 0.035134
v 0.263246 0.831079 0.035134
v 0.734069 0.831080 0.035134
v 0.515932 0.831079 0.035134
v 0.984069 0.831080 0.035134
v 0.765932 0.831080 0.035134
v -1.000000 3.116765 0.685966
v -1.000000 2.883237 0.685966
v -1.000000 3.116765 0.804906
v -1.000000 2.883237 0.804906
v 1.000000 3.116763 0.685965
v 1.000000 2.883235 0.685965
v 1.000000 3.116763 0.804905
v 1.000000 2.883235 0.804905
v -0.851329 2.883237 0.804906
v -0.636919 2.883237 0.804906
v -0.744124 2.891946 0.804906
v 0.504469 2.883236 0.804905
v 0.880926 2.883235 0.804905
v 0.744124 2.879572 0.804905
v -0.851329 3.116764 0.685966
v -0.636919 3.116764 0.685966
v -0.744124 3.108055 0.685966
v 0.504469 3.116763 0.685965
v 0.880926 3.116763 0.685965
v 0.744124 3.122689 0.685965
v 0.880926 3.116763 0.804905
v 0.504469 3.116763 0.804905
v 0.744124 3.122689 0.804905
v -0.636919 3.116764 0.804906
v -0.851329 3.116764 0.804906
v -0.744124 3.108055 0.804906
v 0.880926 2.883235 0.685965
v 0.504469 2.883236 0.685965
v 0.744124 2.877310 0.685965
v -0.636919 2.883237 0.685966
v -0.851329 2.883237 0.685966
v -0.744124 2.891946 0.685966
v 1.000000 0.883107 0.092446
v 1.000000 0.649580 0.092446
v 1.000000 0.883107 -0.012516
v 1.000000 0.649580 -0.012516
v -1.000000 0.883105 0.092447
v -1.000000 0.649578 0.092447
v -1.000000 0.883105 -0.012515
v -1.000000 0.649578 -0.012515
v 1.000000 3.116765 1.092446
v 1.000000 2.883237 1.092446
v 1.000000 3.116765 0.998629
v 1.000000 2.883237 0.998629
v -1.000000 3.116763 1.092446
v -1.000000 2.883235 1.092446
v -1.000000 3.116763 0.998629
v -1.000000 2.883235 0.998629
vn -0.0000 0.0327 -0.9995
vn -0.0000 -0.0000 -1.0000
vn -0.0000 0.1305 -0.9914
vn -0.0000 0.2588 -0.9659
vn -0.0000 0.3827 -0.9239
vn -0.0000 0.5000 -0.8660
vn -0.0000 0.6088 -0.7934
vn -0.0000 0.7648 -0.6442
vn -0.0000 0.9093 -0.4162
vn -0.0000 0.9756 -0.2197
vn -0.0000 0.9978 -0.0668
vn -0.0000 1.0000 -0.0000
vn -0.0000 0.8216 -0.5701
vn -0.0000 -0.0000 1.0000
vn -0.0000 -0.0327 0.9995
vn -0.0000 -0.1305 0.9914
vn -0.0000 -0.2588 0.9659
vn -0.0000 -0.3827 0.9239
vn -0.0000 -0.5000 0.8660
vn -0.0000 -0.6088 0.7934
vn -0.0000 -0.7071 0.7071
vn -0.0000 -0.7934 0.6088
vn -0.0000 -0.8660 0.5000
vn -0.0000 -0.9239 0.3827
vn -0.0000 -0.9801 0.1983
vn -0.0000 -0.9992 0.0407
vn -0.0000 -0.9869 0.1611
vn -0.0000 -0.9510 0.3091
vn -0.0000 -0.4904 0.8715
vn -1.0000 -0.0000 -0.0000
vn -0.0000 0.0270 -0.9996
vn -0.0000 -0.0025 -1.0000
vn -0.0000 -0.0271 0.9996
vn -0.0000 -0.1194 0.9928
vn -0.0000 0.1217 -0.9926
vn -0.0000 -0.2480 0.9688
vn -0.0000 -0.3741 0.9274
vn -0.0000 -0.5018 0.8650
vn -0.0000 0.4929 -0.8701
vn -0.0000 0.3744 -0.9273
vn -0.0000 -0.6273 0.7788
vn -0.0000 -0.7400 0.6726
vn -0.0000 -0.8333 0.5528
vn -0.0000 0.8209 -0.5711
vn -0.0000 0.7237 -0.6902
vn -0.0000 -0.9041 0.4272
vn -0.0000 -0.9520 0.3061
vn -0.0000 0.9530 -0.3029
vn -0.0000 0.8980 -0.4400
vn -0.0000 -0.9820 0.1889
vn -0.0000 -0.9981 0.0613
vn -0.0000 -1.0000 -0.0072
vn -0.0000 1.0000 0.0038
vn -0.0000 0.9984 -0.0574
vn -0.0000 0.9843 -0.1764
vn -0.0000 0.6103 -0.7922
vn -0.0000 0.2502 -0.9682
vn 1.0000 -0.0000 -0.0000
vn -0.9107 -0.0000 0.4130
vn -0.9357 -0.0000 0.3528
vn 0.9107 -0.0000 0.4130
vn 0.8836 -0.0000 0.4682
vn -0.0000 -1.0000 -0.0000
vn 0.0433 0.9991 -0.0000
vn -0.0247 0.9997 -0.0000
vn 0.0810 0.9967 -0.0000
vn -0.0810 0.9967 -0.0000
vn 0.0810 -0.9967 -0.0000
vn -0.0810 -0.9967 -0.0000
vn 0.0350 -0.9993 0.0095
vn -0.0200 -0.9998 0.0095
vt 0.000000 0.707746
vt 0.000000 -0.420329
vt 1.000000 -0.420329
vt 1.000000 0.707746
vt 1.000000 0.800757
vt 0.000000 0.800757
vt 1.000000 0.892177
vt 0.000000 0.892177
vt 1.000000 0.980440
vt 0.000000 0.980440
vt 1.000000 1.064038
vt 0.000000 1.064038
vt 1.000000 1.141539
vt 0.000000 1.141539
vt 1.000000 1.211619
vt 0.000000 1.211619
vt 1.000000 1.273077
vt 0.000000 1.273077
vt 1.000000 1.324861
vt 0.000000 1.324861
vt 1.000000 1.366087
vt 0.000000 1.366087
vt 1.000000 1.396049
vt 0.000000 1.396049
vt 1.000000 1.398442
vt 0.000000 1.398442
vt 1.000000 -0.069316
vt 0.000076 -0.069316
vt 0.000076 -0.139892
vt 1.000000 -0.139892
vt 1.000000 0.320920
vt 0.000076 0.320920
vt 1.000000 0.377241
vt 0.000076 0.377242
vt 1.000000 0.433563
vt 0.000076 0.433563
vt 1.000000 0.489884
vt 0.000076 0.489884
vt 1.000000 0.546205
vt 0.000076 0.546205
vt 1.000000 0.602526
vt 0.000076 0.602526
vt 1.000000 0.658848
vt 0.000076 0.658848
vt 1.000000 0.715169
vt 0.000076 0.715169
vt 1.000000 0.771490
vt 0.000076 0.771490
vt 1.000000 0.827812
vt 0.000076 0.827812
vt 1.000000 0.884133
vt 0.000076 0.884133
vt 1.000000 0.940454
vt 0.000076 0.940454
vt 1.000000 0.996775
vt 0.000076 0.996775
vt 1.000000 1.045918
vt 0.000076 1.045918
vt 0.083520 0.210885
vt 0.158193 0.210885
vt 0.158193 0.377037
vt 0.083520 0.377037
vt 0.195815 0.996545
vt 0.195815 0.880729
vt -0.541045 0.880729
vt -0.541045 0.996545
vt 0.486046 0.692612
vt 1.000000 0.692612
vt 0.267239 0.996545
vt 0.267239 0.880729
vt 0.370002 0.691466
vt 0.425957 0.691466
vt 0.425957 0.750526
vt 0.370002 0.750526
vt 0.338663 0.996545
vt 0.338663 0.880729
vt 0.481912 0.691466
vt 0.481912 0.750526
vt 0.410087 0.996545
vt 0.410087 0.880729
vt 0.481511 0.996545
vt 0.481511 0.880729
vt 0.537867 0.691466
vt 0.593823 0.691466
vt 0.593823 0.750526
vt 0.537867 0.750526
vt 0.552934 0.996545
vt 0.552934 0.880729
vt 0.624359 0.996545
vt 0.624359 0.880729
vt 0.649778 0.691466
vt 0.705733 0.691466
vt 0.705733 0.750526
vt 0.649778 0.750526
vt 0.695783 0.996545
vt 0.695783 0.880729
vt 0.761689 0.691466
vt 0.761689 0.750526
vt 0.767207 0.996545
vt 0.767207 0.880729
vt 0.838631 0.996545
vt 0.838631 0.880729
vt 0.817644 0.691466
vt 0.873599 0.691466
vt 0.873599 0.750526
vt 0.817644 0.750526
vt 0.910054 0.996545
vt 0.910054 0.880729
vt 0.929554 0.691466
vt 0.929554 0.750526
vt 0.981478 0.996545
vt 0.981478 0.880729
vt 1.000000 0.996545
vt 1.000000 0.880729
vt 0.985510 0.691466
vt 1.000000 0.691466
vt 1.000000 0.750526
vt 0.985510 0.750526
vt 0.486046 0.692612
vt -0.121228 0.750526
vt -0.121228 0.691465
vt 1.000000 0.880729
vt 0.156396 0.377337
vt 0.087430 0.377337
vt 0.087430 0.217649
vt 0.156396 0.217649
vt 1.084454 0.872802
vt 1.499965 0.872802
vt 1.499965 0.865133
vt 1.084454 0.865133
vt -0.084454 0.995896
vt -0.499965 0.995896
vt -0.499965 0.988190
vt -0.084454 0.988190
vt 0.000000 0.873889
vt 0.499965 0.872802
vt 0.499965 0.865133
vt 0.084454 0.865133
vt -0.081754 0.874976
vt 0.333756 0.874976
vt 0.333756 0.882682
vt -0.081754 0.882682
vt -0.084454 0.752466
vt -0.499965 0.752466
vt -0.499965 0.760135
vt -0.084454 0.760135
vt 0.584454 0.995896
vt 0.999965 0.995896
vt 0.999965 0.988190
vt 0.584454 0.988190
vt 1.045034 0.874976
vt 1.460544 0.874976
vt 1.460544 0.881383
vt 1.045034 0.881383
vt 1.220623 0.752466
vt 1.636134 0.752466
vt 1.636134 0.760135
vt 1.220623 0.760135
vt 0.084454 0.760135
vt 0.499965 0.760135
vt 0.499965 0.752466
vt 0.084454 0.752466
vt -0.081754 0.988190
vt 0.333756 0.988190
vt 0.333756 0.995896
vt -0.081754 0.995896
vt -0.084454 0.865133
vt -0.499965 0.865133
vt -0.499965 0.872802
vt -0.084454 0.872802
vt 0.584454 0.882682
vt 0.999965 0.882682
vt 0.999965 0.874976
vt 0.584454 0.874976
vt 1.045034 0.986891
vt 1.460544 0.986891
vt 1.460544 0.995896
vt 1.045034 0.995896
vt 1.220623 0.865133
vt 1.636134 0.865133
vt 1.636134 0.872802
vt 1.220623 0.872802
vt 1.084454 0.760135
vt 1.499965 0.760135
vt 1.499965 0.752466
vt 1.084454 0.752466
vt -0.084454 0.882682
vt -0.499965 0.882682
vt -0.499965 0.874976
vt 0.940463 0.747971
vt 1.000000 0.747971
vt 0.940463 0.692612
vt 0.247765 0.996169
vt 0.247765 0.882737
vt 0.818460 0.882737
vt 0.818460 0.996169
vt 0.059537 0.882737
vt 0.059537 0.996169
vt 0.000000 0.996169
vt 0.000000 0.882737
vt 0.940463 0.747971
vt 1.000000 0.882737
vt 1.000000 0.996169
vt 0.925665 0.996169
vt 0.925665 0.882737
vt 0.000000 0.747971
vt 0.074335 0.747971
vt 0.074335 0.692612
vt 0.000000 0.692612
vt 0.074335 0.747971
vt 0.074335 0.692612
vt 0.752235 0.747971
vt 0.752235 0.692612
vt 0.181540 0.692612
vt 0.181540 0.747971
vt 0.127938 0.882737
vt 0.127938 0.996169
vt 0.872062 0.996169
vt 0.872062 0.882737
vt 0.872062 0.692612
vt 0.872062 0.747971
vt 0.127938 0.747971
vt 0.127938 0.692612
vt 0.127938 0.747971
vt 0.181540 0.747971
vt 0.752235 0.747971
vt 0.752235 0.692612
s 1
usemtl MI_Plaster
f 4/1/1 2/2/2 1/3/2 3/4/1
f 4/1/1 3/4/1 5/5/3 6/6/3
f 6/6/3 5/5/3 7/7/4 8/8/4
f 8/8/4 7/7/4 9/9/5 10/10/5
f 10/10/5 9/9/5 11/11/6 12/12/6
f 12/12/6 11/11/6 13/13/7 14/14/7
f 14/14/7 13/13/7 15/15/8 16/16/8
f 16/16/8 15/15/8 17/17/9 18/18/9
f 18/18/9 17/17/9 19/19/10 20/20/10
f 20/20/10 19/19/10 21/21/11 22/22/11
f 22/22/11 21/21/11 23/23/12 24/24/12
f 24/24/13 23/23/13 25/25/13 26/26/13
s 3
usemtl MI_WoodTrim
f 59/59/29 87/60/29 88/61/29 60/62/29
s 4
f 62/63/30 61/64/30 59/65/30 60/66/30
f 61/67/31 89/67/31 87/68/32 59/68/32
f 61/64/30 62/63/30 64/69/30 63/70/30
f 90/71/33 92/72/34 64/73/34 62/74/33
f 63/67/35 91/67/35 89/67/31 61/67/31
f 63/70/30 64/69/30 66/75/30 65/76/30
f 92/72/34 94/77/36 66/78/36 64/73/34
f 65/76/30 66/75/30 68/79/30 67/80/30
f 67/80/30 68/79/30 70/81/30 69/82/30
f 96/83/37 98/84/38 70/85/38 68/86/37
f 69/67/39 97/67/39 95/67/40 67/67/40
f 69/82/30 70/81/30 72/87/30 71/88/30
f 71/88/30 72/87/30 74/89/30 73/90/30
f 100/91/41 102/92/42 74/93/42 72/94/41
f 73/90/30 74/89/30 76/95/30 75/96/30
f 102/92/42 104/97/43 76/98/43 74/93/42
f 75/67/44 103/67/44 101/67/45 73/67/45
f 75/96/30 76/95/30 78/99/30 77/100/30
f 77/100/30 78/99/30 80/101/30 79/102/30
f 106/103/46 108/104/47 80/105/47 78/106/46
f 79/102/30 80/101/30 82/107/30 81/108/30
f 79/67/48 107/67/48 105/67/49 77/67/49
f 108/104/47 110/109/50 82/110/50 80/105/47
f 81/108/30 82/107/30 84/111/30 83/112/30
f 83/112/30 84/111/30 86/113/30 85/114/30
f 112/115/51 114/116/52 86/117/52 84/118/51
f 85/67/53 113/119/53 111/67/54 83/67/54
f 110/109/50 112/115/51 84/118/51 82/110/50
f 83/67/54 111/67/54 109/67/55 81/67/55
f 81/67/55 109/67/55 107/67/48 79/67/48
f 104/97/43 106/103/46 78/106/46 76/98/43
f 77/67/49 105/67/49 103/67/44 75/67/44
f 73/67/45 101/67/45 99/67/56 71/67/56
f 98/84/38 100/91/41 72/94/41 70/85/38
f 71/67/56 99/67/56 97/67/39 69/67/39
f 94/77/36 96/83/37 68/86/37 66/78/36
f 67/67/40 95/67/40 93/67/57 65/67/57
f 65/67/57 93/67/57 91/67/35 63/67/35
f 60/120/14 88/121/14 90/71/33 62/74/33
f 90/63/58 88/66/58 87/65/58 89/64/58
f 89/64/58 91/70/58 92/69/58 90/63/58
f 91/70/58 93/76/58 94/75/58 92/69/58
f 93/76/58 95/80/58 96/79/58 94/75/58
f 95/80/58 97/82/58 98/81/58 96/79/58
f 97/82/58 99/88/58 100/87/58 98/81/58
f 99/88/58 101/90/58 102/89/58 100/87/58
f 101/90/58 103/96/58 104/95/58 102/89/58
f 103/96/58 105/100/58 106/99/58 104/95/58
f 105/100/58 107/102/58 108/101/58 106/99/58
f 107/102/58 109/108/58 110/107/58 108/101/58
f 109/108/58 111/112/58 112/111/58 110/107/58
f 111/112/58 113/122/58 114/113/58 112/111/58
f 113/123/14 85/124/14 86/125/14 114/126/14
s 0
f 185/190/12 171/191/12 169/68/12 183/192/12
f 182/193/2 192/194/2 194/195/2 180/196/2
f 191/197/2 183/198/2 169/199/2 170/200/2
f 172/191/63 177/201/63 191/192/63 170/68/63
f 166/202/2 165/203/2 179/204/2 195/205/2
f 167/206/12 189/207/12 179/208/12 165/209/12
f 173/210/63 168/206/63 166/209/63 195/211/63
f 186/212/12 182/213/12 180/214/12 188/215/12
f 183/198/2 191/197/2 193/216/2 184/217/2
f 184/217/2 193/216/2 192/194/2 182/193/2
f 195/205/2 179/204/2 181/218/2 196/219/2
f 196/219/2 181/218/2 180/196/2 194/195/2
f 185/190/64 183/192/64 184/220/64 187/221/64
f 187/221/65 184/220/65 182/213/65 186/212/65
f 179/208/66 189/207/66 190/222/66 181/223/66
f 181/223/67 190/222/67 188/215/67 180/214/67
f 173/210/68 195/211/68 196/223/68 175/224/68
f 175/224/69 196/223/69 194/214/69 174/225/69
f 191/192/70 177/201/70 178/221/70 193/220/70
f 193/220/71 178/221/71 176/226/71 192/227/71
f 174/225/63 194/214/63 192/227/63 176/226/63
s 50
f 199/202/2 200/203/2 204/199/2 203/200/2
s 51
f 204/191/63 200/206/63 198/209/63 202/68/63
s 52
f 199/206/12 203/191/12 201/68/12 197/209/12
s 53
f 198/202/14 197/203/14 201/199/14 202/200/14
s 54
f 207/202/2 208/203/2 212/199/2 211/200/2
s 55
f 212/191/63 208/206/63 206/209/63 210/68/63
s 56
f 207/206/12 211/191/12 209/68/12 205/209/12
s 57
f 206/202/14 205/203/14 209/199/14 210/200/14
s 2
usemtl MI_UnevenBrick
f 29/27/14 30/28/14 27/29/14 28/30/14
f 31/31/15 32/32/15 30/28/14 29/27/14
f 32/32/15 31/31/15 33/33/16 34/34/16
f 34/34/16 33/33/16 35/35/17 36/36/17
f 36/36/17 35/35/17 37/37/18 38/38/18
f 38/38/18 37/37/18 39/39/19 40/40/19
f 40/40/19 39/39/19 41/41/20 42/42/20
f 42/42/20 41/41/20 43/43/21 44/44/21
f 44/44/21 43/43/21 45/45/22 46/46/22
f 46/46/22 45/45/22 47/47/23 48/48/23
f 48/48/23 47/47/23 49/49/24 50/50/24
f 50/50/24 49/49/24 51/51/25 52/52/25
f 52/52/25 51/51/25 53/53/26 54/54/26
f 54/54/26 53/53/26 55/55/27 56/56/27
f 56/56/27 55/55/27 57/57/28 58/58/28
s 5
usemtl MI_WoodTrim_Wear
f 148/127/59 123/128/59 139/129/59 164/130/59
s 6
f 140/131/59 115/132/59 125/133/59 150/134/59
s 7
f 143/135/59 117/136/59 127/137/59 152/138/59
s 8
f 144/139/59 118/140/59 129/141/59 154/142/59
s 9
f 145/143/59 119/144/59 131/145/59 156/146/59
s 10
f 142/147/59 120/148/59 133/149/59 158/150/59
s 11
f 146/151/60 121/152/60 135/153/60 160/154/60
s 12
f 147/155/59 122/156/59 137/157/59 162/158/59
s 13
f 151/159/61 126/160/61 118/161/61 144/162/61
s 14
f 153/163/61 128/164/61 119/165/61 145/166/61
s 15
f 155/167/61 130/168/61 120/169/61 142/170/61
s 16
f 157/171/61 132/172/61 121/173/61 146/174/61
s 17
f 159/175/62 134/176/62 122/177/62 147/178/62
s 18
f 161/179/61 136/180/61 123/181/61 148/182/61
s 19
f 163/183/61 138/184/61 116/185/61 141/186/61
s 20
f 149/187/61 124/188/61 117/189/61 143/135/61
s 21
f 138/184/14 163/183/14 164/130/14 139/129/14
s 22
f 136/180/14 161/179/14 162/158/14 137/157/14
s 23
f 134/176/14 159/175/14 160/154/14 135/153/14
s 24
f 132/172/14 157/171/14 158/150/14 133/149/14
s 25
f 130/168/14 155/167/14 156/146/14 131/145/14
s 26
f 128/164/14 153/163/14 154/142/14 129/141/14
s 27
f 126/160/14 151/159/14 152/138/14 127/137/14
s 28
f 124/188/14 149/187/14 150/134/14 125/133/14
