# Blender 4.0.2
# www.blender.org
mtllib Overhang_WoodBrick_Corner_Front.mtl
o Overhang_WoodBrick_Corner_Front
v -2.000000 0.883107 -1.092447
v -2.000000 0.649580 -1.092447
v -2.000000 0.883107 -0.987485
v -2.000000 0.649580 -0.987485
v 0.000001 0.883105 -1.092447
v 0.000000 0.649578 -1.092447
v 0.000001 0.883105 -0.987485
v 0.000000 0.649578 -0.987485
v -0.220878 0.000000 -0.800000
v -0.220878 3.000000 -0.800000
v -2.000000 0.000000 -0.800001
v -2.000000 3.000000 -0.800001
v -0.164046 3.116765 -0.685966
v -0.164046 2.883237 -0.685966
v -0.164046 3.116765 -0.804906
v -0.164046 2.883237 -0.804906
v -2.000000 3.116763 -0.685965
v -2.000000 2.883235 -0.685965
v -2.000000 3.116763 -0.804906
v -2.000000 2.883235 -0.804906
v -2.000000 3.116765 -1.117570
v -2.000000 2.883237 -1.117570
v -2.000000 3.116765 -0.998630
v -2.000000 2.883237 -0.998630
v 0.000001 3.116763 -1.117570
v 0.000000 2.883235 -1.117570
v 0.000001 3.116763 -0.998630
v 0.000000 2.883235 -0.998630
v 1.092446 0.883107 0.000001
v 1.092446 0.649580 0.000000
v 0.987484 0.883107 0.000001
v 0.987484 0.649580 0.000001
v 1.092446 0.883105 2.000001
v 1.092446 0.649578 2.000000
v 0.987484 0.883105 2.000001
v 0.987484 0.649578 2.000000
v 0.799999 0.000000 2.000000
v 0.799999 3.000000 2.000000
v 0.800000 0.000000 0.208435
v 0.800000 3.000000 0.208435
v 0.685965 3.116765 2.000000
v 0.685965 2.883237 2.000001
v 0.804906 3.116765 2.000000
v 0.804906 2.883237 2.000000
v 0.685965 3.116763 0.186141
v 0.685965 2.883235 0.186141
v 0.804905 3.116763 0.186141
v 0.804905 2.883235 0.186141
v 1.117569 3.116765 0.000001
v 1.117569 2.883237 0.000000
v 0.998629 3.116765 0.000001
v 0.998629 2.883237 0.000001
v 1.117569 3.116763 2.000001
v 1.117569 2.883235 2.000001
v 0.998629 3.116763 2.000001
v 0.998629 2.883235 2.000000
v -2.000000 0.000000 -0.999999
v -0.250001 -0.000000 -1.000000
v -0.500001 -0.000000 -1.000000
v -0.750001 -0.000000 -1.000000
v -1.000001 0.000000 -1.000000
v -1.250001 0.000000 -1.000000
v -1.500000 0.000000 -1.000000
v -1.750000 0.000000 -0.999999
v -0.234069 -0.000000 -1.035134
v -0.015932 -0.000000 -1.035134
v -0.484069 -0.000000 -1.035133
v -0.265932 -0.000000 -1.035134
v -0.734069 -0.000000 -1.035133
v -0.515932 -0.000000 -1.035133
v -0.984069 -0.000000 -1.035133
v -0.765932 -0.000000 -1.035133
v -1.234069 0.000000 -1.035133
v -1.015932 0.000000 -1.035133
v -1.481383 0.000000 -1.035133
v -1.263247 0.000000 -1.035133
v -1.734069 0.000000 -1.035133
v -1.515932 0.000000 -1.035133
v -1.984069 0.000000 -1.035133
v -1.765932 0.000000 -1.035133
v -2.000000 0.831080 -0.999999
v -1.000000 0.831079 -1.000000
v -0.250001 0.831079 -1.000000
v -0.500001 0.831079 -1.000000
v -0.750001 0.831079 -1.000000
v -1.250001 0.831079 -1.000000
v -1.500000 0.831079 -1.000000
v -1.750000 0.831080 -0.999999
v -0.234069 0.831079 -1.035134
v -0.015932 0.831079 -1.035134
v -0.484069 0.831079 -1.035133
v -0.265932 0.831079 -1.035134
v -0.734069 0.831079 -1.035133
v -0.515932 0.831079 -1.035133
v -0.984069 0.831079 -1.035133
v -0.765932 0.831079 -1.035133
v -1.234069 0.831079 -1.035133
v -1.015932 0.831079 -1.035133
v -1.481383 0.831079 -1.035133
v -1.263247 0.831079 -1.035133
v -1.734069 0.831080 -1.035133
v -1.515932 0.831079 -1.035133
v -1.984069 0.831080 -1.035133
v -1.765932 0.831080 -1.035133
v 1.000001 -0.000000 1.999999
v 1.000000 0.000000 -0.000001
v 1.000001 -0.000000 1.749999
v 1.000000 -0.000000 1.499999
v 1.000000 -0.000000 1.249999
v 1.000000 0.000000 0.999999
v 1.000000 0.000000 0.749999
v 1.000000 0.000000 0.499999
v 1.000000 0.000000 0.249999
v 1.035134 -0.000000 1.765931
v 1.035134 -0.000000 1.984068
v 1.035134 -0.000000 1.515931
v 1.035134 -0.000000 1.734068
v 1.035134 -0.000000 1.265931
v 1.035134 -0.000000 1.484068
v 1.035134 -0.000000 1.015931
v 1.035134 -0.000000 1.234068
v 1.035134 0.000000 0.765931
v 1.035134 0.000000 0.984068
v 1.035134 0.000000 0.518617
v 1.035134 0.000000 0.736754
v 1.035134 0.000000 0.265931
v 1.035134 0.000000 0.484068
v 1.035133 0.000000 0.015931
v 1.035134 0.000000 0.234068
v 1.000001 0.831079 2.000000
v 1.000000 0.831080 -0.000000
v 1.000000 0.831079 1.000000
v 1.000001 0.831079 1.749999
v 1.000000 0.831079 1.499999
v 1.000000 0.831079 1.249999
v 1.000000 0.831079 0.749999
v 1.000000 0.831079 0.499999
v 1.000000 0.831080 0.249999
v 1.035134 0.831079 1.765931
v 1.035134 0.831079 1.984068
v 1.035134 0.831079 1.515931
v 1.035134 0.831079 1.734068
v 1.035134 0.831079 1.265931
v 1.035134 0.831079 1.484068
v 1.035134 0.831079 1.015931
v 1.035134 0.831079 1.234068
v 1.035134 0.831079 0.765931
v 1.035134 0.831079 0.984068
v 1.035134 0.831079 0.518617
v 1.035134 0.831079 0.736754
v 1.035134 0.831080 0.265931
v 1.035134 0.831079 0.484068
v 1.035133 0.831080 0.015931
v 1.035134 0.831080 0.234068
v 0.823223 -0.000000 -0.176777
v 0.667683 -0.000000 -0.336572
v 0.511077 -0.000000 -0.498314
v 0.334300 -0.000000 -0.675091
v 0.178068 0.000000 -0.823043
v 0.001291 0.000000 -0.999819
v 0.859332 -0.000000 -0.190355
v 1.013578 -0.000000 -0.036109
v 0.703792 -0.000000 -0.350150
v 0.836801 -0.000000 -0.212886
v 0.547185 -0.000000 -0.511892
v 0.681261 -0.000000 -0.372681
v 0.370409 -0.000000 -0.688669
v 0.524655 -0.000000 -0.534423
v 0.214176 0.000000 -0.836620
v 0.347878 -0.000000 -0.711199
v 0.039299 0.000000 -1.011498
v 0.193545 0.000000 -0.857252
v 0.334300 0.831079 -0.675091
v 0.823223 0.831079 -0.176777
v 0.667683 0.831079 -0.336572
v 0.511077 0.831079 -0.498314
v 0.178068 0.831079 -0.823043
v 0.001291 0.831079 -0.999819
v 0.859332 0.831079 -0.190355
v 1.013578 0.831079 -0.036109
v 0.703792 0.831079 -0.350150
v 0.836801 0.831079 -0.212886
v 0.547185 0.831079 -0.511892
v 0.681261 0.831079 -0.372681
v 0.370409 0.831079 -0.688669
v 0.524655 0.831079 -0.534423
v 0.214176 0.831079 -0.836620
v 0.347878 0.831079 -0.711199
v 0.039299 0.831079 -1.011498
v 0.193545 0.831079 -0.857252
v -0.000000 0.000000 -1.000000
v -0.000000 3.000000 -1.000000
v -2.000000 0.000000 -0.999999
v -2.000000 3.000000 -0.999999
v -0.000000 0.880000 -1.000000
v -2.000000 0.880000 -0.999999
v 1.000001 0.000000 2.000000
v 1.000001 3.000000 2.000000
v 1.000000 0.000000 -0.000000
v 1.000000 3.000000 -0.000000
v 1.000001 0.880000 2.000000
v 1.000000 0.880000 -0.000000
vn -0.0000 -0.0000 1.0000
vn -0.0000 -1.0000 -0.0000
vn -0.0000 1.0000 -0.0000
vn -0.0000 -0.0000 -1.0000
vn -1.0000 -0.0000 -0.0000
vn 1.0000 -0.0000 -0.0000
vn 0.7071 -0.0000 -0.7071
vn -0.7071 -0.0000 0.7071
vn -0.7028 -0.0000 0.7114
vn -0.7161 -0.0000 0.6980
vn 0.9107 -0.0000 -0.4130
vn 0.8988 -0.0000 -0.4384
vn 0.9357 -0.0000 -0.3528
vn -0.9107 -0.0000 -0.4130
vn -0.8836 -0.0000 -0.4682
vn 0.4130 -0.0000 0.9107
vn 0.3528 -0.0000 0.9357
vn 0.4130 -0.0000 -0.9107
vn 0.4682 -0.0000 -0.8836
vn 0.9360 -0.0000 0.3520
vn 0.9111 -0.0000 0.4122
vn -0.3520 -0.0000 -0.9360
vn -0.2937 -0.0000 -0.9559
vn 0.6842 -0.0000 -0.7293
vn 0.7203 -0.0000 -0.6937
vn 0.7182 -0.0000 -0.6959
vt 1.000000 0.882737
vt 1.000000 0.996169
vt 0.000000 0.996169
vt 0.000000 0.882737
vt 1.000000 0.747971
vt 0.000000 0.747971
vt 0.000000 0.692612
vt 1.000000 0.692612
vt 1.000000 0.999918
vt 1.000000 -0.250000
vt 0.000082 -0.250000
vt 0.000082 0.999918
vt 1.084454 0.872802
vt 1.499965 0.872802
vt 1.499965 0.865133
vt 1.084454 0.865133
vt -0.084454 0.995896
vt -0.499965 0.995896
vt -0.499965 0.988190
vt -0.084454 0.988190
vt 0.000000 0.873889
vt 0.499965 0.872802
vt 0.499965 0.865133
vt 0.084454 0.865133
vt -0.081754 0.874976
vt 0.333756 0.874976
vt 0.333756 0.882682
vt -0.081754 0.882682
vt -0.084454 0.752466
vt -0.499965 0.752466
vt -0.499965 0.760135
vt -0.084454 0.760135
vt 0.584454 0.995896
vt 0.999965 0.995896
vt 0.999965 0.988190
vt 0.584454 0.988190
vt 1.045034 0.874976
vt 1.460544 0.874976
vt 1.460544 0.881383
vt 1.045034 0.881383
vt 1.220623 0.752466
vt 1.636134 0.752466
vt 1.636134 0.760135
vt 1.220623 0.760135
vt 0.084454 0.760135
vt 0.499965 0.760135
vt 0.499965 0.752466
vt 0.084454 0.752466
vt -0.081754 0.988190
vt 0.333756 0.988190
vt 0.333756 0.995896
vt -0.081754 0.995896
vt -0.084454 0.865133
vt -0.499965 0.865133
vt -0.499965 0.872802
vt -0.084454 0.872802
vt 0.584454 0.882682
vt 0.999965 0.882682
vt 0.999965 0.874976
vt 0.584454 0.874976
vt 1.045034 0.986891
vt 1.460544 0.986891
vt 1.460544 0.995896
vt 1.045034 0.995896
vt 1.220623 0.865133
vt 1.636134 0.865133
vt 1.636134 0.872802
vt 1.220623 0.872802
vt 1.084454 0.760135
vt 1.499965 0.760135
vt 1.499965 0.752466
vt 1.084454 0.752466
vt -0.084454 0.882682
vt -0.499965 0.882682
vt -0.499965 0.874976
vt 0.000071 -0.423211
vt 0.999929 -0.423211
vt 0.999929 -0.002548
vt 0.000071 -0.002548
vt 0.000000 -0.002548
vt 1.000000 -0.002548
vt 1.000000 1.000000
vt 0.000000 1.000000
vt 0.999947 -0.002548
vt 0.000088 -0.002548
vt 0.000088 -0.423211
vt 0.999947 -0.423211
vt 1.000018 1.000000
vt 0.000018 1.000000
vt 0.000018 -0.002548
s 0
usemtl MI_WoodTrim
f 3/1/1 4/2/1 8/3/1 7/4/1
f 8/5/2 4/6/2 2/7/2 6/8/2
f 3/6/3 7/5/3 5/8/3 1/7/3
f 2/1/4 1/2/4 5/3/4 6/4/4
f 20/5/2 16/6/2 14/7/2 18/8/2
f 15/6/3 19/5/3 17/8/3 13/7/3
f 14/1/1 13/2/1 17/3/1 18/4/1
f 23/1/1 24/2/1 28/3/1 27/4/1
f 28/5/2 24/6/2 22/7/2 26/8/2
f 23/6/3 27/5/3 25/8/3 21/7/3
f 22/1/4 21/2/4 25/3/4 26/4/4
f 31/1/5 32/2/5 36/3/5 35/4/5
f 36/5/2 32/6/2 30/7/2 34/8/2
f 31/6/3 35/5/3 33/8/3 29/7/3
f 30/1/6 29/2/6 33/3/6 34/4/6
f 48/5/2 44/6/2 42/7/2 46/8/2
f 43/6/3 47/5/3 45/8/3 41/7/3
f 42/1/5 41/2/5 45/3/5 46/4/5
f 51/1/5 52/2/5 56/3/5 55/4/5
f 56/5/2 52/6/2 50/7/2 54/8/2
f 51/6/3 55/5/3 53/8/3 49/7/3
f 50/1/6 49/2/6 53/3/6 54/4/6
f 31/6/3 29/7/3 5/8/3 7/5/3
f 29/2/7 30/1/7 6/4/7 5/3/7
f 30/7/2 32/6/2 8/5/2 6/8/2
f 32/2/8 31/1/8 7/4/8 8/3/8
f 51/6/3 49/7/3 25/8/3 27/5/3
f 49/2/7 50/1/7 26/4/7 25/3/7
f 50/7/2 52/6/2 28/5/2 26/8/2
f 52/2/8 51/1/8 27/4/8 28/3/8
f 48/5/2 46/8/2 14/7/2 16/6/2
f 46/4/10 45/3/10 13/2/10 14/1/10
f 45/8/3 47/5/3 15/6/3 13/7/3
usemtl MI_Plaster
f 12/9/1 11/10/1 9/11/1 10/12/1
f 40/9/5 39/10/5 37/11/5 38/12/5
f 39/10/9 40/9/9 10/12/9 9/11/9
s 37
usemtl MI_WoodTrim_Wear
f 88/13/11 64/14/11 80/15/11 104/16/11
f 178/17/12 160/18/12 66/19/12 90/20/12
f 83/21/11 58/22/11 68/23/11 92/24/11
f 84/25/11 59/26/11 70/27/11 94/28/11
f 85/29/11 60/30/11 72/31/11 96/32/11
f 82/33/11 61/34/11 74/35/11 98/36/11
f 86/37/13 62/38/13 76/39/13 100/40/13
f 87/41/11 63/42/11 78/43/11 102/44/11
f 91/45/14 67/46/14 59/47/14 84/48/14
f 93/49/14 69/50/14 60/51/14 85/52/14
f 95/53/14 71/54/14 61/55/14 82/56/14
f 97/57/14 73/58/14 62/59/14 86/60/14
f 99/61/15 75/62/15 63/63/15 87/64/15
f 101/65/14 77/66/14 64/67/14 88/68/14
f 103/69/14 79/70/14 57/71/14 81/72/14
f 89/73/14 65/74/14 58/75/14 83/21/14
f 79/70/4 103/69/4 104/16/4 80/15/4
f 77/66/4 101/65/4 102/44/4 78/43/4
f 75/62/4 99/61/4 100/40/4 76/39/4
f 73/58/4 97/57/4 98/36/4 74/35/4
f 71/54/4 95/53/4 96/32/4 72/31/4
f 69/50/4 93/49/4 94/28/4 70/27/4
f 67/46/4 91/45/4 92/24/4 68/23/4
f 65/74/4 89/73/4 90/20/4 66/19/4
f 138/13/16 113/14/16 129/15/16 154/16/16
f 130/17/16 105/18/16 115/19/16 140/20/16
f 133/21/16 107/22/16 117/23/16 142/24/16
f 134/25/16 108/26/16 119/27/16 144/28/16
f 135/29/16 109/30/16 121/31/16 146/32/16
f 132/33/16 110/34/16 123/35/16 148/36/16
f 136/37/17 111/38/17 125/39/17 150/40/17
f 137/41/16 112/42/16 127/43/16 152/44/16
f 141/45/18 116/46/18 108/47/18 134/48/18
f 143/49/18 118/50/18 109/51/18 135/52/18
f 145/53/18 120/54/18 110/55/18 132/56/18
f 147/57/18 122/58/18 111/59/18 136/60/18
f 149/61/19 124/62/19 112/63/19 137/64/19
f 151/65/18 126/66/18 113/67/18 138/68/18
f 153/69/18 128/70/18 106/71/18 131/72/18
f 139/73/18 114/74/18 107/75/18 133/21/18
f 128/70/6 153/69/6 154/16/6 129/15/6
f 126/66/6 151/65/6 152/44/6 127/43/6
f 124/62/6 149/61/6 150/40/6 125/39/6
f 122/58/6 147/57/6 148/36/6 123/35/6
f 120/54/6 145/53/6 146/32/6 121/31/6
f 118/50/6 143/49/6 144/28/6 119/27/6
f 116/46/6 141/45/6 142/24/6 117/23/6
f 114/74/6 139/73/6 140/20/6 115/19/6
f 131/17/20 106/18/20 162/19/20 180/20/20
f 174/21/20 155/22/20 164/23/20 182/24/20
f 175/25/20 156/26/20 166/27/20 184/28/20
f 176/29/20 157/30/20 168/31/20 186/32/20
f 173/33/20 158/34/20 170/35/20 188/36/20
f 177/37/21 159/38/21 172/39/21 190/40/21
f 181/45/22 163/46/22 156/47/22 175/48/22
f 183/49/22 165/50/22 157/51/22 176/52/22
f 185/53/22 167/54/22 158/55/22 173/56/22
f 187/57/22 169/58/22 159/59/22 177/60/22
f 189/61/23 171/62/23 160/63/23 178/64/23
f 179/73/22 161/74/22 155/75/22 174/21/22
f 171/62/7 189/61/7 190/40/7 172/39/7
f 169/58/24 187/57/24 188/36/24 170/35/24
f 167/54/7 185/53/7 186/32/7 168/31/7
f 165/50/25 183/49/25 184/28/25 166/27/25
f 163/46/26 181/45/26 182/24/26 164/23/26
f 161/74/7 179/73/7 180/20/7 162/19/7
s 38
usemtl MI_UnevenBrick
f 191/76/4 193/77/4 196/78/4 195/79/4
f 195/80/4 196/81/4 194/82/4 192/83/4
f 197/76/6 199/77/6 202/78/6 201/79/6
f 201/80/6 202/81/6 200/82/6 198/83/6
f 195/84/7 202/85/7 199/86/7 191/87/7
f 192/88/7 200/89/7 202/90/7 195/84/7
