# Blender 4.0.2
# www.blender.org
mtllib Overhang_Side_WoodBrick_Long_L.mtl
o Overhang_Side_WoodBrick_Long_L
v -1.005432 6.000000 0.007269
v -0.795260 6.000000 0.007269
v -1.005432 6.000000 -0.232370
v -0.795260 6.000000 -0.232370
v -1.005431 3.000000 0.007270
v -0.795260 3.000000 0.007269
v -1.005432 3.000000 -0.232370
v -0.795260 3.000000 -0.232370
v -0.795260 3.000000 0.007269
v -0.985431 3.000000 0.007270
v -0.999999 0.102187 -0.007063
v -0.999999 0.510897 0.222927
v -1.000000 1.849939 -0.010602
v -1.000000 1.849939 0.222926
v -1.000000 1.997336 -0.002258
v -1.000000 1.966854 0.229271
v -1.000000 2.142382 0.025253
v -1.000000 2.081941 0.250823
v -1.000000 2.282597 0.071460
v -1.000000 2.193230 0.287211
v -1.000000 2.415581 0.135575
v -1.000000 2.297776 0.337815
v -1.000000 2.538660 0.216499
v -1.000000 2.391136 0.401768
v -1.000000 2.646050 0.312847
v -1.000000 2.472020 0.477976
v -1.000000 2.735808 0.422972
v -1.000000 2.539707 0.565134
v -1.000000 2.807593 0.544989
v -1.000000 2.593880 0.661752
v -1.000000 2.860154 0.676810
v -1.000000 2.634542 0.766018
v -1.000000 2.893213 0.814220
v -1.000000 2.661434 0.871217
v -1.000000 2.909489 0.950841
v -1.000000 2.675708 0.980552
v -1.000000 2.909303 1.122835
v -1.000000 2.675568 1.122835
v -1.123584 0.102187 -0.007063
v -1.123584 0.510897 0.222927
v -1.123584 1.849939 -0.010602
v -1.123584 1.849939 0.222926
v -1.123584 1.997336 -0.002258
v -1.123584 1.966854 0.229271
v -1.123584 2.142382 0.025253
v -1.123584 2.081941 0.250823
v -1.123584 2.282597 0.071460
v -1.123584 2.193230 0.287211
v -1.123584 2.415581 0.135575
v -1.123584 2.297776 0.337815
v -1.123584 2.538660 0.216499
v -1.123584 2.391136 0.401768
v -1.123584 2.646050 0.312847
v -1.123584 2.472020 0.477976
v -1.123584 2.735808 0.422972
v -1.123584 2.539707 0.565134
v -1.123584 2.807593 0.544989
v -1.123584 2.593880 0.661752
v -1.123584 2.860154 0.676810
v -1.123584 2.634542 0.766018
v -1.123584 2.893213 0.814220
v -1.123584 2.661434 0.871217
v -1.123584 2.909489 0.950841
v -1.123584 2.675708 0.980552
v -1.123584 2.909303 1.122835
v -1.123584 2.675568 1.122835
v -1.105087 6.000000 1.119820
v -0.894915 6.000000 1.119820
v -1.105087 6.000000 0.880180
v -0.894915 6.000000 0.880180
v -1.165297 2.907979 1.119820
v -0.894913 2.907979 1.119820
v -1.165297 2.907979 0.880180
v -0.894913 2.907979 0.880180
v -1.105966 2.909538 0.120823
v -0.894034 2.909538 0.120823
v -1.105966 2.909538 -0.120823
v -0.894034 2.909538 -0.120823
v -1.105086 2.020782 0.197371
v -1.105086 1.979217 0.004497
v -1.102772 2.364242 -0.112410
v -0.897228 2.424341 0.123826
v -0.897228 2.364243 -0.112410
v -1.102772 2.424340 0.123827
v -1.105087 6.000000 0.119820
v -0.894915 6.000000 0.119820
v -1.105087 6.000000 -0.119820
v -0.894915 6.000000 -0.119820
v -1.014672 2.909538 0.120823
v -1.014672 2.909538 -0.120823
v -1.014550 2.020782 0.197371
v -1.014550 1.979218 0.004497
v -1.014230 2.364243 -0.112410
v -1.014230 2.424341 0.123826
v -1.014551 6.000000 0.119820
v -1.014551 6.000000 -0.119820
v -0.896966 2.320654 -0.099175
v -1.103034 2.378653 0.132153
v -1.103034 2.320653 -0.099175
v -0.897144 2.409759 0.126484
v -1.014266 2.320653 -0.099175
v -1.014242 2.409759 0.126484
v -0.800000 1.906325 0.000000
v -0.800000 2.036852 0.008555
v -0.800000 2.165144 0.034074
v -0.800000 2.289009 0.076121
v -0.800000 2.406325 0.133975
v -0.800000 2.515087 0.206647
v -0.800000 2.613432 0.292893
v -0.800000 2.699679 0.391239
v -0.800000 2.772351 0.500000
v -0.800000 2.830205 0.617317
v -0.800000 2.872251 0.741181
v -0.800000 2.897770 0.869474
v -0.800000 2.906325 2.000000
v -0.800000 2.913550 2.000000
v -0.800000 1.906325 -0.000944
v -0.800000 2.036852 -0.000944
v -0.800000 2.165144 -0.000944
v -0.800000 2.289009 -0.000944
v -0.800000 2.406325 -0.000944
v -0.800000 2.515087 -0.000944
v -0.800000 2.613432 -0.000944
v -0.800000 2.699679 -0.000944
v -0.800000 2.772351 -0.000944
v -0.800000 2.830205 -0.000944
v -0.800000 2.872251 -0.000944
v -0.800000 2.897770 -0.000944
v -0.800000 2.906325 -0.000944
v -0.800000 2.913550 -0.000944
v -1.000000 3.116765 -0.314034
v -1.000000 3.116765 -0.195093
v -0.685964 3.116763 -0.313710
v -0.806933 3.116765 -0.195093
v -0.685966 3.116765 2.000000
v -0.804906 3.116765 2.000000
v -1.000000 6.116765 -0.314034
v -1.000000 5.883237 -0.314034
v -1.000000 6.116765 -0.195093
v -1.000000 5.883237 -0.195093
v -0.685964 6.116763 -0.313710
v -0.685965 5.883235 -0.313710
v -0.806933 6.116765 -0.195093
v -0.806630 5.883237 -0.195093
v -0.685966 6.116765 2.000000
v -0.685966 5.883237 2.000000
v -0.804906 6.116765 2.000000
v -0.804906 5.883237 2.000000
v -1.092446 3.883107 0.000000
v -1.092446 3.649580 0.000000
v -0.987484 3.883107 0.000000
v -0.987484 3.649580 0.000000
v -1.092447 3.883105 2.000000
v -1.092447 3.649578 2.000000
v -0.987485 3.883105 2.000000
v -0.987485 3.649578 2.000000
v -1.117569 6.116765 0.000000
v -1.117569 5.883237 0.000000
v -0.998629 6.116765 0.000000
v -0.998629 5.883237 0.000000
v -1.117570 6.116763 2.000000
v -1.117570 5.883235 2.000000
v -0.998630 6.116763 2.000000
v -0.998630 5.883235 2.000000
v -0.800000 3.000000 2.000000
v -0.800000 6.000000 2.000000
v -0.800000 3.000000 0.000000
v -0.800000 6.000000 0.000000
v -1.097955 3.116765 0.000000
v -1.097955 2.883237 0.000000
v -0.998629 3.116765 0.000000
v -0.998629 2.883237 0.000000
v -1.117570 3.116763 2.000000
v -1.117570 2.883235 2.000000
v -0.998630 3.116763 2.000000
v -0.998630 2.883235 2.000000
v -1.000000 2.974299 -0.314034
v -0.685964 2.974297 -0.313710
v -0.685966 2.974299 2.000000
v -1.000000 3.000000 2.000000
v -1.000000 3.000000 1.750000
v -1.000000 3.000000 1.500000
v -1.000000 3.000000 1.250000
v -1.000000 3.000000 1.000000
v -1.035134 3.000000 1.765931
v -1.035134 3.000000 1.984068
v -1.035134 3.000000 1.515931
v -1.035134 3.000000 1.734068
v -1.035134 3.000000 1.265931
v -1.035134 3.000000 1.484068
v -1.035134 3.000000 1.015931
v -1.035134 3.000000 1.234068
v -1.000000 3.831079 2.000000
v -1.000000 3.831079 1.000000
v -1.000000 3.831079 1.750000
v -1.000000 3.831079 1.500000
v -1.000000 3.831079 1.250000
v -1.035134 3.831079 1.765932
v -1.035134 3.831079 1.984068
v -1.035134 3.831079 1.515931
v -1.035134 3.831079 1.734068
v -1.035134 3.831079 1.265931
v -1.035134 3.831079 1.484068
v -1.035134 3.831079 1.015931
v -1.035134 3.831079 1.234068
v -0.969067 2.962142 0.887014
v -1.004201 2.962142 0.652945
v -1.004201 2.962142 0.871082
v -1.004201 2.962142 -0.023023
v -0.969067 3.793338 0.887014
v -0.969067 3.793338 0.637014
v -0.969067 3.793338 0.387013
v -0.969067 3.793338 0.137014
v -1.004201 3.793338 0.652945
v -1.004201 3.793338 0.871082
v -1.004201 3.793338 0.402945
v -1.004201 3.793338 0.621082
v -1.004201 3.793338 0.152945
v -1.004201 3.793338 0.371082
v -1.004201 3.793338 0.121082
v -1.004201 3.793338 -0.023023
v -0.969067 2.962142 0.637014
v -0.969067 2.962142 0.387014
v -0.969067 2.962142 0.137014
v -1.004201 2.962142 0.621082
v -1.004201 2.962142 0.402945
v -0.969067 2.353836 0.137014
v -1.004201 2.353836 0.121082
v -1.004201 2.962142 0.371082
v -1.004201 2.962142 0.152945
v -1.004201 2.962142 0.121082
v -1.004201 2.353836 -0.023023
v -1.004201 2.353836 0.152945
v -0.969067 2.786408 0.637014
v -0.969067 2.634551 0.387014
v -1.004201 2.621310 0.371082
v -1.004201 2.647459 0.402945
v -0.969067 2.863765 0.887014
v -1.004201 2.791693 0.652945
v -1.004201 2.779703 0.621082
v -1.004201 2.860815 0.871082
v -1.000000 6.000000 2.000000
v -1.000000 6.000000 0.000000
v -1.000000 3.880000 2.000000
v -1.000000 3.880000 0.000000
v -1.000000 3.880000 1.000000
v -1.000000 6.000000 1.000000
v -0.985432 3.000000 -0.232370
v -0.795260 3.000000 -0.232370
v -0.985431 -0.000000 -0.232370
v -0.795258 0.000000 -0.232370
v -0.795259 1.796202 -0.232370
v -0.985432 1.796202 -0.232370
v -0.985432 2.382959 -0.232370
v -0.795259 2.382959 0.007269
v -0.795259 2.382959 -0.232370
v -0.985431 2.382959 0.007270
v -0.985431 -0.000000 -0.154635
v -0.795259 1.796202 -0.154635
v -0.795258 0.000000 -0.154635
v -0.985432 1.796202 -0.154635
vn -0.0000 1.0000 -0.0000
vn -0.0000 -0.0000 -1.0000
vn 1.0000 -0.0000 -0.0000
vn -1.0000 -0.0000 -0.0000
vn -0.0000 -0.0000 1.0000
vn -0.0000 -1.0000 -0.0000
vn -0.0000 -0.4904 0.8715
vn -0.0000 -0.2535 0.9673
vn -0.0000 0.0273 -0.9996
vn -0.0000 -0.0020 -1.0000
vn -0.0000 -0.0271 0.9996
vn -0.0000 -0.1194 0.9928
vn -0.0000 0.1217 -0.9926
vn -0.0000 -0.2480 0.9688
vn -0.0000 -0.3741 0.9274
vn -0.0000 -0.5018 0.8650
vn -0.0000 0.4929 -0.8701
vn -0.0000 0.3744 -0.9273
vn -0.0000 -0.6273 0.7788
vn -0.0000 -0.7400 0.6726
vn -0.0000 -0.8333 0.5528
vn -0.0000 0.8209 -0.5711
vn -0.0000 0.7237 -0.6902
vn -0.0000 -0.9041 0.4272
vn -0.0000 -0.9520 0.3061
vn -0.0000 0.9530 -0.3029
vn -0.0000 0.8980 -0.4400
vn -0.0000 -0.9820 0.1889
vn -0.0000 -0.9979 0.0644
vn -0.0000 -1.0000 -0.0010
vn -0.0000 1.0000 0.0011
vn -0.0000 0.9983 -0.0587
vn -0.0000 0.9843 -0.1764
vn -0.0000 0.6103 -0.7922
vn -0.0000 0.2502 -0.9682
vn -0.9998 0.0195 -0.0000
vn 1.0000 -0.0062 0.0008
vn -0.0000 0.1793 0.9838
vn -1.0000 0.0056 -0.0013
vn -0.0000 -0.0154 -0.9999
vn -1.0000 -0.0062 0.0008
vn -0.0000 0.0062 1.0000
vn 1.0000 0.0056 -0.0014
vn -0.0000 0.0003 -1.0000
vn 1.0000 0.0003 -0.0000
vn -1.0000 0.0003 -0.0000
vn -0.0000 0.0003 1.0000
vn -0.0000 -0.2905 -0.9569
vn -1.0000 0.0055 -0.0014
vn 0.0010 -0.0000 -1.0000
vn -1.0000 -0.0000 -0.0098
vn -0.4130 -0.0000 0.9107
vn -0.4130 -0.0000 -0.9107
vt 0.332501 0.213019
vt 0.332501 0.373570
vt 0.490323 0.373570
vt 0.490323 0.213019
vt 1.000000 0.882737
vt 1.000000 0.996169
vt 0.000000 0.996169
vt 0.000000 0.882737
vt 1.000000 0.867594
vt 0.000000 0.867594
vt 0.000000 0.757548
vt 1.000000 0.757548
vt 0.439128 0.373570
vt 0.439128 0.213019
vt 0.083520 0.210885
vt 0.083520 0.377037
vt 0.158193 0.377037
vt 0.158193 0.210885
vt 0.475559 0.996545
vt -0.261302 0.996545
vt -0.261302 0.880729
vt 0.475559 0.880729
vt 0.502473 0.743720
vt 0.000000 0.743720
vt 0.000000 0.692207
vt 0.502473 0.692207
vt 0.546983 0.880729
vt 0.546983 0.996545
vt 0.403693 0.691466
vt 0.403693 0.750526
vt 0.459648 0.750526
vt 0.459648 0.691466
vt 0.544577 0.743720
vt 0.544577 0.692207
vt 0.618407 0.880729
vt 0.618407 0.996545
vt 0.515604 0.750526
vt 0.515604 0.691466
vt 0.689831 0.880729
vt 0.689831 0.996545
vt 0.761254 0.880729
vt 0.761254 0.996545
vt 0.571559 0.691466
vt 0.571559 0.750526
vt 0.627514 0.750526
vt 0.627514 0.691466
vt 0.670891 0.743720
vt 0.628787 0.743720
vt 0.628787 0.692207
vt 0.670891 0.692207
vt 0.832678 0.880729
vt 0.832678 0.996545
vt 0.904102 0.880729
vt 0.904102 0.996545
vt 0.683469 0.691466
vt 0.683469 0.750526
vt 0.739425 0.750526
vt 0.739425 0.691466
vt 0.975527 0.880729
vt 0.975527 0.996545
vt 0.795380 0.750526
vt 0.795380 0.691466
vt 0.794567 0.743720
vt 0.754048 0.743720
vt 0.754048 0.692207
vt 0.794567 0.692207
vt 1.046950 0.880729
vt 1.046950 0.996545
vt 1.118374 0.880729
vt 1.118374 0.996545
vt 0.851335 0.691466
vt 0.851335 0.750526
vt 0.907291 0.750526
vt 0.907291 0.691466
vt 1.189798 0.880729
vt 1.189798 0.996545
vt 0.875415 0.743720
vt 0.834941 0.743720
vt 0.834941 0.692207
vt 0.875415 0.692207
vt 0.963246 0.750526
vt 0.963246 0.691466
vt 1.261222 0.880729
vt 1.261222 0.996545
vt 1.278061 0.880729
vt 1.278061 0.996545
vt 1.019201 0.691466
vt 1.019201 0.750526
vt 1.032801 0.750526
vt 1.032801 0.691466
vt 1.000000 0.743720
vt 0.954962 0.743720
vt 0.954962 0.692207
vt 1.000000 0.692207
vt 0.915722 0.743720
vt 0.915722 0.692207
vt 0.712901 0.743720
vt 0.712901 0.692207
vt 0.586682 0.743720
vt 0.586682 0.692207
vt -0.087537 0.750526
vt -0.087537 0.691465
vt 1.278061 0.880729
vt 0.156396 0.377337
vt 0.156396 0.217649
vt 0.087430 0.217649
vt 0.087430 0.377337
vt 0.271477 0.867594
vt 0.271477 0.757548
vt 0.720265 0.947306
vt 0.702652 0.996169
vt 0.500000 0.996169
vt 0.500000 0.947306
vt 0.297349 0.867594
vt 0.500000 0.867594
vt 0.500000 0.757548
vt 0.297349 0.757548
vt 1.000000 0.931600
vt 0.728523 0.996169
vt 0.728523 0.931600
vt 0.271477 0.867594
vt 0.271477 0.757548
vt 1.000000 0.947306
vt 0.728523 0.996169
vt 0.728523 0.947306
vt 0.297348 0.867594
vt 0.279734 0.757548
vt 0.332501 0.282179
vt 0.490323 0.282179
vt 1.000000 0.931600
vt 0.000000 0.931600
vt 1.000000 0.947306
vt 0.000000 0.947306
vt 0.728523 0.882737
vt 0.728523 0.882737
vt 0.702652 0.882737
vt 0.702652 0.931600
vt 0.500000 0.931600
vt 0.500000 0.882737
vt 0.720265 0.882737
vt 0.702652 0.996169
vt 0.122177 0.211581
vt 0.148742 0.193830
vt 0.244535 0.193830
vt 0.244535 0.211581
vt 0.242215 0.031931
vt 0.244305 0.000049
vt 0.244535 0.000049
vt 0.244535 0.031931
vt 0.093522 0.225712
vt 0.244535 0.225712
vt 0.235982 0.063267
vt 0.244535 0.063267
vt 0.063267 0.235982
vt 0.244535 0.235982
vt 0.225712 0.093522
vt 0.244535 0.093522
vt 0.031931 0.242215
vt 0.244535 0.242215
vt 0.211581 0.122177
vt 0.244535 0.122177
vt 0.000049 0.244305
vt 0.244535 0.244305
vt 0.193830 0.148743
vt 0.244535 0.148743
vt 0.000049 0.246070
vt 0.244535 0.246070
vt 0.172764 0.172764
vt 0.244535 0.172764
vt 0.000000 0.926969
vt 0.103516 0.996169
vt 0.103516 0.926969
vt 1.000000 0.692612
vt 1.000000 0.747971
vt 0.878191 0.747971
vt 0.878191 0.692612
vt 0.000000 0.747971
vt 0.000000 0.692612
vt 1.000000 0.926969
vt 0.916992 0.692612
vt 0.916992 0.747971
vt 0.103516 0.882737
vt 1.000000 0.999918
vt 0.000082 0.999918
vt 0.000082 -0.250000
vt 1.000000 -0.250000
vt -0.084454 0.995896
vt -0.084454 0.988190
vt -0.499965 0.988190
vt -0.499965 0.995896
vt 0.000000 0.873889
vt 0.084454 0.865133
vt 0.499965 0.865133
vt 0.499965 0.872802
vt -0.081754 0.874976
vt -0.081754 0.882682
vt 0.333756 0.882682
vt 0.333756 0.874976
vt -0.084454 0.752466
vt -0.084454 0.760135
vt -0.499965 0.760135
vt -0.499965 0.752466
vt 0.084454 0.760135
vt 0.084454 0.752466
vt 0.499965 0.752466
vt 0.499965 0.760135
vt -0.081754 0.988190
vt -0.081754 0.995896
vt 0.333756 0.995896
vt 0.333756 0.988190
vt -0.084454 0.865133
vt -0.084454 0.872802
vt -0.499965 0.872802
vt -0.499965 0.865133
vt -0.084454 0.882682
vt -0.499965 0.874976
vt -0.499965 0.882682
vt -0.000000 0.995896
vt -0.000000 0.988121
vt -0.050654 0.988128
vt -0.049179 0.995896
vt -0.000000 0.873889
vt -0.000000 0.866151
vt 0.091202 0.865966
vt 0.087851 0.873698
vt -0.166208 0.874976
vt -0.166208 0.882682
vt 0.004176 0.882682
vt -0.002443 0.874976
vt 0.000000 0.752466
vt 0.000000 0.760135
vt -0.304096 0.760135
vt -0.304096 0.752466
vt -0.000000 0.881664
vt -0.087851 0.874080
vt -0.085209 0.881838
vt -0.000000 0.760204
vt -0.000000 0.752466
vt 0.163765 0.752466
vt 0.157312 0.760182
vt -0.166208 0.988190
vt -0.166208 0.995896
vt 0.137888 0.995896
vt 0.137888 0.988190
vt -0.499965 0.829499
vt -0.084454 0.829499
vt 0.000000 0.829499
vt -0.304096 0.829499
vt 0.500000 0.000000
vt 0.500000 1.000000
vt 1.000000 1.000000
vt 1.000000 0.000000
vt 0.000000 0.000000
vt 0.000000 1.000000
vt 0.598734 0.882737
vt 0.598734 0.996169
vt 0.205680 0.867594
vt 0.205680 0.757548
vt 0.401266 0.867594
vt 1.000000 0.831897
vt 0.401266 0.831897
vt 0.205680 0.867594
vt 0.205680 0.757548
vt 0.401266 0.867594
vt 0.401266 0.831897
vt 1.000000 0.831897
vt 0.794320 0.882737
vt 0.794320 0.996169
s 0
usemtl MI_WoodTrim
f 1/1/1 2/2/1 4/3/1 3/4/1
f 3/5/2 4/6/2 8/7/2 7/8/2
f 8/9/3 4/10/3 2/11/3 6/12/3
f 3/10/4 7/9/4 5/12/4 1/11/4
f 2/5/5 1/6/5 5/7/5 6/8/5
f 250/4/6 251/3/6 260/13/6 258/14/6
s 7
f 11/15/7 12/16/8 40/17/8 39/18/7
f 14/19/3 12/20/3 11/21/3 13/22/3
f 13/23/9 11/24/10 39/25/10 41/26/9
f 13/22/3 15/27/3 16/28/3 14/19/3
f 42/29/11 14/30/11 16/31/12 44/32/12
f 15/33/13 13/23/9 41/26/9 43/34/13
f 15/27/3 17/35/3 18/36/3 16/28/3
f 44/32/12 16/31/12 18/37/14 46/38/14
f 17/35/3 19/39/3 20/40/3 18/36/3
f 19/39/3 21/41/3 22/42/3 20/40/3
f 48/43/15 20/44/15 22/45/16 50/46/16
f 21/47/17 19/48/18 47/49/18 49/50/17
f 21/41/3 23/51/3 24/52/3 22/42/3
f 23/51/3 25/53/3 26/54/3 24/52/3
f 52/55/19 24/56/19 26/57/20 54/58/20
f 25/53/3 27/59/3 28/60/3 26/54/3
f 54/58/20 26/57/20 28/61/21 56/62/21
f 27/63/22 25/64/23 53/65/23 55/66/22
f 27/59/3 29/67/3 30/68/3 28/60/3
f 29/67/3 31/69/3 32/70/3 30/68/3
f 58/71/24 30/72/24 32/73/25 60/74/25
f 31/69/3 33/75/3 34/76/3 32/70/3
f 31/77/26 29/78/27 57/79/27 59/80/26
f 60/74/25 32/73/25 34/81/28 62/82/28
f 33/75/3 35/83/3 36/84/3 34/76/3
f 35/83/3 37/85/3 38/86/3 36/84/3
f 64/87/29 36/88/29 38/89/30 66/90/30
f 37/91/31 35/92/32 63/93/32 65/94/31
f 62/82/28 34/81/28 36/88/29 64/87/29
f 35/92/32 33/95/33 61/96/33 63/93/32
f 33/95/33 31/77/26 59/80/26 61/96/33
f 56/62/21 28/61/21 30/72/24 58/71/24
f 29/78/27 27/63/22 55/66/22 57/79/27
f 25/64/23 23/97/34 51/98/34 53/65/23
f 50/46/16 22/45/16 24/56/19 52/55/19
f 23/97/34 21/47/17 49/50/17 51/98/34
f 46/38/14 18/37/14 20/44/15 48/43/15
f 19/48/18 17/99/35 45/100/35 47/49/18
f 17/99/35 15/33/13 43/34/13 45/100/35
f 12/101/8 14/30/11 42/29/11 40/102/8
f 42/19/4 41/22/4 39/21/4 40/20/4
f 41/22/4 42/19/4 44/28/4 43/27/4
f 43/27/4 44/28/4 46/36/4 45/35/4
f 45/35/4 46/36/4 48/40/4 47/39/4
f 47/39/4 48/40/4 50/42/4 49/41/4
f 49/41/4 50/42/4 52/52/4 51/51/4
f 51/51/4 52/52/4 54/54/4 53/53/4
f 53/53/4 54/54/4 56/60/4 55/59/4
f 55/59/4 56/60/4 58/68/4 57/67/4
f 57/67/4 58/68/4 60/70/4 59/69/4
f 59/69/4 60/70/4 62/76/4 61/75/4
f 61/75/4 62/76/4 64/84/4 63/83/4
f 63/83/4 64/84/4 66/86/4 65/103/4
f 65/104/5 66/105/5 38/106/5 37/107/5
s 0
f 67/1/1 68/2/1 70/3/1 69/4/1
f 73/4/6 74/3/6 72/2/6 71/1/6
f 69/5/2 70/6/2 74/7/2 73/8/2
f 74/9/3 70/10/3 68/11/3 72/12/3
f 69/10/36 73/9/36 71/12/36 67/11/36
f 68/5/5 67/6/5 71/7/5 72/8/5
f 83/108/37 78/10/37 76/11/37 82/109/37
f 102/110/38 98/111/38 79/112/38 91/113/38
f 99/114/39 80/115/39 79/116/39 98/117/39
f 90/118/40 78/6/40 83/119/40 93/120/40
f 77/10/41 81/121/41 84/122/41 75/11/41
f 89/123/42 75/6/42 84/124/42 94/125/42
f 97/126/43 83/108/43 82/109/43 100/127/43
f 95/128/1 86/2/1 88/3/1 96/129/1
f 96/130/44 88/6/44 78/7/44 90/131/44
f 78/9/45 88/10/45 86/11/45 76/12/45
f 87/10/46 77/9/46 75/12/46 85/11/46
f 95/132/47 85/6/47 75/7/47 89/133/47
f 86/5/47 95/132/47 89/133/47 76/8/47
f 87/5/44 96/130/44 90/131/44 77/8/44
f 85/1/1 95/128/1 96/129/1 87/4/1
f 76/5/42 89/123/42 94/125/42 82/134/42
f 77/5/40 90/118/40 93/120/40 81/135/40
f 99/136/48 101/137/48 92/138/48 80/139/48
f 82/134/38 94/125/38 102/110/38 100/140/38
f 81/135/48 93/120/48 101/137/48 99/136/48
f 93/120/48 83/119/48 97/141/48 101/137/48
f 81/121/49 99/114/49 98/117/49 84/122/49
f 94/125/38 84/124/38 98/111/38 102/110/38
f 177/170/50 131/7/50 133/171/50 178/172/50
f 131/173/1 132/174/1 134/175/1 133/176/1
f 136/177/1 135/178/1 133/176/1 134/175/1
f 179/179/3 178/172/3 133/171/3 135/6/3
f 140/174/6 138/173/6 142/180/6 144/181/6
f 138/8/50 137/7/50 141/171/50 142/182/50
f 137/173/1 139/174/1 143/175/1 141/176/1
f 144/181/6 142/180/6 146/178/6 148/177/6
f 147/177/1 145/178/1 141/176/1 143/175/1
f 146/5/3 142/182/3 141/171/3 145/6/3
f 151/5/3 155/8/3 156/7/3 152/6/3
f 156/174/6 154/173/6 150/178/6 152/177/6
f 151/177/1 149/178/1 153/173/1 155/174/1
f 150/5/4 154/8/4 153/7/4 149/6/4
f 159/5/3 163/8/3 164/7/3 160/6/3
f 164/174/6 162/173/6 158/178/6 160/177/6
f 159/177/1 157/178/1 161/173/1 163/174/1
f 158/5/4 162/8/4 161/7/4 157/6/4
f 171/5/3 175/8/3 176/7/3 172/6/3
f 176/174/6 174/173/6 170/178/6 172/177/6
f 171/177/1 169/178/1 173/173/1 175/174/1
f 170/5/51 174/8/51 173/7/51 169/6/51
f 253/255/2 252/256/2 251/7/2 250/8/2
f 256/257/3 249/10/3 9/11/3 255/258/3
f 253/259/4 250/9/4 258/260/4 261/261/4
f 254/262/4 253/259/4 261/261/4 257/263/4
f 251/9/3 252/264/3 259/265/3 260/266/3
f 254/267/2 256/268/2 252/256/2 253/255/2
f 248/5/2 249/6/2 256/268/2 254/267/2
f 248/10/4 254/262/4 257/263/4 10/11/4
f 9/5/5 10/6/5 257/268/5 255/267/5
f 252/264/3 256/257/3 255/258/3 259/265/3
usemtl MI_Plaster
f 111/142/3 110/143/3 124/144/3 125/145/3
f 104/146/3 103/147/3 117/148/3 118/149/3
f 112/150/3 111/142/3 125/145/3 126/151/3
f 105/152/3 104/146/3 118/149/3 119/153/3
f 113/154/3 112/150/3 126/151/3 127/155/3
f 106/156/3 105/152/3 119/153/3 120/157/3
f 114/158/3 113/154/3 127/155/3 128/159/3
f 107/160/3 106/156/3 120/157/3 121/161/3
f 115/162/3 114/158/3 128/159/3 129/163/3
f 108/164/3 107/160/3 121/161/3 122/165/3
f 116/166/3 115/162/3 129/163/3 130/167/3
f 109/168/3 108/164/3 122/165/3 123/169/3
f 110/143/3 109/168/3 123/169/3 124/144/3
f 168/183/3 166/184/3 165/185/3 167/186/3
s 73
usemtl MI_WoodTrim_Wear
f 193/187/52 199/188/52 186/189/52 180/190/52
f 195/191/52 201/192/52 188/193/52 181/194/52
f 196/195/52 203/196/52 190/197/52 182/198/52
f 197/199/52 205/200/52 192/201/52 183/202/52
f 200/203/53 196/204/53 182/205/53 187/206/53
f 202/207/53 197/208/53 183/209/53 189/210/53
f 204/211/53 194/212/53 184/213/53 191/214/53
f 198/215/53 195/191/53 181/216/53 185/217/53
f 191/214/4 192/201/4 205/200/4 204/211/4
f 189/210/4 190/197/4 203/196/4 202/207/4
f 187/206/4 188/193/4 201/192/4 200/203/4
f 185/217/4 186/189/4 199/188/4 198/215/4
s 0
f 210/187/52 215/188/52 208/189/52 206/190/52
f 211/191/52 217/192/52 225/193/52 222/194/52
f 212/195/52 219/196/52 229/197/52 223/198/52
f 213/199/52 220/200/52 231/201/52 224/202/52
f 216/203/53 212/204/53 223/205/53 226/206/53
f 218/207/53 213/208/53 224/209/53 230/210/53
f 214/215/53 211/191/53 222/216/53 207/217/53
f 230/210/4 229/197/4 219/196/4 218/207/4
f 226/206/4 225/193/4 217/192/4 216/203/4
f 207/217/4 208/189/4 215/188/4 214/215/4
f 206/218/52 208/219/52 241/220/52 238/221/52
f 222/222/52 225/223/52 240/224/52 234/225/52
f 223/226/52 229/227/52 236/228/52 235/229/52
f 224/230/52 231/231/52 228/232/52 227/233/52
f 207/234/53 222/222/53 234/235/53 239/236/53
f 226/237/53 223/238/53 235/239/53 237/240/53
f 230/241/53 224/242/53 227/243/53 233/244/53
f 209/245/4 231/201/4 220/200/4 221/246/4
f 236/228/4 229/227/4 230/241/4 233/244/4
f 241/220/4 208/219/4 207/234/4 239/236/4
f 228/232/4 231/231/4 209/247/4 232/248/4
f 240/224/4 225/223/4 226/237/4 237/240/4
s 96
usemtl MI_UnevenBrick
f 246/249/4 247/250/4 243/251/4 245/252/4
f 244/253/4 242/254/4 247/250/4 246/249/4
