# Blender 4.0.2
# www.blender.org
mtllib Overhang_WoodWear_Corner_Front.mtl
o Overhang_WoodWear_Corner_Front
v -2.000000 0.883107 -1.092447
v -2.000000 0.649580 -1.092447
v -2.000000 0.883107 -0.987485
v -2.000000 0.649580 -0.987485
v 0.000001 0.883105 -1.092447
v 0.000000 0.649578 -1.092447
v 0.000001 0.883105 -0.987485
v 0.000000 0.649578 -0.987485
v -0.220878 0.000000 -0.800000
v -0.220878 3.000000 -0.800000
v -2.000000 0.000000 -0.800001
v -2.000000 3.000000 -0.800001
v -0.164046 3.116765 -0.685966
v -0.164046 2.883237 -0.685966
v -0.164046 3.116765 -0.804906
v -0.164046 2.883237 -0.804906
v -2.000000 3.116763 -0.685965
v -2.000000 2.883235 -0.685965
v -2.000000 3.116763 -0.804906
v -2.000000 2.883235 -0.804906
v -2.000000 3.116765 -1.117570
v -2.000000 2.883237 -1.117570
v -2.000000 3.116765 -0.998630
v -2.000000 2.883237 -0.998630
v 0.000001 3.116763 -1.117570
v 0.000000 2.883235 -1.117570
v 0.000001 3.116763 -0.998630
v 0.000000 2.883235 -0.998630
v 1.092446 0.883107 0.000001
v 1.092446 0.649580 0.000000
v 0.987484 0.883107 0.000001
v 0.987484 0.649580 0.000001
v 1.092446 0.883105 2.000001
v 1.092446 0.649578 2.000000
v 0.987484 0.883105 2.000001
v 0.987484 0.649578 2.000000
v 0.799999 0.000000 2.000000
v 0.799999 3.000000 2.000000
v 0.800000 0.000000 0.208435
v 0.800000 3.000000 0.208435
v 0.685965 3.116765 2.000000
v 0.685965 2.883237 2.000001
v 0.804906 3.116765 2.000000
v 0.804906 2.883237 2.000000
v 0.685965 3.116763 0.186141
v 0.685965 2.883235 0.186141
v 0.804905 3.116763 0.186141
v 0.804905 2.883235 0.186141
v 1.117569 3.116765 0.000001
v 1.117569 2.883237 0.000000
v 0.998629 3.116765 0.000001
v 0.998629 2.883237 0.000001
v 1.117569 3.116763 2.000001
v 1.117569 2.883235 2.000001
v 0.998629 3.116763 2.000001
v 0.998629 2.883235 2.000000
v -0.000000 2.000000 -1.000000
v -2.000000 2.000000 -0.999999
v -2.000000 0.000000 -0.999999
v -1.000000 2.000000 -1.000000
v -0.250001 -0.000000 -1.000000
v -0.500001 -0.000000 -1.000000
v -0.750001 -0.000000 -1.000000
v -1.000001 0.000000 -1.000000
v -1.250001 0.000000 -1.000000
v -1.500000 0.000000 -1.000000
v -1.750000 0.000000 -0.999999
v -0.250001 2.000000 -1.000000
v -0.500001 2.000000 -1.000000
v -0.750001 2.000000 -1.000000
v -1.250001 2.000000 -1.000000
v -1.500000 2.000000 -1.000000
v -1.750000 2.000000 -0.999999
v -2.000000 3.000000 -0.999999
v -0.250000 3.000000 -1.000000
v -0.500000 3.000000 -1.000000
v -0.750000 3.000000 -1.000000
v -1.000000 3.000000 -1.000000
v -1.250000 3.000000 -1.000000
v -1.500000 3.000000 -1.000000
v -1.750000 3.000000 -0.999999
v -0.234069 -0.000000 -1.035134
v -0.015932 -0.000000 -1.035134
v -0.015932 3.000000 -1.035134
v -0.234069 3.000000 -1.035134
v -0.015932 2.000000 -1.035134
v -0.234069 2.000000 -1.035134
v -0.484069 -0.000000 -1.035133
v -0.265932 -0.000000 -1.035134
v -0.265932 2.000000 -1.035134
v -0.484069 2.000000 -1.035133
v -0.265932 3.000000 -1.035134
v -0.484069 3.000000 -1.035133
v -0.734069 -0.000000 -1.035133
v -0.515932 -0.000000 -1.035133
v -0.515932 2.000000 -1.035133
v -0.734069 2.000000 -1.035133
v -0.515932 3.000000 -1.035133
v -0.734069 3.000000 -1.035133
v -0.984069 -0.000000 -1.035133
v -0.765932 -0.000000 -1.035133
v -0.765932 3.000000 -1.035133
v -0.984069 3.000000 -1.035133
v -0.765932 2.000000 -1.035133
v -0.984069 2.000000 -1.035133
v -1.234069 0.000000 -1.035133
v -1.015932 0.000000 -1.035133
v -1.015932 3.000000 -1.035133
v -1.234069 3.000000 -1.035133
v -1.015932 2.000000 -1.035133
v -1.234069 2.000000 -1.035133
v -1.481383 0.000000 -1.035133
v -1.263247 0.000000 -1.035133
v -1.263247 2.000000 -1.035133
v -1.481383 2.000000 -1.035133
v -1.263246 3.000000 -1.035133
v -1.481383 3.000000 -1.035133
v -1.734069 0.000000 -1.035133
v -1.515932 0.000000 -1.035133
v -1.515932 2.000000 -1.035133
v -1.734069 2.000000 -1.035133
v -1.515932 3.000000 -1.035133
v -1.734069 3.000000 -1.035133
v -1.984069 0.000000 -1.035133
v -1.765932 0.000000 -1.035133
v -1.765932 3.000000 -1.035133
v -1.984069 3.000000 -1.035133
v -1.765932 2.000000 -1.035133
v -1.984069 2.000000 -1.035133
v -2.000000 0.831080 -0.999999
v -1.000000 0.831079 -1.000000
v -0.250001 0.831079 -1.000000
v -0.500001 0.831079 -1.000000
v -0.750001 0.831079 -1.000000
v -1.250001 0.831079 -1.000000
v -1.500000 0.831079 -1.000000
v -1.750000 0.831080 -0.999999
v -0.234069 0.831079 -1.035134
v -0.015932 0.831079 -1.035134
v -0.484069 0.831079 -1.035133
v -0.265932 0.831079 -1.035134
v -0.734069 0.831079 -1.035133
v -0.515932 0.831079 -1.035133
v -0.984069 0.831079 -1.035133
v -0.765932 0.831079 -1.035133
v -1.234069 0.831079 -1.035133
v -1.015932 0.831079 -1.035133
v -1.481383 0.831079 -1.035133
v -1.263247 0.831079 -1.035133
v -1.734069 0.831080 -1.035133
v -1.515932 0.831079 -1.035133
v -1.984069 0.831080 -1.035133
v -1.765932 0.831080 -1.035133
v 1.000001 2.000000 2.000000
v 1.000001 -0.000000 1.999999
v 1.000000 0.000000 -0.000001
v 1.000000 2.000000 1.000000
v 1.000001 -0.000000 1.749999
v 1.000000 -0.000000 1.499999
v 1.000000 -0.000000 1.249999
v 1.000000 0.000000 0.999999
v 1.000000 0.000000 0.749999
v 1.000000 0.000000 0.499999
v 1.000000 0.000000 0.249999
v 1.000001 2.000000 1.749999
v 1.000000 2.000000 1.499999
v 1.000000 2.000000 1.249999
v 1.000000 2.000000 0.749999
v 1.000000 2.000000 0.499999
v 1.000000 2.000000 0.249999
v 1.000001 3.000000 2.000000
v 1.000000 3.000000 -0.000000
v 1.000001 3.000000 1.750000
v 1.000000 3.000000 1.500000
v 1.000000 3.000000 1.250000
v 1.000000 3.000000 1.000000
v 1.000000 3.000000 0.750000
v 1.000000 3.000000 0.500000
v 1.000000 3.000000 0.250000
v 1.035134 -0.000000 1.765931
v 1.035134 -0.000000 1.984068
v 1.035134 3.000000 1.984068
v 1.035134 3.000000 1.765931
v 1.035134 2.000000 1.984068
v 1.035134 2.000000 1.765931
v 1.035134 -0.000000 1.515931
v 1.035134 -0.000000 1.734068
v 1.035134 2.000000 1.734068
v 1.035134 2.000000 1.515931
v 1.035134 3.000000 1.734068
v 1.035134 3.000000 1.515931
v 1.035134 -0.000000 1.265931
v 1.035134 -0.000000 1.484068
v 1.035134 2.000000 1.484068
v 1.035134 2.000000 1.265931
v 1.035134 3.000000 1.484068
v 1.035134 3.000000 1.265931
v 1.035134 -0.000000 1.015931
v 1.035134 -0.000000 1.234068
v 1.035134 3.000000 1.234068
v 1.035134 3.000000 1.015931
v 1.035134 2.000000 1.234068
v 1.035134 2.000000 1.015931
v 1.035134 0.000000 0.765931
v 1.035134 0.000000 0.984068
v 1.035134 3.000000 0.984068
v 1.035134 3.000000 0.765931
v 1.035134 2.000000 0.984068
v 1.035134 2.000000 0.765931
v 1.035134 0.000000 0.518617
v 1.035134 0.000000 0.736754
v 1.035134 2.000000 0.736753
v 1.035134 2.000000 0.518617
v 1.035134 3.000000 0.736754
v 1.035134 3.000000 0.518617
v 1.035134 0.000000 0.265931
v 1.035134 0.000000 0.484068
v 1.035134 2.000000 0.484068
v 1.035134 2.000000 0.265931
v 1.035134 3.000000 0.484068
v 1.035134 3.000000 0.265931
v 1.035133 0.000000 0.015931
v 1.035134 0.000000 0.234068
v 1.035134 3.000000 0.234068
v 1.035133 3.000000 0.015931
v 1.035134 2.000000 0.234068
v 1.035133 2.000000 0.015931
v 1.000001 0.831079 2.000000
v 1.000000 0.831080 -0.000000
v 1.000000 0.831079 1.000000
v 1.000001 0.831079 1.749999
v 1.000000 0.831079 1.499999
v 1.000000 0.831079 1.249999
v 1.000000 0.831079 0.749999
v 1.000000 0.831079 0.499999
v 1.000000 0.831080 0.249999
v 1.035134 0.831079 1.765931
v 1.035134 0.831079 1.984068
v 1.035134 0.831079 1.515931
v 1.035134 0.831079 1.734068
v 1.035134 0.831079 1.265931
v 1.035134 0.831079 1.484068
v 1.035134 0.831079 1.015931
v 1.035134 0.831079 1.234068
v 1.035134 0.831079 0.765931
v 1.035134 0.831079 0.984068
v 1.035134 0.831079 0.518617
v 1.035134 0.831079 0.736754
v 1.035134 0.831080 0.265931
v 1.035134 0.831079 0.484068
v 1.035133 0.831080 0.015931
v 1.035134 0.831080 0.234068
v 1.000000 2.000000 -0.000000
v 0.334300 2.000000 -0.675091
v 0.823223 -0.000000 -0.176777
v 0.667683 -0.000000 -0.336572
v 0.511077 -0.000000 -0.498314
v 0.334300 -0.000000 -0.675091
v 0.178068 0.000000 -0.823043
v 0.001291 0.000000 -0.999819
v 0.823223 2.000000 -0.176777
v 0.667683 2.000000 -0.336572
v 0.511077 2.000000 -0.498314
v 0.178068 2.000000 -0.823043
v 0.823223 3.000000 -0.176777
v 0.667683 3.000000 -0.336572
v 0.511077 3.000000 -0.498314
v 0.334300 3.000000 -0.675091
v 0.178068 3.000000 -0.823042
v 0.001291 3.000000 -0.999819
v 0.859332 -0.000000 -0.190355
v 1.013578 -0.000000 -0.036109
v 1.013578 3.000000 -0.036109
v 0.859332 3.000000 -0.190355
v 1.013578 2.000000 -0.036109
v 0.859332 2.000000 -0.190355
v 0.703792 -0.000000 -0.350150
v 0.836801 -0.000000 -0.212886
v 0.836801 2.000000 -0.212886
v 0.703792 2.000000 -0.350150
v 0.836801 3.000000 -0.212886
v 0.703792 3.000000 -0.350150
v 0.547185 -0.000000 -0.511892
v 0.681261 -0.000000 -0.372681
v 0.681261 2.000000 -0.372681
v 0.547185 2.000000 -0.511892
v 0.681261 3.000000 -0.372681
v 0.547186 3.000000 -0.511892
v 0.370409 -0.000000 -0.688669
v 0.524655 -0.000000 -0.534423
v 0.524655 3.000000 -0.534423
v 0.370409 3.000000 -0.688669
v 0.524655 2.000000 -0.534423
v 0.370409 2.000000 -0.688669
v 0.214176 0.000000 -0.836620
v 0.347878 -0.000000 -0.711199
v 0.347878 3.000000 -0.711199
v 0.214176 3.000000 -0.836620
v 0.347878 2.000000 -0.711199
v 0.214176 2.000000 -0.836620
v 0.039299 0.000000 -1.011498
v 0.193545 0.000000 -0.857252
v 0.193545 2.000000 -0.857252
v 0.039299 2.000000 -1.011498
v 0.193545 3.000000 -0.857252
v 0.039299 3.000000 -1.011498
v 0.334300 0.831079 -0.675091
v 0.823223 0.831079 -0.176777
v 0.667683 0.831079 -0.336572
v 0.511077 0.831079 -0.498314
v 0.178068 0.831079 -0.823043
v 0.001291 0.831079 -0.999819
v 0.859332 0.831079 -0.190355
v 1.013578 0.831079 -0.036109
v 0.703792 0.831079 -0.350150
v 0.836801 0.831079 -0.212886
v 0.547185 0.831079 -0.511892
v 0.681261 0.831079 -0.372681
v 0.370409 0.831079 -0.688669
v 0.524655 0.831079 -0.534423
v 0.214176 0.831079 -0.836620
v 0.347878 0.831079 -0.711199
v 0.039299 0.831079 -1.011498
v 0.193545 0.831079 -0.857252
vn -0.0000 -0.0000 1.0000
vn -0.0000 -1.0000 -0.0000
vn -0.0000 1.0000 -0.0000
vn -0.0000 -0.0000 -1.0000
vn -1.0000 -0.0000 -0.0000
vn 1.0000 -0.0000 -0.0000
vn 0.7071 -0.0000 -0.7071
vn -0.7071 -0.0000 0.7071
vn -0.7028 -0.0000 0.7114
vn -0.7161 -0.0000 0.6980
vn 0.9107 -0.0000 -0.4130
vn 0.9018 0.0002 -0.4321
vn 0.8988 -0.0000 -0.4384
vn 0.9357 -0.0000 -0.3528
vn 0.9048 -0.0005 -0.4258
vn 0.9048 -0.0000 -0.4258
vn -0.9107 -0.0000 -0.4130
vn -0.8836 -0.0000 -0.4682
vn 0.4130 -0.0000 0.9107
vn 0.3528 -0.0000 0.9357
vn 0.4130 -0.0000 -0.9107
vn 0.4682 -0.0000 -0.8836
vn 0.9360 -0.0000 0.3520
vn 0.9111 -0.0000 0.4122
vn -0.3520 -0.0000 -0.9360
vn -0.2905 -0.0001 -0.9569
vn -0.2937 -0.0000 -0.9559
vn -0.2872 0.0003 -0.9579
vn -0.2872 -0.0000 -0.9579
vn 0.7182 -0.0000 -0.6959
vn 0.7203 -0.0000 -0.6937
vn 0.6842 -0.0000 -0.7293
vt 1.000000 0.882737
vt 1.000000 0.996169
vt 0.000000 0.996169
vt 0.000000 0.882737
vt 1.000000 0.747971
vt 0.000000 0.747971
vt 0.000000 0.692612
vt 1.000000 0.692612
vt 1.000000 0.999918
vt 1.000000 -0.250000
vt 0.000082 -0.250000
vt 0.000082 0.999918
vt 1.084454 0.872802
vt 1.499965 0.872802
vt 1.499965 0.865133
vt 1.084454 0.865133
vt -0.084454 0.995896
vt -0.499965 0.995896
vt -0.499965 0.988190
vt -0.084454 0.988190
vt 0.000000 0.873889
vt 0.499965 0.872802
vt 0.499965 0.865133
vt 0.084454 0.865133
vt -0.081754 0.874976
vt 0.333756 0.874976
vt 0.333756 0.882682
vt -0.081754 0.882682
vt -0.084454 0.752466
vt -0.499965 0.752466
vt -0.499965 0.760135
vt -0.084454 0.760135
vt 0.584454 0.995896
vt 0.999965 0.995896
vt 0.999965 0.988190
vt 0.584454 0.988190
vt 1.045034 0.874976
vt 1.460544 0.874976
vt 1.460544 0.881383
vt 1.045034 0.881383
vt 1.220623 0.752466
vt 1.636134 0.752466
vt 1.636134 0.760135
vt 1.220623 0.760135
vt 1.000000 0.872802
vt 1.499965 0.865133
vt 1.000000 0.865133
vt -0.000000 0.995896
vt -0.499965 0.988190
vt -0.000000 0.988121
vt -0.000000 0.873889
vt -0.000000 0.866151
vt -0.166208 0.874976
vt -0.166208 0.882682
vt 0.000000 0.752466
vt -0.499965 0.760135
vt 0.000000 0.760135
vt 0.500000 0.995896
vt 0.999965 0.988190
vt 0.500000 0.988190
vt 0.960579 0.874976
vt 1.460544 0.881383
vt 0.960579 0.881383
vt 1.136169 0.752466
vt 1.136169 0.760135
vt 0.084454 0.760135
vt 0.499965 0.760135
vt 0.499965 0.752466
vt 0.084454 0.752466
vt -0.000000 0.881664
vt -0.499965 0.882682
vt -0.499965 0.874976
vt -0.081754 0.988190
vt 0.333756 0.988190
vt 0.333756 0.995896
vt -0.081754 0.995896
vt -0.000000 0.760204
vt -0.000000 0.752466
vt -0.084454 0.865133
vt -0.499965 0.865133
vt -0.499965 0.872802
vt -0.084454 0.872802
vt -0.166208 0.988190
vt -0.166208 0.995896
vt 0.584454 0.882682
vt 0.999965 0.882682
vt 0.999965 0.874976
vt 0.584454 0.874976
vt 0.000000 0.865133
vt -0.499965 0.865133
vt 0.000000 0.872802
vt 1.045034 0.986891
vt 1.460544 0.986891
vt 1.460544 0.995896
vt 1.045034 0.995896
vt 0.500000 0.882682
vt 0.999965 0.882682
vt 0.500000 0.874976
vt 1.220623 0.865133
vt 1.636134 0.865133
vt 1.636134 0.872802
vt 1.220623 0.872802
vt 0.960579 0.986891
vt 0.960579 0.995896
vt 1.084454 0.760135
vt 1.499965 0.760135
vt 1.499965 0.752466
vt 1.084454 0.752466
vt 1.136169 0.865133
vt 1.136169 0.872802
vt 1.000000 0.760135
vt 1.499965 0.760135
vt 1.000000 0.752466
vt -0.084454 0.882682
vt 0.499965 0.882682
vt 0.499965 0.988190
vt -0.499965 0.760135
vt -0.499965 0.865133
vt -0.666173 0.988190
vt -0.666173 0.882682
vt 0.499965 0.865133
vt 0.499965 0.760135
vt 0.000035 0.882682
vt 0.000035 0.988190
vt 0.460615 0.986891
vt 0.460615 0.881383
vt 0.636204 0.865133
vt 0.636204 0.760135
vt 0.500035 0.760135
vt 0.500035 0.865133
vt -0.499965 0.882682
vt 0.499965 0.874976
vt 0.500035 0.752466
vt 0.636204 0.872802
vt 0.460615 0.995896
vt 0.000035 0.874976
vt 0.499965 0.872802
vt -0.666173 0.995896
vt -0.499965 0.752466
vt 0.636204 0.752466
vt 0.460615 0.874976
vt 0.000035 0.995896
vt 0.499965 0.752466
vt -0.666173 0.874976
vt -0.499965 0.872802
vt 0.499965 0.995896
vt 0.500035 0.872802
s 0
usemtl MI_WoodTrim
f 3/1/1 4/2/1 8/3/1 7/4/1
f 8/5/2 4/6/2 2/7/2 6/8/2
f 3/6/3 7/5/3 5/8/3 1/7/3
f 2/1/4 1/2/4 5/3/4 6/4/4
f 20/5/2 16/6/2 14/7/2 18/8/2
f 15/6/3 19/5/3 17/8/3 13/7/3
f 14/1/1 13/2/1 17/3/1 18/4/1
f 23/1/1 24/2/1 28/3/1 27/4/1
f 28/5/2 24/6/2 22/7/2 26/8/2
f 23/6/3 27/5/3 25/8/3 21/7/3
f 22/1/4 21/2/4 25/3/4 26/4/4
f 31/1/5 32/2/5 36/3/5 35/4/5
f 36/5/2 32/6/2 30/7/2 34/8/2
f 31/6/3 35/5/3 33/8/3 29/7/3
f 30/1/6 29/2/6 33/3/6 34/4/6
f 48/5/2 44/6/2 42/7/2 46/8/2
f 43/6/3 47/5/3 45/8/3 41/7/3
f 42/1/5 41/2/5 45/3/5 46/4/5
f 51/1/5 52/2/5 56/3/5 55/4/5
f 56/5/2 52/6/2 50/7/2 54/8/2
f 51/6/3 55/5/3 53/8/3 49/7/3
f 50/1/6 49/2/6 53/3/6 54/4/6
f 31/6/3 29/7/3 5/8/3 7/5/3
f 29/2/7 30/1/7 6/4/7 5/3/7
f 30/7/2 32/6/2 8/5/2 6/8/2
f 32/2/8 31/1/8 7/4/8 8/3/8
f 51/6/3 49/7/3 25/8/3 27/5/3
f 49/2/7 50/1/7 26/4/7 25/3/7
f 50/7/2 52/6/2 28/5/2 26/8/2
f 52/2/8 51/1/8 27/4/8 28/3/8
f 48/5/2 46/8/2 14/7/2 16/6/2
f 46/4/10 45/3/10 13/2/10 14/1/10
f 45/8/3 47/5/3 15/6/3 13/7/3
usemtl MI_Plaster
f 12/9/1 11/10/1 9/11/1 10/12/1
f 40/9/5 39/10/5 37/11/5 38/12/5
f 39/10/9 40/9/9 10/12/9 9/11/9
s 37
usemtl MI_WoodTrim_Wear
f 137/13/11 67/14/11 125/15/11 153/16/11
f 312/17/12 260/18/13 83/19/13 139/20/12
f 132/21/11 61/22/11 89/23/11 141/24/11
f 133/25/11 62/26/11 95/27/11 143/28/11
f 134/29/11 63/30/11 101/31/11 145/32/11
f 131/33/11 64/34/11 107/35/11 147/36/11
f 135/37/14 65/38/14 113/39/14 149/40/14
f 136/41/11 66/42/11 119/43/11 151/44/11
f 81/45/11 73/14/11 128/46/11 126/47/11
f 270/48/15 57/18/16 86/49/16 84/50/15
f 75/51/11 68/22/11 90/23/11 92/52/11
f 76/53/11 69/26/11 96/27/11 98/54/11
f 77/55/11 70/30/11 104/56/11 102/57/11
f 78/58/11 60/34/11 110/59/11 108/60/11
f 79/61/14 71/38/14 114/62/14 116/63/14
f 80/64/11 72/42/11 120/43/11 122/65/11
f 140/66/17 88/67/17 62/68/17 133/69/17
f 85/70/17 87/71/17 68/72/17 75/51/17
f 142/73/17 94/74/17 63/75/17 134/76/17
f 93/77/17 91/67/17 69/68/17 76/78/17
f 144/79/17 100/80/17 64/81/17 131/82/17
f 99/83/17 97/74/17 70/75/17 77/84/17
f 146/85/17 106/86/17 65/87/17 135/88/17
f 103/89/17 105/90/17 60/81/17 78/91/17
f 148/92/18 112/93/18 66/94/18 136/95/18
f 109/96/17 111/97/17 71/87/17 79/98/17
f 150/99/17 118/100/17 67/101/17 137/102/17
f 117/103/18 115/93/18 72/94/18 80/104/18
f 152/105/17 124/106/17 59/107/17 130/108/17
f 123/109/17 121/100/17 73/101/17 81/110/17
f 127/111/17 129/112/17 58/107/17 74/113/17
f 87/71/4 85/70/4 84/50/4 86/49/4
f 138/114/4 87/115/4 86/116/4 139/20/4
f 91/67/4 93/77/4 92/52/4 90/23/4
f 140/66/4 91/117/4 90/118/4 141/24/4
f 97/74/4 99/83/4 98/54/4 96/27/4
f 142/73/4 97/119/4 96/120/4 143/28/4
f 105/90/4 103/89/4 102/57/4 104/56/4
f 144/79/4 105/121/4 104/122/4 145/32/4
f 111/97/4 109/96/4 108/60/4 110/59/4
f 146/85/4 111/123/4 110/124/4 147/36/4
f 115/93/4 117/103/4 116/63/4 114/62/4
f 148/92/4 115/125/4 114/126/4 149/40/4
f 121/100/4 123/109/4 122/65/4 120/43/4
f 150/99/4 121/127/4 120/128/4 151/44/4
f 129/112/4 127/111/4 126/47/4 128/46/4
f 152/105/4 129/129/4 128/130/4 153/16/4
f 138/114/17 82/131/17 61/72/17 132/21/17
f 87/115/17 138/114/17 132/21/17 68/132/17
f 124/106/4 152/105/4 153/16/4 125/15/4
f 118/100/4 150/99/4 151/44/4 119/43/4
f 112/93/4 148/92/4 149/40/4 113/39/4
f 106/86/4 146/85/4 147/36/4 107/35/4
f 100/80/4 144/79/4 145/32/4 101/31/4
f 94/74/4 142/73/4 143/28/4 95/27/4
f 88/67/4 140/66/4 141/24/4 89/23/4
f 82/131/4 138/114/4 139/20/4 83/19/4
f 129/129/17 152/105/17 130/108/17 58/133/17
f 121/127/17 150/99/17 137/102/17 73/134/17
f 115/125/18 148/92/18 136/95/18 72/135/18
f 111/123/17 146/85/17 135/88/17 71/136/17
f 105/121/17 144/79/17 131/82/17 60/137/17
f 97/119/17 142/73/17 134/76/17 70/138/17
f 91/117/17 140/66/17 133/69/17 69/139/17
f 72/140/11 136/41/11 151/44/11 120/128/11
f 71/141/14 135/37/14 149/40/14 114/126/14
f 60/142/11 131/33/11 147/36/11 110/124/11
f 70/143/11 134/29/11 145/32/11 104/122/11
f 69/144/11 133/25/11 143/28/11 96/120/11
f 68/145/11 132/21/11 141/24/11 90/118/11
f 57/146/16 312/17/12 139/20/12 86/116/16
f 73/147/11 137/13/11 153/16/11 128/130/11
f 236/13/19 164/14/19 223/15/19 252/16/19
f 228/17/19 155/18/19 181/19/19 238/20/19
f 231/21/19 158/22/19 187/23/19 240/24/19
f 232/25/19 159/26/19 193/27/19 242/28/19
f 233/29/19 160/30/19 199/31/19 244/32/19
f 230/33/19 161/34/19 205/35/19 246/36/19
f 234/37/20 162/38/20 211/39/20 248/40/20
f 235/41/19 163/42/19 217/43/19 250/44/19
f 179/45/19 170/14/19 226/46/19 224/47/19
f 171/48/19 154/18/19 184/49/19 182/50/19
f 173/51/19 165/22/19 188/23/19 190/52/19
f 174/53/19 166/26/19 194/27/19 196/54/19
f 175/55/19 167/30/19 202/56/19 200/57/19
f 176/58/19 157/34/19 208/59/19 206/60/19
f 177/61/20 168/38/20 212/62/20 214/63/20
f 178/64/19 169/42/19 218/43/19 220/65/19
f 239/66/21 186/67/21 159/68/21 232/69/21
f 183/70/21 185/71/21 165/72/21 173/51/21
f 241/73/21 192/74/21 160/75/21 233/76/21
f 191/77/21 189/67/21 166/68/21 174/78/21
f 243/79/21 198/80/21 161/81/21 230/82/21
f 197/83/21 195/74/21 167/75/21 175/84/21
f 245/85/21 204/86/21 162/87/21 234/88/21
f 201/89/21 203/90/21 157/81/21 176/91/21
f 247/92/22 210/93/22 163/94/22 235/95/22
f 207/96/21 209/97/21 168/87/21 177/98/21
f 249/99/21 216/100/21 164/101/21 236/102/21
f 215/103/22 213/93/22 169/94/22 178/104/22
f 251/105/21 222/106/21 156/107/21 229/108/21
f 221/109/21 219/100/21 170/101/21 179/110/21
f 225/111/21 227/112/21 253/107/21 172/113/21
f 185/71/6 183/70/6 182/50/6 184/49/6
f 237/114/6 185/115/6 184/116/6 238/20/6
f 189/67/6 191/77/6 190/52/6 188/23/6
f 239/66/6 189/117/6 188/118/6 240/24/6
f 195/74/6 197/83/6 196/54/6 194/27/6
f 241/73/6 195/119/6 194/120/6 242/28/6
f 203/90/6 201/89/6 200/57/6 202/56/6
f 243/79/6 203/121/6 202/122/6 244/32/6
f 209/97/6 207/96/6 206/60/6 208/59/6
f 245/85/6 209/123/6 208/124/6 246/36/6
f 213/93/6 215/103/6 214/63/6 212/62/6
f 247/92/6 213/125/6 212/126/6 248/40/6
f 219/100/6 221/109/6 220/65/6 218/43/6
f 249/99/6 219/127/6 218/128/6 250/44/6
f 227/112/6 225/111/6 224/47/6 226/46/6
f 251/105/6 227/129/6 226/130/6 252/16/6
f 237/114/21 180/131/21 158/72/21 231/21/21
f 185/115/21 237/114/21 231/21/21 165/132/21
f 222/106/6 251/105/6 252/16/6 223/15/6
f 216/100/6 249/99/6 250/44/6 217/43/6
f 210/93/6 247/92/6 248/40/6 211/39/6
f 204/86/6 245/85/6 246/36/6 205/35/6
f 198/80/6 243/79/6 244/32/6 199/31/6
f 192/74/6 241/73/6 242/28/6 193/27/6
f 186/67/6 239/66/6 240/24/6 187/23/6
f 180/131/6 237/114/6 238/20/6 181/19/6
f 227/129/21 251/105/21 229/108/21 253/133/21
f 219/127/21 249/99/21 236/102/21 170/134/21
f 213/125/22 247/92/22 235/95/22 169/135/22
f 209/123/21 245/85/21 234/88/21 168/136/21
f 203/121/21 243/79/21 230/82/21 157/137/21
f 195/119/21 241/73/21 233/76/21 167/138/21
f 189/117/21 239/66/21 232/69/21 166/139/21
f 169/140/19 235/41/19 250/44/19 218/128/19
f 168/141/20 234/37/20 248/40/20 212/126/20
f 157/142/19 230/33/19 246/36/19 208/124/19
f 167/143/19 233/29/19 244/32/19 202/122/19
f 166/144/19 232/25/19 242/28/19 194/120/19
f 165/145/19 231/21/19 240/24/19 188/118/19
f 154/146/19 228/17/19 238/20/19 184/116/19
f 170/147/19 236/13/19 252/16/19 226/130/19
f 229/17/23 156/18/23 272/19/23 314/20/23
f 308/21/23 255/22/23 278/23/23 316/24/23
f 309/25/23 256/26/23 284/27/23 318/28/23
f 310/29/23 257/30/23 290/31/23 320/32/23
f 307/33/23 258/34/23 296/35/23 322/36/23
f 311/37/24 259/38/24 302/39/24 324/40/24
f 172/48/23 253/18/23 275/49/23 273/50/23
f 265/51/23 261/22/23 279/23/23 281/52/23
f 266/53/23 262/26/23 285/27/23 287/54/23
f 267/55/23 263/30/23 293/56/23 291/57/23
f 268/58/23 254/34/23 299/59/23 297/60/23
f 269/61/24 264/38/24 303/62/24 305/63/24
f 315/66/25 277/67/25 256/68/25 309/69/25
f 274/70/25 276/71/25 261/72/25 265/51/25
f 317/73/25 283/74/25 257/75/25 310/76/25
f 282/77/25 280/67/25 262/68/25 266/78/25
f 319/79/25 289/80/25 258/81/25 307/82/25
f 288/83/25 286/74/25 263/75/25 267/84/25
f 321/85/25 295/86/25 259/87/25 311/88/25
f 292/89/25 294/90/25 254/81/25 268/91/25
f 323/92/26 301/93/27 260/94/27 312/95/26
f 298/96/25 300/97/25 264/87/25 269/98/25
f 306/103/28 304/93/29 57/94/29 270/104/28
f 276/71/7 274/70/7 273/50/7 275/49/7
f 313/114/7 276/115/7 275/116/7 314/20/7
f 280/67/30 282/77/30 281/52/30 279/23/30
f 315/66/30 280/117/30 279/118/30 316/24/30
f 286/74/31 288/83/31 287/54/31 285/27/31
f 317/73/31 286/119/31 285/120/31 318/28/31
f 294/90/7 292/89/7 291/57/7 293/56/7
f 319/79/7 294/121/7 293/122/7 320/32/7
f 300/97/32 298/96/32 297/60/32 299/59/32
f 321/85/32 300/123/32 299/124/32 322/36/32
f 304/93/7 306/103/7 305/63/7 303/62/7
f 323/92/7 304/125/7 303/126/7 324/40/7
f 313/114/25 271/131/25 255/72/25 308/21/25
f 276/115/25 313/114/25 308/21/25 261/132/25
f 301/93/7 323/92/7 324/40/7 302/39/7
f 295/86/32 321/85/32 322/36/32 296/35/32
f 289/80/7 319/79/7 320/32/7 290/31/7
f 283/74/31 317/73/31 318/28/31 284/27/31
f 277/67/30 315/66/30 316/24/30 278/23/30
f 271/131/7 313/114/7 314/20/7 272/19/7
f 304/125/29 323/92/26 312/95/26 57/135/29
f 300/123/25 321/85/25 311/88/25 264/136/25
f 294/121/25 319/79/25 307/82/25 254/137/25
f 286/119/25 317/73/25 310/76/25 263/138/25
f 280/117/25 315/66/25 309/69/25 262/139/25
f 264/141/24 311/37/24 324/40/24 303/126/24
f 254/142/23 307/33/23 322/36/23 299/124/23
f 263/143/23 310/29/23 320/32/23 293/122/23
f 262/144/23 309/25/23 318/28/23 285/120/23
f 261/145/23 308/21/23 316/24/23 279/118/23
f 253/146/23 229/17/23 314/20/23 275/116/23
