# Blender 4.0.2
# www.blender.org
mtllib Roof_Modular_FlatTiles_8_L_Half.mtl
o Roof_Modular_FlatTiles_8_L_Half
v 4.696401 -0.714985 1.079990
v 4.858003 -0.549654 1.079990
v 4.507891 -0.530727 1.079990
v 4.669492 -0.365397 1.079990
v 4.669491 -0.365397 -0.930272
v 4.696400 -0.714986 -0.930272
v 4.507890 -0.530728 -0.930272
v 4.858002 -0.549655 -0.930272
v 0.000000 5.108350 1.010231
v 0.000000 5.094669 1.252561
v 0.000000 5.555032 1.010231
v 0.000000 5.555032 1.252561
v 4.708072 -0.753421 1.010232
v 4.708072 -0.753421 1.252562
v 4.901005 -0.573799 1.010232
v 4.901005 -0.573799 1.252562
v 2.578079 1.985313 1.252561
v 2.376649 1.815275 1.010231
v 2.578079 1.985313 1.010231
v 2.376649 1.815275 1.252561
v 3.480139 0.877657 1.252562
v 3.272390 0.715725 1.010231
v 3.480139 0.877657 1.010231
v 3.272390 0.715725 1.252562
v 3.963398 0.353312 1.252562
v 3.764014 0.181109 1.010232
v 3.963398 0.353312 1.010232
v 3.764014 0.181109 1.252562
v 3.021425 1.412941 1.010231
v 2.816835 1.246956 1.252561
v 3.021425 1.412941 1.252561
v 2.816835 1.246956 1.010231
v 1.188230 3.889910 1.010231
v 0.980625 3.727778 1.252561
v 1.188229 3.889910 1.252561
v 0.980626 3.727778 1.010231
v 0.000000 5.108350 0.240560
v 0.000000 5.094669 0.471750
v 0.000000 5.555032 0.240560
v 0.000000 5.555032 0.471750
v 4.708072 -0.753421 0.240561
v 4.708072 -0.753421 0.471751
v 4.901005 -0.573799 0.240561
v 4.901005 -0.573799 0.471751
v 2.578079 1.985313 0.471750
v 2.376649 1.815275 0.240560
v 2.578079 1.985313 0.240560
v 2.376649 1.815275 0.471750
v 3.480139 0.877657 0.471751
v 3.272390 0.715725 0.240561
v 3.480139 0.877657 0.240561
v 3.272390 0.715725 0.471751
v 3.963398 0.353312 0.471751
v 3.764014 0.181109 0.240561
v 3.963398 0.353312 0.240561
v 3.764014 0.181109 0.471751
v 3.021425 1.412941 0.240560
v 2.816835 1.246956 0.471750
v 3.021425 1.412941 0.471750
v 2.816835 1.246956 0.240560
v 1.200596 3.884326 0.240560
v 0.992992 3.722194 0.471750
v 1.200596 3.884326 0.471750
v 0.992992 3.722194 0.240560
v 0.000000 5.508695 1.171985
v 4.931263 -0.506260 1.186609
v 2.408988 2.384818 1.114125
v 3.582627 0.949802 1.114113
v 4.003886 0.490772 1.114112
v 3.488756 0.825614 1.171992
v 3.910014 0.366585 1.171992
v 2.315224 2.260552 1.171992
v 4.873666 -0.604803 1.212013
v 2.011000 2.925320 1.114115
v 1.926467 2.785578 1.171992
v 3.169617 1.434223 1.114173
v 2.740627 1.955914 1.114139
v 4.406358 0.075464 1.114453
v 4.330885 -0.065038 1.171992
v 2.646997 1.831550 1.171992
v 3.076310 1.309619 1.171992
v 1.656018 3.433460 1.114112
v 1.550044 3.320622 1.171992
v 1.254513 4.015660 1.114113
v 1.153778 3.890223 1.171992
v 2.741338 1.955024 -0.930273
v 2.741161 1.955247 -0.465749
v 2.740983 1.955469 0.085007
v 2.740805 1.955691 0.659280
v 4.003886 0.490772 -0.930273
v 4.003886 0.490772 -0.465768
v 4.003886 0.490772 0.084987
v 4.003886 0.490772 0.659257
v 4.407086 0.074713 -0.930273
v 4.406904 0.074901 -0.465572
v 4.406722 0.075089 0.085213
v 4.406540 0.075276 0.659533
v 3.169054 1.434939 -0.930273
v 3.169195 1.434760 -0.465725
v 3.169335 1.434581 0.085033
v 3.169477 1.434402 0.659310
v 4.974742 -0.430276 0.693982
v 4.974594 -0.430971 0.114907
v 4.974446 -0.431666 -0.438014
v 4.974298 -0.432362 -0.930273
v 1.654528 3.435606 0.659255
v 1.653038 3.437752 0.084985
v 1.651548 3.439897 -0.465768
v 1.650059 3.442043 -0.930273
v 1.255332 4.014472 0.659257
v 1.256151 4.013283 0.084987
v 1.256970 4.012095 -0.465768
v 1.257789 4.010906 -0.930273
v 2.013795 2.921528 -0.930273
v 2.013096 2.922476 -0.465766
v 2.012398 2.923424 0.084989
v 2.011699 2.924373 0.659259
v 2.409012 2.384800 -0.930273
v 2.409006 2.384804 -0.465759
v 2.409000 2.384809 0.084996
v 2.408994 2.384813 0.659269
v 3.582627 0.949802 -0.930273
v 3.582627 0.949802 -0.465768
v 3.582627 0.949802 0.084987
v 3.582627 0.949802 0.659258
v 4.889391 -0.574523 1.202341
v 4.945713 -0.480829 -0.930273
v 4.945922 -0.480282 -0.428802
v 4.946131 -0.479735 0.125409
v 4.946341 -0.479187 0.706747
v 4.831594 -0.533399 1.181686
v 4.815868 -0.563679 1.191357
v 4.807869 -0.563220 -0.930273
v 4.808235 -0.563053 -0.405191
v 4.808601 -0.562886 0.152406
v 4.808967 -0.562719 0.739689
v 4.881380 -0.438578 -0.930273
v 4.881589 -0.438030 -0.428814
v 4.881798 -0.437483 0.125398
v 4.882008 -0.436936 0.706735
v 1.184590 3.553068 -0.930273
v -0.051477 5.269385 -0.930273
v 0.093775 5.065911 -0.930273
v 0.239027 4.862436 -0.930273
v 0.384278 4.658962 -0.930273
v 0.529530 4.455488 -0.930273
v 0.674782 4.252013 -0.930273
v 0.827017 4.039610 -0.930273
v 0.992266 3.810570 -0.930273
v 2.911966 1.298295 -0.930273
v 1.393681 3.284908 -0.930273
v 1.595780 3.019534 -0.930273
v 1.804992 2.745065 -0.930273
v 2.019891 2.463327 -0.930273
v 2.239046 2.176146 -0.930273
v 2.461030 1.885350 -0.930273
v 2.684412 1.592763 -0.930273
v 4.702800 -0.673213 -0.930273
v 3.156294 1.021664 -0.930273
v 3.393583 0.750585 -0.930273
v 3.626551 0.485020 -0.930273
v 3.858806 0.231633 -0.930273
v 4.083987 -0.012710 -0.930273
v 4.300665 -0.246183 -0.930273
v 4.507412 -0.466960 -0.930273
v 1.184590 3.553068 1.132618
v 0.992266 3.810570 1.132618
v 0.827017 4.039610 1.132618
v 0.529530 4.455488 1.132618
v -0.051477 5.269385 1.132618
v 0.674782 4.252013 1.132618
v 0.384278 4.658962 1.132618
v 0.239027 4.862436 1.132618
v 0.093775 5.065911 1.132618
v 2.911966 1.298295 1.132618
v 2.684412 1.592763 1.132618
v 2.461030 1.885350 1.132618
v 2.019891 2.463327 1.132618
v 2.239046 2.176146 1.132618
v 1.804992 2.745065 1.132618
v 1.595780 3.019534 1.132618
v 1.393681 3.284908 1.132618
v 4.702800 -0.673213 1.132618
v 4.507412 -0.466960 1.132618
v 4.300665 -0.246183 1.132618
v 3.858806 0.231633 1.132618
v 4.083987 -0.012710 1.132618
v 3.626551 0.485020 1.132618
v 3.393583 0.750585 1.132618
v 3.156294 1.021664 1.132618
v 0.000000 5.788627 1.114113
v 0.000000 5.788627 -0.930273
v 0.000000 5.788627 -0.465768
v 0.000000 5.788627 0.084987
v 0.000000 5.788627 0.659258
vn -0.0000 -0.0000 1.0000
vn 0.7151 -0.6990 -0.0000
vn -0.6990 -0.7151 -0.0000
vn -0.7151 0.6990 -0.0000
vn 0.6990 0.7151 -0.0000
vn 0.6814 -0.7319 -0.0000
vn 0.7031 0.7111 -0.0000
vn -0.0000 -0.0000 -1.0000
vn -0.7035 -0.7107 -0.0000
vn -0.8077 -0.5896 -0.0000
vn 0.8078 0.5895 -0.0000
vn -0.7591 -0.6510 -0.0000
vn 0.7593 0.6507 -0.0000
vn -0.7361 -0.6769 -0.0000
vn 0.7353 0.6777 -0.0000
vn 0.7906 0.6124 -0.0000
vn -0.7906 -0.6123 -0.0000
vn 0.8140 0.5809 -0.0000
vn -0.8138 -0.5809 -0.0164
vn -0.8094 -0.5873 -0.0000
vn 0.8095 0.5872 -0.0000
vn 0.8121 0.5836 -0.0000
vn -0.8114 -0.5842 -0.0173
vn 0.8619 -0.5070 -0.0001
vn 0.8624 -0.5062 -0.0001
vn 0.8626 -0.5060 -0.0001
vn 0.5656 0.5812 0.5850
vn 0.5973 0.5633 0.5709
vn 0.2563 0.2430 0.9356
vn 0.1969 0.2465 0.9489
vn 0.6152 0.5435 0.5711
vn 0.2651 0.2354 0.9350
vn 0.8126 0.5829 -0.0000
vn 0.6689 0.4794 0.5681
vn 0.6572 0.4956 0.5678
vn 0.7982 0.6024 -0.0000
vn 0.8163 0.5776 -0.0000
vn 0.7733 0.5474 0.3200
vn 0.6732 0.4710 0.5700
vn 0.8198 0.5727 -0.0000
vn 0.8601 -0.5101 -0.0011
vn 0.8615 -0.5077 -0.0007
vn 0.8574 -0.5147 -0.0021
vn 0.7490 0.6626 -0.0000
vn 0.7275 0.6861 -0.0000
vn 0.6308 0.5278 0.5687
vn 0.6433 0.5124 0.5689
vn 0.2795 0.2239 0.9337
vn 0.2730 0.2291 0.9343
vn 0.2865 0.2173 0.9331
vn 0.6831 0.7289 0.0460
vn 0.7004 0.7134 0.0215
vn 0.4712 0.5382 0.6988
vn 0.2798 0.1987 0.9393
vn 0.2865 0.2004 0.9369
vn 0.2911 0.2108 0.9332
vn 0.6760 0.4696 0.5678
vn 0.2927 0.2042 0.9341
vn 0.8215 0.5702 -0.0000
vn 0.7818 0.6235 -0.0000
vn 0.1561 0.2354 0.9593
vn 0.7667 0.6420 -0.0000
vn 0.8125 0.5829 -0.0000
vn 0.6925 0.7214 -0.0003
vn 0.6926 0.7213 -0.0003
vn 0.6922 0.7217 -0.0003
vn 0.8198 0.5726 -0.0000
vn 0.6662 0.7458 -0.0007
vn 0.6659 0.7460 -0.0006
vn 0.6653 0.7466 -0.0006
vn 0.8619 -0.5070 0.0003
vn 0.8625 -0.5061 0.0003
vn 0.8626 -0.5059 0.0003
vn 0.8636 -0.5042 0.0003
vn 0.8637 -0.5039 0.0003
vn -0.5490 -0.8359 0.0011
vn -0.5490 -0.8358 0.0010
vn -0.5400 -0.8345 -0.1097
vn -0.5399 -0.8344 -0.1108
vn -0.1962 -0.6377 -0.7449
vn -0.3119 -0.7280 -0.6105
vn 0.1547 0.2268 0.9616
vn 0.8656 -0.5007 -0.0045
vn 0.8678 -0.4967 -0.0115
vn 0.8663 -0.4995 -0.0066
vn 0.8636 -0.5042 -0.0001
vn 0.8637 -0.5040 -0.0001
vn 0.0888 -0.3446 -0.9345
vn -0.8139 -0.5810 -0.0000
vn -0.7949 -0.6067 -0.0000
vn -0.8061 -0.5918 -0.0000
vn -0.8119 -0.5838 -0.0000
vn -0.8133 -0.5818 -0.0000
vn -0.7921 -0.6104 -0.0000
vn -0.7708 -0.6371 -0.0000
vn -0.7931 -0.6092 -0.0000
vn -0.7949 -0.6068 -0.0000
vn -0.7950 -0.6066 -0.0000
vn -0.7952 -0.6063 -0.0000
vn -0.7954 -0.6060 -0.0000
vn -0.7510 -0.6603 -0.0000
vn -0.7260 -0.6877 -0.0000
vn -0.7279 -0.6856 -0.0000
vn -0.7315 -0.6819 -0.0000
vn -0.7342 -0.6790 -0.0000
vn -0.7363 -0.6767 -0.0000
vn -0.7445 -0.6676 -0.0000
vn -0.7521 -0.6591 -0.0000
vt 0.490323 0.213019
vt 0.332501 0.213019
vt 0.332501 0.373570
vt 0.490323 0.373570
vt 1.000000 0.882737
vt 0.000000 0.882737
vt 0.000000 0.996169
vt 1.000000 0.996169
vt 0.000000 0.867594
vt 0.000000 0.757548
vt 1.000000 0.757548
vt 1.000000 0.867594
vt 1.000000 0.882737
vt 0.000000 0.867594
vt 0.332501 0.373569
vt 0.332501 0.213019
vt -0.399164 0.882737
vt -0.399164 0.996169
vt -0.784530 0.996169
vt -0.784529 0.882737
vt -0.527664 0.867594
vt -1.298395 0.867594
vt -1.106599 0.757548
vt -0.527664 0.757548
vt 1.399164 0.867594
vt 1.784530 0.867594
vt 1.784530 0.757548
vt 1.399164 0.757548
vt -0.399164 0.882737
vt -0.399164 0.996170
vt 1.527664 0.882737
vt 1.527664 0.996169
vt 0.756933 0.996169
vt 0.756933 0.882737
vt 0.243067 0.867594
vt 0.243067 0.757548
vt 0.628433 0.867594
vt 0.243067 0.867594
vt 0.243067 0.757548
vt 0.628433 0.757548
vt 0.756933 0.882737
vt 1.399164 0.867594
vt 1.013798 0.867594
vt 1.013798 0.757548
vt 1.399164 0.757548
vt 0.371567 0.882737
vt 0.371567 0.996169
vt -0.013798 0.996169
vt -0.013798 0.882737
vt 0.628433 0.867594
vt 1.013799 0.867594
vt 1.013798 0.757548
vt 0.628433 0.757548
vt -0.013798 0.996169
vt 1.784529 0.867594
vt 1.784530 0.757548
vt 2.298395 0.882737
vt 2.298395 0.996169
vt -1.106599 0.757548
vt 2.106599 0.882737
vt 2.106599 0.996169
vt -0.500153 -0.663961
vt -0.665568 -0.664766
vt -0.663476 -0.695000
vt -0.498288 -0.695000
vt -1.167975 -0.503651
vt -1.168526 -0.358642
vt -1.223470 -0.355212
vt -1.222235 -0.505562
vt -1.169352 -0.203243
vt -1.224506 -0.200983
vt -1.002950 0.415672
vt -1.168988 0.415976
vt -1.170277 0.252981
vt -1.004098 0.252963
vt -1.000915 1.296167
vt -1.166716 1.296189
vt -1.167220 0.734485
vt -1.001365 0.734118
vt -0.996398 -0.666376
vt -0.997388 -0.640601
vt -1.162892 -0.641719
vt -1.160322 -0.685451
vt -1.003292 -0.203253
vt -1.002563 -0.358648
vt -1.169973 -0.046020
vt -1.170517 0.120339
vt -1.225923 0.120583
vt -1.225144 -0.044773
vt -1.225604 0.252309
vt -1.001988 -0.503734
vt -1.167791 -0.503681
vt -1.224904 1.250406
vt -1.224611 0.733254
vt -1.224525 0.409911
vt -1.167874 0.564902
vt -1.224263 0.566770
vt -1.167218 0.734483
vt -1.001956 0.565510
vt -1.004215 0.120233
vt -1.201012 -0.504815
vt -1.203746 -0.675242
vt -1.003842 -0.045976
vt -1.170302 0.120295
vt -0.836912 0.415369
vt -0.837919 0.252944
vt -0.670874 0.415066
vt -0.671740 0.252926
vt -0.670198 -0.503871
vt -0.504303 -0.503939
vt -0.504675 -0.358667
vt -0.670638 -0.358661
vt -0.836093 -0.503803
vt -0.836601 -0.358655
vt -0.505630 0.119982
vt -0.671825 0.120066
vt -0.671582 -0.045889
vt -0.505452 -0.045845
vt -0.838019 0.120150
vt -0.837712 -0.045933
vt -0.671172 -0.203272
vt -0.505112 -0.203281
vt -0.837232 -0.203262
vt -0.505561 0.252908
vt -0.504836 0.414763
vt -0.504202 0.567333
vt -0.670120 0.566726
vt -0.836038 0.566118
vt -0.503803 0.733019
vt -0.669657 0.733385
vt -0.835511 0.733751
vt -0.500878 -0.637247
vt -0.666381 -0.638365
vt -0.831885 -0.639483
vt -0.830983 -0.665572
vt -0.503511 1.296103
vt -0.669312 1.296125
vt -0.835113 1.296146
vt -1.217113 -0.681418
vt -1.159040 -0.695000
vt -0.993852 -0.695000
vt -0.828664 -0.695000
vt 0.946268 0.565378
vt 0.946268 0.445042
vt 1.499965 0.445042
vt 1.499965 0.565378
vt 0.053732 0.688472
vt -0.000001 0.566465
vt -0.499965 0.567552
vt -0.499965 0.688472
vt -0.053732 0.445042
vt 0.499965 0.445042
vt 0.499965 0.565378
vt 0.553732 0.688472
vt 0.553732 0.567552
vt 0.000035 0.567552
vt 0.000035 0.688472
vt 0.053732 0.445042
vt 0.053732 0.565378
vt -0.499965 0.565378
vt -0.499965 0.445042
vt 0.446268 0.688472
vt 0.446268 0.567552
vt 0.999965 0.567552
vt 0.999965 0.688472
vt 0.053732 0.688472
vt 0.053732 0.567552
vt -0.499965 0.567552
vt -0.499965 0.688472
vt 0.053732 0.445042
vt 0.053732 0.565378
vt -0.499965 0.565378
vt -0.499965 0.445042
vt 0.946268 0.565378
vt 0.000014 0.566465
vt 0.053732 0.567552
vt -0.000000 0.566465
s 0
usemtl MI_WoodTrim
f 3/1/1 1/2/1 2/3/1 4/4/1
f 8/5/2 2/6/2 1/7/2 6/8/2
f 7/9/3 6/10/3 1/11/3 3/12/3
f 7/13/4 3/6/4 4/7/4 5/8/4
f 4/12/5 2/11/5 8/10/5 5/14/5
f 15/1/6 16/4/6 14/15/6 13/16/6
f 27/17/7 25/18/7 16/19/7 15/20/7
f 35/21/1 12/22/1 10/23/1 34/24/1
f 27/25/8 15/26/8 13/27/8 26/28/8
f 28/29/9 26/30/9 13/19/9 14/20/9
f 34/31/10 36/32/10 18/33/10 20/34/10
f 33/21/8 19/35/8 18/36/8 36/24/8
f 31/37/1 17/38/1 20/39/1 30/40/1
f 33/31/11 35/32/11 17/33/11 19/41/11
f 25/42/1 21/43/1 24/44/1 28/45/1
f 30/46/12 32/47/12 22/48/12 24/49/12
f 29/50/8 23/51/8 22/52/8 32/53/8
f 29/46/13 31/47/13 21/54/13 23/49/13
f 16/55/1 25/42/1 28/45/1 14/56/1
f 24/49/14 22/48/14 26/30/14 28/29/14
f 23/51/8 27/25/8 26/28/8 22/52/8
f 23/49/15 21/54/15 25/18/15 27/17/15
f 19/41/16 17/33/16 31/47/16 29/46/16
f 19/35/8 29/50/8 32/53/8 18/36/8
f 20/34/17 18/33/17 32/47/17 30/46/17
f 21/43/1 31/37/1 30/40/1 24/44/1
f 11/57/18 12/58/18 35/32/18 33/31/18
f 11/22/8 33/21/8 36/24/8 9/59/8
f 10/60/19 9/61/19 36/32/19 34/31/19
f 17/38/1 35/21/1 34/24/1 20/39/1
f 43/1/6 44/4/6 42/15/6 41/16/6
f 55/17/7 53/18/7 44/19/7 43/20/7
f 63/21/1 40/22/1 38/23/1 62/24/1
f 55/25/8 43/26/8 41/27/8 54/28/8
f 56/29/9 54/30/9 41/19/9 42/20/9
f 62/31/20 64/32/20 46/33/20 48/34/20
f 61/21/8 47/35/8 46/36/8 64/24/8
f 59/37/1 45/38/1 48/39/1 58/40/1
f 61/31/21 63/32/21 45/33/21 47/41/21
f 53/42/1 49/43/1 52/44/1 56/45/1
f 58/46/12 60/47/12 50/48/12 52/49/12
f 57/50/8 51/51/8 50/52/8 60/53/8
f 57/46/13 59/47/13 49/54/13 51/49/13
f 44/55/1 53/42/1 56/45/1 42/56/1
f 52/49/14 50/48/14 54/30/14 56/29/14
f 51/51/8 55/25/8 54/28/8 50/52/8
f 51/49/15 49/54/15 53/18/15 55/17/15
f 47/41/16 45/33/16 59/47/16 57/46/16
f 47/35/8 57/50/8 60/53/8 46/36/8
f 48/34/17 46/33/17 60/47/17 58/46/17
f 49/43/1 59/37/1 58/40/1 52/44/1
f 39/57/22 40/58/22 63/32/22 61/31/22
f 39/22/8 61/21/8 64/24/8 37/59/8
f 38/60/23 37/61/23 64/32/23 62/31/23
f 45/38/1 63/21/1 62/24/1 48/39/1
s 57
f 174/143/89 170/144/89 142/145/89 143/146/89
f 166/147/90 167/148/91 149/149/91 141/150/90
f 167/148/91 168/151/92 148/152/92 149/153/91
f 168/154/92 171/155/93 147/156/93 148/157/92
f 171/158/93 169/159/89 146/160/89 147/161/93
f 169/162/89 172/163/89 145/164/89 146/165/89
f 172/166/89 173/167/89 144/168/89 145/169/89
f 173/170/89 174/171/89 143/172/89 144/173/89
f 182/174/94 166/144/90 141/145/90 151/146/94
f 175/147/95 176/175/96 157/149/96 150/150/95
f 176/175/96 177/151/97 156/152/97 157/153/96
f 177/154/97 179/155/90 155/156/90 156/157/97
f 179/158/90 178/159/98 154/160/98 155/161/90
f 178/162/98 180/163/99 153/164/99 154/165/98
f 180/166/99 181/176/100 152/168/100 153/169/99
f 181/170/100 182/171/94 151/172/94 152/173/100
f 190/174/101 175/144/95 150/145/95 159/146/101
f 183/147/102 184/177/103 165/149/103 158/150/102
f 184/177/103 185/151/104 164/152/104 165/153/103
f 185/154/104 187/155/105 163/156/105 164/157/104
f 187/158/105 186/159/106 162/160/106 163/161/105
f 186/162/106 188/163/107 161/164/107 162/165/106
f 188/166/107 189/176/108 160/168/108 161/169/107
f 189/170/108 190/171/101 159/172/101 160/173/108
s 56
usemtl MI_FlatTiles
f 137/62/24 138/63/25 134/64/26 133/65/24
f 78/66/27 69/67/28 71/68/29 79/69/30
f 69/67/28 68/70/31 70/71/32 71/68/29
f 117/72/33 74/73/34 67/74/35 121/75/36
f 195/76/37 191/77/38 84/78/39 110/79/40
f 130/80/41 102/81/42 66/82/43 126/83/43
f 125/84/44 68/70/31 69/67/28 93/85/45
f 76/86/46 77/87/47 80/88/48 81/89/49
f 77/87/47 67/74/35 72/90/50 80/88/48
f 102/81/51 97/91/52 78/92/27 66/82/53
f 84/78/39 191/77/38 65/93/54 85/94/55
f 67/74/35 74/73/34 75/95/56 72/90/50
f 74/73/34 82/96/57 83/97/58 75/95/56
f 110/79/40 84/98/39 82/96/57 106/99/59
f 117/72/33 106/99/59 82/96/57 74/73/34
f 121/75/36 67/74/35 77/87/47 89/100/60
f 79/101/30 126/102/61 66/82/53 78/66/27
f 68/70/31 76/86/46 81/89/49 70/71/32
f 101/103/62 76/86/46 68/70/31 125/84/44
f 89/100/60 77/104/47 76/86/46 101/103/62
f 78/66/27 97/91/52 93/85/45 69/67/28
f 116/105/33 117/72/33 121/75/36 120/106/36
f 115/107/63 116/105/33 120/106/36 119/108/36
f 95/109/64 94/110/65 90/111/45 91/112/45
f 96/113/66 95/109/64 91/112/45 92/114/45
f 97/91/52 96/113/66 92/114/45 93/85/45
f 86/115/60 87/116/60 99/117/62 98/118/62
f 87/116/60 88/119/60 100/120/62 99/117/62
f 88/119/60 89/100/60 101/103/62 100/120/62
f 98/118/62 99/117/62 123/121/44 122/122/44
f 99/117/62 100/120/62 124/123/44 123/121/44
f 100/120/62 101/103/62 125/84/44 124/123/44
f 118/124/36 119/108/36 87/116/60 86/115/60
f 119/108/36 120/106/36 88/119/60 87/116/60
f 120/106/36 121/75/36 89/100/60 88/119/60
f 114/125/63 109/126/59 108/127/59 115/107/63
f 115/107/63 108/127/59 107/128/59 116/105/33
f 116/105/33 107/128/59 106/99/59 117/72/33
f 113/129/67 112/130/40 108/127/59 109/126/59
f 112/130/40 111/131/40 107/128/59 108/127/59
f 111/131/40 110/79/40 106/99/59 107/128/59
f 105/132/68 94/110/65 95/109/64 104/133/69
f 104/133/69 95/109/64 96/113/66 103/134/70
f 103/134/70 96/113/66 97/91/52 102/81/51
f 122/122/44 123/121/44 91/112/45 90/111/45
f 123/121/44 124/123/44 92/114/45 91/112/45
f 124/123/44 125/84/44 93/85/45 92/114/45
f 127/62/71 105/132/71 104/133/72 128/63/73
f 128/63/73 104/133/72 103/134/74 129/135/75
f 129/135/75 103/134/74 102/81/42 130/80/41
f 192/136/37 193/137/37 112/130/40 113/129/67
f 193/137/37 194/138/37 111/131/40 112/130/40
f 194/138/37 195/76/37 110/79/40 111/131/40
f 137/62/76 127/62/76 128/63/76 138/63/76
f 138/63/76 128/63/76 129/135/77 139/135/77
f 140/80/78 130/80/79 126/83/80 131/83/81
f 79/101/30 73/139/82 126/102/61
f 139/135/77 129/135/77 130/80/79 140/80/78
f 140/80/83 131/83/84 132/140/84 136/141/85
f 139/135/86 140/80/83 136/141/85 135/142/87
f 138/63/25 139/135/86 135/142/87 134/64/26
f 73/139/88 132/139/88 131/102/81 126/102/80
f 82/96/57 84/78/39 85/94/55 83/97/58
f 114/125/63 115/107/63 119/108/36 118/124/36
