# Blender 4.0.2
# www.blender.org
mtllib Roof_Modular_FlatTiles_6_Mid_Half.mtl
o Roof_Modular_FlatTiles_6_Mid_Half
v 3.729967 -0.393667 1.000000
v 3.729966 -0.393667 0.032406
v 3.729966 -0.393668 -1.000001
v 3.752660 -0.743554 1.000000
v 3.752659 -0.743555 -1.000001
v 3.752659 -0.743554 0.032406
v 3.566385 -0.557037 1.000000
v 3.566383 -0.557038 -1.000001
v 3.566384 -0.557038 0.032406
v 3.916242 -0.580184 1.000000
v 3.916242 -0.580184 0.032406
v 3.916241 -0.580184 -1.000001
v 1.107556 2.373073 -1.000001
v -0.067534 4.011433 -1.000001
v 0.077718 3.807959 -1.000001
v 0.222970 3.604484 -1.000001
v 0.368221 3.401010 -1.000001
v 0.513473 3.197536 -1.000001
v 0.658725 2.994061 -1.000001
v 0.803977 2.790586 -1.000001
v 0.949228 2.587112 -1.000001
v 2.328891 0.765264 -1.000001
v 1.271239 2.162966 -1.000001
v 1.421846 1.963423 -1.000001
v 1.572453 1.763881 -1.000001
v 1.723060 1.564338 -1.000001
v 1.873667 1.364794 -1.000001
v 2.024275 1.165251 -1.000001
v 2.174882 0.965708 -1.000001
v 3.711207 -0.683962 -1.000001
v 2.501499 0.580327 -1.000001
v 2.670705 0.396290 -1.000001
v 2.839872 0.212294 -1.000001
v 3.014139 0.033043 -1.000001
v 3.188406 -0.146209 -1.000001
v 3.362673 -0.325460 -1.000001
v 3.536941 -0.504711 -1.000001
v 1.107556 2.373073 1.000000
v -0.067534 4.011433 1.000000
v 0.077718 3.807959 1.000000
v 0.222970 3.604484 1.000000
v 0.368221 3.401010 1.000000
v 0.513473 3.197536 1.000000
v 0.658725 2.994061 1.000000
v 0.803977 2.790586 1.000000
v 0.949228 2.587112 1.000000
v 2.328891 0.765264 1.000000
v 1.271239 2.162966 1.000000
v 1.421846 1.963423 1.000000
v 1.572453 1.763881 1.000000
v 1.723060 1.564338 1.000000
v 1.873667 1.364794 1.000000
v 2.024275 1.165251 1.000000
v 2.174882 0.965708 1.000000
v 3.711207 -0.683962 1.000000
v 2.501499 0.580327 1.000000
v 2.670705 0.396290 1.000000
v 2.839872 0.212294 1.000000
v 3.014139 0.033043 1.000000
v 3.188406 -0.146209 1.000000
v 3.362673 -0.325460 1.000000
v 3.536941 -0.504711 1.000000
v 0.000000 4.576202 -0.530529
v 0.000000 4.576202 -0.014897
v 0.000000 4.576202 0.499669
v 0.000000 4.576202 1.000000
v 1.830451 1.949154 -0.530529
v 1.830276 1.949379 -0.014877
v 1.830101 1.949604 0.499669
v 1.829925 1.949828 1.000000
v 3.074730 0.470464 -0.014897
v 3.074730 0.470464 0.499669
v 3.074730 0.470464 1.000000
v 3.473245 0.049195 -0.014771
v 3.473065 0.049385 0.499669
v 3.472886 0.049575 1.000000
v 2.250925 1.425167 -0.530529
v 2.251063 1.424986 -0.014852
v 2.251202 1.424806 0.499669
v 2.251341 1.424625 1.000000
v 4.033944 -0.464300 1.000000
v 4.033787 -0.464994 0.499669
v 4.033630 -0.465687 0.010973
v 4.033473 -0.466380 -0.530529
v 0.756649 3.449893 1.000000
v 0.755185 3.452057 0.499669
v 0.753721 3.454220 -0.014898
v 0.752257 3.456384 -0.530529
v 0.371265 4.023444 1.000000
v 0.372070 4.022246 0.499669
v 0.372875 4.021048 -0.014897
v 1.116146 2.922163 -0.530529
v 1.115459 2.923119 -0.014895
v 1.114772 2.924076 0.499669
v 1.114085 2.925032 1.000000
v 1.502815 2.383570 -0.014888
v 1.502809 2.383574 0.499669
v 1.502803 2.383579 1.000000
v 2.659035 0.934538 -0.530529
v 2.659035 0.934538 -0.014897
v 2.659035 0.934538 0.499669
v 2.659035 0.934538 1.000000
v 4.004129 -0.514055 -0.530529
v 4.004344 -0.513510 0.017468
v 4.004561 -0.512965 0.499669
v 4.004777 -0.512420 1.000000
v 3.865215 -0.593469 0.034151
v 3.865583 -0.593306 0.499669
v 3.865951 -0.593143 1.000000
v 3.940310 -0.471030 -0.530529
v 3.940526 -0.470486 0.017453
v 3.940742 -0.469941 0.499669
v 3.940958 -0.469396 1.000000
v 0.000000 4.576202 -0.999999
v 1.830101 1.949604 -0.999999
v 3.074730 0.470464 -0.999999
v 3.074730 0.470464 -0.530529
v 3.473065 0.049385 -0.999999
v 3.472886 0.049575 -0.530529
v 2.251202 1.424806 -0.999999
v 4.033787 -0.464994 -0.999999
v 0.755185 3.452057 -0.999999
v 0.371265 4.023444 -0.530529
v 0.372070 4.022246 -0.999999
v 1.114772 2.924076 -0.999999
v 1.502809 2.383574 -0.999999
v 1.502803 2.383579 -0.530529
v 2.659035 0.934538 -0.999999
v 4.004561 -0.512965 -0.999999
v 3.865583 -0.593306 -0.999999
v 3.865951 -0.593143 -0.530529
v 3.940742 -0.469941 -0.999999
vn 0.7066 -0.7076 -0.0000
vn -0.7076 -0.7066 -0.0000
vn 0.7076 0.7066 -0.0000
vn -0.7066 0.7076 -0.0000
vn -0.8139 -0.5810 -0.0000
vn -0.7965 -0.6047 -0.0000
vn -0.8090 -0.5879 -0.0000
vn -0.7935 -0.6085 -0.0000
vn -0.7629 -0.6465 -0.0000
vn -0.7956 -0.6059 -0.0000
vn -0.7982 -0.6024 -0.0000
vn -0.7336 -0.6796 -0.0000
vn -0.7170 -0.6971 -0.0000
vn -0.7266 -0.6870 -0.0000
vn -0.7361 -0.6768 -0.0000
vn 0.8538 -0.5207 -0.0000
vn 0.8534 -0.5212 0.0002
vn 0.8195 0.5731 -0.0000
vn 0.8054 0.5927 -0.0000
vn 0.7019 0.7122 -0.0003
vn 0.7020 0.7121 0.0002
vn 0.7357 0.6773 -0.0000
vn 0.7017 0.7125 -0.0003
vn 0.7015 0.7126 -0.0003
vn 0.7892 0.6141 -0.0000
vn 0.7893 0.6141 -0.0000
vn 0.7744 0.6327 -0.0000
vn 0.7893 0.6140 -0.0000
vn 0.7570 0.6535 -0.0000
vn 0.7569 0.6535 -0.0000
vn 0.8283 0.5603 -0.0000
vn 0.8301 0.5576 -0.0000
vn 0.6768 0.7362 0.0004
vn 0.6766 0.7364 -0.0006
vn 0.6760 0.7369 -0.0006
vn 0.6757 0.7372 -0.0006
vn 0.8525 -0.5227 -0.0002
vn 0.8528 -0.5223 0.0003
vn 0.8529 -0.5221 0.0003
vn 0.8540 -0.5203 0.0003
vn 0.8546 -0.5193 0.0003
vn -0.5590 -0.8292 0.0011
vn -0.5590 -0.8292 0.0012
vn 0.8540 -0.5203 -0.0001
vn 0.8546 -0.5193 -0.0001
vn -0.5590 -0.8292 -0.0007
vn 0.8540 -0.5202 -0.0005
vn 0.7020 0.7122 0.0006
vn 0.6766 0.7363 0.0013
vn 0.8528 -0.5222 -0.0007
vn -0.5590 -0.8292 -0.0024
vt 0.000000 0.996169
vt 0.375000 0.996169
vt 0.375000 0.882737
vt 0.000000 0.882737
vt 1.000000 0.996169
vt 1.000000 0.882737
vt 1.000000 0.867594
vt 0.477303 0.867594
vt 0.477303 0.757548
vt 1.000000 0.757548
vt 0.000000 0.867594
vt 0.000000 0.757548
vt 0.477303 0.867594
vt 0.477303 0.757548
vt 1.000000 0.867594
vt 0.000000 0.882737
vt 0.500035 0.565378
vt 0.500035 0.445042
vt 1.499965 0.445042
vt 1.499965 0.565378
vt 0.499965 0.688472
vt 0.499965 0.567552
vt -0.499965 0.567552
vt -0.499965 0.688472
vt -0.499965 0.565378
vt -0.499965 0.445042
vt 0.499965 0.445042
vt 0.499965 0.565378
vt 0.999965 0.688472
vt 0.999965 0.567552
vt 0.000035 0.567552
vt 0.000035 0.688472
vt 0.499965 0.445042
vt 0.499965 0.565377
vt -0.499965 0.565378
vt -0.499965 0.445042
vt -0.499965 0.567552
vt -0.499965 0.688472
vt 0.499965 0.445042
vt 0.499965 0.565377
vt -0.003907 -0.688930
vt -0.169323 -0.689855
vt -0.167913 -0.727372
vt -0.002725 -0.727372
vt -0.338797 0.609489
vt -0.504836 0.609837
vt -0.505561 0.423848
vt -0.339382 0.423827
vt -0.172759 0.609141
vt -0.173203 0.423806
vt -0.172512 -0.446006
vt -0.006617 -0.446084
vt -0.006786 -0.278938
vt -0.172749 -0.278931
vt -0.338408 -0.445928
vt -0.338712 -0.278924
vt -0.504303 -0.445850
vt -0.504675 -0.278917
vt -0.007044 0.270814
vt -0.173239 0.270910
vt -0.173191 0.080649
vt -0.007061 0.080699
vt -0.339435 0.271006
vt -0.339321 0.080599
vt -0.505630 0.271103
vt -0.505452 0.080549
vt -0.172993 -0.100384
vt -0.006933 -0.100394
vt -0.339053 -0.100373
vt -0.505112 -0.100362
vt -0.007024 0.423785
vt -0.006721 0.608792
vt -0.006448 0.787252
vt -0.172366 0.786553
vt -0.338284 0.785855
vt -0.504202 0.785156
vt -0.006241 0.974284
vt -0.172095 0.974705
vt -0.337949 0.975126
vt -0.503803 0.975547
vt -0.004367 -0.657153
vt -0.169871 -0.658438
vt -0.335374 -0.659723
vt -0.500878 -0.661008
vt -0.334738 -0.690780
vt -0.500153 -0.691705
vt -0.006107 1.158947
vt -0.171908 1.158972
vt -0.337709 1.158996
vt -0.503511 1.159021
vt -0.498288 -0.727372
vt -0.333100 -0.727372
s 0
usemtl MI_WoodTrim
f 4/1/1 6/2/1 11/3/1 10/4/1
f 6/2/1 5/5/1 12/6/1 11/3/1
f 7/7/2 9/8/2 6/9/2 4/10/2
f 9/8/2 8/11/2 5/12/2 6/9/2
f 3/11/3 2/13/3 11/14/3 12/12/3
f 2/13/3 1/15/3 10/10/3 11/14/3
f 1/1/4 2/2/4 9/3/4 7/16/4
f 2/2/4 3/5/4 8/6/4 9/3/4
s 9
f 40/17/5 39/18/5 14/19/5 15/20/5
f 38/21/6 46/22/7 21/23/7 13/24/6
f 46/25/7 45/26/5 20/27/5 21/28/7
f 45/29/5 44/30/5 19/31/5 20/32/5
f 44/33/5 43/34/5 18/35/5 19/36/5
f 43/32/5 42/31/5 17/30/5 18/29/5
f 42/21/5 41/22/5 16/37/5 17/38/5
f 41/39/5 40/40/5 15/25/5 16/26/5
f 48/17/8 38/18/6 13/19/6 23/20/8
f 47/21/9 54/22/10 29/23/10 22/24/9
f 54/25/10 53/26/11 28/27/11 29/28/10
f 53/29/11 52/30/11 27/31/11 28/32/11
f 52/33/11 51/34/11 26/35/11 27/36/11
f 51/32/11 50/31/11 25/30/11 26/29/11
f 50/21/11 49/22/11 24/37/11 25/38/11
f 49/39/11 48/40/8 23/25/8 24/26/11
f 56/17/12 47/18/9 22/19/9 31/20/12
f 55/21/13 62/22/13 37/23/13 30/24/13
f 62/25/13 61/26/13 36/27/13 37/28/13
f 61/29/13 60/30/13 35/31/13 36/32/13
f 60/33/13 59/34/13 34/35/13 35/36/13
f 59/32/13 58/31/14 33/30/14 34/29/13
f 58/21/14 57/22/15 32/37/15 33/38/14
f 57/39/15 56/40/12 31/25/12 32/26/15
s 10
usemtl MI_FlatTiles
f 110/41/16 111/42/17 107/43/17 131/44/16
f 94/45/18 95/46/18 98/47/19 97/48/19
f 93/49/18 94/45/18 97/48/19 96/50/19
f 74/51/20 119/52/21 117/53/22 71/54/22
f 75/55/23 74/51/20 71/54/22 72/56/22
f 76/57/24 75/55/23 72/56/22 73/58/22
f 67/59/25 68/60/26 78/61/27 77/62/27
f 68/60/26 69/63/26 79/64/27 78/61/27
f 69/63/26 70/65/28 80/66/27 79/64/27
f 77/62/27 78/61/27 100/67/29 99/68/29
f 78/61/27 79/64/27 101/69/30 100/67/29
f 79/64/27 80/66/27 102/70/30 101/69/30
f 127/71/19 96/50/19 68/60/26 67/59/25
f 96/50/19 97/48/19 69/63/26 68/60/26
f 97/48/19 98/47/19 70/65/28 69/63/26
f 92/72/18 88/73/31 87/74/31 93/49/18
f 93/49/18 87/74/31 86/75/31 94/45/18
f 94/45/18 86/75/31 85/76/31 95/46/18
f 123/77/32 91/78/32 87/74/31 88/73/31
f 91/78/32 90/79/32 86/75/31 87/74/31
f 90/79/32 89/80/32 85/76/31 86/75/31
f 84/81/33 119/52/21 74/51/20 83/82/34
f 83/82/34 74/51/20 75/55/23 82/83/35
f 82/83/35 75/55/23 76/57/24 81/84/36
f 99/68/29 100/67/29 71/54/22 117/53/22
f 100/67/29 101/69/30 72/56/22 71/54/22
f 101/69/30 102/70/30 73/58/22 72/56/22
f 103/41/37 84/81/37 83/82/38 104/42/39
f 104/42/39 83/82/38 82/83/40 105/85/40
f 105/85/40 82/83/40 81/84/41 106/86/41
f 63/87/32 64/88/32 91/78/32 123/77/32
f 64/88/32 65/89/32 90/79/32 91/78/32
f 65/89/32 66/90/32 89/80/32 90/79/32
f 111/42/42 104/42/42 105/85/43 112/85/43
f 112/85/43 105/85/43 106/86/42 113/86/42
f 112/85/44 113/86/45 109/91/45 108/92/44
f 111/42/17 112/85/44 108/92/44 107/43/17
f 110/41/46 103/41/46 104/42/42 111/42/42
f 125/45/18 92/46/18 127/47/19 126/48/19
f 132/85/47 110/86/16 131/91/16 130/92/47
f 119/57/21 118/55/48 116/56/22 117/58/22
f 115/63/26 67/65/25 77/66/27 120/64/27
f 120/64/27 77/66/27 99/70/29 128/69/29
f 126/48/19 127/47/19 67/65/25 115/63/26
f 125/45/18 122/75/31 88/76/31 92/46/18
f 124/79/32 123/80/32 88/76/31 122/75/31
f 121/83/49 118/55/48 119/57/21 84/84/33
f 128/69/29 99/70/29 117/58/22 116/56/22
f 129/85/50 121/83/50 84/84/37 103/86/37
f 114/89/32 63/90/32 123/80/32 124/79/32
f 132/85/51 129/85/51 103/86/46 110/86/46
f 92/72/18 93/49/18 96/50/19 127/71/19
