# Blender 4.0.2
# www.blender.org
mtllib Roof_Front_Wood6.mtl
o Roof_Front_Wood6
v -0.880000 0.019167 -0.249701
v 0.000000 0.019167 -0.249700
v 0.000000 4.377230 -0.249700
v 0.880000 0.019167 -0.249700
v 0.880000 3.099452 -0.249700
v 3.122550 0.019167 -0.249699
v 3.122550 0.331691 -0.249699
v -0.880000 3.099452 -0.249701
v -3.122550 0.019167 -0.249701
v -3.122550 0.331691 -0.249701
v 3.347877 -0.131802 -0.108670
v 3.347877 -0.131802 0.117623
v 3.347877 0.131802 -0.108670
v 3.347877 0.131802 0.117623
v -3.346518 -0.131802 -0.108670
v -3.346518 -0.131802 0.117623
v -3.346518 0.131802 -0.108670
v -3.346518 0.131802 0.117623
v 1.010297 2.640000 -0.169114
v 1.241487 2.640000 -0.169115
v 1.010297 2.640000 0.094489
v 1.241487 2.640000 0.094489
v 1.010298 -0.000000 -0.169115
v 1.241489 -0.000000 -0.169115
v 1.010298 -0.000000 0.094489
v 1.241489 -0.000000 0.094489
v -1.010297 2.640000 -0.169115
v -1.241487 2.640000 -0.169116
v -1.010297 2.640000 0.094488
v -1.241487 2.640000 0.094488
v -1.010298 -0.000000 -0.169116
v -1.241489 -0.000000 -0.169116
v -1.010298 -0.000000 0.094488
v -1.241489 -0.000000 0.094488
v -1.063044 2.843595 -0.205285
v -1.218272 2.612404 -0.205285
v -1.063044 2.843595 0.058319
v -1.218272 2.612404 0.058319
v 1.237385 2.612406 0.058320
v 1.237385 2.612406 -0.205284
v 1.079201 2.843596 0.058320
v 1.079202 2.843596 -0.205284
v 1.074351 2.151636 -0.021146
v 1.074351 2.252580 -0.021146
v 1.074351 2.151636 0.082858
v 1.074351 2.252580 0.082858
v -1.117761 2.151636 -0.021147
v -1.117761 2.252580 -0.021147
v -1.117761 2.151636 0.082857
v -1.117761 2.252580 0.082857
v 0.050472 4.383982 -0.055221
v -0.050472 4.383982 -0.055221
v 0.050472 4.383982 0.048783
v -0.050472 4.383982 0.048783
v 0.050472 2.711982 -0.055221
v -0.050472 2.711982 -0.055221
v 0.050472 2.711982 0.048783
v -0.050472 2.711982 0.048783
v -0.392457 3.326602 0.794139
v -0.324667 3.421056 0.794139
v -0.267586 3.236982 0.794139
v -0.199796 3.331436 0.794139
v -0.898385 2.621679 0.794139
v -0.830595 2.716133 0.794139
v -0.773515 2.532059 0.794139
v -0.705725 2.626513 0.794139
v -1.404314 1.916756 0.794139
v -1.336524 2.011210 0.794139
v -1.279443 1.827136 0.794139
v -1.211653 1.921589 0.794139
v -1.922383 1.223966 0.794139
v -1.849605 1.314633 0.794139
v -1.802519 1.127753 0.794139
v -1.729742 1.218419 0.794139
v -2.479864 0.568297 0.794139
v -2.400155 0.652935 0.794139
v -2.367971 0.462920 0.794139
v -2.288262 0.547557 0.794139
v 0.392456 3.326602 0.794140
v 0.324666 3.421056 0.794140
v 0.267586 3.236982 0.794140
v 0.199796 3.331436 0.794140
v 0.898385 2.621679 0.794140
v 0.830595 2.716133 0.794140
v 0.773514 2.532059 0.794140
v 0.705724 2.626513 0.794140
v 1.404313 1.916756 0.794140
v 1.336523 2.011210 0.794140
v 1.279443 1.827136 0.794140
v 1.211653 1.921589 0.794140
v 1.922382 1.223966 0.794140
v 1.849605 1.314633 0.794140
v 1.802518 1.127753 0.794140
v 1.729741 1.218419 0.794140
v 2.479863 0.568297 0.794140
v 2.400155 0.652935 0.794140
v 2.367970 0.462920 0.794140
v 2.288261 0.547557 0.794140
v 3.347877 0.131802 -0.108671
v 3.347877 0.131802 -0.334964
v 3.347877 -0.131802 -0.108671
v 3.347877 -0.131802 -0.334964
v -3.346518 0.131802 -0.108670
v -3.346518 0.131802 -0.334964
v -3.346518 -0.131802 -0.108670
v -3.346518 -0.131802 -0.334964
v -0.830595 2.716133 -0.153780
v -1.922382 1.223966 -0.153780
v 0.830595 2.716133 -0.153780
v 2.288262 0.547558 -0.153780
v 1.922382 1.223966 -0.153780
v 0.267586 3.236982 -0.153780
v -1.279443 1.827136 -0.153779
v -2.288262 0.547558 -0.153779
v 1.279443 1.827136 -0.153779
v -0.705724 2.626513 -0.153780
v 0.705725 2.626513 -0.153780
v 0.324667 3.421056 -0.153780
v -1.336524 2.011210 -0.153779
v -2.479864 0.568297 -0.153779
v 1.336524 2.011210 -0.153779
v 2.400155 0.652935 -0.153779
v -0.898385 2.621680 -0.153780
v 0.898385 2.621680 -0.153780
v -1.802519 1.127753 -0.153780
v 0.392456 3.326602 -0.153780
v 1.802519 1.127753 -0.153779
v -1.211653 1.921589 -0.153780
v 1.211653 1.921589 -0.153780
v 2.479864 0.568297 -0.153780
v -0.267586 3.236982 -0.153780
v -0.199796 3.331436 -0.153780
v -1.849605 1.314633 -0.153780
v 1.849605 1.314633 -0.153779
v -1.404313 1.916756 -0.153779
v 1.404313 1.916756 -0.153780
v -2.367970 0.462920 -0.153779
v -0.773514 2.532059 -0.153780
v -0.324667 3.421056 -0.153780
v -0.392456 3.326602 -0.153780
v -1.729741 1.218419 -0.153780
v 0.773515 2.532059 -0.153780
v 2.367970 0.462920 -0.153779
v 1.729741 1.218419 -0.153780
v 0.199796 3.331436 -0.153780
v -2.400155 0.652935 -0.153779
v -3.144029 0.051603 0.000000
v -1.050279 0.051603 0.000000
v -1.311998 2.191472 0.000000
v -1.573717 2.191472 0.000000
v -2.882310 0.051603 0.000000
v -2.620592 0.051603 -0.000000
v -2.358873 0.051603 0.000000
v -2.097154 0.051603 0.000000
v -1.835435 0.051603 0.000000
v -1.573717 0.051603 0.000000
v -1.311998 0.051603 0.000000
v -1.050279 2.191472 0.000000
v 1.043471 0.051603 0.000000
v 0.258314 2.191472 0.000000
v -0.003404 2.191472 0.000000
v -0.265123 2.191472 0.000000
v -0.526842 2.191472 -0.000000
v -0.788561 2.191472 0.000000
v -0.788561 0.051603 0.000000
v -0.526842 0.051603 -0.000000
v -0.265123 0.051603 0.000000
v -0.003404 0.051603 0.000000
v 0.258314 0.051603 0.000000
v 0.520033 0.051603 0.000000
v 0.781752 0.051603 0.000000
v 0.520033 2.191472 0.000000
v 0.781752 2.191472 0.000000
v 1.043471 2.191472 0.000000
v 3.137220 0.051603 0.000000
v 1.566908 2.191472 0.000000
v 1.305189 2.191472 0.000000
v 1.305189 0.051603 0.000000
v 1.566908 0.051603 0.000000
v 1.828627 0.051603 0.000000
v 2.090345 0.051603 -0.000000
v 2.352064 0.051603 -0.000000
v 2.613783 0.051603 -0.000000
v 2.875502 0.051603 -0.000000
v -2.882310 0.632268 0.000000
v -0.526842 3.618051 -0.000000
v -2.620592 0.944109 -0.000000
v -1.050279 2.904762 0.000000
v -2.097154 1.567790 0.000000
v -0.788561 3.261406 0.000000
v -0.265123 3.974697 0.000000
v -2.358873 1.255950 0.000000
v -3.144029 0.320427 0.000000
v -1.311998 2.548117 0.000000
v -1.835435 1.879632 0.000000
v 1.828627 1.884242 0.000000
v 3.137220 0.348093 0.000000
v -0.003404 4.326381 0.000000
v 2.090345 1.577013 -0.000000
v 2.352064 1.269783 -0.000000
v 0.258314 3.970563 0.000000
v 0.520033 3.614745 0.000000
v 2.875502 0.655323 -0.000000
v 1.043470 2.903108 -0.000000
v 0.781752 3.258927 -0.000000
v 2.613783 0.962553 -0.000000
v -0.005226 4.328858 0.000000
v 1.305189 2.547290 0.000000
v 0.115596 2.640000 -0.169115
v -0.115594 2.640000 -0.169116
v 0.115596 2.640000 0.094488
v -0.115594 2.640000 0.094488
v 0.115594 -0.000000 -0.169116
v -0.115596 -0.000000 -0.169116
v 0.115594 -0.000000 0.094488
v -0.115596 -0.000000 0.094488
v -1.086085 0.130061 -0.205284
v -1.086086 0.130061 0.058320
v -1.196976 -0.127182 -0.205284
v -1.196976 -0.127182 0.058320
v -0.914018 0.108492 -0.205285
v -0.914018 0.108492 0.058320
v -1.191540 0.070382 -0.205284
v -1.191540 0.070382 0.058320
v -0.093476 2.266859 0.058319
v 0.043902 2.024636 0.058319
v -0.093476 2.266859 -0.205285
v 0.043902 2.024635 -0.205285
v -2.202152 1.462850 0.058319
v -2.044430 1.646013 -0.205285
v -2.044430 1.646012 0.058319
v -2.202152 1.462850 -0.205285
v 1.086086 0.130061 -0.205284
v 1.086086 0.130061 0.058320
v 1.196976 -0.127182 -0.205284
v 1.196976 -0.127182 0.058321
v 0.914018 0.108492 -0.205284
v 0.914018 0.108492 0.058320
v 1.191540 0.070382 -0.205284
v 1.191540 0.070382 0.058321
v 0.093476 2.266859 0.058319
v -0.043902 2.024636 0.058319
v 0.093476 2.266859 -0.205285
v -0.043902 2.024635 -0.205285
v 2.202152 1.462850 0.058321
v 2.044430 1.646013 -0.205284
v 2.044430 1.646012 0.058321
v 2.202152 1.462850 -0.205283
vn -0.0000 -0.0000 -1.0000
vn 1.0000 -0.0000 -0.0000
vn -1.0000 -0.0000 -0.0000
vn -0.0000 1.0000 -0.0000
vn -0.0000 -0.0000 1.0000
vn -0.0000 -1.0000 -0.0000
vn -0.8124 0.5831 -0.0000
vn -0.5831 -0.8124 -0.0000
vn 0.8124 -0.5831 -0.0000
vn -0.7798 0.6260 -0.0000
vn -0.6260 -0.7798 -0.0000
vn 0.7798 -0.6260 -0.0000
vn -0.7280 0.6856 -0.0000
vn -0.6856 -0.7280 -0.0000
vn 0.7280 -0.6856 -0.0000
vn 0.8124 0.5831 -0.0000
vn 0.5831 -0.8124 -0.0000
vn -0.8124 -0.5831 -0.0000
vn 0.7798 0.6260 -0.0000
vn 0.6260 -0.7798 -0.0000
vn -0.7798 -0.6260 -0.0000
vn 0.7280 0.6856 -0.0000
vn 0.6856 -0.7280 -0.0000
vn -0.7280 -0.6856 -0.0000
vn -0.5831 0.8124 -0.0000
vn 0.5831 0.8124 -0.0000
vn -0.6260 0.7798 -0.0000
vn 0.6260 0.7798 -0.0000
vn -0.6856 0.7280 -0.0000
vn 0.6856 0.7280 -0.0000
vn 0.8453 0.5344 -0.0000
vn 0.8945 -0.4472 -0.0000
vn -0.8945 0.4472 -0.0000
vn -0.8453 -0.5344 -0.0000
vn -0.8453 0.5344 -0.0000
vn -0.8945 -0.4472 -0.0000
vn 0.8945 0.4472 -0.0000
vn 0.8453 -0.5344 -0.0000
vt 0.822237 1.152342
vt 0.480777 1.648148
vt 0.480777 -0.042878
vt 0.822237 -0.042878
vt 1.692397 -0.042877
vt 1.692397 0.078389
vt 0.139318 1.152342
vt 0.139318 -0.042877
vt -0.730842 0.078389
vt -0.730842 -0.042877
vt 0.332501 0.213019
vt 0.490323 0.213019
vt 0.490323 0.373570
vt 0.332501 0.373570
vt 2.298395 0.882737
vt -1.298395 0.882737
vt -1.298395 0.996169
vt 2.298395 0.996169
vt 2.298395 0.867594
vt 2.298395 0.757548
vt -1.298395 0.757548
vt -1.298395 0.867594
vt 1.000000 0.882737
vt 0.000000 0.882737
vt 0.000000 0.996169
vt 1.000000 0.996169
vt 1.000000 0.867594
vt 1.000000 0.757548
vt 0.000000 0.757548
vt 0.000000 0.867594
vt 0.961467 0.867594
vt 0.961467 0.757548
vt 0.031294 0.757548
vt 0.031294 0.867594
vt 0.091212 0.867594
vt 0.091212 0.757549
vt 0.902668 0.757548
vt 0.902668 0.867594
vt 0.908789 0.996169
vt 0.968706 0.882737
vt 0.038533 0.882737
vt 0.097332 0.996169
vt 0.968706 0.996169
vt 0.908788 0.882737
vt 0.097332 0.882737
vt 0.038533 0.996169
vt 1.300223 0.691876
vt 1.300223 0.750551
vt 0.000000 0.750551
vt 0.000000 0.691876
vt 0.619097 0.882737
vt 0.619097 0.996169
vt 0.380903 0.757548
vt 0.380903 0.867594
vt 0.619097 0.882737
vt 0.619097 0.996169
vt 0.380903 0.757548
vt 0.380903 0.867594
vt 0.619097 0.996169
vt 0.619098 0.882737
vt 0.619098 0.996169
vt 0.380902 0.757548
vt 0.380902 0.867594
vt 0.619097 0.996169
vt 0.619098 0.996169
vt 0.380902 0.757548
vt 0.619098 0.882737
vt 0.619098 0.996169
vt 0.380902 0.757548
vt 0.380902 0.867594
vt 0.619097 0.996169
vt 0.619097 0.882737
vt 0.380903 0.867594
vt 0.380903 0.757548
vt 0.619097 0.996169
vt 0.619097 0.996169
vt 0.619097 0.882737
vt 0.380903 0.867594
vt 0.380903 0.757548
vt 0.619097 0.882737
vt 0.380903 0.757548
vt 0.380903 0.867594
vt 0.380903 0.757548
vt 0.380903 0.867594
vt 0.380903 0.867594
vt 0.380903 0.757548
vt 0.380903 0.867594
vt 0.380903 0.867594
vt 0.380903 0.757548
vt 0.380902 0.867594
vt 0.380902 0.757548
vt 0.500035 0.565378
vt 1.499965 0.565378
vt 1.499965 0.445042
vt 0.500035 0.445042
vt 0.499965 0.445042
vt -0.499965 0.445042
vt -0.499965 0.565378
vt 0.499965 0.565377
vt 0.499965 0.688472
vt -0.499965 0.688472
vt -0.499965 0.567552
vt 0.499965 0.567552
vt 0.499965 0.565378
vt 0.499965 0.445042
vt 0.999965 0.688472
vt 0.000035 0.688472
vt 0.000035 0.567552
vt 0.999965 0.567552
vt 0.499965 0.445042
vt -0.499965 0.445042
vt -0.499965 0.565378
vt 0.499965 0.565377
vt -0.499965 0.688472
vt -0.499965 0.567552
vt 0.856401 0.567552
vt -0.000000 0.567552
vt -0.166655 0.688472
vt 0.833310 0.567552
vt 0.666655 0.688472
vt 0.082910 0.445042
vt 0.228628 0.565378
vt 0.208528 0.565377
vt 0.062809 0.445042
vt 0.354246 0.688472
vt 1.166655 0.445042
vt 1.333310 0.565378
vt -0.166655 0.445042
vt 0.000000 0.565378
vt -0.228628 0.567552
vt -0.374347 0.688472
vt 0.562809 0.567552
vt 0.417090 0.688472
vt 0.145754 0.567552
vt 0.291472 0.688472
vt -0.333310 0.565378
vt 0.497647 0.565377
vt 0.498805 0.564540
vt 0.333310 0.445042
vt 0.168622 0.567552
vt 0.002353 0.688472
vt -0.001159 0.565378
vt 0.165110 0.445042
vt 0.430727 0.567552
vt 0.287163 0.688472
vt -0.217855 0.565378
vt -0.074291 0.445042
vt -0.333696 0.567552
vt -0.167428 0.688472
vt 1.167428 0.445042
vt 1.001159 0.565378
vt 0.165110 0.567552
vt 0.331378 0.688472
vt 1.361419 0.445042
vt 1.217855 0.565378
vt 0.212837 0.565377
vt 0.356401 0.445042
vt -0.074291 0.567552
vt 0.069273 0.688472
vt 0.333696 0.565378
vt 0.256164 0.882737
vt 0.229444 0.996169
vt 0.229444 0.882737
vt 0.256164 0.996169
vt 0.770556 0.757548
vt 0.770556 0.867594
vt 0.743836 0.867594
vt 0.743836 0.757548
s 2
usemtl MI_WoodTrim
f 11/11/2 13/12/2 14/13/2 12/14/2
f 17/12/3 15/11/3 16/14/3 18/13/3
f 13/15/4 17/16/4 18/17/4 14/18/4
f 18/19/5 16/20/5 12/21/5 14/22/5
f 13/22/1 11/21/1 15/20/1 17/19/1
f 12/15/6 16/16/6 15/17/6 11/18/6
s 3
f 19/11/4 21/12/4 22/13/4 20/14/4
f 21/23/5 25/24/5 26/25/5 22/26/5
f 26/27/2 24/28/2 20/29/2 22/30/2
f 21/30/3 19/29/3 23/28/3 25/27/3
f 20/23/1 24/24/1 23/25/1 19/26/1
s 4
f 27/11/4 28/14/4 30/13/4 29/12/4
f 29/23/5 30/26/5 34/25/5 33/24/5
f 34/27/3 30/30/3 28/29/3 32/28/3
f 29/30/2 33/27/2 31/28/2 27/29/2
f 28/23/1 27/26/1 31/25/1 32/24/1
s 5
f 38/31/6 36/32/6 40/33/6 39/34/6
f 41/35/4 42/36/4 35/37/4 37/38/4
f 42/39/1 40/40/1 36/41/1 35/42/1
f 39/43/5 41/44/5 37/45/5 38/46/5
s 6
f 43/11/2 44/14/2 46/13/2 45/12/2
f 49/12/3 50/13/3 48/14/3 47/11/3
f 45/47/5 46/48/5 50/49/5 49/50/5
f 50/48/4 46/49/4 44/50/4 48/47/4
f 45/49/6 49/48/6 47/47/6 43/50/6
f 44/47/1 43/48/1 47/49/1 48/50/1
s 7
f 51/11/4 52/14/4 54/13/4 53/12/4
f 57/12/6 58/13/6 56/14/6 55/11/6
f 53/47/5 54/48/5 58/49/5 57/50/5
f 58/48/3 54/49/3 52/50/3 56/47/3
f 53/49/2 57/48/2 55/47/2 51/50/2
f 52/47/1 51/48/1 55/49/1 56/50/1
s 8
f 59/11/5 61/12/5 62/13/5 60/14/5
f 60/23/7 139/51/7 140/52/7 59/26/7
f 61/30/8 59/29/8 140/53/8 131/54/8
f 61/23/9 131/51/9 132/52/9 62/26/9
s 9
f 63/11/5 65/12/5 66/13/5 64/14/5
f 64/23/7 107/55/7 123/56/7 63/26/7
f 65/30/8 63/29/8 123/57/8 138/58/8
f 65/23/9 138/55/9 116/59/9 66/26/9
s 10
f 67/11/5 69/12/5 70/13/5 68/14/5
f 68/23/7 119/60/7 135/61/7 67/26/7
f 69/30/8 67/29/8 135/62/8 113/63/8
f 69/23/9 113/60/9 128/64/9 70/26/9
s 11
f 71/11/5 73/12/5 74/13/5 72/14/5
f 72/23/10 133/60/10 108/65/10 71/26/10
f 73/30/11 71/29/11 108/66/11 125/63/11
f 73/23/12 125/60/12 141/61/12 74/26/12
s 12
f 75/11/5 77/12/5 78/13/5 76/14/5
f 76/23/13 146/67/13 120/68/13 75/26/13
f 77/30/14 75/29/14 120/69/14 137/70/14
f 77/23/15 137/67/15 114/68/15 78/26/15
s 13
f 79/11/5 80/14/5 82/13/5 81/12/5
f 80/23/16 79/26/16 126/71/16 118/72/16
f 81/30/17 112/73/17 126/74/17 79/29/17
f 81/23/18 82/26/18 145/75/18 112/72/18
s 14
f 83/11/5 84/14/5 86/13/5 85/12/5
f 84/23/16 83/26/16 124/76/16 109/77/16
f 85/30/17 142/78/17 124/79/17 83/29/17
f 85/23/18 86/26/18 117/76/18 142/77/18
s 15
f 87/11/5 88/14/5 90/13/5 89/12/5
f 88/23/16 87/26/16 136/56/16 121/55/16
f 89/30/17 115/58/17 136/57/17 87/29/17
f 89/23/18 90/26/18 129/56/18 115/55/18
s 16
f 91/11/5 92/14/5 94/13/5 93/12/5
f 92/23/19 91/26/19 111/52/19 134/55/19
f 93/30/20 127/58/20 111/53/20 91/29/20
f 93/23/21 94/26/21 144/59/21 127/55/21
s 17
f 95/11/5 96/14/5 98/13/5 97/12/5
f 96/23/22 95/26/22 130/75/22 122/80/22
f 97/30/23 143/54/23 130/81/23 95/29/23
f 97/23/24 98/26/24 110/75/24 143/51/24
s 18
f 99/11/2 101/12/2 102/13/2 100/14/2
f 105/12/3 103/11/3 104/14/3 106/13/3
f 101/15/6 105/16/6 106/17/6 102/18/6
f 106/19/1 104/20/1 100/21/1 102/22/1
f 101/22/5 99/21/5 103/20/5 105/19/5
f 100/15/4 104/16/4 103/17/4 99/18/4
s 13
f 118/81/25 145/73/25 82/30/25 80/29/25
s 8
f 132/82/26 139/83/26 60/29/26 62/30/26
s 14
f 109/74/25 117/84/25 86/30/25 84/29/25
s 9
f 116/85/26 107/86/26 64/29/26 66/30/26
s 15
f 121/86/25 129/87/25 90/30/25 88/29/25
s 10
f 128/88/26 119/62/26 68/29/26 70/30/26
s 16
f 134/86/27 144/85/27 94/30/27 92/29/27
s 11
f 141/63/28 133/62/28 72/29/28 74/30/28
s 17
f 122/89/29 110/73/29 98/30/29 96/29/29
s 12
f 114/90/30 146/91/30 76/29/30 78/30/30
s 19
f 149/92/5 157/93/5 148/94/5 158/95/5
f 150/96/5 156/97/5 157/98/5 149/99/5
f 173/92/5 171/93/5 159/94/5 174/95/5
f 158/100/5 148/101/5 165/102/5 164/103/5
f 164/98/5 165/104/5 166/105/5 163/97/5
f 163/106/5 166/107/5 167/108/5 162/109/5
f 162/110/5 167/111/5 168/112/5 161/113/5
f 161/107/5 168/106/5 169/109/5 160/108/5
f 160/100/5 169/114/5 170/115/5 172/103/5
f 172/96/5 170/97/5 171/98/5 173/99/5
f 174/100/5 159/101/5 178/102/5 177/103/5
f 177/98/5 178/104/5 179/105/5 176/97/5
f 176/106/5 179/107/5 180/108/5 196/116/5
f 190/117/5 188/118/5 158/101/5 164/102/5
f 191/119/5 186/120/5 163/107/5 162/108/5
f 187/121/5 185/122/5 151/104/5 152/105/5
f 189/123/5 192/124/5 153/111/5 154/112/5
f 150/103/5 195/125/5 155/114/5 156/115/5
f 188/126/5 194/127/5 149/93/5 158/94/5
f 186/128/5 190/129/5 164/104/5 163/105/5
f 185/130/5 193/131/5 147/101/5 151/102/5
f 192/132/5 187/133/5 152/107/5 153/108/5
f 195/134/5 189/135/5 154/106/5 155/109/5
f 194/136/5 150/97/5 149/98/5
f 198/137/5 207/138/5 191/139/5 162/111/5 161/112/5
f 201/140/5 198/141/5 161/106/5 160/109/5
f 205/142/5 202/143/5 172/97/5 173/98/5
f 200/144/5 199/145/5 181/106/5 182/109/5
f 203/146/5 206/147/5 183/97/5 184/98/5
f 208/148/5 204/149/5 174/101/5 177/102/5
f 204/150/5 205/151/5 173/93/5 174/94/5
f 202/152/5 201/153/5 160/114/5 172/115/5
f 197/154/5 203/155/5 184/93/5 175/94/5
f 199/156/5 196/157/5 180/111/5 181/112/5
f 206/158/5 200/159/5 182/114/5 183/115/5
f 176/105/5 208/160/5 177/104/5
s 20
f 209/11/4 210/14/4 212/13/4 211/12/4
f 211/23/5 212/26/5 216/25/5 215/24/5
f 216/27/3 212/30/3 210/29/3 214/28/3
f 211/30/2 215/27/2 213/28/2 209/29/2
f 210/23/1 209/26/1 213/25/1 214/24/1
s 21
f 217/39/1 219/40/1 232/161/1 230/162/1
f 220/43/5 218/44/5 231/163/5 229/164/5
f 218/35/31 217/36/31 230/165/31 231/166/31
s 22
f 221/39/1 223/40/1 227/41/1 228/42/1
f 224/43/5 222/44/5 226/45/5 225/46/5
f 222/35/32 221/36/32 228/37/32 226/38/32
f 225/31/33 227/32/33 223/33/33 224/34/33
s 21
f 229/167/34 232/168/34 219/33/34 220/34/34
s 23
f 233/39/1 246/162/1 248/161/1 235/40/1
f 236/43/5 245/164/5 247/163/5 234/44/5
f 234/35/35 247/166/35 246/165/35 233/36/35
s 24
f 237/39/1 244/42/1 243/41/1 239/40/1
f 240/43/5 241/46/5 242/45/5 238/44/5
f 238/35/36 242/38/36 244/37/36 237/36/36
f 241/31/37 240/34/37 239/33/37 243/32/37
s 23
f 245/167/38 236/34/38 235/33/38 248/168/38
s 1
usemtl MI_Plaster
f 8/1/1 3/2/1 2/3/1 1/4/1
f 8/1/1 1/4/1 9/5/1 10/6/1
f 5/7/1 4/8/1 2/3/1 3/2/1
f 5/7/1 7/9/1 6/10/1 4/8/1
