# Blender 4.0.2
# www.blender.org
mtllib Roof_Spike.mtl
o Roof_Spike
v 0.000000 0.407735 0.052169
v -0.025845 0.407766 0.045251
v -0.044765 0.407850 0.026353
v -0.051691 0.407965 0.000538
v -0.044765 0.408080 -0.025278
v -0.025845 0.408164 -0.044176
v 0.000000 0.408195 -0.051093
v 0.025845 0.408164 -0.044176
v 0.044765 0.408080 -0.025278
v 0.051691 0.407965 0.000538
v 0.044765 0.407850 0.026353
v 0.025845 0.407766 0.045251
v 0.000000 -0.096819 0.043257
v -0.021654 -0.096794 0.037462
v -0.037505 -0.096723 0.021629
v -0.043307 -0.096627 0.000000
v -0.037505 -0.096530 -0.021628
v -0.021654 -0.096460 -0.037462
v 0.000000 -0.096434 -0.043257
v 0.021654 -0.096460 -0.037462
v 0.037505 -0.096530 -0.021628
v 0.043307 -0.096627 0.000000
v 0.037505 -0.096723 0.021629
v 0.021654 -0.096794 0.037462
v -0.033087 0.424078 0.057796
v 0.000000 0.424039 0.066651
v -0.057308 0.424186 0.033602
v -0.066174 0.424333 0.000554
v -0.057308 0.424480 -0.032495
v -0.033087 0.424588 -0.056688
v 0.000000 0.424628 -0.065544
v 0.033087 0.424588 -0.056688
v 0.057308 0.424480 -0.032495
v 0.066174 0.424333 0.000554
v 0.057308 0.424186 0.033602
v 0.033087 0.424078 0.057796
v -0.035553 0.520707 0.062156
v 0.000000 0.520665 0.071671
v -0.061579 0.520823 0.036160
v -0.071106 0.520981 0.000648
v -0.061579 0.521139 -0.034864
v -0.035553 0.521255 -0.060860
v 0.000000 0.521298 -0.070376
v 0.035553 0.521255 -0.060860
v 0.061580 0.521139 -0.034864
v 0.071106 0.520981 0.000648
v 0.061580 0.520823 0.036160
v 0.035553 0.520707 0.062156
v 0.000000 0.529098 0.050898
v 0.000000 0.826040 0.127708
v -0.050329 0.529492 0.000627
v -0.126899 0.826739 0.000956
v 0.050329 0.529492 0.000627
v 0.126899 0.826739 0.000956
v 0.000000 0.529885 -0.049644
v 0.000000 0.827437 -0.125796
v 0.000000 2.132685 0.001841
v -0.024879 1.787054 0.001569
v -0.099595 0.980735 0.001041
v -0.041746 1.580653 0.001406
v -0.061867 1.379816 0.001249
v -0.082181 1.144579 0.001120
v 0.000000 0.981224 -0.098439
v 0.000000 1.787191 -0.023282
v 0.000000 1.144909 -0.080966
v 0.000000 1.380129 -0.060547
v 0.000000 1.580883 -0.040291
v 0.099595 0.980735 0.001041
v 0.024879 1.787054 0.001569
v 0.082181 1.144579 0.001120
v 0.061867 1.379816 0.001249
v 0.041746 1.580653 0.001406
v 0.000000 1.786917 0.026419
v 0.000000 0.980236 0.100520
v 0.000000 1.580423 0.043104
v 0.000000 1.379500 0.063045
v 0.000000 1.144233 0.083207
v 0.000000 0.780631 0.100092
v 0.000000 0.633879 0.054948
v 0.000000 0.752620 0.084700
v 0.000000 0.704374 0.066572
v -0.054320 0.634426 0.000691
v -0.099314 0.781228 0.000893
v -0.065887 0.705110 0.000761
v -0.083962 0.753439 0.000835
v 0.000000 0.634955 -0.053567
v 0.000000 0.781815 -0.098306
v 0.000000 0.705811 -0.065050
v 0.000000 0.754230 -0.083031
v 0.054320 0.634426 0.000691
v 0.099314 0.781228 0.000893
v 0.065887 0.705110 0.000761
v 0.083962 0.753439 0.000835
v -0.092030 0.472894 -0.052471
v -0.053134 0.473067 -0.091323
v 0.053134 0.472248 0.092525
v 0.000000 0.472184 0.106745
v -0.053134 0.472248 0.092525
v -0.092030 0.472421 0.053673
v 0.092030 0.472894 -0.052471
v 0.106267 0.472657 0.000601
v 0.000000 0.473130 -0.105544
v -0.106267 0.472657 0.000601
v 0.092030 0.472421 0.053673
v 0.053134 0.473067 -0.091323
v -0.026188 0.561717 0.046136
v 0.000000 0.561686 0.053145
v -0.045358 0.561802 0.026987
v -0.052375 0.561919 0.000830
v -0.045358 0.562035 -0.025327
v -0.026188 0.562120 -0.044476
v 0.000000 0.562152 -0.051485
v 0.026188 0.562120 -0.044476
v 0.045358 0.562035 -0.025327
v 0.052375 0.561919 0.000830
v 0.045358 0.561802 0.026987
v 0.026188 0.561717 0.046136
vn -0.6488 -0.6635 0.3725
vn -0.3746 -0.6640 0.6471
vn -0.3806 -0.6507 0.6571
vn -0.6590 -0.6502 0.3781
vn 0.8655 -0.0171 0.5007
vn 0.8660 -0.0171 0.4998
vn 0.4998 -0.0175 0.8660
vn 0.4993 -0.0175 0.8662
vn 0.9999 -0.0166 0.0005
vn 0.9999 -0.0166 -0.0006
vn 0.8659 -0.0161 -0.4999
vn 0.8654 -0.0161 -0.5008
vn 0.4998 -0.0157 -0.8660
vn 0.4993 -0.0157 -0.8663
vn -0.0000 -0.0155 -0.9999
vn -0.4998 -0.0157 -0.8660
vn -0.4993 -0.0157 -0.8663
vn -0.8659 -0.0161 -0.4999
vn -0.8654 -0.0161 -0.5008
vn -0.9999 -0.0166 0.0005
vn -0.9999 -0.0166 -0.0006
vn -0.8655 -0.0171 0.5007
vn -0.8660 -0.0171 0.4998
vn -0.4993 -0.0175 0.8662
vn -0.4998 -0.0175 0.8660
vn -0.0000 -0.0177 0.9998
vn -0.4049 0.5895 -0.6989
vn -0.7009 0.5891 -0.4021
vn -0.7439 0.5133 -0.4279
vn -0.4294 0.5141 -0.7425
vn 0.7489 -0.6627 -0.0026
vn 0.6481 -0.6616 -0.3772
vn 0.6580 -0.6483 -0.3831
vn 0.7605 -0.6494 -0.0028
vn -0.6481 -0.6616 -0.3772
vn -0.7489 -0.6627 -0.0026
vn -0.7605 -0.6494 -0.0028
vn -0.6580 -0.6483 -0.3831
vn 0.3746 -0.6640 0.6471
vn 0.6488 -0.6635 0.3725
vn 0.6590 -0.6502 0.3781
vn 0.3806 -0.6507 0.6571
vn -0.0000 -0.6604 -0.7509
vn -0.3738 -0.6607 -0.6509
vn -0.3795 -0.6474 -0.6609
vn -0.0000 -0.6471 -0.7624
vn -0.0000 -0.6641 0.7476
vn -0.0000 -0.6508 0.7592
vn 0.3738 -0.6607 -0.6509
vn 0.3795 -0.6474 -0.6609
vn 0.8590 0.5121 0.0020
vn 0.7439 0.5133 -0.4279
vn 0.7873 0.4180 -0.4532
vn 0.9093 0.4161 0.0019
vn -0.0000 0.5862 0.8102
vn 0.4035 0.5865 0.7023
vn 0.4291 0.5093 0.7460
vn -0.0000 0.5089 0.8609
vn -0.6995 0.5874 0.4071
vn -0.4035 0.5865 0.7023
vn -0.4291 0.5093 0.7460
vn -0.7436 0.5106 0.4318
vn 0.8086 0.5884 0.0029
vn 0.7009 0.5891 -0.4021
vn -0.0000 0.5897 -0.8076
vn -0.0000 0.5144 -0.8576
vn -0.8086 0.5884 0.0029
vn -0.8590 0.5121 0.0020
vn 0.6995 0.5874 0.4071
vn 0.7436 0.5106 0.4318
vn 0.4049 0.5895 -0.6989
vn 0.4294 0.5141 -0.7425
vn 0.7066 -0.0273 0.7071
vn 0.7052 -0.0737 0.7052
vn 0.7052 -0.0733 0.7052
vn 0.7063 -0.0264 -0.7074
vn 0.7045 -0.0724 -0.7060
vn 0.7045 -0.0721 -0.7060
vn -0.7066 -0.0273 0.7071
vn -0.7052 -0.0733 0.7052
vn -0.7052 -0.0737 0.7052
vn -0.7009 0.1239 0.7024
vn -0.7028 0.1008 0.7042
vn -0.7028 0.1007 0.7042
vn 0.7009 0.1239 0.7024
vn 0.7028 0.1007 0.7042
vn 0.7028 0.1008 0.7042
vn -0.7015 0.1248 -0.7017
vn -0.7033 0.1017 -0.7036
vn -0.7033 0.1016 -0.7036
vn 0.7055 0.0538 0.7066
vn 0.7057 0.0502 0.7068
vn 0.7015 0.1248 -0.7017
vn 0.7033 0.1016 -0.7036
vn 0.7033 0.1017 -0.7036
vn 0.7058 0.0549 -0.7063
vn 0.7059 0.0514 -0.7064
vn -0.7058 0.0549 -0.7063
vn -0.7059 0.0514 -0.7064
vn 0.7051 0.0639 0.7062
vn 0.7051 0.0638 0.7062
vn 0.7050 0.0651 0.7062
vn 0.7049 0.0678 0.7060
vn -0.7055 0.0538 0.7066
vn -0.7051 0.0638 0.7062
vn -0.7051 0.0639 0.7062
vn -0.7050 0.0651 0.7062
vn -0.7049 0.0678 0.7060
vn 0.7054 0.0650 -0.7058
vn 0.7053 0.0660 -0.7058
vn 0.7052 0.0686 -0.7057
vn -0.7054 0.0650 -0.7058
vn -0.7053 0.0660 -0.7058
vn -0.7052 0.0686 -0.7057
vn -0.7057 0.0502 0.7068
vn -0.7063 -0.0264 -0.7074
vn -0.7045 -0.0721 -0.7060
vn -0.7045 -0.0724 -0.7060
vn 0.6520 -0.3815 -0.6552
vn 0.6488 -0.3926 -0.6518
vn 0.6521 -0.3814 -0.6552
vn -0.6521 -0.3814 -0.6552
vn -0.6488 -0.3926 -0.6518
vn -0.6520 -0.3815 -0.6552
vn -0.6541 -0.3828 0.6524
vn -0.6504 -0.3949 0.6489
vn -0.6541 -0.3829 0.6524
vn 0.6541 -0.3829 0.6524
vn 0.6541 -0.3828 0.6524
vn 0.6708 -0.3203 0.6689
vn 0.6707 -0.3207 0.6688
vn 0.6943 -0.1943 0.6930
vn 0.6942 -0.1949 0.6929
vn 0.6683 -0.3194 -0.6718
vn 0.6683 -0.3198 -0.6717
vn 0.6926 -0.1922 -0.6953
vn 0.6925 -0.1927 -0.6952
vn -0.6683 -0.3198 -0.6717
vn -0.6683 -0.3194 -0.6718
vn -0.6925 -0.1927 -0.6952
vn -0.6926 -0.1922 -0.6953
vn -0.6707 -0.3207 0.6688
vn -0.6708 -0.3203 0.6689
vn -0.6942 -0.1949 0.6929
vn -0.6943 -0.1943 0.6930
vn 0.6504 -0.3949 0.6489
vn 0.3840 -0.6366 -0.6688
vn 0.6657 -0.6375 -0.3878
vn -0.0000 -0.6399 0.7684
vn -0.3854 -0.6398 0.6649
vn 0.6671 -0.6393 0.3823
vn 0.3854 -0.6398 0.6649
vn -0.7696 -0.6385 -0.0031
vn -0.6657 -0.6375 -0.3878
vn -0.0000 -0.6362 -0.7715
vn 0.7696 -0.6385 -0.0031
vn -0.6671 -0.6393 0.3823
vn -0.3840 -0.6366 -0.6688
vn -0.0000 1.0000 0.0045
vn -0.4543 0.4193 -0.7860
vn -0.0000 0.4197 -0.9077
vn -0.7873 0.4139 0.4569
vn -0.9093 0.4161 0.0019
vn 0.7873 0.4139 0.4569
vn 0.4543 0.4193 -0.7860
vn -0.7873 0.4180 -0.4532
vn 0.4543 0.4122 0.7897
vn -0.0000 0.4116 0.9114
vn -0.4543 0.4122 0.7897
vt 0.521485 0.620505
vt 0.514160 0.620780
vt 0.512035 0.614930
vt 0.520669 0.614875
vt 0.454223 0.574183
vt 0.452708 0.705355
vt 0.445395 0.704994
vt 0.448431 0.574092
vt 0.460013 0.574220
vt 0.460140 0.705483
vt 0.465805 0.574195
vt 0.467576 0.705443
vt 0.471608 0.574105
vt 0.474901 0.705170
vt 0.477433 0.573954
vt 0.481959 0.704468
vt 0.540046 0.751827
vt 0.543665 0.620928
vt 0.550724 0.621737
vt 0.545846 0.751981
vt 0.534253 0.751739
vt 0.536353 0.620567
vt 0.528464 0.751715
vt 0.528922 0.620452
vt 0.522671 0.751752
vt 0.516869 0.751844
vt 0.511043 0.751981
vt 0.507100 0.621468
vt 0.438334 0.704201
vt 0.442630 0.573954
vt 0.550750 0.599925
vt 0.539971 0.599767
vt 0.540016 0.585048
vt 0.549531 0.584440
vt 0.468414 0.711079
vt 0.459956 0.710977
vt 0.529127 0.614957
vt 0.537571 0.615060
vt 0.451512 0.710856
vt 0.442957 0.710515
vt 0.546128 0.615397
vt 0.554498 0.616947
vt 0.503119 0.615958
vt 0.477050 0.711031
vt 0.434584 0.708981
vt 0.485965 0.709993
vt 0.458519 0.740823
vt 0.467850 0.741230
vt 0.466176 0.752489
vt 0.458292 0.752149
vt 0.425739 0.725393
vt 0.438384 0.725951
vt 0.439632 0.741480
vt 0.430089 0.743236
vt 0.519912 0.599260
vt 0.509092 0.598476
vt 0.511960 0.583648
vt 0.521313 0.584723
vt 0.459173 0.726303
vt 0.469206 0.726717
vt 0.563397 0.600491
vt 0.559075 0.582691
vt 0.529947 0.599633
vt 0.530644 0.585115
vt 0.449156 0.726131
vt 0.449147 0.740877
vt 0.480029 0.727526
vt 0.492741 0.728743
vt 0.486109 0.744884
vt 0.477202 0.742314
vt 0.496382 0.597256
vt 0.503054 0.581075
vt 0.690683 0.576120
vt 0.692792 0.603575
vt 0.672663 0.602890
vt 0.672756 0.576442
vt 0.708725 0.573891
vt 0.712250 0.600442
vt 0.936098 0.569883
vt 0.939626 0.596361
vt 0.920209 0.599765
vt 0.918079 0.572307
vt 0.923465 0.651708
vt 0.966154 0.643302
vt 0.964190 0.685061
vt 0.927873 0.688758
vt 0.654320 0.654106
vt 0.695974 0.655537
vt 0.700380 0.692579
vt 0.663203 0.697438
vt 0.881817 0.650634
vt 0.890743 0.693840
vt 0.718047 0.900762
vt 0.726970 0.899118
vt 0.738702 0.987790
vt 0.738702 0.647440
vt 0.736719 0.689098
vt 0.736023 0.898445
vt 0.945508 0.897009
vt 0.954420 0.895305
vt 0.966154 0.983977
vt 0.704984 0.848982
vt 0.719947 0.846074
vt 0.690962 0.798731
vt 0.713142 0.794430
vt 0.675387 0.739556
vt 0.705294 0.734122
vt 0.963468 0.894572
vt 0.947396 0.842261
vt 0.962597 0.841173
vt 0.940590 0.790617
vt 0.963108 0.789063
vt 0.932764 0.730307
vt 0.962901 0.728040
vt 0.735156 0.845088
vt 0.735668 0.793013
vt 0.735440 0.731998
vt 0.932452 0.845269
vt 0.918436 0.795053
vt 0.902885 0.735879
vt 0.900074 0.599336
vt 0.900163 0.572824
vt 0.730051 0.635654
vt 0.695227 0.643511
vt 0.922705 0.639688
vt 0.888078 0.637066
vt 0.957480 0.631562
vt 0.660624 0.640594
vt 0.664615 0.632935
vt 0.694807 0.635904
vt 0.669642 0.620554
vt 0.694004 0.622666
vt 0.724998 0.628743
vt 0.718060 0.617216
vt 0.892027 0.629514
vt 0.922270 0.632083
vt 0.897045 0.617090
vt 0.921446 0.618847
vt 0.952367 0.624548
vt 0.945421 0.613060
vt 0.645397 0.747913
vt 0.645393 0.754881
vt 0.641909 0.760916
vt 0.635878 0.764401
vt 0.628916 0.764401
vt 0.622889 0.760916
vt 0.619412 0.754881
vt 0.619416 0.747913
vt 0.622900 0.741878
vt 0.628931 0.738393
vt 0.635893 0.738393
vt 0.641920 0.741878
vt 0.546633 0.572816
vt 0.553801 0.570971
vt 0.522977 0.573461
vt 0.530861 0.573791
vt 0.450312 0.752322
vt 0.480420 0.755834
vt 0.473677 0.753545
vt 0.538841 0.573607
vt 0.442523 0.753107
vt 0.508736 0.570124
vt 0.515479 0.572412
vt 0.435358 0.754952
s 1
usemtl MI_MetalOrnaments
f 3/1/1 2/2/2 25/3/3 27/4/4
s 2
f 23/5/5 11/6/6 12/7/7 24/8/8
f 22/9/9 10/10/10 11/6/6 23/5/5
f 21/11/11 9/12/12 10/10/10 22/9/9
f 20/13/13 8/14/14 9/12/12 21/11/11
f 19/15/15 7/16/15 8/14/14 20/13/13
f 18/17/16 6/18/17 7/19/15 19/20/15
f 17/21/18 5/22/19 6/18/17 18/17/16
f 16/23/20 4/24/21 5/22/19 17/21/18
f 15/25/22 3/1/23 4/24/21 16/23/20
f 14/26/24 2/2/25 3/1/23 15/25/22
f 13/27/26 1/28/26 2/2/25 14/26/24
f 24/8/8 12/7/7 1/29/26 13/30/26
s 3
f 95/31/27 94/32/28 41/33/29 42/34/30
s 1
f 10/10/31 9/12/32 33/35/33 34/36/34
f 5/22/35 4/24/36 28/37/37 29/38/38
f 12/7/39 11/6/40 35/39/41 36/40/42
f 7/19/43 6/18/44 30/41/45 31/42/46
f 2/2/2 1/28/47 26/43/48 25/3/3
f 9/12/32 8/14/49 32/44/50 33/35/33
f 4/24/36 3/1/1 27/4/4 28/37/37
f 11/6/40 10/10/31 34/36/34 35/39/41
f 6/18/44 5/22/35 29/38/38 30/41/45
f 1/29/47 12/7/39 36/40/42 26/45/48
f 8/14/49 7/16/43 31/46/46 32/44/50
s 3
f 46/47/51 45/48/52 114/49/53 115/50/54
f 97/51/55 96/52/56 48/53/57 38/54/58
f 99/55/59 98/56/60 37/57/61 39/58/62
f 101/59/63 100/60/64 45/48/52 46/47/51
f 102/61/65 95/31/27 42/34/30 43/62/66
f 103/63/67 99/55/59 39/58/62 40/64/68
f 104/65/69 101/59/63 46/47/51 47/66/70
f 105/67/71 102/68/65 43/69/66 44/70/72
f 94/32/28 103/63/67 40/64/68 41/33/29
f 96/52/56 104/65/69 47/66/70 48/53/57
f 98/56/60 97/71/55 38/72/58 37/57/61
f 100/60/64 105/67/71 44/70/72 45/48/52
s 4
f 53/73/73 90/74/74 79/75/75 49/76/73
s 5
f 55/77/76 86/78/77 90/74/78 53/73/76
s 6
f 49/79/79 79/80/80 82/81/81 51/82/79
s 7
f 52/83/82 50/84/82 74/85/83 59/86/84
s 8
f 50/87/85 54/88/85 68/89/86 74/90/87
s 9
f 56/91/88 52/83/88 59/86/89 63/92/90
s 8
f 73/93/91 69/94/91 57/95/92
s 10
f 54/88/93 56/96/93 63/97/94 68/89/95
f 69/94/96 64/98/96 57/95/97
s 9
f 64/99/98 58/100/98 57/101/99
s 8
f 69/94/91 73/93/91 75/102/100 72/103/101
f 72/103/101 75/102/100 76/104/102 71/105/102
f 71/105/102 76/104/102 77/106/103 70/107/103
f 70/107/103 77/106/103 74/90/87 68/89/86
s 7
f 73/108/104 58/100/104 60/109/105 75/110/106
f 75/110/106 60/109/105 61/111/107 76/112/107
f 76/112/107 61/111/107 62/113/108 77/114/108
f 77/114/108 62/113/108 59/86/84 74/85/83
s 10
f 64/98/96 69/94/96 72/103/109 67/115/109
f 67/115/109 72/103/109 71/105/110 66/116/110
f 66/116/110 71/105/110 70/107/111 65/117/111
f 65/117/111 70/107/111 68/89/95 63/97/94
s 9
f 58/100/98 64/99/98 67/118/112 60/109/112
f 60/109/112 67/118/112 66/119/113 61/111/113
f 61/111/113 66/119/113 65/120/114 62/113/114
f 62/113/114 65/120/114 63/92/90 59/86/89
s 7
f 58/100/104 73/108/104 57/101/115
s 11
f 51/82/116 82/81/117 86/121/118 55/122/116
s 5
f 87/123/119 56/96/120 54/88/120 91/124/121
s 11
f 83/125/122 52/83/123 56/91/123 87/126/124
s 6
f 78/127/125 50/84/126 52/83/126 83/125/127
s 4
f 91/124/128 78/128/129 80/129/130 93/130/131
f 93/130/131 80/129/130 81/131/132 92/132/133
f 92/132/133 81/131/132 79/75/75 90/74/74
s 5
f 87/123/119 91/124/121 93/130/134 89/133/135
f 89/133/135 93/130/134 92/132/136 88/134/137
f 88/134/137 92/132/136 90/74/78 86/78/77
s 11
f 83/125/122 87/126/124 89/135/138 85/136/139
f 85/136/139 89/135/138 88/137/140 84/138/141
f 84/138/141 88/137/140 86/121/118 82/81/117
s 6
f 78/127/125 83/125/127 85/136/142 80/139/143
f 80/139/143 85/136/142 84/138/144 81/140/145
f 81/140/145 84/138/144 82/81/81 79/80/80
s 4
f 91/124/128 54/88/146 50/87/146 78/128/129
s 1
f 33/35/33 32/44/50 105/67/147 100/60/148
f 25/3/3 26/43/48 97/71/149 98/56/150
f 36/40/42 35/39/41 104/65/151 96/52/152
f 29/38/38 28/37/37 103/63/153 94/32/154
f 32/44/50 31/46/46 102/68/155 105/67/147
f 35/39/41 34/36/34 101/59/156 104/65/151
f 28/37/37 27/4/4 99/55/157 103/63/153
f 31/42/46 30/41/45 95/31/158 102/61/155
f 34/36/34 33/35/33 100/60/148 101/59/156
f 27/4/4 25/3/3 98/56/150 99/55/157
f 26/45/48 36/40/42 96/52/152 97/51/149
f 30/41/45 29/38/38 94/32/154 95/31/158
s 12
f 106/141/159 107/142/159 117/143/159 116/144/159 115/145/159 114/146/159 113/147/159 112/148/159 111/149/159 110/150/159 109/151/159 108/152/159
s 3
f 43/62/66 42/34/30 111/153/160 112/154/161
f 40/64/68 39/58/62 108/155/162 109/156/163
f 47/66/70 46/47/51 115/50/54 116/157/164
f 44/70/72 43/69/66 112/158/161 113/159/165
f 41/33/29 40/64/68 109/156/163 110/160/166
f 48/53/57 47/66/70 116/157/164 117/161/167
f 37/57/61 38/72/58 107/162/168 106/163/169
f 45/48/52 44/70/72 113/159/165 114/49/53
f 42/34/30 41/33/29 110/160/166 111/153/160
f 38/54/58 48/53/57 117/161/167 107/164/168
f 39/58/62 37/57/61 106/163/169 108/155/162
