# Blender 4.0.2
# www.blender.org
mtllib Roof_Modular_FlatTiles_4_L_Half.mtl
o Roof_Modular_FlatTiles_4_L_Half
v 1.086710 1.125870 -0.999999
v 0.134057 2.597145 -0.999999
v 0.269675 2.387127 -0.999999
v 0.405293 2.177109 -0.999999
v 0.540911 1.967091 -0.999999
v 0.676529 1.757072 -0.999999
v 0.812147 1.547054 -0.999999
v 0.947765 1.337035 -0.999999
v 2.359394 -0.420523 -0.999999
v 1.245338 0.928810 -0.999999
v 1.400638 0.732898 -0.999999
v 1.555903 0.537028 -0.999999
v 1.716602 0.345517 -0.999999
v 1.877300 0.154007 -0.999999
v 2.037998 -0.037503 -0.999999
v 2.198696 -0.229013 -0.999999
v 1.086710 1.125870 1.095304
v 0.134057 2.597145 1.095304
v 0.269675 2.387127 1.095304
v 0.405293 2.177109 1.095304
v 0.540911 1.967091 1.095304
v 0.676529 1.757072 1.095304
v 0.812147 1.547054 1.095304
v 0.947765 1.337035 1.095304
v 2.359394 -0.420523 1.095304
v 1.245338 0.928810 1.095304
v 1.400638 0.732898 1.095304
v 1.555903 0.537028 1.095304
v 1.716602 0.345517 1.095304
v 1.877300 0.154008 1.095304
v 2.037998 -0.037503 1.095304
v 2.198696 -0.229013 1.095304
v 2.404737 -0.522275 0.991614
v 2.404737 -0.522275 1.238514
v 2.612258 -0.359725 0.991614
v 2.612258 -0.359725 1.238514
v 0.515579 2.387814 1.238513
v 0.300408 2.235537 0.991613
v 0.515579 2.387814 0.991613
v 0.300407 2.235537 1.238513
v 1.320089 1.207399 1.238513
v 1.099311 1.063737 0.991613
v 1.320089 1.207399 0.991613
v 1.099311 1.063737 1.238513
v 1.756965 0.643824 1.238514
v 1.543647 0.489217 0.991614
v 1.756965 0.643824 0.991614
v 1.543647 0.489217 1.238514
v 0.908600 1.779784 0.991613
v 0.690625 1.631815 1.238513
v 0.908599 1.779784 1.238513
v 0.690625 1.631814 0.991613
v 2.404737 -0.522275 0.170834
v 2.404737 -0.522275 0.402025
v 2.612258 -0.359725 0.170834
v 2.612258 -0.359725 0.402025
v 0.515579 2.387814 0.402024
v 0.300407 2.235537 0.170833
v 0.515579 2.387814 0.170833
v 0.300407 2.235537 0.402024
v 1.320089 1.207399 0.402024
v 1.099311 1.063737 0.170834
v 1.320089 1.207399 0.170834
v 1.099311 1.063737 0.402024
v 1.756965 0.643824 0.402025
v 1.543647 0.489217 0.170834
v 1.756965 0.643824 0.170834
v 1.543647 0.489217 0.402025
v 0.908600 1.779784 0.170833
v 0.690625 1.631815 0.402024
v 0.908599 1.779784 0.402024
v 0.690625 1.631814 0.170833
v -0.000567 2.798790 -0.999999
v -0.000567 2.798790 1.095304
v 0.000000 3.224173 0.402023
v 0.000000 2.723050 0.170833
v 0.000000 3.224173 0.170833
v 0.000000 2.723049 0.402023
v 0.000000 3.224173 1.238513
v 0.000000 2.723050 0.991613
v 0.000000 3.224174 0.991613
v 0.000000 2.723049 1.238513
v 2.396380 -0.482985 1.062687
v 2.571467 -0.332008 1.062687
v 2.224237 -0.283351 1.062687
v 2.399324 -0.132375 1.062687
v 2.399323 -0.132376 -0.999999
v 2.396379 -0.482986 -0.999999
v 2.224236 -0.283351 -0.999999
v 2.571466 -0.332010 -0.999999
v 2.648156 -0.295008 1.171317
v 0.381105 2.800260 1.097466
v 1.428345 1.270558 1.097454
v 1.875498 0.687378 1.097453
v 1.324244 1.154811 1.156425
v 1.771397 0.571631 1.156425
v 0.277105 2.684426 1.156425
v 2.582380 -0.388291 1.197200
v 0.030566 3.372676 1.097456
v 1.058065 1.788375 1.097516
v 0.675035 2.344686 1.097480
v 2.292009 0.180651 1.097800
v 2.204851 0.047083 1.156425
v 0.571160 2.228742 1.156425
v 0.954491 1.672165 1.156425
v 0.675668 2.343739 -1.000000
v 0.675510 2.343976 -0.535476
v 0.675352 2.344213 -0.084277
v 0.675194 2.344449 0.512854
v 1.875498 0.687378 -1.000000
v 1.875498 0.687378 -0.535495
v 1.875498 0.687378 -0.084296
v 1.875498 0.687378 0.512832
v 2.292670 0.179840 -1.000000
v 2.292505 0.180043 -0.535298
v 2.292340 0.180245 -0.084077
v 2.292174 0.180448 0.513103
v 1.057565 1.789136 -1.000000
v 1.057690 1.788946 -0.535451
v 1.057815 1.788756 -0.084252
v 1.057940 1.788565 0.512883
v 2.697944 -0.223000 0.546928
v 2.697737 -0.223680 -0.055286
v 2.697531 -0.224360 -0.507741
v 2.697323 -0.225040 -1.000000
v 0.033028 3.368660 -1.000000
v 0.032413 3.369664 -0.535493
v 0.031797 3.370668 -0.084295
v 0.031182 3.371672 0.512834
v 0.381127 2.800241 -1.000000
v 0.381122 2.800246 -0.535486
v 0.381116 2.800251 -0.084287
v 0.381111 2.800255 0.512843
v 1.428345 1.270558 -1.000000
v 1.428345 1.270558 -0.535495
v 1.428345 1.270558 -0.084296
v 1.428345 1.270558 0.512833
v 2.600625 -0.359459 1.187346
v 2.664717 -0.270899 -1.000000
v 2.664972 -0.270371 -0.498529
v 2.665227 -0.269844 -0.045104
v 2.665482 -0.269316 0.559461
v 2.546538 -0.313565 1.166301
v 2.528292 -0.342396 1.176155
v 2.520362 -0.341258 -1.000000
v 2.520741 -0.341123 -0.474917
v 2.521119 -0.340988 -0.018928
v 2.521498 -0.340852 0.591805
v 2.604214 -0.223325 -1.000000
v 2.604469 -0.222797 -0.498541
v 2.604723 -0.222270 -0.045115
v 2.604979 -0.221742 0.559449
v -0.000567 3.135149 1.156425
v -0.000567 3.329908 1.116556
v 0.000000 3.372676 1.097456
v 0.000000 3.368660 -1.000000
v 0.000000 3.369664 -0.535493
v 0.000000 3.370668 -0.084295
v 0.000000 3.371672 0.512834
vn -0.8359 -0.5489 -0.0000
vn -0.8317 -0.5553 -0.0000
vn -0.8081 -0.5890 -0.0000
vn -0.8377 -0.5461 -0.0000
vn -0.8401 -0.5425 -0.0000
vn -0.7813 -0.6241 -0.0000
vn -0.7660 -0.6428 -0.0000
vn -0.7749 -0.6321 -0.0000
vn -0.7837 -0.6212 -0.0000
vn 0.6166 -0.7872 -0.0000
vn 0.7611 0.6486 -0.0000
vn -0.0000 -0.0000 -1.0000
vn -0.7614 -0.6482 -0.0000
vn -0.0000 -0.0000 1.0000
vn -0.8118 -0.5840 -0.0000
vn 0.8120 0.5837 -0.0000
vn -0.7910 -0.6118 -0.0000
vn 0.7903 0.6127 -0.0000
vn 0.8398 0.5429 -0.0000
vn -0.8398 -0.5428 -0.0000
vn 0.8513 0.5248 -0.0000
vn -0.8513 -0.5246 -0.0000
vn 0.6530 -0.7573 -0.0000
vn -0.7573 -0.6530 -0.0000
vn -0.6530 0.7573 -0.0000
vn 0.7573 0.6530 -0.0000
vn 0.8156 -0.5786 -0.0001
vn 0.8162 -0.5777 -0.0001
vn 0.8164 -0.5775 -0.0001
vn 0.6115 0.5438 0.5748
vn 0.6442 0.5112 0.5689
vn 0.2805 0.2240 0.9334
vn 0.2087 0.2413 0.9478
vn 0.6616 0.4894 0.5682
vn 0.2893 0.2151 0.9328
vn 0.4888 0.8724 -0.0010
vn 0.4264 0.7525 0.5018
vn 0.6986 0.4388 0.5652
vn 0.8466 0.5322 -0.0000
vn 0.8137 -0.5813 -0.0009
vn 0.8152 -0.5792 -0.0005
vn 0.8105 -0.5857 -0.0016
vn 0.8036 0.5951 -0.0000
vn 0.7832 0.6218 -0.0000
vn 0.6749 0.4733 0.5661
vn 0.6861 0.4568 0.5663
vn 0.3024 0.2026 0.9314
vn 0.2963 0.2084 0.9321
vn 0.3090 0.1953 0.9308
vn 0.2566 0.2341 0.9377
vn 0.3116 0.1914 0.9307
vn 0.7294 0.6832 0.0364
vn 0.7506 0.6606 0.0167
vn 0.4994 0.5139 0.6975
vn 0.8321 0.5547 -0.0000
vn 0.1599 0.2376 0.9581
vn 0.8186 0.5744 -0.0000
vn 0.4887 0.8725 -0.0011
vn 0.4888 0.8724 -0.0013
vn 0.7405 0.6721 -0.0004
vn 0.7406 0.6719 -0.0003
vn 0.7401 0.6725 -0.0003
vn 0.8320 0.5547 -0.0000
vn 0.7069 0.7073 -0.0007
vn 0.7066 0.7076 -0.0007
vn 0.7058 0.7084 -0.0006
vn 0.8157 -0.5785 0.0003
vn 0.8163 -0.5777 0.0003
vn 0.8164 -0.5775 0.0003
vn 0.8176 -0.5758 0.0003
vn 0.8177 -0.5756 0.0003
vn 0.4893 0.8721 -0.0012
vn -0.0000 1.0000 -0.0022
vn -0.6181 -0.7861 0.0011
vn -0.6181 -0.7861 0.0012
vn -0.6129 -0.7854 -0.0868
vn -0.6128 -0.7853 -0.0875
vn -0.2567 -0.6319 -0.7313
vn -0.3848 -0.7135 -0.5855
vn 0.1589 0.2278 0.9607
vn 0.8201 -0.5723 -0.0036
vn 0.8228 -0.5683 -0.0089
vn 0.8208 -0.5711 -0.0051
vn 0.8175 -0.5759 -0.0001
vn 0.8177 -0.5757 -0.0001
vn 0.0601 -0.3567 -0.9323
vn -0.0000 1.0000 -0.0020
vn -0.0000 1.0000 -0.0017
vn -0.0000 0.8381 0.5455
vt 0.500035 0.565378
vt 0.500035 0.455834
vt 1.499965 0.455834
vt 1.499965 0.565378
vt 0.499965 0.688472
vt 0.499965 0.567552
vt -0.499965 0.567552
vt -0.499965 0.688472
vt -0.499965 0.565378
vt -0.499965 0.445042
vt 0.499965 0.445042
vt 0.499965 0.565378
vt 0.999965 0.688472
vt 0.999965 0.567552
vt 0.000035 0.567552
vt 0.000035 0.688472
vt 0.499965 0.445042
vt 0.499965 0.565377
vt -0.499965 0.565378
vt -0.499965 0.445042
vt -0.499965 0.567552
vt -0.499965 0.688472
vt 0.499965 0.445042
vt 0.499965 0.565377
vt 0.500035 0.445042
vt 1.499965 0.445042
vt 0.490323 0.213019
vt 0.490323 0.373570
vt 0.332501 0.373569
vt 0.332501 0.213019
vt -0.399164 0.882737
vt -0.399164 0.996169
vt -0.784530 0.996169
vt -0.784529 0.882737
vt 1.399164 0.867594
vt 1.784530 0.867594
vt 1.784530 0.757548
vt 1.399164 0.757548
vt -0.399164 0.882737
vt -0.399164 0.996170
vt 0.628433 0.867594
vt 0.243067 0.867594
vt 0.243067 0.757548
vt 0.628433 0.757548
vt 1.399164 0.867594
vt 1.013798 0.867594
vt 1.013798 0.757548
vt 1.399164 0.757548
vt 0.371567 0.882737
vt 0.371567 0.996169
vt -0.013798 0.996169
vt -0.013798 0.882737
vt 0.628433 0.867594
vt 1.013799 0.867594
vt 1.013798 0.757548
vt 0.628433 0.757548
vt -0.013798 0.996169
vt 1.784529 0.867594
vt 1.784530 0.757548
vt 0.756933 0.882737
vt 0.756933 0.996169
vt 0.243067 0.867594
vt 0.243067 0.757548
vt 0.756933 0.882737
vt -0.274685 0.867594
vt -0.056707 0.757548
vt 1.274686 0.882737
vt 1.274685 0.996169
vt 1.056707 0.882737
vt 1.056707 0.996169
vt -0.056707 0.757548
vt -0.274686 0.867594
vt 0.332501 0.213019
vt 0.332501 0.373570
vt 1.000000 0.882737
vt 0.000000 0.882737
vt 0.000000 0.996169
vt 1.000000 0.996169
vt 0.000000 0.867594
vt 0.000000 0.757548
vt 1.000000 0.757548
vt 1.000000 0.867594
vt 1.000000 0.882737
vt 0.000000 0.867594
vt -0.500153 -0.866923
vt -0.665568 -0.867926
vt -0.663476 -0.905573
vt -0.498288 -0.905573
vt -1.167975 -0.667301
vt -1.168526 -0.486731
vt -1.223470 -0.482459
vt -1.222235 -0.669680
vt -1.169352 -0.293224
vt -1.224506 -0.290409
vt -1.002950 0.477468
vt -1.168988 0.477845
vt -1.170277 0.274879
vt -1.004098 0.274856
vt -0.996398 -0.869931
vt -0.997388 -0.837835
vt -1.162892 -0.839227
vt -1.160322 -0.893682
vt -1.003292 -0.293236
vt -1.002563 -0.486739
vt -1.169973 -0.097445
vt -1.170517 0.109710
vt -1.225923 0.110013
vt -1.225144 -0.095893
vt -1.225604 0.274042
vt -1.186976 0.475399
vt -1.224729 0.433074
vt -1.001988 -0.667404
vt -1.167791 -0.667338
vt -1.004215 0.109578
vt -1.201012 -0.668749
vt -1.203746 -0.880970
vt -1.003842 -0.097391
vt -1.170302 0.109655
vt -0.836912 0.477090
vt -0.837919 0.274834
vt -0.670874 0.476713
vt -0.671740 0.274811
vt -0.670198 -0.667574
vt -0.504303 -0.667659
vt -0.504675 -0.486762
vt -0.670638 -0.486754
vt -0.836093 -0.667489
vt -0.836601 -0.486746
vt -0.505630 0.109266
vt -0.671825 0.109370
vt -0.671582 -0.097282
vt -0.505452 -0.097227
vt -0.838019 0.109474
vt -0.837712 -0.097336
vt -0.671172 -0.293259
vt -0.505112 -0.293271
vt -0.837232 -0.293247
vt -0.505561 0.274788
vt -0.500878 -0.833658
vt -0.666381 -0.835050
vt -0.831885 -0.836442
vt -0.830983 -0.868928
vt -0.504836 0.476335
vt -1.217113 -0.888661
vt -1.159040 -0.905573
vt -0.993852 -0.905573
vt -0.828664 -0.905573
s 1
usemtl MI_WoodTrim
f 18/1/1 74/2/2 73/3/2 2/4/1
f 17/5/3 24/6/4 8/7/4 1/8/3
f 24/9/4 23/10/5 7/11/5 8/12/4
f 23/13/5 22/14/5 6/15/5 7/16/5
f 22/17/5 21/18/5 5/19/5 6/20/5
f 21/16/5 20/15/5 4/14/5 5/13/5
f 20/5/5 19/6/5 3/21/5 4/22/5
f 19/23/5 18/24/1 2/9/1 3/10/5
f 26/1/6 17/25/3 1/26/3 10/4/6
f 25/5/7 32/6/7 16/7/7 9/8/7
f 32/9/7 31/10/7 15/11/7 16/12/7
f 31/13/7 30/14/7 14/15/7 15/16/7
f 30/17/7 29/18/7 13/19/7 14/20/7
f 29/16/7 28/15/8 12/14/8 13/13/7
f 28/5/8 27/6/9 11/21/9 12/22/8
f 27/23/9 26/24/6 10/9/6 11/10/9
s 0
f 35/27/10 36/28/10 34/29/10 33/30/10
f 47/31/11 45/32/11 36/33/11 35/34/11
f 47/35/12 35/36/12 33/37/12 46/38/12
f 48/39/13 46/40/13 33/33/13 34/34/13
f 51/41/14 37/42/14 40/43/14 50/44/14
f 45/45/14 41/46/14 44/47/14 48/48/14
f 50/49/15 52/50/15 42/51/15 44/52/15
f 49/53/12 43/54/12 42/55/12 52/56/12
f 49/49/16 51/50/16 41/57/16 43/52/16
f 36/58/14 45/45/14 48/48/14 34/59/14
f 44/52/17 42/51/17 46/40/17 48/39/17
f 43/54/12 47/35/12 46/38/12 42/55/12
f 43/52/18 41/57/18 45/32/18 47/31/18
f 39/60/19 37/61/19 51/50/19 49/49/19
f 39/62/12 49/53/12 52/56/12 38/63/12
f 40/64/20 38/61/20 52/50/20 50/49/20
f 41/46/14 51/41/14 50/44/14 44/47/14
f 37/42/14 79/65/14 82/66/14 40/43/14
f 55/27/10 56/28/10 54/29/10 53/30/10
f 67/31/11 65/32/11 56/33/11 55/34/11
f 67/35/12 55/36/12 53/37/12 66/38/12
f 68/39/13 66/40/13 53/33/13 54/34/13
f 71/41/14 57/42/14 60/43/14 70/44/14
f 65/45/14 61/46/14 64/47/14 68/48/14
f 70/49/15 72/50/15 62/51/15 64/52/15
f 69/53/12 63/54/12 62/55/12 72/56/12
f 69/49/16 71/50/16 61/57/16 63/52/16
f 56/58/14 65/45/14 68/48/14 54/59/14
f 64/52/17 62/51/17 66/40/17 68/39/17
f 63/54/12 67/35/12 66/38/12 62/55/12
f 63/52/18 61/57/18 65/32/18 67/31/18
f 59/60/19 57/61/19 71/50/19 69/49/19
f 59/62/12 69/53/12 72/56/12 58/63/12
f 60/64/20 58/61/20 72/50/20 70/49/20
f 61/46/14 71/41/14 70/44/14 64/47/14
f 57/42/14 75/65/14 78/66/14 60/43/14
f 81/67/21 79/68/21 37/61/21 39/60/21
f 78/69/22 76/70/22 58/61/22 60/64/22
f 82/69/22 80/70/22 38/61/22 40/64/22
f 76/71/12 77/72/12 59/62/12 58/63/12
f 77/67/21 75/68/21 57/61/21 59/60/21
f 80/71/12 81/72/12 39/62/12 38/63/12
f 85/27/14 83/73/14 84/74/14 86/28/14
f 90/75/23 84/76/23 83/77/23 88/78/23
f 89/79/24 88/80/24 83/81/24 85/82/24
f 89/83/25 85/76/25 86/77/25 87/78/25
f 86/82/26 84/81/26 90/80/26 87/84/26
s 49
usemtl MI_FlatTiles
f 149/85/27 150/86/28 146/87/29 145/88/27
f 102/89/30 94/90/31 96/91/32 103/92/33
f 94/90/31 93/93/34 95/94/35 96/91/32
f 129/95/36 99/96/37 92/97/38 133/98/39
f 142/99/40 122/100/41 91/101/42 138/102/42
f 137/103/43 93/93/34 94/90/31 113/104/44
f 100/105/45 101/106/46 104/107/47 105/108/48
f 101/106/46 92/97/38 97/109/49 104/107/47
f 92/97/38 99/96/37 154/110/50 153/111/51 97/109/49
f 122/100/52 117/112/53 102/113/30 91/101/54
f 133/98/39 92/97/38 101/106/46 109/114/55
f 103/115/33 138/116/56 91/101/54 102/89/30
f 93/93/34 100/105/45 105/108/48 95/94/35
f 121/117/57 100/105/45 93/93/34 137/103/43
f 109/114/55 101/118/46 100/105/45 121/117/57
f 102/89/30 117/112/53 113/104/44 94/90/31
f 128/119/58 129/95/36 133/98/39 132/120/39
f 127/121/59 128/119/58 132/120/39 131/122/39
f 115/123/60 114/124/61 110/125/44 111/126/44
f 116/127/62 115/123/60 111/126/44 112/128/44
f 117/112/53 116/127/62 112/128/44 113/104/44
f 106/129/63 107/130/63 119/131/57 118/132/57
f 107/130/63 108/133/55 120/134/57 119/131/57
f 108/133/55 109/114/55 121/117/57 120/134/57
f 118/132/57 119/131/57 135/135/43 134/136/43
f 119/131/57 120/134/57 136/137/43 135/135/43
f 120/134/57 121/117/57 137/103/43 136/137/43
f 130/138/39 131/122/39 107/130/63 106/129/63
f 131/122/39 132/120/39 108/133/55 107/130/63
f 132/120/39 133/98/39 109/114/55 108/133/55
f 125/139/64 114/124/61 115/123/60 124/140/65
f 124/140/65 115/123/60 116/127/62 123/141/66
f 123/141/66 116/127/62 117/112/53 122/100/52
f 134/136/43 135/135/43 111/126/44 110/125/44
f 135/135/43 136/137/43 112/128/44 111/126/44
f 136/137/43 137/103/43 113/104/44 112/128/44
f 139/85/67 125/139/67 124/140/68 140/86/69
f 140/86/69 124/140/68 123/141/70 141/142/71
f 141/142/71 123/141/70 122/100/41 142/99/40
f 127/121/59 126/143/72 156/143/73 157/121/73
f 149/85/74 139/85/74 140/86/75 150/86/75
f 150/86/75 140/86/75 141/142/74 151/142/74
f 152/99/76 142/99/77 138/102/78 143/102/79
f 103/115/33 98/144/80 138/116/56
f 151/142/74 141/142/74 142/99/77 152/99/76
f 152/99/81 143/102/82 144/145/82 148/146/83
f 151/142/84 152/99/81 148/146/83 147/147/85
f 150/86/28 151/142/84 147/147/85 146/87/29
f 98/144/86 144/144/86 143/116/79 138/116/78
f 129/95/36 128/119/58 158/119/87 159/95/88
f 128/119/58 127/121/59 157/121/73 158/119/87
f 99/96/37 129/95/36 159/95/88 155/96/89
f 99/96/37 155/96/89 154/110/50
f 126/143/72 127/121/59 131/122/39 130/138/39
