# Blender 4.0.2
# www.blender.org
mtllib Roof_Modular_FlatTiles_4_Mid.mtl
o Roof_Modular_FlatTiles_4_Mid
v 1.086710 1.125870 -1.000001
v 0.134057 2.597145 -1.000001
v 0.269675 2.387127 -1.000001
v 0.405293 2.177109 -1.000001
v 0.540911 1.967091 -1.000001
v 0.676529 1.757072 -1.000001
v 0.812147 1.547054 -1.000001
v 0.947765 1.337035 -1.000001
v 2.359394 -0.420523 -1.000001
v 1.245338 0.928810 -1.000001
v 1.400638 0.732898 -1.000001
v 1.555903 0.537028 -1.000001
v 1.716602 0.345517 -1.000001
v 1.877300 0.154007 -1.000001
v 2.037998 -0.037503 -1.000001
v 2.198696 -0.229013 -1.000001
v 1.086710 1.125870 1.000001
v 0.134057 2.597145 1.000001
v 0.269675 2.387127 1.000001
v 0.405293 2.177109 1.000001
v 0.540911 1.967091 1.000001
v 0.676529 1.757072 1.000001
v 0.812147 1.547054 1.000001
v 0.947765 1.337035 1.000001
v 2.359394 -0.420523 1.000001
v 1.245338 0.928810 1.000001
v 1.400638 0.732898 1.000001
v 1.555903 0.537028 1.000001
v 1.716602 0.345517 1.000001
v 1.877300 0.154007 1.000001
v 2.037998 -0.037503 1.000001
v 2.198696 -0.229013 1.000001
v -0.000567 2.798790 -1.000001
v -0.000567 2.798790 1.000001
v -1.086710 1.125870 -1.000001
v -0.134057 2.597145 -1.000001
v -0.269675 2.387127 -1.000001
v -0.405293 2.177109 -1.000001
v -0.540911 1.967091 -1.000001
v -0.676529 1.757072 -1.000001
v -0.812147 1.547054 -1.000001
v -0.947765 1.337035 -1.000001
v -2.359394 -0.420523 -1.000001
v -1.245338 0.928810 -1.000001
v -1.400638 0.732898 -1.000001
v -1.555903 0.537028 -1.000001
v -1.716602 0.345517 -1.000001
v -1.877300 0.154007 -1.000001
v -2.037998 -0.037503 -1.000001
v -2.198696 -0.229013 -1.000001
v -1.086710 1.125870 1.000001
v -0.134057 2.597145 1.000001
v -0.269675 2.387127 1.000001
v -0.405293 2.177109 1.000001
v -0.540911 1.967091 1.000001
v -0.676529 1.757072 1.000001
v -0.812147 1.547054 1.000001
v -0.947765 1.337035 1.000001
v -2.359394 -0.420523 1.000001
v -1.245338 0.928810 1.000001
v -1.400638 0.732898 1.000001
v -1.555903 0.537028 1.000001
v -1.716602 0.345517 1.000001
v -1.877300 0.154007 1.000001
v -2.037998 -0.037503 1.000001
v -2.198696 -0.229013 1.000001
v 0.000567 2.798790 -1.000001
v 0.000567 2.798790 1.000001
v 0.330753 3.288746 -0.208650
v 0.330753 3.105720 0.995767
v -0.332467 3.288746 -0.208649
v -0.332467 3.105720 0.995767
v -0.284719 3.401118 -0.189604
v -0.284718 3.218093 1.014813
v -0.211151 3.496383 -0.173457
v -0.211151 3.313357 1.030959
v -0.114667 3.560036 -0.162668
v -0.114667 3.377011 1.041748
v -0.000857 3.582389 -0.158880
v -0.000857 3.399363 1.045537
v 0.112953 3.560036 -0.162668
v 0.112953 3.377011 1.041748
v 0.209437 3.496383 -0.173457
v 0.209437 3.313357 1.030959
v 0.283005 3.401118 -0.189604
v 0.283005 3.218093 1.014813
v 0.261194 3.259931 -0.213533
v 0.261194 3.076906 0.990883
v -0.262908 3.259931 -0.213533
v -0.262908 3.076906 0.990883
v -0.219420 3.363830 -0.195924
v -0.219420 3.180804 1.008493
v -0.159501 3.442100 -0.182657
v -0.159501 3.259074 1.021759
v -0.085800 3.491226 -0.174331
v -0.085800 3.308201 1.030085
v -0.000857 3.507909 -0.171504
v -0.000857 3.324883 1.032913
v 0.084086 3.491226 -0.174331
v 0.084086 3.308201 1.030085
v 0.157787 3.442100 -0.182657
v 0.157788 3.259074 1.021759
v 0.217706 3.363830 -0.195924
v 0.217706 3.180804 1.008493
v 0.330753 3.288746 -1.201239
v 0.330753 3.105720 0.003178
v -0.332467 3.288746 -1.201238
v -0.332467 3.105720 0.003179
v -0.284719 3.401118 -1.182193
v -0.284718 3.218093 0.022224
v -0.211151 3.496383 -1.166046
v -0.211151 3.313357 0.038370
v -0.114667 3.560036 -1.155257
v -0.114667 3.377011 0.049159
v -0.000857 3.582389 -1.151469
v -0.000857 3.399363 0.052948
v 0.112953 3.560036 -1.155257
v 0.112953 3.377011 0.049159
v 0.209437 3.496383 -1.166046
v 0.209437 3.313357 0.038370
v 0.283005 3.401118 -1.182193
v 0.283005 3.218093 0.022224
v 0.261194 3.259931 -1.206122
v 0.261194 3.076906 -0.001706
v -0.262908 3.259931 -1.206122
v -0.262908 3.076906 -0.001705
v -0.219420 3.363830 -1.188513
v -0.219420 3.180804 0.015904
v -0.159501 3.442100 -1.175246
v -0.159501 3.259074 0.029170
v -0.085800 3.491226 -1.166920
v -0.085800 3.308201 0.037496
v -0.000857 3.507909 -1.164093
v -0.000857 3.324883 0.040324
v 0.084086 3.491226 -1.166920
v 0.084086 3.308201 0.037496
v 0.157787 3.442100 -1.175246
v 0.157788 3.259074 0.029170
v 0.217706 3.363830 -1.188513
v 0.217706 3.180804 0.015904
v 2.399323 -0.132376 1.000001
v 2.399323 -0.132376 0.032407
v 2.399322 -0.132376 -1.000001
v 2.396379 -0.482986 1.000001
v 2.396378 -0.482986 -1.000001
v 2.396379 -0.482986 0.032407
v 2.224236 -0.283351 1.000001
v 2.224235 -0.283352 -1.000001
v 2.224236 -0.283352 0.032407
v 2.571466 -0.332010 1.000001
v 2.571465 -0.332010 0.032407
v 2.571465 -0.332011 -1.000001
v -2.399323 -0.132376 1.000001
v -2.399323 -0.132376 0.032407
v -2.399322 -0.132376 -1.000001
v -2.396379 -0.482986 1.000001
v -2.396378 -0.482986 -1.000001
v -2.396379 -0.482986 0.032407
v -2.224236 -0.283351 1.000001
v -2.224235 -0.283352 -1.000001
v -2.224236 -0.283352 0.032407
v -2.571466 -0.332010 1.000001
v -2.571465 -0.332010 0.032407
v -2.571465 -0.332011 -1.000001
v 0.676143 2.343028 -0.530529
v 0.675985 2.343265 -0.014877
v 0.675827 2.343502 0.499669
v 0.675668 2.343739 1.000000
v 1.875498 0.687378 -0.014897
v 1.875498 0.687378 0.499669
v 1.875498 0.687378 1.000000
v 2.293001 0.179435 -0.014770
v 2.292836 0.179638 0.499669
v 2.292670 0.179840 1.000000
v 1.057190 1.789707 -0.530529
v 1.057315 1.789517 -0.014852
v 1.057440 1.789326 0.499669
v 1.057565 1.789136 1.000000
v 2.697323 -0.225040 1.000000
v 2.697116 -0.225720 0.499669
v 2.696909 -0.226400 0.010974
v 2.696701 -0.227081 -0.530529
v 0.034874 3.365648 -0.530529
v 0.034259 3.366651 -0.014895
v 0.033643 3.367656 0.499669
v 0.033028 3.368660 1.000000
v 0.381138 2.800231 -0.014888
v 0.381133 2.800236 0.499669
v 0.381127 2.800241 1.000000
v 1.428345 1.270558 -0.530529
v 1.428345 1.270558 -0.014897
v 1.428345 1.270558 0.499669
v 1.428345 1.270558 1.000000
v 2.663951 -0.272482 -0.530529
v 2.664206 -0.271954 0.017468
v 2.664462 -0.271427 0.499669
v 2.664717 -0.270899 1.000000
v 2.519605 -0.341529 0.034152
v 2.519983 -0.341394 0.499669
v 2.520362 -0.341258 1.000000
v 2.603448 -0.224908 -0.530529
v 2.603703 -0.224380 0.017453
v 2.603958 -0.223853 0.499669
v 2.604214 -0.223325 1.000000
v 0.675827 2.343502 -0.999999
v 1.875498 0.687378 -0.999999
v 1.875498 0.687378 -0.530529
v 2.292836 0.179638 -0.999999
v 2.292670 0.179840 -0.530529
v 1.057440 1.789326 -0.999999
v 2.697116 -0.225720 -0.999999
v 0.033643 3.367656 -0.999999
v 0.381133 2.800236 -0.999999
v 0.381127 2.800241 -0.530529
v 1.428345 1.270558 -0.999999
v 2.664462 -0.271427 -0.999999
v 2.519983 -0.341394 -0.999999
v 2.520362 -0.341258 -0.530529
v 2.603958 -0.223853 -0.999999
v 0.000000 3.365648 -0.530529
v 0.000000 3.366651 -0.014895
v 0.000000 3.367656 0.499669
v 0.000000 3.368660 1.000000
v 0.000000 3.367656 -0.999999
v -0.676143 2.343028 -0.530529
v -0.675985 2.343265 -0.014877
v -0.675827 2.343502 0.499669
v -0.675668 2.343739 1.000000
v -1.875498 0.687378 -0.014897
v -1.875498 0.687378 0.499669
v -1.875498 0.687378 1.000000
v -2.293001 0.179435 -0.014770
v -2.292836 0.179638 0.499669
v -2.292670 0.179840 1.000000
v -1.057190 1.789707 -0.530529
v -1.057315 1.789517 -0.014852
v -1.057440 1.789326 0.499669
v -1.057565 1.789136 1.000000
v -2.697323 -0.225040 1.000000
v -2.697116 -0.225720 0.499669
v -2.696909 -0.226400 0.010974
v -2.696701 -0.227081 -0.530529
v -0.034874 3.365648 -0.530529
v -0.034259 3.366651 -0.014895
v -0.033643 3.367656 0.499669
v -0.033028 3.368660 1.000000
v -0.381138 2.800231 -0.014888
v -0.381133 2.800236 0.499669
v -0.381127 2.800241 1.000000
v -1.428345 1.270558 -0.530529
v -1.428345 1.270558 -0.014897
v -1.428345 1.270558 0.499669
v -1.428345 1.270558 1.000000
v -2.663951 -0.272482 -0.530529
v -2.664206 -0.271954 0.017468
v -2.664462 -0.271427 0.499669
v -2.664717 -0.270899 1.000000
v -2.519605 -0.341529 0.034152
v -2.519983 -0.341394 0.499669
v -2.520362 -0.341258 1.000000
v -2.603448 -0.224908 -0.530529
v -2.603703 -0.224380 0.017453
v -2.603958 -0.223853 0.499669
v -2.604214 -0.223325 1.000000
v -0.675827 2.343502 -0.999999
v -1.875498 0.687378 -0.999999
v -1.875498 0.687378 -0.530529
v -2.292836 0.179638 -0.999999
v -2.292670 0.179840 -0.530529
v -1.057440 1.789326 -0.999999
v -2.697116 -0.225720 -0.999999
v -0.033643 3.367656 -0.999999
v -0.381133 2.800236 -0.999999
v -0.381127 2.800241 -0.530529
v -1.428345 1.270558 -0.999999
v -2.664462 -0.271427 -0.999999
v -2.519983 -0.341394 -0.999999
v -2.520362 -0.341258 -0.530529
v -2.603958 -0.223853 -0.999999
vn -0.8359 -0.5489 -0.0000
vn -0.8317 -0.5553 -0.0000
vn -0.8081 -0.5890 -0.0000
vn -0.8377 -0.5461 -0.0000
vn -0.8401 -0.5425 -0.0000
vn -0.7813 -0.6241 -0.0000
vn -0.7660 -0.6428 -0.0000
vn -0.7749 -0.6321 -0.0000
vn -0.7837 -0.6212 -0.0000
vn 0.8359 -0.5489 -0.0000
vn 0.8317 -0.5553 -0.0000
vn 0.8081 -0.5890 -0.0000
vn 0.8377 -0.5461 -0.0000
vn 0.8401 -0.5425 -0.0000
vn 0.7813 -0.6241 -0.0000
vn 0.7660 -0.6428 -0.0000
vn 0.7749 -0.6321 -0.0000
vn 0.7837 -0.6212 -0.0000
vn -0.9223 0.3821 0.0581
vn -0.8653 0.4955 0.0753
vn -0.8665 0.4935 0.0750
vn -0.6843 0.7210 0.1096
vn -0.6860 0.7193 0.1093
vn -0.3823 0.9135 0.1388
vn -0.3838 0.9129 0.1387
vn -0.0000 0.9886 0.1502
vn -0.0000 0.9887 0.1502
vn 0.3823 0.9135 0.1388
vn 0.3838 0.9129 0.1387
vn 0.6843 0.7210 0.1096
vn 0.6860 0.7193 0.1093
vn 0.8653 0.4955 0.0753
vn 0.8665 0.4935 0.0750
vn 0.9223 0.3821 0.0581
vn 0.9244 -0.3772 -0.0573
vn 0.8689 -0.4894 -0.0744
vn 0.8677 -0.4914 -0.0747
vn 0.6893 -0.7163 -0.1088
vn 0.6875 -0.7179 -0.1091
vn 0.3860 -0.9120 -0.1386
vn 0.3845 -0.9126 -0.1387
vn -0.0000 -0.9887 -0.1502
vn -0.3860 -0.9120 -0.1386
vn -0.3845 -0.9126 -0.1387
vn -0.6893 -0.7163 -0.1088
vn -0.6875 -0.7179 -0.1091
vn -0.8689 -0.4894 -0.0744
vn -0.8677 -0.4914 -0.0747
vn -0.9244 -0.3772 -0.0573
vn 0.3873 -0.9115 -0.1385
vn -0.3873 -0.9115 -0.1385
vn -0.0000 0.1671 -0.9859
vn -0.0000 -0.1671 0.9859
vn 0.6530 -0.7573 -0.0000
vn -0.7573 -0.6530 -0.0000
vn 0.7573 0.6530 -0.0000
vn -0.6530 0.7573 -0.0000
vn -0.6530 -0.7573 -0.0000
vn 0.7573 -0.6530 -0.0000
vn -0.7573 0.6530 -0.0000
vn 0.6530 0.7573 -0.0000
vn 0.8134 -0.5817 -0.0000
vn 0.8131 -0.5822 0.0002
vn 0.8130 -0.5822 0.0002
vn 0.4888 0.8724 -0.0011
vn 0.4882 0.8727 -0.0012
vn 0.8466 0.5322 -0.0000
vn 0.4887 0.8724 -0.0011
vn 0.7415 0.6710 -0.0003
vn 0.7416 0.6708 0.0002
vn 0.7832 0.6218 -0.0000
vn 0.7411 0.6713 -0.0003
vn 0.7410 0.6715 -0.0003
vn 0.8320 0.5547 -0.0000
vn 0.8186 0.5744 -0.0000
vn 0.8036 0.5951 -0.0000
vn 0.7090 0.7052 0.0004
vn 0.7088 0.7054 -0.0006
vn 0.7081 0.7062 -0.0007
vn 0.7077 0.7065 -0.0007
vn 0.8120 -0.5836 -0.0002
vn 0.8123 -0.5832 0.0003
vn 0.8124 -0.5831 0.0003
vn 0.8137 -0.5813 0.0003
vn 0.8143 -0.5804 0.0003
vn -0.6181 -0.7861 0.0011
vn -0.6181 -0.7861 0.0012
vn 0.8137 -0.5813 -0.0001
vn 0.8143 -0.5804 -0.0001
vn -0.6181 -0.7861 -0.0007
vn 0.4876 0.8731 0.0025
vn 0.4896 0.8719 0.0007
vn 0.8137 -0.5812 -0.0005
vn 0.7415 0.6709 0.0007
vn 0.7088 0.7054 0.0013
vn 0.8124 -0.5832 -0.0007
vn -0.0000 1.0000 -0.0019
vn -0.0000 1.0000 -0.0020
vn -0.6181 -0.7861 -0.0024
vn -0.0000 1.0000 0.0012
vn -0.0000 1.0000 0.0043
vn -0.8134 -0.5817 -0.0000
vn -0.8130 -0.5822 0.0002
vn -0.8131 -0.5822 0.0002
vn -0.4888 0.8724 -0.0011
vn -0.8466 0.5322 -0.0000
vn -0.4882 0.8727 -0.0012
vn -0.4887 0.8724 -0.0011
vn -0.7415 0.6710 -0.0003
vn -0.7832 0.6218 -0.0000
vn -0.7416 0.6708 0.0002
vn -0.7411 0.6713 -0.0003
vn -0.7410 0.6715 -0.0003
vn -0.8320 0.5547 -0.0000
vn -0.8186 0.5744 -0.0000
vn -0.8036 0.5951 -0.0000
vn -0.7090 0.7052 0.0004
vn -0.7088 0.7054 -0.0006
vn -0.7081 0.7062 -0.0007
vn -0.7077 0.7065 -0.0007
vn -0.8120 -0.5836 -0.0002
vn -0.8124 -0.5831 0.0003
vn -0.8123 -0.5832 0.0003
vn -0.8137 -0.5813 0.0003
vn -0.8143 -0.5804 0.0003
vn 0.6181 -0.7861 0.0011
vn 0.6181 -0.7861 0.0012
vn -0.8137 -0.5813 -0.0001
vn -0.8143 -0.5804 -0.0001
vn 0.6181 -0.7861 -0.0007
vn -0.4876 0.8731 0.0025
vn -0.4896 0.8719 0.0007
vn -0.8137 -0.5812 -0.0005
vn -0.7415 0.6709 0.0007
vn -0.7088 0.7054 0.0013
vn -0.8124 -0.5832 -0.0007
vn 0.6181 -0.7861 -0.0024
vt 0.500035 0.565378
vt 0.500035 0.455834
vt 1.499965 0.455834
vt 1.499965 0.565378
vt 0.499965 0.688472
vt 0.499965 0.567552
vt -0.499965 0.567552
vt -0.499965 0.688472
vt -0.499965 0.565378
vt -0.499965 0.445042
vt 0.499965 0.445042
vt 0.499965 0.565378
vt 0.999965 0.688472
vt 0.999965 0.567552
vt 0.000035 0.567552
vt 0.000035 0.688472
vt 0.499965 0.445042
vt 0.499965 0.565377
vt -0.499965 0.565378
vt -0.499965 0.445042
vt -0.499965 0.567552
vt -0.499965 0.688472
vt 0.499965 0.445042
vt 0.499965 0.565377
vt 0.500035 0.445042
vt 1.499965 0.445042
vt 0.827870 0.159276
vt 0.827870 0.341461
vt 0.807685 0.349359
vt 0.807685 0.167174
vt 0.787499 0.354730
vt 0.787499 0.172545
vt 0.767313 0.359613
vt 0.767313 0.177428
vt 0.747128 0.362054
vt 0.747128 0.179870
vt 0.726942 0.359613
vt 0.726942 0.177428
vt 0.706757 0.354730
vt 0.706757 0.172545
vt 0.686571 0.348584
vt 0.686571 0.166399
vt 0.666385 0.341461
vt 0.666385 0.159276
vt 0.668231 0.159276
vt 0.668231 0.341461
vt 0.667001 0.341461
vt 0.667001 0.159276
vt 0.823697 0.341461
vt 0.823697 0.159276
vt 0.829583 0.159276
vt 0.829583 0.341461
vt 0.820993 0.123630
vt 0.802526 0.130855
vt 0.802526 0.122413
vt 0.820993 0.115188
vt 0.807685 0.351684
vt 0.827870 0.343786
vt 0.827870 0.331385
vt 0.807685 0.339283
vt 0.784060 0.135768
vt 0.784060 0.127327
vt 0.787499 0.357055
vt 0.787499 0.344654
vt 0.765594 0.140235
vt 0.765594 0.131793
vt 0.767313 0.361938
vt 0.767313 0.349537
vt 0.747128 0.183921
vt 0.747128 0.175479
vt 0.747128 0.364380
vt 0.747128 0.351978
vt 0.728662 0.140235
vt 0.728662 0.131793
vt 0.726942 0.361938
vt 0.726942 0.349537
vt 0.710195 0.135768
vt 0.710195 0.127327
vt 0.706757 0.357055
vt 0.706757 0.344654
vt 0.691729 0.130146
vt 0.691729 0.121704
vt 0.686571 0.350909
vt 0.686571 0.338508
vt 0.673263 0.123630
vt 0.673263 0.115188
vt 0.666385 0.343786
vt 0.666385 0.331385
vt 0.000000 0.996169
vt 0.375000 0.996169
vt 0.375000 0.882737
vt 0.000000 0.882737
vt 1.000000 0.996169
vt 1.000000 0.882737
vt 1.000000 0.867594
vt 0.477303 0.867594
vt 0.477303 0.757548
vt 1.000000 0.757548
vt 0.000000 0.867594
vt 0.000000 0.757548
vt 0.477303 0.867594
vt 0.477303 0.757548
vt 1.000000 0.867594
vt 0.000000 0.882737
vt -0.003907 -0.863916
vt -0.169323 -0.864918
vt -0.167913 -0.905573
vt -0.002725 -0.905573
vt -0.338797 0.475958
vt -0.504836 0.476335
vt -0.505561 0.274788
vt -0.339382 0.274765
vt -0.172759 0.475581
vt -0.173203 0.274742
vt -0.172512 -0.667829
vt -0.006617 -0.667913
vt -0.006786 -0.486786
vt -0.172749 -0.486778
vt -0.338408 -0.667744
vt -0.338712 -0.486770
vt -0.504303 -0.667659
vt -0.504675 -0.486762
vt -0.007044 0.108953
vt -0.173239 0.109057
vt -0.173191 -0.097119
vt -0.007061 -0.097064
vt -0.339435 0.109162
vt -0.339321 -0.097173
vt -0.505630 0.109266
vt -0.505452 -0.097227
vt -0.172993 -0.293295
vt -0.006933 -0.293307
vt -0.339053 -0.293283
vt -0.505112 -0.293271
vt -0.007024 0.274720
vt -0.004367 -0.829481
vt -0.169871 -0.830873
vt -0.335374 -0.832266
vt -0.500878 -0.833658
vt -0.334738 -0.865921
vt -0.500153 -0.866923
vt -0.498288 -0.905573
vt -0.333100 -0.905573
vt -0.006721 0.475203
s 1
usemtl MI_WoodTrim
f 18/1/1 34/2/2 33/3/2 2/4/1
f 17/5/3 24/6/4 8/7/4 1/8/3
f 24/9/4 23/10/5 7/11/5 8/12/4
f 23/13/5 22/14/5 6/15/5 7/16/5
f 22/17/5 21/18/5 5/19/5 6/20/5
f 21/16/5 20/15/5 4/14/5 5/13/5
f 20/5/5 19/6/5 3/21/5 4/22/5
f 19/23/5 18/24/1 2/9/1 3/10/5
f 26/1/6 17/25/3 1/26/3 10/4/6
f 25/5/7 32/6/7 16/7/7 9/8/7
f 32/9/7 31/10/7 15/11/7 16/12/7
f 31/13/7 30/14/7 14/15/7 15/16/7
f 30/17/7 29/18/7 13/19/7 14/20/7
f 29/16/7 28/15/8 12/14/8 13/13/7
f 28/5/8 27/6/9 11/21/9 12/22/8
f 27/23/9 26/24/6 10/9/6 11/10/9
s 2
f 52/1/10 36/4/10 67/3/11 68/2/11
f 51/5/12 35/8/12 42/7/13 58/6/13
f 58/9/13 42/12/13 41/11/14 57/10/14
f 57/13/14 41/16/14 40/15/14 56/14/14
f 56/17/14 40/20/14 39/19/14 55/18/14
f 55/16/14 39/13/14 38/14/14 54/15/14
f 54/5/14 38/22/14 37/21/14 53/6/14
f 53/23/14 37/10/14 36/9/10 52/24/10
f 60/1/15 44/4/15 35/26/12 51/25/12
f 59/5/16 43/8/16 50/7/16 66/6/16
f 66/9/16 50/12/16 49/11/16 65/10/16
f 65/13/16 49/16/16 48/15/16 64/14/16
f 64/17/16 48/20/16 47/19/16 63/18/16
f 63/16/16 47/13/16 46/14/17 62/15/17
f 62/5/17 46/22/17 45/21/18 61/6/18
f 61/23/18 45/10/18 44/9/15 60/24/15
s 0
f 144/89/54 146/90/54 151/91/54 150/92/54
f 146/90/54 145/93/54 152/94/54 151/91/54
f 147/95/55 149/96/55 146/97/55 144/98/55
f 149/96/55 148/99/55 145/100/55 146/97/55
f 143/99/56 142/101/56 151/102/56 152/100/56
f 142/101/56 141/103/56 150/98/56 151/102/56
f 141/89/57 142/90/57 149/91/57 147/104/57
f 142/90/57 143/93/57 148/94/57 149/91/57
f 156/89/58 162/92/58 163/91/58 158/90/58
f 158/90/58 163/91/58 164/94/58 157/93/58
f 159/95/59 156/98/59 158/97/59 161/96/59
f 161/96/59 158/97/59 157/100/59 160/99/59
f 155/99/60 164/100/60 163/102/60 154/101/60
f 154/101/60 163/102/60 162/98/60 153/103/60
f 153/89/61 159/104/61 161/91/61 154/90/61
f 154/90/61 161/91/61 160/94/61 155/93/61
s 3
usemtl MI_RoundTiles
f 71/27/19 72/28/19 74/29/20 73/30/21
f 73/30/21 74/29/20 76/31/22 75/32/23
f 75/32/23 76/31/22 78/33/24 77/34/25
f 77/34/25 78/33/24 80/35/26 79/36/27
f 79/36/27 80/35/26 82/37/28 81/38/29
f 81/38/29 82/37/28 84/39/30 83/40/31
f 83/40/31 84/39/30 86/41/32 85/42/33
f 85/42/33 86/41/32 70/43/34 69/44/34
f 89/27/35 91/30/36 92/29/37 90/28/35
f 91/30/36 93/32/38 94/31/39 92/29/37
f 93/32/38 95/34/40 96/33/41 94/31/39
f 95/34/40 97/36/42 98/35/42 96/33/41
f 97/36/42 99/38/43 100/37/44 98/35/42
f 99/38/43 101/40/45 102/39/46 100/37/44
f 101/40/45 103/42/47 104/41/48 102/39/46
f 103/42/47 87/44/49 88/43/49 104/41/48
f 69/45/50 70/46/50 88/47/50 87/48/50
f 72/49/51 71/50/51 89/51/51 90/52/51
f 71/53/52 73/54/52 91/55/52 89/56/52
f 74/57/53 72/58/53 90/59/53 92/60/53
f 73/54/52 75/61/52 93/62/52 91/55/52
f 76/63/53 74/57/53 92/60/53 94/64/53
f 75/61/52 77/65/52 95/66/52 93/62/52
f 78/67/53 76/63/53 94/64/53 96/68/53
f 77/65/52 79/69/52 97/70/52 95/66/52
f 80/71/53 78/67/53 96/68/53 98/72/53
f 79/69/52 81/73/52 99/74/52 97/70/52
f 82/75/53 80/71/53 98/72/53 100/76/53
f 81/73/52 83/77/52 101/78/52 99/74/52
f 84/79/53 82/75/53 100/76/53 102/80/53
f 83/77/52 85/81/52 103/82/52 101/78/52
f 86/83/53 84/79/53 102/80/53 104/84/53
f 85/81/52 69/85/52 87/86/52 103/82/52
f 70/87/53 86/83/53 104/84/53 88/88/53
s 4
f 107/27/19 108/28/19 110/29/20 109/30/21
f 109/30/21 110/29/20 112/31/22 111/32/23
f 111/32/23 112/31/22 114/33/24 113/34/25
f 113/34/25 114/33/24 116/35/26 115/36/26
f 115/36/26 116/35/26 118/37/28 117/38/29
f 117/38/29 118/37/28 120/39/30 119/40/31
f 119/40/31 120/39/30 122/41/32 121/42/33
f 121/42/33 122/41/32 106/43/34 105/44/34
f 125/27/35 127/30/36 128/29/37 126/28/35
f 127/30/36 129/32/38 130/31/39 128/29/37
f 129/32/38 131/34/40 132/33/41 130/31/39
f 131/34/40 133/36/42 134/35/42 132/33/41
f 133/36/42 135/38/43 136/37/44 134/35/42
f 135/38/43 137/40/45 138/39/46 136/37/44
f 137/40/45 139/42/47 140/41/48 138/39/46
f 139/42/47 123/44/49 124/43/49 140/41/48
f 105/45/50 106/46/50 124/47/50 123/48/50
f 108/49/51 107/50/51 125/51/51 126/52/51
f 107/53/52 109/54/52 127/55/52 125/56/52
f 110/57/53 108/58/53 126/59/53 128/60/53
f 109/54/52 111/61/52 129/62/52 127/55/52
f 112/63/53 110/57/53 128/60/53 130/64/53
f 111/61/52 113/65/52 131/66/52 129/62/52
f 114/67/53 112/63/53 130/64/53 132/68/53
f 113/65/52 115/69/52 133/70/52 131/66/52
f 116/71/53 114/67/53 132/68/53 134/72/53
f 115/69/52 117/73/52 135/74/52 133/70/52
f 118/75/53 116/71/53 134/72/53 136/76/53
f 117/73/52 119/77/52 137/78/52 135/74/52
f 120/79/53 118/75/53 136/76/53 138/80/53
f 119/77/52 121/81/52 139/82/52 137/78/52
f 122/83/53 120/79/53 138/80/53 140/84/53
f 121/81/52 105/85/52 123/86/52 139/82/52
f 106/87/53 122/83/53 140/84/53 124/88/53
s 21
usemtl MI_FlatTiles
f 201/105/62 202/106/63 198/107/64 218/108/62
f 185/109/65 186/110/66 189/111/67 188/112/67
f 184/113/68 185/109/65 188/112/67 187/114/67
f 172/115/69 209/116/70 207/117/71 169/118/71
f 173/119/72 172/115/69 169/118/71 170/120/71
f 174/121/73 173/119/72 170/120/71 171/122/71
f 165/123/74 166/124/74 176/125/75 175/126/75
f 166/124/74 167/127/74 177/128/75 176/125/75
f 167/127/74 168/129/74 178/130/75 177/128/75
f 175/126/75 176/125/75 191/131/76 190/132/76
f 176/125/75 177/128/75 192/133/76 191/131/76
f 177/128/75 178/130/75 193/134/76 192/133/76
f 214/135/67 187/114/67 166/124/74 165/123/74
f 187/114/67 188/112/67 167/127/74 166/124/74
f 188/112/67 189/111/67 168/129/74 167/127/74
f 182/136/77 209/116/70 172/115/69 181/137/78
f 181/137/78 172/115/69 173/119/72 180/138/79
f 180/138/79 173/119/72 174/121/73 179/139/80
f 190/132/76 191/131/76 169/118/71 207/117/71
f 191/131/76 192/133/76 170/120/71 169/118/71
f 192/133/76 193/134/76 171/122/71 170/120/71
f 194/105/81 182/136/81 181/137/82 195/106/83
f 195/106/83 181/137/82 180/138/84 196/140/84
f 196/140/84 180/138/84 179/139/85 197/141/85
f 202/106/86 195/106/86 196/140/87 203/140/87
f 203/140/87 196/140/87 197/141/86 204/141/86
f 203/140/88 204/141/89 200/142/89 199/143/88
f 202/106/63 203/140/88 199/143/88 198/107/64
f 201/105/90 194/105/90 195/106/86 202/106/86
f 212/109/91 183/110/92 214/111/67 213/112/67
f 219/140/93 201/141/62 218/142/62 217/143/93
f 209/121/70 208/119/94 206/120/71 207/122/71
f 205/127/74 165/129/74 175/130/75 210/128/75
f 210/128/75 175/130/75 190/134/76 215/133/76
f 213/112/67 214/111/67 165/129/74 205/127/74
f 211/138/95 208/119/94 209/121/70 182/139/77
f 215/133/76 190/134/76 207/122/71 206/120/71
f 216/140/96 211/138/96 182/139/81 194/141/81
f 185/109/65 184/113/68 221/113/97 222/109/98
f 219/140/99 216/140/99 194/141/90 201/141/90
f 184/113/68 183/144/92 220/144/100 221/113/97
f 212/109/91 224/109/101 220/110/100 183/110/92
f 186/110/66 185/109/65 222/109/98 223/110/98
f 183/144/92 184/113/68 187/114/67 214/135/67
f 261/105/102 278/108/102 258/107/103 262/106/104
f 245/109/105 248/112/106 249/111/106 246/110/107
f 244/113/108 247/114/106 248/112/106 245/109/105
f 232/115/109 229/118/110 267/117/110 269/116/111
f 233/119/112 230/120/110 229/118/110 232/115/109
f 234/121/113 231/122/110 230/120/110 233/119/112
f 225/123/114 235/126/115 236/125/115 226/124/114
f 226/124/114 236/125/115 237/128/115 227/127/114
f 227/127/114 237/128/115 238/130/115 228/129/114
f 235/126/115 250/132/116 251/131/116 236/125/115
f 236/125/115 251/131/116 252/133/116 237/128/115
f 237/128/115 252/133/116 253/134/116 238/130/115
f 274/135/106 225/123/114 226/124/114 247/114/106
f 247/114/106 226/124/114 227/127/114 248/112/106
f 248/112/106 227/127/114 228/129/114 249/111/106
f 242/136/117 241/137/118 232/115/109 269/116/111
f 241/137/118 240/138/119 233/119/112 232/115/109
f 240/138/119 239/139/120 234/121/113 233/119/112
f 250/132/116 267/117/110 229/118/110 251/131/116
f 251/131/116 229/118/110 230/120/110 252/133/116
f 252/133/116 230/120/110 231/122/110 253/134/116
f 254/105/121 255/106/122 241/137/123 242/136/121
f 255/106/122 256/140/124 240/138/124 241/137/123
f 256/140/124 257/141/125 239/139/125 240/138/124
f 262/106/126 263/140/127 256/140/127 255/106/126
f 263/140/127 264/141/126 257/141/126 256/140/127
f 263/140/128 259/143/128 260/142/129 264/141/129
f 262/106/104 258/107/103 259/143/128 263/140/128
f 261/105/130 262/106/126 255/106/126 254/105/130
f 272/109/131 273/112/106 274/111/106 243/110/132
f 279/140/133 277/143/133 278/142/102 261/141/102
f 269/121/111 267/122/110 266/120/110 268/119/134
f 265/127/114 270/128/115 235/130/115 225/129/114
f 270/128/115 275/133/116 250/134/116 235/130/115
f 273/112/106 265/127/114 225/129/114 274/111/106
f 271/138/135 242/139/117 269/121/111 268/119/134
f 275/133/116 266/120/110 267/122/110 250/134/116
f 276/140/136 254/141/121 242/139/121 271/138/136
f 245/109/105 222/109/98 221/113/97 244/113/108
f 279/140/137 261/141/130 254/141/130 276/140/137
f 244/113/108 221/113/97 220/144/100 243/144/132
f 272/109/131 243/110/132 220/110/100 224/109/101
f 246/110/107 223/110/98 222/109/98 245/109/105
f 243/144/132 274/135/106 247/114/106 244/113/108
