# Blender 4.0.2
# www.blender.org
mtllib Roof_Modular_FlatTiles_8_R_Half.mtl
o Roof_Modular_FlatTiles_8_R_Half
v 4.696401 -0.714985 -1.010264
v 4.858003 -0.549654 -1.010264
v 4.507891 -0.530727 -1.010264
v 4.669492 -0.365397 -1.010264
v 4.669491 -0.365397 1.000000
v 4.696400 -0.714986 1.000000
v 4.507890 -0.530728 1.000000
v 4.858002 -0.549655 1.000000
v 0.000000 5.108350 -0.940505
v 0.000000 5.094669 -1.182835
v 0.000000 5.555032 -0.940505
v 0.000000 5.555032 -1.182835
v 4.708072 -0.753421 -0.940506
v 4.708072 -0.753421 -1.182836
v 4.901005 -0.573799 -0.940506
v 4.901005 -0.573799 -1.182836
v 2.578079 1.985313 -1.182835
v 2.376649 1.815275 -0.940505
v 2.578079 1.985313 -0.940505
v 2.376649 1.815275 -1.182835
v 3.480139 0.877657 -1.182836
v 3.272390 0.715725 -0.940506
v 3.480139 0.877657 -0.940506
v 3.272390 0.715725 -1.182836
v 3.963398 0.353312 -1.182836
v 3.764014 0.181109 -0.940506
v 3.963398 0.353312 -0.940506
v 3.764014 0.181109 -1.182836
v 3.021425 1.412941 -0.940505
v 2.816835 1.246956 -1.182835
v 3.021425 1.412941 -1.182835
v 2.816835 1.246956 -0.940505
v 1.188230 3.889910 -0.940505
v 0.980625 3.727778 -1.182835
v 1.188229 3.889910 -1.182835
v 0.980626 3.727778 -0.940505
v 0.000000 5.108350 -0.170833
v 0.000000 5.094669 -0.402023
v 0.000000 5.555032 -0.170833
v 0.000000 5.555032 -0.402023
v 4.708072 -0.753421 -0.170834
v 4.708072 -0.753421 -0.402024
v 4.901005 -0.573799 -0.170834
v 4.901005 -0.573799 -0.402024
v 2.578079 1.985313 -0.402023
v 2.376649 1.815275 -0.170833
v 2.578079 1.985313 -0.170833
v 2.376649 1.815275 -0.402023
v 3.480139 0.877657 -0.402024
v 3.272390 0.715725 -0.170833
v 3.480139 0.877657 -0.170833
v 3.272390 0.715725 -0.402024
v 3.963398 0.353312 -0.402024
v 3.764014 0.181109 -0.170834
v 3.963398 0.353312 -0.170834
v 3.764014 0.181109 -0.402024
v 3.021425 1.412941 -0.170833
v 2.816835 1.246956 -0.402023
v 3.021425 1.412941 -0.402023
v 2.816835 1.246956 -0.170833
v 1.200596 3.884326 -0.170833
v 0.992992 3.722194 -0.402023
v 1.200596 3.884326 -0.402023
v 0.992992 3.722194 -0.170833
v 0.000000 5.508695 -1.102259
v 4.931263 -0.506260 -1.116883
v 2.408988 2.384818 -1.044399
v 3.582627 0.949802 -1.044387
v 4.003886 0.490772 -1.044386
v 3.488756 0.825614 -1.102266
v 3.910014 0.366585 -1.102266
v 2.315224 2.260552 -1.102266
v 4.873666 -0.604803 -1.142287
v 2.011000 2.925320 -1.044389
v 1.926467 2.785578 -1.102266
v 3.169617 1.434223 -1.044447
v 2.740627 1.955914 -1.044413
v 4.406358 0.075464 -1.044727
v 4.330885 -0.065038 -1.102266
v 2.646997 1.831550 -1.102266
v 3.076310 1.309619 -1.102266
v 1.656018 3.433460 -1.044386
v 1.550044 3.320622 -1.102266
v 1.254513 4.015660 -1.044387
v 1.153778 3.890223 -1.102266
v 2.741338 1.955024 1.000000
v 2.741161 1.955247 0.535476
v 2.740983 1.955469 -0.015280
v 2.740805 1.955691 -0.589553
v 4.003886 0.490772 1.000000
v 4.003886 0.490772 0.535495
v 4.003886 0.490772 -0.015260
v 4.003886 0.490772 -0.589530
v 4.407086 0.074713 1.000000
v 4.406904 0.074901 0.535299
v 4.406722 0.075089 -0.015486
v 4.406540 0.075276 -0.589806
v 3.169054 1.434939 1.000000
v 3.169195 1.434760 0.535452
v 3.169335 1.434581 -0.015306
v 3.169477 1.434402 -0.589583
v 4.974742 -0.430276 -0.624255
v 4.974594 -0.430971 -0.045180
v 4.974446 -0.431666 0.507742
v 4.974298 -0.432362 1.000000
v 1.654528 3.435606 -0.589529
v 1.653038 3.437752 -0.015258
v 1.651548 3.439897 0.535496
v 1.650059 3.442043 1.000000
v 1.255332 4.014472 -0.589530
v 1.256151 4.013283 -0.015260
v 1.256970 4.012095 0.535495
v 1.257789 4.010906 1.000000
v 2.013795 2.921528 1.000000
v 2.013096 2.922476 0.535493
v 2.012398 2.923424 -0.015261
v 2.011699 2.924373 -0.589533
v 2.409012 2.384800 1.000000
v 2.409006 2.384804 0.535486
v 2.409000 2.384809 -0.015269
v 2.408994 2.384813 -0.589542
v 3.582627 0.949802 1.000000
v 3.582627 0.949802 0.535495
v 3.582627 0.949802 -0.015260
v 3.582627 0.949802 -0.589531
v 4.889391 -0.574523 -1.132615
v 4.945713 -0.480829 1.000000
v 4.945922 -0.480282 0.498530
v 4.946131 -0.479735 -0.055681
v 4.946341 -0.479187 -0.637020
v 4.831594 -0.533399 -1.111960
v 4.815869 -0.563679 -1.121631
v 4.807869 -0.563220 1.000000
v 4.808235 -0.563053 0.474918
v 4.808601 -0.562886 -0.082679
v 4.808967 -0.562719 -0.669962
v 4.881380 -0.438578 1.000000
v 4.881589 -0.438030 0.498541
v 4.881798 -0.437483 -0.055670
v 4.882008 -0.436936 -0.637008
v 1.184590 3.553068 1.000000
v -0.051477 5.269385 1.000000
v 0.093775 5.065911 1.000000
v 0.239027 4.862436 1.000000
v 0.384278 4.658962 1.000000
v 0.529530 4.455488 1.000000
v 0.674782 4.252013 1.000000
v 0.827017 4.039610 1.000000
v 0.992266 3.810570 1.000000
v 2.911966 1.298295 1.000000
v 1.393681 3.284908 1.000000
v 1.595780 3.019534 1.000000
v 1.804992 2.745065 1.000000
v 2.019891 2.463327 1.000000
v 2.239046 2.176146 1.000000
v 2.461030 1.885350 1.000000
v 2.684412 1.592763 1.000000
v 4.702800 -0.673213 1.000000
v 3.156294 1.021664 1.000000
v 3.393583 0.750585 1.000000
v 3.626551 0.485020 1.000000
v 3.858806 0.231633 1.000000
v 4.083987 -0.012710 1.000000
v 4.300665 -0.246183 1.000000
v 4.507412 -0.466960 1.000000
v 1.184590 3.553068 -1.062891
v 0.992266 3.810570 -1.062891
v 0.827017 4.039610 -1.062891
v 0.529530 4.455488 -1.062891
v -0.051477 5.269385 -1.062891
v 0.674782 4.252013 -1.062891
v 0.384278 4.658962 -1.062891
v 0.239027 4.862436 -1.062891
v 0.093775 5.065911 -1.062891
v 2.911966 1.298295 -1.062891
v 2.684412 1.592763 -1.062891
v 2.461030 1.885350 -1.062891
v 2.019891 2.463327 -1.062891
v 2.239046 2.176146 -1.062891
v 1.804992 2.745065 -1.062891
v 1.595780 3.019534 -1.062891
v 1.393681 3.284908 -1.062891
v 4.702800 -0.673213 -1.062891
v 4.507412 -0.466960 -1.062891
v 4.300665 -0.246183 -1.062891
v 3.858806 0.231633 -1.062891
v 4.083987 -0.012710 -1.062891
v 3.626551 0.485020 -1.062891
v 3.393583 0.750585 -1.062891
v 3.156294 1.021664 -1.062891
v 0.000000 5.788627 -1.044387
v 0.000000 5.788627 1.000000
v 0.000000 5.788627 0.535495
v 0.000000 5.788627 -0.015260
v 0.000000 5.788627 -0.589531
vn -0.0000 -0.0000 -1.0000
vn 0.7151 -0.6990 -0.0000
vn -0.6990 -0.7151 -0.0000
vn -0.7151 0.6990 -0.0000
vn 0.6990 0.7151 -0.0000
vn 0.6814 -0.7319 -0.0000
vn 0.7031 0.7111 -0.0000
vn -0.0000 -0.0000 1.0000
vn -0.7035 -0.7107 -0.0000
vn -0.8077 -0.5896 -0.0000
vn 0.8078 0.5895 -0.0000
vn -0.7591 -0.6510 -0.0000
vn 0.7593 0.6507 -0.0000
vn -0.7361 -0.6769 -0.0000
vn 0.7353 0.6777 -0.0000
vn 0.7906 0.6124 -0.0000
vn -0.7906 -0.6123 -0.0000
vn 0.8140 0.5809 -0.0000
vn -0.8138 -0.5809 0.0164
vn -0.8094 -0.5873 -0.0000
vn 0.8095 0.5872 -0.0000
vn 0.8121 0.5836 -0.0000
vn -0.8114 -0.5842 0.0173
vn 0.8619 -0.5070 0.0001
vn 0.8626 -0.5060 0.0001
vn 0.8624 -0.5062 0.0001
vn 0.5656 0.5812 -0.5850
vn 0.1969 0.2465 -0.9489
vn 0.2563 0.2430 -0.9356
vn 0.5973 0.5632 -0.5709
vn 0.2651 0.2354 -0.9350
vn 0.6152 0.5435 -0.5711
vn 0.8126 0.5829 -0.0000
vn 0.7982 0.6024 -0.0000
vn 0.6572 0.4956 -0.5678
vn 0.6689 0.4794 -0.5681
vn 0.8163 0.5776 -0.0000
vn 0.8198 0.5727 -0.0000
vn 0.6732 0.4710 -0.5700
vn 0.7733 0.5474 -0.3200
vn 0.8601 -0.5101 0.0011
vn 0.8574 -0.5147 0.0021
vn 0.8615 -0.5077 0.0007
vn 0.7490 0.6626 -0.0000
vn 0.7275 0.6861 -0.0000
vn 0.6308 0.5278 -0.5687
vn 0.2730 0.2291 -0.9343
vn 0.2795 0.2239 -0.9337
vn 0.6433 0.5124 -0.5689
vn 0.2865 0.2173 -0.9331
vn 0.6831 0.7289 -0.0460
vn 0.4712 0.5382 -0.6988
vn 0.7004 0.7134 -0.0215
vn 0.2865 0.2004 -0.9369
vn 0.2798 0.1987 -0.9393
vn 0.2911 0.2108 -0.9332
vn 0.2927 0.2042 -0.9341
vn 0.6760 0.4696 -0.5678
vn 0.8215 0.5702 -0.0000
vn 0.7818 0.6235 -0.0000
vn 0.1561 0.2354 -0.9593
vn 0.7667 0.6420 -0.0000
vn 0.8125 0.5829 -0.0000
vn 0.6925 0.7214 0.0003
vn 0.6926 0.7213 0.0003
vn 0.6922 0.7217 0.0003
vn 0.8198 0.5726 -0.0000
vn 0.6662 0.7458 0.0007
vn 0.6659 0.7460 0.0006
vn 0.6653 0.7466 0.0006
vn 0.8619 -0.5070 -0.0003
vn 0.8626 -0.5059 -0.0003
vn 0.8625 -0.5061 -0.0003
vn 0.8637 -0.5039 -0.0003
vn 0.8636 -0.5042 -0.0003
vn -0.5490 -0.8359 -0.0011
vn -0.5490 -0.8358 -0.0010
vn -0.5400 -0.8345 0.1097
vn -0.3119 -0.7280 0.6105
vn -0.1962 -0.6377 0.7449
vn -0.5399 -0.8344 0.1108
vn 0.1547 0.2268 -0.9616
vn 0.8656 -0.5007 0.0045
vn 0.8663 -0.4995 0.0066
vn 0.8678 -0.4967 0.0115
vn 0.8636 -0.5042 0.0001
vn 0.8637 -0.5040 0.0001
vn 0.0888 -0.3446 0.9345
vn -0.8139 -0.5810 -0.0000
vn -0.7949 -0.6067 -0.0000
vn -0.8061 -0.5918 -0.0000
vn -0.8119 -0.5838 -0.0000
vn -0.8133 -0.5818 -0.0000
vn -0.7921 -0.6104 -0.0000
vn -0.7708 -0.6371 -0.0000
vn -0.7931 -0.6092 -0.0000
vn -0.7949 -0.6068 -0.0000
vn -0.7950 -0.6066 -0.0000
vn -0.7952 -0.6063 -0.0000
vn -0.7954 -0.6060 -0.0000
vn -0.7510 -0.6603 -0.0000
vn -0.7260 -0.6877 -0.0000
vn -0.7279 -0.6856 -0.0000
vn -0.7314 -0.6819 -0.0000
vn -0.7342 -0.6790 -0.0000
vn -0.7363 -0.6767 -0.0000
vn -0.7445 -0.6676 -0.0000
vn -0.7521 -0.6591 -0.0000
vt 0.490323 0.213019
vt 0.490323 0.373570
vt 0.332501 0.373570
vt 0.332501 0.213019
vt 1.000000 0.882737
vt 1.000000 0.996169
vt 0.000000 0.996169
vt 0.000000 0.882737
vt 0.000000 0.867594
vt 1.000000 0.867594
vt 1.000000 0.757548
vt 0.000000 0.757548
vt 1.000000 0.882737
vt 0.000000 0.867594
vt 0.332501 0.213019
vt 0.332501 0.373569
vt -0.399164 0.882737
vt -0.784529 0.882737
vt -0.784530 0.996169
vt -0.399164 0.996169
vt -0.527664 0.867594
vt -0.527664 0.757548
vt -1.106599 0.757548
vt -1.298395 0.867594
vt 1.399164 0.867594
vt 1.399164 0.757548
vt 1.784530 0.757548
vt 1.784530 0.867594
vt -0.399164 0.882737
vt -0.399164 0.996170
vt 1.527664 0.882737
vt 0.756933 0.882737
vt 0.756933 0.996169
vt 1.527664 0.996169
vt 0.243067 0.757548
vt 0.243067 0.867594
vt 0.628433 0.867594
vt 0.628433 0.757548
vt 0.243067 0.757548
vt 0.243067 0.867594
vt 0.756933 0.882737
vt 1.399164 0.867594
vt 1.399164 0.757548
vt 1.013798 0.757548
vt 1.013798 0.867594
vt 0.371567 0.882737
vt -0.013798 0.882737
vt -0.013798 0.996169
vt 0.371567 0.996169
vt 0.628433 0.867594
vt 0.628433 0.757548
vt 1.013798 0.757548
vt 1.013799 0.867594
vt -0.013798 0.996169
vt 1.784529 0.867594
vt 1.784530 0.757548
vt 2.298395 0.882737
vt 2.298395 0.996169
vt -1.106599 0.757548
vt 2.106599 0.882737
vt 2.106599 0.996169
vt -1.334763 -0.663961
vt -1.336627 -0.695000
vt -1.171439 -0.695000
vt -1.169348 -0.664766
vt -0.666941 -0.503651
vt -0.612680 -0.505562
vt -0.611445 -0.355212
vt -0.666389 -0.358642
vt -0.610410 -0.200983
vt -0.665563 -0.203243
vt -0.831966 0.415672
vt -0.830818 0.252963
vt -0.664639 0.252981
vt -0.665927 0.415976
vt -0.834001 1.296167
vt -0.833551 0.734118
vt -0.667696 0.734485
vt -0.668200 1.296189
vt -0.838517 -0.666376
vt -0.674593 -0.685451
vt -0.672024 -0.641719
vt -0.837527 -0.640601
vt -0.831623 -0.203253
vt -0.832352 -0.358648
vt -0.664943 -0.046020
vt -0.609772 -0.044773
vt -0.608993 0.120583
vt -0.664398 0.120339
vt -0.609311 0.252309
vt -0.667124 -0.503681
vt -0.832927 -0.503734
vt -0.610305 0.733254
vt -0.610011 1.250406
vt -0.610391 0.409911
vt -0.610652 0.566770
vt -0.667041 0.564902
vt -0.832959 0.565510
vt -0.667698 0.734483
vt -0.830701 0.120233
vt -0.633904 -0.504815
vt -0.631170 -0.675242
vt -0.831073 -0.045976
vt -0.664613 0.120295
vt -0.998004 0.415369
vt -0.996997 0.252944
vt -1.164042 0.415066
vt -1.163176 0.252926
vt -1.164718 -0.503871
vt -1.164278 -0.358661
vt -1.330241 -0.358667
vt -1.330613 -0.503939
vt -0.998823 -0.503803
vt -0.998315 -0.358655
vt -1.329286 0.119982
vt -1.329464 -0.045845
vt -1.163334 -0.045889
vt -1.163091 0.120066
vt -0.997203 -0.045933
vt -0.996896 0.120150
vt -1.329803 -0.203281
vt -1.163743 -0.203272
vt -0.997683 -0.203262
vt -1.329355 0.252908
vt -1.330080 0.414763
vt -1.164795 0.566726
vt -1.330713 0.567333
vt -0.998877 0.566118
vt -1.331113 0.733019
vt -1.165259 0.733385
vt -0.999405 0.733752
vt -1.334038 -0.637247
vt -1.168534 -0.638365
vt -1.003031 -0.639483
vt -1.003933 -0.665571
vt -1.331405 1.296103
vt -1.165604 1.296125
vt -0.999802 1.296146
vt -0.617803 -0.681418
vt -0.841063 -0.695000
vt -0.675876 -0.695000
vt -1.006251 -0.695000
vt 0.946268 0.565378
vt 1.499965 0.565378
vt 1.499965 0.445042
vt 0.946268 0.445042
vt 0.053732 0.688472
vt -0.499965 0.688472
vt -0.499965 0.567552
vt -0.000001 0.566465
vt 0.499965 0.565378
vt 0.499965 0.445042
vt -0.053732 0.445042
vt 0.553732 0.688472
vt 0.000035 0.688472
vt 0.000035 0.567552
vt 0.553732 0.567552
vt 0.053732 0.445042
vt -0.499965 0.445042
vt -0.499965 0.565378
vt 0.053732 0.565378
vt 0.446268 0.688472
vt 0.999965 0.688472
vt 0.999965 0.567552
vt 0.446268 0.567552
vt 0.053732 0.688472
vt -0.499965 0.688472
vt -0.499965 0.567552
vt 0.053732 0.567552
vt 0.053732 0.445042
vt -0.499965 0.445042
vt -0.499965 0.565378
vt 0.053732 0.565378
vt 0.946268 0.565378
vt 0.000014 0.566465
vt 0.053732 0.567552
vt -0.000000 0.566465
s 0
usemtl MI_WoodTrim
f 3/1/1 4/2/1 2/3/1 1/4/1
f 8/5/2 6/6/2 1/7/2 2/8/2
f 7/9/3 3/10/3 1/11/3 6/12/3
f 7/13/4 5/6/4 4/7/4 3/8/4
f 4/10/5 5/14/5 8/12/5 2/11/5
f 15/1/6 13/15/6 14/16/6 16/2/6
f 27/17/7 15/18/7 16/19/7 25/20/7
f 35/21/1 34/22/1 10/23/1 12/24/1
f 27/25/8 26/26/8 13/27/8 15/28/8
f 28/29/9 14/18/9 13/19/9 26/30/9
f 34/31/10 20/32/10 18/33/10 36/34/10
f 33/21/8 36/22/8 18/35/8 19/36/8
f 31/37/1 30/38/1 20/39/1 17/40/1
f 33/31/11 19/41/11 17/33/11 35/34/11
f 25/42/1 28/43/1 24/44/1 21/45/1
f 30/46/12 24/47/12 22/48/12 32/49/12
f 29/50/8 32/51/8 22/52/8 23/53/8
f 29/46/13 23/47/13 21/54/13 31/49/13
f 16/55/1 14/56/1 28/43/1 25/42/1
f 24/47/14 28/29/14 26/30/14 22/48/14
f 23/53/8 22/52/8 26/26/8 27/25/8
f 23/47/15 27/17/15 25/20/15 21/54/15
f 19/41/16 29/46/16 31/49/16 17/33/16
f 19/36/8 18/35/8 32/51/8 29/50/8
f 20/32/17 30/46/17 32/49/17 18/33/17
f 21/45/1 24/44/1 30/38/1 31/37/1
f 11/57/18 33/31/18 35/34/18 12/58/18
f 11/24/8 9/59/8 36/22/8 33/21/8
f 10/60/19 34/31/19 36/34/19 9/61/19
f 17/40/1 20/39/1 34/22/1 35/21/1
f 43/1/6 41/15/6 42/16/6 44/2/6
f 55/17/7 43/18/7 44/19/7 53/20/7
f 63/21/1 62/22/1 38/23/1 40/24/1
f 55/25/8 54/26/8 41/27/8 43/28/8
f 56/29/9 42/18/9 41/19/9 54/30/9
f 62/31/20 48/32/20 46/33/20 64/34/20
f 61/21/8 64/22/8 46/35/8 47/36/8
f 59/37/1 58/38/1 48/39/1 45/40/1
f 61/31/21 47/41/21 45/33/21 63/34/21
f 53/42/1 56/43/1 52/44/1 49/45/1
f 58/46/12 52/47/12 50/48/12 60/49/12
f 57/50/8 60/51/8 50/52/8 51/53/8
f 57/46/13 51/47/13 49/54/13 59/49/13
f 44/55/1 42/56/1 56/43/1 53/42/1
f 52/47/14 56/29/14 54/30/14 50/48/14
f 51/53/8 50/52/8 54/26/8 55/25/8
f 51/47/15 55/17/15 53/20/15 49/54/15
f 47/41/16 57/46/16 59/49/16 45/33/16
f 47/36/8 46/35/8 60/51/8 57/50/8
f 48/32/17 58/46/17 60/49/17 46/33/17
f 49/45/1 52/44/1 58/38/1 59/37/1
f 39/57/22 61/31/22 63/34/22 40/58/22
f 39/24/8 37/59/8 64/22/8 61/21/8
f 38/60/23 62/31/23 64/34/23 37/61/23
f 45/40/1 48/39/1 62/22/1 63/21/1
s 57
f 174/143/89 143/144/89 142/145/89 170/146/89
f 166/147/90 141/148/90 149/149/91 167/150/91
f 167/150/91 149/151/91 148/152/92 168/153/92
f 168/154/92 148/155/92 147/156/93 171/157/93
f 171/158/93 147/159/93 146/160/89 169/161/89
f 169/162/89 146/163/89 145/164/89 172/165/89
f 172/166/89 145/167/89 144/168/89 173/169/89
f 173/170/89 144/171/89 143/172/89 174/173/89
f 182/174/94 151/144/94 141/145/90 166/146/90
f 175/147/95 150/148/95 157/149/96 176/175/96
f 176/175/96 157/151/96 156/152/97 177/153/97
f 177/154/97 156/155/97 155/156/90 179/157/90
f 179/158/90 155/159/90 154/160/98 178/161/98
f 178/162/98 154/163/98 153/164/99 180/165/99
f 180/166/99 153/167/99 152/168/100 181/176/100
f 181/170/100 152/171/100 151/172/94 182/173/94
f 190/174/101 159/144/101 150/145/95 175/146/95
f 183/147/102 158/148/102 165/149/103 184/177/103
f 184/177/103 165/151/103 164/152/104 185/153/104
f 185/154/104 164/155/104 163/156/105 187/157/105
f 187/158/105 163/159/105 162/160/106 186/161/106
f 186/162/106 162/163/106 161/164/107 188/165/107
f 188/166/107 161/167/107 160/168/108 189/176/108
f 189/170/108 160/171/108 159/172/101 190/173/101
s 56
usemtl MI_FlatTiles
f 137/62/24 133/63/24 134/64/25 138/65/26
f 78/66/27 79/67/28 71/68/29 69/69/30
f 69/69/30 71/68/29 70/70/31 68/71/32
f 117/72/33 121/73/34 67/74/35 74/75/36
f 195/76/37 110/77/38 84/78/39 191/79/40
f 130/80/41 126/81/42 66/82/42 102/83/43
f 125/84/44 93/85/45 69/69/30 68/71/32
f 76/86/46 81/87/47 80/88/48 77/89/49
f 77/89/49 80/88/48 72/90/50 67/74/35
f 102/83/51 66/82/52 78/91/27 97/92/53
f 84/78/39 85/93/54 65/94/55 191/79/40
f 67/74/35 72/90/50 75/95/56 74/75/36
f 74/75/36 75/95/56 83/96/57 82/97/58
f 110/77/38 106/98/59 82/97/58 84/99/39
f 117/72/33 74/75/36 82/97/58 106/98/59
f 121/73/34 89/100/60 77/89/49 67/74/35
f 79/101/28 78/66/27 66/82/52 126/102/61
f 68/71/32 70/70/31 81/87/47 76/86/46
f 101/103/62 125/84/44 68/71/32 76/86/46
f 89/100/60 101/103/62 76/86/46 77/104/49
f 78/66/27 69/69/30 93/85/45 97/92/53
f 116/105/33 120/106/34 121/73/34 117/72/33
f 115/107/63 119/108/34 120/106/34 116/105/33
f 95/109/64 91/110/45 90/111/45 94/112/65
f 96/113/66 92/114/45 91/110/45 95/109/64
f 97/92/53 93/85/45 92/114/45 96/113/66
f 86/115/60 98/116/62 99/117/62 87/118/60
f 87/118/60 99/117/62 100/119/62 88/120/60
f 88/120/60 100/119/62 101/103/62 89/100/60
f 98/116/62 122/121/44 123/122/44 99/117/62
f 99/117/62 123/122/44 124/123/44 100/119/62
f 100/119/62 124/123/44 125/84/44 101/103/62
f 118/124/34 86/115/60 87/118/60 119/108/34
f 119/108/34 87/118/60 88/120/60 120/106/34
f 120/106/34 88/120/60 89/100/60 121/73/34
f 114/125/63 115/107/63 108/126/59 109/127/59
f 115/107/63 116/105/33 107/128/59 108/126/59
f 116/105/33 117/72/33 106/98/59 107/128/59
f 113/129/67 109/127/59 108/126/59 112/130/38
f 112/130/38 108/126/59 107/128/59 111/131/38
f 111/131/38 107/128/59 106/98/59 110/77/38
f 105/132/68 104/133/69 95/109/64 94/112/65
f 104/133/69 103/134/70 96/113/66 95/109/64
f 103/134/70 102/83/51 97/92/53 96/113/66
f 122/121/44 90/111/45 91/110/45 123/122/44
f 123/122/44 91/110/45 92/114/45 124/123/44
f 124/123/44 92/114/45 93/85/45 125/84/44
f 127/62/71 128/65/72 104/133/73 105/132/71
f 128/65/72 129/135/74 103/134/75 104/133/73
f 129/135/74 130/80/41 102/83/43 103/134/75
f 192/136/37 113/129/67 112/130/38 193/137/37
f 193/137/37 112/130/38 111/131/38 194/138/37
f 194/138/37 111/131/38 110/77/38 195/76/37
f 137/62/76 138/65/76 128/65/76 127/62/76
f 138/65/76 139/135/77 129/135/77 128/65/76
f 140/80/78 131/81/79 126/81/80 130/80/81
f 79/101/28 126/102/61 73/139/82
f 139/135/77 140/80/78 130/80/81 129/135/77
f 140/80/83 136/140/84 132/141/85 131/81/85
f 139/135/86 135/142/87 136/140/84 140/80/83
f 138/65/26 134/64/25 135/142/87 139/135/86
f 73/139/88 126/102/80 131/102/79 132/139/88
f 82/97/58 83/96/57 85/93/54 84/78/39
f 114/125/63 118/124/34 119/108/34 115/107/63
