# Blender 4.0.2
# www.blender.org
mtllib Roof_Front_Wood4.mtl
o Roof_Front_Wood4
v 0.115596 2.640000 -0.169115
v -0.115594 2.640000 -0.169116
v 0.115596 2.640000 0.094488
v -0.115594 2.640000 0.094488
v 0.115594 -0.000000 -0.169116
v -0.115596 -0.000000 -0.169116
v 0.115594 -0.000000 0.094488
v -0.115596 -0.000000 0.094488
v 2.062840 0.335474 -0.021146
v 2.062840 0.436418 -0.021146
v 2.062840 0.335474 0.053392
v 2.062840 0.436418 0.053392
v -2.106250 0.335474 -0.021147
v -2.106250 0.436419 -0.021147
v -2.106250 0.335474 0.053391
v -2.106250 0.436419 0.053391
v 0.000680 0.131802 0.117623
v 0.000680 -0.131802 -0.108670
v 0.000680 0.131802 -0.108670
v 0.000679 -0.131802 0.117623
v -2.183807 0.131802 0.117623
v -2.183807 -0.131802 -0.108670
v -2.183807 0.131802 -0.108670
v -2.183807 -0.131802 0.117623
v 2.215996 0.131802 -0.108670
v 2.215996 -0.131802 0.117623
v 2.215996 0.131802 0.117623
v 2.215996 -0.131802 -0.108670
v -2.180976 -0.131802 -0.334964
v -2.180976 0.131802 -0.108670
v -2.180976 -0.131802 -0.108670
v -2.180976 0.131802 -0.334964
v 2.213097 -0.131802 -0.108671
v 2.213097 0.131802 -0.334964
v 2.213097 -0.131802 -0.334964
v 2.213097 0.131802 -0.108671
v -0.413811 2.099087 0.794139
v -0.349018 2.195621 0.794139
v -0.286191 2.013428 0.794139
v -0.221398 2.109962 0.794139
v -0.897379 1.378642 0.794139
v -0.832586 1.475175 0.794139
v -0.769759 1.292982 0.794139
v -0.704966 1.389516 0.794139
v -1.393463 0.669942 0.794139
v -1.323565 0.762847 0.794139
v -1.270640 0.577536 0.794139
v -1.200743 0.670440 0.794139
v -0.349017 2.195621 -0.153780
v -1.393463 0.669942 -0.153780
v -0.769759 1.292982 -0.153780
v -0.221397 2.109962 -0.153781
v -0.832585 1.475175 -0.153780
v -0.413811 2.099087 -0.153780
v -1.270640 0.577536 -0.153780
v -0.704965 1.389516 -0.153780
v -1.323565 0.762847 -0.153780
v -0.897379 1.378642 -0.153780
v -0.286191 2.013428 -0.153780
v -1.200742 0.670440 -0.153780
v 0.413811 2.099087 0.794139
v 0.349017 2.195621 0.794139
v 0.286191 2.013428 0.794139
v 0.221397 2.109962 0.794139
v 0.897379 1.378642 0.794140
v 0.832585 1.475175 0.794140
v 0.769759 1.292982 0.794140
v 0.704965 1.389516 0.794140
v 1.393462 0.669942 0.794140
v 1.323565 0.762847 0.794140
v 1.270640 0.577536 0.794140
v 1.200742 0.670440 0.794140
v 0.349017 2.195621 -0.153780
v 1.393463 0.669942 -0.153779
v 0.769759 1.292982 -0.153779
v 0.221397 2.109962 -0.153780
v 0.832586 1.475175 -0.153779
v 0.413811 2.099087 -0.153780
v 1.270640 0.577536 -0.153779
v 0.704965 1.389516 -0.153779
v 1.323565 0.762847 -0.153779
v 0.897379 1.378642 -0.153779
v 0.286191 2.013428 -0.153780
v 1.200742 0.670440 -0.153779
v -0.880000 0.019167 -0.249701
v 0.000000 0.019167 -0.249700
v 0.880000 0.019167 -0.249700
v 0.000000 2.936703 -0.249700
v 0.880000 1.763386 -0.249700
v -2.113799 0.019167 -0.249701
v -0.880000 1.722097 -0.249701
v 2.188184 0.019167 -0.249700
v -1.050279 0.051603 0.000000
v -2.097154 0.051603 0.000000
v -1.835435 0.051603 0.000000
v -1.573717 0.051603 0.000000
v -1.311998 0.051603 0.000000
v 1.043471 0.051603 0.000000
v 0.258314 2.191472 0.000000
v -0.003404 2.191472 0.000000
v -0.265123 2.191472 0.000000
v -0.526842 2.215292 -0.000000
v -0.788561 0.051603 0.000000
v -0.526842 0.051603 -0.000000
v -0.265123 0.051603 0.000000
v -0.003404 0.051603 0.000000
v 0.258314 0.051603 0.000000
v 0.520033 0.051603 0.000000
v 0.781752 0.051603 0.000000
v 0.520033 2.243122 0.000000
v 1.305189 0.051603 0.000000
v 1.566908 0.051603 0.000000
v 1.828627 0.051603 0.000000
v 2.090345 0.051603 -0.000000
v 1.043471 1.549722 0.000000
v 2.090345 0.162920 -0.000000
v -0.265123 2.575908 0.000000
v 1.305189 1.203021 0.000000
v 0.258314 2.589823 0.000000
v 1.566908 0.856321 0.000000
v -1.573717 0.772832 -0.000000
v -1.050279 1.494063 0.000000
v 1.828627 0.509619 0.000000
v -1.835435 0.412218 0.000000
v -1.311998 1.133448 0.000000
v 2.174377 0.051603 -0.000000
v -0.788561 1.854678 0.000000
v 0.781752 1.896422 0.000000
v -0.003404 2.936523 0.000000
v -1.253093 1.216236 0.075290
v -1.117170 1.407265 -0.149917
v -1.117170 1.407265 0.075290
v -1.253093 1.216236 -0.149917
v -0.082982 0.046123 0.075289
v -0.082982 0.046123 -0.149917
v -0.082982 0.373076 0.075289
v -0.082982 0.373076 -0.149917
v 1.253093 1.216236 0.075290
v 1.117170 1.407265 -0.149917
v 1.117170 1.407265 0.075290
v 1.253093 1.216236 -0.149917
v 0.082982 0.046123 0.075289
v 0.082982 0.046123 -0.149917
v 0.082982 0.373076 0.075289
v 0.082982 0.373076 -0.149917
vn -0.0000 1.0000 -0.0000
vn -0.0000 -1.0000 -0.0000
vn -0.0000 -0.0000 1.0000
vn -1.0000 -0.0000 -0.0000
vn 1.0000 -0.0000 -0.0000
vn -0.0000 -0.0000 -1.0000
vn -0.8303 0.5573 -0.0000
vn -0.5573 -0.8303 -0.0000
vn 0.8303 -0.5573 -0.0000
vn -0.7991 0.6012 -0.0000
vn -0.6012 -0.7991 -0.0000
vn 0.7991 -0.6012 -0.0000
vn 0.5573 0.8303 -0.0000
vn 0.6012 0.7991 -0.0000
vn 0.8303 0.5573 -0.0000
vn 0.5573 -0.8303 -0.0000
vn -0.8303 -0.5573 -0.0000
vn 0.7991 0.6012 -0.0000
vn 0.6012 -0.7991 -0.0000
vn -0.7991 -0.6012 -0.0000
vn -0.5573 0.8303 -0.0000
vn -0.6012 0.7991 -0.0000
vn 0.7071 0.7071 -0.0000
vn -0.7071 -0.7071 -0.0000
vn -0.7071 0.7071 -0.0000
vn 0.7071 -0.7071 -0.0000
vt 0.332501 0.213019
vt 0.332501 0.373570
vt 0.490323 0.373570
vt 0.490323 0.213019
vt 1.000000 0.882737
vt 1.000000 0.996169
vt 0.000000 0.996169
vt 0.000000 0.882737
vt 1.000000 0.867594
vt 0.000000 0.867594
vt 0.000000 0.757548
vt 1.000000 0.757548
vt 1.300223 0.691876
vt 1.300223 0.750551
vt 0.000000 0.750551
vt 0.000000 0.691876
vt 1.690253 0.882737
vt 0.500000 0.882737
vt 0.500000 0.996169
vt 1.690254 0.996169
vt -0.690254 0.867594
vt -0.690254 0.757548
vt 0.500000 0.757548
vt 0.500000 0.867594
vt 1.673689 0.867594
vt 1.673690 0.757548
vt -0.673689 0.882737
vt -0.673690 0.996169
vt 1.673689 0.757548
vt 1.673690 0.867594
vt -0.690254 0.757548
vt -0.690254 0.867594
vt 1.688696 0.882737
vt -0.672168 0.882737
vt -0.672168 0.996169
vt 1.688696 0.996169
vt -0.688696 0.867594
vt -0.688696 0.757548
vt 1.672168 0.757548
vt 1.672168 0.867594
vt 0.619097 0.882737
vt 0.619097 0.996169
vt 0.380903 0.757548
vt 0.380903 0.867594
vt 0.619097 0.996169
vt 0.619098 0.882737
vt 0.619098 0.996169
vt 0.380902 0.757548
vt 0.380902 0.867594
vt 0.619097 0.996169
vt 0.619098 0.996169
vt 0.380902 0.757548
vt 0.380903 0.867594
vt 0.380903 0.757548
vt 0.380903 0.867594
vt 0.480777 1.089192
vt 0.139318 0.633919
vt 0.139318 -0.042877
vt 0.480777 -0.042878
vt -0.368287 -0.042877
vt 0.822237 0.617898
vt 0.822237 -0.042878
vt 1.300979 -0.042878
vt 0.999965 0.688472
vt 0.000035 0.688472
vt 0.000035 0.567552
vt 0.999965 0.567552
vt 0.499965 0.445042
vt -0.499965 0.445042
vt -0.499965 0.565378
vt 0.499965 0.565377
vt 0.499965 0.688472
vt -0.499965 0.688472
vt -0.499965 0.567552
vt 0.499965 0.567552
vt 0.499965 0.445042
vt -0.499965 0.445042
vt -0.499965 0.565378
vt 0.362092 0.565377
vt 0.123932 0.445042
vt -0.038076 0.565378
vt 0.499965 0.565378
vt 0.499965 0.445042
vt -0.162945 0.567552
vt -0.331455 0.688472
vt 0.813821 0.567552
vt 0.651813 0.688472
vt 0.999965 0.649647
vt 0.947948 0.688472
vt -0.475829 0.567552
vt -0.313821 0.688472
vt -0.447948 0.565378
vt -0.285940 0.445042
vt 0.825924 0.445042
vt 0.994434 0.565378
vt 1.499965 0.565378
vt 1.499965 0.445042
vt 0.799916 0.445042
vt 0.637908 0.565378
vt -0.499965 0.452991
vt -0.342586 0.565378
vt 0.038076 0.567552
vt 0.200084 0.688472
vt -0.499965 0.688472
vt -0.499965 0.567552
vt 0.214060 0.567552
vt 0.376068 0.688472
vt 0.179677 0.567552
vt 0.831455 0.567552
vt -0.151813 0.565378
vt -0.320323 0.445042
vt 0.005566 0.565378
vt -0.162945 0.445042
vt 0.342586 0.567552
vt 0.174076 0.688472
vt 0.662083 0.882737
vt 0.647323 0.996169
vt 0.020509 0.996169
vt 0.108081 0.882737
vt 0.337917 0.867594
vt 0.891919 0.867594
vt 0.891919 0.757548
vt 0.337917 0.757548
vt 0.647323 0.882737
vt 0.662083 0.996169
vt 0.108081 0.996169
vt 0.020509 0.882737
vt 0.979491 0.757548
vt 0.979491 0.867594
vt 0.352677 0.867594
vt 0.352677 0.757548
s 1
usemtl MI_WoodTrim
f 1/1/1 2/2/1 4/3/1 3/4/1
f 7/4/2 8/3/2 6/2/2 5/1/2
f 3/5/3 4/6/3 8/7/3 7/8/3
f 8/9/4 4/10/4 2/11/4 6/12/4
f 3/10/5 7/9/5 5/12/5 1/11/5
f 2/5/6 1/6/6 5/7/6 6/8/6
s 2
f 9/1/5 10/2/5 12/3/5 11/4/5
f 15/4/4 16/3/4 14/2/4 13/1/4
f 11/13/3 12/14/3 16/15/3 15/16/3
f 16/14/1 12/15/1 10/16/1 14/13/1
f 11/15/2 15/14/2 13/13/2 9/16/2
f 10/13/6 9/14/6 13/15/6 14/16/6
s 3
f 26/17/2 20/18/2 18/19/2 28/20/2
f 25/21/6 28/22/6 18/23/6 19/24/6
f 21/25/3 24/26/3 20/23/3 17/24/3
f 25/17/1 19/18/1 17/19/1 27/20/1
f 20/18/2 24/27/2 22/28/2 18/19/2
f 19/24/6 18/23/6 22/29/6 23/30/6
f 19/18/1 23/27/1 21/28/1 17/19/1
f 17/24/3 20/23/3 26/31/3 27/32/3
s 4
f 34/33/1 32/34/1 30/35/1 36/36/1
f 33/37/3 36/38/3 30/39/3 31/40/3
f 33/33/2 31/34/2 29/35/2 35/36/2
f 29/40/6 32/39/6 34/38/6 35/37/6
s 5
f 37/1/3 39/4/3 40/3/3 38/2/3
f 38/5/7 49/41/7 54/42/7 37/6/7
f 39/10/8 37/11/8 54/43/8 59/44/8
f 39/5/9 59/41/9 52/45/9 40/6/9
s 6
f 41/1/3 43/4/3 44/3/3 42/2/3
f 42/5/7 53/46/7 58/47/7 41/6/7
f 43/10/8 41/11/8 58/48/8 51/49/8
f 43/5/9 51/46/9 56/50/9 44/6/9
s 7
f 45/1/3 47/4/3 48/3/3 46/2/3
f 46/5/10 57/46/10 50/51/10 45/6/10
f 47/10/11 45/11/11 50/52/11 55/49/11
f 47/5/12 55/46/12 60/47/12 48/6/12
s 5
f 52/53/13 49/54/13 38/11/13 40/10/13
s 6
f 56/55/13 53/48/13 42/11/13 44/10/13
s 7
f 60/49/14 57/48/14 46/11/14 48/10/14
s 8
f 61/1/3 62/2/3 64/3/3 63/4/3
f 62/5/15 61/6/15 78/42/15 73/41/15
f 63/10/16 83/44/16 78/43/16 61/11/16
f 63/5/17 64/6/17 76/45/17 83/41/17
s 9
f 65/1/3 66/2/3 68/3/3 67/4/3
f 66/5/15 65/6/15 82/47/15 77/46/15
f 67/10/16 75/49/16 82/48/16 65/11/16
f 67/5/17 68/6/17 80/50/17 75/46/17
s 10
f 69/1/3 70/2/3 72/3/3 71/4/3
f 70/5/18 69/6/18 74/51/18 81/46/18
f 71/10/19 79/49/19 74/52/19 69/11/19
f 71/5/20 72/6/20 84/47/20 79/46/20
s 8
f 76/53/21 64/10/21 62/11/21 73/54/21
s 9
f 80/55/21 68/10/21 66/11/21 77/48/21
s 10
f 84/49/22 72/10/22 70/11/22 81/48/22
s 12
f 102/64/3 104/65/3 105/66/3 101/67/3
f 101/68/3 105/69/3 106/70/3 100/71/3
f 100/65/3 106/64/3 107/67/3 99/66/3
f 99/72/3 107/73/3 108/74/3 110/75/3
f 110/76/3 108/77/3 109/78/3 128/79/3
f 120/80/3 118/81/3 111/82/3 112/83/3
f 121/84/3 124/85/3 95/73/3 96/74/3
f 119/86/3 129/87/3 100/64/3 99/67/3
f 126/88/3 116/89/3 114/64/3
f 110/90/3 119/91/3 99/73/3
f 116/92/3 123/93/3 113/69/3 114/70/3
f 122/94/3 125/95/3 97/96/3 93/97/3
f 115/98/3 128/99/3 109/96/3 98/97/3
f 102/100/3 127/101/3 103/82/3 104/83/3
f 118/102/3 115/103/3 98/104/3 111/105/3
f 123/106/3 120/107/3 112/65/3 113/66/3
f 117/108/3 102/65/3 101/66/3
f 124/109/3 94/64/3 95/67/3
f 129/110/3 117/111/3 101/69/3 100/70/3
f 125/112/3 121/113/3 96/77/3 97/78/3
f 127/114/3 122/115/3 93/104/3 103/105/3
s 13
f 132/116/3 130/117/3 134/118/3 136/119/3
f 132/120/23 136/121/23 137/122/23 131/123/23
f 133/124/6 131/125/6 137/126/6 135/127/6
f 135/128/24 134/129/24 130/130/24 133/131/24
s 14
f 140/116/3 144/119/3 142/118/3 138/117/3
f 140/120/25 139/123/25 145/122/25 144/121/25
f 141/124/6 143/127/6 145/126/6 139/125/6
f 143/128/26 141/131/26 138/130/26 142/129/26
s 11
usemtl MI_Plaster
f 88/56/6 89/57/6 87/58/6 86/59/6
f 89/57/6 92/60/6 87/58/6
f 91/61/6 88/56/6 86/59/6 85/62/6
f 90/63/6 91/61/6 85/62/6
