# Blender 4.0.2
# www.blender.org
mtllib Roof_Modular_FlatTiles_6_R_Half.mtl
o Roof_Modular_FlatTiles_6_R_Half
v 3.752661 -0.743553 -1.068649
v 3.916243 -0.580182 -1.068649
v 3.566386 -0.557036 -1.068649
v 3.729968 -0.393666 -1.068649
v 3.729967 -0.393667 1.000000
v 3.752660 -0.743554 1.000000
v 3.566385 -0.557037 1.000000
v 3.916242 -0.580184 1.000000
v 1.107556 2.373073 1.000000
v -0.067534 4.011433 1.000000
v 0.077718 3.807959 1.000000
v 0.222970 3.604484 1.000000
v 0.368221 3.401010 1.000000
v 0.513473 3.197536 1.000000
v 0.658725 2.994061 1.000000
v 0.803977 2.790586 1.000000
v 0.949228 2.587112 1.000000
v 2.328891 0.765264 1.000000
v 1.271239 2.162966 1.000000
v 1.421846 1.963423 1.000000
v 1.572453 1.763881 1.000000
v 1.723060 1.564338 1.000000
v 1.873667 1.364794 1.000000
v 2.024275 1.165251 1.000000
v 2.174882 0.965708 1.000000
v 3.711207 -0.683962 1.000000
v 2.501499 0.580327 1.000000
v 2.670705 0.396290 1.000000
v 2.839872 0.212294 1.000000
v 3.014139 0.033043 1.000000
v 3.188406 -0.146209 1.000000
v 3.362673 -0.325460 1.000000
v 3.536941 -0.504711 1.000000
v 1.107556 2.373073 -1.101050
v -0.067534 4.011433 -1.101050
v 0.077718 3.807959 -1.101050
v 0.222970 3.604484 -1.101050
v 0.368221 3.401010 -1.101050
v 0.513473 3.197536 -1.101050
v 0.658725 2.994061 -1.101050
v 0.803977 2.790586 -1.101050
v 0.949228 2.587112 -1.101050
v 2.328891 0.765264 -1.101050
v 1.271239 2.162966 -1.101050
v 1.421846 1.963423 -1.101050
v 1.572453 1.763881 -1.101050
v 1.723060 1.564338 -1.101050
v 1.873667 1.364794 -1.101050
v 2.024275 1.165251 -1.101050
v 2.174882 0.965708 -1.101050
v 3.711207 -0.683962 -1.101050
v 2.501499 0.580327 -1.101050
v 2.670705 0.396290 -1.101050
v 2.839872 0.212294 -1.101050
v 3.014139 0.033043 -1.101050
v 3.188406 -0.146209 -1.101050
v 3.362673 -0.325460 -1.101050
v 3.536941 -0.504711 -1.101050
v 3.763867 -0.782127 -0.998044
v 3.763867 -0.782127 -1.243316
v 3.958951 -0.604843 -0.998044
v 3.958951 -0.604843 -1.243316
v 1.667042 1.982083 -1.243315
v 1.463578 1.814486 -0.998043
v 1.667042 1.982083 -0.998043
v 1.463577 1.814486 -1.243315
v 2.555685 0.863634 -1.243316
v 2.346000 0.704218 -0.998044
v 2.555685 0.863634 -0.998044
v 2.346000 0.704218 -1.243316
v 3.032589 0.333502 -1.243316
v 2.831144 0.163715 -0.998044
v 3.032589 0.333502 -0.998044
v 2.831144 0.163715 -1.243316
v 2.103457 1.404409 -0.998043
v 1.896881 1.240902 -1.243315
v 2.103457 1.404409 -1.243315
v 1.896881 1.240902 -0.998043
v 0.809750 3.167600 -0.998043
v 0.600207 3.007982 -1.243315
v 0.809750 3.167600 -1.243315
v 0.600207 3.007982 -0.998043
v 3.763867 -0.782127 -0.170834
v 3.763867 -0.782127 -0.402024
v 3.958951 -0.604843 -0.170834
v 3.958951 -0.604843 -0.402024
v 1.667042 1.982083 -0.402023
v 1.463578 1.814486 -0.170833
v 1.667042 1.982083 -0.170833
v 1.463577 1.814486 -0.402023
v 2.555685 0.863634 -0.402024
v 2.346000 0.704218 -0.170834
v 2.555685 0.863634 -0.170834
v 2.346000 0.704218 -0.402024
v 3.032589 0.333502 -0.402024
v 2.831144 0.163715 -0.170834
v 3.032589 0.333502 -0.170834
v 2.831144 0.163715 -0.402024
v 2.103457 1.404409 -0.170833
v 1.896881 1.240902 -0.402023
v 2.103457 1.404409 -0.402023
v 1.896881 1.240902 -0.170833
v 0.809750 3.167600 -0.170833
v 0.600207 3.007982 -0.402023
v 0.809750 3.167600 -0.402023
v 0.600207 3.007982 -0.170833
v 0.000000 3.895926 -0.998043
v 0.000000 3.882245 -1.243315
v 0.000000 4.342607 -0.998043
v 0.000000 4.342607 -1.243315
v 0.000000 3.895926 -0.170833
v 0.000000 3.882245 -0.402023
v 0.000000 4.342607 -0.170833
v 0.000000 4.342607 -0.402023
v 0.000000 4.576202 -1.103186
v 0.000000 4.296270 -1.161761
v 0.000000 4.576202 1.000000
v 0.000000 4.576202 0.535495
v 0.000000 4.576202 -0.052835
v 0.000000 4.576202 -0.640145
v 3.990022 -0.537675 -1.176563
v 1.502779 2.383597 -1.103198
v 2.659035 0.934538 -1.103186
v 3.074730 0.470464 -1.103186
v 2.563674 0.811491 -1.161768
v 2.979369 0.347417 -1.161768
v 1.407525 2.260470 -1.161768
v 3.931241 -0.635516 -1.202275
v 1.111336 2.928858 -1.103188
v 1.025125 2.790144 -1.161768
v 2.251895 1.423903 -1.103247
v 1.829224 1.950727 -1.103212
v 3.472167 0.050335 -1.103530
v 3.395006 -0.089247 -1.161768
v 1.734102 1.827500 -1.161768
v 2.157093 1.300432 -1.161768
v 0.762505 3.441240 -1.103186
v 0.655178 3.329688 -1.161768
v 0.368046 4.028237 -1.103186
v 0.265807 3.904024 -1.161768
v 1.829925 1.949828 1.000000
v 1.829750 1.950053 0.535476
v 1.829575 1.950278 -0.052855
v 1.829400 1.950502 -0.640167
v 3.074730 0.470464 1.000000
v 3.074730 0.470464 0.535495
v 3.074730 0.470464 -0.052834
v 3.074730 0.470464 -0.640144
v 3.472886 0.049575 1.000000
v 3.472706 0.049765 0.535299
v 3.472526 0.049955 -0.053062
v 3.472347 0.050145 -0.640423
v 2.251341 1.424625 1.000000
v 2.251479 1.424445 0.535452
v 2.251618 1.424264 -0.052881
v 2.251756 1.424084 -0.640197
v 4.034414 -0.462220 -0.675254
v 4.034257 -0.462913 -0.083057
v 4.034101 -0.463607 0.507741
v 4.033944 -0.464300 1.000000
v 0.761041 3.443403 -0.640142
v 0.759577 3.445567 -0.052833
v 0.758113 3.447730 0.535496
v 0.756649 3.449893 1.000000
v 0.368851 4.027039 -0.640144
v 0.369656 4.025841 -0.052834
v 0.370461 4.024642 0.535495
v 0.371265 4.023444 1.000000
v 1.114085 2.925032 1.000000
v 1.113397 2.925989 0.535493
v 1.112710 2.926945 -0.052836
v 1.112023 2.927902 -0.640146
v 1.502803 2.383579 1.000000
v 1.502797 2.383583 0.535486
v 1.502791 2.383588 -0.052844
v 1.502785 2.383593 -0.640155
v 2.659035 0.934538 1.000000
v 2.659035 0.934538 0.535495
v 2.659035 0.934538 -0.052835
v 2.659035 0.934538 -0.640145
v 3.947330 -0.605428 -1.192485
v 4.004777 -0.512420 1.000000
v 4.004992 -0.511875 0.498529
v 4.005208 -0.511330 -0.093665
v 4.005424 -0.510785 -0.688160
v 3.890033 -0.563610 -1.171580
v 3.873943 -0.593698 -1.181368
v 3.865951 -0.593143 1.000000
v 3.866318 -0.592980 0.474918
v 3.866686 -0.592818 -0.120935
v 3.867054 -0.592655 -0.721467
v 3.940958 -0.469396 1.000000
v 3.941174 -0.468851 0.498541
v 3.941389 -0.468306 -0.093653
v 3.941605 -0.467761 -0.688148
vn -0.0000 -0.0000 -1.0000
vn 0.7066 -0.7076 -0.0000
vn -0.7076 -0.7066 -0.0000
vn -0.7066 0.7076 -0.0000
vn 0.7076 0.7066 -0.0000
vn -0.8139 -0.5810 -0.0000
vn -0.7965 -0.6047 -0.0000
vn -0.8090 -0.5879 -0.0000
vn -0.7935 -0.6085 -0.0000
vn -0.7629 -0.6465 -0.0000
vn -0.7956 -0.6059 -0.0000
vn -0.7982 -0.6024 -0.0000
vn -0.7336 -0.6796 -0.0000
vn -0.7170 -0.6971 -0.0000
vn -0.7266 -0.6870 -0.0000
vn -0.7361 -0.6768 -0.0000
vn 0.6725 -0.7401 -0.0000
vn 0.7116 0.7025 -0.0000
vn -0.0000 -0.0000 1.0000
vn -0.7120 -0.7022 -0.0000
vn -0.8102 -0.5861 -0.0000
vn 0.8103 0.5860 -0.0000
vn -0.7669 -0.6418 -0.0000
vn 0.7671 0.6415 -0.0000
vn -0.7442 -0.6680 -0.0000
vn 0.7434 0.6688 -0.0000
vn 0.7979 0.6028 -0.0000
vn -0.7979 -0.6028 -0.0000
vn 0.8234 0.5674 -0.0000
vn -0.8264 -0.5629 0.0157
vn -0.8264 -0.5629 0.0167
vn 0.8558 -0.5174 0.0001
vn 0.8564 -0.5163 0.0001
vn 0.8563 -0.5165 0.0001
vn 0.5735 0.5755 -0.5830
vn 0.2021 0.2468 -0.9478
vn 0.2620 0.2424 -0.9341
vn 0.6049 0.5568 -0.5692
vn 0.2707 0.2347 -0.9336
vn 0.6226 0.5368 -0.5694
vn 0.8195 0.5730 -0.0000
vn 0.8054 0.5927 -0.0000
vn 0.6641 0.4884 -0.5662
vn 0.6756 0.4720 -0.5665
vn 0.8301 0.5576 -0.0000
vn 0.8301 0.5577 -0.0000
vn 0.6830 0.4593 -0.5679
vn 0.7893 0.5304 -0.3093
vn 0.8539 -0.5204 0.0011
vn 0.8511 -0.5250 0.0021
vn 0.8554 -0.5180 0.0007
vn 0.7569 0.6535 -0.0000
vn 0.7357 0.6773 -0.0000
vn 0.6380 0.5209 -0.5671
vn 0.2787 0.2282 -0.9329
vn 0.2851 0.2229 -0.9322
vn 0.6503 0.5053 -0.5672
vn 0.2921 0.2161 -0.9316
vn 0.6919 0.7206 -0.0453
vn 0.4786 0.5340 -0.6970
vn 0.7090 0.7049 -0.0211
vn 0.2950 0.1990 -0.9345
vn 0.2926 0.1972 -0.9357
vn 0.2967 0.2094 -0.9317
vn 0.2983 0.2027 -0.9327
vn 0.6826 0.4621 -0.5662
vn 0.8283 0.5603 -0.0000
vn 0.7893 0.6140 -0.0000
vn 0.1607 0.2361 -0.9583
vn 0.7744 0.6327 -0.0000
vn 0.8195 0.5731 -0.0000
vn 0.7011 0.7130 0.0003
vn 0.7012 0.7129 0.0003
vn 0.7008 0.7133 0.0003
vn 0.6751 0.7377 0.0007
vn 0.6748 0.7380 0.0006
vn 0.6743 0.7385 0.0005
vn 0.8558 -0.5174 -0.0003
vn 0.8564 -0.5163 -0.0003
vn 0.8563 -0.5165 -0.0003
vn 0.8576 -0.5143 -0.0003
vn 0.8575 -0.5145 -0.0003
vn -0.5590 -0.8292 -0.0011
vn -0.5590 -0.8292 -0.0010
vn -0.5502 -0.8280 0.1078
vn -0.3211 -0.7270 0.6070
vn -0.2031 -0.6378 0.7430
vn -0.5501 -0.8279 0.1089
vn 0.1592 0.2275 -0.9607
vn 0.8595 -0.5111 0.0044
vn 0.8602 -0.5099 0.0065
vn 0.8618 -0.5071 0.0113
vn 0.8574 -0.5146 0.0001
vn 0.8576 -0.5144 0.0001
vn 0.0855 -0.3493 0.9331
vt 0.490323 0.213019
vt 0.490323 0.373570
vt 0.332501 0.373570
vt 0.332501 0.213019
vt 1.000000 0.882737
vt 1.000000 0.996169
vt 0.000000 0.996169
vt 0.000000 0.882737
vt 0.000000 0.867594
vt 1.000000 0.867594
vt 1.000000 0.757548
vt 0.000000 0.757548
vt 1.000000 0.882737
vt 0.000000 0.867594
vt 0.500035 0.565378
vt 1.499965 0.565378
vt 1.499965 0.445042
vt 0.500035 0.445042
vt 0.499965 0.688472
vt -0.499965 0.688472
vt -0.499965 0.567552
vt 0.499965 0.567552
vt -0.499965 0.565378
vt 0.499965 0.565378
vt 0.499965 0.445042
vt -0.499965 0.445042
vt 0.999965 0.688472
vt 0.000035 0.688472
vt 0.000035 0.567552
vt 0.999965 0.567552
vt 0.499965 0.445042
vt -0.499965 0.445042
vt -0.499965 0.565378
vt 0.499965 0.565377
vt -0.499965 0.688472
vt -0.499965 0.567552
vt 0.499965 0.445042
vt 0.499965 0.565377
vt 0.332501 0.213019
vt 0.332501 0.373569
vt -0.399164 0.882737
vt -0.784529 0.882737
vt -0.784530 0.996169
vt -0.399164 0.996169
vt -0.527664 0.867594
vt -0.527664 0.757548
vt -1.106599 0.757548
vt -1.298395 0.867594
vt 1.399164 0.867594
vt 1.399164 0.757548
vt 1.784530 0.757548
vt 1.784530 0.867594
vt -0.399164 0.882737
vt -0.399164 0.996170
vt 1.527664 0.882737
vt 0.756933 0.882737
vt 0.756933 0.996169
vt 1.527664 0.996169
vt 0.243067 0.757548
vt 0.243067 0.867594
vt 0.628433 0.867594
vt 0.628433 0.757548
vt 0.243067 0.757548
vt 0.243067 0.867594
vt 0.756933 0.882737
vt 1.399164 0.867594
vt 1.399164 0.757548
vt 1.013798 0.757548
vt 1.013798 0.867594
vt 0.371567 0.882737
vt -0.013798 0.882737
vt -0.013798 0.996169
vt 0.371567 0.996169
vt 0.628433 0.867594
vt 0.628433 0.757548
vt 1.013798 0.757548
vt 1.013799 0.867594
vt -0.013798 0.996169
vt 1.784529 0.867594
vt 1.784530 0.757548
vt 2.298395 0.882737
vt 2.298395 0.996169
vt -1.106599 0.757548
vt 2.106599 0.882737
vt 2.106599 0.996169
vt -1.329598 -0.691705
vt -1.331463 -0.727372
vt -1.166275 -0.727372
vt -1.164183 -0.692630
vt -0.661776 -0.445519
vt -0.607516 -0.447714
vt -0.606281 -0.274946
vt -0.661225 -0.278888
vt -0.605245 -0.097721
vt -0.660399 -0.100318
vt -0.826801 0.610882
vt -0.825653 0.423911
vt -0.659474 0.423932
vt -0.660763 0.611230
vt -0.828837 1.159094
vt -0.828386 0.976809
vt -0.662531 0.977232
vt -0.663035 1.159119
vt -0.833353 -0.694480
vt -0.669429 -0.716399
vt -0.666860 -0.666147
vt -0.832363 -0.664862
vt -0.826459 -0.100329
vt -0.827188 -0.278895
vt -0.659779 0.080348
vt -0.604607 0.081781
vt -0.603829 0.271792
vt -0.659234 0.271513
vt -0.604147 0.423160
vt -0.661960 -0.445553
vt -0.827763 -0.445614
vt -0.605141 0.975817
vt -0.604847 1.106509
vt -0.605227 0.604262
vt -0.605488 0.784509
vt -0.661877 0.782363
vt -0.827795 0.783061
vt -0.662533 0.977229
vt -0.825536 0.271391
vt -0.628739 -0.446856
vt -0.626005 -0.704667
vt -0.825909 0.080398
vt -0.659449 0.271462
vt -0.992839 0.610534
vt -0.991832 0.423890
vt -1.158877 0.610186
vt -1.158011 0.423869
vt -1.159553 -0.445771
vt -1.159113 -0.278909
vt -1.325076 -0.278917
vt -1.325449 -0.445850
vt -0.993658 -0.445693
vt -0.993151 -0.278902
vt -1.324122 0.271103
vt -1.324299 0.080549
vt -1.158169 0.080499
vt -1.157927 0.271199
vt -0.992039 0.080449
vt -0.991732 0.271295
vt -1.324639 -0.100362
vt -1.158579 -0.100351
vt -0.992519 -0.100340
vt -1.324190 0.423848
vt -1.324916 0.609837
vt -1.159631 0.784458
vt -1.325549 0.785156
vt -0.993713 0.783760
vt -1.325948 0.975547
vt -1.160094 0.975968
vt -0.994240 0.976389
vt -1.328873 -0.661008
vt -1.163370 -0.662292
vt -0.997866 -0.663577
vt -0.998768 -0.693555
vt -1.326240 1.159021
vt -1.160439 1.159045
vt -0.994638 1.159069
vt -0.612638 -0.711765
vt -0.835899 -0.727372
vt -0.670711 -0.727372
vt -1.001087 -0.727372
s 0
usemtl MI_WoodTrim
f 3/1/1 4/2/1 2/3/1 1/4/1
f 8/5/2 6/6/2 1/7/2 2/8/2
f 7/9/3 3/10/3 1/11/3 6/12/3
f 7/13/4 5/6/4 4/7/4 3/8/4
f 4/10/5 5/14/5 8/12/5 2/11/5
s 6
f 36/15/6 11/16/6 10/17/6 35/18/6
f 34/19/7 9/20/7 17/21/8 42/22/8
f 42/23/8 17/24/8 16/25/6 41/26/6
f 41/27/6 16/28/6 15/29/6 40/30/6
f 40/31/6 15/32/6 14/33/6 39/34/6
f 39/28/6 14/27/6 13/30/6 38/29/6
f 38/19/6 13/35/6 12/36/6 37/22/6
f 37/37/6 12/26/6 11/23/6 36/38/6
f 44/15/9 19/16/9 9/17/7 34/18/7
f 43/19/10 18/20/10 25/21/11 50/22/11
f 50/23/11 25/24/11 24/25/12 49/26/12
f 49/27/12 24/28/12 23/29/12 48/30/12
f 48/31/12 23/32/12 22/33/12 47/34/12
f 47/28/12 22/27/12 21/30/12 46/29/12
f 46/19/12 21/35/12 20/36/12 45/22/12
f 45/37/12 20/26/12 19/23/9 44/38/9
f 52/15/13 27/16/13 18/17/10 43/18/10
f 51/19/14 26/20/14 33/21/14 58/22/14
f 58/23/14 33/24/14 32/25/14 57/26/14
f 57/27/14 32/28/14 31/29/14 56/30/14
f 56/31/14 31/32/14 30/33/14 55/34/14
f 55/28/14 30/27/14 29/30/15 54/29/15
f 54/19/15 29/35/15 28/36/16 53/22/16
f 53/37/16 28/26/16 27/23/13 52/38/13
s 0
f 61/1/17 59/39/17 60/40/17 62/2/17
f 73/41/18 61/42/18 62/43/18 71/44/18
f 81/45/1 80/46/1 108/47/1 110/48/1
f 73/49/19 72/50/19 59/51/19 61/52/19
f 74/53/20 60/42/20 59/43/20 72/54/20
f 80/55/21 66/56/21 64/57/21 82/58/21
f 79/45/19 82/46/19 64/59/19 65/60/19
f 77/61/1 76/62/1 66/63/1 63/64/1
f 79/55/22 65/65/22 63/57/22 81/58/22
f 71/66/1 74/67/1 70/68/1 67/69/1
f 76/70/23 70/71/23 68/72/23 78/73/23
f 75/74/19 78/75/19 68/76/19 69/77/19
f 75/70/24 69/71/24 67/78/24 77/73/24
f 62/79/1 60/80/1 74/67/1 71/66/1
f 70/71/25 74/53/25 72/54/25 68/72/25
f 69/77/19 68/76/19 72/50/19 73/49/19
f 69/71/26 73/41/26 71/44/26 67/78/26
f 65/65/27 75/70/27 77/73/27 63/57/27
f 65/60/19 64/59/19 78/75/19 75/74/19
f 66/56/28 76/70/28 78/73/28 64/57/28
f 67/69/1 70/68/1 76/62/1 77/61/1
f 109/81/29 79/55/29 81/58/29 110/82/29
f 109/48/19 107/83/19 82/46/19 79/45/19
f 108/84/30 80/55/30 82/58/30 107/85/30
f 63/64/1 66/63/1 80/46/1 81/45/1
f 85/1/17 83/39/17 84/40/17 86/2/17
f 97/41/18 85/42/18 86/43/18 95/44/18
f 105/45/1 104/46/1 112/47/1 114/48/1
f 97/49/19 96/50/19 83/51/19 85/52/19
f 98/53/20 84/42/20 83/43/20 96/54/20
f 104/55/21 90/56/21 88/57/21 106/58/21
f 103/45/19 106/46/19 88/59/19 89/60/19
f 101/61/1 100/62/1 90/63/1 87/64/1
f 103/55/22 89/65/22 87/57/22 105/58/22
f 95/66/1 98/67/1 94/68/1 91/69/1
f 100/70/23 94/71/23 92/72/23 102/73/23
f 99/74/19 102/75/19 92/76/19 93/77/19
f 99/70/24 93/71/24 91/78/24 101/73/24
f 86/79/1 84/80/1 98/67/1 95/66/1
f 94/71/25 98/53/25 96/54/25 92/72/25
f 93/77/19 92/76/19 96/50/19 97/49/19
f 93/71/26 97/41/26 95/44/26 91/78/26
f 89/65/27 99/70/27 101/73/27 87/57/27
f 89/60/19 88/59/19 102/75/19 99/74/19
f 90/56/28 100/70/28 102/73/28 88/57/28
f 91/69/1 94/68/1 100/62/1 101/61/1
f 113/81/29 103/55/29 105/58/29 114/82/29
f 113/48/19 111/83/19 106/46/19 103/45/19
f 112/84/31 104/55/31 106/58/31 111/85/31
f 87/64/1 90/63/1 104/46/1 105/45/1
s 57
usemtl MI_FlatTiles
f 192/86/32 188/87/32 189/88/33 193/89/34
f 133/90/35 134/91/36 126/92/37 124/93/38
f 124/93/38 126/92/37 125/94/39 123/95/40
f 172/96/41 176/97/42 122/98/43 129/99/44
f 120/100/45 165/101/46 139/102/47 115/103/48
f 185/104/49 181/105/50 121/106/50 157/107/51
f 180/108/52 148/109/53 124/93/38 123/95/40
f 131/110/54 136/111/55 135/112/56 132/113/57
f 132/113/57 135/112/56 127/114/58 122/98/43
f 157/107/59 121/106/60 133/115/35 152/116/61
f 139/102/47 140/117/62 116/118/63 115/103/48
f 122/98/43 127/114/58 130/119/64 129/99/44
f 129/99/44 130/119/64 138/120/65 137/121/66
f 165/101/46 161/122/67 137/121/66 139/123/47
f 172/96/41 129/99/44 137/121/66 161/122/67
f 176/97/42 144/124/68 132/113/57 122/98/43
f 134/125/36 133/90/35 121/106/60 181/126/69
f 123/95/40 125/94/39 136/111/55 131/110/54
f 156/127/70 180/108/52 123/95/40 131/110/54
f 144/124/68 156/127/70 131/110/54 132/128/57
f 133/90/35 124/93/38 148/109/53 152/116/61
f 171/129/41 175/130/42 176/97/42 172/96/41
f 170/131/71 174/132/42 175/130/42 171/129/41
f 150/133/72 146/134/53 145/135/53 149/136/73
f 151/137/74 147/138/53 146/134/53 150/133/72
f 152/116/61 148/109/53 147/138/53 151/137/74
f 141/139/68 153/140/70 154/141/70 142/142/68
f 142/142/68 154/141/70 155/143/70 143/144/68
f 143/144/68 155/143/70 156/127/70 144/124/68
f 153/140/70 177/145/52 178/146/52 154/141/70
f 154/141/70 178/146/52 179/147/52 155/143/70
f 155/143/70 179/147/52 180/108/52 156/127/70
f 173/148/42 141/139/68 142/142/68 174/132/42
f 174/132/42 142/142/68 143/144/68 175/130/42
f 175/130/42 143/144/68 144/124/68 176/97/42
f 169/149/71 170/131/71 163/150/67 164/151/67
f 170/131/71 171/129/41 162/152/67 163/150/67
f 171/129/41 172/96/41 161/122/67 162/152/67
f 168/153/45 164/151/67 163/150/67 167/154/45
f 167/154/45 163/150/67 162/152/67 166/155/46
f 166/155/46 162/152/67 161/122/67 165/101/46
f 160/156/75 159/157/76 150/133/72 149/136/73
f 159/157/76 158/158/77 151/137/74 150/133/72
f 158/158/77 157/107/59 152/116/61 151/137/74
f 177/145/52 145/135/53 146/134/53 178/146/52
f 178/146/52 146/134/53 147/138/53 179/147/52
f 179/147/52 147/138/53 148/109/53 180/108/52
f 182/86/78 183/89/79 159/157/80 160/156/78
f 183/89/79 184/159/81 158/158/82 159/157/80
f 184/159/81 185/104/49 157/107/51 158/158/82
f 117/160/45 168/153/45 167/154/45 118/161/45
f 118/161/45 167/154/45 166/155/46 119/162/45
f 119/162/45 166/155/46 165/101/46 120/100/45
f 192/86/83 193/89/83 183/89/83 182/86/83
f 193/89/83 194/159/84 184/159/84 183/89/83
f 195/104/85 186/105/86 181/105/87 185/104/88
f 134/125/36 181/126/69 128/163/89
f 194/159/84 195/104/85 185/104/88 184/159/84
f 195/104/90 191/164/91 187/165/92 186/105/92
f 194/159/93 190/166/94 191/164/91 195/104/90
f 193/89/34 189/88/33 190/166/94 194/159/93
f 128/163/95 181/126/87 186/126/86 187/163/95
f 137/121/66 138/120/65 140/117/62 139/102/47
f 169/149/71 173/148/42 174/132/42 170/131/71
