# Blender 4.0.2
# www.blender.org
mtllib Roof_Front_Wood2.mtl
o Roof_Front_Wood2
v -1.332243 -0.133087 -0.089906
v -1.331442 -0.131802 -0.108671
v -1.331441 -0.131802 -0.334965
v -1.167837 0.130517 -0.089906
v -1.167035 0.131802 -0.108671
v -1.167035 0.131802 -0.334964
v -1.167836 0.130517 0.136387
v -1.332244 -0.133087 0.136387
v 0.050472 1.635999 -0.055221
v -0.050472 1.635999 -0.055221
v 0.050472 1.635999 0.048783
v -0.050472 1.635999 0.048783
v 0.050472 -0.036001 -0.055221
v -0.050472 -0.036001 -0.055221
v 0.050472 -0.036001 0.048783
v -0.050472 -0.036001 0.048783
v 1.095942 0.130517 0.136389
v 1.274873 -0.133087 0.136389
v 1.274002 -0.131802 -0.108670
v 1.095942 0.130517 -0.089905
v 1.095070 0.131802 -0.108670
v 1.274874 -0.133087 -0.089904
v 1.274001 -0.131802 -0.334963
v 1.095070 0.131802 -0.334963
v 0.367189 0.905900 0.416299
v 0.300483 1.001123 0.416298
v 0.241303 0.817713 0.416298
v 0.174596 0.912935 0.416298
v 0.799209 0.297628 0.416299
v 0.732503 0.392850 0.416299
v 0.673323 0.209440 0.416299
v 0.606617 0.304663 0.416299
v 0.732504 0.392850 -0.052987
v 0.241303 0.817713 -0.052987
v 0.606617 0.304663 -0.052987
v 0.300483 1.001123 -0.052987
v 0.799210 0.297628 -0.052987
v 0.367189 0.905900 -0.052987
v 0.673324 0.209441 -0.052987
v 0.174597 0.912935 -0.052987
v -0.367190 0.905900 0.416298
v -0.300484 1.001123 0.416298
v -0.241304 0.817713 0.416298
v -0.174597 0.912935 0.416298
v -0.799210 0.297628 0.416297
v -0.732504 0.392850 0.416297
v -0.673324 0.209440 0.416297
v -0.606618 0.304663 0.416298
v -0.732504 0.392850 -0.052988
v -0.241303 0.817713 -0.052988
v -0.606617 0.304663 -0.052988
v -0.300483 1.001123 -0.052988
v -0.799210 0.297628 -0.052988
v -0.367189 0.905900 -0.052988
v -0.673324 0.209441 -0.052988
v -0.174597 0.912935 -0.052988
v -0.001250 0.019167 -0.200000
v -0.881250 0.019167 -0.200001
v 0.878750 0.019167 -0.199999
v -0.881250 0.348547 -0.200001
v 1.107882 0.019167 -0.199999
v -1.105382 0.019167 -0.200001
v -0.001250 1.641775 -0.200000
v 0.878750 0.354377 -0.199999
v -1.093674 0.051603 0.000000
v 1.086868 0.051603 0.000000
v -0.821106 0.051603 0.000000
v -0.548539 0.051603 0.000000
v -0.275971 0.051603 0.000000
v -0.003403 0.051603 0.000000
v 0.269165 0.051603 0.000000
v 0.541732 0.051603 0.000000
v 0.814300 0.051603 0.000000
v -0.003403 1.631557 0.000000
v -0.275971 1.236569 0.000000
v 0.814300 0.446591 0.000000
v -0.548539 0.841580 0.000000
v 0.269165 1.236569 0.000000
v 0.541732 0.841581 0.000000
v -0.821106 0.446591 0.000000
vn -0.0000 -0.0000 1.0000
vn -0.0000 -0.0000 -1.0000
vn -0.0000 -1.0000 -0.0000
vn -1.0000 -0.0000 -0.0000
vn 1.0000 -0.0000 -0.0000
vn -0.0000 1.0000 -0.0000
vn 0.8190 0.5738 -0.0000
vn 0.5738 -0.8190 -0.0000
vn -0.8190 -0.5738 -0.0000
vn -0.5738 0.8190 -0.0000
vn -0.8190 0.5738 -0.0000
vn -0.5738 -0.8190 -0.0000
vn 0.8190 -0.5738 -0.0000
vn 0.5738 0.8190 -0.0000
vt 1.127825 0.867594
vt 1.216158 0.757548
vt -0.184604 0.757548
vt -0.088467 0.867594
vt 1.215727 0.867594
vt 1.127394 0.757548
vt -0.087998 0.757548
vt -0.184135 0.867594
vt 0.490323 0.213019
vt 0.490323 0.373570
vt 0.332501 0.373570
vt 0.332501 0.213019
vt 1.300223 0.691876
vt 1.300223 0.750551
vt 0.000000 0.750551
vt 0.000000 0.691876
vt -0.088467 0.867594
vt 1.216158 0.757548
vt 1.127825 0.867594
vt -0.184135 0.867594
vt -0.087998 0.757548
vt 1.127394 0.757548
vt 1.215727 0.867594
vt 1.087998 0.996169
vt 1.087998 0.882737
vt -0.127394 0.882737
vt -0.127394 0.996169
vt 1.088467 0.996169
vt 1.088467 0.882737
vt -0.127825 0.882737
vt -0.127825 0.996169
vt 1.184604 0.996169
vt 1.184604 0.882737
vt -0.216158 0.882737
vt -0.216158 0.996169
vt 1.184135 0.996169
vt 1.184135 0.882737
vt -0.215727 0.882737
vt -0.215727 0.996169
vt 1.000000 0.882737
vt 1.000000 0.996169
vt 0.619097 0.996169
vt 0.619097 0.882737
vt 0.000000 0.867594
vt 0.380903 0.867594
vt 0.380903 0.757548
vt 0.000000 0.757548
vt 0.619097 0.996169
vt 0.619097 0.996169
vt 0.619097 0.882737
vt 0.380903 0.867594
vt 0.380903 0.757548
vt 0.380903 0.757548
vt 0.380903 0.867594
vt 0.133065 0.090406
vt 0.043467 -0.040673
vt 0.133065 -0.040673
vt 0.821285 0.088126
vt 0.477175 0.593822
vt 0.477175 -0.040673
vt 0.821285 -0.040672
vt 0.908928 -0.040672
vt 0.553753 0.567552
vt 0.369180 0.688472
vt 0.000035 0.688472
vt 0.000035 0.567552
vt 1.499965 0.445042
vt 1.315392 0.565378
vt 1.499965 0.565378
vt -0.315392 0.565378
vt -0.130820 0.445042
vt -0.499965 0.445042
vt -0.499965 0.565378
vt 0.238325 0.565377
vt 0.053753 0.445042
vt -0.499965 0.445042
vt -0.499965 0.565378
vt -0.315392 0.567552
vt -0.499965 0.688472
vt -0.499965 0.567552
vt 0.446248 0.567552
vt 0.261675 0.688472
vt 0.999965 0.688472
vt 0.999965 0.567552
vt 0.130820 0.445042
vt 0.315392 0.565378
vt 0.499965 0.565378
vt 0.499965 0.445042
vt -0.130820 0.567552
vt 0.053752 0.688472
vt -0.499965 0.688472
vt -0.499965 0.567552
s 0
usemtl MI_WoodTrim
f 7/1/1 8/2/1 18/3/1 17/4/1
f 3/5/2 6/6/2 24/7/2 23/8/2
f 15/9/3 16/10/3 14/11/3 13/12/3
f 11/13/1 12/14/1 16/15/1 15/16/1
f 16/14/4 12/15/4 10/16/4 14/13/4
f 11/15/5 15/14/5 13/13/5 9/16/5
f 10/13/2 9/14/2 13/15/2 14/16/2
f 20/17/2 22/3/2 1/18/2 4/19/2
f 19/20/1 21/21/1 5/22/1 2/23/1
f 21/24/6 24/25/6 6/26/6 5/27/6
f 17/28/6 20/29/6 4/30/6 7/31/6
f 22/32/3 18/33/3 8/34/3 1/35/3
f 23/36/3 19/37/3 2/38/3 3/39/3
f 25/12/1 26/11/1 28/10/1 27/9/1
f 26/40/7 25/41/7 38/42/7 36/43/7
f 27/44/8 34/45/8 38/46/8 25/47/8
f 27/40/9 28/41/9 40/48/9 34/43/9
f 29/12/1 30/11/1 32/10/1 31/9/1
f 30/40/7 29/41/7 37/49/7 33/50/7
f 31/44/8 39/51/8 37/52/8 29/47/8
f 31/40/9 32/41/9 35/49/9 39/50/9
f 36/53/10 40/45/10 28/44/10 26/47/10
f 33/46/10 35/54/10 32/44/10 30/47/10
f 41/12/1 43/9/1 44/10/1 42/11/1
f 42/40/11 52/43/11 54/42/11 41/41/11
f 43/44/12 41/47/12 54/46/12 50/45/12
f 43/40/13 50/43/13 56/48/13 44/41/13
f 45/12/1 47/9/1 48/10/1 46/11/1
f 46/40/11 49/50/11 53/49/11 45/41/11
f 47/44/12 45/47/12 53/52/12 55/51/12
f 47/40/13 55/50/13 51/49/13 48/41/13
f 52/53/14 42/47/14 44/44/14 56/45/14
f 49/46/14 46/47/14 48/44/14 51/54/14
f 75/63/1 77/64/1 68/65/1 69/66/1
f 66/67/1 76/68/1 73/69/1
f 76/70/1 79/71/1 72/72/1 73/73/1
f 74/74/1 75/75/1 69/76/1 70/77/1
f 80/78/1 65/79/1 67/80/1
f 78/81/1 74/82/1 70/83/1 71/84/1
f 77/85/1 80/86/1 67/87/1 68/88/1
f 79/89/1 78/90/1 71/91/1 72/92/1
usemtl MI_Plaster
f 64/55/2 61/56/2 59/57/2
f 60/58/2 63/59/2 57/60/2 58/61/2
f 62/62/2 60/58/2 58/61/2
f 63/59/2 64/55/2 59/57/2 57/60/2
