# Blender 4.0.2
# www.blender.org
mtllib Wall_WoodWear_Window_Thin_Round.mtl
o Wall_WoodWear_Window_Thin_Round
v -1.000000 3.116765 -0.314034
v -1.000000 2.883237 -0.314034
v -1.000000 3.116765 -0.195094
v -1.000000 2.883237 -0.195094
v 1.000000 3.116763 -0.314035
v 1.000000 2.883235 -0.314035
v 1.000000 3.116763 -0.195095
v 1.000000 2.883235 -0.195095
v -0.851329 2.883237 -0.195094
v -0.636919 2.883237 -0.195094
v -0.744124 2.891946 -0.195094
v 0.504469 2.883236 -0.195095
v 0.880926 2.883235 -0.195095
v 0.744124 2.877310 -0.195095
v -0.851329 3.116764 -0.314034
v -0.636919 3.116764 -0.314034
v -0.744124 3.108055 -0.314034
v 0.504469 3.116763 -0.314035
v 0.880926 3.116763 -0.314035
v 0.744124 3.122689 -0.314035
v 0.880926 3.116763 -0.195095
v 0.504469 3.116763 -0.195095
v 0.744124 3.122689 -0.195095
v -0.636919 3.116764 -0.195094
v -0.851329 3.116764 -0.195094
v -0.744124 3.108055 -0.195094
v 0.880926 2.883235 -0.314035
v 0.504469 2.883236 -0.314035
v 0.744124 2.877310 -0.314035
v -0.636919 2.883237 -0.314034
v -0.851329 2.883237 -0.314034
v -0.744124 2.891946 -0.314034
v -1.000000 1.787157 -0.000000
v -1.000000 -0.000000 0.000000
v 1.000000 1.787158 -0.000000
v 1.000000 0.000000 -0.000000
v -0.750000 -0.000000 -0.000000
v -0.500000 -0.000000 -0.000000
v -0.250000 -0.000000 0.000000
v 0.000000 0.000000 -0.000000
v 0.250000 0.000000 -0.000000
v 0.500000 0.000000 0.000000
v 0.750000 0.000000 0.000000
v -0.750000 1.787157 -0.000000
v -0.500000 1.787157 -0.000000
v 0.500000 1.787157 -0.000000
v 0.750000 1.787158 -0.000000
v -1.000000 3.000000 -0.000000
v 1.000000 3.000000 -0.000000
v -0.750000 3.000000 -0.000000
v -0.500000 3.000000 -0.000000
v -0.250000 3.000000 -0.000000
v 0.000000 3.000000 -0.000000
v 0.250000 3.000000 -0.000000
v 0.500000 3.000000 -0.000000
v 0.750000 3.000000 -0.000000
v -0.765931 -0.000000 0.035134
v -0.984068 -0.000000 0.035134
v -0.984068 3.000000 0.035133
v -0.765932 3.000000 0.035133
v -0.984068 1.787157 0.035133
v -0.765932 1.787157 0.035133
v -0.515931 -0.000000 0.035134
v -0.734068 -0.000000 0.035134
v -0.734068 1.787157 0.035133
v -0.515931 1.787157 0.035133
v -0.734068 3.000000 0.035133
v -0.515932 3.000000 0.035133
v -0.265931 -0.000000 0.035134
v -0.484068 -0.000000 0.035134
v -0.484068 1.787157 0.035133
v -0.484068 3.000000 0.035133
v -0.265932 3.000000 0.035133
v -0.015931 0.000000 0.035134
v -0.234068 -0.000000 0.035134
v -0.234068 3.000000 0.035133
v -0.015932 3.000000 0.035133
v 0.234069 0.000000 0.035134
v 0.015932 0.000000 0.035134
v 0.015932 3.000000 0.035133
v 0.234068 3.000000 0.035133
v 0.481383 0.000000 0.035134
v 0.263246 0.000000 0.035134
v 0.481383 1.787157 0.035133
v 0.263246 3.000000 0.035133
v 0.481383 3.000000 0.035133
v 0.734069 0.000000 0.035134
v 0.515932 0.000000 0.035134
v 0.515932 1.787157 0.035133
v 0.734069 1.787158 0.035133
v 0.515932 3.000000 0.035133
v 0.734068 3.000000 0.035133
v 0.984069 0.000000 0.035134
v 0.765932 0.000000 0.035134
v 0.765932 3.000000 0.035133
v 0.984068 3.000000 0.035133
v 0.765932 1.787158 0.035133
v 0.984068 1.787158 0.035133
v -1.000000 0.831079 -0.000000
v 1.000000 0.831080 -0.000000
v 0.000000 0.831079 -0.000000
v -0.750000 0.831079 -0.000000
v -0.500000 0.831079 -0.000000
v -0.250000 0.831079 -0.000000
v 0.250000 0.831079 -0.000000
v 0.500000 0.831079 -0.000000
v 0.750000 0.831080 -0.000000
v -0.765932 0.831079 0.035134
v -0.984068 0.831079 0.035134
v -0.515931 0.831079 0.035134
v -0.734068 0.831079 0.035134
v -0.265931 0.831079 0.035134
v -0.484068 0.831079 0.035134
v -0.015931 0.831079 0.035134
v -0.234068 0.831079 0.035134
v 0.234069 0.831079 0.035134
v 0.015932 0.831079 0.035134
v 0.481383 0.831079 0.035134
v 0.263246 0.831079 0.035134
v 0.734069 0.831080 0.035134
v 0.515932 0.831079 0.035134
v 0.984069 0.831080 0.035134
v 0.765932 0.831080 0.035134
v 1.000000 0.883107 0.092446
v 1.000000 0.649580 0.092446
v 1.000000 0.883107 -0.012516
v 1.000000 0.649580 -0.012516
v -1.000000 0.883105 0.092447
v -1.000000 0.649578 0.092447
v -1.000000 0.883105 -0.012515
v -1.000000 0.649578 -0.012515
v 1.000000 3.116765 0.092446
v 1.000000 2.883237 0.092446
v 1.000000 3.116765 -0.001371
v 1.000000 2.883237 -0.001371
v -1.000000 3.116763 0.092446
v -1.000000 2.883235 0.092446
v -1.000000 3.116763 -0.001371
v -1.000000 2.883235 -0.001371
v 1.000000 1.051354 -0.000000
v -0.000000 1.051354 -0.000000
v -0.750000 1.051354 -0.000000
v -0.500000 1.051354 -0.000000
v -0.250000 1.051354 -0.000000
v 0.250000 1.051354 -0.000000
v 0.500000 1.051354 -0.000000
v 0.750000 1.051354 -0.000000
v -0.765932 1.051354 0.035133
v -0.515931 1.051354 0.035133
v -0.265931 1.051354 0.035133
v -0.015932 1.051354 0.035133
v 0.234068 1.051354 0.035133
v 0.481383 1.051354 0.035133
v 0.734069 1.051354 0.035133
v 0.984068 1.051354 0.035133
v -1.000000 1.051354 -0.000000
v -0.984068 1.051354 0.035133
v -0.734068 1.051354 0.035133
v -0.484068 1.051354 0.035133
v -0.234068 1.051354 0.035133
v 0.015932 1.051354 0.035133
v 0.263246 1.051354 0.035133
v 0.515932 1.051354 0.035133
v 0.765932 1.051354 0.035133
v -0.750000 2.262582 -0.000000
v -0.500000 2.262582 -0.000000
v -0.250000 2.408256 -0.000000
v 0.250000 2.408256 -0.000000
v 0.500000 2.262582 -0.000000
v 0.750000 2.262582 -0.000000
v -1.000000 2.262582 -0.000000
v 1.000000 2.262582 -0.000000
v -0.000000 2.518010 -0.000000
v -0.765932 2.262582 0.035133
v -0.984068 2.262582 0.035133
v -0.515931 2.262582 0.035133
v -0.734068 2.262582 0.035133
v -0.265931 2.390467 0.035133
v -0.484068 2.262582 0.035133
v -0.015932 2.518010 0.035133
v -0.234068 2.426096 0.035133
v 0.234068 2.426096 0.035133
v 0.015932 2.518010 0.035133
v 0.481383 2.262582 0.035133
v 0.263246 2.390467 0.035133
v 0.734069 2.262582 0.035133
v 0.515932 2.262582 0.035133
v 0.984068 2.262582 0.035133
v 0.765932 2.262582 0.035133
v -0.125000 3.000000 0.035133
v -0.125000 -0.000000 0.035134
v -0.125000 0.831079 0.035134
v -0.125000 1.051354 0.035133
v -0.125000 2.496677 0.035133
v 0.125000 3.000000 0.035133
v 0.125000 0.000000 0.035134
v 0.125000 0.831079 0.035134
v 0.125000 1.051354 0.035133
v 0.125000 2.496677 0.035133
v -0.320466 1.787157 0.035133
v -0.320466 -0.000000 0.035134
v -0.320466 3.000000 0.035133
v -0.320466 0.831079 0.035134
v -0.320466 1.051354 0.035133
v -0.320466 2.326524 0.035133
v 0.317780 3.000000 0.035133
v 0.317780 0.831079 0.035134
v 0.317780 1.787157 0.035133
v 0.317780 0.000000 0.035134
v 0.317780 1.051354 0.035133
v 0.317780 2.326524 0.035133
v -1.000000 0.000000 -0.200000
v -1.000000 3.000000 -0.200000
v 1.000000 0.000000 -0.200000
v 1.000000 3.000000 -0.200000
v -1.000000 1.049015 -0.200000
v 1.000000 1.049015 -0.200000
v 1.000000 2.315328 -0.200000
v -1.000000 2.315328 -0.200000
v 0.000000 3.000000 -0.200000
v 0.000000 0.000000 -0.200000
v 0.000000 1.049015 -0.200000
v 0.000000 2.519831 -0.200000
v -0.319930 3.000000 -0.200000
v -0.319930 1.049015 -0.200000
v -0.319930 2.317390 -0.200000
v -0.319930 0.000000 -0.200000
v 0.318182 0.000000 -0.200000
v 0.318182 3.000000 -0.200000
v 0.318182 1.049015 -0.200000
v 0.318182 2.317390 -0.200000
v -0.239948 0.000000 -0.200000
v -0.159965 0.000000 -0.200000
v -0.079983 0.000000 -0.200000
v -0.079983 3.000000 -0.200000
v -0.159965 3.000000 -0.200000
v -0.239948 3.000000 -0.200000
v -0.079983 1.049015 -0.200000
v -0.159965 1.049015 -0.200000
v -0.239948 1.049015 -0.200000
v -0.079983 2.512395 -0.200000
v -0.159965 2.482027 -0.200000
v -0.239948 2.426112 -0.200000
v 0.238636 3.000000 -0.200000
v 0.159091 3.000000 -0.200000
v 0.079545 3.000000 -0.200000
v 0.238636 1.049015 -0.200000
v 0.159091 1.049015 -0.200000
v 0.079545 1.049015 -0.200000
v 0.238636 2.426112 -0.200000
v 0.159091 2.482027 -0.200000
v 0.079545 2.512395 -0.200000
v 0.079545 0.000000 -0.200000
v 0.159091 0.000000 -0.200000
v 0.238636 0.000000 -0.200000
vn 0.0216 0.9998 -0.0000
vn -0.0000 1.0000 -0.0000
vn -0.0000 -0.0000 -1.0000
vn -0.0000 -1.0000 -0.0000
vn 0.0216 -0.9998 -0.0000
vn 0.0405 0.9992 -0.0000
vn 0.0405 -0.9992 -0.0000
vn -0.0124 0.9999 -0.0000
vn -0.0405 0.9992 -0.0000
vn 0.0093 1.0000 -0.0000
vn -0.0405 -0.9992 -0.0000
vn 0.0093 -1.0000 -0.0000
vn -0.0124 -0.9999 -0.0000
vn -0.9107 -0.0000 0.4130
vn -0.9357 -0.0000 0.3528
vn 0.9107 -0.0000 0.4130
vn 0.8836 -0.0000 0.4682
vn -0.0000 -0.0000 1.0000
vt 0.940463 0.747971
vt 1.000000 0.747971
vt 1.000000 0.692612
vt 0.940463 0.692612
vt 0.247765 0.996169
vt 0.247765 0.882737
vt 0.818460 0.882737
vt 0.818460 0.996169
vt 0.059537 0.882737
vt 0.059537 0.996169
vt 0.000000 0.996169
vt 0.000000 0.882737
vt 0.940463 0.747971
vt 1.000000 0.882737
vt 1.000000 0.996169
vt 0.925665 0.996169
vt 0.925665 0.882737
vt 0.000000 0.747971
vt 0.074335 0.747971
vt 0.074335 0.692612
vt 0.000000 0.692612
vt 0.074335 0.747971
vt 0.074335 0.692612
vt 0.752235 0.747971
vt 0.752235 0.692612
vt 0.181540 0.692612
vt 0.181540 0.747971
vt 0.127938 0.882737
vt 0.127938 0.996169
vt 0.872062 0.996169
vt 0.872062 0.882737
vt 0.872062 0.692612
vt 0.872062 0.747971
vt 0.127938 0.747971
vt 0.127938 0.692612
vt 0.127938 0.747971
vt 0.181540 0.747971
vt 0.752235 0.747971
vt 0.752235 0.692612
vt 1.084454 0.872802
vt 1.499965 0.872802
vt 1.499965 0.865133
vt 1.084454 0.865133
vt -0.084454 0.995896
vt -0.499965 0.995896
vt -0.499965 0.988190
vt -0.084454 0.988190
vt 0.000000 0.873889
vt 0.499965 0.872802
vt 0.499965 0.865133
vt 0.084454 0.865133
vt -0.081754 0.874976
vt 0.333756 0.874976
vt 0.333756 0.882682
vt -0.081754 0.882682
vt -0.084454 0.752466
vt -0.499965 0.752466
vt -0.499965 0.760135
vt -0.084454 0.760135
vt 0.584454 0.995896
vt 0.999965 0.995896
vt 0.999965 0.988190
vt 0.584454 0.988190
vt 1.045034 0.874976
vt 1.460544 0.874976
vt 1.460544 0.881383
vt 1.045034 0.881383
vt 1.220623 0.752466
vt 1.636134 0.752466
vt 1.636134 0.760135
vt 1.220623 0.760135
vt 1.262269 0.872802
vt 1.499965 0.865133
vt 1.262269 0.865133
vt -0.262269 0.995896
vt -0.499965 0.988190
vt -0.262269 0.988157
vt 0.262269 0.873319
vt 0.262269 0.865617
vt 0.096061 0.874976
vt 0.096061 0.882682
vt 1.398438 0.752466
vt 1.398439 0.760135
vt 0.084454 0.760135
vt 0.499965 0.760135
vt 0.499965 0.752466
vt 0.084454 0.752466
vt -0.262269 0.882198
vt -0.499965 0.882682
vt -0.499965 0.874976
vt -0.262269 0.874459
vt -0.081754 0.988190
vt 0.333756 0.988190
vt 0.333756 0.995896
vt -0.081754 0.995896
vt 0.262269 0.760168
vt 0.262269 0.752466
vt -0.084454 0.865133
vt -0.499965 0.865133
vt -0.499965 0.872802
vt -0.084454 0.872802
vt 0.584454 0.882682
vt 0.999965 0.882682
vt 0.999965 0.874976
vt 0.584454 0.874976
vt 1.045034 0.986891
vt 1.460544 0.986891
vt 1.460544 0.995896
vt 1.045034 0.995896
vt 1.220623 0.865133
vt 1.636134 0.865133
vt 1.636134 0.872802
vt 1.220623 0.872802
vt 1.222849 0.986891
vt 1.222849 0.995896
vt 1.084454 0.760135
vt 1.499965 0.760135
vt 1.499965 0.752466
vt 1.084454 0.752466
vt 1.398438 0.865133
vt 1.398438 0.872802
vt 1.262269 0.760135
vt 1.499965 0.760135
vt 1.262269 0.752466
vt -0.000000 0.881664
vt -0.000000 0.988121
vt 0.116760 0.882682
vt 0.499965 0.882682
vt 0.499965 0.988190
vt 0.116760 0.988190
vt -0.000000 0.760204
vt -0.000000 0.866151
vt -0.116760 0.760135
vt -0.499965 0.760135
vt -0.499965 0.865133
vt -0.116760 0.865133
vt 1.045034 0.907760
vt 1.460544 0.907760
vt 0.064092 0.961813
vt -0.166208 0.961813
vt -0.166208 0.882682
vt -0.150651 0.812634
vt 0.000000 0.812634
vt 0.000000 0.760135
vt -0.180518 0.760135
vt 0.650651 0.935436
vt 0.500000 0.935436
vt 0.500000 0.988190
vt 0.640946 0.988190
vt 1.190880 0.907760
vt 0.960579 0.907760
vt 0.960579 0.881383
vt 1.158911 0.881383
vt 1.136169 0.865133
vt 1.136169 0.760135
vt 1.019409 0.865133
vt 0.636204 0.865133
vt 0.636204 0.760135
vt 1.019409 0.760135
vt 1.000000 0.760135
vt 1.000000 0.865133
vt 0.883240 0.760135
vt 0.500035 0.760135
vt 0.500035 0.865133
vt 0.883240 0.865133
vt -0.084454 0.882682
vt -0.499965 0.882682
vt 0.172137 0.874263
vt 0.999965 0.935436
vt 0.584454 0.935436
vt -0.499965 0.812634
vt -0.084454 0.812634
vt -0.282968 0.961813
vt -0.282968 0.882682
vt -0.081754 0.961813
vt 0.883240 0.752466
vt 1.019409 0.872802
vt 0.843819 0.986891
vt 0.843819 0.995896
vt 0.383240 0.882682
vt 0.383240 0.874976
vt 0.116760 0.865133
vt 0.116760 0.872802
vt -0.282968 0.988190
vt -0.282968 0.995896
vt -0.116760 0.752466
vt 1.019409 0.752466
vt 0.843819 0.874976
vt 0.843819 0.881383
vt 0.383240 0.995896
vt 0.383240 0.988190
vt 0.116760 0.752466
vt 0.116760 0.760135
vt -0.282968 0.874976
vt -0.172137 0.873515
vt 0.116760 0.995896
vt 0.883240 0.872802
vt 0.843819 0.907760
vt 0.960579 0.986891
vt 0.333756 0.961813
vt 0.500035 0.872802
vt 0.499965 0.995896
vt -0.499965 0.872802
vt -0.666173 0.874976
vt -0.666173 0.882682
vt 0.636204 0.752466
vt -0.499965 0.752466
vt 0.460615 0.986891
vt 0.460615 0.995896
vt 0.636204 0.872802
vt 0.500035 0.752466
vt 0.499965 0.874976
vt 0.383240 0.935436
vt 0.116760 0.812634
vt 0.460615 0.907760
vt -0.666173 0.961813
vt 1.000000 0.752466
vt 1.136169 0.872802
vt 0.960579 0.995896
vt 0.500000 0.882682
vt 0.680518 0.882682
vt 0.689437 0.874976
vt 0.500000 0.874976
vt 0.000000 0.865133
vt -0.140946 0.865133
vt -0.140946 0.872802
vt 0.000000 0.872802
vt -0.166208 0.988190
vt 0.032123 0.988190
vt 0.023229 0.995896
vt -0.166208 0.995896
vt -0.000000 0.752466
vt -0.000000 0.873889
vt 1.136169 0.752466
vt 0.960579 0.874976
vt 1.150017 0.874976
vt 0.500000 0.995896
vt 0.640946 0.995896
vt 0.000000 0.752466
vt -0.189437 0.752466
vt -0.166208 0.874976
vt -0.000000 0.995896
vt 1.000000 0.872802
vt 0.340089 0.187061
vt 0.340089 -0.250000
vt 0.000082 -0.250000
vt 0.000082 0.187061
vt 0.340089 0.715516
vt 0.000082 0.714657
vt 0.340089 0.999918
vt 0.000082 0.999918
vt 0.539810 0.999918
vt 0.539810 0.796763
vt 0.500041 0.799861
vt 0.500041 0.999918
vt 0.539810 0.187061
vt 0.539810 -0.250000
vt 0.500041 -0.250000
vt 0.500041 0.187061
vt 0.380077 0.999918
vt 0.380077 0.760814
vt 0.380077 0.187061
vt 0.380077 -0.250000
vt 1.000000 0.187061
vt 1.000000 -0.250000
vt 0.659119 -0.250000
vt 0.659119 0.187061
vt 1.000000 0.714657
vt 0.659119 0.715516
vt 1.000000 0.999918
vt 0.659119 0.999918
vt 0.460053 -0.250000
vt 0.460053 0.187061
vt 0.420065 -0.250000
vt 0.420065 0.187061
vt 0.460053 0.796763
vt 0.460053 0.999918
vt 0.420065 0.784110
vt 0.420065 0.999918
vt 0.619349 -0.250000
vt 0.619349 0.187061
vt 0.579580 -0.250000
vt 0.579580 0.187061
vt 0.619349 0.760814
vt 0.619349 0.999918
vt 0.579580 0.784110
vt 0.579580 0.999918
s 1
usemtl MI_WoodTrim
f 21/1/1 7/2/2 5/3/2 19/4/1
f 18/5/3 28/6/3 30/7/3 16/8/3
f 27/9/3 19/10/3 5/11/3 6/12/3
f 8/2/4 13/13/5 27/4/5 6/3/4
f 2/14/3 1/15/3 15/16/3 31/17/3
f 3/18/2 25/19/6 15/20/6 1/21/2
f 9/22/7 4/18/4 2/21/4 31/23/7
f 22/24/8 18/25/8 16/26/9 24/27/9
f 19/10/3 27/9/3 29/28/3 20/29/3
f 20/29/3 29/28/3 28/6/3 18/5/3
f 31/17/3 15/16/3 17/30/3 32/31/3
f 32/31/3 17/30/3 16/8/3 30/7/3
f 21/1/1 19/4/1 20/32/10 23/33/10
f 23/33/10 20/32/10 18/25/8 22/24/8
f 15/20/6 25/19/6 26/34/2 17/35/2
f 17/35/2 26/34/2 24/27/9 16/26/9
f 9/22/7 31/23/7 32/35/4 11/36/4
f 11/36/4 32/35/4 30/26/11 10/37/11
f 27/4/5 13/13/5 14/33/12 29/32/12
f 29/32/12 14/33/12 12/38/13 28/39/13
f 10/37/11 30/26/11 28/39/13 12/38/13
s 28
f 126/14/3 127/15/3 131/11/3 130/12/3
s 29
f 131/2/4 127/18/4 125/21/4 129/3/4
s 30
f 126/18/2 130/2/2 128/3/2 124/21/2
s 31
f 125/14/18 124/15/18 128/11/18 129/12/18
s 32
f 134/14/3 135/15/3 139/11/3 138/12/3
s 33
f 139/2/4 135/18/4 133/21/4 137/3/4
s 34
f 134/18/2 138/2/2 136/3/2 132/21/2
s 35
f 133/14/18 132/15/18 136/11/18 137/12/18
s 42
usemtl MI_Plaster
f 225/244/3 227/245/3 212/246/3 216/247/3
f 226/248/3 225/244/3 216/247/3 219/249/3
f 224/250/3 226/248/3 219/249/3 213/251/3
f 246/252/3 252/253/3 223/254/3 220/255/3
f 249/256/3 253/257/3 221/258/3 222/259/3
f 237/260/3 243/261/3 226/248/3 224/250/3
f 240/262/3 232/263/3 227/245/3 225/244/3
f 217/264/3 214/265/3 228/266/3 230/267/3
f 218/268/3 217/264/3 230/267/3 231/269/3
f 215/270/3 218/268/3 231/269/3 229/271/3
f 222/259/3 221/258/3 234/272/3 238/273/3
f 238/273/3 234/272/3 233/274/3 239/275/3
f 239/275/3 233/274/3 232/263/3 240/262/3
f 220/255/3 223/254/3 241/276/3 235/277/3
f 235/277/3 241/276/3 242/278/3 236/279/3
f 236/279/3 242/278/3 243/261/3 237/260/3
f 230/267/3 228/266/3 255/280/3 247/281/3
f 247/281/3 255/280/3 254/282/3 248/283/3
f 248/283/3 254/282/3 253/257/3 249/256/3
f 229/271/3 231/269/3 250/284/3 244/285/3
f 244/285/3 250/284/3 251/286/3 245/287/3
f 245/287/3 251/286/3 252/253/3 246/252/3
s 2
usemtl MI_WoodTrim_Wear
f 107/40/14 43/41/14 94/42/14 123/43/14
s 3
f 99/44/14 34/45/14 58/46/14 109/47/14
s 4
f 102/48/14 37/49/14 64/50/14 111/51/14
s 5
f 103/52/14 38/53/14 70/54/14 113/55/14
s 6
f 104/56/14 39/57/14 75/58/14 115/59/14
s 7
f 101/60/14 40/61/14 79/62/14 117/63/14
s 8
f 105/64/15 41/65/15 83/66/15 119/67/15
s 9
f 106/68/14 42/69/14 88/70/14 121/71/14
s 2
f 170/72/14 47/41/14 97/73/14 189/74/14
s 3
f 171/75/14 33/45/14 61/76/14 175/77/14
s 4
f 165/78/14 44/49/14 65/50/14 177/79/14
s 5
f 166/80/14 45/53/14 71/54/14 179/81/14
s 9
f 169/82/14 46/69/14 89/70/14 187/83/14
s 10
f 110/84/16 63/85/16 38/86/16 103/87/16
s 11
f 174/88/16 62/89/16 44/90/16 165/91/16
s 12
f 112/92/16 69/93/16 39/94/16 104/95/16
s 10
f 176/96/16 66/85/16 45/86/16 166/97/16
s 13
f 114/98/16 74/99/16 40/100/16 101/101/16
s 14
f 116/102/16 78/103/16 41/104/16 105/105/16
s 15
f 118/106/17 82/107/17 42/108/17 106/109/17
s 16
f 120/110/16 87/111/16 43/112/16 107/113/16
s 15
f 184/114/17 84/107/17 46/108/17 169/115/17
s 17
f 122/116/16 93/117/16 36/118/16 100/119/16
s 16
f 186/120/16 90/111/16 47/112/16 170/121/16
s 17
f 188/122/16 98/123/16 35/118/16 172/124/16
s 18
f 174/88/18 60/125/18 59/126/18 175/77/18
f 148/127/18 62/128/18 61/129/18 157/130/18
s 19
f 176/96/18 68/131/18 67/132/18 177/79/18
f 149/133/18 66/134/18 65/135/18 158/136/18
s 20
f 118/106/18 207/137/18 209/138/18 82/107/18
s 21
f 205/139/18 202/140/18 72/141/18 179/81/18
s 22
f 194/142/18 190/143/18 76/144/18 181/145/18
s 23
f 199/146/18 195/147/18 80/148/18 183/149/18
s 20
f 211/150/18 206/151/18 85/152/18 185/153/18
s 24
f 186/120/18 92/154/18 91/155/18 187/83/18
f 154/156/18 90/157/18 89/158/18 163/159/18
s 25
f 188/122/18 96/160/18 95/161/18 189/74/18
f 155/162/18 98/163/18 97/164/18 164/165/18
s 11
f 108/166/16 57/167/16 37/90/16 102/48/16
f 148/127/16 108/166/16 102/48/16 142/168/16
s 25
f 93/117/18 122/116/18 123/43/18 94/42/18
s 24
f 87/111/18 120/110/18 121/71/18 88/70/18
s 20
f 209/138/18 207/137/18 119/67/18 83/66/18
s 26
f 196/169/18 197/170/18 117/63/18 79/62/18
s 27
f 191/171/18 192/172/18 115/59/18 75/58/18
s 21
f 204/173/18 159/174/18 113/55/18 203/175/18
s 19
f 63/85/18 110/84/18 111/51/18 64/50/18
s 18
f 57/167/18 108/166/18 109/47/18 58/46/18
s 17
f 155/162/16 122/116/16 100/119/16 140/176/16
s 16
f 154/156/16 120/110/16 107/113/16 147/177/16
s 15
f 153/178/17 118/106/17 106/109/17 146/179/17
s 14
f 152/180/16 116/102/16 105/105/16 145/181/16
s 13
f 151/182/16 114/98/16 101/101/16 141/183/16
s 12
f 150/184/16 112/92/16 104/95/16 144/185/16
s 10
f 149/133/16 110/84/16 103/87/16 143/186/16
s 9
f 146/187/14 106/68/14 121/71/14 163/159/14
s 8
f 145/188/15 105/64/15 119/67/15 162/189/15
s 7
f 141/190/14 101/60/14 117/63/14 161/191/14
s 6
f 144/192/14 104/56/14 115/59/14 160/193/14
s 5
f 143/194/14 103/52/14 113/55/14 159/174/14
s 4
f 142/195/14 102/48/14 111/51/14 158/136/14
s 3
f 156/196/14 99/44/14 109/47/14 157/130/14
s 2
f 147/197/14 107/40/14 123/43/14 164/165/14
s 20
f 153/178/18 210/198/18 207/137/18 118/106/18
f 86/199/18 206/151/18 211/150/18 184/114/18
f 184/114/18 211/150/18 208/138/18 84/107/18
s 21
f 205/139/18 179/81/18 71/54/18 200/200/18
s 2
f 47/201/14 147/197/14 164/165/14 97/164/14
s 3
f 33/202/14 156/196/14 157/130/14 61/129/14
s 4
f 44/203/14 142/195/14 158/136/14 65/135/14
s 5
f 45/204/14 143/194/14 159/174/14 71/205/14
s 9
f 46/206/14 146/187/14 163/159/14 89/158/14
s 10
f 66/134/16 149/133/16 143/186/16 45/207/16
s 15
f 84/208/17 153/178/17 146/179/17 46/209/17
s 16
f 90/157/16 154/156/16 147/177/16 47/210/16
s 17
f 98/163/16 155/162/16 140/176/16 35/211/16
s 11
f 62/128/16 148/127/16 142/168/16 44/212/16
s 25
f 122/116/18 155/162/18 164/165/18 123/43/18
s 24
f 120/110/18 154/156/18 163/159/18 121/71/18
s 20
f 207/137/18 210/198/18 162/189/18 119/67/18
s 26
f 197/170/18 198/213/18 161/191/18 117/63/18
s 27
f 192/172/18 193/214/18 160/193/18 115/59/18
s 19
f 110/84/18 149/133/18 158/136/18 111/51/18
s 18
f 108/166/18 148/127/18 157/130/18 109/47/18
s 20
f 84/208/18 208/215/18 210/198/18 153/178/18
s 21
f 204/173/18 200/216/18 71/205/18 159/174/18
s 25
f 98/123/18 188/122/18 189/74/18 97/73/18
s 24
f 90/111/18 186/120/18 187/83/18 89/70/18
s 19
f 66/85/18 176/96/18 177/79/18 65/50/18
s 18
f 62/89/18 174/88/18 175/77/18 61/76/18
s 17
f 96/160/16 188/122/16 172/124/16 49/217/16
s 16
f 92/154/16 186/120/16 170/121/16 56/218/16
s 15
f 86/199/17 184/114/17 169/115/17 55/219/17
s 36
f 81/220/16 182/221/16 168/222/16 54/223/16
s 37
f 77/224/16 180/225/16 173/226/16 53/227/16
s 38
f 73/228/16 178/229/16 167/230/16 52/231/16
s 10
f 68/131/16 176/96/16 166/97/16 51/232/16
s 11
f 60/125/16 174/88/16 165/91/16 50/233/16
s 9
f 55/234/14 169/82/14 187/83/14 91/155/14
s 39
f 54/235/15 168/236/15 185/153/15 85/152/15
s 40
f 53/237/14 173/238/14 183/149/14 80/148/14
s 41
f 52/239/14 167/240/14 181/145/14 76/144/14
s 5
f 51/241/14 166/80/14 179/81/14 72/141/14
s 4
f 50/233/14 165/78/14 177/79/14 67/132/14
s 3
f 48/242/14 171/75/14 175/77/14 59/126/14
s 2
f 56/243/14 170/72/14 189/74/14 95/161/14
s 27
f 114/98/18 151/182/18 193/214/18 192/172/18
f 74/99/18 114/98/18 192/172/18 191/171/18
s 22
f 180/225/18 77/224/18 190/143/18 194/142/18
s 26
f 116/102/18 152/180/18 198/213/18 197/170/18
f 78/103/18 116/102/18 197/170/18 196/169/18
s 23
f 182/221/18 81/220/18 195/147/18 199/146/18
s 21
f 112/92/18 150/184/18 204/173/18 203/175/18
f 178/229/18 73/228/18 202/140/18 205/139/18
f 69/93/18 112/92/18 203/175/18 201/200/18
f 201/200/18 203/175/18 113/55/18 70/54/18
