# Blender 4.0.2
# www.blender.org
mtllib Wall_WoodBrick_Door_Round.mtl
o Wall_WoodBrick_Door_Round
v 1.000000 3.116765 0.092446
v 1.000000 2.883237 0.092446
v 1.000000 3.116765 -0.001371
v 1.000000 2.883237 -0.001371
v -1.000000 3.116763 0.092446
v -1.000000 2.883235 0.092446
v -1.000000 3.116763 -0.001370
v -1.000000 2.883235 -0.001370
v -1.000000 -0.000000 0.000000
v 1.000000 0.000000 -0.000000
v -0.750000 -0.000000 -0.000000
v 0.750000 0.000000 0.000000
v -0.765931 -0.000000 0.035134
v -0.984068 -0.000000 0.035134
v -0.734068 -0.000000 0.035134
v 0.734069 0.000000 0.035134
v 0.984069 0.000000 0.035134
v 0.765932 0.000000 0.035134
v -1.000000 0.831079 0.000000
v 1.000000 0.831080 -0.000000
v -0.750000 0.831079 -0.000000
v 0.750000 0.831080 0.000000
v -0.765932 0.831079 0.035134
v -0.984068 0.831079 0.035134
v -0.734068 0.831079 0.035134
v 0.734069 0.831080 0.035134
v 0.984069 0.831080 0.035134
v 0.765932 0.831080 0.035134
v 1.000000 0.883107 0.092446
v 1.000000 0.649580 0.092446
v 1.000000 0.883107 -0.012516
v 1.000000 0.649580 -0.012516
v -1.000000 0.883105 0.092447
v -1.000000 0.649578 0.092447
v -1.000000 0.883105 -0.012515
v -1.000000 0.649578 -0.012515
v -0.653126 0.883105 0.062622
v -0.653126 -0.000000 0.035134
v -0.653126 0.649578 -0.012515
v -0.653126 0.649578 0.062622
v -0.653126 0.831079 0.035134
v -0.653126 0.883105 -0.012515
v 0.649827 0.883106 0.056532
v 0.649827 0.831080 0.035134
v 0.649827 0.649579 0.056532
v 0.649827 0.000000 0.035134
v 0.649827 0.649579 -0.012516
v 0.649827 0.883106 -0.012516
v -1.000000 0.000000 0.000000
v -1.000000 3.000000 0.000000
v 1.000000 0.000000 0.000000
v 1.000000 3.000000 0.000000
v -1.000000 0.880000 0.000000
v 1.000000 0.880000 0.000000
v -0.649514 0.880000 0.000000
v -0.649514 0.000000 0.000000
v -0.649514 3.000000 0.000000
v 0.655521 0.880000 0.000000
v 0.655521 3.000000 0.000000
v 0.655521 0.000000 0.000000
v 1.000000 2.154865 0.000000
v -1.000000 2.154865 0.000000
v -0.649514 2.154865 0.000000
v 0.655521 2.154865 0.000000
v 1.000000 2.299803 0.000000
v -0.649514 2.299803 0.000000
v 0.655521 2.299803 0.000000
v -1.000000 2.299803 0.000000
v 1.000000 2.397505 0.000000
v -0.649514 2.397505 0.000000
v 0.655521 2.397505 0.000000
v -1.000000 2.397505 0.000000
v 1.000000 2.456533 0.000000
v -0.649514 2.456533 0.000000
v 0.655521 2.456533 0.000000
v -1.000000 2.456533 0.000000
v 1.000000 2.472878 0.000000
v -0.649514 2.472878 0.000000
v 0.655521 2.472878 0.000000
v -1.000000 2.472878 0.000000
v 0.000791 2.472878 0.000000
v -0.341746 2.397505 0.000000
v 0.341906 2.397505 0.000000
v -0.171188 2.456533 0.000000
v 0.174191 2.456533 0.000000
v -0.505197 2.299803 0.000000
v 0.502514 2.299803 0.000000
v -1.000000 0.000000 -0.200000
v -1.000000 3.000000 -0.200000
v 1.000000 0.000000 -0.200000
v 1.000000 3.000000 -0.200000
v -0.649057 3.000000 -0.200000
v -0.649057 0.000000 -0.200000
v 0.655356 0.000000 -0.200000
v 0.655356 3.000000 -0.200000
v -1.000000 2.155977 -0.200000
v 1.000000 2.155977 -0.200000
v -0.649057 2.155977 -0.200000
v 0.655356 2.155977 -0.200000
v 1.000000 2.299673 -0.200000
v -0.649057 2.299673 -0.200000
v 0.655356 2.299673 -0.200000
v -1.000000 2.299673 -0.200000
v 1.000000 2.398518 -0.200000
v -0.649057 2.398518 -0.200000
v 0.655356 2.398518 -0.200000
v -1.000000 2.398518 -0.200000
v 1.000000 2.457404 -0.200000
v -0.649057 2.457404 -0.200000
v 0.655356 2.457404 -0.200000
v -1.000000 2.457404 -0.200000
v 1.000000 2.473177 -0.200000
v -0.649057 2.473177 -0.200000
v 0.655356 2.473177 -0.200000
v -1.000000 2.473177 -0.200000
v 0.173636 2.457404 -0.200000
v -0.172053 2.457404 -0.200000
v 0.343318 2.398518 -0.200000
v -0.340682 2.398518 -0.200000
v 0.504569 2.299673 -0.200000
v -0.505095 2.299673 -0.200000
v 0.003953 2.473177 -0.200000
v -1.000000 3.116765 -0.314034
v -1.000000 2.883237 -0.314034
v -1.000000 3.116765 -0.195094
v -1.000000 2.883237 -0.195094
v 1.000000 3.116763 -0.314035
v 1.000000 2.883235 -0.314035
v 1.000000 3.116763 -0.195095
v 1.000000 2.883235 -0.195095
v -0.851329 2.883237 -0.195094
v -0.636919 2.883237 -0.195094
v -0.744124 2.891946 -0.195094
v 0.504469 2.883236 -0.195095
v 0.880926 2.883235 -0.195095
v 0.744124 2.877310 -0.195095
v -0.851329 3.116764 -0.314034
v -0.636919 3.116764 -0.314034
v -0.744124 3.108055 -0.314034
v 0.504469 3.116763 -0.314035
v 0.880926 3.116763 -0.314035
v 0.744124 3.122689 -0.314035
v 0.880926 3.116763 -0.195095
v 0.504469 3.116763 -0.195095
v 0.744124 3.122689 -0.195095
v -0.636919 3.116764 -0.195094
v -0.851329 3.116764 -0.195094
v -0.744124 3.108055 -0.195094
v 0.880926 2.883235 -0.314035
v 0.504469 2.883236 -0.314035
v 0.744124 2.877310 -0.314035
v -0.636919 2.883237 -0.314034
v -0.851329 2.883237 -0.314034
v -0.744124 2.891946 -0.314034
vn 1.0000 -0.0000 -0.0000
vn -1.0000 -0.0000 -0.0000
vn -0.0000 -1.0000 -0.0000
vn -0.0000 1.0000 -0.0000
vn -0.0000 -0.0000 1.0000
vn -0.9107 -0.0000 0.4130
vn 0.9107 -0.0000 0.4130
vn -0.0000 -0.0000 -1.0000
vn -0.1020 -0.0000 0.9948
vn 0.0857 -0.0000 0.9963
vn 0.0216 0.9998 -0.0000
vn 0.0216 -0.9998 -0.0000
vn 0.0405 0.9992 -0.0000
vn 0.0405 -0.9992 -0.0000
vn -0.0124 0.9999 -0.0000
vn -0.0405 0.9992 -0.0000
vn 0.0093 1.0000 -0.0000
vn -0.0405 -0.9992 -0.0000
vn 0.0093 -1.0000 -0.0000
vn -0.0124 -0.9999 -0.0000
vt 0.332501 0.213019
vt 0.332501 0.373570
vt 0.490323 0.373570
vt 0.490323 0.213019
vt 1.000000 0.747971
vt 0.000000 0.747971
vt 0.000000 0.692612
vt 1.000000 0.692612
vt 1.000000 0.882737
vt 1.000000 0.996169
vt 0.000000 0.996169
vt 0.000000 0.882737
vt 1.084454 0.872802
vt 1.499965 0.872802
vt 1.499965 0.865133
vt 1.084454 0.865133
vt -0.084454 0.995896
vt -0.499965 0.995896
vt -0.499965 0.988190
vt -0.084454 0.988190
vt 0.000000 0.873889
vt 0.499965 0.872802
vt 0.499965 0.865133
vt 0.084454 0.865133
vt 1.220623 0.865133
vt 1.636134 0.865133
vt 1.636134 0.872802
vt 1.220623 0.872802
vt 1.084454 0.760135
vt 1.499965 0.760135
vt 1.499965 0.752466
vt 1.084454 0.752466
vt -0.084454 0.882682
vt -0.499965 0.882682
vt -0.499965 0.874976
vt 1.220623 0.824584
vt 1.636134 0.824584
vt 0.824914 0.996169
vt 0.824914 0.882737
vt 0.826563 0.747971
vt 0.826563 0.692612
vt 0.175086 0.747971
vt 0.175086 0.692612
vt 0.824914 0.882737
vt 0.499965 0.826172
vt 0.084454 0.826172
vt 0.826563 0.747971
vt 0.173437 0.882737
vt 0.173437 0.996169
vt 0.173437 0.882737
vt 0.175086 0.747971
vt 0.000071 -0.423211
vt 0.175289 -0.423211
vt 0.175289 -0.002548
vt 0.000071 -0.002548
vt 0.000000 0.750724
vt 0.175243 0.750724
vt 0.175243 1.000000
vt 0.000000 1.000000
vt 0.827761 0.668877
vt 0.827761 0.600335
vt 1.000000 0.600335
vt 1.000000 0.668877
vt 0.827761 -0.002548
vt 1.000000 -0.002548
vt 0.827714 -0.002548
vt 0.827714 -0.423211
vt 0.999929 -0.423211
vt 0.999929 -0.002548
vt 0.175243 0.668877
vt 0.175243 0.600335
vt 0.247402 0.668877
vt 0.000000 -0.002548
vt 0.175243 -0.002548
vt 0.000000 0.600335
vt 0.175243 0.715080
vt 0.329127 0.715080
vt 0.827761 0.715080
vt 1.000000 0.715080
vt 0.000000 0.668877
vt 0.827761 0.742995
vt 1.000000 0.742995
vt 0.175243 0.742995
vt 0.414406 0.742995
vt 0.000000 0.715080
vt 0.500395 0.750724
vt 0.827761 0.750724
vt 1.000000 0.750724
vt 0.000000 0.742995
vt 0.827761 1.000000
vt 1.000000 1.000000
vt 0.670953 0.715080
vt 0.751257 0.668877
vt 0.587095 0.742995
vt 0.175539 0.648265
vt 0.175539 -0.250000
vt 0.000082 -0.250000
vt 0.000082 0.648265
vt 1.000000 0.648265
vt 1.000000 -0.250000
vt 0.827692 -0.250000
vt 0.827692 0.648265
vt 1.000000 0.708134
vt 0.827692 0.708134
vt 0.752305 0.708134
vt 0.175539 0.708134
vt 0.000082 0.708134
vt 0.175539 0.749317
vt 0.000082 0.749317
vt 0.827692 0.749317
vt 0.671686 0.749317
vt 1.000000 0.749317
vt 1.000000 0.773851
vt 0.827692 0.773851
vt 0.586852 0.773851
vt 0.175539 0.773851
vt 0.000082 0.773851
vt 0.175539 0.780423
vt 0.000082 0.780423
vt 0.827692 0.780423
vt 0.502017 0.780423
vt 1.000000 0.780423
vt 1.000000 0.999918
vt 0.827692 0.999918
vt 0.175539 0.999918
vt 0.000082 0.999918
vt 0.414021 0.773851
vt 0.329714 0.749317
vt 0.247514 0.708134
vt 0.940463 0.747971
vt 0.940463 0.692612
vt 0.247765 0.996169
vt 0.247765 0.882737
vt 0.818460 0.882737
vt 0.818460 0.996169
vt 0.059537 0.882737
vt 0.059537 0.996169
vt 0.940463 0.747971
vt 0.925665 0.996169
vt 0.925665 0.882737
vt 0.074335 0.747971
vt 0.074335 0.692612
vt 0.074335 0.747971
vt 0.074335 0.692612
vt 0.752235 0.747971
vt 0.752235 0.692612
vt 0.181540 0.692612
vt 0.181540 0.747971
vt 0.127938 0.882737
vt 0.127938 0.996169
vt 0.872062 0.996169
vt 0.872062 0.882737
vt 0.872062 0.692612
vt 0.872062 0.747971
vt 0.127938 0.747971
vt 0.127938 0.692612
vt 0.127938 0.747971
vt 0.181540 0.747971
vt 0.752235 0.747971
vt 0.752235 0.692612
s 1
usemtl MI_WoodTrim
f 1/1/1 2/2/1 4/3/1 3/4/1
f 7/4/2 8/3/2 6/2/2 5/1/2
f 8/5/3 4/6/3 2/7/3 6/8/3
f 3/6/4 7/5/4 5/8/4 1/7/4
f 2/9/5 1/10/5 5/11/5 6/12/5
s 4
f 31/9/8 32/10/8 47/38/8 48/39/8
s 5
f 36/5/3 39/40/3 40/41/3 34/8/3
s 4
f 31/6/4 48/42/4 43/43/4 29/7/4
f 30/9/9 29/10/9 43/38/9 45/44/9
s 5
f 37/41/4 42/47/4 35/5/4 33/8/4
f 40/48/10 37/49/10 33/11/10 34/12/10
f 42/50/8 39/49/8 36/11/8 35/12/8
s 4
f 45/43/3 47/51/3 32/6/3 30/7/3
s 8
f 143/130/11 129/5/4 127/8/4 141/131/11
f 140/132/8 150/133/8 152/134/8 138/135/8
f 149/136/8 141/137/8 127/11/8 128/12/8
f 130/5/3 135/138/12 149/131/12 128/8/3
f 124/9/8 123/10/8 137/139/8 153/140/8
f 125/6/4 147/141/13 137/142/13 123/7/4
f 131/143/14 126/6/3 124/7/3 153/144/14
f 144/145/15 140/146/15 138/147/16 146/148/16
f 141/137/8 149/136/8 151/149/8 142/150/8
f 142/150/8 151/149/8 150/133/8 140/132/8
f 153/140/8 137/139/8 139/151/8 154/152/8
f 154/152/8 139/151/8 138/135/8 152/134/8
f 143/130/11 141/131/11 142/153/17 145/154/17
f 145/154/17 142/153/17 140/146/15 144/145/15
f 137/142/13 147/141/13 148/155/4 139/156/4
f 139/156/4 148/155/4 146/148/16 138/147/16
f 131/143/14 153/144/14 154/156/3 133/157/3
f 133/157/3 154/156/3 152/147/18 132/158/18
f 149/131/12 135/138/12 136/154/19 151/153/19
f 151/153/19 136/154/19 134/159/20 150/160/20
f 132/158/18 152/147/18 150/160/20 134/159/20
s 2
usemtl MI_WoodTrim_Wear
f 22/13/6 12/14/6 18/15/6 28/16/6
s 3
f 19/17/6 9/18/6 14/19/6 24/20/6
f 21/21/6 11/22/6 15/23/6 25/24/6
s 2
f 26/25/7 16/26/7 12/27/7 22/28/7
f 27/29/7 17/30/7 10/31/7 20/32/7
s 3
f 23/33/7 13/34/7 11/35/7 21/21/7
s 2
f 17/30/5 27/29/5 28/16/5 18/15/5
f 16/26/5 26/25/5 44/36/5 46/37/5
s 3
f 13/34/5 23/33/5 24/20/5 14/19/5
f 38/45/5 41/46/5 25/24/5 15/23/5
s 6
usemtl MI_UnevenBrick
f 49/52/5 56/53/5 55/54/5 53/55/5
f 80/56/5 78/57/5 57/58/5 50/59/5
f 67/60/5 64/61/5 61/62/5 65/63/5
f 64/61/5 58/64/5 54/65/5 61/62/5
f 58/66/5 60/67/5 51/68/5 54/69/5
f 66/70/5 63/71/5 86/72/5
f 53/73/5 55/74/5 63/71/5 62/75/5
f 70/76/5 66/70/5 86/72/5 82/77/5
f 71/78/5 67/60/5 65/63/5 69/79/5
f 62/75/5 63/71/5 66/70/5 68/80/5
f 75/81/5 71/78/5 69/79/5 73/82/5
f 74/83/5 70/76/5 82/77/5 84/84/5
f 68/80/5 66/70/5 70/76/5 72/85/5
f 78/57/5 74/83/5 84/84/5 81/86/5
f 79/87/5 75/81/5 73/82/5 77/88/5
f 72/85/5 70/76/5 74/83/5 76/89/5
f 59/90/5 79/87/5 77/88/5 52/91/5
f 57/58/5 78/57/5 81/86/5 79/87/5 59/90/5
f 76/89/5 74/83/5 78/57/5 80/56/5
f 83/92/5 87/93/5 67/60/5 71/78/5
f 85/94/5 83/92/5 71/78/5 75/81/5
f 87/93/5 64/61/5 67/60/5
f 81/86/5 85/94/5 75/81/5 79/87/5
s 7
usemtl MI_Plaster
f 98/95/8 93/96/8 88/97/8 96/98/8
f 97/99/8 90/100/8 94/101/8 99/102/8
f 100/103/8 97/99/8 99/102/8 102/104/8
f 102/104/8 99/102/8 120/105/8
f 101/106/8 98/95/8 96/98/8 103/107/8
f 105/108/8 101/106/8 103/107/8 107/109/8
f 106/110/8 102/104/8 120/105/8 118/111/8
f 104/112/8 100/103/8 102/104/8 106/110/8
f 108/113/8 104/112/8 106/110/8 110/114/8
f 110/114/8 106/110/8 118/111/8 116/115/8
f 109/116/8 105/108/8 107/109/8 111/117/8
f 113/118/8 109/116/8 111/117/8 115/119/8
f 114/120/8 110/114/8 116/115/8 122/121/8
f 112/122/8 108/113/8 110/114/8 114/120/8
f 91/123/8 112/122/8 114/120/8 95/124/8
f 95/124/8 114/120/8 122/121/8 113/118/8 92/125/8
f 92/125/8 113/118/8 115/119/8 89/126/8
f 117/127/8 119/128/8 105/108/8 109/116/8
f 119/128/8 121/129/8 101/106/8 105/108/8
f 121/129/8 98/95/8 101/106/8
f 122/121/8 117/127/8 109/116/8 113/118/8
