# Blender 4.0.2
# www.blender.org
mtllib Wall_WoodBrick_Straight.mtl
o Wall_WoodBrick_Straight
v -1.000000 -0.000000 0.000000
v 1.000000 0.000000 -0.000000
v -0.750000 -0.000000 -0.000000
v -0.500000 -0.000000 -0.000000
v -0.250000 -0.000000 0.000000
v 0.000000 0.000000 -0.000000
v 0.250000 0.000000 -0.000000
v 0.500000 0.000000 0.000000
v 0.750000 0.000000 0.000000
v -0.765931 -0.000000 0.035134
v -0.984068 -0.000000 0.035134
v -0.515931 -0.000000 0.035134
v -0.734068 -0.000000 0.035134
v -0.265931 -0.000000 0.035134
v -0.484068 -0.000000 0.035134
v -0.015931 0.000000 0.035134
v -0.234068 -0.000000 0.035134
v 0.234069 0.000000 0.035134
v 0.015932 0.000000 0.035134
v 0.481383 0.000000 0.035134
v 0.263246 0.000000 0.035134
v 0.734069 0.000000 0.035134
v 0.515932 0.000000 0.035134
v 0.984069 0.000000 0.035134
v 0.765932 0.000000 0.035134
v -1.000000 0.831079 -0.000000
v 1.000000 0.831080 -0.000000
v 0.000000 0.831079 -0.000000
v -0.750000 0.831079 -0.000000
v -0.500000 0.831079 -0.000000
v -0.250000 0.831079 -0.000000
v 0.250000 0.831079 -0.000000
v 0.500000 0.831079 -0.000000
v 0.750000 0.831080 -0.000000
v -0.765932 0.831079 0.035134
v -0.984068 0.831079 0.035134
v -0.515931 0.831079 0.035134
v -0.734068 0.831079 0.035134
v -0.265931 0.831079 0.035134
v -0.484068 0.831079 0.035134
v -0.015931 0.831079 0.035134
v -0.234068 0.831079 0.035134
v 0.234069 0.831079 0.035134
v 0.015932 0.831079 0.035134
v 0.481383 0.831079 0.035134
v 0.263246 0.831079 0.035134
v 0.734069 0.831080 0.035134
v 0.515932 0.831079 0.035134
v 0.984069 0.831080 0.035134
v 0.765932 0.831080 0.035134
v 1.000000 0.883107 0.092446
v 1.000000 0.649580 0.092446
v 1.000000 0.883107 -0.012516
v 1.000000 0.649580 -0.012516
v -1.000000 0.883105 0.092447
v -1.000000 0.649578 0.092447
v -1.000000 0.883105 -0.012515
v -1.000000 0.649578 -0.012515
v 1.000000 3.116765 0.092446
v 1.000000 2.883237 0.092446
v 1.000000 3.116765 -0.001371
v 1.000000 2.883237 -0.001371
v -1.000000 3.116763 0.092446
v -1.000000 2.883235 0.092446
v -1.000000 3.116763 -0.001371
v -1.000000 2.883235 -0.001371
v -1.000000 -0.000000 -0.200000
v -1.000000 3.000000 -0.200000
v 1.000000 -0.000000 -0.200000
v 1.000000 3.000000 -0.200000
v -1.000000 3.000000 -0.000000
v 1.000000 3.000000 -0.000000
v -1.000000 0.880000 -0.000000
v 1.000000 0.880000 -0.000000
v -1.000000 3.116765 -0.314034
v -1.000000 2.883237 -0.314034
v -1.000000 3.116765 -0.195094
v -1.000000 2.883237 -0.195094
v 1.000000 3.116763 -0.314035
v 1.000000 2.883235 -0.314035
v 1.000000 3.116763 -0.195095
v 1.000000 2.883235 -0.195095
v -0.851329 2.883237 -0.195094
v -0.636919 2.883237 -0.195094
v -0.744124 2.891946 -0.195094
v 0.504469 2.883236 -0.195095
v 0.880926 2.883235 -0.195095
v 0.744124 2.877310 -0.195095
v -0.851329 3.116764 -0.314034
v -0.636919 3.116764 -0.314034
v -0.744124 3.108055 -0.314034
v 0.504469 3.116763 -0.314035
v 0.880926 3.116763 -0.314035
v 0.744124 3.122689 -0.314035
v 0.880926 3.116763 -0.195095
v 0.504469 3.116763 -0.195095
v 0.744124 3.122689 -0.195095
v -0.636919 3.116764 -0.195094
v -0.851329 3.116764 -0.195094
v -0.744124 3.108055 -0.195094
v 0.880926 2.883235 -0.314035
v 0.504469 2.883236 -0.314035
v 0.744124 2.877310 -0.314035
v -0.636919 2.883237 -0.314034
v -0.851329 2.883237 -0.314034
v -0.744124 2.891946 -0.314034
vn -0.9107 -0.0000 0.4130
vn -0.9357 -0.0000 0.3528
vn 0.9107 -0.0000 0.4130
vn 0.8836 -0.0000 0.4682
vn -0.0000 -0.0000 1.0000
vn -0.0000 -0.0000 -1.0000
vn -0.0000 -1.0000 -0.0000
vn -0.0000 1.0000 -0.0000
vn 0.0216 0.9998 -0.0000
vn 0.0216 -0.9998 -0.0000
vn 0.0405 0.9992 -0.0000
vn 0.0405 -0.9992 -0.0000
vn -0.0124 0.9999 -0.0000
vn -0.0405 0.9992 -0.0000
vn 0.0093 1.0000 -0.0000
vn -0.0405 -0.9992 -0.0000
vn 0.0093 -1.0000 -0.0000
vn -0.0124 -0.9999 -0.0000
vt 1.084454 0.872802
vt 1.499965 0.872802
vt 1.499965 0.865133
vt 1.084454 0.865133
vt -0.084454 0.995896
vt -0.499965 0.995896
vt -0.499965 0.988190
vt -0.084454 0.988190
vt 0.000000 0.873889
vt 0.499965 0.872802
vt 0.499965 0.865133
vt 0.084454 0.865133
vt -0.081754 0.874976
vt 0.333756 0.874976
vt 0.333756 0.882682
vt -0.081754 0.882682
vt -0.084454 0.752466
vt -0.499965 0.752466
vt -0.499965 0.760135
vt -0.084454 0.760135
vt 0.584454 0.995896
vt 0.999965 0.995896
vt 0.999965 0.988190
vt 0.584454 0.988190
vt 1.045034 0.874976
vt 1.460544 0.874976
vt 1.460544 0.881383
vt 1.045034 0.881383
vt 1.220623 0.752466
vt 1.636134 0.752466
vt 1.636134 0.760135
vt 1.220623 0.760135
vt 0.084454 0.760135
vt 0.499965 0.760135
vt 0.499965 0.752466
vt 0.084454 0.752466
vt -0.081754 0.988190
vt 0.333756 0.988190
vt 0.333756 0.995896
vt -0.081754 0.995896
vt -0.084454 0.865133
vt -0.499965 0.865133
vt -0.499965 0.872802
vt -0.084454 0.872802
vt 0.584454 0.882682
vt 0.999965 0.882682
vt 0.999965 0.874976
vt 0.584454 0.874976
vt 1.045034 0.986891
vt 1.460544 0.986891
vt 1.460544 0.995896
vt 1.045034 0.995896
vt 1.220623 0.865133
vt 1.636134 0.865133
vt 1.636134 0.872802
vt 1.220623 0.872802
vt 1.084454 0.760135
vt 1.499965 0.760135
vt 1.499965 0.752466
vt 1.084454 0.752466
vt -0.084454 0.882682
vt -0.499965 0.882682
vt -0.499965 0.874976
vt 1.000000 0.882737
vt 1.000000 0.996169
vt 0.000000 0.996169
vt 0.000000 0.882737
vt 1.000000 0.747971
vt 0.000000 0.747971
vt 0.000000 0.692612
vt 1.000000 0.692612
vt 1.000000 0.999918
vt 1.000000 -0.250000
vt 0.000082 -0.250000
vt 0.000082 0.999918
vt 0.000000 0.000000
vt 1.000000 0.000000
vt 1.000000 1.000000
vt 0.000000 1.000000
vt 0.940463 0.747971
vt 0.940463 0.692612
vt 0.247765 0.996169
vt 0.247765 0.882737
vt 0.818460 0.882737
vt 0.818460 0.996169
vt 0.059537 0.882737
vt 0.059537 0.996169
vt 0.940463 0.747971
vt 0.925665 0.996169
vt 0.925665 0.882737
vt 0.074335 0.747971
vt 0.074335 0.692612
vt 0.074335 0.747971
vt 0.074335 0.692612
vt 0.752235 0.747971
vt 0.752235 0.692612
vt 0.181540 0.692612
vt 0.181540 0.747971
vt 0.127938 0.882737
vt 0.127938 0.996169
vt 0.872062 0.996169
vt 0.872062 0.882737
vt 0.872062 0.692612
vt 0.872062 0.747971
vt 0.127938 0.747971
vt 0.127938 0.692612
vt 0.127938 0.747971
vt 0.181540 0.747971
vt 0.752235 0.747971
vt 0.752235 0.692612
s 1
usemtl MI_WoodTrim_Wear
f 34/1/1 9/2/1 25/3/1 50/4/1
s 2
f 26/5/1 1/6/1 11/7/1 36/8/1
s 3
f 29/9/1 3/10/1 13/11/1 38/12/1
s 4
f 30/13/1 4/14/1 15/15/1 40/16/1
s 5
f 31/17/1 5/18/1 17/19/1 42/20/1
s 6
f 28/21/1 6/22/1 19/23/1 44/24/1
s 7
f 32/25/2 7/26/2 21/27/2 46/28/2
s 8
f 33/29/1 8/30/1 23/31/1 48/32/1
s 9
f 37/33/3 12/34/3 4/35/3 30/36/3
s 10
f 39/37/3 14/38/3 5/39/3 31/40/3
s 11
f 41/41/3 16/42/3 6/43/3 28/44/3
s 12
f 43/45/3 18/46/3 7/47/3 32/48/3
s 13
f 45/49/4 20/50/4 8/51/4 33/52/4
s 14
f 47/53/3 22/54/3 9/55/3 34/56/3
s 15
f 49/57/3 24/58/3 2/59/3 27/60/3
s 16
f 35/61/3 10/62/3 3/63/3 29/9/3
s 17
f 24/58/5 49/57/5 50/4/5 25/3/5
s 18
f 22/54/5 47/53/5 48/32/5 23/31/5
s 19
f 20/50/5 45/49/5 46/28/5 21/27/5
s 20
f 18/46/5 43/45/5 44/24/5 19/23/5
s 21
f 16/42/5 41/41/5 42/20/5 17/19/5
s 22
f 14/38/5 39/37/5 40/16/5 15/15/5
s 23
f 12/34/5 37/33/5 38/12/5 13/11/5
s 24
f 10/62/5 35/61/5 36/8/5 11/7/5
s 25
usemtl MI_WoodTrim
f 53/64/6 54/65/6 58/66/6 57/67/6
s 26
f 58/68/7 54/69/7 52/70/7 56/71/7
s 27
f 53/69/8 57/68/8 55/71/8 51/70/8
s 28
f 52/64/5 51/65/5 55/66/5 56/67/5
s 29
f 61/64/6 62/65/6 66/66/6 65/67/6
s 30
f 66/68/7 62/69/7 60/70/7 64/71/7
s 31
f 61/69/8 65/68/8 63/71/8 59/70/8
s 32
f 60/64/5 59/65/5 63/66/5 64/67/5
s 35
f 95/80/9 81/68/8 79/71/8 93/81/9
f 92/82/6 102/83/6 104/84/6 90/85/6
f 101/86/6 93/87/6 79/66/6 80/67/6
f 82/68/7 87/88/10 101/81/10 80/71/7
f 76/64/6 75/65/6 89/89/6 105/90/6
f 77/69/8 99/91/11 89/92/11 75/70/8
f 83/93/12 78/69/7 76/70/7 105/94/12
f 96/95/13 92/96/13 90/97/14 98/98/14
f 93/87/6 101/86/6 103/99/6 94/100/6
f 94/100/6 103/99/6 102/83/6 92/82/6
f 105/90/6 89/89/6 91/101/6 106/102/6
f 106/102/6 91/101/6 90/85/6 104/84/6
f 95/80/9 93/81/9 94/103/15 97/104/15
f 97/104/15 94/103/15 92/96/13 96/95/13
f 89/92/11 99/91/11 100/105/8 91/106/8
f 91/106/8 100/105/8 98/98/14 90/97/14
f 83/93/12 105/94/12 106/106/7 85/107/7
f 85/107/7 106/106/7 104/97/16 84/108/16
f 101/81/10 87/88/10 88/104/17 103/103/17
f 103/103/17 88/104/17 86/109/18 102/110/18
f 84/108/16 104/97/16 102/110/18 86/109/18
s 34
usemtl MI_UnevenBrick
f 73/76/5 74/77/5 72/78/5 71/79/5
s 33
usemtl MI_Plaster
f 70/72/6 69/73/6 67/74/6 68/75/6
