# Blender 4.0.2
# www.blender.org
mtllib Wall_WoodWear_Door_Round.mtl
o Wall_WoodWear_Door_Round
v -1.000000 3.116765 -0.314034
v -1.000000 2.883237 -0.314034
v -1.000000 3.116765 -0.195094
v -1.000000 2.883237 -0.195094
v 1.000000 3.116763 -0.314035
v 1.000000 2.883235 -0.314035
v 1.000000 3.116763 -0.195095
v 1.000000 2.883235 -0.195095
v -0.851329 2.883237 -0.195094
v -0.636919 2.883237 -0.195094
v -0.744124 2.891946 -0.195094
v 0.504469 2.883236 -0.195095
v 0.880926 2.883235 -0.195095
v 0.744124 2.877310 -0.195095
v -0.851329 3.116764 -0.314034
v -0.636919 3.116764 -0.314034
v -0.744124 3.108055 -0.314034
v 0.504469 3.116763 -0.314035
v 0.880926 3.116763 -0.314035
v 0.744124 3.122689 -0.314035
v 0.880926 3.116763 -0.195095
v 0.504469 3.116763 -0.195095
v 0.744124 3.122689 -0.195095
v -0.636919 3.116764 -0.195094
v -0.851329 3.116764 -0.195094
v -0.744124 3.108055 -0.195094
v 0.880926 2.883235 -0.314035
v 0.504469 2.883236 -0.314035
v 0.744124 2.877310 -0.314035
v -0.636919 2.883237 -0.314034
v -0.851329 2.883237 -0.314034
v -0.744124 2.891946 -0.314034
v -1.000000 0.000000 -0.200000
v -1.000000 3.000000 -0.200000
v 1.000000 0.000000 -0.200000
v 1.000000 3.000000 -0.200000
v -0.649057 3.000000 -0.200000
v -0.649057 0.000000 -0.200000
v 0.655356 0.000000 -0.200000
v 0.655356 3.000000 -0.200000
v -1.000000 2.155977 -0.200000
v 1.000000 2.155977 -0.200000
v -0.649057 2.155977 -0.200000
v 0.655356 2.155977 -0.200000
v 1.000000 2.299673 -0.200000
v -0.649057 2.299673 -0.200000
v 0.655356 2.299673 -0.200000
v -1.000000 2.299673 -0.200000
v 1.000000 2.398518 -0.200000
v -0.649057 2.398518 -0.200000
v 0.655356 2.398518 -0.200000
v -1.000000 2.398518 -0.200000
v 1.000000 2.457404 -0.200000
v -0.649057 2.457404 -0.200000
v 0.655356 2.457404 -0.200000
v -1.000000 2.457404 -0.200000
v 1.000000 2.473177 -0.200000
v -0.649057 2.473177 -0.200000
v 0.655356 2.473177 -0.200000
v -1.000000 2.473177 -0.200000
v 0.173636 2.457404 -0.200000
v -0.172053 2.457404 -0.200000
v 0.343318 2.398518 -0.200000
v -0.340682 2.398518 -0.200000
v 0.504569 2.299673 -0.200000
v -0.505095 2.299673 -0.200000
v 0.003953 2.473177 -0.200000
v -1.000000 2.000000 0.000000
v -1.000000 -0.000000 0.000000
v 1.000000 2.000000 -0.000000
v 1.000000 0.000000 -0.000000
v -0.750000 -0.000000 -0.000000
v 0.750000 0.000000 0.000000
v -0.750000 2.000000 -0.000000
v 0.750000 2.000000 0.000000
v -1.000000 3.000000 0.000000
v 1.000000 3.000000 -0.000000
v -0.750000 3.000000 -0.000000
v -0.500000 3.000000 -0.000000
v -0.250000 3.000000 0.000000
v 0.000000 3.000000 -0.000000
v 0.250000 3.000000 -0.000000
v 0.500000 3.000000 0.000000
v 0.750000 3.000000 0.000000
v -0.765931 -0.000000 0.035134
v -0.984068 -0.000000 0.035134
v -0.984068 3.000000 0.035134
v -0.765932 3.000000 0.035134
v -0.984068 2.000000 0.035134
v -0.765932 2.000000 0.035134
v -0.734068 -0.000000 0.035134
v -0.734068 2.000000 0.035134
v -0.734068 3.000000 0.035134
v -0.515932 3.000000 0.035134
v -0.484068 3.000000 0.035134
v -0.265932 3.000000 0.035134
v -0.234068 3.000000 0.035134
v -0.015932 3.000000 0.035134
v 0.015932 3.000000 0.035134
v 0.234068 3.000000 0.035134
v 0.263246 3.000000 0.035134
v 0.481383 3.000000 0.035134
v 0.734069 0.000000 0.035134
v 0.734069 2.000000 0.035134
v 0.515932 3.000000 0.035134
v 0.734068 3.000000 0.035134
v 0.984069 0.000000 0.035134
v 0.765932 0.000000 0.035134
v 0.765932 3.000000 0.035134
v 0.984068 3.000000 0.035134
v 0.765932 2.000000 0.035134
v 0.984068 2.000000 0.035134
v -1.000000 0.831079 0.000000
v 1.000000 0.831080 -0.000000
v -0.750000 0.831079 -0.000000
v 0.750000 0.831080 0.000000
v -0.765932 0.831079 0.035134
v -0.984068 0.831079 0.035134
v -0.734068 0.831079 0.035134
v 0.734069 0.831080 0.035134
v 0.984069 0.831080 0.035134
v 0.765932 0.831080 0.035134
v 1.000000 0.883107 0.092446
v 1.000000 0.649580 0.092446
v 1.000000 0.883107 -0.012516
v 1.000000 0.649580 -0.012516
v -1.000000 0.883105 0.092447
v -1.000000 0.649578 0.092447
v -1.000000 0.883105 -0.012515
v -1.000000 0.649578 -0.012515
v -0.250000 2.429233 0.000000
v -0.515931 2.293449 0.035134
v -0.984068 2.154364 0.035134
v 1.000000 2.154364 -0.000000
v 0.234068 2.436292 0.035134
v -0.234068 2.435441 0.035134
v 0.250000 2.431171 -0.000000
v 0.984068 2.154364 0.035134
v 0.515932 2.287886 0.035134
v -0.000000 2.471478 -0.000000
v 0.500000 2.303721 0.000000
v -0.265931 2.424189 0.035134
v -0.734068 2.154364 0.035134
v 0.481383 2.313501 0.035134
v 0.015932 2.471478 0.035134
v 0.750000 2.154364 0.000000
v 0.765932 2.154364 0.035134
v -0.750000 2.154364 -0.000000
v -0.765932 2.154364 0.035134
v -0.015932 2.471478 0.035134
v -0.500000 2.302766 -0.000000
v -0.484068 2.312083 0.035134
v 0.734069 2.154364 0.035134
v 0.263246 2.424189 0.035134
v -1.000000 2.154364 0.000000
v -0.646208 2.000000 0.035134
v -0.646208 3.000000 0.035134
v -0.646208 -0.000000 0.035134
v -0.646208 0.831079 0.035134
v -0.646208 2.154364 0.035134
v 0.647835 2.000000 0.035134
v 0.647835 3.000000 0.035134
v 0.647835 0.000000 0.035134
v 0.647835 0.831080 0.035134
v 0.647835 2.154364 0.035134
v -0.644395 0.649578 -0.012515
v -0.644395 0.883105 0.092447
v -0.644395 0.883105 -0.012515
v -0.644395 0.649578 0.092447
v 0.647708 0.883106 -0.012516
v 0.647708 0.649579 0.092446
v 0.647708 0.649579 -0.012516
v 0.647708 0.883106 0.092446
v 1.000000 3.116765 0.092446
v 1.000000 2.883237 0.092446
v 1.000000 3.116765 -0.001371
v 1.000000 2.883237 -0.001371
v -1.000000 3.116763 0.092446
v -1.000000 2.883235 0.092446
v -1.000000 3.116763 -0.001370
v -1.000000 2.883235 -0.001370
v 0.343723 3.000000 0.035134
v 0.343723 2.397325 0.035134
v 0.175156 3.000000 0.035134
v 0.175156 2.455575 0.035134
v -0.172143 3.000000 0.035134
v -0.172143 2.457317 0.035134
v -0.341926 3.000000 0.035134
v -0.341926 2.396002 0.035134
vn 0.0216 0.9998 -0.0000
vn -0.0000 1.0000 -0.0000
vn -0.0000 -0.0000 -1.0000
vn -0.0000 -1.0000 -0.0000
vn 0.0216 -0.9998 -0.0000
vn 0.0405 0.9992 -0.0000
vn 0.0405 -0.9992 -0.0000
vn -0.0124 0.9999 -0.0000
vn -0.0405 0.9992 -0.0000
vn 0.0093 1.0000 -0.0000
vn -0.0405 -0.9992 -0.0000
vn 0.0093 -1.0000 -0.0000
vn -0.0124 -0.9999 -0.0000
vn -0.9107 -0.0000 0.4130
vn -0.9357 -0.0000 0.3528
vn 0.9107 -0.0000 0.4130
vn 0.8836 -0.0000 0.4682
vn -0.0000 -0.0000 1.0000
vt 0.940463 0.747971
vt 1.000000 0.747971
vt 1.000000 0.692612
vt 0.940463 0.692612
vt 0.247765 0.996169
vt 0.247765 0.882737
vt 0.818460 0.882737
vt 0.818460 0.996169
vt 0.059537 0.882737
vt 0.059537 0.996169
vt 0.000000 0.996169
vt 0.000000 0.882737
vt 0.940463 0.747971
vt 1.000000 0.882737
vt 1.000000 0.996169
vt 0.925665 0.996169
vt 0.925665 0.882737
vt 0.000000 0.747971
vt 0.074335 0.747971
vt 0.074335 0.692612
vt 0.000000 0.692612
vt 0.074335 0.747971
vt 0.074335 0.692612
vt 0.752235 0.747971
vt 0.752235 0.692612
vt 0.181540 0.692612
vt 0.181540 0.747971
vt 0.127938 0.882737
vt 0.127938 0.996169
vt 0.872062 0.996169
vt 0.872062 0.882737
vt 0.872062 0.692612
vt 0.872062 0.747971
vt 0.127938 0.747971
vt 0.127938 0.692612
vt 0.127938 0.747971
vt 0.181540 0.747971
vt 0.752235 0.747971
vt 0.752235 0.692612
vt 0.175539 0.648265
vt 0.175539 -0.250000
vt 0.000082 -0.250000
vt 0.000082 0.648265
vt 1.000000 0.648265
vt 1.000000 -0.250000
vt 0.827692 -0.250000
vt 0.827692 0.648265
vt 1.000000 0.708134
vt 0.827692 0.708134
vt 0.752305 0.708134
vt 0.175539 0.708134
vt 0.000082 0.708134
vt 0.175539 0.749317
vt 0.000082 0.749317
vt 0.827692 0.749317
vt 0.671686 0.749317
vt 1.000000 0.749317
vt 1.000000 0.773851
vt 0.827692 0.773851
vt 0.586852 0.773851
vt 0.175539 0.773851
vt 0.000082 0.773851
vt 0.175539 0.780423
vt 0.000082 0.780423
vt 0.827692 0.780423
vt 0.502017 0.780423
vt 1.000000 0.780423
vt 1.000000 0.999918
vt 0.827692 0.999918
vt 0.175539 0.999918
vt 0.000082 0.999918
vt 0.414021 0.773851
vt 0.329714 0.749317
vt 0.247514 0.708134
vt 1.084454 0.872802
vt 1.499965 0.872802
vt 1.499965 0.865133
vt 1.084454 0.865133
vt -0.084454 0.995896
vt -0.499965 0.995896
vt -0.499965 0.988190
vt -0.084454 0.988190
vt 0.000000 0.873889
vt 0.499965 0.872802
vt 0.499965 0.865133
vt 0.084454 0.865133
vt 1.000000 0.872802
vt 1.422788 0.872802
vt 1.422788 0.865133
vt 1.000000 0.865133
vt -0.000000 0.995896
vt -0.422788 0.995896
vt -0.422788 0.988180
vt -0.000000 0.988121
vt -0.000000 0.873889
vt 0.422788 0.872970
vt 0.422788 0.865291
vt -0.000000 0.866151
vt -0.166208 0.874976
vt 0.182384 0.874976
vt 0.177726 0.882682
vt -0.166208 0.882682
vt 0.000000 0.752466
vt -0.285363 0.752466
vt -0.282260 0.760135
vt 0.000000 0.760135
vt 0.500000 0.995896
vt 0.764242 0.995896
vt 0.764243 0.988190
vt 0.500000 0.988190
vt 0.960579 0.874976
vt 1.244973 0.874976
vt 1.248465 0.881383
vt 0.960579 0.881383
vt 1.136169 0.752466
vt 1.484284 0.752466
vt 1.492201 0.760135
vt 1.136169 0.760135
vt -0.000000 0.881664
vt -0.422788 0.882525
vt -0.422788 0.874808
vt -0.000000 0.760204
vt 0.353251 0.760155
vt 0.348592 0.752466
vt -0.000000 0.752466
vt -0.166208 0.988190
vt 0.121677 0.988190
vt 0.119155 0.995896
vt -0.166208 0.995896
vt 0.000000 0.865133
vt -0.264242 0.865133
vt -0.264242 0.872802
vt 0.000000 0.872802
vt 0.500000 0.882682
vt 0.781834 0.882682
vt 0.784394 0.874976
vt 0.500000 0.874976
vt 1.220623 0.865133
vt 1.636134 0.865133
vt 1.636134 0.872802
vt 1.220623 0.872802
vt 0.960579 0.986891
vt 1.303805 0.986891
vt 1.308694 0.995896
vt 0.960579 0.995896
vt 1.084454 0.760135
vt 1.499965 0.760135
vt 1.499965 0.752466
vt 1.084454 0.752466
vt 1.136169 0.865133
vt 1.558957 0.865133
vt 1.558957 0.872802
vt 1.136169 0.872802
vt 1.000000 0.760135
vt 1.422788 0.760135
vt 1.422788 0.752466
vt 1.000000 0.752466
vt -0.499965 0.882682
vt -0.499965 0.988190
vt -0.084454 0.882682
vt 0.499965 0.882682
vt 0.499965 0.988190
vt 0.499965 0.822842
vt 0.422788 0.822940
vt 0.084454 0.822842
vt -0.499965 0.822842
vt -0.499965 0.865133
vt 1.499965 0.760135
vt 1.499965 0.865133
vt 0.500035 0.760135
vt 0.500035 0.865133
vt -0.499965 0.882682
vt -0.499965 0.874976
vt 0.499965 0.874976
vt 0.500035 0.752466
vt 0.636204 0.865133
vt 0.636204 0.872802
vt -0.499965 0.872802
vt 0.499965 0.995896
vt 0.500035 0.872802
vt 0.177803 0.882737
vt 0.177803 0.996169
vt 0.176146 0.747971
vt 0.176146 0.692612
vt 0.822197 0.747971
vt 0.822197 0.692612
vt 0.177803 0.996169
vt -0.000000 0.823478
vt 0.135769 0.951433
vt -0.166208 0.951433
vt -0.271322 0.789942
vt 0.000000 0.789942
vt 0.772194 0.911177
vt 0.500000 0.911177
vt 1.261895 0.920308
vt 0.960579 0.920308
vt 1.558957 0.823626
vt 1.136169 0.823625
vt 1.220623 0.823625
vt 1.636134 0.823626
vt 0.636204 0.823625
vt 0.823854 0.996169
vt 0.823854 0.882737
vt 0.176146 0.747971
vt 0.176146 0.692612
s 1
usemtl MI_WoodTrim
f 21/1/1 7/2/2 5/3/2 19/4/1
f 18/5/3 28/6/3 30/7/3 16/8/3
f 27/9/3 19/10/3 5/11/3 6/12/3
f 8/2/4 13/13/5 27/4/5 6/3/4
f 2/14/3 1/15/3 15/16/3 31/17/3
f 3/18/2 25/19/6 15/20/6 1/21/2
f 9/22/7 4/18/4 2/21/4 31/23/7
f 22/24/8 18/25/8 16/26/9 24/27/9
f 19/10/3 27/9/3 29/28/3 20/29/3
f 20/29/3 29/28/3 28/6/3 18/5/3
f 31/17/3 15/16/3 17/30/3 32/31/3
f 32/31/3 17/30/3 16/8/3 30/7/3
f 21/1/1 19/4/1 20/32/10 23/33/10
f 23/33/10 20/32/10 18/25/8 22/24/8
f 15/20/6 25/19/6 26/34/2 17/35/2
f 17/35/2 26/34/2 24/27/9 16/26/9
f 9/22/7 31/23/7 32/35/4 11/36/4
f 11/36/4 32/35/4 30/26/11 10/37/11
f 27/4/5 13/13/5 14/33/12 29/32/12
f 29/32/12 14/33/12 12/38/13 28/39/13
f 10/37/11 30/26/11 28/39/13 12/38/13
s 4
f 168/181/3 166/182/3 130/11/3 129/12/3
s 5
f 172/183/4 126/18/4 124/21/4 171/184/4
s 4
f 168/185/2 129/2/2 127/3/2 167/186/2
f 169/181/18 167/187/18 127/11/18 128/12/18
f 130/2/4 166/185/4 169/186/4 128/3/4
s 5
f 125/14/3 126/15/3 172/202/3 170/203/3
f 125/18/2 170/204/2 173/205/2 123/21/2
f 124/14/18 123/15/18 173/202/18 171/203/18
s 6
f 176/14/3 177/15/3 181/11/3 180/12/3
f 181/2/4 177/18/4 175/21/4 179/3/4
f 176/18/2 180/2/2 178/3/2 174/21/2
f 175/14/18 174/15/18 178/11/18 179/12/18
s 2
usemtl MI_Plaster
f 43/40/3 38/41/3 33/42/3 41/43/3
f 42/44/3 35/45/3 39/46/3 44/47/3
f 45/48/3 42/44/3 44/47/3 47/49/3
f 47/49/3 44/47/3 65/50/3
f 46/51/3 43/40/3 41/43/3 48/52/3
f 50/53/3 46/51/3 48/52/3 52/54/3
f 51/55/3 47/49/3 65/50/3 63/56/3
f 49/57/3 45/48/3 47/49/3 51/55/3
f 53/58/3 49/57/3 51/55/3 55/59/3
f 55/59/3 51/55/3 63/56/3 61/60/3
f 54/61/3 50/53/3 52/54/3 56/62/3
f 58/63/3 54/61/3 56/62/3 60/64/3
f 59/65/3 55/59/3 61/60/3 67/66/3
f 57/67/3 53/58/3 55/59/3 59/65/3
f 36/68/3 57/67/3 59/65/3 40/69/3
f 40/69/3 59/65/3 67/66/3 58/63/3 37/70/3
f 37/70/3 58/63/3 60/64/3 34/71/3
f 62/72/3 64/73/3 50/53/3 54/61/3
f 64/73/3 66/74/3 46/51/3 50/53/3
f 66/74/3 43/40/3 46/51/3
f 67/66/3 62/72/3 54/61/3 58/63/3
s 3
usemtl MI_WoodTrim_Wear
f 116/75/14 73/76/14 108/77/14 122/78/14
f 113/79/14 69/80/14 86/81/14 118/82/14
f 115/83/14 72/84/14 91/85/14 119/86/14
f 84/87/14 146/88/14 147/89/14 109/90/14
f 76/91/14 155/92/14 133/93/14 87/94/14
f 78/95/14 148/96/14 143/97/14 93/98/14
f 79/99/14 151/100/14 152/101/14 95/102/14
f 80/103/14 131/104/14 136/105/14 97/106/14
f 81/107/14 140/108/14 145/109/14 99/110/14
f 82/111/15 137/112/15 154/113/15 101/114/15
f 83/115/14 141/116/14 139/117/14 105/118/14
f 88/119/16 149/120/16 148/121/16 78/95/16
f 94/122/16 132/123/16 151/124/16 79/125/16
f 96/126/16 142/127/16 131/128/16 80/129/16
f 98/130/16 150/131/16 140/132/16 81/133/16
f 100/134/16 135/135/16 137/136/16 82/137/16
f 120/138/16 103/139/16 73/140/16 116/141/16
f 102/142/17 144/143/17 141/144/17 83/145/17
f 121/146/16 107/147/16 71/148/16 114/149/16
f 106/150/16 153/151/16 146/152/16 84/153/16
f 110/154/16 138/155/16 134/156/16 77/157/16
f 90/158/18 149/120/18 133/93/18 89/159/18
f 117/160/18 90/161/18 89/162/18 118/82/18
f 156/163/18 160/164/18 143/97/18 92/85/18
f 159/165/18 156/166/18 92/167/18 119/86/18
f 112/168/18 138/155/18 147/89/18 111/169/18
f 121/146/18 112/170/18 111/171/18 122/78/18
f 117/160/16 85/172/16 72/173/16 115/83/16
f 90/161/16 117/160/16 115/83/16 74/174/16
f 107/147/18 121/146/18 122/78/18 108/77/18
f 158/163/18 159/165/18 119/86/18 91/85/18
f 85/172/18 117/160/18 118/82/18 86/81/18
f 112/170/16 121/146/16 114/149/16 70/175/16
f 104/176/16 120/138/16 116/141/16 75/177/16
f 74/178/14 115/83/14 119/86/14 92/167/14
f 68/179/14 113/79/14 118/82/14 89/162/14
f 75/180/14 116/75/14 122/78/14 111/171/14
f 143/97/18 160/164/18 157/188/18 93/98/18
f 147/89/14 146/88/14 75/76/14 111/169/14
f 134/156/16 138/155/16 112/168/16 70/148/16
f 133/93/14 155/92/14 68/80/14 89/159/14
f 148/121/16 149/120/16 90/158/16 74/173/16
f 146/152/16 153/151/16 104/139/16 75/140/16
f 133/93/18 149/120/18 88/119/18 87/94/18
f 160/164/18 132/123/18 94/122/18 157/188/18
f 189/189/18 142/127/18 96/126/18 188/190/18
f 187/191/18 150/131/18 98/130/18 186/192/18
f 185/193/18 135/135/18 100/134/18 184/194/18
f 183/195/18 144/143/18 102/142/18 182/196/18
f 165/197/18 153/151/18 106/150/18 162/198/18
f 147/89/18 138/155/18 110/154/18 109/90/18
f 143/97/14 148/96/14 74/84/14 92/85/14
f 139/117/18 165/197/18 162/198/18 105/118/18
f 103/139/18 120/138/18 164/199/18 163/200/18
f 120/138/18 104/176/18 161/201/18 164/199/18
f 104/139/18 153/151/18 165/197/18 161/200/18
f 154/113/18 183/195/18 182/196/18 101/114/18
f 145/109/18 185/193/18 184/194/18 99/110/18
f 136/105/18 187/191/18 186/192/18 97/106/18
f 152/101/18 189/189/18 188/190/18 95/102/18
