# Blender 4.0.2
# www.blender.org
mtllib Window_Wide_Flat3.mtl
o Window_Wide_Flat3
v -0.529415 1.158751 -0.037315
v -0.529415 1.101194 -0.037315
v -0.529415 1.158751 0.044315
v -0.529415 1.101194 0.044315
v 0.527610 1.158751 -0.037316
v 0.527610 1.101193 -0.037316
v 0.527610 1.158751 0.044315
v 0.527610 1.101193 0.044315
v 0.506388 1.501301 -0.039736
v 0.506115 1.536666 -0.039736
v 0.506436 1.494924 0.032800
v 0.506164 1.530289 0.032800
v -0.492927 1.493591 -0.039735
v -0.493199 1.528956 -0.039735
v -0.492877 1.487215 0.032800
v -0.493151 1.522580 0.032800
v -0.447869 2.423460 -0.039516
v -0.533241 2.423460 -0.039516
v -0.447869 2.423460 0.046516
v -0.533241 2.423460 0.046516
v -0.447870 1.094817 -0.039516
v -0.533242 1.094817 -0.039516
v -0.447870 1.094817 0.046516
v -0.533242 1.094817 0.046516
v 0.447868 2.423460 -0.039516
v 0.533240 2.423460 -0.039516
v 0.447868 2.423460 0.046516
v 0.533240 2.423460 0.046516
v 0.447868 1.094817 -0.039516
v 0.533240 1.094817 -0.039516
v 0.447868 1.094817 0.046516
v 0.533240 1.094817 0.046516
v 0.529413 2.348922 -0.037316
v 0.529413 2.416154 -0.037316
v 0.529413 2.348922 0.044315
v 0.529413 2.416154 0.044315
v -0.527611 2.348923 -0.037315
v -0.527611 2.416155 -0.037315
v -0.527611 2.348923 0.044315
v -0.527611 2.416155 0.044315
v -0.291022 1.117974 -0.007078
v -0.252863 1.117974 -0.007078
v -0.291022 1.117974 0.026066
v -0.252863 1.117974 0.026066
v 0.285863 1.117973 -0.007078
v 0.247704 1.117973 -0.007078
v 0.285863 1.117973 0.026065
v 0.247704 1.117973 0.026066
v 0.505470 1.114733 0.003888
v -0.505472 1.114733 0.003888
v -0.000001 1.114733 0.003888
v 0.266486 1.114733 0.003888
v -0.271644 1.114733 0.003888
v 0.505462 1.518659 0.003888
v -0.505464 1.512876 0.003888
v -0.000001 1.515768 0.003888
v 0.266482 1.517214 0.003888
v -0.271640 1.514322 0.003888
v -0.670420 2.411415 -0.228898
v -0.529583 2.411415 -0.228898
v -0.670420 2.411415 0.153762
v -0.529583 2.411415 0.153762
v -0.670419 1.094817 -0.228899
v -0.529582 1.094817 -0.228899
v -0.670419 1.094817 0.153762
v -0.529582 1.094817 0.153762
v 0.670420 2.411415 -0.228898
v 0.529583 2.411415 -0.228898
v 0.670420 2.411415 0.153762
v 0.529583 2.411415 0.153762
v 0.670419 1.094817 -0.228899
v 0.529582 1.094817 -0.228899
v 0.670419 1.094817 0.153762
v 0.529582 1.094817 0.153762
v 0.683886 2.541882 -0.266581
v 0.683886 2.401046 -0.266581
v 0.683886 2.541882 0.169162
v 0.683886 2.401046 0.169162
v -0.683888 2.541882 -0.266580
v -0.683888 2.401045 -0.266580
v -0.683887 2.541882 0.169162
v -0.683887 2.401045 0.169162
v 0.671386 1.102609 -0.266581
v 0.671386 0.961773 -0.266581
v 0.671386 1.102609 0.169162
v 0.671386 0.961773 0.169162
v -0.671388 1.102608 -0.266581
v -0.671388 0.961771 -0.266581
v -0.671388 1.102608 0.169162
v -0.671388 0.961771 0.169162
v 0.285864 1.508429 0.026066
v -0.252863 1.508429 0.026066
v -0.252863 1.508429 -0.007078
v 0.285864 1.508429 -0.007078
v -0.291022 1.508429 0.026066
v 0.247704 1.508429 0.026066
v 0.247704 1.508429 -0.007078
v -0.291022 1.508429 -0.007078
v -0.054802 2.348893 0.025776
v 0.044853 2.348893 0.025776
v -0.054802 2.348893 -0.010249
v 0.044853 2.348893 -0.010249
v 0.044853 1.538200 -0.010249
v -0.054802 1.538200 0.025777
v -0.054802 1.538200 -0.010249
v 0.044853 1.538200 0.025777
v -0.502630 1.816696 -0.006459
v -0.502630 2.285521 0.016100
v -0.502630 2.083540 0.019159
v -0.502630 1.751834 -0.009518
v -0.502630 1.603810 0.019159
v -0.502630 2.339479 -0.009518
v -0.502630 2.137497 -0.006459
v -0.502630 1.549852 -0.006459
v -0.502630 2.018677 0.016100
v -0.502630 1.816696 0.019159
v -0.502630 2.339479 0.016100
v -0.502630 1.805791 0.016100
v -0.502630 2.137497 0.019159
v -0.502630 2.072635 -0.009518
v -0.502630 1.870654 -0.006459
v -0.502630 2.285521 -0.009518
v -0.502630 2.083539 -0.006459
v -0.502630 1.751834 0.016100
v -0.502630 1.549852 0.019159
v -0.502630 2.072635 0.016100
v -0.502630 1.870654 0.019159
v -0.502630 1.805791 -0.009518
v -0.502630 1.603810 -0.006459
v -0.502630 2.018677 -0.009518
v 0.468146 2.115276 0.016100
v 0.468146 2.253784 0.019159
v 0.468146 1.720097 -0.006459
v 0.468146 1.774055 0.019159
v 0.468146 2.169234 -0.009518
v 0.468146 2.307742 -0.006459
v 0.468146 2.253784 -0.006459
v 0.468146 1.986941 -0.006459
v 0.468146 1.848433 -0.009518
v 0.468146 2.040898 0.019159
v 0.468146 1.986941 0.019159
v 0.468146 1.848433 0.016100
v 0.468146 2.169234 0.016100
v 0.468146 2.307742 0.019159
v 0.468146 1.902390 0.016100
v 0.468146 2.040898 -0.006459
v 0.468146 1.902390 -0.009518
v 0.468146 2.115276 -0.009518
v 0.466347 1.581589 0.016227
v 0.468146 1.720097 0.019159
v 0.468146 1.581589 -0.009518
v 0.468146 1.635547 -0.009518
v 0.466347 1.635547 0.016227
v 0.468146 1.774055 -0.006459
v -0.477872 1.556976 -0.029096
v -0.477872 1.505013 -0.029096
v -0.477872 1.556976 0.027874
v -0.477872 1.505013 0.027874
v 0.476399 1.556975 -0.029096
v 0.476399 1.505013 -0.029096
v 0.476399 1.556975 0.027874
v 0.476399 1.505013 0.027874
v -0.404253 2.389273 -0.030632
v -0.481326 2.389273 -0.030632
v -0.404253 2.389273 0.029410
v -0.481326 2.389273 0.029410
v -0.404254 1.499256 -0.030632
v -0.481327 1.499256 -0.030632
v -0.404254 1.499256 0.029410
v -0.481327 1.499256 0.029410
v 0.404409 2.389272 -0.030632
v 0.481482 2.389272 -0.030632
v 0.404409 2.389272 0.029410
v 0.481482 2.389272 0.029410
v 0.404409 1.499256 -0.030632
v 0.481482 1.499256 -0.030632
v 0.404409 1.499256 0.029410
v 0.481482 1.499256 0.029410
v 0.478027 2.321981 -0.029096
v 0.478027 2.382677 -0.029096
v 0.478027 2.321981 0.027874
v 0.478027 2.382677 0.027874
v -0.476243 2.321981 -0.029096
v -0.476243 2.382678 -0.029096
v -0.476243 2.321981 0.027874
v -0.476243 2.382678 0.027874
v 0.506224 2.116205 0.008704
v 0.400101 2.215834 0.008704
v -0.504572 1.843704 0.008705
v -0.504572 2.112138 0.008705
v 0.506224 1.790367 0.008704
v 0.506224 2.060426 0.008704
v 0.263995 2.343610 0.008704
v 0.506224 2.321221 0.008704
v -0.504573 1.579338 0.008705
v 0.402403 1.954841 0.008704
v 0.267111 2.083766 0.008704
v 0.506224 1.855906 0.008704
v -0.003929 2.342050 0.008704
v 0.132085 2.212437 0.008704
v -0.272239 2.340695 0.008704
v 0.506224 1.573237 0.008704
v -0.004436 2.076679 0.008704
v 0.128250 1.945868 0.008704
v 0.262977 1.813046 0.008704
v -0.138121 2.208474 0.008704
v 0.396900 1.681016 0.008704
v -0.136769 1.945086 0.008704
v 0.131669 1.679507 0.008704
v -0.004405 1.814132 0.008704
v -0.404814 2.210275 0.008705
v -0.504572 2.308970 0.008705
v 0.264253 1.548335 0.008704
v -0.270153 2.077048 0.008705
v -0.001534 1.544040 0.008704
v -0.504572 2.044026 0.008705
v -0.403875 1.943940 0.008705
v -0.270866 1.811738 0.008705
v -0.138899 1.680571 0.008705
v -0.406302 1.677060 0.008705
v -0.274276 1.546132 0.008705
v -0.504572 1.774514 0.008705
v -0.504573 1.520249 0.008705
v 0.316599 1.520249 0.016100
v 0.049756 1.520249 -0.009518
v 0.214340 1.520249 0.019159
v 0.268298 1.520249 0.019159
v 0.262642 1.520249 -0.009518
v 0.001454 1.520249 0.019159
v -0.265389 1.520249 -0.006459
v 0.316599 1.520249 -0.009518
v 0.049756 1.520249 0.016100
v -0.271046 1.520249 0.016100
v -0.271046 1.520249 -0.009518
v 0.022402 1.520249 0.008704
v -0.248177 1.520249 0.008705
v -0.004202 1.520249 0.016100
v -0.024927 1.520249 0.008704
v 0.292641 1.520249 0.008704
v -0.052503 1.520249 0.019159
v 0.268298 1.520249 -0.006459
v -0.265389 1.520249 0.019159
v 0.001454 1.520249 -0.006459
v 0.506224 1.520249 0.008704
v 0.236175 1.520249 0.008704
v 0.214341 1.520249 -0.006459
v -0.004202 1.520249 -0.009518
v -0.052503 1.520249 -0.006459
v -0.319347 1.520249 0.019159
v -0.300340 1.520249 0.008705
v -0.217088 1.520249 -0.009518
v 0.262642 1.520249 0.016100
v -0.319347 1.520249 -0.006459
v -0.217088 1.520249 0.016100
v 0.259521 2.365961 -0.006459
v 0.217462 2.365961 -0.009518
v -0.007323 2.365961 -0.006459
v -0.049382 2.365960 -0.009518
v 0.259521 2.365960 0.019159
v -0.504572 2.365961 0.008705
v 0.004576 2.365961 -0.009518
v -0.274167 2.365960 -0.006459
v -0.220209 2.365960 -0.006459
v -0.297866 2.365961 0.008705
v -0.029020 2.365960 0.008704
v -0.262268 2.365960 -0.009518
v -0.316226 2.365960 -0.009518
v -0.318025 2.365961 0.016227
v 0.240187 2.365961 0.008704
v 0.313478 2.365960 -0.006459
v 0.271419 2.365961 0.016100
v -0.246556 2.365960 0.008704
v 0.271419 2.365960 -0.009518
v -0.264067 2.365960 0.016227
v 0.217462 2.365960 0.016100
v -0.007323 2.365960 0.019159
v -0.220209 2.365960 0.019159
v 0.004576 2.365961 0.016100
v 0.286471 2.365961 0.008704
v 0.046634 2.365960 -0.006459
v 0.506224 2.365961 0.008704
v -0.049382 2.365960 0.016100
v 0.020092 2.365961 0.008704
v 0.313478 2.365961 0.019159
v -0.274167 2.365960 0.019159
v 0.046635 2.365961 0.019159
vn -0.0000 -0.0000 1.0000
vn -0.0000 -1.0000 -0.0000
vn -0.0000 1.0000 -0.0000
vn -0.0000 -0.0000 -1.0000
vn -0.0077 0.9961 0.0876
vn 0.0077 -0.9961 -0.0876
vn -1.0000 -0.0000 -0.0000
vn 1.0000 -0.0000 -0.0000
vn -0.7071 -0.7071 -0.0000
vn -0.7071 0.7071 -0.0000
vn 0.7071 -0.7071 -0.0000
vn 0.7071 0.7071 -0.0000
vn 0.7062 0.7062 0.0493
vn -0.7062 -0.7062 -0.0493
vt 0.680145 0.388303
vt 0.680145 0.438890
vt -0.620078 0.438890
vt -0.620078 0.388303
vt 1.300223 0.438890
vt 0.000000 0.438890
vt 0.000000 0.388303
vt 1.300223 0.388303
vt 1.724977 0.388303
vt 1.724977 0.438890
vt 0.424754 0.438890
vt 0.424754 0.388303
vt 0.335357 0.375915
vt 0.335357 0.213070
vt 0.496952 0.213070
vt 0.496952 0.375915
vt 0.164458 0.213070
vt 0.326053 0.213070
vt 0.326053 0.375915
vt 0.164458 0.375915
vt 1.346729 0.388303
vt 0.046506 0.388303
vt 0.046506 0.438890
vt 1.346729 0.438890
vt 0.832064 0.388303
vt 0.832064 0.438890
vt 0.430640 0.438890
vt 0.430640 0.388303
vt -0.468159 0.438890
vt -0.066735 0.438890
vt -0.066735 0.388303
vt -0.468159 0.388303
vt 1.449042 0.388303
vt 1.047617 0.388303
vt 1.047617 0.438890
vt 1.449042 0.438890
vt 0.148819 0.438890
vt 0.148819 0.388303
vt 0.550243 0.388303
vt 0.550243 0.438890
vt 0.500000 0.000000
vt 0.500000 0.996408
vt 0.000007 0.992815
vt 0.000000 0.000000
vt 0.000000 0.996427
vt 0.000000 0.000000
vt 1.000000 0.000000
vt 1.000000 0.996427
vt 1.000000 0.000000
vt 0.999992 1.000000
vt 0.083990 0.209792
vt 0.083990 0.378749
vt 0.157543 0.378749
vt 0.157543 0.209792
vt 0.722656 0.692001
vt 0.000000 0.692001
vt 0.000000 0.749964
vt 0.722656 0.749964
vt 0.722656 0.873930
vt 0.722656 0.756432
vt 0.000000 0.756432
vt 0.000000 0.873930
vt 1.000000 0.692001
vt 1.000000 0.749964
vt 1.000000 0.873930
vt 1.000000 0.756432
vt -0.364296 0.998930
vt -0.364296 0.881432
vt 0.635704 0.881432
vt 0.635704 0.998930
vt 1.502264 0.692001
vt 0.502264 0.692001
vt 0.502264 0.749964
vt 1.502264 0.749964
vt -0.066735 0.388303
vt -0.066735 0.438890
vt 0.500000 0.438747
vt 0.000000 0.438747
vt 0.000000 0.382826
vt 0.500000 0.382826
vt 1.000000 0.572190
vt 1.000000 0.685622
vt 0.500000 0.685622
vt 0.500000 0.572190
vt 0.002956 0.388303
vt -0.023878 0.438890
vt -0.251115 0.438890
vt -0.277949 0.388303
vt 0.031023 0.388303
vt -0.199318 0.388303
vt -0.199318 0.438890
vt 0.031023 0.438890
vt 0.387783 0.388303
vt 0.387783 0.438890
vt 0.615020 0.438890
vt 0.615020 0.388303
vt 0.506945 0.388303
vt 0.533779 0.438890
vt -0.277949 0.438890
vt -0.251115 0.388303
vt 0.268367 0.388303
vt 0.241533 0.438890
vt -0.251115 0.438890
vt -0.277949 0.388303
vt 0.561846 0.388303
vt -0.199318 0.388303
vt -0.199318 0.438890
vt 0.561846 0.438890
vt -0.023878 0.388303
vt 0.002956 0.438890
vt -0.277949 0.438890
vt -0.251115 0.388303
vt 0.122371 0.388303
vt 0.122371 0.438890
vt 0.615020 0.438890
vt 0.615020 0.388303
vt 0.533779 0.388303
vt 0.506945 0.438890
vt -0.251115 0.438890
vt -0.277949 0.388303
vt 0.296435 0.388303
vt -0.199318 0.388303
vt -0.199318 0.438890
vt 0.296435 0.438890
vt 0.241533 0.388303
vt 0.268367 0.438890
vt -0.277949 0.438890
vt -0.251115 0.388303
vt -0.143040 0.388303
vt -0.143040 0.438890
vt 0.615020 0.438890
vt 0.615020 0.388303
vt -0.000543 0.388303
vt -0.000543 0.438890
vt -0.199318 0.438890
vt -0.199318 0.388303
vt -0.028610 0.388303
vt -0.277949 0.388303
vt -0.251115 0.438890
vt -0.055445 0.438890
vt 0.475378 0.388303
vt -0.277949 0.438890
vt 0.502212 0.438890
vt 0.236801 0.388303
vt -0.277949 0.388303
vt 0.209967 0.438890
vt 0.419349 0.388303
vt 0.615020 0.388303
vt 0.615020 0.438890
vt 0.419349 0.438890
vt 0.153938 0.388303
vt 0.615020 0.438890
vt 0.153938 0.438890
vt 0.502212 0.388303
vt -0.277949 0.388303
vt -0.251115 0.438890
vt 0.475378 0.438890
vt 0.530280 0.388303
vt 0.530279 0.438890
vt -0.199318 0.438890
vt -0.199318 0.388303
vt -0.111474 0.388303
vt 0.615020 0.438890
vt -0.111474 0.438890
vt -0.055445 0.388303
vt -0.277949 0.438890
vt -0.028611 0.438890
vt 0.209967 0.388303
vt -0.251115 0.388303
vt -0.277949 0.438890
vt 0.236801 0.438890
vt 0.264868 0.388303
vt 0.264868 0.438890
vt -0.199318 0.438890
vt -0.199318 0.388303
vt 0.280564 0.557535
vt 0.280564 0.457746
vt 0.379587 0.457746
vt 0.379587 0.557535
vt 0.193438 0.447160
vt 0.313469 0.447160
vt 0.313469 0.568120
vt 0.193438 0.568120
vt 0.000000 0.008171
vt 0.994631 1.000000
vt 0.000000 1.000000
vt 0.029190 0.002780
vt 0.770359 0.000000
vt 0.927133 0.169072
vt 0.157083 0.999525
vt 0.000000 0.002807
vt 0.995833 1.000000
vt 0.023446 0.000000
vt 0.794590 0.006678
vt 1.000000 0.217790
vt 0.976083 0.996511
vt 0.000000 1.000000
vt 0.030707 0.000000
vt 1.000000 0.996424
vt 0.000000 0.002302
vt 0.996961 1.000000
vt 0.023413 0.003484
vt 0.969308 0.997214
vt 0.023754 0.002767
vt 0.994594 0.173292
vt 0.177864 0.999586
vt 0.000000 0.991373
vt 0.023332 0.000000
vt 1.000000 1.000000
vt 0.006727 0.000000
vt 1.000000 0.008855
vt 0.977512 0.996402
vt 0.006731 0.003640
vt 1.000000 0.000000
vt 0.977194 0.997114
vt 0.000000 0.999871
vt 0.007066 0.000000
vt 0.006893 0.002866
vt 0.976653 0.997687
vt 0.007030 0.002307
vt 0.995621 0.183558
vt 0.188931 0.998436
vt 0.000000 0.991171
vt 0.006617 0.000000
vt 0.770930 0.000104
vt 1.000000 0.244359
vt 0.982923 1.000000
vt 0.005443 0.000000
vt 1.000000 0.008243
vt 0.992848 0.996603
vt 0.005305 0.003480
vt 0.992944 0.997201
vt 0.005354 0.002779
vt 0.992877 0.997723
vt 0.005415 0.002257
vt 0.992843 0.991975
vt 0.000000 0.720595
vt 0.004024 0.007740
vt 0.998628 0.182810
vt 0.215824 0.925306
vt 0.000000 0.991611
vt 0.005294 0.000000
vt 1.000000 0.000128
vt 0.992902 1.000000
vt 0.003091 0.000000
vt 1.000000 0.008264
vt 0.994622 0.996596
vt 0.002978 0.003531
vt 0.994756 0.997162
vt 0.003008 0.002818
vt 0.994704 0.997692
vt 0.000000 0.747275
vt 0.002283 0.002278
vt 0.994636 0.993983
vt 0.254679 1.000000
vt 0.004051 0.003557
vt 0.997045 0.997131
vt 0.000000 0.739564
vt 0.003015 0.002850
vt 0.997022 0.998260
vt 0.255382 1.000000
vt 0.159974 0.775756
vt 0.829666 0.000686
vt 0.996402 0.997915
vt 0.353731 1.000000
vt 0.590057 0.388303
vt 0.563223 0.438890
vt 0.364448 0.438890
vt 0.337614 0.388303
vt -0.226152 0.388303
vt -0.226152 0.438890
vt 0.291702 0.438890
vt 0.291702 0.388303
vt 0.590057 0.388303
vt 0.099036 0.438890
vt 0.072202 0.388303
vt 0.650653 0.997737
vt 0.997283 0.651107
vt 0.995842 0.996536
vt 0.000801 0.811691
vt 0.825665 0.002953
vt 1.000000 0.004393
vt 0.996922 0.996600
vt 0.590057 0.438890
vt 0.563223 0.388303
vt -0.197941 0.388303
vt -0.224776 0.438890
vt 0.590057 0.438890
vt 0.563223 0.388303
vt 0.067470 0.388303
vt 0.040636 0.438890
vt 0.590057 0.438890
vt -0.193209 0.438890
vt -0.166375 0.388303
vt 0.670140 0.997270
vt 0.997937 0.672203
vt 0.996931 1.000000
vt -0.226152 0.438890
vt 0.557114 0.438890
vt 0.557114 0.388303
vt 0.563223 0.388303
vt 0.590057 0.438890
vt 0.072202 0.438890
vt 0.099036 0.388303
vt 0.590057 0.438890
vt 0.563223 0.388303
vt 0.332881 0.388303
vt 0.306047 0.438890
vt 0.000538 0.810483
vt 0.792049 0.000047
vt 1.000000 0.000075
vt 0.994771 1.000000
vt 0.000000 0.991419
vt -0.226152 0.438890
vt -0.226152 0.388303
vt 0.057857 0.388303
vt 0.057857 0.438890
vt 0.590057 0.388303
vt 0.563223 0.438890
vt -0.166375 0.438890
vt -0.193209 0.388303
vt 0.590057 0.438890
vt 0.337614 0.438890
vt 0.364448 0.388303
vt -0.226152 0.388303
vt -0.226152 0.438890
vt 0.026291 0.438890
vt 0.026291 0.388303
vt 0.563223 0.438890
vt 0.590057 0.388303
vt 0.040636 0.388303
vt 0.067470 0.438890
vt 0.563223 0.438890
vt 0.306047 0.388303
vt 0.332881 0.438890
vt 0.631248 0.999953
vt 0.996602 0.634647
vt 0.994645 1.000000
vt -0.226153 0.438890
vt -0.226152 0.388303
vt 0.323269 0.388303
vt 0.323269 0.438890
vt 0.001133 0.822792
vt 0.801448 0.152996
vt 1.000000 0.319167
vt 0.994210 1.000000
vt 0.000000 0.999894
vt -0.226152 0.438890
vt -0.226152 0.388303
vt 0.588680 0.388303
vt 0.588680 0.438890
vt 0.563223 0.438890
vt 0.590057 0.388303
vt -0.224776 0.388303
vt -0.197941 0.438890
vt 0.641854 0.388303
vt 0.641854 0.438890
vt -0.169874 0.438890
vt -0.169874 0.388303
vt 0.194687 0.000000
vt 0.240477 0.000000
vt 0.192504 0.000000
vt 0.641854 0.388303
vt 0.641854 0.438890
vt 0.095537 0.438890
vt 0.095537 0.388303
vt 0.641854 0.438890
vt 0.360949 0.438890
vt 0.360949 0.388303
vt 0.546038 0.001045
vt 0.011184 0.535897
vt 0.024045 0.002247
vt 0.641854 0.438890
vt 0.641854 0.388303
vt 0.127104 0.388303
vt 0.127104 0.438890
vt 0.551721 0.003673
vt 0.003188 0.552209
vt 0.007061 0.008136
vt 0.641854 0.438890
vt 0.641854 0.388303
vt -0.138308 0.388303
vt -0.138308 0.438890
vt 0.641854 0.438890
vt 0.641854 0.388303
vt 0.392515 0.388303
vt 0.392515 0.438890
s 0
usemtl MI_WoodTrim
f 3/1/1 4/2/1 8/3/1 7/4/1
f 8/5/2 4/6/2 2/7/2 6/8/2
f 3/6/3 7/5/3 5/8/3 1/7/3
f 2/8/4 1/5/4 5/6/4 6/7/4
f 11/9/1 12/10/1 16/11/1 15/12/1
f 16/5/5 12/6/5 10/7/5 14/8/5
f 11/6/6 15/5/6 13/8/6 9/7/6
f 10/8/4 9/5/4 13/6/4 14/7/4
f 19/1/1 20/2/1 24/3/1 23/4/1
f 24/5/7 20/6/7 18/7/7 22/8/7
f 19/6/8 23/5/8 21/8/8 17/7/8
f 18/8/4 17/5/4 21/6/4 22/7/4
f 19/13/3 17/14/3 18/15/3 20/16/3
f 23/17/2 24/18/2 22/19/2 21/20/2
f 27/21/1 31/22/1 32/23/1 28/24/1
f 32/5/8 30/8/8 26/7/8 28/6/8
f 27/6/7 25/7/7 29/8/7 31/5/7
f 26/8/4 30/7/4 29/6/4 25/5/4
f 27/13/3 28/16/3 26/15/3 25/14/3
f 31/17/2 29/20/2 30/19/2 32/18/2
f 35/1/1 36/2/1 40/3/1 39/4/1
f 40/5/3 36/6/3 34/7/3 38/8/3
f 35/6/2 39/5/2 37/8/2 33/7/2
f 34/8/4 33/5/4 37/6/4 38/7/4
f 43/25/1 44/26/1 92/27/1 95/28/1
f 43/29/7 95/30/7 98/31/7 41/32/7
f 42/25/4 41/26/4 98/27/4 93/28/4
f 47/33/1 91/34/1 96/35/1 48/36/1
f 47/37/8 45/38/8 94/39/8 91/40/8
f 46/33/4 97/34/4 94/35/4 45/36/4
f 65/51/2 63/52/2 64/53/2 66/54/2
f 61/55/1 65/56/1 66/57/1 62/58/1
f 66/59/8 64/60/8 60/61/8 62/62/8
f 61/62/7 59/61/7 63/60/7 65/59/7
f 60/55/4 64/56/4 63/57/4 59/58/4
f 73/51/2 74/54/2 72/53/2 71/52/2
f 69/55/1 70/58/1 74/57/1 73/56/1
f 74/59/7 70/62/7 68/61/7 72/60/7
f 69/62/8 73/59/8 71/60/8 67/61/8
f 68/55/4 67/58/4 71/57/4 72/56/4
f 75/52/8 77/51/8 78/54/8 76/53/8
f 81/51/7 79/52/7 80/53/7 82/54/7
f 77/63/1 81/56/1 82/57/1 78/64/1
f 82/65/2 80/66/2 76/61/2 78/62/2
f 77/67/3 75/68/3 79/69/3 81/70/3
f 83/52/8 85/51/8 86/54/8 84/53/8
f 89/51/7 87/52/7 88/53/7 90/54/7
f 85/63/1 89/56/1 90/57/1 86/64/1
f 90/65/2 88/66/2 84/61/2 86/62/2
f 85/67/3 83/68/3 87/69/3 89/70/3
f 84/71/4 88/72/4 87/73/4 83/74/4
f 76/71/4 80/72/4 79/73/4 75/74/4
f 93/75/8 92/76/8 44/29/8 42/32/8
f 96/40/7 97/39/7 46/38/7 48/37/7
f 103/77/8 102/78/8 100/79/8 106/80/8
f 100/81/1 99/82/1 104/83/1 106/84/1
f 101/78/7 105/77/7 104/80/7 99/79/7
f 101/81/4 102/82/4 103/83/4 105/84/4
f 123/85/4 113/86/4 262/87/4 263/88/4
f 110/89/9 234/90/9 233/91/9 124/92/9
f 113/93/10 119/94/10 285/95/10 262/96/10
f 111/97/1 125/98/1 284/99/1 259/100/1
f 107/101/4 121/102/4 257/103/4 280/104/4
f 122/105/9 228/106/9 252/107/9 108/108/9
f 119/109/1 109/110/1 277/111/1 285/112/1
f 121/113/10 127/114/10 276/115/10 257/116/10
f 114/117/4 129/118/4 255/119/4 270/120/4
f 130/121/9 247/122/9 237/123/9 115/124/9
f 127/125/1 116/126/1 286/127/1 276/128/1
f 129/129/10 111/130/10 259/131/10 255/132/10
f 133/133/11 150/134/11 227/135/11 241/136/11
f 148/137/4 256/138/4 273/139/4 135/140/4
f 153/141/1 274/100/1 268/142/1 149/143/1
f 139/144/4 258/145/4 261/103/4 147/146/4
f 135/147/12 273/148/12 271/149/12 143/150/12
f 147/151/12 261/116/12 278/152/12 145/153/12
f 151/154/4 267/155/4 266/156/4 152/157/4
f 137/158/11 132/159/11 242/160/11 230/161/11
f 152/162/13 266/132/13 274/163/13 153/164/13
f 143/165/1 271/112/1 275/166/1 131/167/1
f 145/168/1 278/169/1 282/170/1 142/171/1
f 138/172/11 141/173/11 229/174/11 243/175/11
f 157/1/1 158/2/1 162/3/1 161/4/1
f 162/5/2 158/6/2 156/7/2 160/8/2
f 157/6/3 161/5/3 159/8/3 155/7/3
f 156/8/4 155/5/4 159/6/4 160/7/4
f 165/1/1 166/2/1 170/3/1 169/4/1
f 170/5/7 166/6/7 164/7/7 168/8/7
f 165/6/8 169/5/8 167/8/8 163/7/8
f 164/8/4 163/5/4 167/6/4 168/7/4
f 165/176/3 163/177/3 164/178/3 166/179/3
f 169/180/2 170/181/2 168/182/2 167/183/2
f 173/21/1 177/22/1 178/23/1 174/24/1
f 178/5/8 176/8/8 172/7/8 174/6/8
f 173/6/7 171/7/7 175/8/7 177/5/7
f 172/8/4 176/7/4 175/6/4 171/5/4
f 173/176/3 174/179/3 172/178/3 171/177/3
f 177/180/2 175/183/2 176/182/2 178/181/2
f 181/1/1 182/2/1 186/3/1 185/4/1
f 186/5/3 182/6/3 180/7/3 184/8/3
f 181/6/2 185/5/2 183/8/2 179/7/2
f 180/8/4 179/5/4 183/6/4 184/7/4
f 226/266/1 227/267/1 150/268/1 134/269/1
f 248/270/10 240/271/10 140/272/10 146/273/10
f 240/274/1 229/267/1 141/275/1 140/276/1
f 231/284/4 228/285/4 122/286/4 112/287/4
f 225/288/4 247/289/4 130/290/4 120/291/4
f 230/289/4 253/292/4 136/293/4 137/294/4
f 253/270/10 249/298/10 144/299/10 136/300/10
f 243/301/4 248/302/4 146/303/4 138/304/4
f 251/305/4 234/306/4 110/307/4 128/308/4
f 254/314/12 251/315/12 128/316/12 118/317/12
f 249/318/1 242/319/1 132/320/1 144/321/1
f 241/306/4 246/322/4 154/323/4 133/324/4
f 246/325/10 226/326/10 134/327/10 154/328/10
f 237/329/1 232/330/1 126/331/1 115/332/1
f 233/333/1 254/274/1 118/334/1 124/335/1
f 232/339/12 225/340/12 120/341/12 126/342/12
f 224/348/12 231/349/12 112/350/12 117/351/12
f 252/352/1 224/353/1 117/354/1 108/355/1
f 270/356/11 284/357/11 125/358/11 114/359/11
f 280/363/11 286/364/11 116/365/11 107/366/11
f 263/363/11 277/367/11 109/368/11 123/369/11
f 282/373/9 258/374/9 139/375/9 142/376/9
f 268/380/14 267/381/14 151/382/14 149/383/14
f 275/384/9 256/385/9 148/386/9 131/387/9
usemtl MI_WindowGlass
f 51/41/1 56/42/1 58/43/1 53/44/1
f 49/45/1 54/46/1 57/47/1 52/48/1
f 52/49/1 57/50/1 56/42/1 51/41/1
f 53/47/1 58/48/1 55/45/1 50/46/1
f 190/184/1 211/49/1 212/185/1
f 193/186/1 188/187/1 194/188/1 281/189/1 279/190/1
f 195/191/1 220/49/1 222/192/1
f 197/186/1 196/193/1 192/194/1 187/195/1 188/196/1
f 188/197/1 187/198/1 194/199/1
f 189/200/1 217/49/1 216/201/1
f 200/197/1 197/202/1 188/49/1 193/203/1
f 199/186/1 200/204/1 193/49/1 269/205/1 283/206/1
f 196/207/1 198/208/1 192/209/1
f 204/186/1 205/210/1 196/211/1 197/212/1
f 203/186/1 204/213/1 197/214/1 200/215/1
f 207/216/1 202/217/1 191/209/1
f 206/186/1 203/218/1 200/49/1 199/219/1
f 201/186/1 206/220/1 199/49/1 265/221/1 272/222/1
f 205/223/1 207/224/1 191/225/1 198/226/1 196/227/1
f 210/186/1 209/228/1 205/229/1 204/230/1
f 208/197/1 210/231/1 204/49/1 203/232/1
f 214/186/1 208/233/1 203/49/1 206/234/1
f 211/186/1 214/235/1 206/49/1 201/236/1
f 212/237/1 211/238/1 201/49/1 264/239/1 260/240/1
f 209/241/1 213/242/1 207/243/1 205/244/1
f 219/186/1 215/245/1 209/246/1 210/247/1
f 218/186/1 219/248/1 210/49/1 208/249/1
f 217/186/1 218/250/1 208/49/1 214/251/1
f 216/252/1 217/253/1 214/49/1 211/254/1 190/255/1
f 220/186/1 221/256/1 219/49/1 218/257/1
f 222/258/1 220/259/1 218/214/1 217/260/1 189/261/1
f 223/262/1 250/263/1 221/49/1 220/264/1 195/265/1
f 250/277/1 236/278/1 221/279/1
f 236/280/1 238/281/1 215/282/1 219/283/1 221/186/1
f 238/295/1 235/296/1 215/297/1
f 235/309/1 245/310/1 213/311/1 209/312/1 215/313/1
f 245/336/1 239/337/1 213/338/1
f 239/343/1 244/344/1 202/345/1 207/346/1 213/347/1
f 279/360/1 269/361/1 193/362/1
f 283/370/1 265/371/1 199/372/1
f 272/377/1 264/378/1 201/379/1
