# Blender 4.0.2
# www.blender.org
mtllib Window_Thin_Flat2.mtl
o Window_Thin_Flat2
v -0.295673 1.171728 -0.037315
v -0.295673 1.114170 -0.037315
v -0.295673 1.171728 0.044315
v -0.295673 1.114170 0.044315
v 0.284026 1.171727 -0.037316
v 0.284026 1.114169 -0.037316
v 0.284026 1.171727 0.044315
v 0.284026 1.114169 0.044315
v -0.214128 2.442165 -0.039516
v -0.299500 2.442165 -0.039516
v -0.214128 2.442165 0.046516
v -0.299500 2.442165 0.046516
v -0.214129 1.107793 -0.039516
v -0.299500 1.107793 -0.039516
v -0.214129 1.107793 0.046516
v -0.299500 1.107793 0.046516
v 0.204285 2.442165 -0.039516
v 0.289657 2.442165 -0.039516
v 0.204285 2.442165 0.046516
v 0.289657 2.442165 0.046516
v 0.204285 1.107793 -0.039516
v 0.289657 1.107793 -0.039516
v 0.204285 1.107793 0.046516
v 0.289657 1.107793 0.046516
v 0.285830 2.367628 -0.037316
v 0.285830 2.434860 -0.037316
v 0.285830 2.367628 0.044315
v 0.285830 2.434860 0.044315
v -0.293869 2.367628 -0.037315
v -0.293869 2.434860 -0.037315
v -0.293869 2.367628 0.044315
v -0.293869 2.434860 0.044315
v -0.397311 2.430120 -0.228898
v -0.295841 2.430120 -0.228898
v -0.397311 2.430120 0.153762
v -0.295841 2.430120 0.153762
v -0.397310 1.107793 -0.228899
v -0.295840 1.107793 -0.228899
v -0.397310 1.107793 0.153762
v -0.295840 1.107793 0.153762
v 0.372707 2.430120 -0.228898
v 0.286000 2.430120 -0.228898
v 0.372707 2.430120 0.153762
v 0.286000 2.430120 0.153762
v 0.372706 1.107793 -0.228899
v 0.285999 1.107793 -0.228899
v 0.372706 1.107793 0.153762
v 0.285999 1.107793 0.153762
v 0.382913 2.532715 -0.266581
v 0.382913 2.419751 -0.266581
v 0.382913 2.532715 0.169162
v 0.382913 2.419751 0.169162
v -0.405058 2.532714 -0.266580
v -0.405058 2.419750 -0.266580
v -0.405058 2.532714 0.169162
v -0.405058 2.419750 0.169162
v 0.373673 1.115586 -0.266581
v 0.373673 0.974749 -0.266581
v 0.373673 1.115586 0.169162
v 0.373673 0.974749 0.169162
v -0.398279 1.115585 -0.266581
v -0.398279 0.974748 -0.266581
v -0.398279 1.115585 0.169162
v -0.398279 0.974748 0.169162
v 0.207640 1.337520 0.010474
v 0.102449 1.437760 0.010474
v -0.212536 1.537678 0.010474
v -0.003907 1.331998 0.010474
v 0.099461 1.230091 0.010474
v -0.108053 1.434672 0.010474
v -0.107000 1.229482 0.010474
v -0.210911 1.332286 0.010474
v -0.002404 1.537678 0.010474
v 0.207631 1.537678 0.010474
v -0.004572 1.537678 0.010474
v 0.202929 1.537678 0.010474
v 0.207640 1.958148 0.010474
v 0.102449 2.058388 0.010474
v -0.212536 2.158307 0.010474
v -0.003907 1.952627 0.010474
v 0.099461 1.850719 0.010474
v 0.204419 1.747245 0.010474
v -0.108053 2.055300 0.010474
v -0.107000 1.850110 0.010474
v 0.102125 1.643213 0.010474
v -0.003883 1.748092 0.010474
v -0.210911 1.952914 0.010474
v -0.211467 1.746227 0.010474
v -0.108659 1.644042 0.010474
v -0.002404 2.158307 0.010474
v 0.207631 2.158307 0.010474
v -0.004572 2.158307 0.010474
v 0.202929 2.158307 0.010474
v 0.204419 2.367874 0.010474
v 0.102125 2.263841 0.010474
v -0.003883 2.368720 0.010474
v -0.211467 2.366855 0.010474
v -0.108659 2.264671 0.010474
v -0.262867 1.415586 0.020503
v -0.262867 1.832888 -0.010648
v -0.262867 2.090236 0.014576
v -0.262867 1.778453 0.020503
v -0.262867 2.250191 -0.010648
v -0.262867 1.987105 0.020503
v -0.262867 1.727368 -0.004721
v -0.262867 1.797315 0.010474
v -0.262867 1.881585 0.014576
v -0.262867 2.144671 0.014576
v -0.262867 1.901197 0.010474
v -0.262867 2.108794 0.010474
v -0.262867 2.315743 0.010474
v -0.262867 2.041540 -0.010648
v -0.262867 1.518717 0.014576
v -0.262867 1.310066 0.014576
v -0.262867 2.195756 0.020503
v -0.262867 2.090236 -0.004721
v -0.262867 1.280569 0.010474
v -0.262867 1.624237 0.020503
v -0.262867 1.255631 -0.004721
v -0.262867 1.569802 -0.010648
v -0.262867 1.778454 -0.010648
v -0.262867 1.176687 0.010474
v -0.262867 1.624237 -0.010648
v -0.262867 2.353322 -0.004721
v -0.262867 1.464282 0.014576
v -0.262867 1.537678 0.010474
v -0.262867 1.832888 0.020503
v -0.262867 2.208246 0.010474
v -0.262867 1.936020 -0.004721
v -0.262867 1.255631 0.014576
v -0.262867 2.195756 -0.010648
v -0.262867 1.464283 -0.004721
v -0.262867 1.587618 0.010474
v -0.262867 1.672933 0.014576
v -0.262867 2.158307 0.010474
v -0.262867 2.004317 0.010474
v -0.262867 2.298887 0.014576
v -0.262867 2.353322 0.014576
v -0.262867 1.695114 0.010474
v -0.262867 1.518718 -0.004721
v -0.262867 1.152499 0.020503
v -0.262867 1.206934 0.020503
v -0.262867 2.250190 0.020503
v -0.262867 2.298887 -0.004721
v -0.262867 1.383689 0.010474
v -0.262867 1.488165 0.010474
v -0.262867 1.152499 -0.010648
v -0.262867 1.936020 0.014576
v -0.262867 1.415586 -0.010648
v -0.262867 1.727368 0.014576
v -0.262867 1.672934 -0.004721
v -0.262868 2.041540 0.020503
v -0.262867 1.569802 0.020503
v -0.262867 1.881585 -0.004721
v -0.262867 1.206934 -0.010648
v -0.262867 1.987104 -0.010648
v -0.262867 1.310066 -0.004721
v -0.262867 1.361151 0.020503
v -0.262867 2.144671 -0.004721
v -0.262867 1.361151 -0.010648
v 0.252803 1.317218 -0.010648
v 0.252803 1.734520 0.020503
v 0.252803 1.734520 -0.010648
v 0.252803 1.471434 0.020503
v 0.252803 2.320174 0.010474
v 0.252804 1.979953 -0.004721
v 0.252804 1.262783 0.020503
v 0.252803 2.034388 0.014576
v 0.252803 1.617085 0.014576
v 0.252804 1.562650 -0.004721
v 0.252803 1.525869 -0.010648
v 0.252803 1.145348 0.014576
v 0.252804 1.825737 0.014576
v 0.252803 1.680085 0.020503
v 0.252804 1.771302 0.014576
v 0.252804 2.360474 0.020503
v 0.252804 1.408434 -0.004721
v 0.252803 2.002999 0.010474
v 0.252803 1.771302 -0.004721
v 0.252803 1.915110 0.010474
v 0.252803 2.397255 0.014576
v 0.252804 2.360474 -0.010648
v 0.252804 1.979953 0.014576
v 0.252804 2.306039 -0.010648
v 0.252803 1.943172 -0.010648
v 0.252803 1.699545 0.010474
v 0.252803 1.888737 -0.010648
v 0.252803 1.353999 -0.004721
v 0.252803 1.525869 0.020503
v 0.252803 1.408434 0.014576
v 0.252804 1.825737 -0.004721
v 0.252803 2.034388 -0.004721
v 0.252803 1.317218 0.020503
v 0.252803 1.199783 0.014576
v 0.252804 1.145348 -0.004721
v 0.252804 2.205976 0.010474
v 0.252803 1.888737 0.020503
v 0.252804 1.495270 0.010473
v 0.252803 1.796452 0.010474
v 0.252803 2.188604 0.014576
v 0.252804 1.562650 0.014576
v 0.252803 1.617085 -0.004721
v 0.252803 1.537678 0.010474
v 0.252804 2.243039 0.014576
v 0.252804 1.199783 -0.004721
v 0.252803 2.188604 -0.004721
v 0.252804 2.115899 0.010473
v 0.252804 1.585348 0.010474
v 0.252803 1.943172 0.020503
v 0.252804 1.353999 0.014576
v 0.252803 2.158307 0.010474
v 0.252803 2.397255 -0.004721
v 0.252803 1.382370 0.010474
v 0.252803 1.680085 -0.010648
v 0.252803 2.243039 -0.004721
v 0.252803 1.294481 0.010474
v 0.252803 2.151823 0.020503
v 0.252804 2.097388 0.020503
v 0.252804 2.306039 0.020503
v 0.252803 1.262783 -0.010648
v 0.252803 2.097388 -0.010648
v 0.252803 1.471434 -0.010648
v 0.252803 1.175823 0.010474
v 0.252803 2.151823 -0.010648
v -0.011191 2.396347 0.014576
v 0.023937 2.396347 0.010474
v 0.162496 2.396347 0.020503
v -0.011191 2.396347 -0.004721
v -0.200372 2.396347 0.020503
v -0.219842 2.396347 -0.004721
v -0.254807 2.396347 0.020503
v 0.008279 2.396347 -0.010648
v 0.252803 2.396347 0.010474
v 0.043244 2.396347 0.014576
v -0.254807 2.396347 -0.010648
v -0.031807 2.396347 0.010474
v -0.181810 2.396347 0.010474
v -0.165407 2.396347 0.014576
v 0.216930 2.396347 0.020503
v 0.197460 2.396347 -0.004721
v 0.197460 2.396347 0.014576
v -0.046156 2.396347 -0.010648
v 0.175538 2.396347 0.010474
v 0.008279 2.396347 0.020503
v -0.200372 2.396347 -0.010648
v -0.219842 2.396347 0.014576
v -0.241139 2.396347 0.010474
v -0.165407 2.396347 -0.004721
v 0.232416 2.396347 0.010474
v -0.046156 2.396347 0.020503
v -0.262867 2.396347 0.010474
v 0.216930 2.396347 -0.010648
v 0.162495 2.396347 -0.010648
v 0.043244 2.396347 -0.004721
v 0.215610 1.137998 0.010474
v -0.262867 1.137998 0.010474
v -0.014532 1.137998 0.010474
v -0.039715 1.137998 0.020503
v -0.171848 1.137998 -0.004721
v 0.036803 1.137998 0.014576
v 0.223371 1.137998 -0.010648
v -0.039715 1.137998 -0.010648
v -0.171849 1.137998 0.014576
v 0.168937 1.137998 -0.010648
v 0.036803 1.137998 -0.004721
v 0.006726 1.137998 0.010474
v -0.017632 1.137998 -0.004721
v 0.245454 1.137999 0.014576
v 0.191019 1.137999 0.014576
v -0.193931 1.137998 0.020503
v -0.226283 1.137998 -0.004721
v 0.252803 1.137999 0.010474
v -0.193931 1.137999 -0.010648
v 0.191019 1.137998 -0.004721
v -0.223943 1.137998 0.010474
v -0.248366 1.137998 -0.010648
v 0.223371 1.137998 0.020503
v -0.248366 1.137998 0.020503
v 0.014720 1.137998 -0.010648
v -0.017632 1.137999 0.014576
v 0.245454 1.137999 -0.004721
v -0.198998 1.137998 0.010474
v 0.168937 1.137998 0.020503
v 0.014720 1.137998 0.020503
v 0.192874 1.137998 0.010474
v -0.226283 1.137998 0.014576
vn -0.0000 -0.0000 1.0000
vn -0.0000 -1.0000 -0.0000
vn -0.0000 1.0000 -0.0000
vn -0.0000 -0.0000 -1.0000
vn -1.0000 -0.0000 -0.0000
vn 1.0000 -0.0000 -0.0000
vn -0.7071 0.7071 -0.0000
vn -0.7071 -0.7071 -0.0000
vn 0.7071 0.7071 -0.0000
vn 0.7071 -0.7071 -0.0000
vt 0.680145 0.388303
vt 0.680145 0.438890
vt -0.620078 0.438890
vt -0.620078 0.388303
vt 1.300223 0.438890
vt 0.000000 0.438890
vt 0.000000 0.388303
vt 1.300223 0.388303
vt 0.335357 0.375915
vt 0.335357 0.213070
vt 0.496952 0.213070
vt 0.496952 0.375915
vt 0.164458 0.213070
vt 0.326053 0.213070
vt 0.326053 0.375915
vt 0.164458 0.375915
vt 1.346729 0.388303
vt 0.046506 0.388303
vt 0.046506 0.438890
vt 1.346729 0.438890
vt 0.083990 0.209792
vt 0.083990 0.378749
vt 0.157543 0.378749
vt 0.157543 0.209792
vt 0.722656 0.692001
vt 0.000000 0.692001
vt 0.000000 0.749964
vt 0.722656 0.749964
vt 0.722656 0.873930
vt 0.722656 0.756432
vt 0.000000 0.756432
vt 0.000000 0.873930
vt 1.000000 0.692001
vt 1.000000 0.749964
vt 1.000000 0.873930
vt 1.000000 0.756432
vt -0.364296 0.998930
vt -0.364296 0.881432
vt 0.635704 0.881432
vt 0.635704 0.998930
vt 1.502264 0.692001
vt 0.502264 0.692001
vt 0.502264 0.749964
vt 1.502264 0.749964
vt 0.000000 1.000000
vt 0.010047 0.571495
vt 0.425497 0.998479
vt 0.000000 1.000000
vt 0.023413 0.003484
vt 0.449130 0.001965
vt 0.983084 0.549626
vt 0.970008 0.974466
vt 0.947769 0.997276
vt 0.005987 0.109994
vt 0.109067 0.000912
vt 0.449181 0.003944
vt 0.987148 0.573233
vt 0.977512 0.996402
vt 0.006731 0.003640
vt 1.000000 0.000000
vt 0.977194 0.997114
vt 0.006893 0.002866
vt 1.000000 0.000000
vt 0.976897 0.987257
vt 0.966746 0.997710
vt 0.007030 0.002307
vt 0.989928 0.000023
vt 0.004757 0.106388
vt 0.107414 0.003123
vt 0.992944 0.997201
vt 0.005354 0.002779
vt 0.992877 0.997723
vt 0.978307 0.000061
vt 0.000248 0.989576
vt 0.023754 0.002767
vt 0.010047 0.571495
vt 0.425498 0.998479
vt 0.449131 0.001965
vt 0.983084 0.549625
vt 0.006727 0.000000
vt 0.987148 0.573233
vt 0.000000 0.991171
vt 0.003069 0.531511
vt 0.437844 0.995104
vt 0.005443 0.000000
vt 1.000000 0.008243
vt 0.992848 0.996603
vt 0.005305 0.003480
vt 0.000000 0.991611
vt 0.005294 0.000000
vt 0.449652 0.000057
vt 0.996194 0.536305
vt 0.992902 1.000000
vt 0.010766 0.007726
vt 1.000000 0.008264
vt 0.994622 0.996596
vt 0.002978 0.003531
vt 0.994756 0.997162
vt 0.999953 0.019597
vt 0.996922 0.996600
vt 0.000044 0.992948
vt 0.217893 0.808952
vt 0.444161 0.996098
vt 0.015364 0.991552
vt 0.983690 0.000073
vt 1.000000 0.000075
vt 0.994771 1.000000
vt 0.003069 0.531511
vt 0.344823 0.895917
vt 0.253357 0.993446
vt 0.998032 0.280211
vt 0.267268 0.999085
vt 0.996194 0.536305
vt 0.998580 0.270033
vt 0.282403 0.999194
vt 0.900967 0.572190
vt 0.885676 0.685622
vt 0.595950 0.685622
vt 0.611242 0.572190
vt 0.885675 0.572190
vt 0.900967 0.685622
vt 0.611242 0.685622
vt 0.595950 0.572190
vt 0.998523 0.495184
vt 0.514310 0.001388
vt 0.755333 0.232069
vt 0.514642 0.003772
vt 0.998523 0.495184
vt 0.815224 0.308258
vt 0.999641 0.120190
vt 0.885675 0.572190
vt 0.900968 0.685622
vt 0.627778 0.685622
vt 0.643070 0.572190
vt 0.900967 0.572190
vt 0.643070 0.685622
vt 0.627778 0.572190
vt 0.885676 0.685622
vt 0.877528 0.685622
vt 0.862236 0.572190
vt 0.997344 0.492280
vt 0.502401 0.001136
vt 0.498607 0.998843
vt 0.001516 0.497468
vt 0.002646 0.122878
vt 0.122014 0.002482
vt 0.994704 0.997692
vt 0.392776 0.438747
vt 0.392776 0.382826
vt 0.134145 0.382826
vt 0.134145 0.438748
vt 0.114324 0.382826
vt 0.114324 0.438748
vt 0.239701 0.438748
vt 0.239701 0.382826
vt 0.114324 0.382826
vt 0.114324 0.438747
vt 0.356930 0.438747
vt 0.356930 0.382826
vt 0.998266 0.480904
vt 0.790010 0.243033
vt 0.514643 0.003772
vt 0.885676 0.572190
vt 0.900967 0.685622
vt 0.862236 0.685622
vt 0.877528 0.572190
vt 0.900967 0.572190
vt 0.885676 0.685622
vt 0.595950 0.685622
vt 0.885676 0.572190
vt 0.900968 0.685622
vt 0.611242 0.685622
vt 0.595950 0.572190
vt 0.114324 0.382826
vt 0.114324 0.438747
vt 0.404050 0.438747
vt 0.404050 0.382826
vt 0.511328 0.998529
vt 0.002099 0.483751
vt 0.004051 0.003557
vt 0.997045 0.997131
vt 0.998266 0.480904
vt 0.392776 0.438747
vt 0.392776 0.382826
vt 0.103051 0.382826
vt 0.103051 0.438747
vt 0.114324 0.382826
vt 0.114325 0.438747
vt 0.404050 0.438747
vt 0.404050 0.382826
vt 0.392776 0.438747
vt 0.392776 0.382826
vt 0.103051 0.382826
vt 0.103051 0.438747
vt 0.900968 0.572190
vt 0.885676 0.685622
vt 0.595950 0.685622
vt 0.900968 0.685622
vt 0.595950 0.572190
vt 0.392776 0.438748
vt 0.392776 0.382826
vt 0.251374 0.382826
vt 0.251374 0.438748
vt 0.511326 0.998529
vt 0.002099 0.483752
vt 0.509012 0.995886
vt 0.002733 0.496399
vt 0.005415 0.002257
vt 0.992843 0.991975
vt 0.997344 0.492280
vt 0.392776 0.438747
vt 0.392776 0.382826
vt 0.103051 0.382826
vt 0.103051 0.438747
vt 0.114324 0.382826
vt 0.114324 0.438747
vt 0.900968 0.685622
vt 0.745007 0.685622
vt 0.760299 0.572190
vt 0.001516 0.497467
vt 0.003008 0.002818
vt 0.900968 0.572190
vt 0.760299 0.685622
vt 0.745007 0.572190
vt 0.392776 0.438748
vt 0.368603 0.382826
vt 0.368603 0.438748
vt 0.509013 0.995886
vt 0.002733 0.496398
vt 0.388758 0.382826
vt 0.388758 0.438747
vt 0.251374 0.438747
vt 0.896949 0.685622
vt 0.881657 0.572190
vt 0.877528 0.572190
vt 0.862236 0.685622
vt 0.388758 0.382826
vt 0.388758 0.438748
vt 0.134145 0.438748
vt 0.134145 0.382826
vt 0.388758 0.438747
vt 0.099032 0.438748
vt 0.099032 0.382826
vt 0.388758 0.382826
vt 0.388758 0.438748
vt 0.368603 0.382826
vt 0.118343 0.438747
vt 0.118343 0.382826
vt 0.239701 0.382826
vt 0.239701 0.438748
vt 0.013102 0.552408
vt 0.203855 0.758125
vt 0.000666 0.977251
vt 0.118343 0.438748
vt 0.118343 0.382826
vt 0.408068 0.382826
vt 0.408068 0.438747
vt 0.896949 0.685622
vt 0.591932 0.572190
vt 0.607224 0.685622
vt 0.881657 0.685622
vt 0.896949 0.572190
vt 0.607224 0.572190
vt 0.591932 0.685622
vt 0.118343 0.438747
vt 0.118343 0.382826
vt 0.408068 0.382826
vt 0.408068 0.438747
vt 0.896949 0.685622
vt 0.881657 0.572190
vt 0.896949 0.685622
vt 0.881657 0.572190
vt 0.643070 0.572190
vt 0.388758 0.438747
vt 0.099033 0.438748
vt 0.099033 0.382826
vt 0.745007 0.572190
vt 0.881657 0.685622
vt 0.591932 0.685622
vt 0.118343 0.382826
vt 0.408068 0.382826
vt 0.408068 0.438747
vt 0.881657 0.685622
vt 0.865855 0.572190
vt 0.591932 0.685622
vt 0.881657 0.685622
vt 0.627778 0.572190
vt 0.643070 0.685622
vt 0.118343 0.438747
vt 0.118343 0.382826
vt 0.356930 0.382826
vt 0.356930 0.438747
vt 0.388758 0.382826
vt 0.388758 0.438747
vt 0.099032 0.438747
vt 0.099033 0.382826
vt 0.896949 0.572190
vt 0.862236 0.572190
vt 0.118343 0.438748
vt 0.118343 0.382826
vt 0.408068 0.382826
vt 0.408068 0.438748
vt 0.013102 0.552409
vt 0.607224 0.572190
vt 0.591932 0.572190
vt 0.262752 0.002282
vt 0.004876 0.275171
vt 0.631397 0.685622
vt 0.646689 0.572190
vt 0.591932 0.572190
vt 0.607224 0.685622
vt 0.999147 0.285854
vt 0.896201 0.390837
vt 0.514312 0.001388
vt 0.865855 0.572190
vt 0.881147 0.685622
vt 0.273070 0.002544
vt 0.003868 0.273340
vt 0.236082 0.382826
vt 0.236082 0.438747
vt 0.404050 0.438748
vt 0.404050 0.382826
vt 0.118853 0.382826
vt 0.118853 0.438747
vt 0.404050 0.438747
vt 0.353311 0.438747
vt 0.353311 0.382826
vt 0.408068 0.382826
vt 0.408068 0.438747
vt 0.763918 0.685622
vt 0.748626 0.572190
vt 0.607224 0.572190
vt 0.591932 0.685622
vt 0.763918 0.572190
vt 0.748626 0.685622
vt 0.631397 0.572190
vt 0.646689 0.685622
vt 0.611242 0.572190
vt 0.881147 0.572190
vt 0.865855 0.685622
vt 0.595950 0.572190
vt 0.865855 0.685622
vt 0.591932 0.572190
vt 0.763918 0.685622
vt 0.611242 0.572190
vt 0.236082 0.438747
vt 0.236082 0.382826
vt 0.408068 0.382826
vt 0.408068 0.438747
vt 0.748626 0.685622
vt 0.607224 0.685622
vt 0.286046 0.002018
vt 0.002146 0.288363
vt 0.646689 0.572190
vt 0.631397 0.685622
vt 0.611242 0.685622
vt 0.595950 0.572190
vt 0.353311 0.382826
vt 0.353311 0.438747
vt 0.404050 0.438747
vt 0.646689 0.685622
vt 0.631397 0.572190
vt 0.607224 0.572190
vt 0.591932 0.685622
vt 0.137764 0.382826
vt 0.137764 0.438748
vt 0.099033 0.438748
vt 0.099033 0.382826
vt 0.372222 0.382826
vt 0.372222 0.438747
vt 0.099033 0.438748
vt 0.099033 0.382826
vt 0.101920 0.999651
vt 0.999213 0.116956
vt 0.137764 0.438747
vt 0.137764 0.382826
vt 0.103051 0.382826
vt 0.103051 0.438747
vt 0.254993 0.438747
vt 0.254993 0.382826
vt 0.103051 0.382826
vt 0.103051 0.438747
vt 0.101274 0.992080
vt 0.268142 0.814153
vt 0.118739 0.999661
vt 0.999458 0.102974
vt 0.372222 0.382826
vt 0.103051 0.382826
vt 0.103051 0.438748
vt 0.254993 0.382826
vt 0.099032 0.438747
vt 0.099032 0.382826
s 0
usemtl MI_WoodTrim
f 3/1/1 4/2/1 8/3/1 7/4/1
f 8/5/2 4/6/2 2/7/2 6/8/2
f 3/6/3 7/5/3 5/8/3 1/7/3
f 2/8/4 1/5/4 5/6/4 6/7/4
f 11/1/1 12/2/1 16/3/1 15/4/1
f 16/5/5 12/6/5 10/7/5 14/8/5
f 11/6/6 15/5/6 13/8/6 9/7/6
f 10/8/4 9/5/4 13/6/4 14/7/4
f 11/9/3 9/10/3 10/11/3 12/12/3
f 15/13/2 16/14/2 14/15/2 13/16/2
f 19/17/1 23/18/1 24/19/1 20/20/1
f 24/5/6 22/8/6 18/7/6 20/6/6
f 19/6/5 17/7/5 21/8/5 23/5/5
f 18/8/4 22/7/4 21/6/4 17/5/4
f 19/9/3 20/12/3 18/11/3 17/10/3
f 23/13/2 21/16/2 22/15/2 24/14/2
f 27/1/1 28/2/1 32/3/1 31/4/1
f 32/5/3 28/6/3 26/7/3 30/8/3
f 27/6/2 31/5/2 29/8/2 25/7/2
f 26/8/4 25/5/4 29/6/4 30/7/4
f 39/21/2 37/22/2 38/23/2 40/24/2
f 35/25/1 39/26/1 40/27/1 36/28/1
f 40/29/6 38/30/6 34/31/6 36/32/6
f 35/32/5 33/31/5 37/30/5 39/29/5
f 34/25/4 38/26/4 37/27/4 33/28/4
f 47/21/2 48/24/2 46/23/2 45/22/2
f 43/25/1 44/28/1 48/27/1 47/26/1
f 48/29/5 44/32/5 42/31/5 46/30/5
f 43/32/6 47/29/6 45/30/6 41/31/6
f 42/25/4 41/28/4 45/27/4 46/26/4
f 49/22/6 51/21/6 52/24/6 50/23/6
f 55/21/5 53/22/5 54/23/5 56/24/5
f 51/33/1 55/26/1 56/27/1 52/34/1
f 56/35/2 54/36/2 50/31/2 52/32/2
f 51/37/3 49/38/3 53/39/3 55/40/3
f 57/22/6 59/21/6 60/24/6 58/23/6
f 63/21/5 61/22/5 62/23/5 64/24/5
f 59/33/1 63/26/1 64/27/1 60/34/1
f 64/35/2 62/36/2 58/31/2 60/32/2
f 59/37/3 57/38/3 61/39/3 63/40/3
f 58/41/4 62/42/4 61/43/4 57/44/4
f 50/41/4 54/42/4 53/43/4 49/44/4
f 127/116/1 102/117/1 167/118/1 193/119/1
f 131/120/4 103/121/4 163/122/4 214/123/4
f 120/131/4 123/132/4 261/133/4 264/134/4
f 118/135/1 153/117/1 283/136/1 277/137/1
f 142/116/1 141/138/1 278/139/1 270/140/1
f 129/148/7 148/149/7 241/150/7 240/151/7
f 158/152/8 160/153/8 262/154/8 258/155/8
f 153/156/8 120/157/8 264/158/8 283/159/8
f 147/163/4 155/164/4 273/165/4 276/166/4
f 143/167/1 115/168/1 174/169/1 162/119/1
f 121/170/4 100/171/4 161/172/4 220/173/4
f 104/174/8 156/175/8 222/176/8 164/177/8
f 105/183/7 150/184/7 204/185/7 215/186/7
f 115/187/8 131/188/8 214/189/8 174/190/8
f 140/191/7 113/192/7 168/193/7 192/194/7
f 152/195/1 104/196/1 164/197/1 189/119/1
f 156/170/4 112/198/4 171/122/4 222/199/4
f 159/200/7 108/201/7 225/202/7 228/203/7
f 157/211/7 114/212/7 173/213/7 191/214/7
f 102/215/8 121/216/8 220/176/8 167/177/8
f 160/163/4 149/217/4 279/218/4 262/219/4
f 99/222/1 158/138/1 258/223/1 284/224/1
f 124/225/7 138/192/7 246/226/7 230/227/7
f 217/230/9 224/231/9 232/232/9 244/202/9
f 205/233/4 195/234/4 281/235/4 274/236/4
f 209/237/9 185/238/9 245/239/9 229/240/9
f 189/237/9 171/241/9 112/242/9 152/243/9
f 176/244/9 182/245/9 252/227/9 239/246/9
f 188/247/10 210/248/10 260/249/10 265/250/10
f 212/254/10 181/255/10 107/256/10 154/257/10
f 191/258/4 179/234/4 119/259/4 157/260/4
f 175/261/1 173/262/1 114/263/1 130/264/1
f 179/265/10 175/266/10 130/267/10 119/268/10
f 215/269/4 206/270/4 151/259/4 105/260/4
f 202/271/4 170/272/4 259/273/4 271/133/4
f 162/237/9 163/274/9 103/275/9 143/276/9
f 210/261/1 190/262/1 280/277/1 260/223/1
f 177/258/4 188/272/4 265/219/4 267/218/4
f 183/278/1 168/262/1 113/263/1 125/279/1
f 206/265/10 200/280/10 134/281/10 151/282/10
f 181/283/1 241/284/1 148/263/1 107/285/1
f 201/286/1 169/262/1 286/287/1 263/288/1
f 170/289/10 201/290/10 263/291/10 259/292/10
f 193/293/9 161/294/9 100/295/9 127/296/9
f 172/286/1 194/297/1 269/298/1 268/139/1
f 166/299/10 183/300/10 125/301/10 132/302/10
f 200/286/1 204/262/1 150/304/1 134/285/1
f 192/233/4 166/272/4 132/305/4 140/260/4
f 230/308/4 248/309/4 144/310/4 124/311/4
f 229/315/1 231/316/1 197/118/1 209/119/1
f 250/319/8 242/320/8 221/321/8 218/322/8
f 231/323/8 235/324/8 187/325/8 197/190/8
f 248/326/10 238/327/10 137/328/10 144/329/10
f 234/330/1 225/331/1 108/332/1 101/333/1
f 242/334/4 232/335/4 224/172/4 221/199/4
f 239/336/1 227/337/1 219/197/1 176/338/1
f 235/339/4 245/340/4 185/122/4 187/341/4
f 240/342/4 212/270/4 154/343/4 129/311/4
f 244/331/1 250/344/1 218/118/1 217/345/1
f 254/346/10 234/347/10 101/348/10 116/349/10
f 228/350/4 254/334/4 116/310/4 159/351/4
f 253/354/4 252/355/4 182/356/4 184/357/4
f 227/358/8 253/359/8 184/360/8 219/322/8
f 238/361/1 246/362/1 138/363/1 137/364/1
f 270/365/9 273/366/9 155/367/9 142/368/9
f 277/369/9 261/370/9 123/371/9 118/372/9
f 274/375/7 269/376/7 194/377/7 205/378/7
f 267/379/7 280/380/7 190/381/7 177/382/7
f 271/370/7 286/387/7 169/388/7 202/389/7
f 284/390/9 279/379/9 149/391/9 99/392/9
usemtl MI_WindowGlass
f 65/45/1 216/46/1 213/47/1
f 66/48/1 65/49/1 213/50/1 198/51/1 74/52/1 76/53/1
f 69/45/1 285/54/1 255/55/1 223/56/1 216/57/1 65/58/1
f 68/45/1 69/59/1 65/60/1 66/61/1
f 70/45/1 68/62/1 66/63/1 73/64/1 75/65/1
f 67/45/1 70/66/1 75/67/1
f 71/48/1 257/68/1 266/69/1 69/63/1 68/70/1
f 72/45/1 71/71/1 68/63/1 70/72/1
f 76/73/1 73/74/1 66/75/1
f 77/45/1 180/76/1 178/77/1
f 78/48/1 77/49/1 178/78/1 207/79/1 91/52/1 93/53/1
f 81/45/1 82/80/1 199/56/1 180/81/1 77/58/1
f 80/45/1 81/59/1 77/60/1 78/61/1
f 83/45/1 80/62/1 78/63/1 90/64/1 92/65/1
f 79/45/1 83/66/1 92/67/1
f 82/82/1 186/83/1 199/84/1
f 86/45/1 85/85/1 82/86/1 81/87/1
f 84/48/1 86/88/1 81/63/1 80/70/1
f 87/45/1 84/71/1 80/63/1 83/72/1
f 85/89/1 74/90/1 208/91/1 186/92/1 82/93/1
f 89/45/1 73/94/1 85/95/1 86/96/1
f 88/45/1 89/97/1 86/63/1 84/98/1
f 67/45/1 73/99/1 89/100/1
f 74/101/1 203/102/1 208/103/1
f 73/104/1 76/105/1 74/106/1 85/107/1
f 93/73/1 90/74/1 78/75/1
f 94/82/1 165/108/1 233/109/1 249/110/1
f 96/45/1 95/85/1 94/86/1 243/111/1 226/112/1
f 95/89/1 91/90/1 196/91/1 165/113/1 94/93/1
f 98/45/1 90/94/1 95/95/1 96/96/1
f 97/45/1 98/97/1 96/63/1 236/114/1 237/115/1
f 79/45/1 90/99/1 98/100/1
f 91/101/1 211/102/1 196/103/1
f 90/104/1 93/105/1 91/106/1 95/107/1
f 106/124/1 139/125/1 88/60/1
f 135/126/1 110/127/1 79/63/1
f 122/128/1 256/129/1 275/130/1
f 136/141/1 109/142/1 87/63/1
f 117/143/1 122/144/1 275/145/1 282/146/1 71/63/1 72/147/1
f 128/160/1 135/161/1 79/63/1
f 126/126/1 146/162/1 67/63/1
f 111/178/1 128/179/1 79/180/1 98/63/1 97/181/1
f 133/182/1 126/161/1 67/63/1
f 139/204/1 133/205/1 67/180/1 89/63/1 88/181/1
f 110/206/1 136/207/1 87/208/1 83/63/1 79/209/1
f 145/210/1 117/142/1 72/63/1
f 109/143/1 106/220/1 88/221/1 84/63/1 87/147/1
f 146/228/1 145/229/1 72/208/1 70/63/1 67/209/1
f 207/251/1 211/252/1 91/253/1
f 198/303/1 203/252/1 74/253/1
f 249/306/1 243/307/1 94/80/1
f 247/312/1 251/313/1 111/314/1 97/60/1
f 226/317/1 236/318/1 96/88/1
f 237/352/1 247/353/1 97/221/1
f 266/373/1 285/374/1 69/87/1
f 255/383/1 272/384/1 223/84/1
f 282/385/1 257/386/1 71/98/1
