# Blender 4.0.2
# www.blender.org
mtllib Window_Wide_Round2.mtl
o Window_Wide_Round2
v 0.681762 1.105609 -0.251689
v 0.681762 1.016045 -0.251689
v 0.681762 1.105609 0.091975
v 0.681762 1.016045 0.091975
v -0.673586 1.105609 -0.251688
v -0.673586 1.016044 -0.251688
v -0.673586 1.105609 0.091976
v -0.673586 1.016044 0.091976
v -0.670419 2.226641 -0.238833
v -0.529582 2.189999 -0.238833
v -0.670419 2.226641 0.079178
v -0.529582 2.189999 0.079178
v -0.670418 1.097817 -0.238833
v -0.529581 1.097817 -0.238833
v -0.670418 1.097817 0.079177
v -0.529581 1.097817 0.079177
v 0.670419 2.226641 -0.238833
v 0.529582 2.189999 -0.238833
v 0.670419 2.226641 0.079178
v 0.529582 2.189999 0.079178
v 0.670418 1.097817 -0.238833
v 0.529581 1.097817 -0.238833
v 0.670418 1.097817 0.079177
v 0.529581 1.097817 0.079177
v -0.682458 2.164801 -0.259384
v -0.527872 2.158101 -0.259384
v -0.682458 2.164801 0.099728
v -0.527872 2.158101 0.099728
v -0.580564 2.466267 0.099728
v -0.580564 2.466267 -0.259384
v -0.440768 2.373152 -0.259384
v -0.440768 2.373152 0.099728
v -0.434130 2.616764 0.099728
v -0.434130 2.616764 -0.259384
v -0.314328 2.493491 -0.259384
v -0.314328 2.493491 0.099728
v -0.231789 2.708408 0.099728
v -0.231789 2.708408 -0.259384
v -0.172930 2.561070 -0.259384
v -0.172930 2.561070 0.099728
v -0.000000 2.741781 0.099728
v -0.000000 2.741781 -0.259384
v -0.000000 2.589528 -0.259384
v -0.000000 2.589528 0.099728
v -0.517045 2.230139 -0.259384
v -0.517045 2.230139 0.099728
v -0.659911 2.299418 0.099728
v -0.659911 2.299418 -0.259384
v 0.682458 2.164801 -0.259384
v 0.527872 2.158101 -0.259384
v 0.682458 2.164801 0.099728
v 0.527872 2.158101 0.099728
v 0.580564 2.466267 0.099728
v 0.580564 2.466267 -0.259384
v 0.440768 2.373152 -0.259384
v 0.440768 2.373152 0.099728
v 0.434130 2.616764 0.099728
v 0.434130 2.616764 -0.259384
v 0.314328 2.493491 -0.259384
v 0.314328 2.493491 0.099728
v 0.231789 2.708408 0.099728
v 0.231789 2.708408 -0.259384
v 0.172930 2.561070 -0.259384
v 0.172930 2.561070 0.099728
v 0.517045 2.230139 -0.259384
v 0.517045 2.230139 0.099728
v 0.659911 2.299418 0.099728
v 0.659911 2.299418 -0.259384
v -0.544548 2.273126 0.003888
v -0.001734 2.619254 0.003888
v -0.263370 1.973745 0.003888
v -0.544548 1.968978 0.003888
v -0.001792 1.973745 0.003888
v -0.376616 2.474962 0.003888
v -0.173575 2.591134 0.003888
v -0.138783 1.973745 0.003888
v -0.086679 2.619254 0.003888
v -0.069311 1.973745 0.003888
v -0.208255 1.973745 0.003888
v -0.275096 2.533049 0.003888
v 0.537648 2.273126 0.003888
v 0.256929 1.973745 0.003888
v 0.537648 1.968978 0.003888
v 0.377053 2.474962 0.003888
v 0.174013 2.591134 0.003888
v 0.139106 1.973745 0.003888
v 0.085163 2.619254 0.003888
v 0.067681 1.973745 0.003888
v 0.208578 1.973745 0.003888
v 0.275533 2.533049 0.003888
v 0.000161 1.064762 0.003888
v -0.540880 1.064762 0.003888
v -0.259988 1.064762 0.003888
v -0.138783 1.064762 0.003888
v -0.069311 1.064762 0.003888
v -0.208255 1.064762 0.003888
v 0.541317 1.064762 0.003888
v 0.260311 1.064762 0.003888
v 0.139106 1.064762 0.003888
v 0.069634 1.064762 0.003888
v 0.208578 1.064762 0.003888
v 0.593646 1.151098 -0.139131
v 0.593646 1.073180 -0.139131
v 0.593646 1.151098 0.044760
v 0.593646 1.073180 0.044760
v -0.585470 1.151098 -0.139131
v -0.585470 1.073179 -0.139131
v -0.585470 1.151098 0.044760
v -0.585470 1.073179 0.044760
v 0.658577 2.001810 -0.052470
v 0.658577 1.915310 -0.052470
v 0.658577 2.001810 0.060502
v 0.658577 1.915310 0.060502
v -0.650401 2.001810 -0.052469
v -0.650401 1.915309 -0.052469
v -0.650401 2.001810 0.060502
v -0.650401 1.915309 0.060502
v -0.142306 2.036260 0.003888
v -0.224097 2.106309 0.003888
v -0.492258 2.335972 0.003888
v -0.309931 2.179820 0.003888
v 0.490118 2.332861 0.003888
v 0.305132 2.174873 0.003888
v 0.142631 2.036088 0.003888
v 0.224401 2.105924 0.003888
v 0.033942 2.679871 0.041524
v -0.045001 2.679606 0.041524
v 0.034063 2.676045 -0.040748
v -0.044880 2.675780 -0.040748
v 0.040180 1.966414 0.041524
v -0.038762 1.966149 0.041524
v 0.040302 1.962589 -0.040749
v -0.038641 1.962325 -0.040749
v -0.093237 1.940983 -0.040749
v -0.042191 2.001200 -0.040749
v -0.095623 1.942880 0.041523
v -0.044576 2.003096 0.041524
v -0.527515 2.307313 -0.040748
v -0.476469 2.367530 -0.040748
v -0.529901 2.309212 0.041524
v -0.478854 2.369428 0.041524
v 0.093237 1.940983 -0.040749
v 0.042191 2.001200 -0.040749
v 0.095623 1.942880 0.041523
v 0.044576 2.003096 0.041524
v 0.527515 2.307313 -0.040748
v 0.476469 2.367530 -0.040748
v 0.529901 2.309212 0.041524
v 0.478854 2.369428 0.041524
vn 1.0000 -0.0000 -0.0000
vn -1.0000 -0.0000 -0.0000
vn -0.0000 -0.0000 1.0000
vn -0.0000 -1.0000 -0.0000
vn -0.0000 1.0000 -0.0000
vn -0.0000 -0.0000 -1.0000
vn 0.9494 -0.3142 -0.0000
vn 0.7961 -0.6052 -0.0000
vn -0.9539 0.3002 -0.0000
vn -0.8209 0.5711 -0.0000
vn 0.5673 -0.8235 -0.0000
vn 0.2998 -0.9540 -0.0000
vn -0.5747 0.8184 -0.0000
vn -0.2803 0.9599 -0.0000
vn -0.9863 0.1652 -0.0000
vn 0.9889 -0.1486 -0.0000
vn -0.0433 -0.9991 -0.0000
vn -0.9494 -0.3142 -0.0000
vn -0.7961 -0.6052 -0.0000
vn 0.9539 0.3002 -0.0000
vn 0.8209 0.5711 -0.0000
vn -0.5673 -0.8235 -0.0000
vn -0.2998 -0.9540 -0.0000
vn 0.5747 0.8184 -0.0000
vn 0.2803 0.9599 -0.0000
vn 0.9863 0.1652 -0.0000
vn -0.9889 -0.1486 -0.0000
vn 0.0433 -0.9991 -0.0000
vn 1.0000 0.0087 0.0011
vn -1.0000 -0.0087 -0.0011
vn 0.6448 0.7644 0.0011
vn -0.6448 -0.7644 -0.0011
vn -0.6448 0.7644 0.0011
vn 0.6448 -0.7644 -0.0011
vt 0.083990 0.378749
vt 0.083990 0.209792
vt 0.157543 0.209792
vt 0.157543 0.378749
vt 0.083990 0.378749
vt 0.157543 0.378749
vt 1.112351 0.692001
vt -0.165585 0.692001
vt -0.165586 0.749964
vt 1.112351 0.749964
vt 1.100516 0.873930
vt 1.100516 0.756432
vt -0.177421 0.756432
vt -0.177421 0.873930
vt -0.885344 0.998930
vt -0.885344 0.757804
vt 0.392593 0.757804
vt 0.392593 0.998930
vt 2.088381 0.692001
vt 0.810444 0.692001
vt 0.810444 0.749964
vt 2.088381 0.749964
vt 0.722656 0.692001
vt 0.000000 0.692001
vt 0.000000 0.749964
vt 0.722656 0.749964
vt 0.230989 0.927094
vt 0.230989 0.690848
vt 0.953646 0.690848
vt 0.953646 0.927094
vt 0.000000 0.873930
vt 0.000000 0.756432
vt 0.722656 0.756432
vt 0.722656 0.873930
vt 0.230989 0.930348
vt 0.953646 0.930348
vt 0.214601 0.997378
vt 0.214601 0.757209
vt 0.273666 0.757209
vt 0.273666 0.997378
vt 0.108271 0.997378
vt 0.108271 0.885876
vt 0.237229 0.885876
vt 0.237229 0.997378
vt 0.125875 0.997378
vt 0.125875 0.757209
vt 0.194151 0.757209
vt 0.194151 0.997378
vt -0.011077 0.997378
vt -0.011077 0.885876
vt 1.032853 0.885876
vt 1.032853 0.997378
vt 0.910316 0.997378
vt 0.910316 0.885876
vt 0.333349 0.997378
vt 0.333349 0.757209
vt 0.383556 0.757209
vt 0.383556 0.997378
vt 0.777912 0.997378
vt 0.777912 0.885876
vt 0.271750 0.757209
vt 0.271749 0.997378
vt 0.353836 0.997378
vt 0.353836 0.757209
vt 0.440376 0.757209
vt 0.440376 0.997378
vt 0.362038 0.885876
vt 0.362038 0.997378
vt 0.649768 0.997378
vt 0.649768 0.885876
vt 0.497111 0.885876
vt 0.497111 0.997378
vt 0.511085 0.997378
vt 0.511085 0.885876
vt 0.440376 0.757209
vt 0.440376 0.997378
vt 1.131144 0.885876
vt 1.131144 0.997378
vt -0.106809 0.997378
vt -0.106809 0.885876
vt 0.066730 0.997378
vt 0.066730 0.757209
vt 0.171960 0.997378
vt 0.171960 0.757209
vt 0.635711 0.875644
vt 0.356401 0.875644
vt 0.356401 0.759490
vt 0.635711 0.759490
vt 0.666152 0.997378
vt 0.607087 0.997378
vt 0.607087 0.757209
vt 0.666152 0.757209
vt 0.885951 0.997378
vt 0.756993 0.997378
vt 0.756993 0.885876
vt 0.885951 0.885876
vt 0.754877 0.997378
vt 0.686602 0.997378
vt 0.686602 0.757209
vt 0.754877 0.757209
vt 1.005299 0.997378
vt 1.005299 0.885876
vt -0.010683 0.885876
vt 0.111855 0.885876
vt 0.111855 0.997378
vt -0.010683 0.997378
vt 0.547404 0.997378
vt 0.497197 0.997378
vt 0.497197 0.757209
vt 0.547404 0.757209
vt 0.244258 0.885876
vt 0.244258 0.997378
vt 0.609003 0.997378
vt 0.609003 0.757209
vt 0.526917 0.997378
vt 0.526917 0.757209
vt 0.632184 0.997378
vt 0.632184 0.885876
vt 0.372403 0.885876
vt 0.372403 0.997378
vt -0.108973 0.885876
vt -0.108973 0.997378
vt 1.101031 0.997378
vt 1.101031 0.885876
vt 0.814023 0.997378
vt 0.814023 0.757209
vt 0.708793 0.997378
vt 0.708793 0.757209
vt 0.637948 0.757524
vt 0.637948 0.875598
vt 0.354021 0.875598
vt 0.354021 0.757525
vt 0.259822 0.007330
vt 0.000000 0.981486
vt 0.000000 0.000000
vt 0.216797 0.324235
vt 0.048318 0.981486
vt 0.443627 0.952841
vt 0.385679 0.952841
vt 0.385679 0.047109
vt 0.443627 0.047109
vt 0.631728 0.007330
vt 0.634985 0.103202
vt 0.565729 0.007330
vt 0.501532 0.007330
vt 0.501585 0.981486
vt 0.423092 0.981486
vt 0.439141 0.007330
vt 0.501575 0.047109
vt 0.499946 0.952841
vt 0.327732 0.952841
vt 0.327732 0.047109
vt 0.374946 0.007330
vt 0.371690 0.103467
vt 0.296112 0.211189
vt 0.310751 0.007330
vt 0.952959 0.047109
vt 0.949898 0.948092
vt 0.715747 0.952841
vt 0.718568 0.047109
vt 0.740602 0.007330
vt 1.000000 0.000000
vt 1.000000 0.981486
vt 0.956080 0.981486
vt 0.785144 0.316628
vt 0.617470 0.952841
vt 0.557894 0.952841
vt 0.559523 0.047109
vt 0.617470 0.047109
vt 0.581883 0.981486
vt 0.675417 0.952841
vt 0.675417 0.047109
vt 0.695924 0.007330
vt 0.710545 0.210598
vt 0.342796 0.981486
vt 0.281760 0.952841
vt 0.284581 0.047109
vt 1.112351 0.382137
vt -0.165585 0.382137
vt -0.165586 0.440100
vt 1.112351 0.440100
vt 1.100516 0.564066
vt 1.100516 0.446568
vt -0.177421 0.446568
vt -0.177421 0.564066
vt -0.885344 0.689066
vt -0.885344 0.447940
vt 0.392593 0.447940
vt 0.392593 0.689066
vt 2.088381 0.382137
vt 0.810444 0.382137
vt 0.810444 0.440100
vt 2.088381 0.440100
vt 0.047226 0.948092
vt 0.050286 0.047109
vt 1.100516 0.747780
vt 1.100516 0.695899
vt -0.177421 0.695899
vt -0.177421 0.747780
vt -0.885344 0.745965
vt -0.885344 0.696505
vt 0.392593 0.696505
vt 0.392593 0.745965
vt 0.155177 0.981486
vt 0.248987 0.981486
vt 0.851603 0.981486
vt 0.757793 0.981486
vt 0.663984 0.981486
vt 1.724977 0.708047
vt 1.724977 0.751337
vt 1.154446 0.751337
vt 1.154445 0.708047
vt 0.570531 0.751337
vt 0.000000 0.751337
vt 0.000000 0.700749
vt 0.570531 0.700749
vt 1.300223 0.700749
vt 1.300223 0.744039
vt 0.729692 0.744039
vt 0.729692 0.700749
vt -0.000243 0.751332
vt 0.570289 0.751332
vt 0.570288 0.700745
vt -0.000243 0.700745
s 1
usemtl MI_WoodTrim_Wear
f 1/1/1 3/2/1 4/3/1 2/4/1
f 7/2/2 5/5/2 6/6/2 8/3/2
f 3/7/3 7/8/3 8/9/3 4/10/3
f 8/11/4 6/12/4 2/13/4 4/14/4
f 3/15/5 1/16/5 5/17/5 7/18/5
f 2/19/6 6/20/6 5/21/6 1/22/6
s 2
f 15/2/4 13/5/4 14/4/4 16/3/4
f 11/23/3 15/24/3 16/25/3 12/26/3
f 16/27/1 14/28/1 10/29/1 12/30/1
f 11/31/2 9/32/2 13/33/2 15/34/2
f 10/23/6 14/24/6 13/25/6 9/26/6
s 3
f 23/2/4 24/3/4 22/4/4 21/5/4
f 19/23/3 20/26/3 24/25/3 23/24/3
f 24/35/2 20/36/2 18/29/2 22/28/2
f 19/31/1 23/34/1 21/33/1 17/32/1
f 18/23/6 17/26/6 21/25/6 22/24/6
s 4
f 46/37/7 45/38/7 31/39/8 32/40/8
f 29/41/3 32/42/3 36/43/3 33/44/3
f 48/45/9 47/46/9 29/47/10 30/48/10
f 47/49/3 46/50/3 32/42/3 29/41/3
f 45/51/6 48/52/6 30/53/6 31/54/6
f 36/55/11 35/56/11 39/57/12 40/58/12
f 31/54/6 30/53/6 34/59/6 35/60/6
f 32/40/8 31/39/8 35/56/11 36/55/11
f 30/48/10 29/47/10 33/61/13 34/62/13
f 38/63/14 37/64/14 41/65/5 42/66/5
f 34/62/13 33/61/13 37/64/14 38/63/14
f 33/44/3 36/43/3 40/67/3 37/68/3
f 35/60/6 34/59/6 38/69/6 39/70/6
f 37/68/3 40/67/3 44/71/3 41/72/3
f 39/70/6 38/69/6 42/73/6 43/74/6
f 40/58/12 39/57/12 43/75/4 44/76/4
f 26/77/6 25/78/6 48/52/6 45/51/6
f 27/79/3 28/80/3 46/50/3 47/49/3
f 25/81/15 27/82/15 47/46/9 48/45/9
f 28/83/16 26/84/16 45/38/7 46/37/7
f 27/85/17 25/86/17 26/87/17 28/88/17
f 66/89/18 56/90/19 55/91/19 65/92/18
f 53/93/3 57/94/3 60/95/3 56/96/3
f 68/97/20 54/98/21 53/99/21 67/100/20
f 67/101/3 53/93/3 56/96/3 66/102/3
f 65/103/6 55/104/6 54/105/6 68/106/6
f 60/107/22 64/108/23 63/109/23 59/110/22
f 55/104/6 59/111/6 58/112/6 54/105/6
f 56/90/19 60/107/22 59/110/22 55/91/19
f 54/98/21 58/113/24 57/114/24 53/99/21
f 62/115/25 42/66/5 41/65/5 61/116/25
f 58/113/24 62/115/25 61/116/25 57/114/24
f 57/94/3 61/117/3 64/118/3 60/95/3
f 59/111/6 63/119/6 62/120/6 58/112/6
f 61/117/3 41/72/3 44/71/3 64/118/3
f 63/119/6 43/74/6 42/73/6 62/120/6
f 64/108/23 44/76/4 43/75/4 63/109/23
f 50/121/6 65/103/6 68/106/6 49/122/6
f 51/123/3 67/101/3 66/102/3 52/124/3
f 49/125/26 68/97/20 67/100/20 51/126/26
f 52/127/27 66/89/18 65/92/18 50/128/27
f 51/129/28 52/130/28 50/131/28 49/132/28
s 6
f 104/178/3 108/179/3 109/180/3 105/181/3
f 109/182/4 107/183/4 103/184/4 105/185/4
f 104/186/5 102/187/5 106/188/5 108/189/5
f 103/190/6 107/191/6 106/192/6 102/193/6
s 7
f 110/1/1 112/2/1 113/3/1 111/4/1
f 116/2/2 114/5/2 115/6/2 117/3/2
f 112/7/3 116/8/3 117/9/3 113/10/3
f 117/196/4 115/197/4 111/198/4 113/199/4
f 112/200/5 110/201/5 114/202/5 116/203/5
f 111/19/6 115/20/6 114/21/6 110/22/6
s 8
f 131/209/3 130/210/3 126/211/3 127/212/3
f 126/213/29 130/214/29 132/215/29 128/216/29
f 132/217/6 133/218/6 129/219/6 128/220/6
f 131/221/30 127/222/30 129/223/30 133/224/30
s 9
f 136/209/3 137/210/3 141/211/3 140/212/3
f 141/213/31 137/214/31 135/215/31 139/216/31
f 136/221/32 140/222/32 138/223/32 134/224/32
f 135/217/6 134/218/6 138/219/6 139/220/6
s 10
f 144/209/3 148/212/3 149/211/3 145/210/3
f 149/213/33 147/216/33 143/215/33 145/214/33
f 144/221/34 142/224/34 146/223/34 148/222/34
f 143/217/6 147/220/6 146/219/6 142/218/6
s 5
usemtl MI_WindowGlass
f 71/133/3 69/134/3 72/135/3
f 71/133/3 121/136/3 120/137/3 69/134/3
f 78/138/3 76/139/3 94/140/3 95/141/3
f 86/142/3 124/143/3 88/144/3
f 73/145/3 70/146/3 77/147/3 78/148/3
f 91/149/3 73/150/3 78/138/3 95/141/3
f 76/139/3 79/151/3 96/152/3 94/140/3
f 76/153/3 118/154/3 119/155/3 79/156/3
f 79/156/3 119/155/3 121/136/3 71/133/3
f 97/157/3 83/158/3 82/159/3 98/160/3
f 82/161/3 83/162/3 81/163/3
f 82/161/3 81/163/3 122/164/3 123/165/3
f 86/166/3 88/167/3 100/168/3 99/169/3
f 73/145/3 88/144/3 87/170/3 70/146/3
f 91/149/3 100/168/3 88/167/3 73/150/3
f 89/171/3 86/166/3 99/169/3 101/172/3
f 89/173/3 125/174/3 124/143/3 86/142/3
f 89/173/3 82/161/3 123/165/3 125/174/3
f 77/147/3 75/175/3 118/154/3 78/148/3
f 98/160/3 82/159/3 89/171/3 101/172/3
f 79/151/3 71/176/3 93/177/3 96/152/3
f 93/177/3 71/176/3 72/194/3 92/195/3
f 120/137/3 121/136/3 74/204/3
f 121/136/3 119/155/3 80/205/3 74/204/3
f 78/148/3 118/154/3 76/153/3
f 119/155/3 118/154/3 75/175/3 80/205/3
f 123/165/3 122/164/3 84/206/3
f 124/143/3 125/174/3 90/207/3 85/208/3
f 88/144/3 124/143/3 85/208/3 87/170/3
f 125/174/3 123/165/3 84/206/3 90/207/3
