# Blender 4.0.2
# www.blender.org
mtllib Window_Wide_Round3.mtl
o Window_Wide_Round3
v 0.681762 1.105609 -0.251689
v 0.681762 1.016045 -0.251689
v 0.681762 1.105609 0.091975
v 0.681762 1.016045 0.091975
v -0.673586 1.105609 -0.251688
v -0.673586 1.016044 -0.251688
v -0.673586 1.105609 0.091976
v -0.673586 1.016044 0.091976
v -0.670419 2.226641 -0.238833
v -0.529582 2.189999 -0.238833
v -0.670419 2.226641 0.079178
v -0.529582 2.189999 0.079178
v -0.670418 1.097817 -0.238833
v -0.529581 1.097817 -0.238833
v -0.670418 1.097817 0.079177
v -0.529581 1.097817 0.079177
v 0.670419 2.226641 -0.238833
v 0.529582 2.189999 -0.238833
v 0.670419 2.226641 0.079178
v 0.529582 2.189999 0.079178
v 0.670418 1.097817 -0.238833
v 0.529581 1.097817 -0.238833
v 0.670418 1.097817 0.079177
v 0.529581 1.097817 0.079177
v -0.682458 2.164801 -0.259384
v -0.527872 2.158101 -0.259384
v -0.682458 2.164801 0.099728
v -0.527872 2.158101 0.099728
v -0.580564 2.466267 0.099728
v -0.580564 2.466267 -0.259384
v -0.440768 2.373152 -0.259384
v -0.440768 2.373152 0.099728
v -0.434130 2.616764 0.099728
v -0.434130 2.616764 -0.259384
v -0.314328 2.493491 -0.259384
v -0.314328 2.493491 0.099728
v -0.231789 2.708408 0.099728
v -0.231789 2.708408 -0.259384
v -0.172930 2.561070 -0.259384
v -0.172930 2.561070 0.099728
v -0.000000 2.741781 0.099728
v -0.000000 2.741781 -0.259384
v -0.000000 2.589528 -0.259384
v -0.000000 2.589528 0.099728
v -0.517045 2.230139 -0.259384
v -0.517045 2.230139 0.099728
v -0.659911 2.299418 0.099728
v -0.659911 2.299418 -0.259384
v 0.682458 2.164801 -0.259384
v 0.527872 2.158101 -0.259384
v 0.682458 2.164801 0.099728
v 0.527872 2.158101 0.099728
v 0.580564 2.466267 0.099728
v 0.580564 2.466267 -0.259384
v 0.440768 2.373152 -0.259384
v 0.440768 2.373152 0.099728
v 0.434130 2.616764 0.099728
v 0.434130 2.616764 -0.259384
v 0.314328 2.493491 -0.259384
v 0.314328 2.493491 0.099728
v 0.231789 2.708408 0.099728
v 0.231789 2.708408 -0.259384
v 0.172930 2.561070 -0.259384
v 0.172930 2.561070 0.099728
v 0.517045 2.230139 -0.259384
v 0.517045 2.230139 0.099728
v 0.659911 2.299418 0.099728
v 0.659911 2.299418 -0.259384
v -0.069311 1.455216 0.003888
v -0.002623 2.617159 0.003888
v -0.263370 1.973745 0.003888
v -0.544548 1.968978 0.003888
v -0.001792 1.973745 0.003888
v -0.548405 2.247332 0.003888
v -0.281891 2.562532 0.003888
v -0.138783 1.973745 0.003888
v -0.140671 2.617159 0.003888
v -0.069311 1.973745 0.003888
v -0.208255 1.973745 0.003888
v -0.446877 2.449693 0.003888
v -0.542600 1.452980 0.003888
v 0.256929 1.973745 0.003888
v 0.537648 1.968978 0.003888
v 0.549288 2.247332 0.003888
v 0.282994 2.562532 0.003888
v 0.139106 1.973745 0.003888
v 0.138600 2.617159 0.003888
v 0.067681 1.973745 0.003888
v 0.208578 1.973745 0.003888
v 0.447980 2.449693 0.003888
v 0.000161 1.064762 0.003888
v -0.540880 1.064762 0.003888
v -0.259988 1.064762 0.003888
v -0.138783 1.064762 0.003888
v -0.069311 1.064762 0.003888
v -0.208255 1.064762 0.003888
v 0.541317 1.064762 0.003888
v 0.260311 1.064762 0.003888
v 0.139106 1.064762 0.003888
v 0.069634 1.064762 0.003888
v 0.208578 1.064762 0.003888
v 0.658577 1.504289 -0.069863
v 0.658577 1.417789 -0.069863
v 0.658577 1.504289 0.043108
v 0.658577 1.417789 0.043108
v -0.650401 1.504288 -0.069863
v -0.650401 1.417788 -0.069863
v -0.650401 1.504288 0.043108
v -0.650401 1.417788 0.043108
v 0.208578 1.455216 0.003888
v 0.068718 1.455216 0.003888
v 0.139106 1.455216 0.003888
v -0.208255 1.455216 0.003888
v -0.138783 1.455216 0.003888
v -0.000754 1.455216 0.003888
v 0.539597 1.452980 0.003888
v 0.258725 1.455216 0.003888
v 0.033942 2.679871 0.041524
v -0.045001 2.679606 0.041524
v 0.034063 2.676045 -0.040748
v -0.044880 2.675780 -0.040748
v 0.040180 1.966414 0.041524
v -0.038762 1.966149 0.041524
v 0.040302 1.962589 -0.040749
v -0.038641 1.962325 -0.040749
v 0.047338 1.093501 -0.052470
v -0.039162 1.093501 -0.052470
v 0.047338 1.093501 0.060502
v -0.039162 1.093501 0.060502
v 0.047338 2.617582 -0.052469
v -0.039162 2.617582 -0.052469
v 0.047338 2.617582 0.060502
v -0.039162 2.617582 0.060502
v 0.658577 2.006612 -0.069863
v 0.658577 1.920112 -0.069863
v 0.658577 2.006612 0.043108
v 0.658577 1.920112 0.043108
v -0.650401 2.006611 -0.069863
v -0.650401 1.920111 -0.069863
v -0.650401 2.006611 0.043108
v -0.650401 1.920111 0.043108
v -0.261574 1.455216 0.003888
vn 1.0000 -0.0000 -0.0000
vn -1.0000 -0.0000 -0.0000
vn -0.0000 -0.0000 1.0000
vn -0.0000 -1.0000 -0.0000
vn -0.0000 1.0000 -0.0000
vn -0.0000 -0.0000 -1.0000
vn 0.9494 -0.3142 -0.0000
vn 0.7961 -0.6052 -0.0000
vn -0.9539 0.3002 -0.0000
vn -0.8209 0.5711 -0.0000
vn 0.5673 -0.8235 -0.0000
vn 0.2998 -0.9540 -0.0000
vn -0.5747 0.8184 -0.0000
vn -0.2803 0.9599 -0.0000
vn -0.9863 0.1652 -0.0000
vn 0.9889 -0.1486 -0.0000
vn -0.0433 -0.9991 -0.0000
vn -0.9494 -0.3142 -0.0000
vn -0.7961 -0.6052 -0.0000
vn 0.9539 0.3002 -0.0000
vn 0.8209 0.5711 -0.0000
vn -0.5673 -0.8235 -0.0000
vn -0.2998 -0.9540 -0.0000
vn 0.5747 0.8184 -0.0000
vn 0.2803 0.9599 -0.0000
vn 0.9863 0.1652 -0.0000
vn -0.9889 -0.1486 -0.0000
vn 0.0433 -0.9991 -0.0000
vn 1.0000 0.0087 0.0011
vn -1.0000 -0.0087 -0.0011
vt 0.083990 0.378749
vt 0.083990 0.209792
vt 0.157543 0.209792
vt 0.157543 0.378749
vt 0.083990 0.378749
vt 0.157543 0.378749
vt 1.112351 0.692001
vt -0.165585 0.692001
vt -0.165586 0.749964
vt 1.112351 0.749964
vt 1.100516 0.873930
vt 1.100516 0.756432
vt -0.177421 0.756432
vt -0.177421 0.873930
vt -0.885344 0.998930
vt -0.885344 0.757804
vt 0.392593 0.757804
vt 0.392593 0.998930
vt 2.088381 0.692001
vt 0.810444 0.692001
vt 0.810444 0.749964
vt 2.088381 0.749964
vt 0.722656 0.692001
vt 0.000000 0.692001
vt 0.000000 0.749964
vt 0.722656 0.749964
vt 0.230989 0.927094
vt 0.230989 0.690848
vt 0.953646 0.690848
vt 0.953646 0.927094
vt 0.000000 0.873930
vt 0.000000 0.756432
vt 0.722656 0.756432
vt 0.722656 0.873930
vt 0.230989 0.930348
vt 0.953646 0.930348
vt 0.214601 0.997378
vt 0.214601 0.757209
vt 0.273666 0.757209
vt 0.273666 0.997378
vt 0.108271 0.997378
vt 0.108271 0.885876
vt 0.237229 0.885876
vt 0.237229 0.997378
vt 0.125875 0.997378
vt 0.125875 0.757209
vt 0.194151 0.757209
vt 0.194151 0.997378
vt -0.011077 0.997378
vt -0.011077 0.885876
vt 1.032853 0.885876
vt 1.032853 0.997378
vt 0.910316 0.997378
vt 0.910316 0.885876
vt 0.333349 0.997378
vt 0.333349 0.757209
vt 0.383556 0.757209
vt 0.383556 0.997378
vt 0.777912 0.997378
vt 0.777912 0.885876
vt 0.271750 0.757209
vt 0.271749 0.997378
vt 0.353836 0.997378
vt 0.353836 0.757209
vt 0.440376 0.757209
vt 0.440376 0.997378
vt 0.362038 0.885876
vt 0.362038 0.997378
vt 0.649768 0.997378
vt 0.649768 0.885876
vt 0.497111 0.885876
vt 0.497111 0.997378
vt 0.511085 0.997378
vt 0.511085 0.885876
vt 0.440376 0.757209
vt 0.440376 0.997378
vt 1.131144 0.885876
vt 1.131144 0.997378
vt -0.106809 0.997378
vt -0.106809 0.885876
vt 0.066730 0.997378
vt 0.066730 0.757209
vt 0.171960 0.997378
vt 0.171960 0.757209
vt 0.635711 0.875644
vt 0.356401 0.875644
vt 0.356401 0.759490
vt 0.635711 0.759490
vt 0.666152 0.997378
vt 0.607087 0.997378
vt 0.607087 0.757209
vt 0.666152 0.757209
vt 0.885951 0.997378
vt 0.756993 0.997378
vt 0.756993 0.885876
vt 0.885951 0.885876
vt 0.754877 0.997378
vt 0.686602 0.997378
vt 0.686602 0.757209
vt 0.754877 0.757209
vt 1.005299 0.997378
vt 1.005299 0.885876
vt -0.010683 0.885876
vt 0.111855 0.885876
vt 0.111855 0.997378
vt -0.010683 0.997378
vt 0.547404 0.997378
vt 0.497197 0.997378
vt 0.497197 0.757209
vt 0.547404 0.757209
vt 0.244258 0.885876
vt 0.244258 0.997378
vt 0.609003 0.997378
vt 0.609003 0.757209
vt 0.526917 0.997378
vt 0.526917 0.757209
vt 0.632184 0.997378
vt 0.632184 0.885876
vt 0.372403 0.885876
vt 0.372403 0.997378
vt -0.108973 0.885876
vt -0.108973 0.997378
vt 1.101031 0.997378
vt 1.101031 0.885876
vt 0.814023 0.997378
vt 0.814023 0.757209
vt 0.708793 0.997378
vt 0.708793 0.757209
vt 0.637948 0.757524
vt 0.637948 0.875598
vt 0.354021 0.875598
vt 0.354021 0.757525
vt 0.618421 1.000000
vt 0.517067 1.000000
vt 0.520370 0.004292
vt 0.618421 0.004292
vt 0.622287 0.007354
vt 0.185740 1.005282
vt 0.000000 1.005282
vt 0.521456 0.007354
vt 0.872001 1.000000
vt 0.744004 1.000000
vt 0.744004 0.000000
vt 0.872001 0.000000
vt 0.470278 0.007354
vt 1.000000 0.979255
vt 0.816441 0.979255
vt 0.382671 0.007354
vt 1.000000 0.007354
vt 0.998480 1.005282
vt 0.745928 1.005282
vt 0.876476 0.007354
vt 1.000000 0.004292
vt 0.998093 1.000000
vt 0.873928 1.000000
vt 0.873928 0.004292
vt 0.616008 1.000000
vt 0.616008 0.000000
vt 0.007056 0.000000
vt 0.749382 0.007354
vt 0.487573 1.005282
vt 1.000000 0.000000
vt 0.996401 0.990846
vt 0.477883 1.000000
vt 0.481201 0.004292
vt 0.520693 0.000000
vt 0.517770 1.000000
vt 0.000000 0.994275
vt 0.003169 0.000000
vt 0.517505 0.979255
vt 0.256796 0.007354
vt 0.258011 1.000000
vt 0.128162 1.000000
vt 0.129851 0.000000
vt 0.258011 0.000000
vt 0.001505 0.007354
vt 0.127383 0.007354
vt 0.255879 0.979255
vt 0.000000 0.979255
vt 0.001916 0.004292
vt 0.130239 0.004292
vt 0.128324 1.000000
vt 0.000000 1.000000
vt 0.386171 1.000000
vt 0.386171 0.000000
vt 0.978910 0.000000
vt 0.388574 1.000000
vt 0.388574 0.004292
vt 0.000000 0.990846
vt 0.003582 0.000000
vt 1.100516 0.747780
vt 1.100516 0.695899
vt -0.177421 0.695899
vt -0.177421 0.747780
vt -0.885344 0.745965
vt -0.885344 0.696505
vt 0.392593 0.696505
vt 0.392593 0.745965
vt 0.746175 1.000000
vt 0.746175 0.004292
vt 0.998312 1.000000
vt 0.260252 1.000000
vt 0.260252 0.004292
vt 0.001690 0.000000
vt 0.481607 0.000000
vt 0.478681 1.000000
vt 1.724977 0.708047
vt 1.724977 0.751337
vt 1.154446 0.751337
vt 1.154445 0.708047
vt 0.570531 0.751337
vt 0.000000 0.751337
vt 0.000000 0.700749
vt 0.570531 0.700749
vt 1.300223 0.700749
vt 1.300223 0.744039
vt 0.729692 0.744039
vt 0.729692 0.700749
vt -0.000243 0.751332
vt 0.570289 0.751332
vt 0.570288 0.700745
vt -0.000243 0.700745
vt 0.996826 0.994275
s 1
usemtl MI_WoodTrim_Wear
f 1/1/1 3/2/1 4/3/1 2/4/1
f 7/2/2 5/5/2 6/6/2 8/3/2
f 3/7/3 7/8/3 8/9/3 4/10/3
f 8/11/4 6/12/4 2/13/4 4/14/4
f 3/15/5 1/16/5 5/17/5 7/18/5
f 2/19/6 6/20/6 5/21/6 1/22/6
s 2
f 15/2/4 13/5/4 14/4/4 16/3/4
f 11/23/3 15/24/3 16/25/3 12/26/3
f 16/27/1 14/28/1 10/29/1 12/30/1
f 11/31/2 9/32/2 13/33/2 15/34/2
f 10/23/6 14/24/6 13/25/6 9/26/6
s 3
f 23/2/4 24/3/4 22/4/4 21/5/4
f 19/23/3 20/26/3 24/25/3 23/24/3
f 24/35/2 20/36/2 18/29/2 22/28/2
f 19/31/1 23/34/1 21/33/1 17/32/1
f 18/23/6 17/26/6 21/25/6 22/24/6
s 4
f 46/37/7 45/38/7 31/39/8 32/40/8
f 29/41/3 32/42/3 36/43/3 33/44/3
f 48/45/9 47/46/9 29/47/10 30/48/10
f 47/49/3 46/50/3 32/42/3 29/41/3
f 45/51/6 48/52/6 30/53/6 31/54/6
f 36/55/11 35/56/11 39/57/12 40/58/12
f 31/54/6 30/53/6 34/59/6 35/60/6
f 32/40/8 31/39/8 35/56/11 36/55/11
f 30/48/10 29/47/10 33/61/13 34/62/13
f 38/63/14 37/64/14 41/65/5 42/66/5
f 34/62/13 33/61/13 37/64/14 38/63/14
f 33/44/3 36/43/3 40/67/3 37/68/3
f 35/60/6 34/59/6 38/69/6 39/70/6
f 37/68/3 40/67/3 44/71/3 41/72/3
f 39/70/6 38/69/6 42/73/6 43/74/6
f 40/58/12 39/57/12 43/75/4 44/76/4
f 26/77/6 25/78/6 48/52/6 45/51/6
f 27/79/3 28/80/3 46/50/3 47/49/3
f 25/81/15 27/82/15 47/46/9 48/45/9
f 28/83/16 26/84/16 45/38/7 46/37/7
f 27/85/17 25/86/17 26/87/17 28/88/17
f 66/89/18 56/90/19 55/91/19 65/92/18
f 53/93/3 57/94/3 60/95/3 56/96/3
f 68/97/20 54/98/21 53/99/21 67/100/20
f 67/101/3 53/93/3 56/96/3 66/102/3
f 65/103/6 55/104/6 54/105/6 68/106/6
f 60/107/22 64/108/23 63/109/23 59/110/22
f 55/104/6 59/111/6 58/112/6 54/105/6
f 56/90/19 60/107/22 59/110/22 55/91/19
f 54/98/21 58/113/24 57/114/24 53/99/21
f 62/115/25 42/66/5 41/65/5 61/116/25
f 58/113/24 62/115/25 61/116/25 57/114/24
f 57/94/3 61/117/3 64/118/3 60/95/3
f 59/111/6 63/119/6 62/120/6 58/112/6
f 61/117/3 41/72/3 44/71/3 64/118/3
f 63/119/6 43/74/6 42/73/6 62/120/6
f 64/108/23 44/76/4 43/75/4 63/109/23
f 50/121/6 65/103/6 68/106/6 49/122/6
f 51/123/3 67/101/3 66/102/3 52/124/3
f 49/125/26 68/97/20 67/100/20 51/126/26
f 52/127/27 66/89/18 65/92/18 50/128/27
f 51/129/28 52/130/28 50/131/28 49/132/28
s 6
f 102/1/1 104/2/1 105/3/1 103/4/1
f 108/2/2 106/5/2 107/6/2 109/3/2
f 104/7/3 108/8/3 109/9/3 105/10/3
f 109/191/4 107/192/4 103/193/4 105/194/4
f 104/195/5 102/196/5 106/197/5 108/198/5
f 103/19/6 107/20/6 106/21/6 102/22/6
s 7
f 123/207/3 122/208/3 118/209/3 119/210/3
f 118/211/29 122/212/29 124/213/29 120/214/29
f 124/215/6 125/216/6 121/217/6 120/218/6
f 123/219/30 119/220/30 121/221/30 125/222/30
s 8
f 126/1/4 128/2/4 129/3/4 127/4/4
f 132/2/5 130/5/5 131/6/5 133/3/5
f 128/7/3 132/8/3 133/9/3 129/10/3
f 133/191/2 131/192/2 127/193/2 129/194/2
f 128/195/1 126/196/1 130/197/1 132/198/1
f 127/19/6 131/20/6 130/21/6 126/22/6
s 9
f 134/1/1 136/2/1 137/3/1 135/4/1
f 140/2/2 138/5/2 139/6/2 141/3/2
f 136/7/3 140/8/3 141/9/3 137/10/3
f 141/191/4 139/192/4 135/193/4 137/194/4
f 136/195/5 134/196/5 138/197/5 140/198/5
f 135/19/6 139/20/6 138/21/6 134/22/6
s 5
usemtl MI_WindowGlass
f 79/133/3 71/134/3 142/135/3 113/136/3
f 79/137/3 80/138/3 74/139/3 71/140/3
f 69/141/3 114/142/3 94/143/3 95/144/3
f 82/145/3 84/146/3 90/147/3 89/148/3
f 73/149/3 70/150/3 77/151/3 78/152/3
f 115/153/3 73/154/3 78/155/3 69/156/3
f 114/142/3 113/157/3 96/158/3 94/143/3
f 71/140/3 74/139/3 72/159/3
f 76/160/3 78/152/3 77/151/3 75/161/3
f 116/162/3 83/163/3 82/164/3 117/165/3
f 93/166/3 142/167/3 81/168/3 92/169/3
f 89/148/3 90/147/3 85/170/3 86/171/3
f 112/172/3 111/173/3 100/174/3 99/175/3
f 73/176/3 88/177/3 87/178/3 70/179/3
f 115/180/3 111/181/3 88/182/3 73/183/3
f 110/184/3 112/172/3 99/175/3 101/185/3
f 86/171/3 85/170/3 87/178/3 88/177/3
f 84/146/3 82/145/3 83/186/3
f 76/160/3 75/161/3 80/138/3 79/137/3
f 117/165/3 82/164/3 89/187/3 110/188/3
f 113/157/3 142/167/3 93/166/3 96/158/3
f 142/135/3 71/134/3 72/189/3 81/190/3
f 78/155/3 76/199/3 114/200/3 69/156/3
f 91/162/3 115/201/3 69/141/3 95/144/3
f 76/199/3 79/133/3 113/136/3 114/200/3
f 86/202/3 88/182/3 111/181/3 112/203/3
f 91/204/3 100/174/3 111/173/3 115/183/3
f 89/187/3 86/202/3 112/203/3 110/188/3
f 98/205/3 117/206/3 110/184/3 101/185/3
f 97/162/3 116/223/3 117/206/3 98/205/3
