{
	"asset":{
		"generator":"Khronos glTF Blender I/O v4.0.44",
		"version":"2.0"
	},
	"scene":0,
	"scenes":[
		{
			"name":"Scene",
			"nodes":[
				1
			]
		}
	],
	"nodes":[
		{
			"mesh":0,
			"name":"Door_3_Round_1-convcolonly"
		},
		{
			"children":[
				0
			],
			"mesh":1,
			"name":"Door_3_Round"
		}
	],
	"materials":[
		{
			"doubleSided":true,
			"name":"Collision",
			"pbrMetallicRoughness":{
				"baseColorFactor":[
					0.05868536978960037,
					0.2907957136631012,
					0.8000074625015259,
					1
				],
				"metallicFactor":0,
				"roughnessFactor":0.5
			}
		},
		{
			"doubleSided":true,
			"name":"MI_WoodTrim_Wear",
			"normalTexture":{
				"index":0
			},
			"pbrMetallicRoughness":{
				"baseColorTexture":{
					"index":1
				},
				"metallicFactor":0,
				"metallicRoughnessTexture":{
					"index":2
				}
			}
		},
		{
			"doubleSided":true,
			"name":"MI_MetalOrnaments",
			"pbrMetallicRoughness":{
				"baseColorTexture":{
					"index":3
				},
				"metallicRoughnessTexture":{
					"index":4
				}
			}
		}
	],
	"meshes":[
		{
			"name":"Cube.373",
			"primitives":[
				{
					"attributes":{
						"POSITION":0,
						"NORMAL":1,
						"TEXCOORD_0":2
					},
					"indices":3,
					"material":0
				}
			]
		},
		{
			"name":"Cube.239",
			"primitives":[
				{
					"attributes":{
						"POSITION":4,
						"NORMAL":5,
						"TEXCOORD_0":6,
						"TEXCOORD_1":7
					},
					"indices":8,
					"material":1
				},
				{
					"attributes":{
						"POSITION":9,
						"NORMAL":10,
						"TEXCOORD_0":11,
						"TEXCOORD_1":12
					},
					"indices":13,
					"material":2
				}
			]
		}
	],
	"textures":[
		{
			"sampler":0,
			"source":0
		},
		{
			"sampler":0,
			"source":1
		},
		{
			"sampler":0,
			"source":2
		},
		{
			"sampler":0,
			"source":3
		},
		{
			"sampler":0,
			"source":4
		}
	],
	"images":[
		{
			"mimeType":"image/png",
			"name":"T_WoodTrim_Normal",
			"uri":"T_WoodTrim_Normal.png"
		},
		{
			"mimeType":"image/png",
			"name":"T_WoodTrim_BaseColor",
			"uri":"T_WoodTrim_BaseColor.png"
		},
		{
			"mimeType":"image/png",
			"name":"T_WoodTrim_Roughness",
			"uri":"T_WoodTrim_Roughness.png"
		},
		{
			"mimeType":"image/png",
			"name":"T_MetalOrnaments_BaseColor",
			"uri":"T_MetalOrnaments_BaseColor.png"
		},
		{
			"mimeType":"image/png",
			"name":"T_MetalOrnaments_Roughness",
			"uri":"T_MetalOrnaments_Roughness.png"
		}
	],
	"accessors":[
		{
			"bufferView":0,
			"componentType":5126,
			"count":54,
			"max":[
				1.0995653867721558,
				2.4150562286376953,
				0.07293295860290527
			],
			"min":[
				-0.07106883078813553,
				0.04214763641357422,
				-0.05419301986694336
			],
			"type":"VEC3"
		},
		{
			"bufferView":1,
			"componentType":5126,
			"count":54,
			"type":"VEC3"
		},
		{
			"bufferView":2,
			"componentType":5126,
			"count":54,
			"type":"VEC2"
		},
		{
			"bufferView":3,
			"componentType":5123,
			"count":108,
			"type":"SCALAR"
		},
		{
			"bufferView":4,
			"componentType":5126,
			"count":918,
			"max":[
				1.102661371231079,
				2.3552701473236084,
				0.07022200524806976
			],
			"min":[
				-0.06639069318771362,
				0.0343424454331398,
				-0.0702221468091011
			],
			"type":"VEC3"
		},
		{
			"bufferView":5,
			"componentType":5126,
			"count":918,
			"type":"VEC3"
		},
		{
			"bufferView":6,
			"componentType":5126,
			"count":918,
			"type":"VEC2"
		},
		{
			"bufferView":7,
			"componentType":5126,
			"count":918,
			"type":"VEC2"
		},
		{
			"bufferView":8,
			"componentType":5123,
			"count":1992,
			"type":"SCALAR"
		},
		{
			"bufferView":9,
			"componentType":5126,
			"count":2024,
			"max":[
				1.0157819986343384,
				2.0912022590637207,
				0.11758767068386078
			],
			"min":[
				0.027867160737514496,
				0.07367733120918274,
				-0.1353754699230194
			],
			"type":"VEC3"
		},
		{
			"bufferView":10,
			"componentType":5126,
			"count":2024,
			"type":"VEC3"
		},
		{
			"bufferView":11,
			"componentType":5126,
			"count":2024,
			"type":"VEC2"
		},
		{
			"bufferView":12,
			"componentType":5126,
			"count":2024,
			"type":"VEC2"
		},
		{
			"bufferView":13,
			"componentType":5123,
			"count":5052,
			"type":"SCALAR"
		}
	],
	"bufferViews":[
		{
			"buffer":0,
			"byteLength":648,
			"byteOffset":0,
			"target":34962
		},
		{
			"buffer":0,
			"byteLength":648,
			"byteOffset":648,
			"target":34962
		},
		{
			"buffer":0,
			"byteLength":432,
			"byteOffset":1296,
			"target":34962
		},
		{
			"buffer":0,
			"byteLength":216,
			"byteOffset":1728,
			"target":34963
		},
		{
			"buffer":0,
			"byteLength":11016,
			"byteOffset":1944,
			"target":34962
		},
		{
			"buffer":0,
			"byteLength":11016,
			"byteOffset":12960,
			"target":34962
		},
		{
			"buffer":0,
			"byteLength":7344,
			"byteOffset":23976,
			"target":34962
		},
		{
			"buffer":0,
			"byteLength":7344,
			"byteOffset":31320,
			"target":34962
		},
		{
			"buffer":0,
			"byteLength":3984,
			"byteOffset":38664,
			"target":34963
		},
		{
			"buffer":0,
			"byteLength":24288,
			"byteOffset":42648,
			"target":34962
		},
		{
			"buffer":0,
			"byteLength":24288,
			"byteOffset":66936,
			"target":34962
		},
		{
			"buffer":0,
			"byteLength":16192,
			"byteOffset":91224,
			"target":34962
		},
		{
			"buffer":0,
			"byteLength":16192,
			"byteOffset":107416,
			"target":34962
		},
		{
			"buffer":0,
			"byteLength":10104,
			"byteOffset":123608,
			"target":34963
		}
	],
	"samplers":[
		{
			"magFilter":9729,
			"minFilter":9987
		}
	],
	"buffers":[
		{
			"byteLength":133712,
			"uri":"Door_3_Round.bin"
		}
	]
}
