{
	"asset":{
		"generator":"Khronos glTF Blender I/O v4.0.44",
		"version":"2.0"
	},
	"scene":0,
	"scenes":[
		{
			"name":"Scene",
			"nodes":[
				1
			]
		}
	],
	"nodes":[
		{
			"mesh":0,
			"name":"Door_5_Round_1-convcolonly"
		},
		{
			"children":[
				0
			],
			"mesh":1,
			"name":"Door_5_Round"
		}
	],
	"materials":[
		{
			"doubleSided":true,
			"name":"Collision",
			"pbrMetallicRoughness":{
				"baseColorFactor":[
					0.05868536978960037,
					0.2907957136631012,
					0.8000074625015259,
					1
				],
				"metallicFactor":0,
				"roughnessFactor":0.5
			}
		},
		{
			"doubleSided":true,
			"name":"MI_WoodTrim_Wear",
			"normalTexture":{
				"index":0
			},
			"pbrMetallicRoughness":{
				"baseColorTexture":{
					"index":1
				},
				"metallicFactor":0,
				"metallicRoughnessTexture":{
					"index":2
				}
			}
		},
		{
			"doubleSided":true,
			"name":"MI_MetalOrnaments",
			"pbrMetallicRoughness":{
				"baseColorTexture":{
					"index":3
				},
				"metallicRoughnessTexture":{
					"index":4
				}
			}
		}
	],
	"meshes":[
		{
			"name":"Cube.375",
			"primitives":[
				{
					"attributes":{
						"POSITION":0,
						"NORMAL":1,
						"TEXCOORD_0":2
					},
					"indices":3,
					"material":0
				}
			]
		},
		{
			"name":"Cube.244",
			"primitives":[
				{
					"attributes":{
						"POSITION":4,
						"NORMAL":5,
						"TEXCOORD_0":6,
						"TEXCOORD_1":7
					},
					"indices":8,
					"material":1
				},
				{
					"attributes":{
						"POSITION":9,
						"NORMAL":10,
						"TEXCOORD_0":11,
						"TEXCOORD_1":12
					},
					"indices":13,
					"material":2
				}
			]
		}
	],
	"textures":[
		{
			"sampler":0,
			"source":0
		},
		{
			"sampler":0,
			"source":1
		},
		{
			"sampler":0,
			"source":2
		},
		{
			"sampler":0,
			"source":3
		},
		{
			"sampler":0,
			"source":4
		}
	],
	"images":[
		{
			"mimeType":"image/png",
			"name":"T_WoodTrim_Normal",
			"uri":"T_WoodTrim_Normal.png"
		},
		{
			"mimeType":"image/png",
			"name":"T_WoodTrim_BaseColor",
			"uri":"T_WoodTrim_BaseColor.png"
		},
		{
			"mimeType":"image/png",
			"name":"T_WoodTrim_Roughness",
			"uri":"T_WoodTrim_Roughness.png"
		},
		{
			"mimeType":"image/png",
			"name":"T_MetalOrnaments_BaseColor",
			"uri":"T_MetalOrnaments_BaseColor.png"
		},
		{
			"mimeType":"image/png",
			"name":"T_MetalOrnaments_Roughness",
			"uri":"T_MetalOrnaments_Roughness.png"
		}
	],
	"accessors":[
		{
			"bufferView":0,
			"componentType":5126,
			"count":54,
			"max":[
				1.0995653867721558,
				2.4150562286376953,
				0.07293295860290527
			],
			"min":[
				-0.07106883078813553,
				0.04214763641357422,
				-0.05419301986694336
			],
			"type":"VEC3"
		},
		{
			"bufferView":1,
			"componentType":5126,
			"count":54,
			"type":"VEC3"
		},
		{
			"bufferView":2,
			"componentType":5126,
			"count":54,
			"type":"VEC2"
		},
		{
			"bufferView":3,
			"componentType":5123,
			"count":108,
			"type":"SCALAR"
		},
		{
			"bufferView":4,
			"componentType":5126,
			"count":544,
			"max":[
				1.0859839916229248,
				2.3552701473236084,
				0.05755815654993057
			],
			"min":[
				-0.0497928261756897,
				0.033089637756347656,
				-0.05755755677819252
			],
			"type":"VEC3"
		},
		{
			"bufferView":5,
			"componentType":5126,
			"count":544,
			"type":"VEC3"
		},
		{
			"bufferView":6,
			"componentType":5126,
			"count":544,
			"type":"VEC2"
		},
		{
			"bufferView":7,
			"componentType":5126,
			"count":544,
			"type":"VEC2"
		},
		{
			"bufferView":8,
			"componentType":5123,
			"count":996,
			"type":"SCALAR"
		},
		{
			"bufferView":9,
			"componentType":5126,
			"count":2391,
			"max":[
				0.9605340361595154,
				1.6445578336715698,
				0.0917586237192154
			],
			"min":[
				0.04198461025953293,
				0.6185734868049622,
				-0.10770562291145325
			],
			"type":"VEC3"
		},
		{
			"bufferView":10,
			"componentType":5126,
			"count":2391,
			"type":"VEC3"
		},
		{
			"bufferView":11,
			"componentType":5126,
			"count":2391,
			"type":"VEC2"
		},
		{
			"bufferView":12,
			"componentType":5126,
			"count":2391,
			"type":"VEC2"
		},
		{
			"bufferView":13,
			"componentType":5123,
			"count":7794,
			"type":"SCALAR"
		}
	],
	"bufferViews":[
		{
			"buffer":0,
			"byteLength":648,
			"byteOffset":0,
			"target":34962
		},
		{
			"buffer":0,
			"byteLength":648,
			"byteOffset":648,
			"target":34962
		},
		{
			"buffer":0,
			"byteLength":432,
			"byteOffset":1296,
			"target":34962
		},
		{
			"buffer":0,
			"byteLength":216,
			"byteOffset":1728,
			"target":34963
		},
		{
			"buffer":0,
			"byteLength":6528,
			"byteOffset":1944,
			"target":34962
		},
		{
			"buffer":0,
			"byteLength":6528,
			"byteOffset":8472,
			"target":34962
		},
		{
			"buffer":0,
			"byteLength":4352,
			"byteOffset":15000,
			"target":34962
		},
		{
			"buffer":0,
			"byteLength":4352,
			"byteOffset":19352,
			"target":34962
		},
		{
			"buffer":0,
			"byteLength":1992,
			"byteOffset":23704,
			"target":34963
		},
		{
			"buffer":0,
			"byteLength":28692,
			"byteOffset":25696,
			"target":34962
		},
		{
			"buffer":0,
			"byteLength":28692,
			"byteOffset":54388,
			"target":34962
		},
		{
			"buffer":0,
			"byteLength":19128,
			"byteOffset":83080,
			"target":34962
		},
		{
			"buffer":0,
			"byteLength":19128,
			"byteOffset":102208,
			"target":34962
		},
		{
			"buffer":0,
			"byteLength":15588,
			"byteOffset":121336,
			"target":34963
		}
	],
	"samplers":[
		{
			"magFilter":9729,
			"minFilter":9987
		}
	],
	"buffers":[
		{
			"byteLength":136924,
			"uri":"Door_5_Round.bin"
		}
	]
}
