{
	"asset":{
		"generator":"Khronos glTF Blender I/O v4.0.44",
		"version":"2.0"
	},
	"scene":0,
	"scenes":[
		{
			"name":"Scene",
			"nodes":[
				1
			]
		}
	],
	"nodes":[
		{
			"mesh":0,
			"name":"Door_4_Flat_1-convcolonly"
		},
		{
			"children":[
				0
			],
			"mesh":1,
			"name":"Door_4_Flat"
		}
	],
	"materials":[
		{
			"doubleSided":true,
			"name":"Collision",
			"pbrMetallicRoughness":{
				"baseColorFactor":[
					0.05868536978960037,
					0.2907957136631012,
					0.8000074625015259,
					1
				],
				"metallicFactor":0,
				"roughnessFactor":0.5
			}
		},
		{
			"doubleSided":true,
			"name":"MI_WoodTrim_Wear",
			"normalTexture":{
				"index":0
			},
			"pbrMetallicRoughness":{
				"baseColorTexture":{
					"index":1
				},
				"metallicFactor":0,
				"metallicRoughnessTexture":{
					"index":2
				}
			}
		},
		{
			"doubleSided":true,
			"name":"MI_MetalOrnaments",
			"pbrMetallicRoughness":{
				"baseColorTexture":{
					"index":3
				},
				"metallicRoughnessTexture":{
					"index":4
				}
			}
		}
	],
	"meshes":[
		{
			"name":"Cube.381",
			"primitives":[
				{
					"attributes":{
						"POSITION":0,
						"NORMAL":1,
						"TEXCOORD_0":2
					},
					"indices":3,
					"material":0
				}
			]
		},
		{
			"name":"Cube.194",
			"primitives":[
				{
					"attributes":{
						"POSITION":4,
						"NORMAL":5,
						"TEXCOORD_0":6,
						"TEXCOORD_1":7
					},
					"indices":8,
					"material":1
				},
				{
					"attributes":{
						"POSITION":9,
						"NORMAL":10,
						"TEXCOORD_0":11,
						"TEXCOORD_1":12
					},
					"indices":13,
					"material":2
				}
			]
		}
	],
	"textures":[
		{
			"sampler":0,
			"source":0
		},
		{
			"sampler":0,
			"source":1
		},
		{
			"sampler":0,
			"source":2
		},
		{
			"sampler":0,
			"source":3
		},
		{
			"sampler":0,
			"source":4
		}
	],
	"images":[
		{
			"mimeType":"image/png",
			"name":"T_WoodTrim_Normal",
			"uri":"T_WoodTrim_Normal.png"
		},
		{
			"mimeType":"image/png",
			"name":"T_WoodTrim_BaseColor",
			"uri":"T_WoodTrim_BaseColor.png"
		},
		{
			"mimeType":"image/png",
			"name":"T_WoodTrim_Roughness",
			"uri":"T_WoodTrim_Roughness.png"
		},
		{
			"mimeType":"image/png",
			"name":"T_MetalOrnaments_BaseColor",
			"uri":"T_MetalOrnaments_BaseColor.png"
		},
		{
			"mimeType":"image/png",
			"name":"T_MetalOrnaments_Roughness",
			"uri":"T_MetalOrnaments_Roughness.png"
		}
	],
	"accessors":[
		{
			"bufferView":0,
			"componentType":5126,
			"count":24,
			"max":[
				1.0995653867721558,
				2.20114803314209,
				0.07293295860290527
			],
			"min":[
				-0.07106883078813553,
				0.0352252721786499,
				-0.05419301986694336
			],
			"type":"VEC3"
		},
		{
			"bufferView":1,
			"componentType":5126,
			"count":24,
			"type":"VEC3"
		},
		{
			"bufferView":2,
			"componentType":5126,
			"count":24,
			"type":"VEC2"
		},
		{
			"bufferView":3,
			"componentType":5123,
			"count":36,
			"type":"SCALAR"
		},
		{
			"bufferView":4,
			"componentType":5126,
			"count":599,
			"max":[
				1.0716030597686768,
				2.127084732055664,
				0.06528931111097336
			],
			"min":[
				-0.04626310616731644,
				0.0352252721786499,
				-0.06549837440252304
			],
			"type":"VEC3"
		},
		{
			"bufferView":5,
			"componentType":5126,
			"count":599,
			"type":"VEC3"
		},
		{
			"bufferView":6,
			"componentType":5126,
			"count":599,
			"type":"VEC2"
		},
		{
			"bufferView":7,
			"componentType":5126,
			"count":599,
			"type":"VEC2"
		},
		{
			"bufferView":8,
			"componentType":5123,
			"count":1128,
			"type":"SCALAR"
		},
		{
			"bufferView":9,
			"componentType":5126,
			"count":949,
			"max":[
				1.009713888168335,
				2.1072897911071777,
				0.09175863862037659
			],
			"min":[
				0.0035822317004203796,
				0.1239590048789978,
				-0.11758767068386078
			],
			"type":"VEC3"
		},
		{
			"bufferView":10,
			"componentType":5126,
			"count":949,
			"type":"VEC3"
		},
		{
			"bufferView":11,
			"componentType":5126,
			"count":949,
			"type":"VEC2"
		},
		{
			"bufferView":12,
			"componentType":5126,
			"count":949,
			"type":"VEC2"
		},
		{
			"bufferView":13,
			"componentType":5123,
			"count":2004,
			"type":"SCALAR"
		}
	],
	"bufferViews":[
		{
			"buffer":0,
			"byteLength":288,
			"byteOffset":0,
			"target":34962
		},
		{
			"buffer":0,
			"byteLength":288,
			"byteOffset":288,
			"target":34962
		},
		{
			"buffer":0,
			"byteLength":192,
			"byteOffset":576,
			"target":34962
		},
		{
			"buffer":0,
			"byteLength":72,
			"byteOffset":768,
			"target":34963
		},
		{
			"buffer":0,
			"byteLength":7188,
			"byteOffset":840,
			"target":34962
		},
		{
			"buffer":0,
			"byteLength":7188,
			"byteOffset":8028,
			"target":34962
		},
		{
			"buffer":0,
			"byteLength":4792,
			"byteOffset":15216,
			"target":34962
		},
		{
			"buffer":0,
			"byteLength":4792,
			"byteOffset":20008,
			"target":34962
		},
		{
			"buffer":0,
			"byteLength":2256,
			"byteOffset":24800,
			"target":34963
		},
		{
			"buffer":0,
			"byteLength":11388,
			"byteOffset":27056,
			"target":34962
		},
		{
			"buffer":0,
			"byteLength":11388,
			"byteOffset":38444,
			"target":34962
		},
		{
			"buffer":0,
			"byteLength":7592,
			"byteOffset":49832,
			"target":34962
		},
		{
			"buffer":0,
			"byteLength":7592,
			"byteOffset":57424,
			"target":34962
		},
		{
			"buffer":0,
			"byteLength":4008,
			"byteOffset":65016,
			"target":34963
		}
	],
	"samplers":[
		{
			"magFilter":9729,
			"minFilter":9987
		}
	],
	"buffers":[
		{
			"byteLength":69024,
			"uri":"Door_4_Flat.bin"
		}
	]
}
