{
	"asset":{
		"generator":"Khronos glTF Blender I/O v4.0.44",
		"version":"2.0"
	},
	"scene":0,
	"scenes":[
		{
			"name":"Scene",
			"nodes":[
				1
			]
		}
	],
	"nodes":[
		{
			"mesh":0,
			"name":"Door_2_Round_1-convcolonly"
		},
		{
			"children":[
				0
			],
			"mesh":1,
			"name":"Door_2_Round"
		}
	],
	"materials":[
		{
			"doubleSided":true,
			"name":"Collision",
			"pbrMetallicRoughness":{
				"baseColorFactor":[
					0.05868536978960037,
					0.2907957136631012,
					0.8000074625015259,
					1
				],
				"metallicFactor":0,
				"roughnessFactor":0.5
			}
		},
		{
			"doubleSided":true,
			"name":"MI_WoodTrim_Wear",
			"normalTexture":{
				"index":0
			},
			"pbrMetallicRoughness":{
				"baseColorTexture":{
					"index":1
				},
				"metallicFactor":0,
				"metallicRoughnessTexture":{
					"index":2
				}
			}
		},
		{
			"doubleSided":true,
			"name":"MI_MetalOrnaments",
			"pbrMetallicRoughness":{
				"baseColorTexture":{
					"index":3
				},
				"metallicRoughnessTexture":{
					"index":4
				}
			}
		}
	],
	"meshes":[
		{
			"name":"Cube.372",
			"primitives":[
				{
					"attributes":{
						"POSITION":0,
						"NORMAL":1,
						"TEXCOORD_0":2
					},
					"indices":3,
					"material":0
				}
			]
		},
		{
			"name":"Cube.237",
			"primitives":[
				{
					"attributes":{
						"POSITION":4,
						"NORMAL":5,
						"TEXCOORD_0":6,
						"TEXCOORD_1":7
					},
					"indices":8,
					"material":1
				},
				{
					"attributes":{
						"POSITION":9,
						"NORMAL":10,
						"TEXCOORD_0":11,
						"TEXCOORD_1":12
					},
					"indices":13,
					"material":2
				}
			]
		}
	],
	"textures":[
		{
			"sampler":0,
			"source":0
		},
		{
			"sampler":0,
			"source":1
		},
		{
			"sampler":0,
			"source":2
		},
		{
			"sampler":0,
			"source":3
		},
		{
			"sampler":0,
			"source":4
		}
	],
	"images":[
		{
			"mimeType":"image/png",
			"name":"T_WoodTrim_Normal",
			"uri":"T_WoodTrim_Normal.png"
		},
		{
			"mimeType":"image/png",
			"name":"T_WoodTrim_BaseColor",
			"uri":"T_WoodTrim_BaseColor.png"
		},
		{
			"mimeType":"image/png",
			"name":"T_WoodTrim_Roughness",
			"uri":"T_WoodTrim_Roughness.png"
		},
		{
			"mimeType":"image/png",
			"name":"T_MetalOrnaments_BaseColor",
			"uri":"T_MetalOrnaments_BaseColor.png"
		},
		{
			"mimeType":"image/png",
			"name":"T_MetalOrnaments_Roughness",
			"uri":"T_MetalOrnaments_Roughness.png"
		}
	],
	"accessors":[
		{
			"bufferView":0,
			"componentType":5126,
			"count":54,
			"max":[
				1.0995653867721558,
				2.40590500831604,
				0.07293295860290527
			],
			"min":[
				-0.07106883078813553,
				0.032996416091918945,
				-0.05419301986694336
			],
			"type":"VEC3"
		},
		{
			"bufferView":1,
			"componentType":5126,
			"count":54,
			"type":"VEC3"
		},
		{
			"bufferView":2,
			"componentType":5126,
			"count":54,
			"type":"VEC2"
		},
		{
			"bufferView":3,
			"componentType":5123,
			"count":108,
			"type":"SCALAR"
		},
		{
			"bufferView":4,
			"componentType":5126,
			"count":790,
			"max":[
				1.072784423828125,
				2.3558285236358643,
				0.04973819851875305
			],
			"min":[
				-0.04266441613435745,
				0.028338909149169922,
				-0.04973819851875305
			],
			"type":"VEC3"
		},
		{
			"bufferView":5,
			"componentType":5126,
			"count":790,
			"type":"VEC3"
		},
		{
			"bufferView":6,
			"componentType":5126,
			"count":790,
			"type":"VEC2"
		},
		{
			"bufferView":7,
			"componentType":5126,
			"count":790,
			"type":"VEC2"
		},
		{
			"bufferView":8,
			"componentType":5123,
			"count":1872,
			"type":"SCALAR"
		},
		{
			"bufferView":9,
			"componentType":5126,
			"count":3546,
			"max":[
				1.0376418828964233,
				2.038383722305298,
				0.12721848487854004
			],
			"min":[
				0.022681348025798798,
				0.3268890678882599,
				-0.13368189334869385
			],
			"type":"VEC3"
		},
		{
			"bufferView":10,
			"componentType":5126,
			"count":3546,
			"type":"VEC3"
		},
		{
			"bufferView":11,
			"componentType":5126,
			"count":3546,
			"type":"VEC2"
		},
		{
			"bufferView":12,
			"componentType":5126,
			"count":3546,
			"type":"VEC2"
		},
		{
			"bufferView":13,
			"componentType":5123,
			"count":16692,
			"type":"SCALAR"
		}
	],
	"bufferViews":[
		{
			"buffer":0,
			"byteLength":648,
			"byteOffset":0,
			"target":34962
		},
		{
			"buffer":0,
			"byteLength":648,
			"byteOffset":648,
			"target":34962
		},
		{
			"buffer":0,
			"byteLength":432,
			"byteOffset":1296,
			"target":34962
		},
		{
			"buffer":0,
			"byteLength":216,
			"byteOffset":1728,
			"target":34963
		},
		{
			"buffer":0,
			"byteLength":9480,
			"byteOffset":1944,
			"target":34962
		},
		{
			"buffer":0,
			"byteLength":9480,
			"byteOffset":11424,
			"target":34962
		},
		{
			"buffer":0,
			"byteLength":6320,
			"byteOffset":20904,
			"target":34962
		},
		{
			"buffer":0,
			"byteLength":6320,
			"byteOffset":27224,
			"target":34962
		},
		{
			"buffer":0,
			"byteLength":3744,
			"byteOffset":33544,
			"target":34963
		},
		{
			"buffer":0,
			"byteLength":42552,
			"byteOffset":37288,
			"target":34962
		},
		{
			"buffer":0,
			"byteLength":42552,
			"byteOffset":79840,
			"target":34962
		},
		{
			"buffer":0,
			"byteLength":28368,
			"byteOffset":122392,
			"target":34962
		},
		{
			"buffer":0,
			"byteLength":28368,
			"byteOffset":150760,
			"target":34962
		},
		{
			"buffer":0,
			"byteLength":33384,
			"byteOffset":179128,
			"target":34963
		}
	],
	"samplers":[
		{
			"magFilter":9729,
			"minFilter":9987
		}
	],
	"buffers":[
		{
			"byteLength":212512,
			"uri":"Door_2_Round.bin"
		}
	]
}
