{
	"asset":{
		"generator":"Khronos glTF Blender I/O v4.0.44",
		"version":"2.0"
	},
	"scene":0,
	"scenes":[
		{
			"name":"Scene",
			"nodes":[
				9
			]
		}
	],
	"nodes":[
		{
			"mesh":0,
			"name":"DoorFrame_Round_WoodDark_01-convcolonly"
		},
		{
			"mesh":1,
			"name":"DoorFrame_Round_WoodDark_02-convcolonly"
		},
		{
			"mesh":2,
			"name":"DoorFrame_Round_WoodDark_03-convcolonly"
		},
		{
			"mesh":3,
			"name":"DoorFrame_Round_WoodDark_04-convcolonly"
		},
		{
			"mesh":4,
			"name":"DoorFrame_Round_WoodDark_05-convcolonly"
		},
		{
			"mesh":5,
			"name":"DoorFrame_Round_WoodDark_06-convcolonly"
		},
		{
			"mesh":6,
			"name":"DoorFrame_Round_WoodDark_07-convcolonly"
		},
		{
			"mesh":7,
			"name":"DoorFrame_Round_WoodDark_08-convcolonly"
		},
		{
			"mesh":8,
			"name":"DoorFrame_Round_WoodDark_09-convcolonly"
		},
		{
			"children":[
				0,
				1,
				2,
				3,
				4,
				5,
				6,
				7,
				8
			],
			"mesh":9,
			"name":"DoorFrame_Round_WoodDark"
		}
	],
	"materials":[
		{
			"doubleSided":true,
			"name":"Collision",
			"pbrMetallicRoughness":{
				"baseColorFactor":[
					0.05868536978960037,
					0.2907957136631012,
					0.8000074625015259,
					1
				],
				"metallicFactor":0,
				"roughnessFactor":0.5
			}
		},
		{
			"doubleSided":true,
			"name":"MI_WoodTrim",
			"normalTexture":{
				"index":0
			},
			"pbrMetallicRoughness":{
				"baseColorTexture":{
					"index":1
				},
				"metallicFactor":0,
				"metallicRoughnessTexture":{
					"index":2
				}
			}
		}
	],
	"meshes":[
		{
			"name":"Cube.277",
			"primitives":[
				{
					"attributes":{
						"POSITION":0,
						"NORMAL":1,
						"TEXCOORD_0":2
					},
					"indices":3,
					"material":0
				}
			]
		},
		{
			"name":"Cube.278",
			"primitives":[
				{
					"attributes":{
						"POSITION":4,
						"NORMAL":5,
						"TEXCOORD_0":6
					},
					"indices":7,
					"material":0
				}
			]
		},
		{
			"name":"Cube.280",
			"primitives":[
				{
					"attributes":{
						"POSITION":8,
						"NORMAL":9,
						"TEXCOORD_0":10
					},
					"indices":11,
					"material":0
				}
			]
		},
		{
			"name":"Cube.281",
			"primitives":[
				{
					"attributes":{
						"POSITION":12,
						"NORMAL":13,
						"TEXCOORD_0":14
					},
					"indices":15,
					"material":0
				}
			]
		},
		{
			"name":"Cube.282",
			"primitives":[
				{
					"attributes":{
						"POSITION":16,
						"NORMAL":17,
						"TEXCOORD_0":18
					},
					"indices":19,
					"material":0
				}
			]
		},
		{
			"name":"Cube.283",
			"primitives":[
				{
					"attributes":{
						"POSITION":20,
						"NORMAL":21,
						"TEXCOORD_0":22
					},
					"indices":23,
					"material":0
				}
			]
		},
		{
			"name":"Cube.284",
			"primitives":[
				{
					"attributes":{
						"POSITION":24,
						"NORMAL":25,
						"TEXCOORD_0":26
					},
					"indices":27,
					"material":0
				}
			]
		},
		{
			"name":"Cube.285",
			"primitives":[
				{
					"attributes":{
						"POSITION":28,
						"NORMAL":29,
						"TEXCOORD_0":30
					},
					"indices":31,
					"material":0
				}
			]
		},
		{
			"name":"Cube.286",
			"primitives":[
				{
					"attributes":{
						"POSITION":32,
						"NORMAL":33,
						"TEXCOORD_0":34
					},
					"indices":35,
					"material":0
				}
			]
		},
		{
			"name":"Cube.251",
			"primitives":[
				{
					"attributes":{
						"POSITION":36,
						"NORMAL":37,
						"TEXCOORD_0":38
					},
					"indices":39,
					"material":1
				}
			]
		}
	],
	"textures":[
		{
			"sampler":0,
			"source":0
		},
		{
			"sampler":0,
			"source":1
		},
		{
			"sampler":0,
			"source":2
		}
	],
	"images":[
		{
			"mimeType":"image/png",
			"name":"T_WoodTrim_Normal",
			"uri":"T_WoodTrim_Normal.png"
		},
		{
			"mimeType":"image/png",
			"name":"T_WoodTrim_BaseColor",
			"uri":"T_WoodTrim_BaseColor.png"
		},
		{
			"mimeType":"image/png",
			"name":"T_WoodTrim_Roughness",
			"uri":"T_WoodTrim_Roughness.png"
		}
	],
	"accessors":[
		{
			"bufferView":0,
			"componentType":5126,
			"count":32,
			"max":[
				-0.5300180912017822,
				2.3654820919036865,
				0.11264991760253906
			],
			"min":[
				-0.6829715967178345,
				-8.926041061840806e-08,
				-0.2259916514158249
			],
			"type":"VEC3"
		},
		{
			"bufferView":1,
			"componentType":5126,
			"count":32,
			"type":"VEC3"
		},
		{
			"bufferView":2,
			"componentType":5126,
			"count":32,
			"type":"VEC2"
		},
		{
			"bufferView":3,
			"componentType":5123,
			"count":60,
			"type":"SCALAR"
		},
		{
			"bufferView":4,
			"componentType":5126,
			"count":32,
			"max":[
				0.6829715967178345,
				2.3654820919036865,
				0.11264991760253906
			],
			"min":[
				0.5300180912017822,
				-8.926041061840806e-08,
				-0.2259916514158249
			],
			"type":"VEC3"
		},
		{
			"bufferView":5,
			"componentType":5126,
			"count":32,
			"type":"VEC3"
		},
		{
			"bufferView":6,
			"componentType":5126,
			"count":32,
			"type":"VEC2"
		},
		{
			"bufferView":7,
			"componentType":5123,
			"count":60,
			"type":"SCALAR"
		},
		{
			"bufferView":8,
			"componentType":5126,
			"count":24,
			"max":[
				0.00047763492329977453,
				2.5552759170532227,
				0.30262917280197144
			],
			"min":[
				-0.2840893566608429,
				2.292461633682251,
				-0.2259916514158249
			],
			"type":"VEC3"
		},
		{
			"bufferView":9,
			"componentType":5126,
			"count":24,
			"type":"VEC3"
		},
		{
			"bufferView":10,
			"componentType":5126,
			"count":24,
			"type":"VEC2"
		},
		{
			"bufferView":11,
			"componentType":5123,
			"count":36,
			"type":"SCALAR"
		},
		{
			"bufferView":12,
			"componentType":5126,
			"count":24,
			"max":[
				-0.2840893566608429,
				2.5087103843688965,
				0.30262917280197144
			],
			"min":[
				-0.530018150806427,
				2.1375892162323,
				-0.2259916514158249
			],
			"type":"VEC3"
		},
		{
			"bufferView":13,
			"componentType":5126,
			"count":24,
			"type":"VEC3"
		},
		{
			"bufferView":14,
			"componentType":5126,
			"count":24,
			"type":"VEC2"
		},
		{
			"bufferView":15,
			"componentType":5123,
			"count":36,
			"type":"SCALAR"
		},
		{
			"bufferView":16,
			"componentType":5126,
			"count":24,
			"max":[
				0.2840893566608429,
				2.5552759170532227,
				0.30262917280197144
			],
			"min":[
				-0.00047763492329977453,
				2.292461633682251,
				-0.2259916514158249
			],
			"type":"VEC3"
		},
		{
			"bufferView":17,
			"componentType":5126,
			"count":24,
			"type":"VEC3"
		},
		{
			"bufferView":18,
			"componentType":5126,
			"count":24,
			"type":"VEC2"
		},
		{
			"bufferView":19,
			"componentType":5123,
			"count":36,
			"type":"SCALAR"
		},
		{
			"bufferView":20,
			"componentType":5126,
			"count":24,
			"max":[
				0.530018150806427,
				2.5087103843688965,
				0.30262917280197144
			],
			"min":[
				0.2840893566608429,
				2.1375892162323,
				-0.2259916514158249
			],
			"type":"VEC3"
		},
		{
			"bufferView":21,
			"componentType":5126,
			"count":24,
			"type":"VEC3"
		},
		{
			"bufferView":22,
			"componentType":5126,
			"count":24,
			"type":"VEC2"
		},
		{
			"bufferView":23,
			"componentType":5123,
			"count":36,
			"type":"SCALAR"
		},
		{
			"bufferView":24,
			"componentType":5126,
			"count":24,
			"max":[
				-0.5300180912017822,
				2.3654820919036865,
				0.3036302924156189
			],
			"min":[
				-0.6829703450202942,
				2.1324703693389893,
				0.11264970898628235
			],
			"type":"VEC3"
		},
		{
			"bufferView":25,
			"componentType":5126,
			"count":24,
			"type":"VEC3"
		},
		{
			"bufferView":26,
			"componentType":5126,
			"count":24,
			"type":"VEC2"
		},
		{
			"bufferView":27,
			"componentType":5123,
			"count":36,
			"type":"SCALAR"
		},
		{
			"bufferView":28,
			"componentType":5126,
			"count":24,
			"max":[
				0.6829703450202942,
				2.3654820919036865,
				0.3036302924156189
			],
			"min":[
				0.5300180912017822,
				2.1324703693389893,
				0.11264970898628235
			],
			"type":"VEC3"
		},
		{
			"bufferView":29,
			"componentType":5126,
			"count":24,
			"type":"VEC3"
		},
		{
			"bufferView":30,
			"componentType":5126,
			"count":24,
			"type":"VEC2"
		},
		{
			"bufferView":31,
			"componentType":5123,
			"count":36,
			"type":"SCALAR"
		},
		{
			"bufferView":32,
			"componentType":5126,
			"count":24,
			"max":[
				0.5913340449333191,
				0.03479380905628204,
				0.20393508672714233
			],
			"min":[
				-0.5624504089355469,
				-8.926041061840806e-08,
				-0.3349688649177551
			],
			"type":"VEC3"
		},
		{
			"bufferView":33,
			"componentType":5126,
			"count":24,
			"type":"VEC3"
		},
		{
			"bufferView":34,
			"componentType":5126,
			"count":24,
			"type":"VEC2"
		},
		{
			"bufferView":35,
			"componentType":5123,
			"count":36,
			"type":"SCALAR"
		},
		{
			"bufferView":36,
			"componentType":5126,
			"count":364,
			"max":[
				0.7034913897514343,
				2.5548486709594727,
				0.29893577098846436
			],
			"min":[
				-0.7034929394721985,
				-0.008544921875,
				-0.24002820253372192
			],
			"type":"VEC3"
		},
		{
			"bufferView":37,
			"componentType":5126,
			"count":364,
			"type":"VEC3"
		},
		{
			"bufferView":38,
			"componentType":5126,
			"count":364,
			"type":"VEC2"
		},
		{
			"bufferView":39,
			"componentType":5123,
			"count":960,
			"type":"SCALAR"
		}
	],
	"bufferViews":[
		{
			"buffer":0,
			"byteLength":384,
			"byteOffset":0,
			"target":34962
		},
		{
			"buffer":0,
			"byteLength":384,
			"byteOffset":384,
			"target":34962
		},
		{
			"buffer":0,
			"byteLength":256,
			"byteOffset":768,
			"target":34962
		},
		{
			"buffer":0,
			"byteLength":120,
			"byteOffset":1024,
			"target":34963
		},
		{
			"buffer":0,
			"byteLength":384,
			"byteOffset":1144,
			"target":34962
		},
		{
			"buffer":0,
			"byteLength":384,
			"byteOffset":1528,
			"target":34962
		},
		{
			"buffer":0,
			"byteLength":256,
			"byteOffset":1912,
			"target":34962
		},
		{
			"buffer":0,
			"byteLength":120,
			"byteOffset":2168,
			"target":34963
		},
		{
			"buffer":0,
			"byteLength":288,
			"byteOffset":2288,
			"target":34962
		},
		{
			"buffer":0,
			"byteLength":288,
			"byteOffset":2576,
			"target":34962
		},
		{
			"buffer":0,
			"byteLength":192,
			"byteOffset":2864,
			"target":34962
		},
		{
			"buffer":0,
			"byteLength":72,
			"byteOffset":3056,
			"target":34963
		},
		{
			"buffer":0,
			"byteLength":288,
			"byteOffset":3128,
			"target":34962
		},
		{
			"buffer":0,
			"byteLength":288,
			"byteOffset":3416,
			"target":34962
		},
		{
			"buffer":0,
			"byteLength":192,
			"byteOffset":3704,
			"target":34962
		},
		{
			"buffer":0,
			"byteLength":72,
			"byteOffset":3896,
			"target":34963
		},
		{
			"buffer":0,
			"byteLength":288,
			"byteOffset":3968,
			"target":34962
		},
		{
			"buffer":0,
			"byteLength":288,
			"byteOffset":4256,
			"target":34962
		},
		{
			"buffer":0,
			"byteLength":192,
			"byteOffset":4544,
			"target":34962
		},
		{
			"buffer":0,
			"byteLength":72,
			"byteOffset":4736,
			"target":34963
		},
		{
			"buffer":0,
			"byteLength":288,
			"byteOffset":4808,
			"target":34962
		},
		{
			"buffer":0,
			"byteLength":288,
			"byteOffset":5096,
			"target":34962
		},
		{
			"buffer":0,
			"byteLength":192,
			"byteOffset":5384,
			"target":34962
		},
		{
			"buffer":0,
			"byteLength":72,
			"byteOffset":5576,
			"target":34963
		},
		{
			"buffer":0,
			"byteLength":288,
			"byteOffset":5648,
			"target":34962
		},
		{
			"buffer":0,
			"byteLength":288,
			"byteOffset":5936,
			"target":34962
		},
		{
			"buffer":0,
			"byteLength":192,
			"byteOffset":6224,
			"target":34962
		},
		{
			"buffer":0,
			"byteLength":72,
			"byteOffset":6416,
			"target":34963
		},
		{
			"buffer":0,
			"byteLength":288,
			"byteOffset":6488,
			"target":34962
		},
		{
			"buffer":0,
			"byteLength":288,
			"byteOffset":6776,
			"target":34962
		},
		{
			"buffer":0,
			"byteLength":192,
			"byteOffset":7064,
			"target":34962
		},
		{
			"buffer":0,
			"byteLength":72,
			"byteOffset":7256,
			"target":34963
		},
		{
			"buffer":0,
			"byteLength":288,
			"byteOffset":7328,
			"target":34962
		},
		{
			"buffer":0,
			"byteLength":288,
			"byteOffset":7616,
			"target":34962
		},
		{
			"buffer":0,
			"byteLength":192,
			"byteOffset":7904,
			"target":34962
		},
		{
			"buffer":0,
			"byteLength":72,
			"byteOffset":8096,
			"target":34963
		},
		{
			"buffer":0,
			"byteLength":4368,
			"byteOffset":8168,
			"target":34962
		},
		{
			"buffer":0,
			"byteLength":4368,
			"byteOffset":12536,
			"target":34962
		},
		{
			"buffer":0,
			"byteLength":2912,
			"byteOffset":16904,
			"target":34962
		},
		{
			"buffer":0,
			"byteLength":1920,
			"byteOffset":19816,
			"target":34963
		}
	],
	"samplers":[
		{
			"magFilter":9729,
			"minFilter":9987
		}
	],
	"buffers":[
		{
			"byteLength":21736,
			"uri":"DoorFrame_Round_WoodDark.bin"
		}
	]
}
