{
	"asset":{
		"generator":"Khronos glTF Blender I/O v4.0.44",
		"version":"2.0"
	},
	"scene":0,
	"scenes":[
		{
			"name":"Scene",
			"nodes":[
				1
			]
		}
	],
	"nodes":[
		{
			"mesh":0,
			"name":"Door_7_Round_1-convcolonly"
		},
		{
			"children":[
				0
			],
			"mesh":1,
			"name":"Door_7_Round"
		}
	],
	"materials":[
		{
			"doubleSided":true,
			"name":"Collision",
			"pbrMetallicRoughness":{
				"baseColorFactor":[
					0.05868536978960037,
					0.2907957136631012,
					0.8000074625015259,
					1
				],
				"metallicFactor":0,
				"roughnessFactor":0.5
			}
		},
		{
			"alphaMode":"BLEND",
			"doubleSided":true,
			"name":"MI_WindowGlass",
			"pbrMetallicRoughness":{
				"baseColorFactor":[
					0.800000011920929,
					0.800000011920929,
					0.800000011920929,
					0.09545451402664185
				],
				"metallicFactor":0,
				"roughnessFactor":0.5
			}
		},
		{
			"doubleSided":true,
			"name":"MI_MetalOrnaments",
			"pbrMetallicRoughness":{
				"baseColorTexture":{
					"index":0
				},
				"metallicRoughnessTexture":{
					"index":1
				}
			}
		},
		{
			"doubleSided":true,
			"name":"MI_WoodTrim_Wear",
			"normalTexture":{
				"index":2
			},
			"pbrMetallicRoughness":{
				"baseColorTexture":{
					"index":3
				},
				"metallicFactor":0,
				"metallicRoughnessTexture":{
					"index":4
				}
			}
		}
	],
	"meshes":[
		{
			"name":"Cube.377",
			"primitives":[
				{
					"attributes":{
						"POSITION":0,
						"NORMAL":1,
						"TEXCOORD_0":2
					},
					"indices":3,
					"material":0
				}
			]
		},
		{
			"name":"Cube.248",
			"primitives":[
				{
					"attributes":{
						"POSITION":4,
						"NORMAL":5,
						"TEXCOORD_0":6,
						"TEXCOORD_1":7
					},
					"indices":8,
					"material":1
				},
				{
					"attributes":{
						"POSITION":9,
						"NORMAL":10,
						"TEXCOORD_0":11,
						"TEXCOORD_1":12
					},
					"indices":13,
					"material":2
				},
				{
					"attributes":{
						"POSITION":14,
						"NORMAL":15,
						"TEXCOORD_0":16,
						"TEXCOORD_1":17
					},
					"indices":18,
					"material":3
				}
			]
		}
	],
	"textures":[
		{
			"sampler":0,
			"source":0
		},
		{
			"sampler":0,
			"source":1
		},
		{
			"sampler":0,
			"source":2
		},
		{
			"sampler":0,
			"source":3
		},
		{
			"sampler":0,
			"source":4
		}
	],
	"images":[
		{
			"mimeType":"image/png",
			"name":"T_MetalOrnaments_BaseColor",
			"uri":"T_MetalOrnaments_BaseColor.png"
		},
		{
			"mimeType":"image/png",
			"name":"T_MetalOrnaments_Roughness",
			"uri":"T_MetalOrnaments_Roughness.png"
		},
		{
			"mimeType":"image/png",
			"name":"T_WoodTrim_Normal",
			"uri":"T_WoodTrim_Normal.png"
		},
		{
			"mimeType":"image/png",
			"name":"T_WoodTrim_BaseColor",
			"uri":"T_WoodTrim_BaseColor.png"
		},
		{
			"mimeType":"image/png",
			"name":"T_WoodTrim_Roughness",
			"uri":"T_WoodTrim_Roughness.png"
		}
	],
	"accessors":[
		{
			"bufferView":0,
			"componentType":5126,
			"count":54,
			"max":[
				1.0995653867721558,
				2.4150562286376953,
				0.07293295860290527
			],
			"min":[
				-0.07106883078813553,
				0.04214763641357422,
				-0.05419301986694336
			],
			"type":"VEC3"
		},
		{
			"bufferView":1,
			"componentType":5126,
			"count":54,
			"type":"VEC3"
		},
		{
			"bufferView":2,
			"componentType":5126,
			"count":54,
			"type":"VEC2"
		},
		{
			"bufferView":3,
			"componentType":5123,
			"count":108,
			"type":"SCALAR"
		},
		{
			"bufferView":4,
			"componentType":5126,
			"count":436,
			"max":[
				0.8816172480583191,
				1.6965113878250122,
				0.010714365169405937
			],
			"min":[
				0.14019635319709778,
				1.0434080362319946,
				0.010714029893279076
			],
			"type":"VEC3"
		},
		{
			"bufferView":5,
			"componentType":5126,
			"count":436,
			"type":"VEC3"
		},
		{
			"bufferView":6,
			"componentType":5126,
			"count":436,
			"type":"VEC2"
		},
		{
			"bufferView":7,
			"componentType":5126,
			"count":436,
			"type":"VEC2"
		},
		{
			"bufferView":8,
			"componentType":5123,
			"count":648,
			"type":"SCALAR"
		},
		{
			"bufferView":9,
			"componentType":5126,
			"count":2229,
			"max":[
				0.9482846856117249,
				1.9445364475250244,
				0.0917586237192154
			],
			"min":[
				-0.0465204194188118,
				0.5146335363388062,
				-0.11758765578269958
			],
			"type":"VEC3"
		},
		{
			"bufferView":10,
			"componentType":5126,
			"count":2229,
			"type":"VEC3"
		},
		{
			"bufferView":11,
			"componentType":5126,
			"count":2229,
			"type":"VEC2"
		},
		{
			"bufferView":12,
			"componentType":5126,
			"count":2229,
			"type":"VEC2"
		},
		{
			"bufferView":13,
			"componentType":5123,
			"count":7200,
			"type":"SCALAR"
		},
		{
			"bufferView":14,
			"componentType":5126,
			"count":1222,
			"max":[
				1.0794214010238647,
				2.3631083965301514,
				0.05755815654993057
			],
			"min":[
				-0.053952284157276154,
				0.033089637756347656,
				-0.05755755677819252
			],
			"type":"VEC3"
		},
		{
			"bufferView":15,
			"componentType":5126,
			"count":1222,
			"type":"VEC3"
		},
		{
			"bufferView":16,
			"componentType":5126,
			"count":1222,
			"type":"VEC2"
		},
		{
			"bufferView":17,
			"componentType":5126,
			"count":1222,
			"type":"VEC2"
		},
		{
			"bufferView":18,
			"componentType":5123,
			"count":2094,
			"type":"SCALAR"
		}
	],
	"bufferViews":[
		{
			"buffer":0,
			"byteLength":648,
			"byteOffset":0,
			"target":34962
		},
		{
			"buffer":0,
			"byteLength":648,
			"byteOffset":648,
			"target":34962
		},
		{
			"buffer":0,
			"byteLength":432,
			"byteOffset":1296,
			"target":34962
		},
		{
			"buffer":0,
			"byteLength":216,
			"byteOffset":1728,
			"target":34963
		},
		{
			"buffer":0,
			"byteLength":5232,
			"byteOffset":1944,
			"target":34962
		},
		{
			"buffer":0,
			"byteLength":5232,
			"byteOffset":7176,
			"target":34962
		},
		{
			"buffer":0,
			"byteLength":3488,
			"byteOffset":12408,
			"target":34962
		},
		{
			"buffer":0,
			"byteLength":3488,
			"byteOffset":15896,
			"target":34962
		},
		{
			"buffer":0,
			"byteLength":1296,
			"byteOffset":19384,
			"target":34963
		},
		{
			"buffer":0,
			"byteLength":26748,
			"byteOffset":20680,
			"target":34962
		},
		{
			"buffer":0,
			"byteLength":26748,
			"byteOffset":47428,
			"target":34962
		},
		{
			"buffer":0,
			"byteLength":17832,
			"byteOffset":74176,
			"target":34962
		},
		{
			"buffer":0,
			"byteLength":17832,
			"byteOffset":92008,
			"target":34962
		},
		{
			"buffer":0,
			"byteLength":14400,
			"byteOffset":109840,
			"target":34963
		},
		{
			"buffer":0,
			"byteLength":14664,
			"byteOffset":124240,
			"target":34962
		},
		{
			"buffer":0,
			"byteLength":14664,
			"byteOffset":138904,
			"target":34962
		},
		{
			"buffer":0,
			"byteLength":9776,
			"byteOffset":153568,
			"target":34962
		},
		{
			"buffer":0,
			"byteLength":9776,
			"byteOffset":163344,
			"target":34962
		},
		{
			"buffer":0,
			"byteLength":4188,
			"byteOffset":173120,
			"target":34963
		}
	],
	"samplers":[
		{
			"magFilter":9729,
			"minFilter":9987
		}
	],
	"buffers":[
		{
			"byteLength":177308,
			"uri":"Door_7_Round.bin"
		}
	]
}
