{
	"asset":{
		"generator":"Khronos glTF Blender I/O v4.0.44",
		"version":"2.0"
	},
	"scene":0,
	"scenes":[
		{
			"name":"Scene",
			"nodes":[
				7
			]
		}
	],
	"nodes":[
		{
			"mesh":0,
			"name":"DoorFrame_Round_Brick_01-convcolonly"
		},
		{
			"mesh":1,
			"name":"DoorFrame_Round_Brick_02-convcolonly"
		},
		{
			"mesh":2,
			"name":"DoorFrame_Round_Brick_03-convcolonly"
		},
		{
			"mesh":3,
			"name":"DoorFrame_Round_Brick_04-convcolonly"
		},
		{
			"mesh":4,
			"name":"DoorFrame_Round_Brick_05-convcolonly"
		},
		{
			"mesh":5,
			"name":"DoorFrame_Round_Brick_06-convcolonly"
		},
		{
			"mesh":6,
			"name":"DoorFrame_Round_Brick_07-convcolonly"
		},
		{
			"children":[
				0,
				1,
				2,
				3,
				4,
				5,
				6
			],
			"mesh":7,
			"name":"DoorFrame_Round_Brick"
		}
	],
	"materials":[
		{
			"doubleSided":true,
			"name":"Collision",
			"pbrMetallicRoughness":{
				"baseColorFactor":[
					0.05868536978960037,
					0.2907957136631012,
					0.8000074625015259,
					1
				],
				"metallicFactor":0,
				"roughnessFactor":0.5
			}
		},
		{
			"doubleSided":true,
			"name":"MI_RockTrim",
			"normalTexture":{
				"index":0
			},
			"pbrMetallicRoughness":{
				"baseColorTexture":{
					"index":1
				},
				"metallicRoughnessTexture":{
					"index":2
				}
			}
		}
	],
	"meshes":[
		{
			"name":"Cube.287",
			"primitives":[
				{
					"attributes":{
						"POSITION":0,
						"NORMAL":1,
						"TEXCOORD_0":2
					},
					"indices":3,
					"material":0
				}
			]
		},
		{
			"name":"Cube.288",
			"primitives":[
				{
					"attributes":{
						"POSITION":4,
						"NORMAL":5,
						"TEXCOORD_0":6
					},
					"indices":7,
					"material":0
				}
			]
		},
		{
			"name":"Cube.289",
			"primitives":[
				{
					"attributes":{
						"POSITION":8,
						"NORMAL":9,
						"TEXCOORD_0":10
					},
					"indices":11,
					"material":0
				}
			]
		},
		{
			"name":"Cube.290",
			"primitives":[
				{
					"attributes":{
						"POSITION":12,
						"NORMAL":13,
						"TEXCOORD_0":14
					},
					"indices":15,
					"material":0
				}
			]
		},
		{
			"name":"Cube.291",
			"primitives":[
				{
					"attributes":{
						"POSITION":16,
						"NORMAL":17,
						"TEXCOORD_0":18
					},
					"indices":19,
					"material":0
				}
			]
		},
		{
			"name":"Cube.292",
			"primitives":[
				{
					"attributes":{
						"POSITION":20,
						"NORMAL":21,
						"TEXCOORD_0":22
					},
					"indices":23,
					"material":0
				}
			]
		},
		{
			"name":"Cube.1707",
			"primitives":[
				{
					"attributes":{
						"POSITION":24,
						"NORMAL":25,
						"TEXCOORD_0":26
					},
					"indices":27,
					"material":0
				}
			]
		},
		{
			"name":"Cube.017_Retopology.007",
			"primitives":[
				{
					"attributes":{
						"POSITION":28,
						"NORMAL":29,
						"TEXCOORD_0":30
					},
					"indices":31,
					"material":1
				}
			]
		}
	],
	"textures":[
		{
			"sampler":0,
			"source":0
		},
		{
			"sampler":0,
			"source":1
		},
		{
			"sampler":0,
			"source":2
		}
	],
	"images":[
		{
			"mimeType":"image/png",
			"name":"T_RockTrim_Normal",
			"uri":"T_RockTrim_Normal.png"
		},
		{
			"mimeType":"image/png",
			"name":"T_RockTrim_BaseColor",
			"uri":"T_RockTrim_BaseColor.png"
		},
		{
			"mimeType":"image/png",
			"name":"T_RockTrim_ORM",
			"uri":"T_RockTrim_ORM.png"
		}
	],
	"accessors":[
		{
			"bufferView":0,
			"componentType":5126,
			"count":32,
			"max":[
				-0.5300180912017822,
				2.4158051013946533,
				0.14884445071220398
			],
			"min":[
				-0.741497278213501,
				-8.926041061840806e-08,
				-0.23192358016967773
			],
			"type":"VEC3"
		},
		{
			"bufferView":1,
			"componentType":5126,
			"count":32,
			"type":"VEC3"
		},
		{
			"bufferView":2,
			"componentType":5126,
			"count":32,
			"type":"VEC2"
		},
		{
			"bufferView":3,
			"componentType":5123,
			"count":60,
			"type":"SCALAR"
		},
		{
			"bufferView":4,
			"componentType":5126,
			"count":32,
			"max":[
				0.741497278213501,
				2.4158051013946533,
				0.14884445071220398
			],
			"min":[
				0.5300180912017822,
				-8.926041061840806e-08,
				-0.23192358016967773
			],
			"type":"VEC3"
		},
		{
			"bufferView":5,
			"componentType":5126,
			"count":32,
			"type":"VEC3"
		},
		{
			"bufferView":6,
			"componentType":5126,
			"count":32,
			"type":"VEC2"
		},
		{
			"bufferView":7,
			"componentType":5123,
			"count":60,
			"type":"SCALAR"
		},
		{
			"bufferView":8,
			"componentType":5126,
			"count":24,
			"max":[
				0.0004776120185852051,
				2.6074514389038086,
				0.20289047062397003
			],
			"min":[
				-0.2840893566608429,
				2.3060812950134277,
				-0.2859697937965393
			],
			"type":"VEC3"
		},
		{
			"bufferView":9,
			"componentType":5126,
			"count":24,
			"type":"VEC3"
		},
		{
			"bufferView":10,
			"componentType":5126,
			"count":24,
			"type":"VEC2"
		},
		{
			"bufferView":11,
			"componentType":5123,
			"count":36,
			"type":"SCALAR"
		},
		{
			"bufferView":12,
			"componentType":5126,
			"count":24,
			"max":[
				-0.2840893566608429,
				2.558182716369629,
				0.20289039611816406
			],
			"min":[
				-0.530018150806427,
				2.123981237411499,
				-0.28596967458724976
			],
			"type":"VEC3"
		},
		{
			"bufferView":13,
			"componentType":5126,
			"count":24,
			"type":"VEC3"
		},
		{
			"bufferView":14,
			"componentType":5126,
			"count":24,
			"type":"VEC2"
		},
		{
			"bufferView":15,
			"componentType":5123,
			"count":36,
			"type":"SCALAR"
		},
		{
			"bufferView":16,
			"componentType":5126,
			"count":24,
			"max":[
				0.2840893864631653,
				2.6074514389038086,
				0.20289047062397003
			],
			"min":[
				-0.0004776120185852051,
				2.3060812950134277,
				-0.2859697937965393
			],
			"type":"VEC3"
		},
		{
			"bufferView":17,
			"componentType":5126,
			"count":24,
			"type":"VEC3"
		},
		{
			"bufferView":18,
			"componentType":5126,
			"count":24,
			"type":"VEC2"
		},
		{
			"bufferView":19,
			"componentType":5123,
			"count":36,
			"type":"SCALAR"
		},
		{
			"bufferView":20,
			"componentType":5126,
			"count":24,
			"max":[
				0.530018150806427,
				2.558182716369629,
				0.20289048552513123
			],
			"min":[
				0.2840893864631653,
				2.12398099899292,
				-0.2859697937965393
			],
			"type":"VEC3"
		},
		{
			"bufferView":21,
			"componentType":5126,
			"count":24,
			"type":"VEC3"
		},
		{
			"bufferView":22,
			"componentType":5126,
			"count":24,
			"type":"VEC2"
		},
		{
			"bufferView":23,
			"componentType":5123,
			"count":36,
			"type":"SCALAR"
		},
		{
			"bufferView":24,
			"componentType":5126,
			"count":24,
			"max":[
				0.5913340449333191,
				0.044857800006866455,
				0.20393508672714233
			],
			"min":[
				-0.5624504089355469,
				-8.926041061840806e-08,
				-0.3349688649177551
			],
			"type":"VEC3"
		},
		{
			"bufferView":25,
			"componentType":5126,
			"count":24,
			"type":"VEC3"
		},
		{
			"bufferView":26,
			"componentType":5126,
			"count":24,
			"type":"VEC2"
		},
		{
			"bufferView":27,
			"componentType":5123,
			"count":36,
			"type":"SCALAR"
		},
		{
			"bufferView":28,
			"componentType":5126,
			"count":1616,
			"max":[
				0.7990041375160217,
				2.5844788551330566,
				0.18203623592853546
			],
			"min":[
				-0.804115891456604,
				-0.0016925190575420856,
				-0.2951337397098541
			],
			"type":"VEC3"
		},
		{
			"bufferView":29,
			"componentType":5126,
			"count":1616,
			"type":"VEC3"
		},
		{
			"bufferView":30,
			"componentType":5126,
			"count":1616,
			"type":"VEC2"
		},
		{
			"bufferView":31,
			"componentType":5123,
			"count":6138,
			"type":"SCALAR"
		}
	],
	"bufferViews":[
		{
			"buffer":0,
			"byteLength":384,
			"byteOffset":0,
			"target":34962
		},
		{
			"buffer":0,
			"byteLength":384,
			"byteOffset":384,
			"target":34962
		},
		{
			"buffer":0,
			"byteLength":256,
			"byteOffset":768,
			"target":34962
		},
		{
			"buffer":0,
			"byteLength":120,
			"byteOffset":1024,
			"target":34963
		},
		{
			"buffer":0,
			"byteLength":384,
			"byteOffset":1144,
			"target":34962
		},
		{
			"buffer":0,
			"byteLength":384,
			"byteOffset":1528,
			"target":34962
		},
		{
			"buffer":0,
			"byteLength":256,
			"byteOffset":1912,
			"target":34962
		},
		{
			"buffer":0,
			"byteLength":120,
			"byteOffset":2168,
			"target":34963
		},
		{
			"buffer":0,
			"byteLength":288,
			"byteOffset":2288,
			"target":34962
		},
		{
			"buffer":0,
			"byteLength":288,
			"byteOffset":2576,
			"target":34962
		},
		{
			"buffer":0,
			"byteLength":192,
			"byteOffset":2864,
			"target":34962
		},
		{
			"buffer":0,
			"byteLength":72,
			"byteOffset":3056,
			"target":34963
		},
		{
			"buffer":0,
			"byteLength":288,
			"byteOffset":3128,
			"target":34962
		},
		{
			"buffer":0,
			"byteLength":288,
			"byteOffset":3416,
			"target":34962
		},
		{
			"buffer":0,
			"byteLength":192,
			"byteOffset":3704,
			"target":34962
		},
		{
			"buffer":0,
			"byteLength":72,
			"byteOffset":3896,
			"target":34963
		},
		{
			"buffer":0,
			"byteLength":288,
			"byteOffset":3968,
			"target":34962
		},
		{
			"buffer":0,
			"byteLength":288,
			"byteOffset":4256,
			"target":34962
		},
		{
			"buffer":0,
			"byteLength":192,
			"byteOffset":4544,
			"target":34962
		},
		{
			"buffer":0,
			"byteLength":72,
			"byteOffset":4736,
			"target":34963
		},
		{
			"buffer":0,
			"byteLength":288,
			"byteOffset":4808,
			"target":34962
		},
		{
			"buffer":0,
			"byteLength":288,
			"byteOffset":5096,
			"target":34962
		},
		{
			"buffer":0,
			"byteLength":192,
			"byteOffset":5384,
			"target":34962
		},
		{
			"buffer":0,
			"byteLength":72,
			"byteOffset":5576,
			"target":34963
		},
		{
			"buffer":0,
			"byteLength":288,
			"byteOffset":5648,
			"target":34962
		},
		{
			"buffer":0,
			"byteLength":288,
			"byteOffset":5936,
			"target":34962
		},
		{
			"buffer":0,
			"byteLength":192,
			"byteOffset":6224,
			"target":34962
		},
		{
			"buffer":0,
			"byteLength":72,
			"byteOffset":6416,
			"target":34963
		},
		{
			"buffer":0,
			"byteLength":19392,
			"byteOffset":6488,
			"target":34962
		},
		{
			"buffer":0,
			"byteLength":19392,
			"byteOffset":25880,
			"target":34962
		},
		{
			"buffer":0,
			"byteLength":12928,
			"byteOffset":45272,
			"target":34962
		},
		{
			"buffer":0,
			"byteLength":12276,
			"byteOffset":58200,
			"target":34963
		}
	],
	"samplers":[
		{
			"magFilter":9729,
			"minFilter":9987
		}
	],
	"buffers":[
		{
			"byteLength":70476,
			"uri":"DoorFrame_Round_Brick.bin"
		}
	]
}
