{
	"asset":{
		"generator":"Khronos glTF Blender I/O v4.0.44",
		"version":"2.0"
	},
	"scene":0,
	"scenes":[
		{
			"name":"Scene",
			"nodes":[
				1
			]
		}
	],
	"nodes":[
		{
			"mesh":0,
			"name":"Door_6_Flat_1-convcolonly"
		},
		{
			"children":[
				0
			],
			"mesh":1,
			"name":"Door_6_Flat"
		}
	],
	"materials":[
		{
			"doubleSided":true,
			"name":"Collision",
			"pbrMetallicRoughness":{
				"baseColorFactor":[
					0.05868536978960037,
					0.2907957136631012,
					0.8000074625015259,
					1
				],
				"metallicFactor":0,
				"roughnessFactor":0.5
			}
		},
		{
			"doubleSided":true,
			"name":"MI_WoodTrim_Wear",
			"normalTexture":{
				"index":0
			},
			"pbrMetallicRoughness":{
				"baseColorTexture":{
					"index":1
				},
				"metallicFactor":0,
				"metallicRoughnessTexture":{
					"index":2
				}
			}
		},
		{
			"doubleSided":true,
			"name":"MI_MetalOrnaments",
			"pbrMetallicRoughness":{
				"baseColorTexture":{
					"index":3
				},
				"metallicRoughnessTexture":{
					"index":4
				}
			}
		}
	],
	"meshes":[
		{
			"name":"Cube.383",
			"primitives":[
				{
					"attributes":{
						"POSITION":0,
						"NORMAL":1,
						"TEXCOORD_0":2
					},
					"indices":3,
					"material":0
				}
			]
		},
		{
			"name":"Cube.206",
			"primitives":[
				{
					"attributes":{
						"POSITION":4,
						"NORMAL":5,
						"TEXCOORD_0":6,
						"TEXCOORD_1":7
					},
					"indices":8,
					"material":1
				},
				{
					"attributes":{
						"POSITION":9,
						"NORMAL":10,
						"TEXCOORD_0":11,
						"TEXCOORD_1":12
					},
					"indices":13,
					"material":2
				}
			]
		}
	],
	"textures":[
		{
			"sampler":0,
			"source":0
		},
		{
			"sampler":0,
			"source":1
		},
		{
			"sampler":0,
			"source":2
		},
		{
			"sampler":0,
			"source":3
		},
		{
			"sampler":0,
			"source":4
		}
	],
	"images":[
		{
			"mimeType":"image/png",
			"name":"T_WoodTrim_Normal",
			"uri":"T_WoodTrim_Normal.png"
		},
		{
			"mimeType":"image/png",
			"name":"T_WoodTrim_BaseColor",
			"uri":"T_WoodTrim_BaseColor.png"
		},
		{
			"mimeType":"image/png",
			"name":"T_WoodTrim_Roughness",
			"uri":"T_WoodTrim_Roughness.png"
		},
		{
			"mimeType":"image/png",
			"name":"T_MetalOrnaments_BaseColor",
			"uri":"T_MetalOrnaments_BaseColor.png"
		},
		{
			"mimeType":"image/png",
			"name":"T_MetalOrnaments_Roughness",
			"uri":"T_MetalOrnaments_Roughness.png"
		}
	],
	"accessors":[
		{
			"bufferView":0,
			"componentType":5126,
			"count":24,
			"max":[
				1.0995653867721558,
				2.20114803314209,
				0.07293295860290527
			],
			"min":[
				-0.07106883078813553,
				0.0352252721786499,
				-0.05419301986694336
			],
			"type":"VEC3"
		},
		{
			"bufferView":1,
			"componentType":5126,
			"count":24,
			"type":"VEC3"
		},
		{
			"bufferView":2,
			"componentType":5126,
			"count":24,
			"type":"VEC2"
		},
		{
			"bufferView":3,
			"componentType":5123,
			"count":36,
			"type":"SCALAR"
		},
		{
			"bufferView":4,
			"componentType":5126,
			"count":584,
			"max":[
				1.0716030597686768,
				2.133471965789795,
				0.07818779349327087
			],
			"min":[
				-0.04626310616731644,
				0.0352252721786499,
				-0.07840920239686966
			],
			"type":"VEC3"
		},
		{
			"bufferView":5,
			"componentType":5126,
			"count":584,
			"type":"VEC3"
		},
		{
			"bufferView":6,
			"componentType":5126,
			"count":584,
			"type":"VEC2"
		},
		{
			"bufferView":7,
			"componentType":5126,
			"count":584,
			"type":"VEC2"
		},
		{
			"bufferView":8,
			"componentType":5123,
			"count":924,
			"type":"SCALAR"
		},
		{
			"bufferView":9,
			"componentType":5126,
			"count":289,
			"max":[
				0.9605340361595154,
				1.2348203659057617,
				0.0917586237192154
			],
			"min":[
				0.3917757570743561,
				0.9259858131408691,
				-0.10770562291145325
			],
			"type":"VEC3"
		},
		{
			"bufferView":10,
			"componentType":5126,
			"count":289,
			"type":"VEC3"
		},
		{
			"bufferView":11,
			"componentType":5126,
			"count":289,
			"type":"VEC2"
		},
		{
			"bufferView":12,
			"componentType":5126,
			"count":289,
			"type":"VEC2"
		},
		{
			"bufferView":13,
			"componentType":5123,
			"count":1170,
			"type":"SCALAR"
		}
	],
	"bufferViews":[
		{
			"buffer":0,
			"byteLength":288,
			"byteOffset":0,
			"target":34962
		},
		{
			"buffer":0,
			"byteLength":288,
			"byteOffset":288,
			"target":34962
		},
		{
			"buffer":0,
			"byteLength":192,
			"byteOffset":576,
			"target":34962
		},
		{
			"buffer":0,
			"byteLength":72,
			"byteOffset":768,
			"target":34963
		},
		{
			"buffer":0,
			"byteLength":7008,
			"byteOffset":840,
			"target":34962
		},
		{
			"buffer":0,
			"byteLength":7008,
			"byteOffset":7848,
			"target":34962
		},
		{
			"buffer":0,
			"byteLength":4672,
			"byteOffset":14856,
			"target":34962
		},
		{
			"buffer":0,
			"byteLength":4672,
			"byteOffset":19528,
			"target":34962
		},
		{
			"buffer":0,
			"byteLength":1848,
			"byteOffset":24200,
			"target":34963
		},
		{
			"buffer":0,
			"byteLength":3468,
			"byteOffset":26048,
			"target":34962
		},
		{
			"buffer":0,
			"byteLength":3468,
			"byteOffset":29516,
			"target":34962
		},
		{
			"buffer":0,
			"byteLength":2312,
			"byteOffset":32984,
			"target":34962
		},
		{
			"buffer":0,
			"byteLength":2312,
			"byteOffset":35296,
			"target":34962
		},
		{
			"buffer":0,
			"byteLength":2340,
			"byteOffset":37608,
			"target":34963
		}
	],
	"samplers":[
		{
			"magFilter":9729,
			"minFilter":9987
		}
	],
	"buffers":[
		{
			"byteLength":39948,
			"uri":"Door_6_Flat.bin"
		}
	]
}
