{
	"asset":{
		"generator":"Khronos glTF Blender I/O v4.0.44",
		"version":"2.0"
	},
	"scene":0,
	"scenes":[
		{
			"name":"Scene",
			"nodes":[
				13
			]
		}
	],
	"nodes":[
		{
			"mesh":0,
			"name":"Overhang_WoodBrick_Long_01-convcolonly"
		},
		{
			"mesh":1,
			"name":"Overhang_WoodBrick_Long_02-convcolonly"
		},
		{
			"mesh":2,
			"name":"Overhang_WoodBrick_Long_03-convcolonly"
		},
		{
			"mesh":3,
			"name":"Overhang_WoodBrick_Long_04-convcolonly"
		},
		{
			"mesh":4,
			"name":"Overhang_WoodBrick_Long_05-convcolonly"
		},
		{
			"mesh":5,
			"name":"Overhang_WoodBrick_Long_06-convcolonly"
		},
		{
			"mesh":6,
			"name":"Overhang_WoodBrick_Long_07-convcolonly"
		},
		{
			"mesh":7,
			"name":"Overhang_WoodBrick_Long_08-convcolonly"
		},
		{
			"mesh":8,
			"name":"Overhang_WoodBrick_Long_09-convcolonly"
		},
		{
			"mesh":9,
			"name":"Overhang_WoodBrick_Long_10-convcolonly"
		},
		{
			"mesh":10,
			"name":"Overhang_WoodBrick_Long_11-convcolonly"
		},
		{
			"mesh":11,
			"name":"Overhang_WoodBrick_Long_12-convcolonly"
		},
		{
			"mesh":12,
			"name":"Overhang_WoodBrick_Long_13-convcolonly"
		},
		{
			"children":[
				0,
				1,
				2,
				3,
				4,
				5,
				6,
				7,
				8,
				9,
				10,
				11,
				12
			],
			"mesh":13,
			"name":"Overhang_WoodBrick_Long"
		}
	],
	"materials":[
		{
			"doubleSided":true,
			"name":"Collision",
			"pbrMetallicRoughness":{
				"baseColorFactor":[
					0.05868536978960037,
					0.2907957136631012,
					0.8000074625015259,
					1
				],
				"metallicFactor":0,
				"roughnessFactor":0.5
			}
		},
		{
			"doubleSided":true,
			"name":"MI_WoodTrim",
			"normalTexture":{
				"index":0
			},
			"pbrMetallicRoughness":{
				"baseColorTexture":{
					"index":1
				},
				"metallicFactor":0,
				"metallicRoughnessTexture":{
					"index":2
				}
			}
		},
		{
			"doubleSided":true,
			"name":"MI_Plaster",
			"normalTexture":{
				"index":3
			},
			"pbrMetallicRoughness":{
				"baseColorTexture":{
					"index":4
				},
				"metallicRoughnessTexture":{
					"index":5
				}
			}
		},
		{
			"doubleSided":true,
			"name":"MI_UnevenBrick",
			"normalTexture":{
				"index":6
			},
			"pbrMetallicRoughness":{
				"baseColorTexture":{
					"index":7
				},
				"metallicFactor":0,
				"metallicRoughnessTexture":{
					"index":8
				}
			}
		},
		{
			"doubleSided":true,
			"name":"MI_WoodTrim_Wear",
			"normalTexture":{
				"index":9
			},
			"pbrMetallicRoughness":{
				"baseColorTexture":{
					"index":10
				},
				"metallicFactor":0,
				"metallicRoughnessTexture":{
					"index":11
				}
			}
		}
	],
	"meshes":[
		{
			"name":"Cube.661",
			"primitives":[
				{
					"attributes":{
						"POSITION":0,
						"NORMAL":1,
						"TEXCOORD_0":2
					},
					"indices":3,
					"material":0
				}
			]
		},
		{
			"name":"Cube.662",
			"primitives":[
				{
					"attributes":{
						"POSITION":4,
						"NORMAL":5,
						"TEXCOORD_0":6
					},
					"indices":7,
					"material":0
				}
			]
		},
		{
			"name":"Cube.663",
			"primitives":[
				{
					"attributes":{
						"POSITION":8,
						"NORMAL":9,
						"TEXCOORD_0":10
					},
					"indices":11,
					"material":0
				}
			]
		},
		{
			"name":"Cube.664",
			"primitives":[
				{
					"attributes":{
						"POSITION":12,
						"NORMAL":13,
						"TEXCOORD_0":14
					},
					"indices":15,
					"material":0
				}
			]
		},
		{
			"name":"Cube.665",
			"primitives":[
				{
					"attributes":{
						"POSITION":16,
						"NORMAL":17,
						"TEXCOORD_0":18
					},
					"indices":19,
					"material":0
				}
			]
		},
		{
			"name":"Cube.666",
			"primitives":[
				{
					"attributes":{
						"POSITION":20,
						"NORMAL":21,
						"TEXCOORD_0":22
					},
					"indices":23,
					"material":0
				}
			]
		},
		{
			"name":"Cube.667",
			"primitives":[
				{
					"attributes":{
						"POSITION":24,
						"NORMAL":25,
						"TEXCOORD_0":26
					},
					"indices":7,
					"material":0
				}
			]
		},
		{
			"name":"Cube.668",
			"primitives":[
				{
					"attributes":{
						"POSITION":27,
						"NORMAL":28,
						"TEXCOORD_0":29
					},
					"indices":19,
					"material":0
				}
			]
		},
		{
			"name":"Cube.669",
			"primitives":[
				{
					"attributes":{
						"POSITION":30,
						"NORMAL":31,
						"TEXCOORD_0":32
					},
					"indices":19,
					"material":0
				}
			]
		},
		{
			"name":"Cube.670",
			"primitives":[
				{
					"attributes":{
						"POSITION":33,
						"NORMAL":34,
						"TEXCOORD_0":35
					},
					"indices":23,
					"material":0
				}
			]
		},
		{
			"name":"Cube.671",
			"primitives":[
				{
					"attributes":{
						"POSITION":36,
						"NORMAL":37,
						"TEXCOORD_0":38
					},
					"indices":39,
					"material":0
				}
			]
		},
		{
			"name":"Cube.672",
			"primitives":[
				{
					"attributes":{
						"POSITION":40,
						"NORMAL":41,
						"TEXCOORD_0":42
					},
					"indices":43,
					"material":0
				}
			]
		},
		{
			"name":"Cube.673",
			"primitives":[
				{
					"attributes":{
						"POSITION":44,
						"NORMAL":45,
						"TEXCOORD_0":46
					},
					"indices":47,
					"material":0
				}
			]
		},
		{
			"name":"Cube.002",
			"primitives":[
				{
					"attributes":{
						"POSITION":48,
						"NORMAL":49,
						"TEXCOORD_0":50,
						"TEXCOORD_1":51
					},
					"indices":52,
					"material":1
				},
				{
					"attributes":{
						"POSITION":53,
						"NORMAL":54,
						"TEXCOORD_0":55,
						"TEXCOORD_1":56
					},
					"indices":57,
					"material":2
				},
				{
					"attributes":{
						"POSITION":58,
						"NORMAL":59,
						"TEXCOORD_0":60,
						"TEXCOORD_1":61
					},
					"indices":62,
					"material":3
				},
				{
					"attributes":{
						"POSITION":63,
						"NORMAL":64,
						"TEXCOORD_0":65,
						"TEXCOORD_1":66
					},
					"indices":67,
					"material":4
				}
			]
		}
	],
	"textures":[
		{
			"sampler":0,
			"source":0
		},
		{
			"sampler":0,
			"source":1
		},
		{
			"sampler":0,
			"source":2
		},
		{
			"sampler":0,
			"source":3
		},
		{
			"sampler":0,
			"source":4
		},
		{
			"sampler":0,
			"source":5
		},
		{
			"sampler":0,
			"source":6
		},
		{
			"sampler":0,
			"source":7
		},
		{
			"sampler":0,
			"source":8
		},
		{
			"sampler":0,
			"source":0
		},
		{
			"sampler":0,
			"source":1
		},
		{
			"sampler":0,
			"source":2
		}
	],
	"images":[
		{
			"mimeType":"image/png",
			"name":"T_WoodTrim_Normal",
			"uri":"T_WoodTrim_Normal.png"
		},
		{
			"mimeType":"image/png",
			"name":"T_WoodTrim_BaseColor",
			"uri":"T_WoodTrim_BaseColor.png"
		},
		{
			"mimeType":"image/png",
			"name":"T_WoodTrim_Roughness",
			"uri":"T_WoodTrim_Roughness.png"
		},
		{
			"mimeType":"image/png",
			"name":"T_Plaster_Normal",
			"uri":"T_Plaster_Normal.png"
		},
		{
			"mimeType":"image/png",
			"name":"T_Plaster_BaseColor",
			"uri":"T_Plaster_BaseColor.png"
		},
		{
			"mimeType":"image/png",
			"name":"T_Plaster_ORM",
			"uri":"T_Plaster_ORM.png"
		},
		{
			"mimeType":"image/png",
			"name":"T_UnevenBrick_Normal",
			"uri":"T_UnevenBrick_Normal.png"
		},
		{
			"mimeType":"image/png",
			"name":"T_UnevenBrick_BaseColor",
			"uri":"T_UnevenBrick_BaseColor.png"
		},
		{
			"mimeType":"image/png",
			"name":"T_UnevenBrick_Roughness",
			"uri":"T_UnevenBrick_Roughness.png"
		}
	],
	"accessors":[
		{
			"bufferView":0,
			"componentType":5126,
			"count":24,
			"max":[
				1.000000238418579,
				1.8471097946166992,
				0.013771791011095047
			],
			"min":[
				-0.9999998807907104,
				0,
				-0.3000015914440155
			],
			"type":"VEC3"
		},
		{
			"bufferView":1,
			"componentType":5126,
			"count":24,
			"type":"VEC3"
		},
		{
			"bufferView":2,
			"componentType":5126,
			"count":24,
			"type":"VEC2"
		},
		{
			"bufferView":3,
			"componentType":5123,
			"count":36,
			"type":"SCALAR"
		},
		{
			"bufferView":4,
			"componentType":5126,
			"count":24,
			"max":[
				0.10178173333406448,
				2.884838342666626,
				1.9994415044784546
			],
			"min":[
				-0.10178332775831223,
				2.6506130695343018,
				0.8217456936836243
			],
			"type":"VEC3"
		},
		{
			"bufferView":5,
			"componentType":5126,
			"count":24,
			"type":"VEC3"
		},
		{
			"bufferView":6,
			"componentType":5126,
			"count":24,
			"type":"VEC2"
		},
		{
			"bufferView":7,
			"componentType":5123,
			"count":36,
			"type":"SCALAR"
		},
		{
			"bufferView":8,
			"componentType":5126,
			"count":24,
			"max":[
				0.1017826646566391,
				1.7870566844940186,
				0.22553713619709015
			],
			"min":[
				-0.10178255289793015,
				0.28130102157592773,
				-0.0882350280880928
			],
			"type":"VEC3"
		},
		{
			"bufferView":9,
			"componentType":5126,
			"count":24,
			"type":"VEC3"
		},
		{
			"bufferView":10,
			"componentType":5126,
			"count":24,
			"type":"VEC2"
		},
		{
			"bufferView":11,
			"componentType":5123,
			"count":36,
			"type":"SCALAR"
		},
		{
			"bufferView":12,
			"componentType":5126,
			"count":24,
			"max":[
				0.10178234428167343,
				2.7299118041992188,
				0.5176865458488464
			],
			"min":[
				-0.10178293287754059,
				2.187114715576172,
				0.08338475227355957
			],
			"type":"VEC3"
		},
		{
			"bufferView":13,
			"componentType":5126,
			"count":24,
			"type":"VEC3"
		},
		{
			"bufferView":14,
			"componentType":5126,
			"count":24,
			"type":"VEC2"
		},
		{
			"bufferView":15,
			"componentType":5123,
			"count":36,
			"type":"SCALAR"
		},
		{
			"bufferView":16,
			"componentType":5126,
			"count":24,
			"max":[
				0.1017826646566391,
				2.3825302124023438,
				0.27780187129974365
			],
			"min":[
				-0.10178257524967194,
				1.7870566844940186,
				-0.08823514729738235
			],
			"type":"VEC3"
		},
		{
			"bufferView":17,
			"componentType":5126,
			"count":24,
			"type":"VEC3"
		},
		{
			"bufferView":18,
			"componentType":5126,
			"count":24,
			"type":"VEC2"
		},
		{
			"bufferView":19,
			"componentType":5123,
			"count":36,
			"type":"SCALAR"
		},
		{
			"bufferView":20,
			"componentType":5126,
			"count":24,
			"max":[
				0.10178214311599731,
				2.884838342666626,
				0.8327258825302124
			],
			"min":[
				-0.10178320854902267,
				2.5028951168060303,
				0.3583149313926697
			],
			"type":"VEC3"
		},
		{
			"bufferView":21,
			"componentType":5126,
			"count":24,
			"type":"VEC3"
		},
		{
			"bufferView":22,
			"componentType":5126,
			"count":24,
			"type":"VEC2"
		},
		{
			"bufferView":23,
			"componentType":5123,
			"count":36,
			"type":"SCALAR"
		},
		{
			"bufferView":24,
			"componentType":5126,
			"count":24,
			"max":[
				0.9999997019767761,
				2.9448914527893066,
				1.1106866598129272
			],
			"min":[
				-1.0000004768371582,
				2.818129539489746,
				0.5584677457809448
			],
			"type":"VEC3"
		},
		{
			"bufferView":25,
			"componentType":5126,
			"count":24,
			"type":"VEC3"
		},
		{
			"bufferView":26,
			"componentType":5126,
			"count":24,
			"type":"VEC2"
		},
		{
			"bufferView":27,
			"componentType":5126,
			"count":24,
			"max":[
				1.000000238418579,
				2.762228012084961,
				0.28063568472862244
			],
			"min":[
				-1.0000001192092896,
				2.2471678256988525,
				-0.1798931062221527
			],
			"type":"VEC3"
		},
		{
			"bufferView":28,
			"componentType":5126,
			"count":24,
			"type":"VEC3"
		},
		{
			"bufferView":29,
			"componentType":5126,
			"count":24,
			"type":"VEC2"
		},
		{
			"bufferView":30,
			"componentType":5126,
			"count":24,
			"max":[
				1.000000238418579,
				2.414846420288086,
				0.06603655219078064
			],
			"min":[
				-0.9999999403953552,
				1.8471097946166992,
				-0.3000015914440155
			],
			"type":"VEC3"
		},
		{
			"bufferView":31,
			"componentType":5126,
			"count":24,
			"type":"VEC3"
		},
		{
			"bufferView":32,
			"componentType":5126,
			"count":24,
			"type":"VEC2"
		},
		{
			"bufferView":33,
			"componentType":5126,
			"count":24,
			"max":[
				1.0000001192092896,
				2.917154550552368,
				0.6209604144096375
			],
			"min":[
				-1.000000238418579,
				2.5850729942321777,
				0.09503696858882904
			],
			"type":"VEC3"
		},
		{
			"bufferView":34,
			"componentType":5126,
			"count":24,
			"type":"VEC3"
		},
		{
			"bufferView":35,
			"componentType":5126,
			"count":24,
			"type":"VEC2"
		},
		{
			"bufferView":36,
			"componentType":5126,
			"count":24,
			"max":[
				0.9999994039535522,
				3.0287487506866455,
				1.1106866598129272
			],
			"min":[
				-1.0000004768371582,
				2.915860652923584,
				0.9723888635635376
			],
			"type":"VEC3"
		},
		{
			"bufferView":37,
			"componentType":5126,
			"count":24,
			"type":"VEC3"
		},
		{
			"bufferView":38,
			"componentType":5126,
			"count":24,
			"type":"VEC2"
		},
		{
			"bufferView":39,
			"componentType":5123,
			"count":36,
			"type":"SCALAR"
		},
		{
			"bufferView":40,
			"componentType":5126,
			"count":24,
			"max":[
				1.000000238418579,
				0.8955520987510681,
				0.09412334859371185
			],
			"min":[
				-0.9999998807907104,
				0.6370663642883301,
				-0.2196500599384308
			],
			"type":"VEC3"
		},
		{
			"bufferView":41,
			"componentType":5126,
			"count":24,
			"type":"VEC3"
		},
		{
			"bufferView":42,
			"componentType":5126,
			"count":24,
			"type":"VEC2"
		},
		{
			"bufferView":43,
			"componentType":5123,
			"count":36,
			"type":"SCALAR"
		},
		{
			"bufferView":44,
			"componentType":5126,
			"count":24,
			"max":[
				0.9999994039535522,
				2.9448914527893066,
				2.0000011920928955
			],
			"min":[
				-1.0000004768371582,
				2.8715980052948,
				1.1106847524642944
			],
			"type":"VEC3"
		},
		{
			"bufferView":45,
			"componentType":5126,
			"count":24,
			"type":"VEC3"
		},
		{
			"bufferView":46,
			"componentType":5126,
			"count":24,
			"type":"VEC2"
		},
		{
			"bufferView":47,
			"componentType":5123,
			"count":36,
			"type":"SCALAR"
		},
		{
			"bufferView":48,
			"componentType":5126,
			"count":196,
			"max":[
				1,
				3.028010368347168,
				2
			],
			"min":[
				-1.0000001192092896,
				0.41332197189331055,
				-0.012515849433839321
			],
			"type":"VEC3"
		},
		{
			"bufferView":49,
			"componentType":5126,
			"count":196,
			"type":"VEC3"
		},
		{
			"bufferView":50,
			"componentType":5126,
			"count":196,
			"type":"VEC2"
		},
		{
			"bufferView":51,
			"componentType":5126,
			"count":196,
			"type":"VEC2"
		},
		{
			"bufferView":52,
			"componentType":5123,
			"count":438,
			"type":"SCALAR"
		},
		{
			"bufferView":53,
			"componentType":5126,
			"count":28,
			"max":[
				1,
				2.8951454162597656,
				0.7096808552742004
			],
			"min":[
				-1,
				0,
				-0.2000000923871994
			],
			"type":"VEC3"
		},
		{
			"bufferView":54,
			"componentType":5126,
			"count":28,
			"type":"VEC3"
		},
		{
			"bufferView":55,
			"componentType":5126,
			"count":28,
			"type":"VEC2"
		},
		{
			"bufferView":56,
			"componentType":5126,
			"count":28,
			"type":"VEC2"
		},
		{
			"bufferView":57,
			"componentType":5123,
			"count":72,
			"type":"SCALAR"
		},
		{
			"bufferView":58,
			"componentType":5126,
			"count":36,
			"max":[
				1,
				2.924532651901245,
				2
			],
			"min":[
				-1,
				0.8360880613327026,
				3.654656666185474e-08
			],
			"type":"VEC3"
		},
		{
			"bufferView":59,
			"componentType":5126,
			"count":36,
			"type":"VEC3"
		},
		{
			"bufferView":60,
			"componentType":5126,
			"count":36,
			"type":"VEC2"
		},
		{
			"bufferView":61,
			"componentType":5126,
			"count":36,
			"type":"VEC2"
		},
		{
			"bufferView":62,
			"componentType":5123,
			"count":96,
			"type":"SCALAR"
		},
		{
			"bufferView":63,
			"componentType":5126,
			"count":96,
			"max":[
				1.000000238418579,
				0.8310797214508057,
				0.03513365983963013
			],
			"min":[
				-0.9999999403953552,
				-1.9470715528768778e-07,
				-1.3583529323568655e-07
			],
			"type":"VEC3"
		},
		{
			"bufferView":64,
			"componentType":5126,
			"count":96,
			"type":"VEC3"
		},
		{
			"bufferView":65,
			"componentType":5126,
			"count":96,
			"type":"VEC2"
		},
		{
			"bufferView":66,
			"componentType":5126,
			"count":96,
			"type":"VEC2"
		},
		{
			"bufferView":67,
			"componentType":5123,
			"count":144,
			"type":"SCALAR"
		}
	],
	"bufferViews":[
		{
			"buffer":0,
			"byteLength":288,
			"byteOffset":0,
			"target":34962
		},
		{
			"buffer":0,
			"byteLength":288,
			"byteOffset":288,
			"target":34962
		},
		{
			"buffer":0,
			"byteLength":192,
			"byteOffset":576,
			"target":34962
		},
		{
			"buffer":0,
			"byteLength":72,
			"byteOffset":768,
			"target":34963
		},
		{
			"buffer":0,
			"byteLength":288,
			"byteOffset":840,
			"target":34962
		},
		{
			"buffer":0,
			"byteLength":288,
			"byteOffset":1128,
			"target":34962
		},
		{
			"buffer":0,
			"byteLength":192,
			"byteOffset":1416,
			"target":34962
		},
		{
			"buffer":0,
			"byteLength":72,
			"byteOffset":1608,
			"target":34963
		},
		{
			"buffer":0,
			"byteLength":288,
			"byteOffset":1680,
			"target":34962
		},
		{
			"buffer":0,
			"byteLength":288,
			"byteOffset":1968,
			"target":34962
		},
		{
			"buffer":0,
			"byteLength":192,
			"byteOffset":2256,
			"target":34962
		},
		{
			"buffer":0,
			"byteLength":72,
			"byteOffset":2448,
			"target":34963
		},
		{
			"buffer":0,
			"byteLength":288,
			"byteOffset":2520,
			"target":34962
		},
		{
			"buffer":0,
			"byteLength":288,
			"byteOffset":2808,
			"target":34962
		},
		{
			"buffer":0,
			"byteLength":192,
			"byteOffset":3096,
			"target":34962
		},
		{
			"buffer":0,
			"byteLength":72,
			"byteOffset":3288,
			"target":34963
		},
		{
			"buffer":0,
			"byteLength":288,
			"byteOffset":3360,
			"target":34962
		},
		{
			"buffer":0,
			"byteLength":288,
			"byteOffset":3648,
			"target":34962
		},
		{
			"buffer":0,
			"byteLength":192,
			"byteOffset":3936,
			"target":34962
		},
		{
			"buffer":0,
			"byteLength":72,
			"byteOffset":4128,
			"target":34963
		},
		{
			"buffer":0,
			"byteLength":288,
			"byteOffset":4200,
			"target":34962
		},
		{
			"buffer":0,
			"byteLength":288,
			"byteOffset":4488,
			"target":34962
		},
		{
			"buffer":0,
			"byteLength":192,
			"byteOffset":4776,
			"target":34962
		},
		{
			"buffer":0,
			"byteLength":72,
			"byteOffset":4968,
			"target":34963
		},
		{
			"buffer":0,
			"byteLength":288,
			"byteOffset":5040,
			"target":34962
		},
		{
			"buffer":0,
			"byteLength":288,
			"byteOffset":5328,
			"target":34962
		},
		{
			"buffer":0,
			"byteLength":192,
			"byteOffset":5616,
			"target":34962
		},
		{
			"buffer":0,
			"byteLength":288,
			"byteOffset":5808,
			"target":34962
		},
		{
			"buffer":0,
			"byteLength":288,
			"byteOffset":6096,
			"target":34962
		},
		{
			"buffer":0,
			"byteLength":192,
			"byteOffset":6384,
			"target":34962
		},
		{
			"buffer":0,
			"byteLength":288,
			"byteOffset":6576,
			"target":34962
		},
		{
			"buffer":0,
			"byteLength":288,
			"byteOffset":6864,
			"target":34962
		},
		{
			"buffer":0,
			"byteLength":192,
			"byteOffset":7152,
			"target":34962
		},
		{
			"buffer":0,
			"byteLength":288,
			"byteOffset":7344,
			"target":34962
		},
		{
			"buffer":0,
			"byteLength":288,
			"byteOffset":7632,
			"target":34962
		},
		{
			"buffer":0,
			"byteLength":192,
			"byteOffset":7920,
			"target":34962
		},
		{
			"buffer":0,
			"byteLength":288,
			"byteOffset":8112,
			"target":34962
		},
		{
			"buffer":0,
			"byteLength":288,
			"byteOffset":8400,
			"target":34962
		},
		{
			"buffer":0,
			"byteLength":192,
			"byteOffset":8688,
			"target":34962
		},
		{
			"buffer":0,
			"byteLength":72,
			"byteOffset":8880,
			"target":34963
		},
		{
			"buffer":0,
			"byteLength":288,
			"byteOffset":8952,
			"target":34962
		},
		{
			"buffer":0,
			"byteLength":288,
			"byteOffset":9240,
			"target":34962
		},
		{
			"buffer":0,
			"byteLength":192,
			"byteOffset":9528,
			"target":34962
		},
		{
			"buffer":0,
			"byteLength":72,
			"byteOffset":9720,
			"target":34963
		},
		{
			"buffer":0,
			"byteLength":288,
			"byteOffset":9792,
			"target":34962
		},
		{
			"buffer":0,
			"byteLength":288,
			"byteOffset":10080,
			"target":34962
		},
		{
			"buffer":0,
			"byteLength":192,
			"byteOffset":10368,
			"target":34962
		},
		{
			"buffer":0,
			"byteLength":72,
			"byteOffset":10560,
			"target":34963
		},
		{
			"buffer":0,
			"byteLength":2352,
			"byteOffset":10632,
			"target":34962
		},
		{
			"buffer":0,
			"byteLength":2352,
			"byteOffset":12984,
			"target":34962
		},
		{
			"buffer":0,
			"byteLength":1568,
			"byteOffset":15336,
			"target":34962
		},
		{
			"buffer":0,
			"byteLength":1568,
			"byteOffset":16904,
			"target":34962
		},
		{
			"buffer":0,
			"byteLength":876,
			"byteOffset":18472,
			"target":34963
		},
		{
			"buffer":0,
			"byteLength":336,
			"byteOffset":19348,
			"target":34962
		},
		{
			"buffer":0,
			"byteLength":336,
			"byteOffset":19684,
			"target":34962
		},
		{
			"buffer":0,
			"byteLength":224,
			"byteOffset":20020,
			"target":34962
		},
		{
			"buffer":0,
			"byteLength":224,
			"byteOffset":20244,
			"target":34962
		},
		{
			"buffer":0,
			"byteLength":144,
			"byteOffset":20468,
			"target":34963
		},
		{
			"buffer":0,
			"byteLength":432,
			"byteOffset":20612,
			"target":34962
		},
		{
			"buffer":0,
			"byteLength":432,
			"byteOffset":21044,
			"target":34962
		},
		{
			"buffer":0,
			"byteLength":288,
			"byteOffset":21476,
			"target":34962
		},
		{
			"buffer":0,
			"byteLength":288,
			"byteOffset":21764,
			"target":34962
		},
		{
			"buffer":0,
			"byteLength":192,
			"byteOffset":22052,
			"target":34963
		},
		{
			"buffer":0,
			"byteLength":1152,
			"byteOffset":22244,
			"target":34962
		},
		{
			"buffer":0,
			"byteLength":1152,
			"byteOffset":23396,
			"target":34962
		},
		{
			"buffer":0,
			"byteLength":768,
			"byteOffset":24548,
			"target":34962
		},
		{
			"buffer":0,
			"byteLength":768,
			"byteOffset":25316,
			"target":34962
		},
		{
			"buffer":0,
			"byteLength":288,
			"byteOffset":26084,
			"target":34963
		}
	],
	"samplers":[
		{
			"magFilter":9729,
			"minFilter":9987
		}
	],
	"buffers":[
		{
			"byteLength":26372,
			"uri":"Overhang_WoodBrick_Long.bin"
		}
	]
}
