{
	"asset":{
		"generator":"Khronos glTF Blender I/O v4.0.44",
		"version":"2.0"
	},
	"scene":0,
	"scenes":[
		{
			"name":"Scene",
			"nodes":[
				12
			]
		}
	],
	"nodes":[
		{
			"mesh":0,
			"name":"Overhang_Plaster_Short_01-convcolonly"
		},
		{
			"mesh":1,
			"name":"Overhang_Plaster_Short_02-convcolonly"
		},
		{
			"mesh":2,
			"name":"Overhang_Plaster_Short_03-convcolonly"
		},
		{
			"mesh":3,
			"name":"Overhang_Plaster_Short_04-convcolonly"
		},
		{
			"mesh":4,
			"name":"Overhang_Plaster_Short_05-convcolonly"
		},
		{
			"mesh":5,
			"name":"Overhang_Plaster_Short_06-convcolonly"
		},
		{
			"mesh":6,
			"name":"Overhang_Plaster_Short_07-convcolonly"
		},
		{
			"mesh":7,
			"name":"Overhang_Plaster_Short_08-convcolonly"
		},
		{
			"mesh":8,
			"name":"Overhang_Plaster_Short_09-convcolonly"
		},
		{
			"mesh":9,
			"name":"Overhang_Plaster_Short_10-convcolonly"
		},
		{
			"mesh":10,
			"name":"Overhang_Plaster_Short_11-convcolonly"
		},
		{
			"mesh":11,
			"name":"Overhang_Plaster_Short_12-convcolonly"
		},
		{
			"children":[
				0,
				1,
				2,
				3,
				4,
				5,
				6,
				7,
				8,
				9,
				10,
				11
			],
			"mesh":12,
			"name":"Overhang_Plaster_Short"
		}
	],
	"materials":[
		{
			"doubleSided":true,
			"name":"Collision",
			"pbrMetallicRoughness":{
				"baseColorFactor":[
					0.05868536978960037,
					0.2907957136631012,
					0.8000074625015259,
					1
				],
				"metallicFactor":0,
				"roughnessFactor":0.5
			}
		},
		{
			"doubleSided":true,
			"name":"MI_WoodTrim",
			"normalTexture":{
				"index":0
			},
			"pbrMetallicRoughness":{
				"baseColorTexture":{
					"index":1
				},
				"metallicFactor":0,
				"metallicRoughnessTexture":{
					"index":2
				}
			}
		},
		{
			"doubleSided":true,
			"name":"MI_Plaster",
			"normalTexture":{
				"index":3
			},
			"pbrMetallicRoughness":{
				"baseColorTexture":{
					"index":4
				},
				"metallicRoughnessTexture":{
					"index":5
				}
			}
		}
	],
	"meshes":[
		{
			"name":"Cube.587",
			"primitives":[
				{
					"attributes":{
						"POSITION":0,
						"NORMAL":1,
						"TEXCOORD_0":2
					},
					"indices":3,
					"material":0
				}
			]
		},
		{
			"name":"Cube.588",
			"primitives":[
				{
					"attributes":{
						"POSITION":4,
						"NORMAL":5,
						"TEXCOORD_0":6
					},
					"indices":7,
					"material":0
				}
			]
		},
		{
			"name":"Cube.589",
			"primitives":[
				{
					"attributes":{
						"POSITION":8,
						"NORMAL":9,
						"TEXCOORD_0":10
					},
					"indices":11,
					"material":0
				}
			]
		},
		{
			"name":"Cube.590",
			"primitives":[
				{
					"attributes":{
						"POSITION":12,
						"NORMAL":13,
						"TEXCOORD_0":14
					},
					"indices":15,
					"material":0
				}
			]
		},
		{
			"name":"Cube.591",
			"primitives":[
				{
					"attributes":{
						"POSITION":16,
						"NORMAL":17,
						"TEXCOORD_0":18
					},
					"indices":19,
					"material":0
				}
			]
		},
		{
			"name":"Cube.592",
			"primitives":[
				{
					"attributes":{
						"POSITION":20,
						"NORMAL":21,
						"TEXCOORD_0":22
					},
					"indices":7,
					"material":0
				}
			]
		},
		{
			"name":"Cube.593",
			"primitives":[
				{
					"attributes":{
						"POSITION":23,
						"NORMAL":24,
						"TEXCOORD_0":25
					},
					"indices":3,
					"material":0
				}
			]
		},
		{
			"name":"Cube.594",
			"primitives":[
				{
					"attributes":{
						"POSITION":26,
						"NORMAL":27,
						"TEXCOORD_0":28
					},
					"indices":15,
					"material":0
				}
			]
		},
		{
			"name":"Cube.595",
			"primitives":[
				{
					"attributes":{
						"POSITION":29,
						"NORMAL":30,
						"TEXCOORD_0":31
					},
					"indices":15,
					"material":0
				}
			]
		},
		{
			"name":"Cube.596",
			"primitives":[
				{
					"attributes":{
						"POSITION":32,
						"NORMAL":33,
						"TEXCOORD_0":34
					},
					"indices":19,
					"material":0
				}
			]
		},
		{
			"name":"Cube.597",
			"primitives":[
				{
					"attributes":{
						"POSITION":35,
						"NORMAL":36,
						"TEXCOORD_0":37
					},
					"indices":38,
					"material":0
				}
			]
		},
		{
			"name":"Cube.598",
			"primitives":[
				{
					"attributes":{
						"POSITION":39,
						"NORMAL":40,
						"TEXCOORD_0":41
					},
					"indices":42,
					"material":0
				}
			]
		},
		{
			"name":"Cube.232",
			"primitives":[
				{
					"attributes":{
						"POSITION":43,
						"NORMAL":44,
						"TEXCOORD_0":45,
						"TEXCOORD_1":46
					},
					"indices":47,
					"material":1
				},
				{
					"attributes":{
						"POSITION":48,
						"NORMAL":49,
						"TEXCOORD_0":50,
						"TEXCOORD_1":51
					},
					"indices":52,
					"material":2
				}
			]
		}
	],
	"textures":[
		{
			"sampler":0,
			"source":0
		},
		{
			"sampler":0,
			"source":1
		},
		{
			"sampler":0,
			"source":2
		},
		{
			"sampler":0,
			"source":3
		},
		{
			"sampler":0,
			"source":4
		},
		{
			"sampler":0,
			"source":5
		}
	],
	"images":[
		{
			"mimeType":"image/png",
			"name":"T_WoodTrim_Normal",
			"uri":"T_WoodTrim_Normal.png"
		},
		{
			"mimeType":"image/png",
			"name":"T_WoodTrim_BaseColor",
			"uri":"T_WoodTrim_BaseColor.png"
		},
		{
			"mimeType":"image/png",
			"name":"T_WoodTrim_Roughness",
			"uri":"T_WoodTrim_Roughness.png"
		},
		{
			"mimeType":"image/png",
			"name":"T_Plaster_Normal",
			"uri":"T_Plaster_Normal.png"
		},
		{
			"mimeType":"image/png",
			"name":"T_Plaster_BaseColor",
			"uri":"T_Plaster_BaseColor.png"
		},
		{
			"mimeType":"image/png",
			"name":"T_Plaster_ORM",
			"uri":"T_Plaster_ORM.png"
		}
	],
	"accessors":[
		{
			"bufferView":0,
			"componentType":5126,
			"count":24,
			"max":[
				0.10178173333406448,
				2.884838342666626,
				1.0880342721939087
			],
			"min":[
				-0.10178332775831223,
				2.6506130695343018,
				0.8217456936836243
			],
			"type":"VEC3"
		},
		{
			"bufferView":1,
			"componentType":5126,
			"count":24,
			"type":"VEC3"
		},
		{
			"bufferView":2,
			"componentType":5126,
			"count":24,
			"type":"VEC2"
		},
		{
			"bufferView":3,
			"componentType":5123,
			"count":36,
			"type":"SCALAR"
		},
		{
			"bufferView":4,
			"componentType":5126,
			"count":24,
			"max":[
				0.1017826646566391,
				1.7870566844940186,
				0.22553713619709015
			],
			"min":[
				-0.10178255289793015,
				0.28130102157592773,
				-0.0882350280880928
			],
			"type":"VEC3"
		},
		{
			"bufferView":5,
			"componentType":5126,
			"count":24,
			"type":"VEC3"
		},
		{
			"bufferView":6,
			"componentType":5126,
			"count":24,
			"type":"VEC2"
		},
		{
			"bufferView":7,
			"componentType":5123,
			"count":36,
			"type":"SCALAR"
		},
		{
			"bufferView":8,
			"componentType":5126,
			"count":24,
			"max":[
				0.10178234428167343,
				2.7299118041992188,
				0.5176865458488464
			],
			"min":[
				-0.10178293287754059,
				2.187114715576172,
				0.08338475227355957
			],
			"type":"VEC3"
		},
		{
			"bufferView":9,
			"componentType":5126,
			"count":24,
			"type":"VEC3"
		},
		{
			"bufferView":10,
			"componentType":5126,
			"count":24,
			"type":"VEC2"
		},
		{
			"bufferView":11,
			"componentType":5123,
			"count":36,
			"type":"SCALAR"
		},
		{
			"bufferView":12,
			"componentType":5126,
			"count":24,
			"max":[
				0.1017826646566391,
				2.3825302124023438,
				0.27780187129974365
			],
			"min":[
				-0.10178257524967194,
				1.7870566844940186,
				-0.08823514729738235
			],
			"type":"VEC3"
		},
		{
			"bufferView":13,
			"componentType":5126,
			"count":24,
			"type":"VEC3"
		},
		{
			"bufferView":14,
			"componentType":5126,
			"count":24,
			"type":"VEC2"
		},
		{
			"bufferView":15,
			"componentType":5123,
			"count":36,
			"type":"SCALAR"
		},
		{
			"bufferView":16,
			"componentType":5126,
			"count":24,
			"max":[
				0.10178214311599731,
				2.884838342666626,
				0.8327258825302124
			],
			"min":[
				-0.10178320854902267,
				2.5028951168060303,
				0.3583149313926697
			],
			"type":"VEC3"
		},
		{
			"bufferView":17,
			"componentType":5126,
			"count":24,
			"type":"VEC3"
		},
		{
			"bufferView":18,
			"componentType":5126,
			"count":24,
			"type":"VEC2"
		},
		{
			"bufferView":19,
			"componentType":5123,
			"count":36,
			"type":"SCALAR"
		},
		{
			"bufferView":20,
			"componentType":5126,
			"count":24,
			"max":[
				1.000000238418579,
				1.8471097946166992,
				0.013771791011095047
			],
			"min":[
				-0.9999998807907104,
				0,
				-0.3000015914440155
			],
			"type":"VEC3"
		},
		{
			"bufferView":21,
			"componentType":5126,
			"count":24,
			"type":"VEC3"
		},
		{
			"bufferView":22,
			"componentType":5126,
			"count":24,
			"type":"VEC2"
		},
		{
			"bufferView":23,
			"componentType":5126,
			"count":24,
			"max":[
				0.9999997019767761,
				2.9448914527893066,
				1.1106866598129272
			],
			"min":[
				-1.0000004768371582,
				2.818129539489746,
				0.5584677457809448
			],
			"type":"VEC3"
		},
		{
			"bufferView":24,
			"componentType":5126,
			"count":24,
			"type":"VEC3"
		},
		{
			"bufferView":25,
			"componentType":5126,
			"count":24,
			"type":"VEC2"
		},
		{
			"bufferView":26,
			"componentType":5126,
			"count":24,
			"max":[
				1.000000238418579,
				2.762228012084961,
				0.28063568472862244
			],
			"min":[
				-1.0000001192092896,
				2.2471678256988525,
				-0.1798931062221527
			],
			"type":"VEC3"
		},
		{
			"bufferView":27,
			"componentType":5126,
			"count":24,
			"type":"VEC3"
		},
		{
			"bufferView":28,
			"componentType":5126,
			"count":24,
			"type":"VEC2"
		},
		{
			"bufferView":29,
			"componentType":5126,
			"count":24,
			"max":[
				1.000000238418579,
				2.414846420288086,
				0.06603655219078064
			],
			"min":[
				-0.9999999403953552,
				1.8471097946166992,
				-0.3000015914440155
			],
			"type":"VEC3"
		},
		{
			"bufferView":30,
			"componentType":5126,
			"count":24,
			"type":"VEC3"
		},
		{
			"bufferView":31,
			"componentType":5126,
			"count":24,
			"type":"VEC2"
		},
		{
			"bufferView":32,
			"componentType":5126,
			"count":24,
			"max":[
				1.0000001192092896,
				2.917154550552368,
				0.6209604144096375
			],
			"min":[
				-1.000000238418579,
				2.5850729942321777,
				0.09503696858882904
			],
			"type":"VEC3"
		},
		{
			"bufferView":33,
			"componentType":5126,
			"count":24,
			"type":"VEC3"
		},
		{
			"bufferView":34,
			"componentType":5126,
			"count":24,
			"type":"VEC2"
		},
		{
			"bufferView":35,
			"componentType":5126,
			"count":24,
			"max":[
				0.9999994039535522,
				3.1203665733337402,
				1.1106866598129272
			],
			"min":[
				-1.0000004768371582,
				2.9461193084716797,
				0.6842069029808044
			],
			"type":"VEC3"
		},
		{
			"bufferView":36,
			"componentType":5126,
			"count":24,
			"type":"VEC3"
		},
		{
			"bufferView":37,
			"componentType":5126,
			"count":24,
			"type":"VEC2"
		},
		{
			"bufferView":38,
			"componentType":5123,
			"count":36,
			"type":"SCALAR"
		},
		{
			"bufferView":39,
			"componentType":5126,
			"count":24,
			"max":[
				1.000000238418579,
				0.8955520987510681,
				0.09412334859371185
			],
			"min":[
				-0.9999998807907104,
				0.6370663642883301,
				-0.2196500599384308
			],
			"type":"VEC3"
		},
		{
			"bufferView":40,
			"componentType":5126,
			"count":24,
			"type":"VEC3"
		},
		{
			"bufferView":41,
			"componentType":5126,
			"count":24,
			"type":"VEC2"
		},
		{
			"bufferView":42,
			"componentType":5123,
			"count":36,
			"type":"SCALAR"
		},
		{
			"bufferView":43,
			"componentType":5126,
			"count":200,
			"max":[
				1,
				3.1226887702941895,
				1.1228350400924683
			],
			"min":[
				-1.0000001192092896,
				0.41332197189331055,
				-0.012515849433839321
			],
			"type":"VEC3"
		},
		{
			"bufferView":44,
			"componentType":5126,
			"count":200,
			"type":"VEC3"
		},
		{
			"bufferView":45,
			"componentType":5126,
			"count":200,
			"type":"VEC2"
		},
		{
			"bufferView":46,
			"componentType":5126,
			"count":200,
			"type":"VEC2"
		},
		{
			"bufferView":47,
			"componentType":5123,
			"count":498,
			"type":"SCALAR"
		},
		{
			"bufferView":48,
			"componentType":5126,
			"count":62,
			"max":[
				1,
				2.91355037689209,
				1.0948179960250854
			],
			"min":[
				-1,
				0,
				-0.2000000923871994
			],
			"type":"VEC3"
		},
		{
			"bufferView":49,
			"componentType":5126,
			"count":62,
			"type":"VEC3"
		},
		{
			"bufferView":50,
			"componentType":5126,
			"count":62,
			"type":"VEC2"
		},
		{
			"bufferView":51,
			"componentType":5126,
			"count":62,
			"type":"VEC2"
		},
		{
			"bufferView":52,
			"componentType":5123,
			"count":168,
			"type":"SCALAR"
		}
	],
	"bufferViews":[
		{
			"buffer":0,
			"byteLength":288,
			"byteOffset":0,
			"target":34962
		},
		{
			"buffer":0,
			"byteLength":288,
			"byteOffset":288,
			"target":34962
		},
		{
			"buffer":0,
			"byteLength":192,
			"byteOffset":576,
			"target":34962
		},
		{
			"buffer":0,
			"byteLength":72,
			"byteOffset":768,
			"target":34963
		},
		{
			"buffer":0,
			"byteLength":288,
			"byteOffset":840,
			"target":34962
		},
		{
			"buffer":0,
			"byteLength":288,
			"byteOffset":1128,
			"target":34962
		},
		{
			"buffer":0,
			"byteLength":192,
			"byteOffset":1416,
			"target":34962
		},
		{
			"buffer":0,
			"byteLength":72,
			"byteOffset":1608,
			"target":34963
		},
		{
			"buffer":0,
			"byteLength":288,
			"byteOffset":1680,
			"target":34962
		},
		{
			"buffer":0,
			"byteLength":288,
			"byteOffset":1968,
			"target":34962
		},
		{
			"buffer":0,
			"byteLength":192,
			"byteOffset":2256,
			"target":34962
		},
		{
			"buffer":0,
			"byteLength":72,
			"byteOffset":2448,
			"target":34963
		},
		{
			"buffer":0,
			"byteLength":288,
			"byteOffset":2520,
			"target":34962
		},
		{
			"buffer":0,
			"byteLength":288,
			"byteOffset":2808,
			"target":34962
		},
		{
			"buffer":0,
			"byteLength":192,
			"byteOffset":3096,
			"target":34962
		},
		{
			"buffer":0,
			"byteLength":72,
			"byteOffset":3288,
			"target":34963
		},
		{
			"buffer":0,
			"byteLength":288,
			"byteOffset":3360,
			"target":34962
		},
		{
			"buffer":0,
			"byteLength":288,
			"byteOffset":3648,
			"target":34962
		},
		{
			"buffer":0,
			"byteLength":192,
			"byteOffset":3936,
			"target":34962
		},
		{
			"buffer":0,
			"byteLength":72,
			"byteOffset":4128,
			"target":34963
		},
		{
			"buffer":0,
			"byteLength":288,
			"byteOffset":4200,
			"target":34962
		},
		{
			"buffer":0,
			"byteLength":288,
			"byteOffset":4488,
			"target":34962
		},
		{
			"buffer":0,
			"byteLength":192,
			"byteOffset":4776,
			"target":34962
		},
		{
			"buffer":0,
			"byteLength":288,
			"byteOffset":4968,
			"target":34962
		},
		{
			"buffer":0,
			"byteLength":288,
			"byteOffset":5256,
			"target":34962
		},
		{
			"buffer":0,
			"byteLength":192,
			"byteOffset":5544,
			"target":34962
		},
		{
			"buffer":0,
			"byteLength":288,
			"byteOffset":5736,
			"target":34962
		},
		{
			"buffer":0,
			"byteLength":288,
			"byteOffset":6024,
			"target":34962
		},
		{
			"buffer":0,
			"byteLength":192,
			"byteOffset":6312,
			"target":34962
		},
		{
			"buffer":0,
			"byteLength":288,
			"byteOffset":6504,
			"target":34962
		},
		{
			"buffer":0,
			"byteLength":288,
			"byteOffset":6792,
			"target":34962
		},
		{
			"buffer":0,
			"byteLength":192,
			"byteOffset":7080,
			"target":34962
		},
		{
			"buffer":0,
			"byteLength":288,
			"byteOffset":7272,
			"target":34962
		},
		{
			"buffer":0,
			"byteLength":288,
			"byteOffset":7560,
			"target":34962
		},
		{
			"buffer":0,
			"byteLength":192,
			"byteOffset":7848,
			"target":34962
		},
		{
			"buffer":0,
			"byteLength":288,
			"byteOffset":8040,
			"target":34962
		},
		{
			"buffer":0,
			"byteLength":288,
			"byteOffset":8328,
			"target":34962
		},
		{
			"buffer":0,
			"byteLength":192,
			"byteOffset":8616,
			"target":34962
		},
		{
			"buffer":0,
			"byteLength":72,
			"byteOffset":8808,
			"target":34963
		},
		{
			"buffer":0,
			"byteLength":288,
			"byteOffset":8880,
			"target":34962
		},
		{
			"buffer":0,
			"byteLength":288,
			"byteOffset":9168,
			"target":34962
		},
		{
			"buffer":0,
			"byteLength":192,
			"byteOffset":9456,
			"target":34962
		},
		{
			"buffer":0,
			"byteLength":72,
			"byteOffset":9648,
			"target":34963
		},
		{
			"buffer":0,
			"byteLength":2400,
			"byteOffset":9720,
			"target":34962
		},
		{
			"buffer":0,
			"byteLength":2400,
			"byteOffset":12120,
			"target":34962
		},
		{
			"buffer":0,
			"byteLength":1600,
			"byteOffset":14520,
			"target":34962
		},
		{
			"buffer":0,
			"byteLength":1600,
			"byteOffset":16120,
			"target":34962
		},
		{
			"buffer":0,
			"byteLength":996,
			"byteOffset":17720,
			"target":34963
		},
		{
			"buffer":0,
			"byteLength":744,
			"byteOffset":18716,
			"target":34962
		},
		{
			"buffer":0,
			"byteLength":744,
			"byteOffset":19460,
			"target":34962
		},
		{
			"buffer":0,
			"byteLength":496,
			"byteOffset":20204,
			"target":34962
		},
		{
			"buffer":0,
			"byteLength":496,
			"byteOffset":20700,
			"target":34962
		},
		{
			"buffer":0,
			"byteLength":336,
			"byteOffset":21196,
			"target":34963
		}
	],
	"samplers":[
		{
			"magFilter":9729,
			"minFilter":9987
		}
	],
	"buffers":[
		{
			"byteLength":21532,
			"uri":"Overhang_Plaster_Short.bin"
		}
	]
}
