{
	"asset":{
		"generator":"Khronos glTF Blender I/O v4.0.44",
		"version":"2.0"
	},
	"scene":0,
	"scenes":[
		{
			"name":"Scene",
			"nodes":[
				2
			]
		}
	],
	"nodes":[
		{
			"mesh":0,
			"name":"Prop_Chimney_1-convcolonly"
		},
		{
			"mesh":1,
			"name":"Prop_Chimney_2-convcolonly"
		},
		{
			"children":[
				0,
				1
			],
			"mesh":2,
			"name":"Prop_Chimney"
		}
	],
	"materials":[
		{
			"doubleSided":true,
			"name":"Collision",
			"pbrMetallicRoughness":{
				"baseColorFactor":[
					0.05868536978960037,
					0.2907957136631012,
					0.8000074625015259,
					1
				],
				"metallicFactor":0,
				"roughnessFactor":0.5
			}
		},
		{
			"doubleSided":true,
			"name":"MI_RockTrim",
			"normalTexture":{
				"index":0
			},
			"pbrMetallicRoughness":{
				"baseColorTexture":{
					"index":1
				},
				"metallicRoughnessTexture":{
					"index":2
				}
			}
		},
		{
			"doubleSided":true,
			"name":"MI_Brick",
			"normalTexture":{
				"index":3
			},
			"pbrMetallicRoughness":{
				"baseColorTexture":{
					"index":4
				},
				"metallicFactor":0,
				"metallicRoughnessTexture":{
					"index":5
				}
			}
		}
	],
	"meshes":[
		{
			"name":"Cube.336",
			"primitives":[
				{
					"attributes":{
						"POSITION":0,
						"NORMAL":1,
						"TEXCOORD_0":2
					},
					"indices":3,
					"material":0
				}
			]
		},
		{
			"name":"Cube.337",
			"primitives":[
				{
					"attributes":{
						"POSITION":4,
						"NORMAL":5,
						"TEXCOORD_0":6
					},
					"indices":7,
					"material":0
				}
			]
		},
		{
			"name":"Cube.017_Retopology.006",
			"primitives":[
				{
					"attributes":{
						"POSITION":8,
						"NORMAL":9,
						"TEXCOORD_0":10
					},
					"indices":11,
					"material":1
				},
				{
					"attributes":{
						"POSITION":12,
						"NORMAL":13,
						"TEXCOORD_0":14
					},
					"indices":15,
					"material":2
				}
			]
		}
	],
	"textures":[
		{
			"sampler":0,
			"source":0
		},
		{
			"sampler":0,
			"source":1
		},
		{
			"sampler":0,
			"source":2
		},
		{
			"sampler":0,
			"source":3
		},
		{
			"sampler":0,
			"source":4
		},
		{
			"sampler":0,
			"source":5
		}
	],
	"images":[
		{
			"mimeType":"image/png",
			"name":"T_RockTrim_Normal",
			"uri":"T_RockTrim_Normal.png"
		},
		{
			"mimeType":"image/png",
			"name":"T_RockTrim_BaseColor",
			"uri":"T_RockTrim_BaseColor.png"
		},
		{
			"mimeType":"image/png",
			"name":"T_RockTrim_ORM",
			"uri":"T_RockTrim_ORM.png"
		},
		{
			"mimeType":"image/png",
			"name":"T_Brick_Normal",
			"uri":"T_Brick_Normal.png"
		},
		{
			"mimeType":"image/png",
			"name":"T_Brick_BaseColor",
			"uri":"T_Brick_BaseColor.png"
		},
		{
			"mimeType":"image/png",
			"name":"T_Brick_Roughness",
			"uri":"T_Brick_Roughness.png"
		}
	],
	"accessors":[
		{
			"bufferView":0,
			"componentType":5126,
			"count":24,
			"max":[
				0.5,
				3.073186159133911,
				0.5
			],
			"min":[
				-0.5,
				0,
				-0.5
			],
			"type":"VEC3"
		},
		{
			"bufferView":1,
			"componentType":5126,
			"count":24,
			"type":"VEC3"
		},
		{
			"bufferView":2,
			"componentType":5126,
			"count":24,
			"type":"VEC2"
		},
		{
			"bufferView":3,
			"componentType":5123,
			"count":36,
			"type":"SCALAR"
		},
		{
			"bufferView":4,
			"componentType":5126,
			"count":24,
			"max":[
				0.4490859806537628,
				3.1614010334014893,
				0.44908592104911804
			],
			"min":[
				-0.4490858316421509,
				2.8783657550811768,
				-0.44908592104911804
			],
			"type":"VEC3"
		},
		{
			"bufferView":5,
			"componentType":5126,
			"count":24,
			"type":"VEC3"
		},
		{
			"bufferView":6,
			"componentType":5126,
			"count":24,
			"type":"VEC2"
		},
		{
			"bufferView":7,
			"componentType":5123,
			"count":36,
			"type":"SCALAR"
		},
		{
			"bufferView":8,
			"componentType":5126,
			"count":508,
			"max":[
				0.4383014738559723,
				3.177875280380249,
				0.47339576482772827
			],
			"min":[
				-0.4516017735004425,
				2.8398513793945312,
				-0.43134835362434387
			],
			"type":"VEC3"
		},
		{
			"bufferView":9,
			"componentType":5126,
			"count":508,
			"type":"VEC3"
		},
		{
			"bufferView":10,
			"componentType":5126,
			"count":508,
			"type":"VEC2"
		},
		{
			"bufferView":11,
			"componentType":5123,
			"count":1830,
			"type":"SCALAR"
		},
		{
			"bufferView":12,
			"componentType":5126,
			"count":16,
			"max":[
				0.4457784593105316,
				3,
				0.5000000596046448
			],
			"min":[
				-0.5000000596046448,
				5.960464477539063e-08,
				-0.5000000596046448
			],
			"type":"VEC3"
		},
		{
			"bufferView":13,
			"componentType":5126,
			"count":16,
			"type":"VEC3"
		},
		{
			"bufferView":14,
			"componentType":5126,
			"count":16,
			"type":"VEC2"
		},
		{
			"bufferView":15,
			"componentType":5123,
			"count":24,
			"type":"SCALAR"
		}
	],
	"bufferViews":[
		{
			"buffer":0,
			"byteLength":288,
			"byteOffset":0,
			"target":34962
		},
		{
			"buffer":0,
			"byteLength":288,
			"byteOffset":288,
			"target":34962
		},
		{
			"buffer":0,
			"byteLength":192,
			"byteOffset":576,
			"target":34962
		},
		{
			"buffer":0,
			"byteLength":72,
			"byteOffset":768,
			"target":34963
		},
		{
			"buffer":0,
			"byteLength":288,
			"byteOffset":840,
			"target":34962
		},
		{
			"buffer":0,
			"byteLength":288,
			"byteOffset":1128,
			"target":34962
		},
		{
			"buffer":0,
			"byteLength":192,
			"byteOffset":1416,
			"target":34962
		},
		{
			"buffer":0,
			"byteLength":72,
			"byteOffset":1608,
			"target":34963
		},
		{
			"buffer":0,
			"byteLength":6096,
			"byteOffset":1680,
			"target":34962
		},
		{
			"buffer":0,
			"byteLength":6096,
			"byteOffset":7776,
			"target":34962
		},
		{
			"buffer":0,
			"byteLength":4064,
			"byteOffset":13872,
			"target":34962
		},
		{
			"buffer":0,
			"byteLength":3660,
			"byteOffset":17936,
			"target":34963
		},
		{
			"buffer":0,
			"byteLength":192,
			"byteOffset":21596,
			"target":34962
		},
		{
			"buffer":0,
			"byteLength":192,
			"byteOffset":21788,
			"target":34962
		},
		{
			"buffer":0,
			"byteLength":128,
			"byteOffset":21980,
			"target":34962
		},
		{
			"buffer":0,
			"byteLength":48,
			"byteOffset":22108,
			"target":34963
		}
	],
	"samplers":[
		{
			"magFilter":9729,
			"minFilter":9987
		}
	],
	"buffers":[
		{
			"byteLength":22156,
			"uri":"Prop_Chimney.bin"
		}
	]
}
