{
	"asset":{
		"generator":"Khronos glTF Blender I/O v4.0.44",
		"version":"2.0"
	},
	"scene":0,
	"scenes":[
		{
			"name":"Scene",
			"nodes":[
				11
			]
		}
	],
	"nodes":[
		{
			"mesh":0,
			"name":"Prop_Wagon_01-convcolonly"
		},
		{
			"mesh":1,
			"name":"Prop_Wagon_02-convcolonly"
		},
		{
			"mesh":2,
			"name":"Prop_Wagon_03-convcolonly"
		},
		{
			"mesh":3,
			"name":"Prop_Wagon_04-convcolonly"
		},
		{
			"mesh":4,
			"name":"Prop_Wagon_05-convcolonly"
		},
		{
			"mesh":5,
			"name":"Prop_Wagon_06-convcolonly"
		},
		{
			"mesh":6,
			"name":"Prop_Wagon_07-convcolonly"
		},
		{
			"mesh":7,
			"name":"Prop_Wagon_08-convcolonly"
		},
		{
			"mesh":8,
			"name":"Prop_Wagon_09-convcolonly"
		},
		{
			"mesh":9,
			"name":"Prop_Wagon_10-convcolonly"
		},
		{
			"mesh":10,
			"name":"Prop_Wagon_11-convcolonly"
		},
		{
			"children":[
				0,
				1,
				2,
				3,
				4,
				5,
				6,
				7,
				8,
				9,
				10
			],
			"mesh":11,
			"name":"Prop_Wagon"
		}
	],
	"materials":[
		{
			"doubleSided":true,
			"name":"Collision",
			"pbrMetallicRoughness":{
				"baseColorFactor":[
					0.05868536978960037,
					0.2907957136631012,
					0.8000074625015259,
					1
				],
				"metallicFactor":0,
				"roughnessFactor":0.5
			}
		},
		{
			"doubleSided":true,
			"name":"MI_WoodTrim_Wear",
			"normalTexture":{
				"index":0
			},
			"pbrMetallicRoughness":{
				"baseColorTexture":{
					"index":1
				},
				"metallicFactor":0,
				"metallicRoughnessTexture":{
					"index":2
				}
			}
		}
	],
	"meshes":[
		{
			"name":"Cube.1333",
			"primitives":[
				{
					"attributes":{
						"POSITION":0,
						"NORMAL":1,
						"TEXCOORD_0":2
					},
					"indices":3,
					"material":0
				}
			]
		},
		{
			"name":"Cube.1340",
			"primitives":[
				{
					"attributes":{
						"POSITION":4,
						"NORMAL":5,
						"TEXCOORD_0":6
					},
					"indices":7,
					"material":0
				}
			]
		},
		{
			"name":"Cube.1341",
			"primitives":[
				{
					"attributes":{
						"POSITION":8,
						"NORMAL":9,
						"TEXCOORD_0":10
					},
					"indices":11,
					"material":0
				}
			]
		},
		{
			"name":"Cube.1342",
			"primitives":[
				{
					"attributes":{
						"POSITION":12,
						"NORMAL":13,
						"TEXCOORD_0":14
					},
					"indices":15,
					"material":0
				}
			]
		},
		{
			"name":"Cube.1343",
			"primitives":[
				{
					"attributes":{
						"POSITION":16,
						"NORMAL":17,
						"TEXCOORD_0":18
					},
					"indices":19,
					"material":0
				}
			]
		},
		{
			"name":"Cube.1344",
			"primitives":[
				{
					"attributes":{
						"POSITION":20,
						"NORMAL":21,
						"TEXCOORD_0":22
					},
					"indices":23,
					"material":0
				}
			]
		},
		{
			"name":"Cube.1345",
			"primitives":[
				{
					"attributes":{
						"POSITION":24,
						"NORMAL":25,
						"TEXCOORD_0":26
					},
					"indices":27,
					"material":0
				}
			]
		},
		{
			"name":"Cube.1346",
			"primitives":[
				{
					"attributes":{
						"POSITION":28,
						"NORMAL":29,
						"TEXCOORD_0":30
					},
					"indices":31,
					"material":0
				}
			]
		},
		{
			"name":"Cube.1347",
			"primitives":[
				{
					"attributes":{
						"POSITION":32,
						"NORMAL":33,
						"TEXCOORD_0":34
					},
					"indices":35,
					"material":0
				}
			]
		},
		{
			"name":"Cube.1348",
			"primitives":[
				{
					"attributes":{
						"POSITION":36,
						"NORMAL":37,
						"TEXCOORD_0":38
					},
					"indices":39,
					"material":0
				}
			]
		},
		{
			"name":"Cube.1349",
			"primitives":[
				{
					"attributes":{
						"POSITION":40,
						"NORMAL":41,
						"TEXCOORD_0":42
					},
					"indices":43,
					"material":0
				}
			]
		},
		{
			"name":"Cube.043",
			"primitives":[
				{
					"attributes":{
						"POSITION":44,
						"NORMAL":45,
						"TEXCOORD_0":46,
						"TEXCOORD_1":47
					},
					"indices":48,
					"material":1
				}
			]
		}
	],
	"textures":[
		{
			"sampler":0,
			"source":0
		},
		{
			"sampler":0,
			"source":1
		},
		{
			"sampler":0,
			"source":2
		}
	],
	"images":[
		{
			"mimeType":"image/png",
			"name":"T_WoodTrim_Normal",
			"uri":"T_WoodTrim_Normal.png"
		},
		{
			"mimeType":"image/png",
			"name":"T_WoodTrim_BaseColor",
			"uri":"T_WoodTrim_BaseColor.png"
		},
		{
			"mimeType":"image/png",
			"name":"T_WoodTrim_Roughness",
			"uri":"T_WoodTrim_Roughness.png"
		}
	],
	"accessors":[
		{
			"bufferView":0,
			"componentType":5126,
			"count":24,
			"max":[
				0.748136579990387,
				0.881924569606781,
				-0.4428878724575043
			],
			"min":[
				-0.7481324076652527,
				0.152690589427948,
				-3.1523056030273438
			],
			"type":"VEC3"
		},
		{
			"bufferView":1,
			"componentType":5126,
			"count":24,
			"type":"VEC3"
		},
		{
			"bufferView":2,
			"componentType":5126,
			"count":24,
			"type":"VEC2"
		},
		{
			"bufferView":3,
			"componentType":5123,
			"count":36,
			"type":"SCALAR"
		},
		{
			"bufferView":4,
			"componentType":5126,
			"count":24,
			"max":[
				0.794154167175293,
				1.5484082698822021,
				-0.396875262260437
			],
			"min":[
				0.5847795605659485,
				0.152690589427948,
				-3.1523056030273438
			],
			"type":"VEC3"
		},
		{
			"bufferView":5,
			"componentType":5126,
			"count":24,
			"type":"VEC3"
		},
		{
			"bufferView":6,
			"componentType":5126,
			"count":24,
			"type":"VEC2"
		},
		{
			"bufferView":7,
			"componentType":5123,
			"count":36,
			"type":"SCALAR"
		},
		{
			"bufferView":8,
			"componentType":5126,
			"count":24,
			"max":[
				-0.5847795605659485,
				1.5484083890914917,
				-0.396875262260437
			],
			"min":[
				-0.794154167175293,
				0.152690589427948,
				-3.1523056030273438
			],
			"type":"VEC3"
		},
		{
			"bufferView":9,
			"componentType":5126,
			"count":24,
			"type":"VEC3"
		},
		{
			"bufferView":10,
			"componentType":5126,
			"count":24,
			"type":"VEC2"
		},
		{
			"bufferView":11,
			"componentType":5123,
			"count":36,
			"type":"SCALAR"
		},
		{
			"bufferView":12,
			"componentType":5126,
			"count":24,
			"max":[
				0.7500520348548889,
				0.3849503695964813,
				0.8882462382316589
			],
			"min":[
				0.6380630731582642,
				-0.0007801249157637358,
				-0.4855395555496216
			],
			"type":"VEC3"
		},
		{
			"bufferView":13,
			"componentType":5126,
			"count":24,
			"type":"VEC3"
		},
		{
			"bufferView":14,
			"componentType":5126,
			"count":24,
			"type":"VEC2"
		},
		{
			"bufferView":15,
			"componentType":5123,
			"count":36,
			"type":"SCALAR"
		},
		{
			"bufferView":16,
			"componentType":5126,
			"count":24,
			"max":[
				-0.6380631327629089,
				0.3849503695964813,
				0.8882462382316589
			],
			"min":[
				-0.7500520944595337,
				-0.0007801249739713967,
				-0.4855395555496216
			],
			"type":"VEC3"
		},
		{
			"bufferView":17,
			"componentType":5126,
			"count":24,
			"type":"VEC3"
		},
		{
			"bufferView":18,
			"componentType":5126,
			"count":24,
			"type":"VEC2"
		},
		{
			"bufferView":19,
			"componentType":5123,
			"count":36,
			"type":"SCALAR"
		},
		{
			"bufferView":20,
			"componentType":5126,
			"count":24,
			"max":[
				0.6974448561668396,
				0.31928008794784546,
				-0.11787497252225876
			],
			"min":[
				-0.6842256784439087,
				0.20934660732746124,
				-0.22641392052173615
			],
			"type":"VEC3"
		},
		{
			"bufferView":21,
			"componentType":5126,
			"count":24,
			"type":"VEC3"
		},
		{
			"bufferView":22,
			"componentType":5126,
			"count":24,
			"type":"VEC2"
		},
		{
			"bufferView":23,
			"componentType":5123,
			"count":36,
			"type":"SCALAR"
		},
		{
			"bufferView":24,
			"componentType":5126,
			"count":24,
			"max":[
				0.748136579990387,
				1.279139518737793,
				-2.8445000648498535
			],
			"min":[
				-0.7481324076652527,
				0.8037631511688232,
				-3.0351226329803467
			],
			"type":"VEC3"
		},
		{
			"bufferView":25,
			"componentType":5126,
			"count":24,
			"type":"VEC3"
		},
		{
			"bufferView":26,
			"componentType":5126,
			"count":24,
			"type":"VEC2"
		},
		{
			"bufferView":27,
			"componentType":5123,
			"count":36,
			"type":"SCALAR"
		},
		{
			"bufferView":28,
			"componentType":5126,
			"count":72,
			"max":[
				0.9275575876235962,
				1.1167762279510498,
				-1.799744963645935
			],
			"min":[
				0.8022039532661438,
				-0.00683286227285862,
				-2.923353910446167
			],
			"type":"VEC3"
		},
		{
			"bufferView":29,
			"componentType":5126,
			"count":72,
			"type":"VEC3"
		},
		{
			"bufferView":30,
			"componentType":5126,
			"count":72,
			"type":"VEC2"
		},
		{
			"bufferView":31,
			"componentType":5123,
			"count":132,
			"type":"SCALAR"
		},
		{
			"bufferView":32,
			"componentType":5126,
			"count":72,
			"max":[
				0.9692047834396362,
				0.6191139817237854,
				-2.2974071502685547
			],
			"min":[
				0.9223935008049011,
				0.49082961678504944,
				-2.425691604614258
			],
			"type":"VEC3"
		},
		{
			"bufferView":33,
			"componentType":5126,
			"count":72,
			"type":"VEC3"
		},
		{
			"bufferView":34,
			"componentType":5126,
			"count":72,
			"type":"VEC2"
		},
		{
			"bufferView":35,
			"componentType":5123,
			"count":132,
			"type":"SCALAR"
		},
		{
			"bufferView":36,
			"componentType":5126,
			"count":72,
			"max":[
				-0.8022048473358154,
				1.1167758703231812,
				-1.799744725227356
			],
			"min":[
				-0.9275582432746887,
				-0.0068331994116306305,
				-2.923353910446167
			],
			"type":"VEC3"
		},
		{
			"bufferView":37,
			"componentType":5126,
			"count":72,
			"type":"VEC3"
		},
		{
			"bufferView":38,
			"componentType":5126,
			"count":72,
			"type":"VEC2"
		},
		{
			"bufferView":39,
			"componentType":5123,
			"count":132,
			"type":"SCALAR"
		},
		{
			"bufferView":40,
			"componentType":5126,
			"count":72,
			"max":[
				-0.922394335269928,
				0.619113564491272,
				-2.2974069118499756
			],
			"min":[
				-0.9692055583000183,
				0.4908292293548584,
				-2.4256911277770996
			],
			"type":"VEC3"
		},
		{
			"bufferView":41,
			"componentType":5126,
			"count":72,
			"type":"VEC3"
		},
		{
			"bufferView":42,
			"componentType":5126,
			"count":72,
			"type":"VEC2"
		},
		{
			"bufferView":43,
			"componentType":5123,
			"count":132,
			"type":"SCALAR"
		},
		{
			"bufferView":44,
			"componentType":5126,
			"count":2331,
			"max":[
				0.9720492362976074,
				1.5323269367218018,
				0.8735843896865845
			],
			"min":[
				-0.9793591499328613,
				0.00312984362244606,
				-3.1504321098327637
			],
			"type":"VEC3"
		},
		{
			"bufferView":45,
			"componentType":5126,
			"count":2331,
			"type":"VEC3"
		},
		{
			"bufferView":46,
			"componentType":5126,
			"count":2331,
			"type":"VEC2"
		},
		{
			"bufferView":47,
			"componentType":5126,
			"count":2331,
			"type":"VEC2"
		},
		{
			"bufferView":48,
			"componentType":5123,
			"count":5016,
			"type":"SCALAR"
		}
	],
	"bufferViews":[
		{
			"buffer":0,
			"byteLength":288,
			"byteOffset":0,
			"target":34962
		},
		{
			"buffer":0,
			"byteLength":288,
			"byteOffset":288,
			"target":34962
		},
		{
			"buffer":0,
			"byteLength":192,
			"byteOffset":576,
			"target":34962
		},
		{
			"buffer":0,
			"byteLength":72,
			"byteOffset":768,
			"target":34963
		},
		{
			"buffer":0,
			"byteLength":288,
			"byteOffset":840,
			"target":34962
		},
		{
			"buffer":0,
			"byteLength":288,
			"byteOffset":1128,
			"target":34962
		},
		{
			"buffer":0,
			"byteLength":192,
			"byteOffset":1416,
			"target":34962
		},
		{
			"buffer":0,
			"byteLength":72,
			"byteOffset":1608,
			"target":34963
		},
		{
			"buffer":0,
			"byteLength":288,
			"byteOffset":1680,
			"target":34962
		},
		{
			"buffer":0,
			"byteLength":288,
			"byteOffset":1968,
			"target":34962
		},
		{
			"buffer":0,
			"byteLength":192,
			"byteOffset":2256,
			"target":34962
		},
		{
			"buffer":0,
			"byteLength":72,
			"byteOffset":2448,
			"target":34963
		},
		{
			"buffer":0,
			"byteLength":288,
			"byteOffset":2520,
			"target":34962
		},
		{
			"buffer":0,
			"byteLength":288,
			"byteOffset":2808,
			"target":34962
		},
		{
			"buffer":0,
			"byteLength":192,
			"byteOffset":3096,
			"target":34962
		},
		{
			"buffer":0,
			"byteLength":72,
			"byteOffset":3288,
			"target":34963
		},
		{
			"buffer":0,
			"byteLength":288,
			"byteOffset":3360,
			"target":34962
		},
		{
			"buffer":0,
			"byteLength":288,
			"byteOffset":3648,
			"target":34962
		},
		{
			"buffer":0,
			"byteLength":192,
			"byteOffset":3936,
			"target":34962
		},
		{
			"buffer":0,
			"byteLength":72,
			"byteOffset":4128,
			"target":34963
		},
		{
			"buffer":0,
			"byteLength":288,
			"byteOffset":4200,
			"target":34962
		},
		{
			"buffer":0,
			"byteLength":288,
			"byteOffset":4488,
			"target":34962
		},
		{
			"buffer":0,
			"byteLength":192,
			"byteOffset":4776,
			"target":34962
		},
		{
			"buffer":0,
			"byteLength":72,
			"byteOffset":4968,
			"target":34963
		},
		{
			"buffer":0,
			"byteLength":288,
			"byteOffset":5040,
			"target":34962
		},
		{
			"buffer":0,
			"byteLength":288,
			"byteOffset":5328,
			"target":34962
		},
		{
			"buffer":0,
			"byteLength":192,
			"byteOffset":5616,
			"target":34962
		},
		{
			"buffer":0,
			"byteLength":72,
			"byteOffset":5808,
			"target":34963
		},
		{
			"buffer":0,
			"byteLength":864,
			"byteOffset":5880,
			"target":34962
		},
		{
			"buffer":0,
			"byteLength":864,
			"byteOffset":6744,
			"target":34962
		},
		{
			"buffer":0,
			"byteLength":576,
			"byteOffset":7608,
			"target":34962
		},
		{
			"buffer":0,
			"byteLength":264,
			"byteOffset":8184,
			"target":34963
		},
		{
			"buffer":0,
			"byteLength":864,
			"byteOffset":8448,
			"target":34962
		},
		{
			"buffer":0,
			"byteLength":864,
			"byteOffset":9312,
			"target":34962
		},
		{
			"buffer":0,
			"byteLength":576,
			"byteOffset":10176,
			"target":34962
		},
		{
			"buffer":0,
			"byteLength":264,
			"byteOffset":10752,
			"target":34963
		},
		{
			"buffer":0,
			"byteLength":864,
			"byteOffset":11016,
			"target":34962
		},
		{
			"buffer":0,
			"byteLength":864,
			"byteOffset":11880,
			"target":34962
		},
		{
			"buffer":0,
			"byteLength":576,
			"byteOffset":12744,
			"target":34962
		},
		{
			"buffer":0,
			"byteLength":264,
			"byteOffset":13320,
			"target":34963
		},
		{
			"buffer":0,
			"byteLength":864,
			"byteOffset":13584,
			"target":34962
		},
		{
			"buffer":0,
			"byteLength":864,
			"byteOffset":14448,
			"target":34962
		},
		{
			"buffer":0,
			"byteLength":576,
			"byteOffset":15312,
			"target":34962
		},
		{
			"buffer":0,
			"byteLength":264,
			"byteOffset":15888,
			"target":34963
		},
		{
			"buffer":0,
			"byteLength":27972,
			"byteOffset":16152,
			"target":34962
		},
		{
			"buffer":0,
			"byteLength":27972,
			"byteOffset":44124,
			"target":34962
		},
		{
			"buffer":0,
			"byteLength":18648,
			"byteOffset":72096,
			"target":34962
		},
		{
			"buffer":0,
			"byteLength":18648,
			"byteOffset":90744,
			"target":34962
		},
		{
			"buffer":0,
			"byteLength":10032,
			"byteOffset":109392,
			"target":34963
		}
	],
	"samplers":[
		{
			"magFilter":9729,
			"minFilter":9987
		}
	],
	"buffers":[
		{
			"byteLength":119424,
			"uri":"Prop_Wagon.bin"
		}
	]
}
