{
	"asset":{
		"generator":"Khronos glTF Blender I/O v4.0.44",
		"version":"2.0"
	},
	"scene":0,
	"scenes":[
		{
			"name":"Scene",
			"nodes":[
				1
			]
		}
	],
	"nodes":[
		{
			"mesh":0,
			"name":"Prop_Chimney2_1-convcolonly"
		},
		{
			"children":[
				0
			],
			"mesh":1,
			"name":"Prop_Chimney2"
		}
	],
	"materials":[
		{
			"doubleSided":true,
			"name":"Collision",
			"pbrMetallicRoughness":{
				"baseColorFactor":[
					0.05868536978960037,
					0.2907957136631012,
					0.8000074625015259,
					1
				],
				"metallicFactor":0,
				"roughnessFactor":0.5
			}
		},
		{
			"doubleSided":true,
			"name":"MI_UnevenBrick",
			"normalTexture":{
				"index":0
			},
			"pbrMetallicRoughness":{
				"baseColorTexture":{
					"index":1
				},
				"metallicFactor":0,
				"metallicRoughnessTexture":{
					"index":2
				}
			}
		}
	],
	"meshes":[
		{
			"name":"Cube.338",
			"primitives":[
				{
					"attributes":{
						"POSITION":0,
						"NORMAL":1,
						"TEXCOORD_0":2
					},
					"indices":3,
					"material":0
				}
			]
		},
		{
			"name":"Cube.017_Retopology.005",
			"primitives":[
				{
					"attributes":{
						"POSITION":4,
						"NORMAL":5,
						"TEXCOORD_0":6
					},
					"indices":7,
					"material":1
				}
			]
		}
	],
	"textures":[
		{
			"sampler":0,
			"source":0
		},
		{
			"sampler":0,
			"source":1
		},
		{
			"sampler":0,
			"source":2
		}
	],
	"images":[
		{
			"mimeType":"image/png",
			"name":"T_UnevenBrick_Normal",
			"uri":"T_UnevenBrick_Normal.png"
		},
		{
			"mimeType":"image/png",
			"name":"T_UnevenBrick_BaseColor",
			"uri":"T_UnevenBrick_BaseColor.png"
		},
		{
			"mimeType":"image/png",
			"name":"T_UnevenBrick_Roughness",
			"uri":"T_UnevenBrick_Roughness.png"
		}
	],
	"accessors":[
		{
			"bufferView":0,
			"componentType":5126,
			"count":24,
			"max":[
				0.5,
				2.995340347290039,
				0.5
			],
			"min":[
				-0.5,
				0,
				-0.5
			],
			"type":"VEC3"
		},
		{
			"bufferView":1,
			"componentType":5126,
			"count":24,
			"type":"VEC3"
		},
		{
			"bufferView":2,
			"componentType":5126,
			"count":24,
			"type":"VEC2"
		},
		{
			"bufferView":3,
			"componentType":5123,
			"count":36,
			"type":"SCALAR"
		},
		{
			"bufferView":4,
			"componentType":5126,
			"count":122,
			"max":[
				0.4457784593105316,
				3,
				0.4940085709095001
			],
			"min":[
				-0.5000000596046448,
				5.820766091346741e-08,
				-0.49400854110717773
			],
			"type":"VEC3"
		},
		{
			"bufferView":5,
			"componentType":5126,
			"count":122,
			"type":"VEC3"
		},
		{
			"bufferView":6,
			"componentType":5126,
			"count":122,
			"type":"VEC2"
		},
		{
			"bufferView":7,
			"componentType":5123,
			"count":390,
			"type":"SCALAR"
		}
	],
	"bufferViews":[
		{
			"buffer":0,
			"byteLength":288,
			"byteOffset":0,
			"target":34962
		},
		{
			"buffer":0,
			"byteLength":288,
			"byteOffset":288,
			"target":34962
		},
		{
			"buffer":0,
			"byteLength":192,
			"byteOffset":576,
			"target":34962
		},
		{
			"buffer":0,
			"byteLength":72,
			"byteOffset":768,
			"target":34963
		},
		{
			"buffer":0,
			"byteLength":1464,
			"byteOffset":840,
			"target":34962
		},
		{
			"buffer":0,
			"byteLength":1464,
			"byteOffset":2304,
			"target":34962
		},
		{
			"buffer":0,
			"byteLength":976,
			"byteOffset":3768,
			"target":34962
		},
		{
			"buffer":0,
			"byteLength":780,
			"byteOffset":4744,
			"target":34963
		}
	],
	"samplers":[
		{
			"magFilter":9729,
			"minFilter":9987
		}
	],
	"buffers":[
		{
			"byteLength":5524,
			"uri":"Prop_Chimney2.bin"
		}
	]
}
