{
	"asset":{
		"generator":"Khronos glTF Blender I/O v4.0.44",
		"version":"2.0"
	},
	"scene":0,
	"scenes":[
		{
			"name":"Scene",
			"nodes":[
				8
			]
		}
	],
	"nodes":[
		{
			"mesh":0,
			"name":"Roof_FlatTiles_6x8_01-convcolonly"
		},
		{
			"mesh":1,
			"name":"Roof_FlatTiles_6x8_02-convcolonly"
		},
		{
			"mesh":2,
			"name":"Roof_FlatTiles_6x8_03-convcolonly"
		},
		{
			"mesh":3,
			"name":"Roof_FlatTiles_6x8_04-convcolonly"
		},
		{
			"mesh":4,
			"name":"Roof_FlatTiles_6x8_05-convcolonly"
		},
		{
			"mesh":5,
			"name":"Roof_FlatTiles_6x8_06-convcolonly"
		},
		{
			"mesh":6,
			"name":"Roof_FlatTiles_6x8_07-convcolonly"
		},
		{
			"mesh":7,
			"name":"Roof_FlatTiles_6x8_08-convcolonly"
		},
		{
			"children":[
				0,
				1,
				2,
				3,
				4,
				5,
				6,
				7
			],
			"mesh":8,
			"name":"Roof_FlatTiles_6x8"
		}
	],
	"materials":[
		{
			"doubleSided":true,
			"name":"Collision",
			"pbrMetallicRoughness":{
				"baseColorFactor":[
					0.05868536978960037,
					0.2907957136631012,
					0.8000074625015259,
					1
				],
				"metallicFactor":0,
				"roughnessFactor":0.5
			}
		},
		{
			"doubleSided":true,
			"name":"MI_FlatTiles",
			"normalTexture":{
				"index":0
			},
			"pbrMetallicRoughness":{
				"baseColorTexture":{
					"index":1
				},
				"metallicFactor":0,
				"metallicRoughnessTexture":{
					"index":2
				}
			}
		},
		{
			"doubleSided":true,
			"name":"MI_WoodTrim",
			"normalTexture":{
				"index":3
			},
			"pbrMetallicRoughness":{
				"baseColorTexture":{
					"index":4
				},
				"metallicFactor":0,
				"metallicRoughnessTexture":{
					"index":5
				}
			}
		},
		{
			"doubleSided":true,
			"name":"MI_RoundTiles",
			"normalTexture":{
				"index":6
			},
			"pbrMetallicRoughness":{
				"baseColorTexture":{
					"index":7
				},
				"metallicFactor":0,
				"metallicRoughnessTexture":{
					"index":8
				}
			}
		}
	],
	"meshes":[
		{
			"name":"Cube.1300",
			"primitives":[
				{
					"attributes":{
						"POSITION":0,
						"NORMAL":1,
						"TEXCOORD_0":2
					},
					"indices":3,
					"material":0
				}
			]
		},
		{
			"name":"Cube.1301",
			"primitives":[
				{
					"attributes":{
						"POSITION":4,
						"NORMAL":5,
						"TEXCOORD_0":6
					},
					"indices":7,
					"material":0
				}
			]
		},
		{
			"name":"Cube.1302",
			"primitives":[
				{
					"attributes":{
						"POSITION":8,
						"NORMAL":9,
						"TEXCOORD_0":10
					},
					"indices":11,
					"material":0
				}
			]
		},
		{
			"name":"Cube.1303",
			"primitives":[
				{
					"attributes":{
						"POSITION":12,
						"NORMAL":13,
						"TEXCOORD_0":14
					},
					"indices":15,
					"material":0
				}
			]
		},
		{
			"name":"Cube.1304",
			"primitives":[
				{
					"attributes":{
						"POSITION":16,
						"NORMAL":17,
						"TEXCOORD_0":18
					},
					"indices":19,
					"material":0
				}
			]
		},
		{
			"name":"Cube.1305",
			"primitives":[
				{
					"attributes":{
						"POSITION":20,
						"NORMAL":21,
						"TEXCOORD_0":22
					},
					"indices":23,
					"material":0
				}
			]
		},
		{
			"name":"Cube.1306",
			"primitives":[
				{
					"attributes":{
						"POSITION":24,
						"NORMAL":25,
						"TEXCOORD_0":26
					},
					"indices":27,
					"material":0
				}
			]
		},
		{
			"name":"Cube.1307",
			"primitives":[
				{
					"attributes":{
						"POSITION":28,
						"NORMAL":29,
						"TEXCOORD_0":30
					},
					"indices":31,
					"material":0
				}
			]
		},
		{
			"name":"Plane.003",
			"primitives":[
				{
					"attributes":{
						"POSITION":32,
						"NORMAL":33,
						"TEXCOORD_0":34,
						"TEXCOORD_1":35
					},
					"indices":36,
					"material":1
				},
				{
					"attributes":{
						"POSITION":37,
						"NORMAL":38,
						"TEXCOORD_0":39,
						"TEXCOORD_1":40
					},
					"indices":41,
					"material":2
				},
				{
					"attributes":{
						"POSITION":42,
						"NORMAL":43,
						"TEXCOORD_0":44,
						"TEXCOORD_1":45
					},
					"indices":46,
					"material":3
				}
			]
		}
	],
	"textures":[
		{
			"sampler":0,
			"source":0
		},
		{
			"sampler":0,
			"source":1
		},
		{
			"sampler":0,
			"source":2
		},
		{
			"sampler":0,
			"source":3
		},
		{
			"sampler":0,
			"source":4
		},
		{
			"sampler":0,
			"source":5
		},
		{
			"sampler":0,
			"source":6
		},
		{
			"sampler":0,
			"source":7
		},
		{
			"sampler":0,
			"source":8
		}
	],
	"images":[
		{
			"mimeType":"image/png",
			"name":"T_FlatTiles_Normal",
			"uri":"T_FlatTiles_Normal.png"
		},
		{
			"mimeType":"image/png",
			"name":"T_FlatTiles_BaseColor",
			"uri":"T_FlatTiles_BaseColor.png"
		},
		{
			"mimeType":"image/png",
			"name":"T_FlatTiles_Roughness",
			"uri":"T_FlatTiles_Roughness.png"
		},
		{
			"mimeType":"image/png",
			"name":"T_WoodTrim_Normal",
			"uri":"T_WoodTrim_Normal.png"
		},
		{
			"mimeType":"image/png",
			"name":"T_WoodTrim_BaseColor",
			"uri":"T_WoodTrim_BaseColor.png"
		},
		{
			"mimeType":"image/png",
			"name":"T_WoodTrim_Roughness",
			"uri":"T_WoodTrim_Roughness.png"
		},
		{
			"mimeType":"image/png",
			"name":"T_RoundTiles_Normal",
			"uri":"T_RoundTiles_Normal.png"
		},
		{
			"mimeType":"image/png",
			"name":"T_RoundTiles_BaseColor",
			"uri":"T_RoundTiles_BaseColor.png"
		},
		{
			"mimeType":"image/png",
			"name":"T_RoundTiles_Roughness",
			"uri":"T_RoundTiles_Roughness.png"
		}
	],
	"accessors":[
		{
			"bufferView":0,
			"componentType":5126,
			"count":36,
			"max":[
				0.37111249566078186,
				4.6174397468566895,
				3.704163074493408
			],
			"min":[
				-0.3539327085018158,
				4.201107025146484,
				-4.750152111053467
			],
			"type":"VEC3"
		},
		{
			"bufferView":1,
			"componentType":5126,
			"count":36,
			"type":"VEC3"
		},
		{
			"bufferView":2,
			"componentType":5126,
			"count":36,
			"type":"VEC2"
		},
		{
			"bufferView":3,
			"componentType":5123,
			"count":60,
			"type":"SCALAR"
		},
		{
			"bufferView":4,
			"componentType":5126,
			"count":36,
			"max":[
				0.34127336740493774,
				4.62345027923584,
				4.923637390136719
			],
			"min":[
				-0.3338979184627533,
				4.151626110076904,
				3.724350929260254
			],
			"type":"VEC3"
		},
		{
			"bufferView":5,
			"componentType":5126,
			"count":36,
			"type":"VEC3"
		},
		{
			"bufferView":6,
			"componentType":5126,
			"count":36,
			"type":"VEC2"
		},
		{
			"bufferView":7,
			"componentType":5123,
			"count":60,
			"type":"SCALAR"
		},
		{
			"bufferView":8,
			"componentType":5126,
			"count":24,
			"max":[
				0.0016677983803674579,
				4.40802001953125,
				4.8577165603637695
			],
			"min":[
				-1.6357425451278687,
				1.890415906906128,
				-4.91434383392334
			],
			"type":"VEC3"
		},
		{
			"bufferView":9,
			"componentType":5126,
			"count":24,
			"type":"VEC3"
		},
		{
			"bufferView":10,
			"componentType":5126,
			"count":24,
			"type":"VEC2"
		},
		{
			"bufferView":11,
			"componentType":5123,
			"count":36,
			"type":"SCALAR"
		},
		{
			"bufferView":12,
			"componentType":5126,
			"count":24,
			"max":[
				-2.4988667964935303,
				0.7994064688682556,
				4.857717990875244
			],
			"min":[
				-4.306371212005615,
				-0.8028310537338257,
				-4.914341926574707
			],
			"type":"VEC3"
		},
		{
			"bufferView":13,
			"componentType":5126,
			"count":24,
			"type":"VEC3"
		},
		{
			"bufferView":14,
			"componentType":5126,
			"count":24,
			"type":"VEC2"
		},
		{
			"bufferView":15,
			"componentType":5123,
			"count":36,
			"type":"SCALAR"
		},
		{
			"bufferView":16,
			"componentType":5126,
			"count":24,
			"max":[
				-1.4186744689941406,
				2.1887006759643555,
				4.857717514038086
			],
			"min":[
				-2.8325328826904297,
				0.4776805639266968,
				-4.914342880249023
			],
			"type":"VEC3"
		},
		{
			"bufferView":17,
			"componentType":5126,
			"count":24,
			"type":"VEC3"
		},
		{
			"bufferView":18,
			"componentType":5126,
			"count":24,
			"type":"VEC2"
		},
		{
			"bufferView":19,
			"componentType":5123,
			"count":36,
			"type":"SCALAR"
		},
		{
			"bufferView":20,
			"componentType":5126,
			"count":24,
			"max":[
				1.6357425451278687,
				4.40802001953125,
				4.857717514038086
			],
			"min":[
				-0.0016677983803674579,
				1.890415906906128,
				-4.914344787597656
			],
			"type":"VEC3"
		},
		{
			"bufferView":21,
			"componentType":5126,
			"count":24,
			"type":"VEC3"
		},
		{
			"bufferView":22,
			"componentType":5126,
			"count":24,
			"type":"VEC2"
		},
		{
			"bufferView":23,
			"componentType":5123,
			"count":36,
			"type":"SCALAR"
		},
		{
			"bufferView":24,
			"componentType":5126,
			"count":24,
			"max":[
				4.306371212005615,
				0.7994064688682556,
				4.8577189445495605
			],
			"min":[
				2.4988667964935303,
				-0.8028310537338257,
				-4.914343357086182
			],
			"type":"VEC3"
		},
		{
			"bufferView":25,
			"componentType":5126,
			"count":24,
			"type":"VEC3"
		},
		{
			"bufferView":26,
			"componentType":5126,
			"count":24,
			"type":"VEC2"
		},
		{
			"bufferView":27,
			"componentType":5123,
			"count":36,
			"type":"SCALAR"
		},
		{
			"bufferView":28,
			"componentType":5126,
			"count":24,
			"max":[
				2.8325328826904297,
				2.1887006759643555,
				4.8577189445495605
			],
			"min":[
				1.4186744689941406,
				0.4776805639266968,
				-4.914344310760498
			],
			"type":"VEC3"
		},
		{
			"bufferView":29,
			"componentType":5126,
			"count":24,
			"type":"VEC3"
		},
		{
			"bufferView":30,
			"componentType":5126,
			"count":24,
			"type":"VEC2"
		},
		{
			"bufferView":31,
			"componentType":5123,
			"count":36,
			"type":"SCALAR"
		},
		{
			"bufferView":32,
			"componentType":5126,
			"count":1392,
			"max":[
				4.359762191772461,
				4.514297962188721,
				4.850320339202881
			],
			"min":[
				-4.359762191772461,
				-0.9027731418609619,
				-4.828295707702637
			],
			"type":"VEC3"
		},
		{
			"bufferView":33,
			"componentType":5126,
			"count":1392,
			"type":"VEC3"
		},
		{
			"bufferView":34,
			"componentType":5126,
			"count":1392,
			"type":"VEC2"
		},
		{
			"bufferView":35,
			"componentType":5126,
			"count":1392,
			"type":"VEC2"
		},
		{
			"bufferView":36,
			"componentType":5123,
			"count":4620,
			"type":"SCALAR"
		},
		{
			"bufferView":37,
			"componentType":5126,
			"count":1752,
			"max":[
				3.958950996398926,
				4.342607021331787,
				4.85014009475708
			],
			"min":[
				-3.958950996398926,
				-0.7821268439292908,
				-4.8360066413879395
			],
			"type":"VEC3"
		},
		{
			"bufferView":38,
			"componentType":5126,
			"count":1752,
			"type":"VEC3"
		},
		{
			"bufferView":39,
			"componentType":5126,
			"count":1752,
			"type":"VEC2"
		},
		{
			"bufferView":40,
			"componentType":5126,
			"count":1752,
			"type":"VEC2"
		},
		{
			"bufferView":41,
			"componentType":5123,
			"count":3048,
			"type":"SCALAR"
		},
		{
			"bufferView":42,
			"componentType":5126,
			"count":960,
			"max":[
				0.33671000599861145,
				4.655920505523682,
				4.941406726837158
			],
			"min":[
				-0.3384547531604767,
				4.141334056854248,
				-4.782817840576172
			],
			"type":"VEC3"
		},
		{
			"bufferView":43,
			"componentType":5126,
			"count":960,
			"type":"VEC3"
		},
		{
			"bufferView":44,
			"componentType":5126,
			"count":960,
			"type":"VEC2"
		},
		{
			"bufferView":45,
			"componentType":5126,
			"count":960,
			"type":"VEC2"
		},
		{
			"bufferView":46,
			"componentType":5123,
			"count":2448,
			"type":"SCALAR"
		}
	],
	"bufferViews":[
		{
			"buffer":0,
			"byteLength":432,
			"byteOffset":0,
			"target":34962
		},
		{
			"buffer":0,
			"byteLength":432,
			"byteOffset":432,
			"target":34962
		},
		{
			"buffer":0,
			"byteLength":288,
			"byteOffset":864,
			"target":34962
		},
		{
			"buffer":0,
			"byteLength":120,
			"byteOffset":1152,
			"target":34963
		},
		{
			"buffer":0,
			"byteLength":432,
			"byteOffset":1272,
			"target":34962
		},
		{
			"buffer":0,
			"byteLength":432,
			"byteOffset":1704,
			"target":34962
		},
		{
			"buffer":0,
			"byteLength":288,
			"byteOffset":2136,
			"target":34962
		},
		{
			"buffer":0,
			"byteLength":120,
			"byteOffset":2424,
			"target":34963
		},
		{
			"buffer":0,
			"byteLength":288,
			"byteOffset":2544,
			"target":34962
		},
		{
			"buffer":0,
			"byteLength":288,
			"byteOffset":2832,
			"target":34962
		},
		{
			"buffer":0,
			"byteLength":192,
			"byteOffset":3120,
			"target":34962
		},
		{
			"buffer":0,
			"byteLength":72,
			"byteOffset":3312,
			"target":34963
		},
		{
			"buffer":0,
			"byteLength":288,
			"byteOffset":3384,
			"target":34962
		},
		{
			"buffer":0,
			"byteLength":288,
			"byteOffset":3672,
			"target":34962
		},
		{
			"buffer":0,
			"byteLength":192,
			"byteOffset":3960,
			"target":34962
		},
		{
			"buffer":0,
			"byteLength":72,
			"byteOffset":4152,
			"target":34963
		},
		{
			"buffer":0,
			"byteLength":288,
			"byteOffset":4224,
			"target":34962
		},
		{
			"buffer":0,
			"byteLength":288,
			"byteOffset":4512,
			"target":34962
		},
		{
			"buffer":0,
			"byteLength":192,
			"byteOffset":4800,
			"target":34962
		},
		{
			"buffer":0,
			"byteLength":72,
			"byteOffset":4992,
			"target":34963
		},
		{
			"buffer":0,
			"byteLength":288,
			"byteOffset":5064,
			"target":34962
		},
		{
			"buffer":0,
			"byteLength":288,
			"byteOffset":5352,
			"target":34962
		},
		{
			"buffer":0,
			"byteLength":192,
			"byteOffset":5640,
			"target":34962
		},
		{
			"buffer":0,
			"byteLength":72,
			"byteOffset":5832,
			"target":34963
		},
		{
			"buffer":0,
			"byteLength":288,
			"byteOffset":5904,
			"target":34962
		},
		{
			"buffer":0,
			"byteLength":288,
			"byteOffset":6192,
			"target":34962
		},
		{
			"buffer":0,
			"byteLength":192,
			"byteOffset":6480,
			"target":34962
		},
		{
			"buffer":0,
			"byteLength":72,
			"byteOffset":6672,
			"target":34963
		},
		{
			"buffer":0,
			"byteLength":288,
			"byteOffset":6744,
			"target":34962
		},
		{
			"buffer":0,
			"byteLength":288,
			"byteOffset":7032,
			"target":34962
		},
		{
			"buffer":0,
			"byteLength":192,
			"byteOffset":7320,
			"target":34962
		},
		{
			"buffer":0,
			"byteLength":72,
			"byteOffset":7512,
			"target":34963
		},
		{
			"buffer":0,
			"byteLength":16704,
			"byteOffset":7584,
			"target":34962
		},
		{
			"buffer":0,
			"byteLength":16704,
			"byteOffset":24288,
			"target":34962
		},
		{
			"buffer":0,
			"byteLength":11136,
			"byteOffset":40992,
			"target":34962
		},
		{
			"buffer":0,
			"byteLength":11136,
			"byteOffset":52128,
			"target":34962
		},
		{
			"buffer":0,
			"byteLength":9240,
			"byteOffset":63264,
			"target":34963
		},
		{
			"buffer":0,
			"byteLength":21024,
			"byteOffset":72504,
			"target":34962
		},
		{
			"buffer":0,
			"byteLength":21024,
			"byteOffset":93528,
			"target":34962
		},
		{
			"buffer":0,
			"byteLength":14016,
			"byteOffset":114552,
			"target":34962
		},
		{
			"buffer":0,
			"byteLength":14016,
			"byteOffset":128568,
			"target":34962
		},
		{
			"buffer":0,
			"byteLength":6096,
			"byteOffset":142584,
			"target":34963
		},
		{
			"buffer":0,
			"byteLength":11520,
			"byteOffset":148680,
			"target":34962
		},
		{
			"buffer":0,
			"byteLength":11520,
			"byteOffset":160200,
			"target":34962
		},
		{
			"buffer":0,
			"byteLength":7680,
			"byteOffset":171720,
			"target":34962
		},
		{
			"buffer":0,
			"byteLength":7680,
			"byteOffset":179400,
			"target":34962
		},
		{
			"buffer":0,
			"byteLength":4896,
			"byteOffset":187080,
			"target":34963
		}
	],
	"samplers":[
		{
			"magFilter":9729,
			"minFilter":9987
		}
	],
	"buffers":[
		{
			"byteLength":191976,
			"uri":"Roof_FlatTiles_6x8.bin"
		}
	]
}
