{
	"asset":{
		"generator":"Khronos glTF Blender I/O v4.0.44",
		"version":"2.0"
	},
	"scene":0,
	"scenes":[
		{
			"name":"Scene",
			"nodes":[
				4
			]
		}
	],
	"nodes":[
		{
			"mesh":0,
			"name":"Roof_2x4_FlatTile_1-convcolonly"
		},
		{
			"mesh":1,
			"name":"Roof_2x4_FlatTile_2-convcolonly"
		},
		{
			"mesh":2,
			"name":"Roof_2x4_FlatTile_3-convcolonly"
		},
		{
			"mesh":3,
			"name":"Roof_2x4_FlatTile_4-convcolonly"
		},
		{
			"children":[
				0,
				1,
				2,
				3
			],
			"mesh":4,
			"name":"Roof_2x4_FlatTile"
		}
	],
	"materials":[
		{
			"doubleSided":true,
			"name":"Collision",
			"pbrMetallicRoughness":{
				"baseColorFactor":[
					0.05868536978960037,
					0.2907957136631012,
					0.8000074625015259,
					1
				],
				"metallicFactor":0,
				"roughnessFactor":0.5
			}
		},
		{
			"doubleSided":true,
			"name":"MI_WoodTrim",
			"normalTexture":{
				"index":0
			},
			"pbrMetallicRoughness":{
				"baseColorTexture":{
					"index":1
				},
				"metallicFactor":0,
				"metallicRoughnessTexture":{
					"index":2
				}
			}
		},
		{
			"doubleSided":true,
			"name":"MI_RoundTiles",
			"normalTexture":{
				"index":3
			},
			"pbrMetallicRoughness":{
				"baseColorTexture":{
					"index":4
				},
				"metallicFactor":0,
				"metallicRoughnessTexture":{
					"index":5
				}
			}
		},
		{
			"doubleSided":true,
			"name":"MI_FlatTiles",
			"normalTexture":{
				"index":6
			},
			"pbrMetallicRoughness":{
				"baseColorTexture":{
					"index":7
				},
				"metallicFactor":0,
				"metallicRoughnessTexture":{
					"index":8
				}
			}
		}
	],
	"meshes":[
		{
			"name":"Cube.1043",
			"primitives":[
				{
					"attributes":{
						"POSITION":0,
						"NORMAL":1,
						"TEXCOORD_0":2
					},
					"indices":3,
					"material":0
				}
			]
		},
		{
			"name":"Cube.1044",
			"primitives":[
				{
					"attributes":{
						"POSITION":4,
						"NORMAL":5,
						"TEXCOORD_0":6
					},
					"indices":7,
					"material":0
				}
			]
		},
		{
			"name":"Cube.1045",
			"primitives":[
				{
					"attributes":{
						"POSITION":8,
						"NORMAL":9,
						"TEXCOORD_0":10
					},
					"indices":11,
					"material":0
				}
			]
		},
		{
			"name":"Cube.1046",
			"primitives":[
				{
					"attributes":{
						"POSITION":12,
						"NORMAL":13,
						"TEXCOORD_0":14
					},
					"indices":15,
					"material":0
				}
			]
		},
		{
			"name":"Cube.041",
			"primitives":[
				{
					"attributes":{
						"POSITION":16,
						"NORMAL":17,
						"TEXCOORD_0":18,
						"TEXCOORD_1":19
					},
					"indices":20,
					"material":1
				},
				{
					"attributes":{
						"POSITION":21,
						"NORMAL":22,
						"TEXCOORD_0":23,
						"TEXCOORD_1":24
					},
					"indices":25,
					"material":2
				},
				{
					"attributes":{
						"POSITION":26,
						"NORMAL":27,
						"TEXCOORD_0":28,
						"TEXCOORD_1":29
					},
					"indices":30,
					"material":3
				}
			]
		}
	],
	"textures":[
		{
			"sampler":0,
			"source":0
		},
		{
			"sampler":0,
			"source":1
		},
		{
			"sampler":0,
			"source":2
		},
		{
			"sampler":0,
			"source":3
		},
		{
			"sampler":0,
			"source":4
		},
		{
			"sampler":0,
			"source":5
		},
		{
			"sampler":0,
			"source":6
		},
		{
			"sampler":0,
			"source":7
		},
		{
			"sampler":0,
			"source":8
		}
	],
	"images":[
		{
			"mimeType":"image/png",
			"name":"T_WoodTrim_Normal",
			"uri":"T_WoodTrim_Normal.png"
		},
		{
			"mimeType":"image/png",
			"name":"T_WoodTrim_BaseColor",
			"uri":"T_WoodTrim_BaseColor.png"
		},
		{
			"mimeType":"image/png",
			"name":"T_WoodTrim_Roughness",
			"uri":"T_WoodTrim_Roughness.png"
		},
		{
			"mimeType":"image/png",
			"name":"T_RoundTiles_Normal",
			"uri":"T_RoundTiles_Normal.png"
		},
		{
			"mimeType":"image/png",
			"name":"T_RoundTiles_BaseColor",
			"uri":"T_RoundTiles_BaseColor.png"
		},
		{
			"mimeType":"image/png",
			"name":"T_RoundTiles_Roughness",
			"uri":"T_RoundTiles_Roughness.png"
		},
		{
			"mimeType":"image/png",
			"name":"T_FlatTiles_Normal",
			"uri":"T_FlatTiles_Normal.png"
		},
		{
			"mimeType":"image/png",
			"name":"T_FlatTiles_BaseColor",
			"uri":"T_FlatTiles_BaseColor.png"
		},
		{
			"mimeType":"image/png",
			"name":"T_FlatTiles_Roughness",
			"uri":"T_FlatTiles_Roughness.png"
		}
	],
	"accessors":[
		{
			"bufferView":0,
			"componentType":5126,
			"count":24,
			"max":[
				0.0016666725277900696,
				2.0116212368011475,
				2.0005340576171875
			],
			"min":[
				-1.5640146732330322,
				-0.35128381848335266,
				-1.9685170650482178
			],
			"type":"VEC3"
		},
		{
			"bufferView":1,
			"componentType":5126,
			"count":24,
			"type":"VEC3"
		},
		{
			"bufferView":2,
			"componentType":5126,
			"count":24,
			"type":"VEC2"
		},
		{
			"bufferView":3,
			"componentType":5123,
			"count":36,
			"type":"SCALAR"
		},
		{
			"bufferView":4,
			"componentType":5126,
			"count":24,
			"max":[
				1.5640146732330322,
				2.0116212368011475,
				2.0005340576171875
			],
			"min":[
				-0.0016666725277900696,
				-0.35128381848335266,
				-1.9685170650482178
			],
			"type":"VEC3"
		},
		{
			"bufferView":5,
			"componentType":5126,
			"count":24,
			"type":"VEC3"
		},
		{
			"bufferView":6,
			"componentType":5126,
			"count":24,
			"type":"VEC2"
		},
		{
			"bufferView":7,
			"componentType":5123,
			"count":36,
			"type":"SCALAR"
		},
		{
			"bufferView":8,
			"componentType":5126,
			"count":36,
			"max":[
				0.35393303632736206,
				2.2814693450927734,
				2.070355176925659
			],
			"min":[
				-0.3613075017929077,
				1.8950133323669434,
				-0.9661577939987183
			],
			"type":"VEC3"
		},
		{
			"bufferView":9,
			"componentType":5126,
			"count":36,
			"type":"VEC3"
		},
		{
			"bufferView":10,
			"componentType":5126,
			"count":36,
			"type":"VEC2"
		},
		{
			"bufferView":11,
			"componentType":5123,
			"count":60,
			"type":"SCALAR"
		},
		{
			"bufferView":12,
			"componentType":5126,
			"count":24,
			"max":[
				0.32039210200309753,
				2.2814693450927734,
				-0.9661577939987183
			],
			"min":[
				-0.3277665674686432,
				1.8285218477249146,
				-2.1174631118774414
			],
			"type":"VEC3"
		},
		{
			"bufferView":13,
			"componentType":5126,
			"count":24,
			"type":"VEC3"
		},
		{
			"bufferView":14,
			"componentType":5126,
			"count":24,
			"type":"VEC2"
		},
		{
			"bufferView":15,
			"componentType":5123,
			"count":36,
			"type":"SCALAR"
		},
		{
			"bufferView":16,
			"componentType":5126,
			"count":472,
			"max":[
				1.5365829467773438,
				1.903069019317627,
				2.000000238418579
			],
			"min":[
				-1.5365829467773438,
				-0.3415522575378418,
				-2.000000238418579
			],
			"type":"VEC3"
		},
		{
			"bufferView":17,
			"componentType":5126,
			"count":472,
			"type":"VEC3"
		},
		{
			"bufferView":18,
			"componentType":5126,
			"count":472,
			"type":"VEC2"
		},
		{
			"bufferView":19,
			"componentType":5126,
			"count":472,
			"type":"VEC2"
		},
		{
			"bufferView":20,
			"componentType":5123,
			"count":840,
			"type":"SCALAR"
		},
		{
			"bufferView":21,
			"componentType":5126,
			"count":400,
			"max":[
				0.3307531774044037,
				2.3241586685180664,
				2.1076807975769043
			],
			"min":[
				-0.33246704936027527,
				1.8186759948730469,
				-2.124508857727051
			],
			"type":"VEC3"
		},
		{
			"bufferView":22,
			"componentType":5126,
			"count":400,
			"type":"VEC3"
		},
		{
			"bufferView":23,
			"componentType":5126,
			"count":400,
			"type":"VEC2"
		},
		{
			"bufferView":24,
			"componentType":5126,
			"count":400,
			"type":"VEC2"
		},
		{
			"bufferView":25,
			"componentType":5123,
			"count":1020,
			"type":"SCALAR"
		},
		{
			"bufferView":26,
			"componentType":5126,
			"count":326,
			"max":[
				1.5432379245758057,
				1.9350996017456055,
				1.9983386993408203
			],
			"min":[
				-1.5432379245758057,
				-0.21261566877365112,
				-1.9673463106155396
			],
			"type":"VEC3"
		},
		{
			"bufferView":27,
			"componentType":5126,
			"count":326,
			"type":"VEC3"
		},
		{
			"bufferView":28,
			"componentType":5126,
			"count":326,
			"type":"VEC2"
		},
		{
			"bufferView":29,
			"componentType":5126,
			"count":326,
			"type":"VEC2"
		},
		{
			"bufferView":30,
			"componentType":5123,
			"count":1008,
			"type":"SCALAR"
		}
	],
	"bufferViews":[
		{
			"buffer":0,
			"byteLength":288,
			"byteOffset":0,
			"target":34962
		},
		{
			"buffer":0,
			"byteLength":288,
			"byteOffset":288,
			"target":34962
		},
		{
			"buffer":0,
			"byteLength":192,
			"byteOffset":576,
			"target":34962
		},
		{
			"buffer":0,
			"byteLength":72,
			"byteOffset":768,
			"target":34963
		},
		{
			"buffer":0,
			"byteLength":288,
			"byteOffset":840,
			"target":34962
		},
		{
			"buffer":0,
			"byteLength":288,
			"byteOffset":1128,
			"target":34962
		},
		{
			"buffer":0,
			"byteLength":192,
			"byteOffset":1416,
			"target":34962
		},
		{
			"buffer":0,
			"byteLength":72,
			"byteOffset":1608,
			"target":34963
		},
		{
			"buffer":0,
			"byteLength":432,
			"byteOffset":1680,
			"target":34962
		},
		{
			"buffer":0,
			"byteLength":432,
			"byteOffset":2112,
			"target":34962
		},
		{
			"buffer":0,
			"byteLength":288,
			"byteOffset":2544,
			"target":34962
		},
		{
			"buffer":0,
			"byteLength":120,
			"byteOffset":2832,
			"target":34963
		},
		{
			"buffer":0,
			"byteLength":288,
			"byteOffset":2952,
			"target":34962
		},
		{
			"buffer":0,
			"byteLength":288,
			"byteOffset":3240,
			"target":34962
		},
		{
			"buffer":0,
			"byteLength":192,
			"byteOffset":3528,
			"target":34962
		},
		{
			"buffer":0,
			"byteLength":72,
			"byteOffset":3720,
			"target":34963
		},
		{
			"buffer":0,
			"byteLength":5664,
			"byteOffset":3792,
			"target":34962
		},
		{
			"buffer":0,
			"byteLength":5664,
			"byteOffset":9456,
			"target":34962
		},
		{
			"buffer":0,
			"byteLength":3776,
			"byteOffset":15120,
			"target":34962
		},
		{
			"buffer":0,
			"byteLength":3776,
			"byteOffset":18896,
			"target":34962
		},
		{
			"buffer":0,
			"byteLength":1680,
			"byteOffset":22672,
			"target":34963
		},
		{
			"buffer":0,
			"byteLength":4800,
			"byteOffset":24352,
			"target":34962
		},
		{
			"buffer":0,
			"byteLength":4800,
			"byteOffset":29152,
			"target":34962
		},
		{
			"buffer":0,
			"byteLength":3200,
			"byteOffset":33952,
			"target":34962
		},
		{
			"buffer":0,
			"byteLength":3200,
			"byteOffset":37152,
			"target":34962
		},
		{
			"buffer":0,
			"byteLength":2040,
			"byteOffset":40352,
			"target":34963
		},
		{
			"buffer":0,
			"byteLength":3912,
			"byteOffset":42392,
			"target":34962
		},
		{
			"buffer":0,
			"byteLength":3912,
			"byteOffset":46304,
			"target":34962
		},
		{
			"buffer":0,
			"byteLength":2608,
			"byteOffset":50216,
			"target":34962
		},
		{
			"buffer":0,
			"byteLength":2608,
			"byteOffset":52824,
			"target":34962
		},
		{
			"buffer":0,
			"byteLength":2016,
			"byteOffset":55432,
			"target":34963
		}
	],
	"samplers":[
		{
			"magFilter":9729,
			"minFilter":9987
		}
	],
	"buffers":[
		{
			"byteLength":57448,
			"uri":"Roof_2x4_FlatTile.bin"
		}
	]
}
