{
	"asset":{
		"generator":"Khronos glTF Blender I/O v4.0.44",
		"version":"2.0"
	},
	"scene":0,
	"scenes":[
		{
			"name":"Scene",
			"nodes":[
				10
			]
		}
	],
	"nodes":[
		{
			"mesh":0,
			"name":"Roof_Modular_RoundTiles_8_L_01-convcolonly"
		},
		{
			"mesh":1,
			"name":"Roof_Modular_RoundTiles_8_L_02-convcolonly"
		},
		{
			"mesh":2,
			"name":"Roof_Modular_RoundTiles_8_L_03-convcolonly"
		},
		{
			"mesh":3,
			"name":"Roof_Modular_RoundTiles_8_L_04-convcolonly"
		},
		{
			"mesh":4,
			"name":"Roof_Modular_RoundTiles_8_L_05-convcolonly"
		},
		{
			"mesh":5,
			"name":"Roof_Modular_RoundTiles_8_L_06-convcolonly"
		},
		{
			"mesh":6,
			"name":"Roof_Modular_RoundTiles_8_L_07-convcolonly"
		},
		{
			"mesh":7,
			"name":"Roof_Modular_RoundTiles_8_L_08-convcolonly"
		},
		{
			"mesh":8,
			"name":"Roof_Modular_RoundTiles_8_L_09-convcolonly"
		},
		{
			"mesh":9,
			"name":"Roof_Modular_RoundTiles_8_L_10-convcolonly"
		},
		{
			"children":[
				0,
				1,
				2,
				3,
				4,
				5,
				6,
				7,
				8,
				9
			],
			"mesh":10,
			"name":"Roof_Modular_RoundTiles_8_L"
		}
	],
	"materials":[
		{
			"doubleSided":true,
			"name":"Collision",
			"pbrMetallicRoughness":{
				"baseColorFactor":[
					0.05868536978960037,
					0.2907957136631012,
					0.8000074625015259,
					1
				],
				"metallicFactor":0,
				"roughnessFactor":0.5
			}
		},
		{
			"doubleSided":true,
			"name":"MI_WoodTrim",
			"normalTexture":{
				"index":0
			},
			"pbrMetallicRoughness":{
				"baseColorTexture":{
					"index":1
				},
				"metallicFactor":0,
				"metallicRoughnessTexture":{
					"index":2
				}
			}
		},
		{
			"doubleSided":true,
			"name":"MI_RoundTiles",
			"normalTexture":{
				"index":3
			},
			"pbrMetallicRoughness":{
				"baseColorTexture":{
					"index":4
				},
				"metallicFactor":0,
				"metallicRoughnessTexture":{
					"index":5
				}
			}
		}
	],
	"meshes":[
		{
			"name":"Cube.464",
			"primitives":[
				{
					"attributes":{
						"POSITION":0,
						"NORMAL":1,
						"TEXCOORD_0":2
					},
					"indices":3,
					"material":0
				}
			]
		},
		{
			"name":"Cube.465",
			"primitives":[
				{
					"attributes":{
						"POSITION":4,
						"NORMAL":5,
						"TEXCOORD_0":6
					},
					"indices":7,
					"material":0
				}
			]
		},
		{
			"name":"Cube.497",
			"primitives":[
				{
					"attributes":{
						"POSITION":8,
						"NORMAL":9,
						"TEXCOORD_0":10
					},
					"indices":11,
					"material":0
				}
			]
		},
		{
			"name":"Cube.498",
			"primitives":[
				{
					"attributes":{
						"POSITION":12,
						"NORMAL":13,
						"TEXCOORD_0":14
					},
					"indices":15,
					"material":0
				}
			]
		},
		{
			"name":"Cube.499",
			"primitives":[
				{
					"attributes":{
						"POSITION":16,
						"NORMAL":17,
						"TEXCOORD_0":18
					},
					"indices":19,
					"material":0
				}
			]
		},
		{
			"name":"Cube.500",
			"primitives":[
				{
					"attributes":{
						"POSITION":20,
						"NORMAL":21,
						"TEXCOORD_0":22
					},
					"indices":23,
					"material":0
				}
			]
		},
		{
			"name":"Cube.501",
			"primitives":[
				{
					"attributes":{
						"POSITION":24,
						"NORMAL":25,
						"TEXCOORD_0":26
					},
					"indices":27,
					"material":0
				}
			]
		},
		{
			"name":"Cube.502",
			"primitives":[
				{
					"attributes":{
						"POSITION":28,
						"NORMAL":29,
						"TEXCOORD_0":30
					},
					"indices":31,
					"material":0
				}
			]
		},
		{
			"name":"Cube.726",
			"primitives":[
				{
					"attributes":{
						"POSITION":32,
						"NORMAL":33,
						"TEXCOORD_0":34
					},
					"indices":35,
					"material":0
				}
			]
		},
		{
			"name":"Cube.727",
			"primitives":[
				{
					"attributes":{
						"POSITION":36,
						"NORMAL":37,
						"TEXCOORD_0":38
					},
					"indices":39,
					"material":0
				}
			]
		},
		{
			"name":"Cube.146",
			"primitives":[
				{
					"attributes":{
						"POSITION":40,
						"NORMAL":41,
						"TEXCOORD_0":42,
						"TEXCOORD_1":43
					},
					"indices":44,
					"material":1
				},
				{
					"attributes":{
						"POSITION":45,
						"NORMAL":46,
						"TEXCOORD_0":47,
						"TEXCOORD_1":48
					},
					"indices":49,
					"material":2
				}
			]
		}
	],
	"textures":[
		{
			"sampler":0,
			"source":0
		},
		{
			"sampler":0,
			"source":1
		},
		{
			"sampler":0,
			"source":2
		},
		{
			"sampler":0,
			"source":3
		},
		{
			"sampler":0,
			"source":4
		},
		{
			"sampler":0,
			"source":5
		}
	],
	"images":[
		{
			"mimeType":"image/png",
			"name":"T_WoodTrim_Normal",
			"uri":"T_WoodTrim_Normal.png"
		},
		{
			"mimeType":"image/png",
			"name":"T_WoodTrim_BaseColor",
			"uri":"T_WoodTrim_BaseColor.png"
		},
		{
			"mimeType":"image/png",
			"name":"T_WoodTrim_Roughness",
			"uri":"T_WoodTrim_Roughness.png"
		},
		{
			"mimeType":"image/png",
			"name":"T_RoundTiles_Normal",
			"uri":"T_RoundTiles_Normal.png"
		},
		{
			"mimeType":"image/png",
			"name":"T_RoundTiles_BaseColor",
			"uri":"T_RoundTiles_BaseColor.png"
		},
		{
			"mimeType":"image/png",
			"name":"T_RoundTiles_Roughness",
			"uri":"T_RoundTiles_Roughness.png"
		}
	],
	"accessors":[
		{
			"bufferView":0,
			"componentType":5126,
			"count":24,
			"max":[
				2.8325328826904297,
				3.4929065704345703,
				0.9837334752082825
			],
			"min":[
				1.4186744689941406,
				1.7702951431274414,
				-1.0000033378601074
			],
			"type":"VEC3"
		},
		{
			"bufferView":1,
			"componentType":5126,
			"count":24,
			"type":"VEC3"
		},
		{
			"bufferView":2,
			"componentType":5126,
			"count":24,
			"type":"VEC2"
		},
		{
			"bufferView":3,
			"componentType":5123,
			"count":36,
			"type":"SCALAR"
		},
		{
			"bufferView":4,
			"componentType":5126,
			"count":36,
			"max":[
				0.37111249566078186,
				6.0826239585876465,
				1.0545501708984375
			],
			"min":[
				-0.3539327085018158,
				5.53132963180542,
				-0.24673819541931152
			],
			"type":"VEC3"
		},
		{
			"bufferView":5,
			"componentType":5126,
			"count":36,
			"type":"VEC3"
		},
		{
			"bufferView":6,
			"componentType":5126,
			"count":36,
			"type":"VEC2"
		},
		{
			"bufferView":7,
			"componentType":5123,
			"count":60,
			"type":"SCALAR"
		},
		{
			"bufferView":8,
			"componentType":5126,
			"count":24,
			"max":[
				0.0016677983803674579,
				5.862739086151123,
				0.9837306141853333
			],
			"min":[
				-1.7295626401901245,
				3.1537108421325684,
				-1.000002384185791
			],
			"type":"VEC3"
		},
		{
			"bufferView":9,
			"componentType":5126,
			"count":24,
			"type":"VEC3"
		},
		{
			"bufferView":10,
			"componentType":5126,
			"count":24,
			"type":"VEC2"
		},
		{
			"bufferView":11,
			"componentType":5123,
			"count":36,
			"type":"SCALAR"
		},
		{
			"bufferView":12,
			"componentType":5126,
			"count":24,
			"max":[
				-2.4988667964935303,
				2.062701463699341,
				0.9837320446968079
			],
			"min":[
				-3.9342260360717773,
				0.40049147605895996,
				-1.0000004768371582
			],
			"type":"VEC3"
		},
		{
			"bufferView":13,
			"componentType":5126,
			"count":24,
			"type":"VEC3"
		},
		{
			"bufferView":14,
			"componentType":5126,
			"count":24,
			"type":"VEC2"
		},
		{
			"bufferView":15,
			"componentType":5123,
			"count":36,
			"type":"SCALAR"
		},
		{
			"bufferView":16,
			"componentType":5126,
			"count":24,
			"max":[
				-1.4186744689941406,
				3.4929065704345703,
				0.9837320446968079
			],
			"min":[
				-2.8325328826904297,
				1.7702951431274414,
				-1.0000009536743164
			],
			"type":"VEC3"
		},
		{
			"bufferView":17,
			"componentType":5126,
			"count":24,
			"type":"VEC3"
		},
		{
			"bufferView":18,
			"componentType":5126,
			"count":24,
			"type":"VEC2"
		},
		{
			"bufferView":19,
			"componentType":5123,
			"count":36,
			"type":"SCALAR"
		},
		{
			"bufferView":20,
			"componentType":5126,
			"count":24,
			"max":[
				1.7295626401901245,
				5.862739086151123,
				0.9837320446968079
			],
			"min":[
				-0.0016677983803674579,
				3.1537108421325684,
				-1.0000038146972656
			],
			"type":"VEC3"
		},
		{
			"bufferView":21,
			"componentType":5126,
			"count":24,
			"type":"VEC3"
		},
		{
			"bufferView":22,
			"componentType":5126,
			"count":24,
			"type":"VEC2"
		},
		{
			"bufferView":23,
			"componentType":5123,
			"count":36,
			"type":"SCALAR"
		},
		{
			"bufferView":24,
			"componentType":5126,
			"count":24,
			"max":[
				3.8297677040100098,
				2.062701463699341,
				0.9837334752082825
			],
			"min":[
				2.4988667964935303,
				0.5041204690933228,
				-1.000002384185791
			],
			"type":"VEC3"
		},
		{
			"bufferView":25,
			"componentType":5126,
			"count":24,
			"type":"VEC3"
		},
		{
			"bufferView":26,
			"componentType":5126,
			"count":24,
			"type":"VEC2"
		},
		{
			"bufferView":27,
			"componentType":5123,
			"count":36,
			"type":"SCALAR"
		},
		{
			"bufferView":28,
			"componentType":5126,
			"count":24,
			"max":[
				-3.6882472038269043,
				0.7426286339759827,
				0.9837325215339661
			],
			"min":[
				-4.969596862792969,
				-0.7371832132339478,
				-1.0000004768371582
			],
			"type":"VEC3"
		},
		{
			"bufferView":29,
			"componentType":5126,
			"count":24,
			"type":"VEC3"
		},
		{
			"bufferView":30,
			"componentType":5126,
			"count":24,
			"type":"VEC2"
		},
		{
			"bufferView":31,
			"componentType":5123,
			"count":36,
			"type":"SCALAR"
		},
		{
			"bufferView":32,
			"componentType":5126,
			"count":24,
			"max":[
				4.98617696762085,
				0.8497354984283447,
				0.9837334752082825
			],
			"min":[
				3.5638926029205322,
				-0.7620542049407959,
				-1.0000014305114746
			],
			"type":"VEC3"
		},
		{
			"bufferView":33,
			"componentType":5126,
			"count":24,
			"type":"VEC3"
		},
		{
			"bufferView":34,
			"componentType":5126,
			"count":24,
			"type":"VEC2"
		},
		{
			"bufferView":35,
			"componentType":5123,
			"count":36,
			"type":"SCALAR"
		},
		{
			"bufferView":36,
			"componentType":5126,
			"count":36,
			"max":[
				0.37111249566078186,
				6.0826239585876465,
				0.09889233112335205
			],
			"min":[
				-0.3539327085018158,
				5.53132963180542,
				-1.2023959159851074
			],
			"type":"VEC3"
		},
		{
			"bufferView":37,
			"componentType":5126,
			"count":36,
			"type":"VEC3"
		},
		{
			"bufferView":38,
			"componentType":5126,
			"count":36,
			"type":"VEC2"
		},
		{
			"bufferView":39,
			"componentType":5123,
			"count":60,
			"type":"SCALAR"
		},
		{
			"bufferView":40,
			"componentType":5126,
			"count":538,
			"max":[
				4.901004791259766,
				5.555031776428223,
				0.9787100553512573
			],
			"min":[
				-4.901004791259766,
				-0.7534207701683044,
				-0.9999997615814209
			],
			"type":"VEC3"
		},
		{
			"bufferView":41,
			"componentType":5126,
			"count":538,
			"type":"VEC3"
		},
		{
			"bufferView":42,
			"componentType":5126,
			"count":538,
			"type":"VEC2"
		},
		{
			"bufferView":43,
			"componentType":5126,
			"count":538,
			"type":"VEC2"
		},
		{
			"bufferView":44,
			"componentType":5123,
			"count":948,
			"type":"SCALAR"
		},
		{
			"bufferView":45,
			"componentType":5126,
			"count":544,
			"max":[
				5.063900947570801,
				6.102469444274902,
				1.045536756515503
			],
			"min":[
				-5.063900947570801,
				-0.6048029065132141,
				-1.2061223983764648
			],
			"type":"VEC3"
		},
		{
			"bufferView":46,
			"componentType":5126,
			"count":544,
			"type":"VEC3"
		},
		{
			"bufferView":47,
			"componentType":5126,
			"count":544,
			"type":"VEC2"
		},
		{
			"bufferView":48,
			"componentType":5126,
			"count":544,
			"type":"VEC2"
		},
		{
			"bufferView":49,
			"componentType":5123,
			"count":1842,
			"type":"SCALAR"
		}
	],
	"bufferViews":[
		{
			"buffer":0,
			"byteLength":288,
			"byteOffset":0,
			"target":34962
		},
		{
			"buffer":0,
			"byteLength":288,
			"byteOffset":288,
			"target":34962
		},
		{
			"buffer":0,
			"byteLength":192,
			"byteOffset":576,
			"target":34962
		},
		{
			"buffer":0,
			"byteLength":72,
			"byteOffset":768,
			"target":34963
		},
		{
			"buffer":0,
			"byteLength":432,
			"byteOffset":840,
			"target":34962
		},
		{
			"buffer":0,
			"byteLength":432,
			"byteOffset":1272,
			"target":34962
		},
		{
			"buffer":0,
			"byteLength":288,
			"byteOffset":1704,
			"target":34962
		},
		{
			"buffer":0,
			"byteLength":120,
			"byteOffset":1992,
			"target":34963
		},
		{
			"buffer":0,
			"byteLength":288,
			"byteOffset":2112,
			"target":34962
		},
		{
			"buffer":0,
			"byteLength":288,
			"byteOffset":2400,
			"target":34962
		},
		{
			"buffer":0,
			"byteLength":192,
			"byteOffset":2688,
			"target":34962
		},
		{
			"buffer":0,
			"byteLength":72,
			"byteOffset":2880,
			"target":34963
		},
		{
			"buffer":0,
			"byteLength":288,
			"byteOffset":2952,
			"target":34962
		},
		{
			"buffer":0,
			"byteLength":288,
			"byteOffset":3240,
			"target":34962
		},
		{
			"buffer":0,
			"byteLength":192,
			"byteOffset":3528,
			"target":34962
		},
		{
			"buffer":0,
			"byteLength":72,
			"byteOffset":3720,
			"target":34963
		},
		{
			"buffer":0,
			"byteLength":288,
			"byteOffset":3792,
			"target":34962
		},
		{
			"buffer":0,
			"byteLength":288,
			"byteOffset":4080,
			"target":34962
		},
		{
			"buffer":0,
			"byteLength":192,
			"byteOffset":4368,
			"target":34962
		},
		{
			"buffer":0,
			"byteLength":72,
			"byteOffset":4560,
			"target":34963
		},
		{
			"buffer":0,
			"byteLength":288,
			"byteOffset":4632,
			"target":34962
		},
		{
			"buffer":0,
			"byteLength":288,
			"byteOffset":4920,
			"target":34962
		},
		{
			"buffer":0,
			"byteLength":192,
			"byteOffset":5208,
			"target":34962
		},
		{
			"buffer":0,
			"byteLength":72,
			"byteOffset":5400,
			"target":34963
		},
		{
			"buffer":0,
			"byteLength":288,
			"byteOffset":5472,
			"target":34962
		},
		{
			"buffer":0,
			"byteLength":288,
			"byteOffset":5760,
			"target":34962
		},
		{
			"buffer":0,
			"byteLength":192,
			"byteOffset":6048,
			"target":34962
		},
		{
			"buffer":0,
			"byteLength":72,
			"byteOffset":6240,
			"target":34963
		},
		{
			"buffer":0,
			"byteLength":288,
			"byteOffset":6312,
			"target":34962
		},
		{
			"buffer":0,
			"byteLength":288,
			"byteOffset":6600,
			"target":34962
		},
		{
			"buffer":0,
			"byteLength":192,
			"byteOffset":6888,
			"target":34962
		},
		{
			"buffer":0,
			"byteLength":72,
			"byteOffset":7080,
			"target":34963
		},
		{
			"buffer":0,
			"byteLength":288,
			"byteOffset":7152,
			"target":34962
		},
		{
			"buffer":0,
			"byteLength":288,
			"byteOffset":7440,
			"target":34962
		},
		{
			"buffer":0,
			"byteLength":192,
			"byteOffset":7728,
			"target":34962
		},
		{
			"buffer":0,
			"byteLength":72,
			"byteOffset":7920,
			"target":34963
		},
		{
			"buffer":0,
			"byteLength":432,
			"byteOffset":7992,
			"target":34962
		},
		{
			"buffer":0,
			"byteLength":432,
			"byteOffset":8424,
			"target":34962
		},
		{
			"buffer":0,
			"byteLength":288,
			"byteOffset":8856,
			"target":34962
		},
		{
			"buffer":0,
			"byteLength":120,
			"byteOffset":9144,
			"target":34963
		},
		{
			"buffer":0,
			"byteLength":6456,
			"byteOffset":9264,
			"target":34962
		},
		{
			"buffer":0,
			"byteLength":6456,
			"byteOffset":15720,
			"target":34962
		},
		{
			"buffer":0,
			"byteLength":4304,
			"byteOffset":22176,
			"target":34962
		},
		{
			"buffer":0,
			"byteLength":4304,
			"byteOffset":26480,
			"target":34962
		},
		{
			"buffer":0,
			"byteLength":1896,
			"byteOffset":30784,
			"target":34963
		},
		{
			"buffer":0,
			"byteLength":6528,
			"byteOffset":32680,
			"target":34962
		},
		{
			"buffer":0,
			"byteLength":6528,
			"byteOffset":39208,
			"target":34962
		},
		{
			"buffer":0,
			"byteLength":4352,
			"byteOffset":45736,
			"target":34962
		},
		{
			"buffer":0,
			"byteLength":4352,
			"byteOffset":50088,
			"target":34962
		},
		{
			"buffer":0,
			"byteLength":3684,
			"byteOffset":54440,
			"target":34963
		}
	],
	"samplers":[
		{
			"magFilter":9729,
			"minFilter":9987
		}
	],
	"buffers":[
		{
			"byteLength":58124,
			"uri":"Roof_Modular_RoundTiles_8_L.bin"
		}
	]
}
