{
	"asset":{
		"generator":"Khronos glTF Blender I/O v4.0.44",
		"version":"2.0"
	},
	"scene":0,
	"scenes":[
		{
			"name":"Scene",
			"nodes":[
				6
			]
		}
	],
	"nodes":[
		{
			"mesh":0,
			"name":"Roof_FrontSupports_1-convcolonly"
		},
		{
			"mesh":1,
			"name":"Roof_FrontSupports_2-convcolonly"
		},
		{
			"mesh":2,
			"name":"Roof_FrontSupports_3-convcolonly"
		},
		{
			"mesh":3,
			"name":"Roof_FrontSupports_4-convcolonly"
		},
		{
			"mesh":4,
			"name":"Roof_FrontSupports_5-convcolonly"
		},
		{
			"mesh":5,
			"name":"Roof_FrontSupports_6-convcolonly"
		},
		{
			"children":[
				0,
				1,
				2,
				3,
				4,
				5
			],
			"mesh":6,
			"name":"Roof_FrontSupports"
		}
	],
	"materials":[
		{
			"doubleSided":true,
			"name":"Collision",
			"pbrMetallicRoughness":{
				"baseColorFactor":[
					0.05868536978960037,
					0.2907957136631012,
					0.8000074625015259,
					1
				],
				"metallicFactor":0,
				"roughnessFactor":0.5
			}
		},
		{
			"doubleSided":true,
			"name":"MI_WoodTrim",
			"normalTexture":{
				"index":0
			},
			"pbrMetallicRoughness":{
				"baseColorTexture":{
					"index":1
				},
				"metallicFactor":0,
				"metallicRoughnessTexture":{
					"index":2
				}
			}
		}
	],
	"meshes":[
		{
			"name":"Cube.1220",
			"primitives":[
				{
					"attributes":{
						"POSITION":0,
						"NORMAL":1,
						"TEXCOORD_0":2
					},
					"indices":3,
					"material":0
				}
			]
		},
		{
			"name":"Cube.1221",
			"primitives":[
				{
					"attributes":{
						"POSITION":4,
						"NORMAL":5,
						"TEXCOORD_0":6
					},
					"indices":7,
					"material":0
				}
			]
		},
		{
			"name":"Cube.1222",
			"primitives":[
				{
					"attributes":{
						"POSITION":8,
						"NORMAL":9,
						"TEXCOORD_0":10
					},
					"indices":7,
					"material":0
				}
			]
		},
		{
			"name":"Cube.1223",
			"primitives":[
				{
					"attributes":{
						"POSITION":11,
						"NORMAL":12,
						"TEXCOORD_0":13
					},
					"indices":14,
					"material":0
				}
			]
		},
		{
			"name":"Cube.1224",
			"primitives":[
				{
					"attributes":{
						"POSITION":15,
						"NORMAL":16,
						"TEXCOORD_0":17
					},
					"indices":14,
					"material":0
				}
			]
		},
		{
			"name":"Cube.1225",
			"primitives":[
				{
					"attributes":{
						"POSITION":18,
						"NORMAL":19,
						"TEXCOORD_0":20
					},
					"indices":14,
					"material":0
				}
			]
		},
		{
			"name":"Cube.108",
			"primitives":[
				{
					"attributes":{
						"POSITION":21,
						"NORMAL":22,
						"TEXCOORD_0":23
					},
					"indices":24,
					"material":1
				}
			]
		}
	],
	"textures":[
		{
			"sampler":0,
			"source":0
		},
		{
			"sampler":0,
			"source":1
		},
		{
			"sampler":0,
			"source":2
		}
	],
	"images":[
		{
			"mimeType":"image/png",
			"name":"T_WoodTrim_Normal",
			"uri":"T_WoodTrim_Normal.png"
		},
		{
			"mimeType":"image/png",
			"name":"T_WoodTrim_BaseColor",
			"uri":"T_WoodTrim_BaseColor.png"
		},
		{
			"mimeType":"image/png",
			"name":"T_WoodTrim_Roughness",
			"uri":"T_WoodTrim_Roughness.png"
		}
	],
	"accessors":[
		{
			"bufferView":0,
			"componentType":5126,
			"count":20,
			"max":[
				-2.3550922870635986,
				0.11292796581983566,
				0.6272602677345276
			],
			"min":[
				-2.7431302070617676,
				-0.11826205253601074,
				-0.027265047654509544
			],
			"type":"VEC3"
		},
		{
			"bufferView":1,
			"componentType":5126,
			"count":20,
			"type":"VEC3"
		},
		{
			"bufferView":2,
			"componentType":5126,
			"count":20,
			"type":"VEC2"
		},
		{
			"bufferView":3,
			"componentType":5123,
			"count":30,
			"type":"SCALAR"
		},
		{
			"bufferView":4,
			"componentType":5126,
			"count":20,
			"max":[
				-1.346193552017212,
				0.11292797327041626,
				0.627260684967041
			],
			"min":[
				-1.7342313528060913,
				-0.11826204508543015,
				-0.027264615520834923
			],
			"type":"VEC3"
		},
		{
			"bufferView":5,
			"componentType":5126,
			"count":20,
			"type":"VEC3"
		},
		{
			"bufferView":6,
			"componentType":5126,
			"count":20,
			"type":"VEC2"
		},
		{
			"bufferView":7,
			"componentType":5123,
			"count":30,
			"type":"SCALAR"
		},
		{
			"bufferView":8,
			"componentType":5126,
			"count":20,
			"max":[
				-0.33729463815689087,
				0.11292797327041626,
				0.6272611021995544
			],
			"min":[
				-0.7253325581550598,
				-0.11826205253601074,
				-0.027264604344964027
			],
			"type":"VEC3"
		},
		{
			"bufferView":9,
			"componentType":5126,
			"count":20,
			"type":"VEC3"
		},
		{
			"bufferView":10,
			"componentType":5126,
			"count":20,
			"type":"VEC2"
		},
		{
			"bufferView":11,
			"componentType":5126,
			"count":20,
			"max":[
				2.7431282997131348,
				0.11292796581983566,
				0.6272619962692261
			],
			"min":[
				2.3550899028778076,
				-0.11826204508543015,
				-0.027263307943940163
			],
			"type":"VEC3"
		},
		{
			"bufferView":12,
			"componentType":5126,
			"count":20,
			"type":"VEC3"
		},
		{
			"bufferView":13,
			"componentType":5126,
			"count":20,
			"type":"VEC2"
		},
		{
			"bufferView":14,
			"componentType":5123,
			"count":30,
			"type":"SCALAR"
		},
		{
			"bufferView":15,
			"componentType":5126,
			"count":20,
			"max":[
				1.734229326248169,
				0.11292797327041626,
				0.6272615194320679
			],
			"min":[
				1.3461909294128418,
				-0.11826205253601074,
				-0.027263738214969635
			],
			"type":"VEC3"
		},
		{
			"bufferView":16,
			"componentType":5126,
			"count":20,
			"type":"VEC3"
		},
		{
			"bufferView":17,
			"componentType":5126,
			"count":20,
			"type":"VEC2"
		},
		{
			"bufferView":18,
			"componentType":5126,
			"count":20,
			"max":[
				0.7253303527832031,
				0.11292796581983566,
				0.6272611021995544
			],
			"min":[
				0.3372921049594879,
				-0.11826204508543015,
				-0.027264172211289406
			],
			"type":"VEC3"
		},
		{
			"bufferView":19,
			"componentType":5126,
			"count":20,
			"type":"VEC3"
		},
		{
			"bufferView":20,
			"componentType":5126,
			"count":20,
			"type":"VEC2"
		},
		{
			"bufferView":21,
			"componentType":5126,
			"count":120,
			"max":[
				2.7431282997131348,
				0.11292797327041626,
				0.6272619962692261
			],
			"min":[
				-2.7431302070617676,
				-0.11826205253601074,
				-0.027265047654509544
			],
			"type":"VEC3"
		},
		{
			"bufferView":22,
			"componentType":5126,
			"count":120,
			"type":"VEC3"
		},
		{
			"bufferView":23,
			"componentType":5126,
			"count":120,
			"type":"VEC2"
		},
		{
			"bufferView":24,
			"componentType":5123,
			"count":180,
			"type":"SCALAR"
		}
	],
	"bufferViews":[
		{
			"buffer":0,
			"byteLength":240,
			"byteOffset":0,
			"target":34962
		},
		{
			"buffer":0,
			"byteLength":240,
			"byteOffset":240,
			"target":34962
		},
		{
			"buffer":0,
			"byteLength":160,
			"byteOffset":480,
			"target":34962
		},
		{
			"buffer":0,
			"byteLength":60,
			"byteOffset":640,
			"target":34963
		},
		{
			"buffer":0,
			"byteLength":240,
			"byteOffset":700,
			"target":34962
		},
		{
			"buffer":0,
			"byteLength":240,
			"byteOffset":940,
			"target":34962
		},
		{
			"buffer":0,
			"byteLength":160,
			"byteOffset":1180,
			"target":34962
		},
		{
			"buffer":0,
			"byteLength":60,
			"byteOffset":1340,
			"target":34963
		},
		{
			"buffer":0,
			"byteLength":240,
			"byteOffset":1400,
			"target":34962
		},
		{
			"buffer":0,
			"byteLength":240,
			"byteOffset":1640,
			"target":34962
		},
		{
			"buffer":0,
			"byteLength":160,
			"byteOffset":1880,
			"target":34962
		},
		{
			"buffer":0,
			"byteLength":240,
			"byteOffset":2040,
			"target":34962
		},
		{
			"buffer":0,
			"byteLength":240,
			"byteOffset":2280,
			"target":34962
		},
		{
			"buffer":0,
			"byteLength":160,
			"byteOffset":2520,
			"target":34962
		},
		{
			"buffer":0,
			"byteLength":60,
			"byteOffset":2680,
			"target":34963
		},
		{
			"buffer":0,
			"byteLength":240,
			"byteOffset":2740,
			"target":34962
		},
		{
			"buffer":0,
			"byteLength":240,
			"byteOffset":2980,
			"target":34962
		},
		{
			"buffer":0,
			"byteLength":160,
			"byteOffset":3220,
			"target":34962
		},
		{
			"buffer":0,
			"byteLength":240,
			"byteOffset":3380,
			"target":34962
		},
		{
			"buffer":0,
			"byteLength":240,
			"byteOffset":3620,
			"target":34962
		},
		{
			"buffer":0,
			"byteLength":160,
			"byteOffset":3860,
			"target":34962
		},
		{
			"buffer":0,
			"byteLength":1440,
			"byteOffset":4020,
			"target":34962
		},
		{
			"buffer":0,
			"byteLength":1440,
			"byteOffset":5460,
			"target":34962
		},
		{
			"buffer":0,
			"byteLength":960,
			"byteOffset":6900,
			"target":34962
		},
		{
			"buffer":0,
			"byteLength":360,
			"byteOffset":7860,
			"target":34963
		}
	],
	"samplers":[
		{
			"magFilter":9729,
			"minFilter":9987
		}
	],
	"buffers":[
		{
			"byteLength":8220,
			"uri":"Roof_FrontSupports.bin"
		}
	]
}
