{
	"asset":{
		"generator":"Khronos glTF Blender I/O v4.0.44",
		"version":"2.0"
	},
	"scene":0,
	"scenes":[
		{
			"name":"Scene",
			"nodes":[
				22
			]
		}
	],
	"nodes":[
		{
			"mesh":0,
			"name":"Roof_Spikes10_01-convcolonly"
		},
		{
			"mesh":1,
			"name":"Roof_Spikes10_02-convcolonly"
		},
		{
			"mesh":2,
			"name":"Roof_Spikes10_03-convcolonly"
		},
		{
			"mesh":3,
			"name":"Roof_Spikes10_04-convcolonly"
		},
		{
			"mesh":4,
			"name":"Roof_Spikes10_05-convcolonly"
		},
		{
			"mesh":5,
			"name":"Roof_Spikes10_06-convcolonly"
		},
		{
			"mesh":6,
			"name":"Roof_Spikes10_07-convcolonly"
		},
		{
			"mesh":7,
			"name":"Roof_Spikes10_08-convcolonly"
		},
		{
			"mesh":8,
			"name":"Roof_Spikes10_09-convcolonly"
		},
		{
			"mesh":9,
			"name":"Roof_Spikes10_10-convcolonly"
		},
		{
			"mesh":10,
			"name":"Roof_Spikes10_11-convcolonly"
		},
		{
			"mesh":11,
			"name":"Roof_Spikes10_12-convcolonly"
		},
		{
			"mesh":12,
			"name":"Roof_Spikes10_13-convcolonly"
		},
		{
			"mesh":13,
			"name":"Roof_Spikes10_14-convcolonly"
		},
		{
			"mesh":14,
			"name":"Roof_Spikes10_15-convcolonly"
		},
		{
			"mesh":15,
			"name":"Roof_Spikes10_16-convcolonly"
		},
		{
			"mesh":16,
			"name":"Roof_Spikes10_17-convcolonly"
		},
		{
			"mesh":17,
			"name":"Roof_Spikes10_18-convcolonly"
		},
		{
			"mesh":18,
			"name":"Roof_Spikes10_19-convcolonly"
		},
		{
			"mesh":19,
			"name":"Roof_Spikes10_20-convcolonly"
		},
		{
			"mesh":20,
			"name":"Roof_Spikes10_21-convcolonly"
		},
		{
			"mesh":21,
			"name":"Roof_Spikes10_22-convcolonly"
		},
		{
			"children":[
				0,
				1,
				2,
				3,
				4,
				5,
				6,
				7,
				8,
				9,
				10,
				11,
				12,
				13,
				14,
				15,
				16,
				17,
				18,
				19,
				20,
				21
			],
			"mesh":22,
			"name":"Roof_Spikes10"
		}
	],
	"materials":[
		{
			"doubleSided":true,
			"name":"Collision",
			"pbrMetallicRoughness":{
				"baseColorFactor":[
					0.05868536978960037,
					0.2907957136631012,
					0.8000074625015259,
					1
				],
				"metallicFactor":0,
				"roughnessFactor":0.5
			}
		},
		{
			"doubleSided":true,
			"name":"MI_MetalOrnaments",
			"pbrMetallicRoughness":{
				"baseColorTexture":{
					"index":0
				},
				"metallicRoughnessTexture":{
					"index":1
				}
			}
		}
	],
	"meshes":[
		{
			"name":"Cube.1523",
			"primitives":[
				{
					"attributes":{
						"POSITION":0,
						"NORMAL":1,
						"TEXCOORD_0":2
					},
					"indices":3,
					"material":0
				}
			]
		},
		{
			"name":"Cube.1524",
			"primitives":[
				{
					"attributes":{
						"POSITION":4,
						"NORMAL":5,
						"TEXCOORD_0":6
					},
					"indices":7,
					"material":0
				}
			]
		},
		{
			"name":"Cube.1525",
			"primitives":[
				{
					"attributes":{
						"POSITION":8,
						"NORMAL":9,
						"TEXCOORD_0":10
					},
					"indices":7,
					"material":0
				}
			]
		},
		{
			"name":"Cube.1526",
			"primitives":[
				{
					"attributes":{
						"POSITION":11,
						"NORMAL":12,
						"TEXCOORD_0":13
					},
					"indices":7,
					"material":0
				}
			]
		},
		{
			"name":"Cube.1527",
			"primitives":[
				{
					"attributes":{
						"POSITION":14,
						"NORMAL":15,
						"TEXCOORD_0":16
					},
					"indices":17,
					"material":0
				}
			]
		},
		{
			"name":"Cube.1528",
			"primitives":[
				{
					"attributes":{
						"POSITION":18,
						"NORMAL":19,
						"TEXCOORD_0":20
					},
					"indices":17,
					"material":0
				}
			]
		},
		{
			"name":"Cube.1529",
			"primitives":[
				{
					"attributes":{
						"POSITION":21,
						"NORMAL":22,
						"TEXCOORD_0":23
					},
					"indices":17,
					"material":0
				}
			]
		},
		{
			"name":"Cube.1530",
			"primitives":[
				{
					"attributes":{
						"POSITION":24,
						"NORMAL":25,
						"TEXCOORD_0":26
					},
					"indices":17,
					"material":0
				}
			]
		},
		{
			"name":"Cube.1531",
			"primitives":[
				{
					"attributes":{
						"POSITION":27,
						"NORMAL":28,
						"TEXCOORD_0":29
					},
					"indices":30,
					"material":0
				}
			]
		},
		{
			"name":"Cube.1532",
			"primitives":[
				{
					"attributes":{
						"POSITION":31,
						"NORMAL":32,
						"TEXCOORD_0":33
					},
					"indices":34,
					"material":0
				}
			]
		},
		{
			"name":"Cube.1533",
			"primitives":[
				{
					"attributes":{
						"POSITION":35,
						"NORMAL":36,
						"TEXCOORD_0":37
					},
					"indices":38,
					"material":0
				}
			]
		},
		{
			"name":"Cube.1534",
			"primitives":[
				{
					"attributes":{
						"POSITION":39,
						"NORMAL":40,
						"TEXCOORD_0":41
					},
					"indices":38,
					"material":0
				}
			]
		},
		{
			"name":"Cube.1535",
			"primitives":[
				{
					"attributes":{
						"POSITION":42,
						"NORMAL":43,
						"TEXCOORD_0":44
					},
					"indices":34,
					"material":0
				}
			]
		},
		{
			"name":"Cube.1536",
			"primitives":[
				{
					"attributes":{
						"POSITION":45,
						"NORMAL":46,
						"TEXCOORD_0":47
					},
					"indices":38,
					"material":0
				}
			]
		},
		{
			"name":"Cube.1537",
			"primitives":[
				{
					"attributes":{
						"POSITION":48,
						"NORMAL":49,
						"TEXCOORD_0":50
					},
					"indices":34,
					"material":0
				}
			]
		},
		{
			"name":"Cube.1538",
			"primitives":[
				{
					"attributes":{
						"POSITION":51,
						"NORMAL":52,
						"TEXCOORD_0":53
					},
					"indices":38,
					"material":0
				}
			]
		},
		{
			"name":"Cube.1539",
			"primitives":[
				{
					"attributes":{
						"POSITION":54,
						"NORMAL":55,
						"TEXCOORD_0":56
					},
					"indices":34,
					"material":0
				}
			]
		},
		{
			"name":"Cube.1540",
			"primitives":[
				{
					"attributes":{
						"POSITION":57,
						"NORMAL":58,
						"TEXCOORD_0":59
					},
					"indices":38,
					"material":0
				}
			]
		},
		{
			"name":"Cube.1541",
			"primitives":[
				{
					"attributes":{
						"POSITION":60,
						"NORMAL":61,
						"TEXCOORD_0":62
					},
					"indices":34,
					"material":0
				}
			]
		},
		{
			"name":"Cube.1542",
			"primitives":[
				{
					"attributes":{
						"POSITION":63,
						"NORMAL":64,
						"TEXCOORD_0":65
					},
					"indices":38,
					"material":0
				}
			]
		},
		{
			"name":"Cube.1543",
			"primitives":[
				{
					"attributes":{
						"POSITION":66,
						"NORMAL":67,
						"TEXCOORD_0":68
					},
					"indices":34,
					"material":0
				}
			]
		},
		{
			"name":"Cube.1544",
			"primitives":[
				{
					"attributes":{
						"POSITION":69,
						"NORMAL":70,
						"TEXCOORD_0":71
					},
					"indices":38,
					"material":0
				}
			]
		},
		{
			"name":"Torus.020",
			"primitives":[
				{
					"attributes":{
						"POSITION":72,
						"NORMAL":73,
						"TEXCOORD_0":74
					},
					"indices":75,
					"material":1
				}
			]
		}
	],
	"textures":[
		{
			"sampler":0,
			"source":0
		},
		{
			"sampler":0,
			"source":1
		}
	],
	"images":[
		{
			"mimeType":"image/png",
			"name":"T_MetalOrnaments_BaseColor",
			"uri":"T_MetalOrnaments_BaseColor.png"
		},
		{
			"mimeType":"image/png",
			"name":"T_MetalOrnaments_Roughness",
			"uri":"T_MetalOrnaments_Roughness.png"
		}
	],
	"accessors":[
		{
			"bufferView":0,
			"componentType":5126,
			"count":24,
			"max":[
				0.0720611959695816,
				1.5508781671524048,
				4.827242851257324
			],
			"min":[
				-0.07205840945243835,
				0.046749893575906754,
				4.482193946838379
			],
			"type":"VEC3"
		},
		{
			"bufferView":1,
			"componentType":5126,
			"count":24,
			"type":"VEC3"
		},
		{
			"bufferView":2,
			"componentType":5126,
			"count":24,
			"type":"VEC2"
		},
		{
			"bufferView":3,
			"componentType":5123,
			"count":36,
			"type":"SCALAR"
		},
		{
			"bufferView":4,
			"componentType":5126,
			"count":24,
			"max":[
				0.0720611959695816,
				1.2923001050949097,
				3.409045934677124
			],
			"min":[
				-0.07205840945243835,
				-0.02761363983154297,
				3.199889659881592
			],
			"type":"VEC3"
		},
		{
			"bufferView":5,
			"componentType":5126,
			"count":24,
			"type":"VEC3"
		},
		{
			"bufferView":6,
			"componentType":5126,
			"count":24,
			"type":"VEC2"
		},
		{
			"bufferView":7,
			"componentType":5123,
			"count":36,
			"type":"SCALAR"
		},
		{
			"bufferView":8,
			"componentType":5126,
			"count":24,
			"max":[
				0.0720611959695816,
				1.295405387878418,
				2.094788074493408
			],
			"min":[
				-0.07205840945243835,
				-0.024406075477600098,
				1.8873170614242554
			],
			"type":"VEC3"
		},
		{
			"bufferView":9,
			"componentType":5126,
			"count":24,
			"type":"VEC3"
		},
		{
			"bufferView":10,
			"componentType":5126,
			"count":24,
			"type":"VEC2"
		},
		{
			"bufferView":11,
			"componentType":5126,
			"count":24,
			"max":[
				0.0720611959695816,
				1.278151512145996,
				0.7600077390670776
			],
			"min":[
				-0.07205840945243835,
				-0.038471102714538574,
				0.593774676322937
			],
			"type":"VEC3"
		},
		{
			"bufferView":12,
			"componentType":5126,
			"count":24,
			"type":"VEC3"
		},
		{
			"bufferView":13,
			"componentType":5126,
			"count":24,
			"type":"VEC2"
		},
		{
			"bufferView":14,
			"componentType":5126,
			"count":24,
			"max":[
				0.0720611959695816,
				1.5141196250915527,
				-4.547834396362305
			],
			"min":[
				-0.07205840945243835,
				0.009991329163312912,
				-4.89288330078125
			],
			"type":"VEC3"
		},
		{
			"bufferView":15,
			"componentType":5126,
			"count":24,
			"type":"VEC3"
		},
		{
			"bufferView":16,
			"componentType":5126,
			"count":24,
			"type":"VEC2"
		},
		{
			"bufferView":17,
			"componentType":5123,
			"count":36,
			"type":"SCALAR"
		},
		{
			"bufferView":18,
			"componentType":5126,
			"count":24,
			"max":[
				0.0720611959695816,
				1.2870489358901978,
				-3.2760324478149414
			],
			"min":[
				-0.07205840945243835,
				-0.03286486491560936,
				-3.4851887226104736
			],
			"type":"VEC3"
		},
		{
			"bufferView":19,
			"componentType":5126,
			"count":24,
			"type":"VEC3"
		},
		{
			"bufferView":20,
			"componentType":5126,
			"count":24,
			"type":"VEC2"
		},
		{
			"bufferView":21,
			"componentType":5126,
			"count":24,
			"max":[
				0.0720611959695816,
				1.289164423942566,
				-1.977189064025879
			],
			"min":[
				-0.07205840945243835,
				-0.028667720034718513,
				-2.1572015285491943
			],
			"type":"VEC3"
		},
		{
			"bufferView":22,
			"componentType":5126,
			"count":24,
			"type":"VEC3"
		},
		{
			"bufferView":23,
			"componentType":5126,
			"count":24,
			"type":"VEC2"
		},
		{
			"bufferView":24,
			"componentType":5126,
			"count":24,
			"max":[
				0.0720611959695816,
				1.3070333003997803,
				-0.6646661758422852
			],
			"min":[
				-0.07205840945243835,
				-0.00958937406539917,
				-0.8308992385864258
			],
			"type":"VEC3"
		},
		{
			"bufferView":25,
			"componentType":5126,
			"count":24,
			"type":"VEC3"
		},
		{
			"bufferView":26,
			"componentType":5126,
			"count":24,
			"type":"VEC2"
		},
		{
			"bufferView":27,
			"componentType":5126,
			"count":24,
			"max":[
				0.06929139047861099,
				0.9441421627998352,
				4.714104175567627
			],
			"min":[
				-0.06928841769695282,
				0.5711761713027954,
				3.983513116836548
			],
			"type":"VEC3"
		},
		{
			"bufferView":28,
			"componentType":5126,
			"count":24,
			"type":"VEC3"
		},
		{
			"bufferView":29,
			"componentType":5126,
			"count":24,
			"type":"VEC2"
		},
		{
			"bufferView":30,
			"componentType":5123,
			"count":36,
			"type":"SCALAR"
		},
		{
			"bufferView":31,
			"componentType":5126,
			"count":24,
			"max":[
				0.06929139047861099,
				0.7852350473403931,
				3.3688740730285645
			],
			"min":[
				-0.06928841769695282,
				0.4975137710571289,
				2.6268093585968018
			],
			"type":"VEC3"
		},
		{
			"bufferView":32,
			"componentType":5126,
			"count":24,
			"type":"VEC3"
		},
		{
			"bufferView":33,
			"componentType":5126,
			"count":24,
			"type":"VEC2"
		},
		{
			"bufferView":34,
			"componentType":5123,
			"count":36,
			"type":"SCALAR"
		},
		{
			"bufferView":35,
			"componentType":5126,
			"count":24,
			"max":[
				0.06929139047861099,
				0.8012023568153381,
				3.9972620010375977
			],
			"min":[
				-0.06928841769695282,
				0.5711761713027954,
				3.2666711807250977
			],
			"type":"VEC3"
		},
		{
			"bufferView":36,
			"componentType":5126,
			"count":24,
			"type":"VEC3"
		},
		{
			"bufferView":37,
			"componentType":5126,
			"count":24,
			"type":"VEC2"
		},
		{
			"bufferView":38,
			"componentType":5123,
			"count":36,
			"type":"SCALAR"
		},
		{
			"bufferView":39,
			"componentType":5126,
			"count":24,
			"max":[
				0.06929139047861099,
				0.8118358850479126,
				2.6293678283691406
			],
			"min":[
				-0.06928841769695282,
				0.4975137710571289,
				1.9257694482803345
			],
			"type":"VEC3"
		},
		{
			"bufferView":40,
			"componentType":5126,
			"count":24,
			"type":"VEC3"
		},
		{
			"bufferView":41,
			"componentType":5126,
			"count":24,
			"type":"VEC2"
		},
		{
			"bufferView":42,
			"componentType":5126,
			"count":24,
			"max":[
				0.06929139047861099,
				0.7820219993591309,
				2.0708131790161133
			],
			"min":[
				-0.06928841769695282,
				0.4943007528781891,
				1.328748345375061
			],
			"type":"VEC3"
		},
		{
			"bufferView":43,
			"componentType":5126,
			"count":24,
			"type":"VEC3"
		},
		{
			"bufferView":44,
			"componentType":5126,
			"count":24,
			"type":"VEC2"
		},
		{
			"bufferView":45,
			"componentType":5126,
			"count":24,
			"max":[
				0.06929139047861099,
				0.8086228370666504,
				1.3313068151474
			],
			"min":[
				-0.06928841769695282,
				0.4943007528781891,
				0.6277084350585938
			],
			"type":"VEC3"
		},
		{
			"bufferView":46,
			"componentType":5126,
			"count":24,
			"type":"VEC3"
		},
		{
			"bufferView":47,
			"componentType":5126,
			"count":24,
			"type":"VEC2"
		},
		{
			"bufferView":48,
			"componentType":5126,
			"count":24,
			"max":[
				0.06929139047861099,
				0.7687918543815613,
				0.6899752616882324
			],
			"min":[
				-0.06928841769695282,
				0.46843236684799194,
				-0.0470646470785141
			],
			"type":"VEC3"
		},
		{
			"bufferView":49,
			"componentType":5126,
			"count":24,
			"type":"VEC3"
		},
		{
			"bufferView":50,
			"componentType":5126,
			"count":24,
			"type":"VEC2"
		},
		{
			"bufferView":51,
			"componentType":5126,
			"count":24,
			"max":[
				0.06929139047861099,
				0.7707729339599609,
				-0.046874187886714935
			],
			"min":[
				-0.06928841769695282,
				0.46843236684799194,
				-0.7510056495666504
			],
			"type":"VEC3"
		},
		{
			"bufferView":52,
			"componentType":5126,
			"count":24,
			"type":"VEC3"
		},
		{
			"bufferView":53,
			"componentType":5126,
			"count":24,
			"type":"VEC2"
		},
		{
			"bufferView":54,
			"componentType":5126,
			"count":24,
			"max":[
				0.06929139047861099,
				0.7816439270973206,
				-0.6819852590560913
			],
			"min":[
				-0.06928841769695282,
				0.4812844693660736,
				-1.419025182723999
			],
			"type":"VEC3"
		},
		{
			"bufferView":55,
			"componentType":5126,
			"count":24,
			"type":"VEC3"
		},
		{
			"bufferView":56,
			"componentType":5126,
			"count":24,
			"type":"VEC2"
		},
		{
			"bufferView":57,
			"componentType":5126,
			"count":24,
			"max":[
				0.06929139047861099,
				0.7836250066757202,
				-1.4188346862792969
			],
			"min":[
				-0.06928841769695282,
				0.4812844693660736,
				-2.1229662895202637
			],
			"type":"VEC3"
		},
		{
			"bufferView":58,
			"componentType":5126,
			"count":24,
			"type":"VEC3"
		},
		{
			"bufferView":59,
			"componentType":5126,
			"count":24,
			"type":"VEC2"
		},
		{
			"bufferView":60,
			"componentType":5126,
			"count":24,
			"max":[
				0.06929139047861099,
				0.7912830114364624,
				-1.989685297012329
			],
			"min":[
				-0.06928841769695282,
				0.49092352390289307,
				-2.7267251014709473
			],
			"type":"VEC3"
		},
		{
			"bufferView":61,
			"componentType":5126,
			"count":24,
			"type":"VEC3"
		},
		{
			"bufferView":62,
			"componentType":5126,
			"count":24,
			"type":"VEC2"
		},
		{
			"bufferView":63,
			"componentType":5126,
			"count":24,
			"max":[
				0.06929139047861099,
				0.7932640910148621,
				-2.726534843444824
			],
			"min":[
				-0.06928841769695282,
				0.49092352390289307,
				-3.430666446685791
			],
			"type":"VEC3"
		},
		{
			"bufferView":64,
			"componentType":5126,
			"count":24,
			"type":"VEC3"
		},
		{
			"bufferView":65,
			"componentType":5126,
			"count":24,
			"type":"VEC2"
		},
		{
			"bufferView":66,
			"componentType":5126,
			"count":24,
			"max":[
				0.06929139047861099,
				0.7792795300483704,
				-3.343637228012085
			],
			"min":[
				-0.06928841769695282,
				0.556856095790863,
				-4.10781717300415
			],
			"type":"VEC3"
		},
		{
			"bufferView":67,
			"componentType":5126,
			"count":24,
			"type":"VEC3"
		},
		{
			"bufferView":68,
			"componentType":5126,
			"count":24,
			"type":"VEC2"
		},
		{
			"bufferView":69,
			"componentType":5126,
			"count":24,
			"max":[
				0.06929139047861099,
				0.9304456114768982,
				-4.093277931213379
			],
			"min":[
				-0.06928841769695282,
				0.556856095790863,
				-4.791017055511475
			],
			"type":"VEC3"
		},
		{
			"bufferView":70,
			"componentType":5126,
			"count":24,
			"type":"VEC3"
		},
		{
			"bufferView":71,
			"componentType":5126,
			"count":24,
			"type":"VEC2"
		},
		{
			"bufferView":72,
			"componentType":5126,
			"count":3496,
			"max":[
				0.08931872248649597,
				1.5295624732971191,
				4.793522834777832
			],
			"min":[
				-0.08931872248649597,
				-0.03507280349731445,
				-4.8751301765441895
			],
			"type":"VEC3"
		},
		{
			"bufferView":73,
			"componentType":5126,
			"count":3496,
			"type":"VEC3"
		},
		{
			"bufferView":74,
			"componentType":5126,
			"count":3496,
			"type":"VEC2"
		},
		{
			"bufferView":75,
			"componentType":5123,
			"count":11376,
			"type":"SCALAR"
		}
	],
	"bufferViews":[
		{
			"buffer":0,
			"byteLength":288,
			"byteOffset":0,
			"target":34962
		},
		{
			"buffer":0,
			"byteLength":288,
			"byteOffset":288,
			"target":34962
		},
		{
			"buffer":0,
			"byteLength":192,
			"byteOffset":576,
			"target":34962
		},
		{
			"buffer":0,
			"byteLength":72,
			"byteOffset":768,
			"target":34963
		},
		{
			"buffer":0,
			"byteLength":288,
			"byteOffset":840,
			"target":34962
		},
		{
			"buffer":0,
			"byteLength":288,
			"byteOffset":1128,
			"target":34962
		},
		{
			"buffer":0,
			"byteLength":192,
			"byteOffset":1416,
			"target":34962
		},
		{
			"buffer":0,
			"byteLength":72,
			"byteOffset":1608,
			"target":34963
		},
		{
			"buffer":0,
			"byteLength":288,
			"byteOffset":1680,
			"target":34962
		},
		{
			"buffer":0,
			"byteLength":288,
			"byteOffset":1968,
			"target":34962
		},
		{
			"buffer":0,
			"byteLength":192,
			"byteOffset":2256,
			"target":34962
		},
		{
			"buffer":0,
			"byteLength":288,
			"byteOffset":2448,
			"target":34962
		},
		{
			"buffer":0,
			"byteLength":288,
			"byteOffset":2736,
			"target":34962
		},
		{
			"buffer":0,
			"byteLength":192,
			"byteOffset":3024,
			"target":34962
		},
		{
			"buffer":0,
			"byteLength":288,
			"byteOffset":3216,
			"target":34962
		},
		{
			"buffer":0,
			"byteLength":288,
			"byteOffset":3504,
			"target":34962
		},
		{
			"buffer":0,
			"byteLength":192,
			"byteOffset":3792,
			"target":34962
		},
		{
			"buffer":0,
			"byteLength":72,
			"byteOffset":3984,
			"target":34963
		},
		{
			"buffer":0,
			"byteLength":288,
			"byteOffset":4056,
			"target":34962
		},
		{
			"buffer":0,
			"byteLength":288,
			"byteOffset":4344,
			"target":34962
		},
		{
			"buffer":0,
			"byteLength":192,
			"byteOffset":4632,
			"target":34962
		},
		{
			"buffer":0,
			"byteLength":288,
			"byteOffset":4824,
			"target":34962
		},
		{
			"buffer":0,
			"byteLength":288,
			"byteOffset":5112,
			"target":34962
		},
		{
			"buffer":0,
			"byteLength":192,
			"byteOffset":5400,
			"target":34962
		},
		{
			"buffer":0,
			"byteLength":288,
			"byteOffset":5592,
			"target":34962
		},
		{
			"buffer":0,
			"byteLength":288,
			"byteOffset":5880,
			"target":34962
		},
		{
			"buffer":0,
			"byteLength":192,
			"byteOffset":6168,
			"target":34962
		},
		{
			"buffer":0,
			"byteLength":288,
			"byteOffset":6360,
			"target":34962
		},
		{
			"buffer":0,
			"byteLength":288,
			"byteOffset":6648,
			"target":34962
		},
		{
			"buffer":0,
			"byteLength":192,
			"byteOffset":6936,
			"target":34962
		},
		{
			"buffer":0,
			"byteLength":72,
			"byteOffset":7128,
			"target":34963
		},
		{
			"buffer":0,
			"byteLength":288,
			"byteOffset":7200,
			"target":34962
		},
		{
			"buffer":0,
			"byteLength":288,
			"byteOffset":7488,
			"target":34962
		},
		{
			"buffer":0,
			"byteLength":192,
			"byteOffset":7776,
			"target":34962
		},
		{
			"buffer":0,
			"byteLength":72,
			"byteOffset":7968,
			"target":34963
		},
		{
			"buffer":0,
			"byteLength":288,
			"byteOffset":8040,
			"target":34962
		},
		{
			"buffer":0,
			"byteLength":288,
			"byteOffset":8328,
			"target":34962
		},
		{
			"buffer":0,
			"byteLength":192,
			"byteOffset":8616,
			"target":34962
		},
		{
			"buffer":0,
			"byteLength":72,
			"byteOffset":8808,
			"target":34963
		},
		{
			"buffer":0,
			"byteLength":288,
			"byteOffset":8880,
			"target":34962
		},
		{
			"buffer":0,
			"byteLength":288,
			"byteOffset":9168,
			"target":34962
		},
		{
			"buffer":0,
			"byteLength":192,
			"byteOffset":9456,
			"target":34962
		},
		{
			"buffer":0,
			"byteLength":288,
			"byteOffset":9648,
			"target":34962
		},
		{
			"buffer":0,
			"byteLength":288,
			"byteOffset":9936,
			"target":34962
		},
		{
			"buffer":0,
			"byteLength":192,
			"byteOffset":10224,
			"target":34962
		},
		{
			"buffer":0,
			"byteLength":288,
			"byteOffset":10416,
			"target":34962
		},
		{
			"buffer":0,
			"byteLength":288,
			"byteOffset":10704,
			"target":34962
		},
		{
			"buffer":0,
			"byteLength":192,
			"byteOffset":10992,
			"target":34962
		},
		{
			"buffer":0,
			"byteLength":288,
			"byteOffset":11184,
			"target":34962
		},
		{
			"buffer":0,
			"byteLength":288,
			"byteOffset":11472,
			"target":34962
		},
		{
			"buffer":0,
			"byteLength":192,
			"byteOffset":11760,
			"target":34962
		},
		{
			"buffer":0,
			"byteLength":288,
			"byteOffset":11952,
			"target":34962
		},
		{
			"buffer":0,
			"byteLength":288,
			"byteOffset":12240,
			"target":34962
		},
		{
			"buffer":0,
			"byteLength":192,
			"byteOffset":12528,
			"target":34962
		},
		{
			"buffer":0,
			"byteLength":288,
			"byteOffset":12720,
			"target":34962
		},
		{
			"buffer":0,
			"byteLength":288,
			"byteOffset":13008,
			"target":34962
		},
		{
			"buffer":0,
			"byteLength":192,
			"byteOffset":13296,
			"target":34962
		},
		{
			"buffer":0,
			"byteLength":288,
			"byteOffset":13488,
			"target":34962
		},
		{
			"buffer":0,
			"byteLength":288,
			"byteOffset":13776,
			"target":34962
		},
		{
			"buffer":0,
			"byteLength":192,
			"byteOffset":14064,
			"target":34962
		},
		{
			"buffer":0,
			"byteLength":288,
			"byteOffset":14256,
			"target":34962
		},
		{
			"buffer":0,
			"byteLength":288,
			"byteOffset":14544,
			"target":34962
		},
		{
			"buffer":0,
			"byteLength":192,
			"byteOffset":14832,
			"target":34962
		},
		{
			"buffer":0,
			"byteLength":288,
			"byteOffset":15024,
			"target":34962
		},
		{
			"buffer":0,
			"byteLength":288,
			"byteOffset":15312,
			"target":34962
		},
		{
			"buffer":0,
			"byteLength":192,
			"byteOffset":15600,
			"target":34962
		},
		{
			"buffer":0,
			"byteLength":288,
			"byteOffset":15792,
			"target":34962
		},
		{
			"buffer":0,
			"byteLength":288,
			"byteOffset":16080,
			"target":34962
		},
		{
			"buffer":0,
			"byteLength":192,
			"byteOffset":16368,
			"target":34962
		},
		{
			"buffer":0,
			"byteLength":288,
			"byteOffset":16560,
			"target":34962
		},
		{
			"buffer":0,
			"byteLength":288,
			"byteOffset":16848,
			"target":34962
		},
		{
			"buffer":0,
			"byteLength":192,
			"byteOffset":17136,
			"target":34962
		},
		{
			"buffer":0,
			"byteLength":41952,
			"byteOffset":17328,
			"target":34962
		},
		{
			"buffer":0,
			"byteLength":41952,
			"byteOffset":59280,
			"target":34962
		},
		{
			"buffer":0,
			"byteLength":27968,
			"byteOffset":101232,
			"target":34962
		},
		{
			"buffer":0,
			"byteLength":22752,
			"byteOffset":129200,
			"target":34963
		}
	],
	"samplers":[
		{
			"magFilter":9729,
			"minFilter":9987
		}
	],
	"buffers":[
		{
			"byteLength":151952,
			"uri":"Roof_Spikes10.bin"
		}
	]
}
