{
	"asset":{
		"generator":"Khronos glTF Blender I/O v4.0.44",
		"version":"2.0"
	},
	"scene":0,
	"scenes":[
		{
			"name":"Scene",
			"nodes":[
				8
			]
		}
	],
	"nodes":[
		{
			"mesh":0,
			"name":"Roof_FlatTiles_6x4_01-convcolonly"
		},
		{
			"mesh":1,
			"name":"Roof_FlatTiles_6x4_02-convcolonly"
		},
		{
			"mesh":2,
			"name":"Roof_FlatTiles_6x4_03-convcolonly"
		},
		{
			"mesh":3,
			"name":"Roof_FlatTiles_6x4_04-convcolonly"
		},
		{
			"mesh":4,
			"name":"Roof_FlatTiles_6x4_05-convcolonly"
		},
		{
			"mesh":5,
			"name":"Roof_FlatTiles_6x4_06-convcolonly"
		},
		{
			"mesh":6,
			"name":"Roof_FlatTiles_6x4_07-convcolonly"
		},
		{
			"mesh":7,
			"name":"Roof_FlatTiles_6x4_08-convcolonly"
		},
		{
			"children":[
				0,
				1,
				2,
				3,
				4,
				5,
				6,
				7
			],
			"mesh":8,
			"name":"Roof_FlatTiles_6x4"
		}
	],
	"materials":[
		{
			"doubleSided":true,
			"name":"Collision",
			"pbrMetallicRoughness":{
				"baseColorFactor":[
					0.05868536978960037,
					0.2907957136631012,
					0.8000074625015259,
					1
				],
				"metallicFactor":0,
				"roughnessFactor":0.5
			}
		},
		{
			"doubleSided":true,
			"name":"MI_RoundTiles",
			"normalTexture":{
				"index":0
			},
			"pbrMetallicRoughness":{
				"baseColorTexture":{
					"index":1
				},
				"metallicFactor":0,
				"metallicRoughnessTexture":{
					"index":2
				}
			}
		},
		{
			"doubleSided":true,
			"name":"MI_WoodTrim",
			"normalTexture":{
				"index":3
			},
			"pbrMetallicRoughness":{
				"baseColorTexture":{
					"index":4
				},
				"metallicFactor":0,
				"metallicRoughnessTexture":{
					"index":5
				}
			}
		},
		{
			"doubleSided":true,
			"name":"MI_FlatTiles",
			"normalTexture":{
				"index":6
			},
			"pbrMetallicRoughness":{
				"baseColorTexture":{
					"index":7
				},
				"metallicFactor":0,
				"metallicRoughnessTexture":{
					"index":8
				}
			}
		}
	],
	"meshes":[
		{
			"name":"Cube.1258",
			"primitives":[
				{
					"attributes":{
						"POSITION":0,
						"NORMAL":1,
						"TEXCOORD_0":2
					},
					"indices":3,
					"material":0
				}
			]
		},
		{
			"name":"Cube.1259",
			"primitives":[
				{
					"attributes":{
						"POSITION":4,
						"NORMAL":5,
						"TEXCOORD_0":6
					},
					"indices":7,
					"material":0
				}
			]
		},
		{
			"name":"Cube.1261",
			"primitives":[
				{
					"attributes":{
						"POSITION":8,
						"NORMAL":9,
						"TEXCOORD_0":10
					},
					"indices":11,
					"material":0
				}
			]
		},
		{
			"name":"Cube.1262",
			"primitives":[
				{
					"attributes":{
						"POSITION":12,
						"NORMAL":13,
						"TEXCOORD_0":14
					},
					"indices":15,
					"material":0
				}
			]
		},
		{
			"name":"Cube.1263",
			"primitives":[
				{
					"attributes":{
						"POSITION":16,
						"NORMAL":17,
						"TEXCOORD_0":18
					},
					"indices":19,
					"material":0
				}
			]
		},
		{
			"name":"Cube.1265",
			"primitives":[
				{
					"attributes":{
						"POSITION":20,
						"NORMAL":21,
						"TEXCOORD_0":22
					},
					"indices":23,
					"material":0
				}
			]
		},
		{
			"name":"Cube.1266",
			"primitives":[
				{
					"attributes":{
						"POSITION":24,
						"NORMAL":25,
						"TEXCOORD_0":26
					},
					"indices":27,
					"material":0
				}
			]
		},
		{
			"name":"Cube.1267",
			"primitives":[
				{
					"attributes":{
						"POSITION":28,
						"NORMAL":29,
						"TEXCOORD_0":30
					},
					"indices":31,
					"material":0
				}
			]
		},
		{
			"name":"Plane.010",
			"primitives":[
				{
					"attributes":{
						"POSITION":32,
						"NORMAL":33,
						"TEXCOORD_0":34,
						"TEXCOORD_1":35
					},
					"indices":36,
					"material":1
				},
				{
					"attributes":{
						"POSITION":37,
						"NORMAL":38,
						"TEXCOORD_0":39,
						"TEXCOORD_1":40
					},
					"indices":41,
					"material":2
				},
				{
					"attributes":{
						"POSITION":42,
						"NORMAL":43,
						"TEXCOORD_0":44,
						"TEXCOORD_1":45
					},
					"indices":46,
					"material":3
				}
			]
		}
	],
	"textures":[
		{
			"sampler":0,
			"source":0
		},
		{
			"sampler":0,
			"source":1
		},
		{
			"sampler":0,
			"source":2
		},
		{
			"sampler":0,
			"source":3
		},
		{
			"sampler":0,
			"source":4
		},
		{
			"sampler":0,
			"source":5
		},
		{
			"sampler":0,
			"source":6
		},
		{
			"sampler":0,
			"source":7
		},
		{
			"sampler":0,
			"source":8
		}
	],
	"images":[
		{
			"mimeType":"image/png",
			"name":"T_RoundTiles_Normal",
			"uri":"T_RoundTiles_Normal.png"
		},
		{
			"mimeType":"image/png",
			"name":"T_RoundTiles_BaseColor",
			"uri":"T_RoundTiles_BaseColor.png"
		},
		{
			"mimeType":"image/png",
			"name":"T_RoundTiles_Roughness",
			"uri":"T_RoundTiles_Roughness.png"
		},
		{
			"mimeType":"image/png",
			"name":"T_WoodTrim_Normal",
			"uri":"T_WoodTrim_Normal.png"
		},
		{
			"mimeType":"image/png",
			"name":"T_WoodTrim_BaseColor",
			"uri":"T_WoodTrim_BaseColor.png"
		},
		{
			"mimeType":"image/png",
			"name":"T_WoodTrim_Roughness",
			"uri":"T_WoodTrim_Roughness.png"
		},
		{
			"mimeType":"image/png",
			"name":"T_FlatTiles_Normal",
			"uri":"T_FlatTiles_Normal.png"
		},
		{
			"mimeType":"image/png",
			"name":"T_FlatTiles_BaseColor",
			"uri":"T_FlatTiles_BaseColor.png"
		},
		{
			"mimeType":"image/png",
			"name":"T_FlatTiles_Roughness",
			"uri":"T_FlatTiles_Roughness.png"
		}
	],
	"accessors":[
		{
			"bufferView":0,
			"componentType":5126,
			"count":24,
			"max":[
				1.5640153884887695,
				4.483511924743652,
				4.854549407958984
			],
			"min":[
				-0.0016673320205882192,
				1.913405179977417,
				-0.15810924768447876
			],
			"type":"VEC3"
		},
		{
			"bufferView":1,
			"componentType":5126,
			"count":24,
			"type":"VEC3"
		},
		{
			"bufferView":2,
			"componentType":5126,
			"count":24,
			"type":"VEC2"
		},
		{
			"bufferView":3,
			"componentType":5123,
			"count":36,
			"type":"SCALAR"
		},
		{
			"bufferView":4,
			"componentType":5126,
			"count":36,
			"max":[
				0.361307829618454,
				4.609861850738525,
				3.6519012451171875
			],
			"min":[
				-0.353933721780777,
				4.223405838012695,
				-0.12670496106147766
			],
			"type":"VEC3"
		},
		{
			"bufferView":5,
			"componentType":5126,
			"count":36,
			"type":"VEC3"
		},
		{
			"bufferView":6,
			"componentType":5126,
			"count":36,
			"type":"VEC2"
		},
		{
			"bufferView":7,
			"componentType":5123,
			"count":60,
			"type":"SCALAR"
		},
		{
			"bufferView":8,
			"componentType":5126,
			"count":24,
			"max":[
				2.6616501808166504,
				2.277218818664551,
				4.854548454284668
			],
			"min":[
				1.3039122819900513,
				0.5895134210586548,
				-0.15810948610305786
			],
			"type":"VEC3"
		},
		{
			"bufferView":9,
			"componentType":5126,
			"count":24,
			"type":"VEC3"
		},
		{
			"bufferView":10,
			"componentType":5126,
			"count":24,
			"type":"VEC2"
		},
		{
			"bufferView":11,
			"componentType":5123,
			"count":36,
			"type":"SCALAR"
		},
		{
			"bufferView":12,
			"componentType":5126,
			"count":24,
			"max":[
				0.0016677983803674579,
				4.483511924743652,
				4.854549407958984
			],
			"min":[
				-1.5640158653259277,
				1.913405179977417,
				-0.15810877084732056
			],
			"type":"VEC3"
		},
		{
			"bufferView":13,
			"componentType":5126,
			"count":24,
			"type":"VEC3"
		},
		{
			"bufferView":14,
			"componentType":5126,
			"count":24,
			"type":"VEC2"
		},
		{
			"bufferView":15,
			"componentType":5123,
			"count":36,
			"type":"SCALAR"
		},
		{
			"bufferView":16,
			"componentType":5126,
			"count":24,
			"max":[
				-1.303911805152893,
				2.277218818664551,
				4.854550361633301
			],
			"min":[
				-2.7757136821746826,
				0.5895134210586548,
				-0.15810829401016235
			],
			"type":"VEC3"
		},
		{
			"bufferView":17,
			"componentType":5126,
			"count":24,
			"type":"VEC3"
		},
		{
			"bufferView":18,
			"componentType":5126,
			"count":24,
			"type":"VEC2"
		},
		{
			"bufferView":19,
			"componentType":5123,
			"count":36,
			"type":"SCALAR"
		},
		{
			"bufferView":20,
			"componentType":5126,
			"count":36,
			"max":[
				0.34127336740493774,
				4.638341903686523,
				4.867490291595459
			],
			"min":[
				-0.3338979184627533,
				4.166517734527588,
				3.668203592300415
			],
			"type":"VEC3"
		},
		{
			"bufferView":21,
			"componentType":5126,
			"count":36,
			"type":"VEC3"
		},
		{
			"bufferView":22,
			"componentType":5126,
			"count":36,
			"type":"VEC2"
		},
		{
			"bufferView":23,
			"componentType":5123,
			"count":60,
			"type":"SCALAR"
		},
		{
			"bufferView":24,
			"componentType":5126,
			"count":24,
			"max":[
				4.188268661499023,
				0.9866089820861816,
				4.854548454284668
			],
			"min":[
				2.3660178184509277,
				-0.8380606174468994,
				-0.15810996294021606
			],
			"type":"VEC3"
		},
		{
			"bufferView":25,
			"componentType":5126,
			"count":24,
			"type":"VEC3"
		},
		{
			"bufferView":26,
			"componentType":5126,
			"count":24,
			"type":"VEC2"
		},
		{
			"bufferView":27,
			"componentType":5123,
			"count":36,
			"type":"SCALAR"
		},
		{
			"bufferView":28,
			"componentType":5126,
			"count":24,
			"max":[
				-2.3660178184509277,
				0.9866089820861816,
				4.854548454284668
			],
			"min":[
				-4.188268661499023,
				-0.8380606174468994,
				-0.15810996294021606
			],
			"type":"VEC3"
		},
		{
			"bufferView":29,
			"componentType":5126,
			"count":24,
			"type":"VEC3"
		},
		{
			"bufferView":30,
			"componentType":5126,
			"count":24,
			"type":"VEC2"
		},
		{
			"bufferView":31,
			"componentType":5123,
			"count":36,
			"type":"SCALAR"
		},
		{
			"bufferView":32,
			"componentType":5126,
			"count":480,
			"max":[
				0.33075323700904846,
				4.6156439781188965,
				4.845734119415283
			],
			"min":[
				-0.33246710896492004,
				4.088809490203857,
				-0.1397646814584732
			],
			"type":"VEC3"
		},
		{
			"bufferView":33,
			"componentType":5126,
			"count":480,
			"type":"VEC3"
		},
		{
			"bufferView":34,
			"componentType":5126,
			"count":480,
			"type":"VEC2"
		},
		{
			"bufferView":35,
			"componentType":5126,
			"count":480,
			"type":"VEC2"
		},
		{
			"bufferView":36,
			"componentType":5123,
			"count":1224,
			"type":"SCALAR"
		},
		{
			"bufferView":37,
			"componentType":5126,
			"count":1298,
			"max":[
				3.958950996398926,
				4.341731071472168,
				4.852980613708496
			],
			"min":[
				-3.958950996398926,
				-0.7821268439292908,
				-0.14947161078453064
			],
			"type":"VEC3"
		},
		{
			"bufferView":38,
			"componentType":5126,
			"count":1298,
			"type":"VEC3"
		},
		{
			"bufferView":39,
			"componentType":5126,
			"count":1298,
			"type":"VEC2"
		},
		{
			"bufferView":40,
			"componentType":5126,
			"count":1298,
			"type":"VEC2"
		},
		{
			"bufferView":41,
			"componentType":5123,
			"count":2268,
			"type":"SCALAR"
		},
		{
			"bufferView":42,
			"componentType":5126,
			"count":838,
			"max":[
				4.12752103805542,
				4.514247894287109,
				4.844181537628174
			],
			"min":[
				-4.12752103805542,
				-0.7364983558654785,
				-0.15014606714248657
			],
			"type":"VEC3"
		},
		{
			"bufferView":43,
			"componentType":5126,
			"count":838,
			"type":"VEC3"
		},
		{
			"bufferView":44,
			"componentType":5126,
			"count":838,
			"type":"VEC2"
		},
		{
			"bufferView":45,
			"componentType":5126,
			"count":838,
			"type":"VEC2"
		},
		{
			"bufferView":46,
			"componentType":5123,
			"count":2724,
			"type":"SCALAR"
		}
	],
	"bufferViews":[
		{
			"buffer":0,
			"byteLength":288,
			"byteOffset":0,
			"target":34962
		},
		{
			"buffer":0,
			"byteLength":288,
			"byteOffset":288,
			"target":34962
		},
		{
			"buffer":0,
			"byteLength":192,
			"byteOffset":576,
			"target":34962
		},
		{
			"buffer":0,
			"byteLength":72,
			"byteOffset":768,
			"target":34963
		},
		{
			"buffer":0,
			"byteLength":432,
			"byteOffset":840,
			"target":34962
		},
		{
			"buffer":0,
			"byteLength":432,
			"byteOffset":1272,
			"target":34962
		},
		{
			"buffer":0,
			"byteLength":288,
			"byteOffset":1704,
			"target":34962
		},
		{
			"buffer":0,
			"byteLength":120,
			"byteOffset":1992,
			"target":34963
		},
		{
			"buffer":0,
			"byteLength":288,
			"byteOffset":2112,
			"target":34962
		},
		{
			"buffer":0,
			"byteLength":288,
			"byteOffset":2400,
			"target":34962
		},
		{
			"buffer":0,
			"byteLength":192,
			"byteOffset":2688,
			"target":34962
		},
		{
			"buffer":0,
			"byteLength":72,
			"byteOffset":2880,
			"target":34963
		},
		{
			"buffer":0,
			"byteLength":288,
			"byteOffset":2952,
			"target":34962
		},
		{
			"buffer":0,
			"byteLength":288,
			"byteOffset":3240,
			"target":34962
		},
		{
			"buffer":0,
			"byteLength":192,
			"byteOffset":3528,
			"target":34962
		},
		{
			"buffer":0,
			"byteLength":72,
			"byteOffset":3720,
			"target":34963
		},
		{
			"buffer":0,
			"byteLength":288,
			"byteOffset":3792,
			"target":34962
		},
		{
			"buffer":0,
			"byteLength":288,
			"byteOffset":4080,
			"target":34962
		},
		{
			"buffer":0,
			"byteLength":192,
			"byteOffset":4368,
			"target":34962
		},
		{
			"buffer":0,
			"byteLength":72,
			"byteOffset":4560,
			"target":34963
		},
		{
			"buffer":0,
			"byteLength":432,
			"byteOffset":4632,
			"target":34962
		},
		{
			"buffer":0,
			"byteLength":432,
			"byteOffset":5064,
			"target":34962
		},
		{
			"buffer":0,
			"byteLength":288,
			"byteOffset":5496,
			"target":34962
		},
		{
			"buffer":0,
			"byteLength":120,
			"byteOffset":5784,
			"target":34963
		},
		{
			"buffer":0,
			"byteLength":288,
			"byteOffset":5904,
			"target":34962
		},
		{
			"buffer":0,
			"byteLength":288,
			"byteOffset":6192,
			"target":34962
		},
		{
			"buffer":0,
			"byteLength":192,
			"byteOffset":6480,
			"target":34962
		},
		{
			"buffer":0,
			"byteLength":72,
			"byteOffset":6672,
			"target":34963
		},
		{
			"buffer":0,
			"byteLength":288,
			"byteOffset":6744,
			"target":34962
		},
		{
			"buffer":0,
			"byteLength":288,
			"byteOffset":7032,
			"target":34962
		},
		{
			"buffer":0,
			"byteLength":192,
			"byteOffset":7320,
			"target":34962
		},
		{
			"buffer":0,
			"byteLength":72,
			"byteOffset":7512,
			"target":34963
		},
		{
			"buffer":0,
			"byteLength":5760,
			"byteOffset":7584,
			"target":34962
		},
		{
			"buffer":0,
			"byteLength":5760,
			"byteOffset":13344,
			"target":34962
		},
		{
			"buffer":0,
			"byteLength":3840,
			"byteOffset":19104,
			"target":34962
		},
		{
			"buffer":0,
			"byteLength":3840,
			"byteOffset":22944,
			"target":34962
		},
		{
			"buffer":0,
			"byteLength":2448,
			"byteOffset":26784,
			"target":34963
		},
		{
			"buffer":0,
			"byteLength":15576,
			"byteOffset":29232,
			"target":34962
		},
		{
			"buffer":0,
			"byteLength":15576,
			"byteOffset":44808,
			"target":34962
		},
		{
			"buffer":0,
			"byteLength":10384,
			"byteOffset":60384,
			"target":34962
		},
		{
			"buffer":0,
			"byteLength":10384,
			"byteOffset":70768,
			"target":34962
		},
		{
			"buffer":0,
			"byteLength":4536,
			"byteOffset":81152,
			"target":34963
		},
		{
			"buffer":0,
			"byteLength":10056,
			"byteOffset":85688,
			"target":34962
		},
		{
			"buffer":0,
			"byteLength":10056,
			"byteOffset":95744,
			"target":34962
		},
		{
			"buffer":0,
			"byteLength":6704,
			"byteOffset":105800,
			"target":34962
		},
		{
			"buffer":0,
			"byteLength":6704,
			"byteOffset":112504,
			"target":34962
		},
		{
			"buffer":0,
			"byteLength":5448,
			"byteOffset":119208,
			"target":34963
		}
	],
	"samplers":[
		{
			"magFilter":9729,
			"minFilter":9987
		}
	],
	"buffers":[
		{
			"byteLength":124656,
			"uri":"Roof_FlatTiles_6x4.bin"
		}
	]
}
