{
	"asset":{
		"generator":"Khronos glTF Blender I/O v4.0.44",
		"version":"2.0"
	},
	"scene":0,
	"scenes":[
		{
			"name":"Scene",
			"nodes":[
				9
			]
		}
	],
	"nodes":[
		{
			"mesh":0,
			"name":"Roof_Dormer_FlatTile_01-convcolonly"
		},
		{
			"mesh":1,
			"name":"Roof_Dormer_FlatTile_02-convcolonly"
		},
		{
			"mesh":2,
			"name":"Roof_Dormer_FlatTile_03-convcolonly"
		},
		{
			"mesh":3,
			"name":"Roof_Dormer_FlatTile_04-convcolonly"
		},
		{
			"mesh":4,
			"name":"Roof_Dormer_FlatTile_05-convcolonly"
		},
		{
			"mesh":5,
			"name":"Roof_Dormer_FlatTile_06-convcolonly"
		},
		{
			"mesh":6,
			"name":"Roof_Dormer_FlatTile_07-convcolonly"
		},
		{
			"mesh":7,
			"name":"Roof_Dormer_FlatTile_08-convcolonly"
		},
		{
			"mesh":8,
			"name":"Roof_Dormer_FlatTile_09-convcolonly"
		},
		{
			"children":[
				0,
				1,
				2,
				3,
				4,
				5,
				6,
				7,
				8
			],
			"mesh":9,
			"name":"Roof_Dormer_FlatTile"
		}
	],
	"materials":[
		{
			"doubleSided":true,
			"name":"Collision",
			"pbrMetallicRoughness":{
				"baseColorFactor":[
					0.05868536978960037,
					0.2907957136631012,
					0.8000074625015259,
					1
				],
				"metallicFactor":0,
				"roughnessFactor":0.5
			}
		},
		{
			"doubleSided":true,
			"name":"MI_WoodTrim",
			"normalTexture":{
				"index":0
			},
			"pbrMetallicRoughness":{
				"baseColorTexture":{
					"index":1
				},
				"metallicFactor":0,
				"metallicRoughnessTexture":{
					"index":2
				}
			}
		},
		{
			"doubleSided":true,
			"name":"MI_Plaster",
			"normalTexture":{
				"index":3
			},
			"pbrMetallicRoughness":{
				"baseColorTexture":{
					"index":4
				},
				"metallicRoughnessTexture":{
					"index":5
				}
			}
		},
		{
			"doubleSided":true,
			"name":"MI_FlatTiles",
			"normalTexture":{
				"index":6
			},
			"pbrMetallicRoughness":{
				"baseColorTexture":{
					"index":7
				},
				"metallicFactor":0,
				"metallicRoughnessTexture":{
					"index":8
				}
			}
		},
		{
			"alphaMode":"BLEND",
			"doubleSided":true,
			"name":"MI_WindowGlass",
			"pbrMetallicRoughness":{
				"baseColorFactor":[
					0.800000011920929,
					0.800000011920929,
					0.800000011920929,
					0.09545451402664185
				],
				"metallicFactor":0,
				"roughnessFactor":0.5
			}
		}
	],
	"meshes":[
		{
			"name":"Cube.1020",
			"primitives":[
				{
					"attributes":{
						"POSITION":0,
						"NORMAL":1,
						"TEXCOORD_0":2
					},
					"indices":3,
					"material":0
				}
			]
		},
		{
			"name":"Cube.1021",
			"primitives":[
				{
					"attributes":{
						"POSITION":4,
						"NORMAL":5,
						"TEXCOORD_0":6
					},
					"indices":7,
					"material":0
				}
			]
		},
		{
			"name":"Cube.1022",
			"primitives":[
				{
					"attributes":{
						"POSITION":8,
						"NORMAL":9,
						"TEXCOORD_0":10
					},
					"indices":11,
					"material":0
				}
			]
		},
		{
			"name":"Cube.1023",
			"primitives":[
				{
					"attributes":{
						"POSITION":12,
						"NORMAL":13,
						"TEXCOORD_0":14
					},
					"indices":15,
					"material":0
				}
			]
		},
		{
			"name":"Cube.1024",
			"primitives":[
				{
					"attributes":{
						"POSITION":16,
						"NORMAL":17,
						"TEXCOORD_0":18
					},
					"indices":19,
					"material":0
				}
			]
		},
		{
			"name":"Cube.1025",
			"primitives":[
				{
					"attributes":{
						"POSITION":20,
						"NORMAL":21,
						"TEXCOORD_0":22
					},
					"indices":23,
					"material":0
				}
			]
		},
		{
			"name":"Cube.1026",
			"primitives":[
				{
					"attributes":{
						"POSITION":24,
						"NORMAL":25,
						"TEXCOORD_0":26
					},
					"indices":27,
					"material":0
				}
			]
		},
		{
			"name":"Cube.1027",
			"primitives":[
				{
					"attributes":{
						"POSITION":28,
						"NORMAL":29,
						"TEXCOORD_0":30
					},
					"indices":31,
					"material":0
				}
			]
		},
		{
			"name":"Cube.1028",
			"primitives":[
				{
					"attributes":{
						"POSITION":32,
						"NORMAL":33,
						"TEXCOORD_0":34
					},
					"indices":35,
					"material":0
				}
			]
		},
		{
			"name":"Cube.168",
			"primitives":[
				{
					"attributes":{
						"POSITION":36,
						"NORMAL":37,
						"TEXCOORD_0":38,
						"TEXCOORD_1":39
					},
					"indices":40,
					"material":1
				},
				{
					"attributes":{
						"POSITION":41,
						"NORMAL":42,
						"TEXCOORD_0":43,
						"TEXCOORD_1":44
					},
					"indices":45,
					"material":2
				},
				{
					"attributes":{
						"POSITION":46,
						"NORMAL":47,
						"TEXCOORD_0":48,
						"TEXCOORD_1":49
					},
					"indices":50,
					"material":3
				},
				{
					"attributes":{
						"POSITION":51,
						"NORMAL":52,
						"TEXCOORD_0":53,
						"TEXCOORD_1":54
					},
					"indices":55,
					"material":4
				}
			]
		}
	],
	"textures":[
		{
			"sampler":0,
			"source":0
		},
		{
			"sampler":0,
			"source":1
		},
		{
			"sampler":0,
			"source":2
		},
		{
			"sampler":0,
			"source":3
		},
		{
			"sampler":0,
			"source":4
		},
		{
			"sampler":0,
			"source":5
		},
		{
			"sampler":0,
			"source":6
		},
		{
			"sampler":0,
			"source":7
		},
		{
			"sampler":0,
			"source":8
		}
	],
	"images":[
		{
			"mimeType":"image/png",
			"name":"T_WoodTrim_Normal",
			"uri":"T_WoodTrim_Normal.png"
		},
		{
			"mimeType":"image/png",
			"name":"T_WoodTrim_BaseColor",
			"uri":"T_WoodTrim_BaseColor.png"
		},
		{
			"mimeType":"image/png",
			"name":"T_WoodTrim_Roughness",
			"uri":"T_WoodTrim_Roughness.png"
		},
		{
			"mimeType":"image/png",
			"name":"T_Plaster_Normal",
			"uri":"T_Plaster_Normal.png"
		},
		{
			"mimeType":"image/png",
			"name":"T_Plaster_BaseColor",
			"uri":"T_Plaster_BaseColor.png"
		},
		{
			"mimeType":"image/png",
			"name":"T_Plaster_ORM",
			"uri":"T_Plaster_ORM.png"
		},
		{
			"mimeType":"image/png",
			"name":"T_FlatTiles_Normal",
			"uri":"T_FlatTiles_Normal.png"
		},
		{
			"mimeType":"image/png",
			"name":"T_FlatTiles_BaseColor",
			"uri":"T_FlatTiles_BaseColor.png"
		},
		{
			"mimeType":"image/png",
			"name":"T_FlatTiles_Roughness",
			"uri":"T_FlatTiles_Roughness.png"
		}
	],
	"accessors":[
		{
			"bufferView":0,
			"componentType":5126,
			"count":24,
			"max":[
				2.1389031410217285,
				1.951899766921997,
				0.38542723655700684
			],
			"min":[
				0.005419254302978516,
				1.7162926197052002,
				-0.0190274715423584
			],
			"type":"VEC3"
		},
		{
			"bufferView":1,
			"componentType":5126,
			"count":24,
			"type":"VEC3"
		},
		{
			"bufferView":2,
			"componentType":5126,
			"count":24,
			"type":"VEC2"
		},
		{
			"bufferView":3,
			"componentType":5123,
			"count":36,
			"type":"SCALAR"
		},
		{
			"bufferView":4,
			"componentType":5126,
			"count":24,
			"max":[
				2.1389026641845703,
				1.8503401279449463,
				-0.35690760612487793
			],
			"min":[
				0.005418956279754639,
				1.398910641670227,
				-0.7892723083496094
			],
			"type":"VEC3"
		},
		{
			"bufferView":5,
			"componentType":5126,
			"count":24,
			"type":"VEC3"
		},
		{
			"bufferView":6,
			"componentType":5126,
			"count":24,
			"type":"VEC2"
		},
		{
			"bufferView":7,
			"componentType":5123,
			"count":36,
			"type":"SCALAR"
		},
		{
			"bufferView":8,
			"componentType":5126,
			"count":24,
			"max":[
				2.1398730278015137,
				1.531690001487732,
				1.0217939615249634
			],
			"min":[
				0.26477599143981934,
				0.9343498945236206,
				0.6890880465507507
			],
			"type":"VEC3"
		},
		{
			"bufferView":9,
			"componentType":5126,
			"count":24,
			"type":"VEC3"
		},
		{
			"bufferView":10,
			"componentType":5126,
			"count":24,
			"type":"VEC2"
		},
		{
			"bufferView":11,
			"componentType":5123,
			"count":36,
			"type":"SCALAR"
		},
		{
			"bufferView":12,
			"componentType":5126,
			"count":24,
			"max":[
				2.1389031410217285,
				1.951899766921997,
				-0.019026637077331543
			],
			"min":[
				0.005418956279754639,
				1.7162926197052002,
				-0.4234822988510132
			],
			"type":"VEC3"
		},
		{
			"bufferView":13,
			"componentType":5126,
			"count":24,
			"type":"VEC3"
		},
		{
			"bufferView":14,
			"componentType":5126,
			"count":24,
			"type":"VEC2"
		},
		{
			"bufferView":15,
			"componentType":5123,
			"count":36,
			"type":"SCALAR"
		},
		{
			"bufferView":16,
			"componentType":5126,
			"count":24,
			"max":[
				2.1389031410217285,
				1.8503401279449463,
				0.7512180805206299
			],
			"min":[
				0.005419254302978516,
				1.398910641670227,
				0.3188525438308716
			],
			"type":"VEC3"
		},
		{
			"bufferView":17,
			"componentType":5126,
			"count":24,
			"type":"VEC3"
		},
		{
			"bufferView":18,
			"componentType":5126,
			"count":24,
			"type":"VEC2"
		},
		{
			"bufferView":19,
			"componentType":5123,
			"count":36,
			"type":"SCALAR"
		},
		{
			"bufferView":20,
			"componentType":5126,
			"count":24,
			"max":[
				2.1398725509643555,
				1.531690001487732,
				-0.7271429300308228
			],
			"min":[
				0.2647750973701477,
				0.9343498945236206,
				-1.0598492622375488
			],
			"type":"VEC3"
		},
		{
			"bufferView":21,
			"componentType":5126,
			"count":24,
			"type":"VEC3"
		},
		{
			"bufferView":22,
			"componentType":5126,
			"count":24,
			"type":"VEC2"
		},
		{
			"bufferView":23,
			"componentType":5123,
			"count":36,
			"type":"SCALAR"
		},
		{
			"bufferView":24,
			"componentType":5126,
			"count":54,
			"max":[
				1.8577337265014648,
				1.735935926437378,
				0.7955378293991089
			],
			"min":[
				1.6079440116882324,
				0.002995610237121582,
				-0.8335920572280884
			],
			"type":"VEC3"
		},
		{
			"bufferView":25,
			"componentType":5126,
			"count":54,
			"type":"VEC3"
		},
		{
			"bufferView":26,
			"componentType":5126,
			"count":54,
			"type":"VEC2"
		},
		{
			"bufferView":27,
			"componentType":5123,
			"count":108,
			"type":"SCALAR"
		},
		{
			"bufferView":28,
			"componentType":5126,
			"count":24,
			"max":[
				1.8577337265014648,
				1.431454062461853,
				0.7955378890037537
			],
			"min":[
				0.3720221519470215,
				0.002995610237121582,
				0.618954062461853
			],
			"type":"VEC3"
		},
		{
			"bufferView":29,
			"componentType":5126,
			"count":24,
			"type":"VEC3"
		},
		{
			"bufferView":30,
			"componentType":5126,
			"count":24,
			"type":"VEC2"
		},
		{
			"bufferView":31,
			"componentType":5123,
			"count":36,
			"type":"SCALAR"
		},
		{
			"bufferView":32,
			"componentType":5126,
			"count":24,
			"max":[
				1.8577337265014648,
				1.431454062461853,
				-0.6570082902908325
			],
			"min":[
				0.37202203273773193,
				0.002995610237121582,
				-0.8335920572280884
			],
			"type":"VEC3"
		},
		{
			"bufferView":33,
			"componentType":5126,
			"count":24,
			"type":"VEC3"
		},
		{
			"bufferView":34,
			"componentType":5126,
			"count":24,
			"type":"VEC2"
		},
		{
			"bufferView":35,
			"componentType":5123,
			"count":36,
			"type":"SCALAR"
		},
		{
			"bufferView":36,
			"componentType":5126,
			"count":608,
			"max":[
				1.8913874626159668,
				1.848653793334961,
				0.8708664178848267
			],
			"min":[
				0.37738314270973206,
				0.01067015528678894,
				-0.8569028377532959
			],
			"type":"VEC3"
		},
		{
			"bufferView":37,
			"componentType":5126,
			"count":608,
			"type":"VEC3"
		},
		{
			"bufferView":38,
			"componentType":5126,
			"count":608,
			"type":"VEC2"
		},
		{
			"bufferView":39,
			"componentType":5126,
			"count":608,
			"type":"VEC2"
		},
		{
			"bufferView":40,
			"componentType":5123,
			"count":996,
			"type":"SCALAR"
		},
		{
			"bufferView":41,
			"componentType":5126,
			"count":88,
			"max":[
				1.7800445556640625,
				1.8569061756134033,
				0.7230108380317688
			],
			"min":[
				0.34622669219970703,
				0.05461740493774414,
				-0.7205518484115601
			],
			"type":"VEC3"
		},
		{
			"bufferView":42,
			"componentType":5126,
			"count":88,
			"type":"VEC3"
		},
		{
			"bufferView":43,
			"componentType":5126,
			"count":88,
			"type":"VEC2"
		},
		{
			"bufferView":44,
			"componentType":5126,
			"count":88,
			"type":"VEC2"
		},
		{
			"bufferView":45,
			"componentType":5123,
			"count":240,
			"type":"SCALAR"
		},
		{
			"bufferView":46,
			"componentType":5126,
			"count":84,
			"max":[
				2.1375699043273926,
				1.9108400344848633,
				1.030438780784607
			],
			"min":[
				0.04211324453353882,
				0.937466025352478,
				-1.0224263668060303
			],
			"type":"VEC3"
		},
		{
			"bufferView":47,
			"componentType":5126,
			"count":84,
			"type":"VEC3"
		},
		{
			"bufferView":48,
			"componentType":5126,
			"count":84,
			"type":"VEC2"
		},
		{
			"bufferView":49,
			"componentType":5126,
			"count":84,
			"type":"VEC2"
		},
		{
			"bufferView":50,
			"componentType":5123,
			"count":204,
			"type":"SCALAR"
		},
		{
			"bufferView":51,
			"componentType":5126,
			"count":148,
			"max":[
				1.7838306427001953,
				1.017635464668274,
				0.4391106963157654
			],
			"min":[
				1.7838304042816162,
				0.22999072074890137,
				-0.43071889877319336
			],
			"type":"VEC3"
		},
		{
			"bufferView":52,
			"componentType":5126,
			"count":148,
			"type":"VEC3"
		},
		{
			"bufferView":53,
			"componentType":5126,
			"count":148,
			"type":"VEC2"
		},
		{
			"bufferView":54,
			"componentType":5126,
			"count":148,
			"type":"VEC2"
		},
		{
			"bufferView":55,
			"componentType":5123,
			"count":222,
			"type":"SCALAR"
		}
	],
	"bufferViews":[
		{
			"buffer":0,
			"byteLength":288,
			"byteOffset":0,
			"target":34962
		},
		{
			"buffer":0,
			"byteLength":288,
			"byteOffset":288,
			"target":34962
		},
		{
			"buffer":0,
			"byteLength":192,
			"byteOffset":576,
			"target":34962
		},
		{
			"buffer":0,
			"byteLength":72,
			"byteOffset":768,
			"target":34963
		},
		{
			"buffer":0,
			"byteLength":288,
			"byteOffset":840,
			"target":34962
		},
		{
			"buffer":0,
			"byteLength":288,
			"byteOffset":1128,
			"target":34962
		},
		{
			"buffer":0,
			"byteLength":192,
			"byteOffset":1416,
			"target":34962
		},
		{
			"buffer":0,
			"byteLength":72,
			"byteOffset":1608,
			"target":34963
		},
		{
			"buffer":0,
			"byteLength":288,
			"byteOffset":1680,
			"target":34962
		},
		{
			"buffer":0,
			"byteLength":288,
			"byteOffset":1968,
			"target":34962
		},
		{
			"buffer":0,
			"byteLength":192,
			"byteOffset":2256,
			"target":34962
		},
		{
			"buffer":0,
			"byteLength":72,
			"byteOffset":2448,
			"target":34963
		},
		{
			"buffer":0,
			"byteLength":288,
			"byteOffset":2520,
			"target":34962
		},
		{
			"buffer":0,
			"byteLength":288,
			"byteOffset":2808,
			"target":34962
		},
		{
			"buffer":0,
			"byteLength":192,
			"byteOffset":3096,
			"target":34962
		},
		{
			"buffer":0,
			"byteLength":72,
			"byteOffset":3288,
			"target":34963
		},
		{
			"buffer":0,
			"byteLength":288,
			"byteOffset":3360,
			"target":34962
		},
		{
			"buffer":0,
			"byteLength":288,
			"byteOffset":3648,
			"target":34962
		},
		{
			"buffer":0,
			"byteLength":192,
			"byteOffset":3936,
			"target":34962
		},
		{
			"buffer":0,
			"byteLength":72,
			"byteOffset":4128,
			"target":34963
		},
		{
			"buffer":0,
			"byteLength":288,
			"byteOffset":4200,
			"target":34962
		},
		{
			"buffer":0,
			"byteLength":288,
			"byteOffset":4488,
			"target":34962
		},
		{
			"buffer":0,
			"byteLength":192,
			"byteOffset":4776,
			"target":34962
		},
		{
			"buffer":0,
			"byteLength":72,
			"byteOffset":4968,
			"target":34963
		},
		{
			"buffer":0,
			"byteLength":648,
			"byteOffset":5040,
			"target":34962
		},
		{
			"buffer":0,
			"byteLength":648,
			"byteOffset":5688,
			"target":34962
		},
		{
			"buffer":0,
			"byteLength":432,
			"byteOffset":6336,
			"target":34962
		},
		{
			"buffer":0,
			"byteLength":216,
			"byteOffset":6768,
			"target":34963
		},
		{
			"buffer":0,
			"byteLength":288,
			"byteOffset":6984,
			"target":34962
		},
		{
			"buffer":0,
			"byteLength":288,
			"byteOffset":7272,
			"target":34962
		},
		{
			"buffer":0,
			"byteLength":192,
			"byteOffset":7560,
			"target":34962
		},
		{
			"buffer":0,
			"byteLength":72,
			"byteOffset":7752,
			"target":34963
		},
		{
			"buffer":0,
			"byteLength":288,
			"byteOffset":7824,
			"target":34962
		},
		{
			"buffer":0,
			"byteLength":288,
			"byteOffset":8112,
			"target":34962
		},
		{
			"buffer":0,
			"byteLength":192,
			"byteOffset":8400,
			"target":34962
		},
		{
			"buffer":0,
			"byteLength":72,
			"byteOffset":8592,
			"target":34963
		},
		{
			"buffer":0,
			"byteLength":7296,
			"byteOffset":8664,
			"target":34962
		},
		{
			"buffer":0,
			"byteLength":7296,
			"byteOffset":15960,
			"target":34962
		},
		{
			"buffer":0,
			"byteLength":4864,
			"byteOffset":23256,
			"target":34962
		},
		{
			"buffer":0,
			"byteLength":4864,
			"byteOffset":28120,
			"target":34962
		},
		{
			"buffer":0,
			"byteLength":1992,
			"byteOffset":32984,
			"target":34963
		},
		{
			"buffer":0,
			"byteLength":1056,
			"byteOffset":34976,
			"target":34962
		},
		{
			"buffer":0,
			"byteLength":1056,
			"byteOffset":36032,
			"target":34962
		},
		{
			"buffer":0,
			"byteLength":704,
			"byteOffset":37088,
			"target":34962
		},
		{
			"buffer":0,
			"byteLength":704,
			"byteOffset":37792,
			"target":34962
		},
		{
			"buffer":0,
			"byteLength":480,
			"byteOffset":38496,
			"target":34963
		},
		{
			"buffer":0,
			"byteLength":1008,
			"byteOffset":38976,
			"target":34962
		},
		{
			"buffer":0,
			"byteLength":1008,
			"byteOffset":39984,
			"target":34962
		},
		{
			"buffer":0,
			"byteLength":672,
			"byteOffset":40992,
			"target":34962
		},
		{
			"buffer":0,
			"byteLength":672,
			"byteOffset":41664,
			"target":34962
		},
		{
			"buffer":0,
			"byteLength":408,
			"byteOffset":42336,
			"target":34963
		},
		{
			"buffer":0,
			"byteLength":1776,
			"byteOffset":42744,
			"target":34962
		},
		{
			"buffer":0,
			"byteLength":1776,
			"byteOffset":44520,
			"target":34962
		},
		{
			"buffer":0,
			"byteLength":1184,
			"byteOffset":46296,
			"target":34962
		},
		{
			"buffer":0,
			"byteLength":1184,
			"byteOffset":47480,
			"target":34962
		},
		{
			"buffer":0,
			"byteLength":444,
			"byteOffset":48664,
			"target":34963
		}
	],
	"samplers":[
		{
			"magFilter":9729,
			"minFilter":9987
		}
	],
	"buffers":[
		{
			"byteLength":49108,
			"uri":"Roof_Dormer_FlatTile.bin"
		}
	]
}
