{
	"asset":{
		"generator":"Khronos glTF Blender I/O v4.0.44",
		"version":"2.0"
	},
	"scene":0,
	"scenes":[
		{
			"name":"Scene",
			"nodes":[
				6
			]
		}
	],
	"nodes":[
		{
			"mesh":0,
			"name":"Roof_Modular_FlatTiles_4_R_01-convcolonly"
		},
		{
			"mesh":1,
			"name":"Roof_Modular_FlatTiles_4_R_02-convcolonly"
		},
		{
			"mesh":2,
			"name":"Roof_Modular_FlatTiles_4_R_03-convcolonly"
		},
		{
			"mesh":3,
			"name":"Roof_Modular_FlatTiles_4_R_04-convcolonly"
		},
		{
			"mesh":4,
			"name":"Roof_Modular_FlatTiles_4_R_05-convcolonly"
		},
		{
			"mesh":5,
			"name":"Roof_Modular_FlatTiles_4_R_06-convcolonly"
		},
		{
			"children":[
				0,
				1,
				2,
				3,
				4,
				5
			],
			"mesh":6,
			"name":"Roof_Modular_FlatTiles_4_R"
		}
	],
	"materials":[
		{
			"doubleSided":true,
			"name":"Collision",
			"pbrMetallicRoughness":{
				"baseColorFactor":[
					0.05868536978960037,
					0.2907957136631012,
					0.8000074625015259,
					1
				],
				"metallicFactor":0,
				"roughnessFactor":0.5
			}
		},
		{
			"doubleSided":true,
			"name":"MI_WoodTrim",
			"normalTexture":{
				"index":0
			},
			"pbrMetallicRoughness":{
				"baseColorTexture":{
					"index":1
				},
				"metallicFactor":0,
				"metallicRoughnessTexture":{
					"index":2
				}
			}
		},
		{
			"doubleSided":true,
			"name":"MI_RoundTiles",
			"normalTexture":{
				"index":3
			},
			"pbrMetallicRoughness":{
				"baseColorTexture":{
					"index":4
				},
				"metallicFactor":0,
				"metallicRoughnessTexture":{
					"index":5
				}
			}
		},
		{
			"doubleSided":true,
			"name":"MI_FlatTiles",
			"normalTexture":{
				"index":6
			},
			"pbrMetallicRoughness":{
				"baseColorTexture":{
					"index":7
				},
				"metallicFactor":0,
				"metallicRoughnessTexture":{
					"index":8
				}
			}
		}
	],
	"meshes":[
		{
			"name":"Cube.1612",
			"primitives":[
				{
					"attributes":{
						"POSITION":0,
						"NORMAL":1,
						"TEXCOORD_0":2
					},
					"indices":3,
					"material":0
				}
			]
		},
		{
			"name":"Cube.1613",
			"primitives":[
				{
					"attributes":{
						"POSITION":4,
						"NORMAL":5,
						"TEXCOORD_0":6
					},
					"indices":7,
					"material":0
				}
			]
		},
		{
			"name":"Cube.1614",
			"primitives":[
				{
					"attributes":{
						"POSITION":8,
						"NORMAL":9,
						"TEXCOORD_0":10
					},
					"indices":11,
					"material":0
				}
			]
		},
		{
			"name":"Cube.1615",
			"primitives":[
				{
					"attributes":{
						"POSITION":12,
						"NORMAL":13,
						"TEXCOORD_0":14
					},
					"indices":15,
					"material":0
				}
			]
		},
		{
			"name":"Cube.1616",
			"primitives":[
				{
					"attributes":{
						"POSITION":16,
						"NORMAL":17,
						"TEXCOORD_0":18
					},
					"indices":19,
					"material":0
				}
			]
		},
		{
			"name":"Cube.1617",
			"primitives":[
				{
					"attributes":{
						"POSITION":20,
						"NORMAL":21,
						"TEXCOORD_0":22
					},
					"indices":23,
					"material":0
				}
			]
		},
		{
			"name":"Cube.228",
			"primitives":[
				{
					"attributes":{
						"POSITION":24,
						"NORMAL":25,
						"TEXCOORD_0":26,
						"TEXCOORD_1":27
					},
					"indices":28,
					"material":1
				},
				{
					"attributes":{
						"POSITION":29,
						"NORMAL":30,
						"TEXCOORD_0":31,
						"TEXCOORD_1":32
					},
					"indices":33,
					"material":2
				},
				{
					"attributes":{
						"POSITION":34,
						"NORMAL":35,
						"TEXCOORD_0":36,
						"TEXCOORD_1":37
					},
					"indices":38,
					"material":3
				}
			]
		}
	],
	"textures":[
		{
			"sampler":0,
			"source":0
		},
		{
			"sampler":0,
			"source":1
		},
		{
			"sampler":0,
			"source":2
		},
		{
			"sampler":0,
			"source":3
		},
		{
			"sampler":0,
			"source":4
		},
		{
			"sampler":0,
			"source":5
		},
		{
			"sampler":0,
			"source":6
		},
		{
			"sampler":0,
			"source":7
		},
		{
			"sampler":0,
			"source":8
		}
	],
	"images":[
		{
			"mimeType":"image/png",
			"name":"T_WoodTrim_Normal",
			"uri":"T_WoodTrim_Normal.png"
		},
		{
			"mimeType":"image/png",
			"name":"T_WoodTrim_BaseColor",
			"uri":"T_WoodTrim_BaseColor.png"
		},
		{
			"mimeType":"image/png",
			"name":"T_WoodTrim_Roughness",
			"uri":"T_WoodTrim_Roughness.png"
		},
		{
			"mimeType":"image/png",
			"name":"T_RoundTiles_Normal",
			"uri":"T_RoundTiles_Normal.png"
		},
		{
			"mimeType":"image/png",
			"name":"T_RoundTiles_BaseColor",
			"uri":"T_RoundTiles_BaseColor.png"
		},
		{
			"mimeType":"image/png",
			"name":"T_RoundTiles_Roughness",
			"uri":"T_RoundTiles_Roughness.png"
		},
		{
			"mimeType":"image/png",
			"name":"T_FlatTiles_Normal",
			"uri":"T_FlatTiles_Normal.png"
		},
		{
			"mimeType":"image/png",
			"name":"T_FlatTiles_BaseColor",
			"uri":"T_FlatTiles_BaseColor.png"
		},
		{
			"mimeType":"image/png",
			"name":"T_FlatTiles_Roughness",
			"uri":"T_FlatTiles_Roughness.png"
		}
	],
	"accessors":[
		{
			"bufferView":0,
			"componentType":5126,
			"count":24,
			"max":[
				2.7237000465393066,
				0.9875379800796509,
				0.9837334752082825
			],
			"min":[
				1.4186744689941406,
				-0.5602136850357056,
				-1.0000033378601074
			],
			"type":"VEC3"
		},
		{
			"bufferView":1,
			"componentType":5126,
			"count":24,
			"type":"VEC3"
		},
		{
			"bufferView":2,
			"componentType":5126,
			"count":24,
			"type":"VEC2"
		},
		{
			"bufferView":3,
			"componentType":5123,
			"count":36,
			"type":"SCALAR"
		},
		{
			"bufferView":4,
			"componentType":5126,
			"count":36,
			"max":[
				0.37111249566078186,
				3.5772552490234375,
				1.0545501708984375
			],
			"min":[
				-0.3539327085018158,
				3.025960922241211,
				-0.24673819541931152
			],
			"type":"VEC3"
		},
		{
			"bufferView":5,
			"componentType":5126,
			"count":36,
			"type":"VEC3"
		},
		{
			"bufferView":6,
			"componentType":5126,
			"count":36,
			"type":"VEC2"
		},
		{
			"bufferView":7,
			"componentType":5123,
			"count":60,
			"type":"SCALAR"
		},
		{
			"bufferView":8,
			"componentType":5126,
			"count":24,
			"max":[
				0.0016677983803674579,
				3.357370376586914,
				0.9837306141853333
			],
			"min":[
				-1.7295626401901245,
				0.6483423709869385,
				-1.000002384185791
			],
			"type":"VEC3"
		},
		{
			"bufferView":9,
			"componentType":5126,
			"count":24,
			"type":"VEC3"
		},
		{
			"bufferView":10,
			"componentType":5126,
			"count":24,
			"type":"VEC2"
		},
		{
			"bufferView":11,
			"componentType":5123,
			"count":36,
			"type":"SCALAR"
		},
		{
			"bufferView":12,
			"componentType":5126,
			"count":24,
			"max":[
				-1.4186744689941406,
				0.9875379800796509,
				0.9837320446968079
			],
			"min":[
				-2.7237000465393066,
				-0.5602136850357056,
				-1.0000009536743164
			],
			"type":"VEC3"
		},
		{
			"bufferView":13,
			"componentType":5126,
			"count":24,
			"type":"VEC3"
		},
		{
			"bufferView":14,
			"componentType":5126,
			"count":24,
			"type":"VEC2"
		},
		{
			"bufferView":15,
			"componentType":5123,
			"count":36,
			"type":"SCALAR"
		},
		{
			"bufferView":16,
			"componentType":5126,
			"count":24,
			"max":[
				1.7295626401901245,
				3.357370376586914,
				0.9837320446968079
			],
			"min":[
				-0.0016677983803674579,
				0.6483423709869385,
				-1.0000038146972656
			],
			"type":"VEC3"
		},
		{
			"bufferView":17,
			"componentType":5126,
			"count":24,
			"type":"VEC3"
		},
		{
			"bufferView":18,
			"componentType":5126,
			"count":24,
			"type":"VEC2"
		},
		{
			"bufferView":19,
			"componentType":5123,
			"count":36,
			"type":"SCALAR"
		},
		{
			"bufferView":20,
			"componentType":5126,
			"count":36,
			"max":[
				0.37111249566078186,
				3.5772552490234375,
				0.09889233112335205
			],
			"min":[
				-0.3539327085018158,
				3.025960922241211,
				-1.2023959159851074
			],
			"type":"VEC3"
		},
		{
			"bufferView":21,
			"componentType":5126,
			"count":36,
			"type":"VEC3"
		},
		{
			"bufferView":22,
			"componentType":5126,
			"count":36,
			"type":"VEC2"
		},
		{
			"bufferView":23,
			"componentType":5123,
			"count":60,
			"type":"SCALAR"
		},
		{
			"bufferView":24,
			"componentType":5126,
			"count":432,
			"max":[
				2.612257957458496,
				3.2241733074188232,
				0.9999992847442627
			],
			"min":[
				-2.612257957458496,
				-0.5222746729850769,
				-0.978710412979126
			],
			"type":"VEC3"
		},
		{
			"bufferView":25,
			"componentType":5126,
			"count":432,
			"type":"VEC3"
		},
		{
			"bufferView":26,
			"componentType":5126,
			"count":432,
			"type":"VEC2"
		},
		{
			"bufferView":27,
			"componentType":5126,
			"count":432,
			"type":"VEC2"
		},
		{
			"bufferView":28,
			"componentType":5123,
			"count":756,
			"type":"SCALAR"
		},
		{
			"bufferView":29,
			"componentType":5126,
			"count":160,
			"max":[
				0.3307531774044037,
				3.5823886394500732,
				1.2039344310760498
			],
			"min":[
				-0.33246704936027527,
				3.0769059658050537,
				-1.047724723815918
			],
			"type":"VEC3"
		},
		{
			"bufferView":30,
			"componentType":5126,
			"count":160,
			"type":"VEC3"
		},
		{
			"bufferView":31,
			"componentType":5126,
			"count":160,
			"type":"VEC2"
		},
		{
			"bufferView":32,
			"componentType":5126,
			"count":160,
			"type":"VEC2"
		},
		{
			"bufferView":33,
			"componentType":5123,
			"count":408,
			"type":"SCALAR"
		},
		{
			"bufferView":34,
			"componentType":5126,
			"count":208,
			"max":[
				2.697944402694702,
				3.372676134109497,
				0.9999997615814209
			],
			"min":[
				-2.697944402694702,
				-0.3882905840873718,
				-0.9400255680084229
			],
			"type":"VEC3"
		},
		{
			"bufferView":35,
			"componentType":5126,
			"count":208,
			"type":"VEC3"
		},
		{
			"bufferView":36,
			"componentType":5126,
			"count":208,
			"type":"VEC2"
		},
		{
			"bufferView":37,
			"componentType":5126,
			"count":208,
			"type":"VEC2"
		},
		{
			"bufferView":38,
			"componentType":5123,
			"count":642,
			"type":"SCALAR"
		}
	],
	"bufferViews":[
		{
			"buffer":0,
			"byteLength":288,
			"byteOffset":0,
			"target":34962
		},
		{
			"buffer":0,
			"byteLength":288,
			"byteOffset":288,
			"target":34962
		},
		{
			"buffer":0,
			"byteLength":192,
			"byteOffset":576,
			"target":34962
		},
		{
			"buffer":0,
			"byteLength":72,
			"byteOffset":768,
			"target":34963
		},
		{
			"buffer":0,
			"byteLength":432,
			"byteOffset":840,
			"target":34962
		},
		{
			"buffer":0,
			"byteLength":432,
			"byteOffset":1272,
			"target":34962
		},
		{
			"buffer":0,
			"byteLength":288,
			"byteOffset":1704,
			"target":34962
		},
		{
			"buffer":0,
			"byteLength":120,
			"byteOffset":1992,
			"target":34963
		},
		{
			"buffer":0,
			"byteLength":288,
			"byteOffset":2112,
			"target":34962
		},
		{
			"buffer":0,
			"byteLength":288,
			"byteOffset":2400,
			"target":34962
		},
		{
			"buffer":0,
			"byteLength":192,
			"byteOffset":2688,
			"target":34962
		},
		{
			"buffer":0,
			"byteLength":72,
			"byteOffset":2880,
			"target":34963
		},
		{
			"buffer":0,
			"byteLength":288,
			"byteOffset":2952,
			"target":34962
		},
		{
			"buffer":0,
			"byteLength":288,
			"byteOffset":3240,
			"target":34962
		},
		{
			"buffer":0,
			"byteLength":192,
			"byteOffset":3528,
			"target":34962
		},
		{
			"buffer":0,
			"byteLength":72,
			"byteOffset":3720,
			"target":34963
		},
		{
			"buffer":0,
			"byteLength":288,
			"byteOffset":3792,
			"target":34962
		},
		{
			"buffer":0,
			"byteLength":288,
			"byteOffset":4080,
			"target":34962
		},
		{
			"buffer":0,
			"byteLength":192,
			"byteOffset":4368,
			"target":34962
		},
		{
			"buffer":0,
			"byteLength":72,
			"byteOffset":4560,
			"target":34963
		},
		{
			"buffer":0,
			"byteLength":432,
			"byteOffset":4632,
			"target":34962
		},
		{
			"buffer":0,
			"byteLength":432,
			"byteOffset":5064,
			"target":34962
		},
		{
			"buffer":0,
			"byteLength":288,
			"byteOffset":5496,
			"target":34962
		},
		{
			"buffer":0,
			"byteLength":120,
			"byteOffset":5784,
			"target":34963
		},
		{
			"buffer":0,
			"byteLength":5184,
			"byteOffset":5904,
			"target":34962
		},
		{
			"buffer":0,
			"byteLength":5184,
			"byteOffset":11088,
			"target":34962
		},
		{
			"buffer":0,
			"byteLength":3456,
			"byteOffset":16272,
			"target":34962
		},
		{
			"buffer":0,
			"byteLength":3456,
			"byteOffset":19728,
			"target":34962
		},
		{
			"buffer":0,
			"byteLength":1512,
			"byteOffset":23184,
			"target":34963
		},
		{
			"buffer":0,
			"byteLength":1920,
			"byteOffset":24696,
			"target":34962
		},
		{
			"buffer":0,
			"byteLength":1920,
			"byteOffset":26616,
			"target":34962
		},
		{
			"buffer":0,
			"byteLength":1280,
			"byteOffset":28536,
			"target":34962
		},
		{
			"buffer":0,
			"byteLength":1280,
			"byteOffset":29816,
			"target":34962
		},
		{
			"buffer":0,
			"byteLength":816,
			"byteOffset":31096,
			"target":34963
		},
		{
			"buffer":0,
			"byteLength":2496,
			"byteOffset":31912,
			"target":34962
		},
		{
			"buffer":0,
			"byteLength":2496,
			"byteOffset":34408,
			"target":34962
		},
		{
			"buffer":0,
			"byteLength":1664,
			"byteOffset":36904,
			"target":34962
		},
		{
			"buffer":0,
			"byteLength":1664,
			"byteOffset":38568,
			"target":34962
		},
		{
			"buffer":0,
			"byteLength":1284,
			"byteOffset":40232,
			"target":34963
		}
	],
	"samplers":[
		{
			"magFilter":9729,
			"minFilter":9987
		}
	],
	"buffers":[
		{
			"byteLength":41516,
			"uri":"Roof_Modular_FlatTiles_4_R.bin"
		}
	]
}
