{
	"asset":{
		"generator":"Khronos glTF Blender I/O v4.0.44",
		"version":"2.0"
	},
	"scene":0,
	"scenes":[
		{
			"name":"Scene",
			"nodes":[
				10
			]
		}
	],
	"nodes":[
		{
			"mesh":0,
			"name":"Roof_FlatTiles_8x12_01-convcolonly"
		},
		{
			"mesh":1,
			"name":"Roof_FlatTiles_8x12_02-convcolonly"
		},
		{
			"mesh":2,
			"name":"Roof_FlatTiles_8x12_03-convcolonly"
		},
		{
			"mesh":3,
			"name":"Roof_FlatTiles_8x12_04-convcolonly"
		},
		{
			"mesh":4,
			"name":"Roof_FlatTiles_8x12_05-convcolonly"
		},
		{
			"mesh":5,
			"name":"Roof_FlatTiles_8x12_06-convcolonly"
		},
		{
			"mesh":6,
			"name":"Roof_FlatTiles_8x12_07-convcolonly"
		},
		{
			"mesh":7,
			"name":"Roof_FlatTiles_8x12_08-convcolonly"
		},
		{
			"mesh":8,
			"name":"Roof_FlatTiles_8x12_09-convcolonly"
		},
		{
			"mesh":9,
			"name":"Roof_FlatTiles_8x12_10-convcolonly"
		},
		{
			"children":[
				0,
				1,
				2,
				3,
				4,
				5,
				6,
				7,
				8,
				9
			],
			"mesh":10,
			"name":"Roof_FlatTiles_8x12"
		}
	],
	"materials":[
		{
			"doubleSided":true,
			"name":"Collision",
			"pbrMetallicRoughness":{
				"baseColorFactor":[
					0.05868536978960037,
					0.2907957136631012,
					0.8000074625015259,
					1
				],
				"metallicFactor":0,
				"roughnessFactor":0.5
			}
		},
		{
			"doubleSided":true,
			"name":"MI_WoodTrim",
			"normalTexture":{
				"index":0
			},
			"pbrMetallicRoughness":{
				"baseColorTexture":{
					"index":1
				},
				"metallicFactor":0,
				"metallicRoughnessTexture":{
					"index":2
				}
			}
		},
		{
			"doubleSided":true,
			"name":"MI_FlatTiles",
			"normalTexture":{
				"index":3
			},
			"pbrMetallicRoughness":{
				"baseColorTexture":{
					"index":4
				},
				"metallicFactor":0,
				"metallicRoughnessTexture":{
					"index":5
				}
			}
		},
		{
			"doubleSided":true,
			"name":"MI_RoundTiles",
			"normalTexture":{
				"index":6
			},
			"pbrMetallicRoughness":{
				"baseColorTexture":{
					"index":7
				},
				"metallicFactor":0,
				"metallicRoughnessTexture":{
					"index":8
				}
			}
		}
	],
	"meshes":[
		{
			"name":"Cube.1480",
			"primitives":[
				{
					"attributes":{
						"POSITION":0,
						"NORMAL":1,
						"TEXCOORD_0":2
					},
					"indices":3,
					"material":0
				}
			]
		},
		{
			"name":"Cube.1481",
			"primitives":[
				{
					"attributes":{
						"POSITION":4,
						"NORMAL":5,
						"TEXCOORD_0":6
					},
					"indices":7,
					"material":0
				}
			]
		},
		{
			"name":"Cube.1482",
			"primitives":[
				{
					"attributes":{
						"POSITION":8,
						"NORMAL":9,
						"TEXCOORD_0":10
					},
					"indices":11,
					"material":0
				}
			]
		},
		{
			"name":"Cube.1483",
			"primitives":[
				{
					"attributes":{
						"POSITION":12,
						"NORMAL":13,
						"TEXCOORD_0":14
					},
					"indices":15,
					"material":0
				}
			]
		},
		{
			"name":"Cube.1484",
			"primitives":[
				{
					"attributes":{
						"POSITION":16,
						"NORMAL":17,
						"TEXCOORD_0":18
					},
					"indices":19,
					"material":0
				}
			]
		},
		{
			"name":"Cube.1485",
			"primitives":[
				{
					"attributes":{
						"POSITION":20,
						"NORMAL":21,
						"TEXCOORD_0":22
					},
					"indices":23,
					"material":0
				}
			]
		},
		{
			"name":"Cube.1486",
			"primitives":[
				{
					"attributes":{
						"POSITION":24,
						"NORMAL":25,
						"TEXCOORD_0":26
					},
					"indices":27,
					"material":0
				}
			]
		},
		{
			"name":"Cube.1487",
			"primitives":[
				{
					"attributes":{
						"POSITION":28,
						"NORMAL":29,
						"TEXCOORD_0":30
					},
					"indices":31,
					"material":0
				}
			]
		},
		{
			"name":"Cube.1488",
			"primitives":[
				{
					"attributes":{
						"POSITION":32,
						"NORMAL":33,
						"TEXCOORD_0":34
					},
					"indices":35,
					"material":0
				}
			]
		},
		{
			"name":"Cube.1489",
			"primitives":[
				{
					"attributes":{
						"POSITION":36,
						"NORMAL":37,
						"TEXCOORD_0":38
					},
					"indices":39,
					"material":0
				}
			]
		},
		{
			"name":"Cube.104",
			"primitives":[
				{
					"attributes":{
						"POSITION":40,
						"NORMAL":41,
						"TEXCOORD_0":42,
						"TEXCOORD_1":43
					},
					"indices":44,
					"material":1
				},
				{
					"attributes":{
						"POSITION":45,
						"NORMAL":46,
						"TEXCOORD_0":47,
						"TEXCOORD_1":48
					},
					"indices":49,
					"material":2
				},
				{
					"attributes":{
						"POSITION":50,
						"NORMAL":51,
						"TEXCOORD_0":52,
						"TEXCOORD_1":53
					},
					"indices":54,
					"material":3
				}
			]
		}
	],
	"textures":[
		{
			"sampler":0,
			"source":0
		},
		{
			"sampler":0,
			"source":1
		},
		{
			"sampler":0,
			"source":2
		},
		{
			"sampler":0,
			"source":3
		},
		{
			"sampler":0,
			"source":4
		},
		{
			"sampler":0,
			"source":5
		},
		{
			"sampler":0,
			"source":6
		},
		{
			"sampler":0,
			"source":7
		},
		{
			"sampler":0,
			"source":8
		}
	],
	"images":[
		{
			"mimeType":"image/png",
			"name":"T_WoodTrim_Normal",
			"uri":"T_WoodTrim_Normal.png"
		},
		{
			"mimeType":"image/png",
			"name":"T_WoodTrim_BaseColor",
			"uri":"T_WoodTrim_BaseColor.png"
		},
		{
			"mimeType":"image/png",
			"name":"T_WoodTrim_Roughness",
			"uri":"T_WoodTrim_Roughness.png"
		},
		{
			"mimeType":"image/png",
			"name":"T_FlatTiles_Normal",
			"uri":"T_FlatTiles_Normal.png"
		},
		{
			"mimeType":"image/png",
			"name":"T_FlatTiles_BaseColor",
			"uri":"T_FlatTiles_BaseColor.png"
		},
		{
			"mimeType":"image/png",
			"name":"T_FlatTiles_Roughness",
			"uri":"T_FlatTiles_Roughness.png"
		},
		{
			"mimeType":"image/png",
			"name":"T_RoundTiles_Normal",
			"uri":"T_RoundTiles_Normal.png"
		},
		{
			"mimeType":"image/png",
			"name":"T_RoundTiles_BaseColor",
			"uri":"T_RoundTiles_BaseColor.png"
		},
		{
			"mimeType":"image/png",
			"name":"T_RoundTiles_Roughness",
			"uri":"T_RoundTiles_Roughness.png"
		}
	],
	"accessors":[
		{
			"bufferView":0,
			"componentType":5126,
			"count":24,
			"max":[
				2.8325328826904297,
				3.397604465484619,
				6.963423728942871
			],
			"min":[
				1.4186744689941406,
				1.7409756183624268,
				-7.0445942878723145
			],
			"type":"VEC3"
		},
		{
			"bufferView":1,
			"componentType":5126,
			"count":24,
			"type":"VEC3"
		},
		{
			"bufferView":2,
			"componentType":5126,
			"count":24,
			"type":"VEC2"
		},
		{
			"bufferView":3,
			"componentType":5123,
			"count":36,
			"type":"SCALAR"
		},
		{
			"bufferView":4,
			"componentType":5126,
			"count":36,
			"max":[
				0.37111249566078186,
				5.974920749664307,
				5.845122337341309
			],
			"min":[
				-0.3539327085018158,
				5.548686504364014,
				-7.0716352462768555
			],
			"type":"VEC3"
		},
		{
			"bufferView":5,
			"componentType":5126,
			"count":36,
			"type":"VEC3"
		},
		{
			"bufferView":6,
			"componentType":5126,
			"count":36,
			"type":"VEC2"
		},
		{
			"bufferView":7,
			"componentType":5123,
			"count":60,
			"type":"SCALAR"
		},
		{
			"bufferView":8,
			"componentType":5126,
			"count":36,
			"max":[
				0.34127336740493774,
				5.98103141784668,
				7.026949405670166
			],
			"min":[
				-0.3338979184627533,
				5.509207248687744,
				5.827662944793701
			],
			"type":"VEC3"
		},
		{
			"bufferView":9,
			"componentType":5126,
			"count":36,
			"type":"VEC3"
		},
		{
			"bufferView":10,
			"componentType":5126,
			"count":36,
			"type":"VEC2"
		},
		{
			"bufferView":11,
			"componentType":5123,
			"count":60,
			"type":"SCALAR"
		},
		{
			"bufferView":12,
			"componentType":5126,
			"count":24,
			"max":[
				1.7295626401901245,
				5.767436981201172,
				6.96342134475708
			],
			"min":[
				-0.0016677983803674579,
				3.1537108421325684,
				-7.044594764709473
			],
			"type":"VEC3"
		},
		{
			"bufferView":13,
			"componentType":5126,
			"count":24,
			"type":"VEC3"
		},
		{
			"bufferView":14,
			"componentType":5126,
			"count":24,
			"type":"VEC2"
		},
		{
			"bufferView":15,
			"componentType":5123,
			"count":36,
			"type":"SCALAR"
		},
		{
			"bufferView":16,
			"componentType":5126,
			"count":24,
			"max":[
				3.8297677040100098,
				1.9673993587493896,
				6.963423728942871
			],
			"min":[
				2.4988667964935303,
				0.4748009443283081,
				-7.044593334197998
			],
			"type":"VEC3"
		},
		{
			"bufferView":17,
			"componentType":5126,
			"count":24,
			"type":"VEC3"
		},
		{
			"bufferView":18,
			"componentType":5126,
			"count":24,
			"type":"VEC2"
		},
		{
			"bufferView":19,
			"componentType":5123,
			"count":36,
			"type":"SCALAR"
		},
		{
			"bufferView":20,
			"componentType":5126,
			"count":38,
			"max":[
				5.348309516906738,
				0.8140239715576172,
				6.963423728942871
			],
			"min":[
				3.5638926029205322,
				-1.0241879224777222,
				-7.04459285736084
			],
			"type":"VEC3"
		},
		{
			"bufferView":21,
			"componentType":5126,
			"count":38,
			"type":"VEC3"
		},
		{
			"bufferView":22,
			"componentType":5126,
			"count":38,
			"type":"VEC2"
		},
		{
			"bufferView":23,
			"componentType":5123,
			"count":60,
			"type":"SCALAR"
		},
		{
			"bufferView":24,
			"componentType":5126,
			"count":24,
			"max":[
				-1.4186744689941406,
				3.397604465484619,
				6.963423728942871
			],
			"min":[
				-2.8325328826904297,
				1.7409756183624268,
				-7.0445942878723145
			],
			"type":"VEC3"
		},
		{
			"bufferView":25,
			"componentType":5126,
			"count":24,
			"type":"VEC3"
		},
		{
			"bufferView":26,
			"componentType":5126,
			"count":24,
			"type":"VEC2"
		},
		{
			"bufferView":27,
			"componentType":5123,
			"count":36,
			"type":"SCALAR"
		},
		{
			"bufferView":28,
			"componentType":5126,
			"count":24,
			"max":[
				0.0016677983803674579,
				5.767436981201172,
				6.96342134475708
			],
			"min":[
				-1.7295626401901245,
				3.1537108421325684,
				-7.044594764709473
			],
			"type":"VEC3"
		},
		{
			"bufferView":29,
			"componentType":5126,
			"count":24,
			"type":"VEC3"
		},
		{
			"bufferView":30,
			"componentType":5126,
			"count":24,
			"type":"VEC2"
		},
		{
			"bufferView":31,
			"componentType":5123,
			"count":36,
			"type":"SCALAR"
		},
		{
			"bufferView":32,
			"componentType":5126,
			"count":24,
			"max":[
				-2.4988667964935303,
				1.9673993587493896,
				6.963423728942871
			],
			"min":[
				-3.8297677040100098,
				0.4748009443283081,
				-7.044593334197998
			],
			"type":"VEC3"
		},
		{
			"bufferView":33,
			"componentType":5126,
			"count":24,
			"type":"VEC3"
		},
		{
			"bufferView":34,
			"componentType":5126,
			"count":24,
			"type":"VEC2"
		},
		{
			"bufferView":35,
			"componentType":5123,
			"count":36,
			"type":"SCALAR"
		},
		{
			"bufferView":36,
			"componentType":5126,
			"count":38,
			"max":[
				-3.5638926029205322,
				0.8140239715576172,
				6.963423728942871
			],
			"min":[
				-5.348309516906738,
				-1.0241879224777222,
				-7.04459285736084
			],
			"type":"VEC3"
		},
		{
			"bufferView":37,
			"componentType":5126,
			"count":38,
			"type":"VEC3"
		},
		{
			"bufferView":38,
			"componentType":5126,
			"count":38,
			"type":"VEC2"
		},
		{
			"bufferView":39,
			"componentType":5123,
			"count":60,
			"type":"SCALAR"
		},
		{
			"bufferView":40,
			"componentType":5126,
			"count":1632,
			"max":[
				4.9567179679870605,
				5.600559711456299,
				6.9715046882629395
			],
			"min":[
				-4.9567179679870605,
				-0.7799561023712158,
				-6.918720722198486
			],
			"type":"VEC3"
		},
		{
			"bufferView":41,
			"componentType":5126,
			"count":1632,
			"type":"VEC3"
		},
		{
			"bufferView":42,
			"componentType":5126,
			"count":1632,
			"type":"VEC2"
		},
		{
			"bufferView":43,
			"componentType":5126,
			"count":1632,
			"type":"VEC2"
		},
		{
			"bufferView":44,
			"componentType":5123,
			"count":2712,
			"type":"SCALAR"
		},
		{
			"bufferView":45,
			"componentType":5126,
			"count":1534,
			"max":[
				5.488919258117676,
				5.81857967376709,
				6.871072292327881
			],
			"min":[
				-5.488919258117676,
				-0.9922786951065063,
				-6.856925964355469
			],
			"type":"VEC3"
		},
		{
			"bufferView":46,
			"componentType":5126,
			"count":1534,
			"type":"VEC3"
		},
		{
			"bufferView":47,
			"componentType":5126,
			"count":1534,
			"type":"VEC2"
		},
		{
			"bufferView":48,
			"componentType":5126,
			"count":1534,
			"type":"VEC2"
		},
		{
			"bufferView":49,
			"componentType":5123,
			"count":4884,
			"type":"SCALAR"
		},
		{
			"bufferView":50,
			"componentType":5126,
			"count":2880,
			"max":[
				0.33246704936027527,
				6.001367092132568,
				7.015058994293213
			],
			"min":[
				-0.33246704936027527,
				5.495884418487549,
				-7.117127895355225
			],
			"type":"VEC3"
		},
		{
			"bufferView":51,
			"componentType":5126,
			"count":2880,
			"type":"VEC3"
		},
		{
			"bufferView":52,
			"componentType":5126,
			"count":2880,
			"type":"VEC2"
		},
		{
			"bufferView":53,
			"componentType":5126,
			"count":2880,
			"type":"VEC2"
		},
		{
			"bufferView":54,
			"componentType":5123,
			"count":7344,
			"type":"SCALAR"
		}
	],
	"bufferViews":[
		{
			"buffer":0,
			"byteLength":288,
			"byteOffset":0,
			"target":34962
		},
		{
			"buffer":0,
			"byteLength":288,
			"byteOffset":288,
			"target":34962
		},
		{
			"buffer":0,
			"byteLength":192,
			"byteOffset":576,
			"target":34962
		},
		{
			"buffer":0,
			"byteLength":72,
			"byteOffset":768,
			"target":34963
		},
		{
			"buffer":0,
			"byteLength":432,
			"byteOffset":840,
			"target":34962
		},
		{
			"buffer":0,
			"byteLength":432,
			"byteOffset":1272,
			"target":34962
		},
		{
			"buffer":0,
			"byteLength":288,
			"byteOffset":1704,
			"target":34962
		},
		{
			"buffer":0,
			"byteLength":120,
			"byteOffset":1992,
			"target":34963
		},
		{
			"buffer":0,
			"byteLength":432,
			"byteOffset":2112,
			"target":34962
		},
		{
			"buffer":0,
			"byteLength":432,
			"byteOffset":2544,
			"target":34962
		},
		{
			"buffer":0,
			"byteLength":288,
			"byteOffset":2976,
			"target":34962
		},
		{
			"buffer":0,
			"byteLength":120,
			"byteOffset":3264,
			"target":34963
		},
		{
			"buffer":0,
			"byteLength":288,
			"byteOffset":3384,
			"target":34962
		},
		{
			"buffer":0,
			"byteLength":288,
			"byteOffset":3672,
			"target":34962
		},
		{
			"buffer":0,
			"byteLength":192,
			"byteOffset":3960,
			"target":34962
		},
		{
			"buffer":0,
			"byteLength":72,
			"byteOffset":4152,
			"target":34963
		},
		{
			"buffer":0,
			"byteLength":288,
			"byteOffset":4224,
			"target":34962
		},
		{
			"buffer":0,
			"byteLength":288,
			"byteOffset":4512,
			"target":34962
		},
		{
			"buffer":0,
			"byteLength":192,
			"byteOffset":4800,
			"target":34962
		},
		{
			"buffer":0,
			"byteLength":72,
			"byteOffset":4992,
			"target":34963
		},
		{
			"buffer":0,
			"byteLength":456,
			"byteOffset":5064,
			"target":34962
		},
		{
			"buffer":0,
			"byteLength":456,
			"byteOffset":5520,
			"target":34962
		},
		{
			"buffer":0,
			"byteLength":304,
			"byteOffset":5976,
			"target":34962
		},
		{
			"buffer":0,
			"byteLength":120,
			"byteOffset":6280,
			"target":34963
		},
		{
			"buffer":0,
			"byteLength":288,
			"byteOffset":6400,
			"target":34962
		},
		{
			"buffer":0,
			"byteLength":288,
			"byteOffset":6688,
			"target":34962
		},
		{
			"buffer":0,
			"byteLength":192,
			"byteOffset":6976,
			"target":34962
		},
		{
			"buffer":0,
			"byteLength":72,
			"byteOffset":7168,
			"target":34963
		},
		{
			"buffer":0,
			"byteLength":288,
			"byteOffset":7240,
			"target":34962
		},
		{
			"buffer":0,
			"byteLength":288,
			"byteOffset":7528,
			"target":34962
		},
		{
			"buffer":0,
			"byteLength":192,
			"byteOffset":7816,
			"target":34962
		},
		{
			"buffer":0,
			"byteLength":72,
			"byteOffset":8008,
			"target":34963
		},
		{
			"buffer":0,
			"byteLength":288,
			"byteOffset":8080,
			"target":34962
		},
		{
			"buffer":0,
			"byteLength":288,
			"byteOffset":8368,
			"target":34962
		},
		{
			"buffer":0,
			"byteLength":192,
			"byteOffset":8656,
			"target":34962
		},
		{
			"buffer":0,
			"byteLength":72,
			"byteOffset":8848,
			"target":34963
		},
		{
			"buffer":0,
			"byteLength":456,
			"byteOffset":8920,
			"target":34962
		},
		{
			"buffer":0,
			"byteLength":456,
			"byteOffset":9376,
			"target":34962
		},
		{
			"buffer":0,
			"byteLength":304,
			"byteOffset":9832,
			"target":34962
		},
		{
			"buffer":0,
			"byteLength":120,
			"byteOffset":10136,
			"target":34963
		},
		{
			"buffer":0,
			"byteLength":19584,
			"byteOffset":10256,
			"target":34962
		},
		{
			"buffer":0,
			"byteLength":19584,
			"byteOffset":29840,
			"target":34962
		},
		{
			"buffer":0,
			"byteLength":13056,
			"byteOffset":49424,
			"target":34962
		},
		{
			"buffer":0,
			"byteLength":13056,
			"byteOffset":62480,
			"target":34962
		},
		{
			"buffer":0,
			"byteLength":5424,
			"byteOffset":75536,
			"target":34963
		},
		{
			"buffer":0,
			"byteLength":18408,
			"byteOffset":80960,
			"target":34962
		},
		{
			"buffer":0,
			"byteLength":18408,
			"byteOffset":99368,
			"target":34962
		},
		{
			"buffer":0,
			"byteLength":12272,
			"byteOffset":117776,
			"target":34962
		},
		{
			"buffer":0,
			"byteLength":12272,
			"byteOffset":130048,
			"target":34962
		},
		{
			"buffer":0,
			"byteLength":9768,
			"byteOffset":142320,
			"target":34963
		},
		{
			"buffer":0,
			"byteLength":34560,
			"byteOffset":152088,
			"target":34962
		},
		{
			"buffer":0,
			"byteLength":34560,
			"byteOffset":186648,
			"target":34962
		},
		{
			"buffer":0,
			"byteLength":23040,
			"byteOffset":221208,
			"target":34962
		},
		{
			"buffer":0,
			"byteLength":23040,
			"byteOffset":244248,
			"target":34962
		},
		{
			"buffer":0,
			"byteLength":14688,
			"byteOffset":267288,
			"target":34963
		}
	],
	"samplers":[
		{
			"magFilter":9729,
			"minFilter":9987
		}
	],
	"buffers":[
		{
			"byteLength":281976,
			"uri":"Roof_FlatTiles_8x12.bin"
		}
	]
}
