{
	"asset":{
		"generator":"Khronos glTF Blender I/O v4.0.44",
		"version":"2.0"
	},
	"scene":0,
	"scenes":[
		{
			"name":"Scene",
			"nodes":[
				10
			]
		}
	],
	"nodes":[
		{
			"mesh":0,
			"name":"Roof_Modular_FlatTiles_4_Dormer_01-convcolonly"
		},
		{
			"mesh":1,
			"name":"Roof_Modular_FlatTiles_4_Dormer_02-convcolonly"
		},
		{
			"mesh":2,
			"name":"Roof_Modular_FlatTiles_4_Dormer_03-convcolonly"
		},
		{
			"mesh":3,
			"name":"Roof_Modular_FlatTiles_4_Dormer_04-convcolonly"
		},
		{
			"mesh":4,
			"name":"Roof_Modular_FlatTiles_4_Dormer_05-convcolonly"
		},
		{
			"mesh":5,
			"name":"Roof_Modular_FlatTiles_4_Dormer_06-convcolonly"
		},
		{
			"mesh":6,
			"name":"Roof_Modular_FlatTiles_4_Dormer_07-convcolonly"
		},
		{
			"mesh":7,
			"name":"Roof_Modular_FlatTiles_4_Dormer_08-convcolonly"
		},
		{
			"mesh":8,
			"name":"Roof_Modular_FlatTiles_4_Dormer_09-convcolonly"
		},
		{
			"mesh":9,
			"name":"Roof_Modular_FlatTiles_4_Dormer_10-convcolonly"
		},
		{
			"children":[
				0,
				1,
				2,
				3,
				4,
				5,
				6,
				7,
				8,
				9
			],
			"mesh":10,
			"name":"Roof_Modular_FlatTiles_4_Dormer"
		}
	],
	"materials":[
		{
			"doubleSided":true,
			"name":"Collision",
			"pbrMetallicRoughness":{
				"baseColorFactor":[
					0.05868536978960037,
					0.2907957136631012,
					0.8000074625015259,
					1
				],
				"metallicFactor":0,
				"roughnessFactor":0.5
			}
		},
		{
			"doubleSided":true,
			"name":"MI_WoodTrim",
			"normalTexture":{
				"index":0
			},
			"pbrMetallicRoughness":{
				"baseColorTexture":{
					"index":1
				},
				"metallicFactor":0,
				"metallicRoughnessTexture":{
					"index":2
				}
			}
		},
		{
			"doubleSided":true,
			"name":"MI_RoundTiles",
			"normalTexture":{
				"index":3
			},
			"pbrMetallicRoughness":{
				"baseColorTexture":{
					"index":4
				},
				"metallicFactor":0,
				"metallicRoughnessTexture":{
					"index":5
				}
			}
		},
		{
			"doubleSided":true,
			"name":"MI_FlatTiles",
			"normalTexture":{
				"index":6
			},
			"pbrMetallicRoughness":{
				"baseColorTexture":{
					"index":7
				},
				"metallicFactor":0,
				"metallicRoughnessTexture":{
					"index":8
				}
			}
		}
	],
	"meshes":[
		{
			"name":"Cube.1630",
			"primitives":[
				{
					"attributes":{
						"POSITION":0,
						"NORMAL":1,
						"TEXCOORD_0":2
					},
					"indices":3,
					"material":0
				}
			]
		},
		{
			"name":"Cube.1631",
			"primitives":[
				{
					"attributes":{
						"POSITION":4,
						"NORMAL":5,
						"TEXCOORD_0":6
					},
					"indices":7,
					"material":0
				}
			]
		},
		{
			"name":"Cube.1634",
			"primitives":[
				{
					"attributes":{
						"POSITION":8,
						"NORMAL":9,
						"TEXCOORD_0":10
					},
					"indices":11,
					"material":0
				}
			]
		},
		{
			"name":"Cube.1635",
			"primitives":[
				{
					"attributes":{
						"POSITION":12,
						"NORMAL":13,
						"TEXCOORD_0":14
					},
					"indices":15,
					"material":0
				}
			]
		},
		{
			"name":"Cube.1636",
			"primitives":[
				{
					"attributes":{
						"POSITION":16,
						"NORMAL":17,
						"TEXCOORD_0":18
					},
					"indices":19,
					"material":0
				}
			]
		},
		{
			"name":"Cube.1637",
			"primitives":[
				{
					"attributes":{
						"POSITION":20,
						"NORMAL":21,
						"TEXCOORD_0":22
					},
					"indices":19,
					"material":0
				}
			]
		},
		{
			"name":"Cube.1638",
			"primitives":[
				{
					"attributes":{
						"POSITION":23,
						"NORMAL":24,
						"TEXCOORD_0":25
					},
					"indices":26,
					"material":0
				}
			]
		},
		{
			"name":"Cube.1639",
			"primitives":[
				{
					"attributes":{
						"POSITION":27,
						"NORMAL":28,
						"TEXCOORD_0":29
					},
					"indices":30,
					"material":0
				}
			]
		},
		{
			"name":"Cube.1640",
			"primitives":[
				{
					"attributes":{
						"POSITION":31,
						"NORMAL":32,
						"TEXCOORD_0":33
					},
					"indices":34,
					"material":0
				}
			]
		},
		{
			"name":"Cube.1641",
			"primitives":[
				{
					"attributes":{
						"POSITION":35,
						"NORMAL":36,
						"TEXCOORD_0":37
					},
					"indices":34,
					"material":0
				}
			]
		},
		{
			"name":"Cube.231",
			"primitives":[
				{
					"attributes":{
						"POSITION":38,
						"NORMAL":39,
						"TEXCOORD_0":40,
						"TEXCOORD_1":41
					},
					"indices":42,
					"material":1
				},
				{
					"attributes":{
						"POSITION":43,
						"NORMAL":44,
						"TEXCOORD_0":45,
						"TEXCOORD_1":46
					},
					"indices":47,
					"material":2
				},
				{
					"attributes":{
						"POSITION":48,
						"NORMAL":49,
						"TEXCOORD_0":50,
						"TEXCOORD_1":51
					},
					"indices":52,
					"material":3
				}
			]
		}
	],
	"textures":[
		{
			"sampler":0,
			"source":0
		},
		{
			"sampler":0,
			"source":1
		},
		{
			"sampler":0,
			"source":2
		},
		{
			"sampler":0,
			"source":3
		},
		{
			"sampler":0,
			"source":4
		},
		{
			"sampler":0,
			"source":5
		},
		{
			"sampler":0,
			"source":6
		},
		{
			"sampler":0,
			"source":7
		},
		{
			"sampler":0,
			"source":8
		}
	],
	"images":[
		{
			"mimeType":"image/png",
			"name":"T_WoodTrim_Normal",
			"uri":"T_WoodTrim_Normal.png"
		},
		{
			"mimeType":"image/png",
			"name":"T_WoodTrim_BaseColor",
			"uri":"T_WoodTrim_BaseColor.png"
		},
		{
			"mimeType":"image/png",
			"name":"T_WoodTrim_Roughness",
			"uri":"T_WoodTrim_Roughness.png"
		},
		{
			"mimeType":"image/png",
			"name":"T_RoundTiles_Normal",
			"uri":"T_RoundTiles_Normal.png"
		},
		{
			"mimeType":"image/png",
			"name":"T_RoundTiles_BaseColor",
			"uri":"T_RoundTiles_BaseColor.png"
		},
		{
			"mimeType":"image/png",
			"name":"T_RoundTiles_Roughness",
			"uri":"T_RoundTiles_Roughness.png"
		},
		{
			"mimeType":"image/png",
			"name":"T_FlatTiles_Normal",
			"uri":"T_FlatTiles_Normal.png"
		},
		{
			"mimeType":"image/png",
			"name":"T_FlatTiles_BaseColor",
			"uri":"T_FlatTiles_BaseColor.png"
		},
		{
			"mimeType":"image/png",
			"name":"T_FlatTiles_Roughness",
			"uri":"T_FlatTiles_Roughness.png"
		}
	],
	"accessors":[
		{
			"bufferView":0,
			"componentType":5126,
			"count":24,
			"max":[
				2.7237000465393066,
				0.5422112941741943,
				0.9837334752082825
			],
			"min":[
				1.733600378036499,
				-0.5602136850357056,
				-1.0000028610229492
			],
			"type":"VEC3"
		},
		{
			"bufferView":1,
			"componentType":5126,
			"count":24,
			"type":"VEC3"
		},
		{
			"bufferView":2,
			"componentType":5126,
			"count":24,
			"type":"VEC2"
		},
		{
			"bufferView":3,
			"componentType":5123,
			"count":36,
			"type":"SCALAR"
		},
		{
			"bufferView":4,
			"componentType":5126,
			"count":36,
			"max":[
				0.37111249566078186,
				3.5772552490234375,
				1.0545501708984375
			],
			"min":[
				-0.3539327085018158,
				3.025960922241211,
				-0.24673819541931152
			],
			"type":"VEC3"
		},
		{
			"bufferView":5,
			"componentType":5126,
			"count":36,
			"type":"VEC3"
		},
		{
			"bufferView":6,
			"componentType":5126,
			"count":36,
			"type":"VEC2"
		},
		{
			"bufferView":7,
			"componentType":5123,
			"count":60,
			"type":"SCALAR"
		},
		{
			"bufferView":8,
			"componentType":5126,
			"count":24,
			"max":[
				1.3004770278930664,
				3.357370376586914,
				0.9837315082550049
			],
			"min":[
				-0.0016677983803674579,
				1.4446384906768799,
				-1.0000038146972656
			],
			"type":"VEC3"
		},
		{
			"bufferView":9,
			"componentType":5126,
			"count":24,
			"type":"VEC3"
		},
		{
			"bufferView":10,
			"componentType":5126,
			"count":24,
			"type":"VEC2"
		},
		{
			"bufferView":11,
			"componentType":5123,
			"count":36,
			"type":"SCALAR"
		},
		{
			"bufferView":12,
			"componentType":5126,
			"count":36,
			"max":[
				0.37111249566078186,
				3.5772552490234375,
				0.09889233112335205
			],
			"min":[
				-0.3539327085018158,
				3.025960922241211,
				-1.2023959159851074
			],
			"type":"VEC3"
		},
		{
			"bufferView":13,
			"componentType":5126,
			"count":36,
			"type":"VEC3"
		},
		{
			"bufferView":14,
			"componentType":5126,
			"count":36,
			"type":"VEC2"
		},
		{
			"bufferView":15,
			"componentType":5123,
			"count":60,
			"type":"SCALAR"
		},
		{
			"bufferView":16,
			"componentType":5126,
			"count":24,
			"max":[
				2.230997323989868,
				1.7684468030929565,
				0.9837329387664795
			],
			"min":[
				0.8495400547981262,
				0.1758745014667511,
				0.5902169942855835
			],
			"type":"VEC3"
		},
		{
			"bufferView":17,
			"componentType":5126,
			"count":24,
			"type":"VEC3"
		},
		{
			"bufferView":18,
			"componentType":5126,
			"count":24,
			"type":"VEC2"
		},
		{
			"bufferView":19,
			"componentType":5123,
			"count":36,
			"type":"SCALAR"
		},
		{
			"bufferView":20,
			"componentType":5126,
			"count":24,
			"max":[
				2.230997323989868,
				1.7684468030929565,
				-0.5798885822296143
			],
			"min":[
				0.8495400547981262,
				0.1758745014667511,
				-0.998358964920044
			],
			"type":"VEC3"
		},
		{
			"bufferView":21,
			"componentType":5126,
			"count":24,
			"type":"VEC3"
		},
		{
			"bufferView":22,
			"componentType":5126,
			"count":24,
			"type":"VEC2"
		},
		{
			"bufferView":23,
			"componentType":5126,
			"count":24,
			"max":[
				-1.733600378036499,
				0.5422112941741943,
				0.9837334752082825
			],
			"min":[
				-2.7237000465393066,
				-0.5602136850357056,
				-1.0000028610229492
			],
			"type":"VEC3"
		},
		{
			"bufferView":24,
			"componentType":5126,
			"count":24,
			"type":"VEC3"
		},
		{
			"bufferView":25,
			"componentType":5126,
			"count":24,
			"type":"VEC2"
		},
		{
			"bufferView":26,
			"componentType":5123,
			"count":36,
			"type":"SCALAR"
		},
		{
			"bufferView":27,
			"componentType":5126,
			"count":24,
			"max":[
				0.0016677983803674579,
				3.357370376586914,
				0.9837315082550049
			],
			"min":[
				-1.3004770278930664,
				1.4446384906768799,
				-1.0000038146972656
			],
			"type":"VEC3"
		},
		{
			"bufferView":28,
			"componentType":5126,
			"count":24,
			"type":"VEC3"
		},
		{
			"bufferView":29,
			"componentType":5126,
			"count":24,
			"type":"VEC2"
		},
		{
			"bufferView":30,
			"componentType":5123,
			"count":36,
			"type":"SCALAR"
		},
		{
			"bufferView":31,
			"componentType":5126,
			"count":24,
			"max":[
				-0.8495400547981262,
				1.7684468030929565,
				0.9837329387664795
			],
			"min":[
				-2.230997323989868,
				0.1758745014667511,
				0.5902169942855835
			],
			"type":"VEC3"
		},
		{
			"bufferView":32,
			"componentType":5126,
			"count":24,
			"type":"VEC3"
		},
		{
			"bufferView":33,
			"componentType":5126,
			"count":24,
			"type":"VEC2"
		},
		{
			"bufferView":34,
			"componentType":5123,
			"count":36,
			"type":"SCALAR"
		},
		{
			"bufferView":35,
			"componentType":5126,
			"count":24,
			"max":[
				-0.8495400547981262,
				1.7684468030929565,
				-0.5798885822296143
			],
			"min":[
				-2.230997323989868,
				0.1758745014667511,
				-0.998358964920044
			],
			"type":"VEC3"
		},
		{
			"bufferView":36,
			"componentType":5126,
			"count":24,
			"type":"VEC3"
		},
		{
			"bufferView":37,
			"componentType":5126,
			"count":24,
			"type":"VEC2"
		},
		{
			"bufferView":38,
			"componentType":5126,
			"count":564,
			"max":[
				2.5714659690856934,
				2.7987897396087646,
				1.0000007152557373
			],
			"min":[
				-2.5714659690856934,
				-0.4829863905906677,
				-1.0000007152557373
			],
			"type":"VEC3"
		},
		{
			"bufferView":39,
			"componentType":5126,
			"count":564,
			"type":"VEC3"
		},
		{
			"bufferView":40,
			"componentType":5126,
			"count":564,
			"type":"VEC2"
		},
		{
			"bufferView":41,
			"componentType":5126,
			"count":564,
			"type":"VEC2"
		},
		{
			"bufferView":42,
			"componentType":5123,
			"count":1044,
			"type":"SCALAR"
		},
		{
			"bufferView":43,
			"componentType":5126,
			"count":160,
			"max":[
				0.3307531774044037,
				3.5823886394500732,
				1.045536756515503
			],
			"min":[
				-0.33246704936027527,
				3.0769059658050537,
				-1.2061223983764648
			],
			"type":"VEC3"
		},
		{
			"bufferView":44,
			"componentType":5126,
			"count":160,
			"type":"VEC3"
		},
		{
			"bufferView":45,
			"componentType":5126,
			"count":160,
			"type":"VEC2"
		},
		{
			"bufferView":46,
			"componentType":5126,
			"count":160,
			"type":"VEC2"
		},
		{
			"bufferView":47,
			"componentType":5123,
			"count":408,
			"type":"SCALAR"
		},
		{
			"bufferView":48,
			"componentType":5126,
			"count":264,
			"max":[
				2.6973230838775635,
				3.368659734725952,
				1.000000238418579
			],
			"min":[
				-2.6973230838775635,
				-0.34152883291244507,
				-0.9999988079071045
			],
			"type":"VEC3"
		},
		{
			"bufferView":49,
			"componentType":5126,
			"count":264,
			"type":"VEC3"
		},
		{
			"bufferView":50,
			"componentType":5126,
			"count":264,
			"type":"VEC2"
		},
		{
			"bufferView":51,
			"componentType":5126,
			"count":264,
			"type":"VEC2"
		},
		{
			"bufferView":52,
			"componentType":5123,
			"count":792,
			"type":"SCALAR"
		}
	],
	"bufferViews":[
		{
			"buffer":0,
			"byteLength":288,
			"byteOffset":0,
			"target":34962
		},
		{
			"buffer":0,
			"byteLength":288,
			"byteOffset":288,
			"target":34962
		},
		{
			"buffer":0,
			"byteLength":192,
			"byteOffset":576,
			"target":34962
		},
		{
			"buffer":0,
			"byteLength":72,
			"byteOffset":768,
			"target":34963
		},
		{
			"buffer":0,
			"byteLength":432,
			"byteOffset":840,
			"target":34962
		},
		{
			"buffer":0,
			"byteLength":432,
			"byteOffset":1272,
			"target":34962
		},
		{
			"buffer":0,
			"byteLength":288,
			"byteOffset":1704,
			"target":34962
		},
		{
			"buffer":0,
			"byteLength":120,
			"byteOffset":1992,
			"target":34963
		},
		{
			"buffer":0,
			"byteLength":288,
			"byteOffset":2112,
			"target":34962
		},
		{
			"buffer":0,
			"byteLength":288,
			"byteOffset":2400,
			"target":34962
		},
		{
			"buffer":0,
			"byteLength":192,
			"byteOffset":2688,
			"target":34962
		},
		{
			"buffer":0,
			"byteLength":72,
			"byteOffset":2880,
			"target":34963
		},
		{
			"buffer":0,
			"byteLength":432,
			"byteOffset":2952,
			"target":34962
		},
		{
			"buffer":0,
			"byteLength":432,
			"byteOffset":3384,
			"target":34962
		},
		{
			"buffer":0,
			"byteLength":288,
			"byteOffset":3816,
			"target":34962
		},
		{
			"buffer":0,
			"byteLength":120,
			"byteOffset":4104,
			"target":34963
		},
		{
			"buffer":0,
			"byteLength":288,
			"byteOffset":4224,
			"target":34962
		},
		{
			"buffer":0,
			"byteLength":288,
			"byteOffset":4512,
			"target":34962
		},
		{
			"buffer":0,
			"byteLength":192,
			"byteOffset":4800,
			"target":34962
		},
		{
			"buffer":0,
			"byteLength":72,
			"byteOffset":4992,
			"target":34963
		},
		{
			"buffer":0,
			"byteLength":288,
			"byteOffset":5064,
			"target":34962
		},
		{
			"buffer":0,
			"byteLength":288,
			"byteOffset":5352,
			"target":34962
		},
		{
			"buffer":0,
			"byteLength":192,
			"byteOffset":5640,
			"target":34962
		},
		{
			"buffer":0,
			"byteLength":288,
			"byteOffset":5832,
			"target":34962
		},
		{
			"buffer":0,
			"byteLength":288,
			"byteOffset":6120,
			"target":34962
		},
		{
			"buffer":0,
			"byteLength":192,
			"byteOffset":6408,
			"target":34962
		},
		{
			"buffer":0,
			"byteLength":72,
			"byteOffset":6600,
			"target":34963
		},
		{
			"buffer":0,
			"byteLength":288,
			"byteOffset":6672,
			"target":34962
		},
		{
			"buffer":0,
			"byteLength":288,
			"byteOffset":6960,
			"target":34962
		},
		{
			"buffer":0,
			"byteLength":192,
			"byteOffset":7248,
			"target":34962
		},
		{
			"buffer":0,
			"byteLength":72,
			"byteOffset":7440,
			"target":34963
		},
		{
			"buffer":0,
			"byteLength":288,
			"byteOffset":7512,
			"target":34962
		},
		{
			"buffer":0,
			"byteLength":288,
			"byteOffset":7800,
			"target":34962
		},
		{
			"buffer":0,
			"byteLength":192,
			"byteOffset":8088,
			"target":34962
		},
		{
			"buffer":0,
			"byteLength":72,
			"byteOffset":8280,
			"target":34963
		},
		{
			"buffer":0,
			"byteLength":288,
			"byteOffset":8352,
			"target":34962
		},
		{
			"buffer":0,
			"byteLength":288,
			"byteOffset":8640,
			"target":34962
		},
		{
			"buffer":0,
			"byteLength":192,
			"byteOffset":8928,
			"target":34962
		},
		{
			"buffer":0,
			"byteLength":6768,
			"byteOffset":9120,
			"target":34962
		},
		{
			"buffer":0,
			"byteLength":6768,
			"byteOffset":15888,
			"target":34962
		},
		{
			"buffer":0,
			"byteLength":4512,
			"byteOffset":22656,
			"target":34962
		},
		{
			"buffer":0,
			"byteLength":4512,
			"byteOffset":27168,
			"target":34962
		},
		{
			"buffer":0,
			"byteLength":2088,
			"byteOffset":31680,
			"target":34963
		},
		{
			"buffer":0,
			"byteLength":1920,
			"byteOffset":33768,
			"target":34962
		},
		{
			"buffer":0,
			"byteLength":1920,
			"byteOffset":35688,
			"target":34962
		},
		{
			"buffer":0,
			"byteLength":1280,
			"byteOffset":37608,
			"target":34962
		},
		{
			"buffer":0,
			"byteLength":1280,
			"byteOffset":38888,
			"target":34962
		},
		{
			"buffer":0,
			"byteLength":816,
			"byteOffset":40168,
			"target":34963
		},
		{
			"buffer":0,
			"byteLength":3168,
			"byteOffset":40984,
			"target":34962
		},
		{
			"buffer":0,
			"byteLength":3168,
			"byteOffset":44152,
			"target":34962
		},
		{
			"buffer":0,
			"byteLength":2112,
			"byteOffset":47320,
			"target":34962
		},
		{
			"buffer":0,
			"byteLength":2112,
			"byteOffset":49432,
			"target":34962
		},
		{
			"buffer":0,
			"byteLength":1584,
			"byteOffset":51544,
			"target":34963
		}
	],
	"samplers":[
		{
			"magFilter":9729,
			"minFilter":9987
		}
	],
	"buffers":[
		{
			"byteLength":53128,
			"uri":"Roof_Modular_FlatTiles_4_Dormer.bin"
		}
	]
}
