{
	"asset":{
		"generator":"Khronos glTF Blender I/O v4.0.44",
		"version":"2.0"
	},
	"scene":0,
	"scenes":[
		{
			"name":"Scene",
			"nodes":[
				12
			]
		}
	],
	"nodes":[
		{
			"mesh":0,
			"name":"Roof_Modular_FlatTiles_8_Dormer_01-convcolonly"
		},
		{
			"mesh":1,
			"name":"Roof_Modular_FlatTiles_8_Dormer_02-convcolonly"
		},
		{
			"mesh":2,
			"name":"Roof_Modular_FlatTiles_8_Dormer_03-convcolonly"
		},
		{
			"mesh":3,
			"name":"Roof_Modular_FlatTiles_8_Dormer_04-convcolonly"
		},
		{
			"mesh":4,
			"name":"Roof_Modular_FlatTiles_8_Dormer_05-convcolonly"
		},
		{
			"mesh":5,
			"name":"Roof_Modular_FlatTiles_8_Dormer_06-convcolonly"
		},
		{
			"mesh":6,
			"name":"Roof_Modular_FlatTiles_8_Dormer_07-convcolonly"
		},
		{
			"mesh":7,
			"name":"Roof_Modular_FlatTiles_8_Dormer_08-convcolonly"
		},
		{
			"mesh":8,
			"name":"Roof_Modular_FlatTiles_8_Dormer_09-convcolonly"
		},
		{
			"mesh":9,
			"name":"Roof_Modular_FlatTiles_8_Dormer_10-convcolonly"
		},
		{
			"mesh":10,
			"name":"Roof_Modular_FlatTiles_8_Dormer_11-convcolonly"
		},
		{
			"mesh":11,
			"name":"Roof_Modular_FlatTiles_8_Dormer_12-convcolonly"
		},
		{
			"children":[
				0,
				1,
				2,
				3,
				4,
				5,
				6,
				7,
				8,
				9,
				10,
				11
			],
			"mesh":12,
			"name":"Roof_Modular_FlatTiles_8_Dormer"
		}
	],
	"materials":[
		{
			"doubleSided":true,
			"name":"Collision",
			"pbrMetallicRoughness":{
				"baseColorFactor":[
					0.05868536978960037,
					0.2907957136631012,
					0.8000074625015259,
					1
				],
				"metallicFactor":0,
				"roughnessFactor":0.5
			}
		},
		{
			"doubleSided":true,
			"name":"MI_WoodTrim",
			"normalTexture":{
				"index":0
			},
			"pbrMetallicRoughness":{
				"baseColorTexture":{
					"index":1
				},
				"metallicFactor":0,
				"metallicRoughnessTexture":{
					"index":2
				}
			}
		},
		{
			"doubleSided":true,
			"name":"MI_RoundTiles",
			"normalTexture":{
				"index":3
			},
			"pbrMetallicRoughness":{
				"baseColorTexture":{
					"index":4
				},
				"metallicFactor":0,
				"metallicRoughnessTexture":{
					"index":5
				}
			}
		},
		{
			"doubleSided":true,
			"name":"MI_FlatTiles",
			"normalTexture":{
				"index":6
			},
			"pbrMetallicRoughness":{
				"baseColorTexture":{
					"index":7
				},
				"metallicFactor":0,
				"metallicRoughnessTexture":{
					"index":8
				}
			}
		}
	],
	"meshes":[
		{
			"name":"Cube.415",
			"primitives":[
				{
					"attributes":{
						"POSITION":0,
						"NORMAL":1,
						"TEXCOORD_0":2
					},
					"indices":3,
					"material":0
				}
			]
		},
		{
			"name":"Cube.416",
			"primitives":[
				{
					"attributes":{
						"POSITION":4,
						"NORMAL":5,
						"TEXCOORD_0":6
					},
					"indices":7,
					"material":0
				}
			]
		},
		{
			"name":"Cube.420",
			"primitives":[
				{
					"attributes":{
						"POSITION":8,
						"NORMAL":9,
						"TEXCOORD_0":10
					},
					"indices":11,
					"material":0
				}
			]
		},
		{
			"name":"Cube.421",
			"primitives":[
				{
					"attributes":{
						"POSITION":12,
						"NORMAL":13,
						"TEXCOORD_0":14
					},
					"indices":15,
					"material":0
				}
			]
		},
		{
			"name":"Cube.423",
			"primitives":[
				{
					"attributes":{
						"POSITION":16,
						"NORMAL":17,
						"TEXCOORD_0":18
					},
					"indices":19,
					"material":0
				}
			]
		},
		{
			"name":"Cube.424",
			"primitives":[
				{
					"attributes":{
						"POSITION":20,
						"NORMAL":21,
						"TEXCOORD_0":22
					},
					"indices":23,
					"material":0
				}
			]
		},
		{
			"name":"Cube.425",
			"primitives":[
				{
					"attributes":{
						"POSITION":24,
						"NORMAL":25,
						"TEXCOORD_0":26
					},
					"indices":27,
					"material":0
				}
			]
		},
		{
			"name":"Cube.427",
			"primitives":[
				{
					"attributes":{
						"POSITION":28,
						"NORMAL":29,
						"TEXCOORD_0":30
					},
					"indices":31,
					"material":0
				}
			]
		},
		{
			"name":"Cube.428",
			"primitives":[
				{
					"attributes":{
						"POSITION":32,
						"NORMAL":33,
						"TEXCOORD_0":34
					},
					"indices":35,
					"material":0
				}
			]
		},
		{
			"name":"Cube.429",
			"primitives":[
				{
					"attributes":{
						"POSITION":36,
						"NORMAL":37,
						"TEXCOORD_0":38
					},
					"indices":39,
					"material":0
				}
			]
		},
		{
			"name":"Cube.430",
			"primitives":[
				{
					"attributes":{
						"POSITION":40,
						"NORMAL":41,
						"TEXCOORD_0":42
					},
					"indices":43,
					"material":0
				}
			]
		},
		{
			"name":"Cube.431",
			"primitives":[
				{
					"attributes":{
						"POSITION":44,
						"NORMAL":45,
						"TEXCOORD_0":46
					},
					"indices":47,
					"material":0
				}
			]
		},
		{
			"name":"Cube.264",
			"primitives":[
				{
					"attributes":{
						"POSITION":48,
						"NORMAL":49,
						"TEXCOORD_0":50,
						"TEXCOORD_1":51
					},
					"indices":52,
					"material":1
				},
				{
					"attributes":{
						"POSITION":53,
						"NORMAL":54,
						"TEXCOORD_0":55,
						"TEXCOORD_1":56
					},
					"indices":57,
					"material":2
				},
				{
					"attributes":{
						"POSITION":58,
						"NORMAL":59,
						"TEXCOORD_0":60,
						"TEXCOORD_1":61
					},
					"indices":62,
					"material":3
				}
			]
		}
	],
	"textures":[
		{
			"sampler":0,
			"source":0
		},
		{
			"sampler":0,
			"source":1
		},
		{
			"sampler":0,
			"source":2
		},
		{
			"sampler":0,
			"source":3
		},
		{
			"sampler":0,
			"source":4
		},
		{
			"sampler":0,
			"source":5
		},
		{
			"sampler":0,
			"source":6
		},
		{
			"sampler":0,
			"source":7
		},
		{
			"sampler":0,
			"source":8
		}
	],
	"images":[
		{
			"mimeType":"image/png",
			"name":"T_WoodTrim_Normal",
			"uri":"T_WoodTrim_Normal.png"
		},
		{
			"mimeType":"image/png",
			"name":"T_WoodTrim_BaseColor",
			"uri":"T_WoodTrim_BaseColor.png"
		},
		{
			"mimeType":"image/png",
			"name":"T_WoodTrim_Roughness",
			"uri":"T_WoodTrim_Roughness.png"
		},
		{
			"mimeType":"image/png",
			"name":"T_RoundTiles_Normal",
			"uri":"T_RoundTiles_Normal.png"
		},
		{
			"mimeType":"image/png",
			"name":"T_RoundTiles_BaseColor",
			"uri":"T_RoundTiles_BaseColor.png"
		},
		{
			"mimeType":"image/png",
			"name":"T_RoundTiles_Roughness",
			"uri":"T_RoundTiles_Roughness.png"
		},
		{
			"mimeType":"image/png",
			"name":"T_FlatTiles_Normal",
			"uri":"T_FlatTiles_Normal.png"
		},
		{
			"mimeType":"image/png",
			"name":"T_FlatTiles_BaseColor",
			"uri":"T_FlatTiles_BaseColor.png"
		},
		{
			"mimeType":"image/png",
			"name":"T_FlatTiles_Roughness",
			"uri":"T_FlatTiles_Roughness.png"
		}
	],
	"accessors":[
		{
			"bufferView":0,
			"componentType":5126,
			"count":24,
			"max":[
				3.075011730194092,
				3.26979923248291,
				0.9837334156036377
			],
			"min":[
				1.5175780057907104,
				1.4258099794387817,
				0.6145001649856567
			],
			"type":"VEC3"
		},
		{
			"bufferView":1,
			"componentType":5126,
			"count":24,
			"type":"VEC3"
		},
		{
			"bufferView":2,
			"componentType":5126,
			"count":24,
			"type":"VEC2"
		},
		{
			"bufferView":3,
			"componentType":5123,
			"count":36,
			"type":"SCALAR"
		},
		{
			"bufferView":4,
			"componentType":5126,
			"count":36,
			"max":[
				0.37111249566078186,
				6.0826239585876465,
				1.0545501708984375
			],
			"min":[
				-0.3539327085018158,
				5.53132963180542,
				-0.24673819541931152
			],
			"type":"VEC3"
		},
		{
			"bufferView":5,
			"componentType":5126,
			"count":36,
			"type":"VEC3"
		},
		{
			"bufferView":6,
			"componentType":5126,
			"count":36,
			"type":"VEC2"
		},
		{
			"bufferView":7,
			"componentType":5123,
			"count":60,
			"type":"SCALAR"
		},
		{
			"bufferView":8,
			"componentType":5126,
			"count":24,
			"max":[
				2.064948797225952,
				5.862739086151123,
				0.9837319850921631
			],
			"min":[
				-0.0016677983803674579,
				2.7813289165496826,
				-1.0000038146972656
			],
			"type":"VEC3"
		},
		{
			"bufferView":9,
			"componentType":5126,
			"count":24,
			"type":"VEC3"
		},
		{
			"bufferView":10,
			"componentType":5126,
			"count":24,
			"type":"VEC2"
		},
		{
			"bufferView":11,
			"componentType":5123,
			"count":36,
			"type":"SCALAR"
		},
		{
			"bufferView":12,
			"componentType":5126,
			"count":24,
			"max":[
				3.8297677040100098,
				1.910459280014038,
				0.9837334752082825
			],
			"min":[
				2.529630422592163,
				0.5041204690933228,
				-1.000002384185791
			],
			"type":"VEC3"
		},
		{
			"bufferView":13,
			"componentType":5126,
			"count":24,
			"type":"VEC3"
		},
		{
			"bufferView":14,
			"componentType":5126,
			"count":24,
			"type":"VEC2"
		},
		{
			"bufferView":15,
			"componentType":5123,
			"count":36,
			"type":"SCALAR"
		},
		{
			"bufferView":16,
			"componentType":5126,
			"count":24,
			"max":[
				4.98617696762085,
				0.8497354984283447,
				0.9837334752082825
			],
			"min":[
				3.5638926029205322,
				-0.7620542049407959,
				-1.0000014305114746
			],
			"type":"VEC3"
		},
		{
			"bufferView":17,
			"componentType":5126,
			"count":24,
			"type":"VEC3"
		},
		{
			"bufferView":18,
			"componentType":5126,
			"count":24,
			"type":"VEC2"
		},
		{
			"bufferView":19,
			"componentType":5123,
			"count":36,
			"type":"SCALAR"
		},
		{
			"bufferView":20,
			"componentType":5126,
			"count":36,
			"max":[
				0.37111249566078186,
				6.0826239585876465,
				0.09889233112335205
			],
			"min":[
				-0.3539327085018158,
				5.53132963180542,
				-1.2023959159851074
			],
			"type":"VEC3"
		},
		{
			"bufferView":21,
			"componentType":5126,
			"count":36,
			"type":"VEC3"
		},
		{
			"bufferView":22,
			"componentType":5126,
			"count":36,
			"type":"VEC2"
		},
		{
			"bufferView":23,
			"componentType":5123,
			"count":60,
			"type":"SCALAR"
		},
		{
			"bufferView":24,
			"componentType":5126,
			"count":24,
			"max":[
				3.075011730194092,
				3.26979923248291,
				-0.6223779916763306
			],
			"min":[
				1.5175780057907104,
				1.4258099794387817,
				-0.9916112422943115
			],
			"type":"VEC3"
		},
		{
			"bufferView":25,
			"componentType":5126,
			"count":24,
			"type":"VEC3"
		},
		{
			"bufferView":26,
			"componentType":5126,
			"count":24,
			"type":"VEC2"
		},
		{
			"bufferView":27,
			"componentType":5123,
			"count":36,
			"type":"SCALAR"
		},
		{
			"bufferView":28,
			"componentType":5126,
			"count":24,
			"max":[
				-1.5175780057907104,
				3.26979923248291,
				0.9837334156036377
			],
			"min":[
				-3.075011730194092,
				1.4258099794387817,
				0.6145001649856567
			],
			"type":"VEC3"
		},
		{
			"bufferView":29,
			"componentType":5126,
			"count":24,
			"type":"VEC3"
		},
		{
			"bufferView":30,
			"componentType":5126,
			"count":24,
			"type":"VEC2"
		},
		{
			"bufferView":31,
			"componentType":5123,
			"count":36,
			"type":"SCALAR"
		},
		{
			"bufferView":32,
			"componentType":5126,
			"count":24,
			"max":[
				0.0016677983803674579,
				5.862739086151123,
				0.9837319850921631
			],
			"min":[
				-2.064948797225952,
				2.7813289165496826,
				-1.0000038146972656
			],
			"type":"VEC3"
		},
		{
			"bufferView":33,
			"componentType":5126,
			"count":24,
			"type":"VEC3"
		},
		{
			"bufferView":34,
			"componentType":5126,
			"count":24,
			"type":"VEC2"
		},
		{
			"bufferView":35,
			"componentType":5123,
			"count":36,
			"type":"SCALAR"
		},
		{
			"bufferView":36,
			"componentType":5126,
			"count":24,
			"max":[
				-2.529630422592163,
				1.910459280014038,
				0.9837334752082825
			],
			"min":[
				-3.8297677040100098,
				0.5041204690933228,
				-1.000002384185791
			],
			"type":"VEC3"
		},
		{
			"bufferView":37,
			"componentType":5126,
			"count":24,
			"type":"VEC3"
		},
		{
			"bufferView":38,
			"componentType":5126,
			"count":24,
			"type":"VEC2"
		},
		{
			"bufferView":39,
			"componentType":5123,
			"count":36,
			"type":"SCALAR"
		},
		{
			"bufferView":40,
			"componentType":5126,
			"count":24,
			"max":[
				-3.5638926029205322,
				0.8497354984283447,
				0.9837334752082825
			],
			"min":[
				-4.98617696762085,
				-0.7620542049407959,
				-1.0000014305114746
			],
			"type":"VEC3"
		},
		{
			"bufferView":41,
			"componentType":5126,
			"count":24,
			"type":"VEC3"
		},
		{
			"bufferView":42,
			"componentType":5126,
			"count":24,
			"type":"VEC2"
		},
		{
			"bufferView":43,
			"componentType":5123,
			"count":36,
			"type":"SCALAR"
		},
		{
			"bufferView":44,
			"componentType":5126,
			"count":24,
			"max":[
				-1.5175780057907104,
				3.26979923248291,
				-0.6223779916763306
			],
			"min":[
				-3.075011730194092,
				1.4258099794387817,
				-0.9916112422943115
			],
			"type":"VEC3"
		},
		{
			"bufferView":45,
			"componentType":5126,
			"count":24,
			"type":"VEC3"
		},
		{
			"bufferView":46,
			"componentType":5126,
			"count":24,
			"type":"VEC2"
		},
		{
			"bufferView":47,
			"componentType":5123,
			"count":36,
			"type":"SCALAR"
		},
		{
			"bufferView":48,
			"componentType":5126,
			"count":704,
			"max":[
				4.858001708984375,
				5.26938533782959,
				1.0000003576278687
			],
			"min":[
				-4.858001708984375,
				-0.7149867415428162,
				-1.0000009536743164
			],
			"type":"VEC3"
		},
		{
			"bufferView":49,
			"componentType":5126,
			"count":704,
			"type":"VEC3"
		},
		{
			"bufferView":50,
			"componentType":5126,
			"count":704,
			"type":"VEC2"
		},
		{
			"bufferView":51,
			"componentType":5126,
			"count":704,
			"type":"VEC2"
		},
		{
			"bufferView":52,
			"componentType":5123,
			"count":1392,
			"type":"SCALAR"
		},
		{
			"bufferView":53,
			"componentType":5126,
			"count":160,
			"max":[
				0.3307531774044037,
				6.102469444274902,
				1.045536756515503
			],
			"min":[
				-0.33246704936027527,
				5.596986770629883,
				-1.2061223983764648
			],
			"type":"VEC3"
		},
		{
			"bufferView":54,
			"componentType":5126,
			"count":160,
			"type":"VEC3"
		},
		{
			"bufferView":55,
			"componentType":5126,
			"count":160,
			"type":"VEC2"
		},
		{
			"bufferView":56,
			"componentType":5126,
			"count":160,
			"type":"VEC2"
		},
		{
			"bufferView":57,
			"componentType":5123,
			"count":408,
			"type":"SCALAR"
		},
		{
			"bufferView":58,
			"componentType":5126,
			"count":288,
			"max":[
				4.974297523498535,
				5.788626670837402,
				1
			],
			"min":[
				-4.974297523498535,
				-0.5635548233985901,
				-0.9999991655349731
			],
			"type":"VEC3"
		},
		{
			"bufferView":59,
			"componentType":5126,
			"count":288,
			"type":"VEC3"
		},
		{
			"bufferView":60,
			"componentType":5126,
			"count":288,
			"type":"VEC2"
		},
		{
			"bufferView":61,
			"componentType":5126,
			"count":288,
			"type":"VEC2"
		},
		{
			"bufferView":62,
			"componentType":5123,
			"count":888,
			"type":"SCALAR"
		}
	],
	"bufferViews":[
		{
			"buffer":0,
			"byteLength":288,
			"byteOffset":0,
			"target":34962
		},
		{
			"buffer":0,
			"byteLength":288,
			"byteOffset":288,
			"target":34962
		},
		{
			"buffer":0,
			"byteLength":192,
			"byteOffset":576,
			"target":34962
		},
		{
			"buffer":0,
			"byteLength":72,
			"byteOffset":768,
			"target":34963
		},
		{
			"buffer":0,
			"byteLength":432,
			"byteOffset":840,
			"target":34962
		},
		{
			"buffer":0,
			"byteLength":432,
			"byteOffset":1272,
			"target":34962
		},
		{
			"buffer":0,
			"byteLength":288,
			"byteOffset":1704,
			"target":34962
		},
		{
			"buffer":0,
			"byteLength":120,
			"byteOffset":1992,
			"target":34963
		},
		{
			"buffer":0,
			"byteLength":288,
			"byteOffset":2112,
			"target":34962
		},
		{
			"buffer":0,
			"byteLength":288,
			"byteOffset":2400,
			"target":34962
		},
		{
			"buffer":0,
			"byteLength":192,
			"byteOffset":2688,
			"target":34962
		},
		{
			"buffer":0,
			"byteLength":72,
			"byteOffset":2880,
			"target":34963
		},
		{
			"buffer":0,
			"byteLength":288,
			"byteOffset":2952,
			"target":34962
		},
		{
			"buffer":0,
			"byteLength":288,
			"byteOffset":3240,
			"target":34962
		},
		{
			"buffer":0,
			"byteLength":192,
			"byteOffset":3528,
			"target":34962
		},
		{
			"buffer":0,
			"byteLength":72,
			"byteOffset":3720,
			"target":34963
		},
		{
			"buffer":0,
			"byteLength":288,
			"byteOffset":3792,
			"target":34962
		},
		{
			"buffer":0,
			"byteLength":288,
			"byteOffset":4080,
			"target":34962
		},
		{
			"buffer":0,
			"byteLength":192,
			"byteOffset":4368,
			"target":34962
		},
		{
			"buffer":0,
			"byteLength":72,
			"byteOffset":4560,
			"target":34963
		},
		{
			"buffer":0,
			"byteLength":432,
			"byteOffset":4632,
			"target":34962
		},
		{
			"buffer":0,
			"byteLength":432,
			"byteOffset":5064,
			"target":34962
		},
		{
			"buffer":0,
			"byteLength":288,
			"byteOffset":5496,
			"target":34962
		},
		{
			"buffer":0,
			"byteLength":120,
			"byteOffset":5784,
			"target":34963
		},
		{
			"buffer":0,
			"byteLength":288,
			"byteOffset":5904,
			"target":34962
		},
		{
			"buffer":0,
			"byteLength":288,
			"byteOffset":6192,
			"target":34962
		},
		{
			"buffer":0,
			"byteLength":192,
			"byteOffset":6480,
			"target":34962
		},
		{
			"buffer":0,
			"byteLength":72,
			"byteOffset":6672,
			"target":34963
		},
		{
			"buffer":0,
			"byteLength":288,
			"byteOffset":6744,
			"target":34962
		},
		{
			"buffer":0,
			"byteLength":288,
			"byteOffset":7032,
			"target":34962
		},
		{
			"buffer":0,
			"byteLength":192,
			"byteOffset":7320,
			"target":34962
		},
		{
			"buffer":0,
			"byteLength":72,
			"byteOffset":7512,
			"target":34963
		},
		{
			"buffer":0,
			"byteLength":288,
			"byteOffset":7584,
			"target":34962
		},
		{
			"buffer":0,
			"byteLength":288,
			"byteOffset":7872,
			"target":34962
		},
		{
			"buffer":0,
			"byteLength":192,
			"byteOffset":8160,
			"target":34962
		},
		{
			"buffer":0,
			"byteLength":72,
			"byteOffset":8352,
			"target":34963
		},
		{
			"buffer":0,
			"byteLength":288,
			"byteOffset":8424,
			"target":34962
		},
		{
			"buffer":0,
			"byteLength":288,
			"byteOffset":8712,
			"target":34962
		},
		{
			"buffer":0,
			"byteLength":192,
			"byteOffset":9000,
			"target":34962
		},
		{
			"buffer":0,
			"byteLength":72,
			"byteOffset":9192,
			"target":34963
		},
		{
			"buffer":0,
			"byteLength":288,
			"byteOffset":9264,
			"target":34962
		},
		{
			"buffer":0,
			"byteLength":288,
			"byteOffset":9552,
			"target":34962
		},
		{
			"buffer":0,
			"byteLength":192,
			"byteOffset":9840,
			"target":34962
		},
		{
			"buffer":0,
			"byteLength":72,
			"byteOffset":10032,
			"target":34963
		},
		{
			"buffer":0,
			"byteLength":288,
			"byteOffset":10104,
			"target":34962
		},
		{
			"buffer":0,
			"byteLength":288,
			"byteOffset":10392,
			"target":34962
		},
		{
			"buffer":0,
			"byteLength":192,
			"byteOffset":10680,
			"target":34962
		},
		{
			"buffer":0,
			"byteLength":72,
			"byteOffset":10872,
			"target":34963
		},
		{
			"buffer":0,
			"byteLength":8448,
			"byteOffset":10944,
			"target":34962
		},
		{
			"buffer":0,
			"byteLength":8448,
			"byteOffset":19392,
			"target":34962
		},
		{
			"buffer":0,
			"byteLength":5632,
			"byteOffset":27840,
			"target":34962
		},
		{
			"buffer":0,
			"byteLength":5632,
			"byteOffset":33472,
			"target":34962
		},
		{
			"buffer":0,
			"byteLength":2784,
			"byteOffset":39104,
			"target":34963
		},
		{
			"buffer":0,
			"byteLength":1920,
			"byteOffset":41888,
			"target":34962
		},
		{
			"buffer":0,
			"byteLength":1920,
			"byteOffset":43808,
			"target":34962
		},
		{
			"buffer":0,
			"byteLength":1280,
			"byteOffset":45728,
			"target":34962
		},
		{
			"buffer":0,
			"byteLength":1280,
			"byteOffset":47008,
			"target":34962
		},
		{
			"buffer":0,
			"byteLength":816,
			"byteOffset":48288,
			"target":34963
		},
		{
			"buffer":0,
			"byteLength":3456,
			"byteOffset":49104,
			"target":34962
		},
		{
			"buffer":0,
			"byteLength":3456,
			"byteOffset":52560,
			"target":34962
		},
		{
			"buffer":0,
			"byteLength":2304,
			"byteOffset":56016,
			"target":34962
		},
		{
			"buffer":0,
			"byteLength":2304,
			"byteOffset":58320,
			"target":34962
		},
		{
			"buffer":0,
			"byteLength":1776,
			"byteOffset":60624,
			"target":34963
		}
	],
	"samplers":[
		{
			"magFilter":9729,
			"minFilter":9987
		}
	],
	"buffers":[
		{
			"byteLength":62400,
			"uri":"Roof_Modular_FlatTiles_8_Dormer.bin"
		}
	]
}
