{
	"asset":{
		"generator":"Khronos glTF Blender I/O v4.0.44",
		"version":"2.0"
	},
	"scene":0,
	"scenes":[
		{
			"name":"Scene",
			"nodes":[
				10
			]
		}
	],
	"nodes":[
		{
			"mesh":0,
			"name":"Roof_Spikes5_01-convcolonly"
		},
		{
			"mesh":1,
			"name":"Roof_Spikes5_02-convcolonly"
		},
		{
			"mesh":2,
			"name":"Roof_Spikes5_03-convcolonly"
		},
		{
			"mesh":3,
			"name":"Roof_Spikes5_04-convcolonly"
		},
		{
			"mesh":4,
			"name":"Roof_Spikes5_05-convcolonly"
		},
		{
			"mesh":5,
			"name":"Roof_Spikes5_06-convcolonly"
		},
		{
			"mesh":6,
			"name":"Roof_Spikes5_07-convcolonly"
		},
		{
			"mesh":7,
			"name":"Roof_Spikes5_08-convcolonly"
		},
		{
			"mesh":8,
			"name":"Roof_Spikes5_09-convcolonly"
		},
		{
			"mesh":9,
			"name":"Roof_Spikes5_10-convcolonly"
		},
		{
			"children":[
				0,
				1,
				2,
				3,
				4,
				5,
				6,
				7,
				8,
				9
			],
			"mesh":10,
			"name":"Roof_Spikes5"
		}
	],
	"materials":[
		{
			"doubleSided":true,
			"name":"Collision",
			"pbrMetallicRoughness":{
				"baseColorFactor":[
					0.05868536978960037,
					0.2907957136631012,
					0.8000074625015259,
					1
				],
				"metallicFactor":0,
				"roughnessFactor":0.5
			}
		},
		{
			"doubleSided":true,
			"name":"MI_MetalOrnaments",
			"pbrMetallicRoughness":{
				"baseColorTexture":{
					"index":0
				},
				"metallicRoughnessTexture":{
					"index":1
				}
			}
		}
	],
	"meshes":[
		{
			"name":"Cube.1545",
			"primitives":[
				{
					"attributes":{
						"POSITION":0,
						"NORMAL":1,
						"TEXCOORD_0":2
					},
					"indices":3,
					"material":0
				}
			]
		},
		{
			"name":"Cube.1546",
			"primitives":[
				{
					"attributes":{
						"POSITION":4,
						"NORMAL":5,
						"TEXCOORD_0":6
					},
					"indices":7,
					"material":0
				}
			]
		},
		{
			"name":"Cube.1547",
			"primitives":[
				{
					"attributes":{
						"POSITION":8,
						"NORMAL":9,
						"TEXCOORD_0":10
					},
					"indices":7,
					"material":0
				}
			]
		},
		{
			"name":"Cube.1548",
			"primitives":[
				{
					"attributes":{
						"POSITION":11,
						"NORMAL":12,
						"TEXCOORD_0":13
					},
					"indices":7,
					"material":0
				}
			]
		},
		{
			"name":"Cube.1549",
			"primitives":[
				{
					"attributes":{
						"POSITION":14,
						"NORMAL":15,
						"TEXCOORD_0":16
					},
					"indices":17,
					"material":0
				}
			]
		},
		{
			"name":"Cube.1550",
			"primitives":[
				{
					"attributes":{
						"POSITION":18,
						"NORMAL":19,
						"TEXCOORD_0":20
					},
					"indices":21,
					"material":0
				}
			]
		},
		{
			"name":"Cube.1551",
			"primitives":[
				{
					"attributes":{
						"POSITION":22,
						"NORMAL":23,
						"TEXCOORD_0":24
					},
					"indices":25,
					"material":0
				}
			]
		},
		{
			"name":"Cube.1552",
			"primitives":[
				{
					"attributes":{
						"POSITION":26,
						"NORMAL":27,
						"TEXCOORD_0":28
					},
					"indices":25,
					"material":0
				}
			]
		},
		{
			"name":"Cube.1553",
			"primitives":[
				{
					"attributes":{
						"POSITION":29,
						"NORMAL":30,
						"TEXCOORD_0":31
					},
					"indices":21,
					"material":0
				}
			]
		},
		{
			"name":"Cube.1554",
			"primitives":[
				{
					"attributes":{
						"POSITION":32,
						"NORMAL":33,
						"TEXCOORD_0":34
					},
					"indices":25,
					"material":0
				}
			]
		},
		{
			"name":"Torus.022",
			"primitives":[
				{
					"attributes":{
						"POSITION":35,
						"NORMAL":36,
						"TEXCOORD_0":37
					},
					"indices":38,
					"material":1
				}
			]
		}
	],
	"textures":[
		{
			"sampler":0,
			"source":0
		},
		{
			"sampler":0,
			"source":1
		}
	],
	"images":[
		{
			"mimeType":"image/png",
			"name":"T_MetalOrnaments_BaseColor",
			"uri":"T_MetalOrnaments_BaseColor.png"
		},
		{
			"mimeType":"image/png",
			"name":"T_MetalOrnaments_Roughness",
			"uri":"T_MetalOrnaments_Roughness.png"
		}
	],
	"accessors":[
		{
			"bufferView":0,
			"componentType":5126,
			"count":24,
			"max":[
				0.06809772551059723,
				1.5508781671524048,
				4.884032249450684
			],
			"min":[
				-0.07602187991142273,
				0.046749893575906754,
				4.538983345031738
			],
			"type":"VEC3"
		},
		{
			"bufferView":1,
			"componentType":5126,
			"count":24,
			"type":"VEC3"
		},
		{
			"bufferView":2,
			"componentType":5126,
			"count":24,
			"type":"VEC2"
		},
		{
			"bufferView":3,
			"componentType":5123,
			"count":36,
			"type":"SCALAR"
		},
		{
			"bufferView":4,
			"componentType":5126,
			"count":24,
			"max":[
				0.06809772551059723,
				1.2923001050949097,
				3.4658353328704834
			],
			"min":[
				-0.07602187991142273,
				-0.02761363983154297,
				3.256679058074951
			],
			"type":"VEC3"
		},
		{
			"bufferView":5,
			"componentType":5126,
			"count":24,
			"type":"VEC3"
		},
		{
			"bufferView":6,
			"componentType":5126,
			"count":24,
			"type":"VEC2"
		},
		{
			"bufferView":7,
			"componentType":5123,
			"count":36,
			"type":"SCALAR"
		},
		{
			"bufferView":8,
			"componentType":5126,
			"count":24,
			"max":[
				0.06809772551059723,
				1.295405387878418,
				2.1515774726867676
			],
			"min":[
				-0.07602187991142273,
				-0.024406075477600098,
				1.9441064596176147
			],
			"type":"VEC3"
		},
		{
			"bufferView":9,
			"componentType":5126,
			"count":24,
			"type":"VEC3"
		},
		{
			"bufferView":10,
			"componentType":5126,
			"count":24,
			"type":"VEC2"
		},
		{
			"bufferView":11,
			"componentType":5126,
			"count":24,
			"max":[
				0.06809772551059723,
				1.278151512145996,
				0.816797137260437
			],
			"min":[
				-0.07602187991142273,
				-0.038471102714538574,
				0.6505640745162964
			],
			"type":"VEC3"
		},
		{
			"bufferView":12,
			"componentType":5126,
			"count":24,
			"type":"VEC3"
		},
		{
			"bufferView":13,
			"componentType":5126,
			"count":24,
			"type":"VEC2"
		},
		{
			"bufferView":14,
			"componentType":5126,
			"count":24,
			"max":[
				0.06532792001962662,
				0.9441421627998352,
				4.770893573760986
			],
			"min":[
				-0.0732518881559372,
				0.5711761713027954,
				4.040302276611328
			],
			"type":"VEC3"
		},
		{
			"bufferView":15,
			"componentType":5126,
			"count":24,
			"type":"VEC3"
		},
		{
			"bufferView":16,
			"componentType":5126,
			"count":24,
			"type":"VEC2"
		},
		{
			"bufferView":17,
			"componentType":5123,
			"count":36,
			"type":"SCALAR"
		},
		{
			"bufferView":18,
			"componentType":5126,
			"count":24,
			"max":[
				0.06532792001962662,
				0.7852350473403931,
				3.425663471221924
			],
			"min":[
				-0.0732518881559372,
				0.4975137710571289,
				2.683598756790161
			],
			"type":"VEC3"
		},
		{
			"bufferView":19,
			"componentType":5126,
			"count":24,
			"type":"VEC3"
		},
		{
			"bufferView":20,
			"componentType":5126,
			"count":24,
			"type":"VEC2"
		},
		{
			"bufferView":21,
			"componentType":5123,
			"count":36,
			"type":"SCALAR"
		},
		{
			"bufferView":22,
			"componentType":5126,
			"count":24,
			"max":[
				0.06532792001962662,
				0.8012023568153381,
				4.054051399230957
			],
			"min":[
				-0.0732518881559372,
				0.5711761713027954,
				3.323460578918457
			],
			"type":"VEC3"
		},
		{
			"bufferView":23,
			"componentType":5126,
			"count":24,
			"type":"VEC3"
		},
		{
			"bufferView":24,
			"componentType":5126,
			"count":24,
			"type":"VEC2"
		},
		{
			"bufferView":25,
			"componentType":5123,
			"count":36,
			"type":"SCALAR"
		},
		{
			"bufferView":26,
			"componentType":5126,
			"count":24,
			"max":[
				0.06532792001962662,
				0.8118358850479126,
				2.6861572265625
			],
			"min":[
				-0.0732518881559372,
				0.4975137710571289,
				1.9825588464736938
			],
			"type":"VEC3"
		},
		{
			"bufferView":27,
			"componentType":5126,
			"count":24,
			"type":"VEC3"
		},
		{
			"bufferView":28,
			"componentType":5126,
			"count":24,
			"type":"VEC2"
		},
		{
			"bufferView":29,
			"componentType":5126,
			"count":24,
			"max":[
				0.06532792001962662,
				0.7820219993591309,
				2.1276025772094727
			],
			"min":[
				-0.0732518881559372,
				0.4943007528781891,
				1.3855377435684204
			],
			"type":"VEC3"
		},
		{
			"bufferView":30,
			"componentType":5126,
			"count":24,
			"type":"VEC3"
		},
		{
			"bufferView":31,
			"componentType":5126,
			"count":24,
			"type":"VEC2"
		},
		{
			"bufferView":32,
			"componentType":5126,
			"count":24,
			"max":[
				0.06532792001962662,
				0.8086228370666504,
				1.3880962133407593
			],
			"min":[
				-0.0732518881559372,
				0.4943007528781891,
				0.6844978332519531
			],
			"type":"VEC3"
		},
		{
			"bufferView":33,
			"componentType":5126,
			"count":24,
			"type":"VEC3"
		},
		{
			"bufferView":34,
			"componentType":5126,
			"count":24,
			"type":"VEC2"
		},
		{
			"bufferView":35,
			"componentType":5126,
			"count":1640,
			"max":[
				0.08931872248649597,
				1.5015766620635986,
				4.885021209716797
			],
			"min":[
				-0.08931872248649597,
				-0.06305817514657974,
				0.6921352744102478
			],
			"type":"VEC3"
		},
		{
			"bufferView":36,
			"componentType":5126,
			"count":1640,
			"type":"VEC3"
		},
		{
			"bufferView":37,
			"componentType":5126,
			"count":1640,
			"type":"VEC2"
		},
		{
			"bufferView":38,
			"componentType":5123,
			"count":5292,
			"type":"SCALAR"
		}
	],
	"bufferViews":[
		{
			"buffer":0,
			"byteLength":288,
			"byteOffset":0,
			"target":34962
		},
		{
			"buffer":0,
			"byteLength":288,
			"byteOffset":288,
			"target":34962
		},
		{
			"buffer":0,
			"byteLength":192,
			"byteOffset":576,
			"target":34962
		},
		{
			"buffer":0,
			"byteLength":72,
			"byteOffset":768,
			"target":34963
		},
		{
			"buffer":0,
			"byteLength":288,
			"byteOffset":840,
			"target":34962
		},
		{
			"buffer":0,
			"byteLength":288,
			"byteOffset":1128,
			"target":34962
		},
		{
			"buffer":0,
			"byteLength":192,
			"byteOffset":1416,
			"target":34962
		},
		{
			"buffer":0,
			"byteLength":72,
			"byteOffset":1608,
			"target":34963
		},
		{
			"buffer":0,
			"byteLength":288,
			"byteOffset":1680,
			"target":34962
		},
		{
			"buffer":0,
			"byteLength":288,
			"byteOffset":1968,
			"target":34962
		},
		{
			"buffer":0,
			"byteLength":192,
			"byteOffset":2256,
			"target":34962
		},
		{
			"buffer":0,
			"byteLength":288,
			"byteOffset":2448,
			"target":34962
		},
		{
			"buffer":0,
			"byteLength":288,
			"byteOffset":2736,
			"target":34962
		},
		{
			"buffer":0,
			"byteLength":192,
			"byteOffset":3024,
			"target":34962
		},
		{
			"buffer":0,
			"byteLength":288,
			"byteOffset":3216,
			"target":34962
		},
		{
			"buffer":0,
			"byteLength":288,
			"byteOffset":3504,
			"target":34962
		},
		{
			"buffer":0,
			"byteLength":192,
			"byteOffset":3792,
			"target":34962
		},
		{
			"buffer":0,
			"byteLength":72,
			"byteOffset":3984,
			"target":34963
		},
		{
			"buffer":0,
			"byteLength":288,
			"byteOffset":4056,
			"target":34962
		},
		{
			"buffer":0,
			"byteLength":288,
			"byteOffset":4344,
			"target":34962
		},
		{
			"buffer":0,
			"byteLength":192,
			"byteOffset":4632,
			"target":34962
		},
		{
			"buffer":0,
			"byteLength":72,
			"byteOffset":4824,
			"target":34963
		},
		{
			"buffer":0,
			"byteLength":288,
			"byteOffset":4896,
			"target":34962
		},
		{
			"buffer":0,
			"byteLength":288,
			"byteOffset":5184,
			"target":34962
		},
		{
			"buffer":0,
			"byteLength":192,
			"byteOffset":5472,
			"target":34962
		},
		{
			"buffer":0,
			"byteLength":72,
			"byteOffset":5664,
			"target":34963
		},
		{
			"buffer":0,
			"byteLength":288,
			"byteOffset":5736,
			"target":34962
		},
		{
			"buffer":0,
			"byteLength":288,
			"byteOffset":6024,
			"target":34962
		},
		{
			"buffer":0,
			"byteLength":192,
			"byteOffset":6312,
			"target":34962
		},
		{
			"buffer":0,
			"byteLength":288,
			"byteOffset":6504,
			"target":34962
		},
		{
			"buffer":0,
			"byteLength":288,
			"byteOffset":6792,
			"target":34962
		},
		{
			"buffer":0,
			"byteLength":192,
			"byteOffset":7080,
			"target":34962
		},
		{
			"buffer":0,
			"byteLength":288,
			"byteOffset":7272,
			"target":34962
		},
		{
			"buffer":0,
			"byteLength":288,
			"byteOffset":7560,
			"target":34962
		},
		{
			"buffer":0,
			"byteLength":192,
			"byteOffset":7848,
			"target":34962
		},
		{
			"buffer":0,
			"byteLength":19680,
			"byteOffset":8040,
			"target":34962
		},
		{
			"buffer":0,
			"byteLength":19680,
			"byteOffset":27720,
			"target":34962
		},
		{
			"buffer":0,
			"byteLength":13120,
			"byteOffset":47400,
			"target":34962
		},
		{
			"buffer":0,
			"byteLength":10584,
			"byteOffset":60520,
			"target":34963
		}
	],
	"samplers":[
		{
			"magFilter":9729,
			"minFilter":9987
		}
	],
	"buffers":[
		{
			"byteLength":71104,
			"uri":"Roof_Spikes5.bin"
		}
	]
}
