{
	"asset":{
		"generator":"Khronos glTF Blender I/O v4.0.44",
		"version":"2.0"
	},
	"scene":0,
	"scenes":[
		{
			"name":"Scene",
			"nodes":[
				4
			]
		}
	],
	"nodes":[
		{
			"mesh":0,
			"name":"Roof_FlatTile_2x1_1-convcolonly"
		},
		{
			"mesh":1,
			"name":"Roof_FlatTile_2x1_2-convcolonly"
		},
		{
			"mesh":2,
			"name":"Roof_FlatTile_2x1_3-convcolonly"
		},
		{
			"mesh":3,
			"name":"Roof_FlatTile_2x1_4-convcolonly"
		},
		{
			"children":[
				0,
				1,
				2,
				3
			],
			"mesh":4,
			"name":"Roof_FlatTile_2x1"
		}
	],
	"materials":[
		{
			"doubleSided":true,
			"name":"Collision",
			"pbrMetallicRoughness":{
				"baseColorFactor":[
					0.05868536978960037,
					0.2907957136631012,
					0.8000074625015259,
					1
				],
				"metallicFactor":0,
				"roughnessFactor":0.5
			}
		},
		{
			"doubleSided":true,
			"name":"MI_RoundTiles",
			"normalTexture":{
				"index":0
			},
			"pbrMetallicRoughness":{
				"baseColorTexture":{
					"index":1
				},
				"metallicFactor":0,
				"metallicRoughnessTexture":{
					"index":2
				}
			}
		},
		{
			"doubleSided":true,
			"name":"MI_WoodTrim",
			"normalTexture":{
				"index":3
			},
			"pbrMetallicRoughness":{
				"baseColorTexture":{
					"index":4
				},
				"metallicFactor":0,
				"metallicRoughnessTexture":{
					"index":5
				}
			}
		},
		{
			"doubleSided":true,
			"name":"MI_FlatTiles",
			"normalTexture":{
				"index":6
			},
			"pbrMetallicRoughness":{
				"baseColorTexture":{
					"index":7
				},
				"metallicFactor":0,
				"metallicRoughnessTexture":{
					"index":8
				}
			}
		}
	],
	"meshes":[
		{
			"name":"Cube.1004",
			"primitives":[
				{
					"attributes":{
						"POSITION":0,
						"NORMAL":1,
						"TEXCOORD_0":2
					},
					"indices":3,
					"material":0
				}
			]
		},
		{
			"name":"Cube.1005",
			"primitives":[
				{
					"attributes":{
						"POSITION":4,
						"NORMAL":5,
						"TEXCOORD_0":6
					},
					"indices":7,
					"material":0
				}
			]
		},
		{
			"name":"Cube.1006",
			"primitives":[
				{
					"attributes":{
						"POSITION":8,
						"NORMAL":9,
						"TEXCOORD_0":10
					},
					"indices":11,
					"material":0
				}
			]
		},
		{
			"name":"Cube.1007",
			"primitives":[
				{
					"attributes":{
						"POSITION":12,
						"NORMAL":13,
						"TEXCOORD_0":14
					},
					"indices":15,
					"material":0
				}
			]
		},
		{
			"name":"Cylinder.005",
			"primitives":[
				{
					"attributes":{
						"POSITION":16,
						"NORMAL":17,
						"TEXCOORD_0":18,
						"TEXCOORD_1":19
					},
					"indices":20,
					"material":1
				},
				{
					"attributes":{
						"POSITION":21,
						"NORMAL":22,
						"TEXCOORD_0":23,
						"TEXCOORD_1":24
					},
					"indices":25,
					"material":2
				},
				{
					"attributes":{
						"POSITION":26,
						"NORMAL":27,
						"TEXCOORD_0":28,
						"TEXCOORD_1":29
					},
					"indices":30,
					"material":3
				}
			]
		}
	],
	"textures":[
		{
			"sampler":0,
			"source":0
		},
		{
			"sampler":0,
			"source":1
		},
		{
			"sampler":0,
			"source":2
		},
		{
			"sampler":0,
			"source":3
		},
		{
			"sampler":0,
			"source":4
		},
		{
			"sampler":0,
			"source":5
		},
		{
			"sampler":0,
			"source":6
		},
		{
			"sampler":0,
			"source":7
		},
		{
			"sampler":0,
			"source":8
		}
	],
	"images":[
		{
			"mimeType":"image/png",
			"name":"T_RoundTiles_Normal",
			"uri":"T_RoundTiles_Normal.png"
		},
		{
			"mimeType":"image/png",
			"name":"T_RoundTiles_BaseColor",
			"uri":"T_RoundTiles_BaseColor.png"
		},
		{
			"mimeType":"image/png",
			"name":"T_RoundTiles_Roughness",
			"uri":"T_RoundTiles_Roughness.png"
		},
		{
			"mimeType":"image/png",
			"name":"T_WoodTrim_Normal",
			"uri":"T_WoodTrim_Normal.png"
		},
		{
			"mimeType":"image/png",
			"name":"T_WoodTrim_BaseColor",
			"uri":"T_WoodTrim_BaseColor.png"
		},
		{
			"mimeType":"image/png",
			"name":"T_WoodTrim_Roughness",
			"uri":"T_WoodTrim_Roughness.png"
		},
		{
			"mimeType":"image/png",
			"name":"T_FlatTiles_Normal",
			"uri":"T_FlatTiles_Normal.png"
		},
		{
			"mimeType":"image/png",
			"name":"T_FlatTiles_BaseColor",
			"uri":"T_FlatTiles_BaseColor.png"
		},
		{
			"mimeType":"image/png",
			"name":"T_FlatTiles_Roughness",
			"uri":"T_FlatTiles_Roughness.png"
		}
	],
	"accessors":[
		{
			"bufferView":0,
			"componentType":5126,
			"count":24,
			"max":[
				0.0016666725277900696,
				2.121676445007324,
				1.4495289325714111
			],
			"min":[
				-1.6906466484069824,
				-0.35128381848335266,
				-0.4095703959465027
			],
			"type":"VEC3"
		},
		{
			"bufferView":1,
			"componentType":5126,
			"count":24,
			"type":"VEC3"
		},
		{
			"bufferView":2,
			"componentType":5126,
			"count":24,
			"type":"VEC2"
		},
		{
			"bufferView":3,
			"componentType":5123,
			"count":36,
			"type":"SCALAR"
		},
		{
			"bufferView":4,
			"componentType":5126,
			"count":24,
			"max":[
				1.6906466484069824,
				2.121676445007324,
				1.4495289325714111
			],
			"min":[
				-0.0016666725277900696,
				-0.35128381848335266,
				-0.4095703959465027
			],
			"type":"VEC3"
		},
		{
			"bufferView":5,
			"componentType":5126,
			"count":24,
			"type":"VEC3"
		},
		{
			"bufferView":6,
			"componentType":5126,
			"count":24,
			"type":"VEC2"
		},
		{
			"bufferView":7,
			"componentType":5123,
			"count":36,
			"type":"SCALAR"
		},
		{
			"bufferView":8,
			"componentType":5126,
			"count":24,
			"max":[
				0.32039210200309753,
				2.2814693450927734,
				1.4495289325714111
			],
			"min":[
				-0.3277665674686432,
				1.9847744703292847,
				0.6798906326293945
			],
			"type":"VEC3"
		},
		{
			"bufferView":9,
			"componentType":5126,
			"count":24,
			"type":"VEC3"
		},
		{
			"bufferView":10,
			"componentType":5126,
			"count":24,
			"type":"VEC2"
		},
		{
			"bufferView":11,
			"componentType":5123,
			"count":36,
			"type":"SCALAR"
		},
		{
			"bufferView":12,
			"componentType":5126,
			"count":24,
			"max":[
				0.32039210200309753,
				2.2814693450927734,
				0.6798906326293945
			],
			"min":[
				-0.3277665674686432,
				1.8378746509552002,
				-0.43685105443000793
			],
			"type":"VEC3"
		},
		{
			"bufferView":13,
			"componentType":5126,
			"count":24,
			"type":"VEC3"
		},
		{
			"bufferView":14,
			"componentType":5126,
			"count":24,
			"type":"VEC2"
		},
		{
			"bufferView":15,
			"componentType":5123,
			"count":36,
			"type":"SCALAR"
		},
		{
			"bufferView":16,
			"componentType":5126,
			"count":160,
			"max":[
				0.33075252175331116,
				2.165245771408081,
				1.4594858884811401
			],
			"min":[
				-0.3324677050113678,
				1.7054446935653687,
				-0.44728535413742065
			],
			"type":"VEC3"
		},
		{
			"bufferView":17,
			"componentType":5126,
			"count":160,
			"type":"VEC3"
		},
		{
			"bufferView":18,
			"componentType":5126,
			"count":160,
			"type":"VEC2"
		},
		{
			"bufferView":19,
			"componentType":5126,
			"count":160,
			"type":"VEC2"
		},
		{
			"bufferView":20,
			"componentType":5123,
			"count":408,
			"type":"SCALAR"
		},
		{
			"bufferView":21,
			"componentType":5126,
			"count":356,
			"max":[
				1.5365829467773438,
				1.903069019317627,
				1.4169508218765259
			],
			"min":[
				-1.5365829467773438,
				-0.34155815839767456,
				-0.41289833188056946
			],
			"type":"VEC3"
		},
		{
			"bufferView":22,
			"componentType":5126,
			"count":356,
			"type":"VEC3"
		},
		{
			"bufferView":23,
			"componentType":5126,
			"count":356,
			"type":"VEC2"
		},
		{
			"bufferView":24,
			"componentType":5126,
			"count":356,
			"type":"VEC2"
		},
		{
			"bufferView":25,
			"componentType":5123,
			"count":624,
			"type":"SCALAR"
		},
		{
			"bufferView":26,
			"componentType":5126,
			"count":302,
			"max":[
				1.6134475469589233,
				1.9957880973815918,
				1.3133959770202637
			],
			"min":[
				-1.6134475469589233,
				-0.1846579909324646,
				-0.3651304543018341
			],
			"type":"VEC3"
		},
		{
			"bufferView":27,
			"componentType":5126,
			"count":302,
			"type":"VEC3"
		},
		{
			"bufferView":28,
			"componentType":5126,
			"count":302,
			"type":"VEC2"
		},
		{
			"bufferView":29,
			"componentType":5126,
			"count":302,
			"type":"VEC2"
		},
		{
			"bufferView":30,
			"componentType":5123,
			"count":732,
			"type":"SCALAR"
		}
	],
	"bufferViews":[
		{
			"buffer":0,
			"byteLength":288,
			"byteOffset":0,
			"target":34962
		},
		{
			"buffer":0,
			"byteLength":288,
			"byteOffset":288,
			"target":34962
		},
		{
			"buffer":0,
			"byteLength":192,
			"byteOffset":576,
			"target":34962
		},
		{
			"buffer":0,
			"byteLength":72,
			"byteOffset":768,
			"target":34963
		},
		{
			"buffer":0,
			"byteLength":288,
			"byteOffset":840,
			"target":34962
		},
		{
			"buffer":0,
			"byteLength":288,
			"byteOffset":1128,
			"target":34962
		},
		{
			"buffer":0,
			"byteLength":192,
			"byteOffset":1416,
			"target":34962
		},
		{
			"buffer":0,
			"byteLength":72,
			"byteOffset":1608,
			"target":34963
		},
		{
			"buffer":0,
			"byteLength":288,
			"byteOffset":1680,
			"target":34962
		},
		{
			"buffer":0,
			"byteLength":288,
			"byteOffset":1968,
			"target":34962
		},
		{
			"buffer":0,
			"byteLength":192,
			"byteOffset":2256,
			"target":34962
		},
		{
			"buffer":0,
			"byteLength":72,
			"byteOffset":2448,
			"target":34963
		},
		{
			"buffer":0,
			"byteLength":288,
			"byteOffset":2520,
			"target":34962
		},
		{
			"buffer":0,
			"byteLength":288,
			"byteOffset":2808,
			"target":34962
		},
		{
			"buffer":0,
			"byteLength":192,
			"byteOffset":3096,
			"target":34962
		},
		{
			"buffer":0,
			"byteLength":72,
			"byteOffset":3288,
			"target":34963
		},
		{
			"buffer":0,
			"byteLength":1920,
			"byteOffset":3360,
			"target":34962
		},
		{
			"buffer":0,
			"byteLength":1920,
			"byteOffset":5280,
			"target":34962
		},
		{
			"buffer":0,
			"byteLength":1280,
			"byteOffset":7200,
			"target":34962
		},
		{
			"buffer":0,
			"byteLength":1280,
			"byteOffset":8480,
			"target":34962
		},
		{
			"buffer":0,
			"byteLength":816,
			"byteOffset":9760,
			"target":34963
		},
		{
			"buffer":0,
			"byteLength":4272,
			"byteOffset":10576,
			"target":34962
		},
		{
			"buffer":0,
			"byteLength":4272,
			"byteOffset":14848,
			"target":34962
		},
		{
			"buffer":0,
			"byteLength":2848,
			"byteOffset":19120,
			"target":34962
		},
		{
			"buffer":0,
			"byteLength":2848,
			"byteOffset":21968,
			"target":34962
		},
		{
			"buffer":0,
			"byteLength":1248,
			"byteOffset":24816,
			"target":34963
		},
		{
			"buffer":0,
			"byteLength":3624,
			"byteOffset":26064,
			"target":34962
		},
		{
			"buffer":0,
			"byteLength":3624,
			"byteOffset":29688,
			"target":34962
		},
		{
			"buffer":0,
			"byteLength":2416,
			"byteOffset":33312,
			"target":34962
		},
		{
			"buffer":0,
			"byteLength":2416,
			"byteOffset":35728,
			"target":34962
		},
		{
			"buffer":0,
			"byteLength":1464,
			"byteOffset":38144,
			"target":34963
		}
	],
	"samplers":[
		{
			"magFilter":9729,
			"minFilter":9987
		}
	],
	"buffers":[
		{
			"byteLength":39608,
			"uri":"Roof_FlatTile_2x1.bin"
		}
	]
}
