{
	"asset":{
		"generator":"Khronos glTF Blender I/O v4.0.44",
		"version":"2.0"
	},
	"scene":0,
	"scenes":[
		{
			"name":"Scene",
			"nodes":[
				2
			]
		}
	],
	"nodes":[
		{
			"mesh":0,
			"name":"Roof_Modular_FlatTiles_4_L_Half_1-convcolonly"
		},
		{
			"mesh":1,
			"name":"Roof_Modular_FlatTiles_4_L_Half_2-convcolonly"
		},
		{
			"children":[
				0,
				1
			],
			"mesh":2,
			"name":"Roof_Modular_FlatTiles_4_L_Half"
		}
	],
	"materials":[
		{
			"doubleSided":true,
			"name":"Collision",
			"pbrMetallicRoughness":{
				"baseColorFactor":[
					0.05868536978960037,
					0.2907957136631012,
					0.8000074625015259,
					1
				],
				"metallicFactor":0,
				"roughnessFactor":0.5
			}
		},
		{
			"doubleSided":true,
			"name":"MI_WoodTrim",
			"normalTexture":{
				"index":0
			},
			"pbrMetallicRoughness":{
				"baseColorTexture":{
					"index":1
				},
				"metallicFactor":0,
				"metallicRoughnessTexture":{
					"index":2
				}
			}
		},
		{
			"doubleSided":true,
			"name":"MI_FlatTiles",
			"normalTexture":{
				"index":3
			},
			"pbrMetallicRoughness":{
				"baseColorTexture":{
					"index":4
				},
				"metallicFactor":0,
				"metallicRoughnessTexture":{
					"index":5
				}
			}
		}
	],
	"meshes":[
		{
			"name":"Cube.032",
			"primitives":[
				{
					"attributes":{
						"POSITION":0,
						"NORMAL":1,
						"TEXCOORD_0":2
					},
					"indices":3,
					"material":0
				}
			]
		},
		{
			"name":"Cube.075",
			"primitives":[
				{
					"attributes":{
						"POSITION":4,
						"NORMAL":5,
						"TEXCOORD_0":6
					},
					"indices":7,
					"material":0
				}
			]
		},
		{
			"name":"Cube.003",
			"primitives":[
				{
					"attributes":{
						"POSITION":8,
						"NORMAL":9,
						"TEXCOORD_0":10,
						"TEXCOORD_1":11
					},
					"indices":12,
					"material":1
				},
				{
					"attributes":{
						"POSITION":13,
						"NORMAL":14,
						"TEXCOORD_0":15,
						"TEXCOORD_1":16
					},
					"indices":17,
					"material":2
				}
			]
		}
	],
	"textures":[
		{
			"sampler":0,
			"source":0
		},
		{
			"sampler":0,
			"source":1
		},
		{
			"sampler":0,
			"source":2
		},
		{
			"sampler":0,
			"source":3
		},
		{
			"sampler":0,
			"source":4
		},
		{
			"sampler":0,
			"source":5
		}
	],
	"images":[
		{
			"mimeType":"image/png",
			"name":"T_WoodTrim_Normal",
			"uri":"T_WoodTrim_Normal.png"
		},
		{
			"mimeType":"image/png",
			"name":"T_WoodTrim_BaseColor",
			"uri":"T_WoodTrim_BaseColor.png"
		},
		{
			"mimeType":"image/png",
			"name":"T_WoodTrim_Roughness",
			"uri":"T_WoodTrim_Roughness.png"
		},
		{
			"mimeType":"image/png",
			"name":"T_FlatTiles_Normal",
			"uri":"T_FlatTiles_Normal.png"
		},
		{
			"mimeType":"image/png",
			"name":"T_FlatTiles_BaseColor",
			"uri":"T_FlatTiles_BaseColor.png"
		},
		{
			"mimeType":"image/png",
			"name":"T_FlatTiles_Roughness",
			"uri":"T_FlatTiles_Roughness.png"
		}
	],
	"accessors":[
		{
			"bufferView":0,
			"componentType":5126,
			"count":24,
			"max":[
				2.7237000465393066,
				0.9875379800796509,
				1.16733717918396
			],
			"min":[
				1.4186744689941406,
				-0.5602136850357056,
				-1.0000033378601074
			],
			"type":"VEC3"
		},
		{
			"bufferView":1,
			"componentType":5126,
			"count":24,
			"type":"VEC3"
		},
		{
			"bufferView":2,
			"componentType":5126,
			"count":24,
			"type":"VEC2"
		},
		{
			"bufferView":3,
			"componentType":5123,
			"count":36,
			"type":"SCALAR"
		},
		{
			"bufferView":4,
			"componentType":5126,
			"count":24,
			"max":[
				1.7295626401901245,
				3.357370376586914,
				1.1673357486724854
			],
			"min":[
				-0.0016678571701049805,
				0.6483423709869385,
				-1.0000038146972656
			],
			"type":"VEC3"
		},
		{
			"bufferView":5,
			"componentType":5126,
			"count":24,
			"type":"VEC3"
		},
		{
			"bufferView":6,
			"componentType":5126,
			"count":24,
			"type":"VEC2"
		},
		{
			"bufferView":7,
			"componentType":5123,
			"count":36,
			"type":"SCALAR"
		},
		{
			"bufferView":8,
			"componentType":5126,
			"count":220,
			"max":[
				2.612257957458496,
				3.2241735458374023,
				1.2385139465332031
			],
			"min":[
				-0.0005674958229064941,
				-0.5222746729850769,
				-0.9999992847442627
			],
			"type":"VEC3"
		},
		{
			"bufferView":9,
			"componentType":5126,
			"count":220,
			"type":"VEC3"
		},
		{
			"bufferView":10,
			"componentType":5126,
			"count":220,
			"type":"VEC2"
		},
		{
			"bufferView":11,
			"componentType":5126,
			"count":220,
			"type":"VEC2"
		},
		{
			"bufferView":12,
			"componentType":5123,
			"count":378,
			"type":"SCALAR"
		},
		{
			"bufferView":13,
			"componentType":5126,
			"count":98,
			"max":[
				2.697944402694702,
				3.372676372528076,
				1.1972002983093262
			],
			"min":[
				-0.0005674362182617188,
				-0.38829052448272705,
				-0.9999997615814209
			],
			"type":"VEC3"
		},
		{
			"bufferView":14,
			"componentType":5126,
			"count":98,
			"type":"VEC3"
		},
		{
			"bufferView":15,
			"componentType":5126,
			"count":98,
			"type":"VEC2"
		},
		{
			"bufferView":16,
			"componentType":5126,
			"count":98,
			"type":"VEC2"
		},
		{
			"bufferView":17,
			"componentType":5123,
			"count":321,
			"type":"SCALAR"
		}
	],
	"bufferViews":[
		{
			"buffer":0,
			"byteLength":288,
			"byteOffset":0,
			"target":34962
		},
		{
			"buffer":0,
			"byteLength":288,
			"byteOffset":288,
			"target":34962
		},
		{
			"buffer":0,
			"byteLength":192,
			"byteOffset":576,
			"target":34962
		},
		{
			"buffer":0,
			"byteLength":72,
			"byteOffset":768,
			"target":34963
		},
		{
			"buffer":0,
			"byteLength":288,
			"byteOffset":840,
			"target":34962
		},
		{
			"buffer":0,
			"byteLength":288,
			"byteOffset":1128,
			"target":34962
		},
		{
			"buffer":0,
			"byteLength":192,
			"byteOffset":1416,
			"target":34962
		},
		{
			"buffer":0,
			"byteLength":72,
			"byteOffset":1608,
			"target":34963
		},
		{
			"buffer":0,
			"byteLength":2640,
			"byteOffset":1680,
			"target":34962
		},
		{
			"buffer":0,
			"byteLength":2640,
			"byteOffset":4320,
			"target":34962
		},
		{
			"buffer":0,
			"byteLength":1760,
			"byteOffset":6960,
			"target":34962
		},
		{
			"buffer":0,
			"byteLength":1760,
			"byteOffset":8720,
			"target":34962
		},
		{
			"buffer":0,
			"byteLength":756,
			"byteOffset":10480,
			"target":34963
		},
		{
			"buffer":0,
			"byteLength":1176,
			"byteOffset":11236,
			"target":34962
		},
		{
			"buffer":0,
			"byteLength":1176,
			"byteOffset":12412,
			"target":34962
		},
		{
			"buffer":0,
			"byteLength":784,
			"byteOffset":13588,
			"target":34962
		},
		{
			"buffer":0,
			"byteLength":784,
			"byteOffset":14372,
			"target":34962
		},
		{
			"buffer":0,
			"byteLength":642,
			"byteOffset":15156,
			"target":34963
		}
	],
	"samplers":[
		{
			"magFilter":9729,
			"minFilter":9987
		}
	],
	"buffers":[
		{
			"byteLength":15800,
			"uri":"Roof_Modular_FlatTiles_4_L_Half.bin"
		}
	]
}
