{
	"asset":{
		"generator":"Khronos glTF Blender I/O v4.0.44",
		"version":"2.0"
	},
	"scene":0,
	"scenes":[
		{
			"name":"Scene",
			"nodes":[
				8
			]
		}
	],
	"nodes":[
		{
			"mesh":0,
			"name":"Roof_Modular_FlatTiles_6_L_01-convcolonly"
		},
		{
			"mesh":1,
			"name":"Roof_Modular_FlatTiles_6_L_02-convcolonly"
		},
		{
			"mesh":2,
			"name":"Roof_Modular_FlatTiles_6_L_03-convcolonly"
		},
		{
			"mesh":3,
			"name":"Roof_Modular_FlatTiles_6_L_04-convcolonly"
		},
		{
			"mesh":4,
			"name":"Roof_Modular_FlatTiles_6_L_05-convcolonly"
		},
		{
			"mesh":5,
			"name":"Roof_Modular_FlatTiles_6_L_06-convcolonly"
		},
		{
			"mesh":6,
			"name":"Roof_Modular_FlatTiles_6_L_07-convcolonly"
		},
		{
			"mesh":7,
			"name":"Roof_Modular_FlatTiles_6_L_08-convcolonly"
		},
		{
			"children":[
				0,
				1,
				2,
				3,
				4,
				5,
				6,
				7
			],
			"mesh":8,
			"name":"Roof_Modular_FlatTiles_6_L"
		}
	],
	"materials":[
		{
			"doubleSided":true,
			"name":"Collision",
			"pbrMetallicRoughness":{
				"baseColorFactor":[
					0.05868536978960037,
					0.2907957136631012,
					0.8000074625015259,
					1
				],
				"metallicFactor":0,
				"roughnessFactor":0.5
			}
		},
		{
			"doubleSided":true,
			"name":"MI_WoodTrim",
			"normalTexture":{
				"index":0
			},
			"pbrMetallicRoughness":{
				"baseColorTexture":{
					"index":1
				},
				"metallicFactor":0,
				"metallicRoughnessTexture":{
					"index":2
				}
			}
		},
		{
			"doubleSided":true,
			"name":"MI_RoundTiles",
			"normalTexture":{
				"index":3
			},
			"pbrMetallicRoughness":{
				"baseColorTexture":{
					"index":4
				},
				"metallicFactor":0,
				"metallicRoughnessTexture":{
					"index":5
				}
			}
		},
		{
			"doubleSided":true,
			"name":"MI_FlatTiles",
			"normalTexture":{
				"index":6
			},
			"pbrMetallicRoughness":{
				"baseColorTexture":{
					"index":7
				},
				"metallicFactor":0,
				"metallicRoughnessTexture":{
					"index":8
				}
			}
		}
	],
	"meshes":[
		{
			"name":"Cube.394",
			"primitives":[
				{
					"attributes":{
						"POSITION":0,
						"NORMAL":1,
						"TEXCOORD_0":2
					},
					"indices":3,
					"material":0
				}
			]
		},
		{
			"name":"Cube.395",
			"primitives":[
				{
					"attributes":{
						"POSITION":4,
						"NORMAL":5,
						"TEXCOORD_0":6
					},
					"indices":7,
					"material":0
				}
			]
		},
		{
			"name":"Cube.396",
			"primitives":[
				{
					"attributes":{
						"POSITION":8,
						"NORMAL":9,
						"TEXCOORD_0":10
					},
					"indices":11,
					"material":0
				}
			]
		},
		{
			"name":"Cube.397",
			"primitives":[
				{
					"attributes":{
						"POSITION":12,
						"NORMAL":13,
						"TEXCOORD_0":14
					},
					"indices":15,
					"material":0
				}
			]
		},
		{
			"name":"Cube.398",
			"primitives":[
				{
					"attributes":{
						"POSITION":16,
						"NORMAL":17,
						"TEXCOORD_0":18
					},
					"indices":19,
					"material":0
				}
			]
		},
		{
			"name":"Cube.399",
			"primitives":[
				{
					"attributes":{
						"POSITION":20,
						"NORMAL":21,
						"TEXCOORD_0":22
					},
					"indices":23,
					"material":0
				}
			]
		},
		{
			"name":"Cube.400",
			"primitives":[
				{
					"attributes":{
						"POSITION":24,
						"NORMAL":25,
						"TEXCOORD_0":26
					},
					"indices":27,
					"material":0
				}
			]
		},
		{
			"name":"Cube.403",
			"primitives":[
				{
					"attributes":{
						"POSITION":28,
						"NORMAL":29,
						"TEXCOORD_0":30
					},
					"indices":31,
					"material":0
				}
			]
		},
		{
			"name":"Cube.234",
			"primitives":[
				{
					"attributes":{
						"POSITION":32,
						"NORMAL":33,
						"TEXCOORD_0":34,
						"TEXCOORD_1":35
					},
					"indices":36,
					"material":1
				},
				{
					"attributes":{
						"POSITION":37,
						"NORMAL":38,
						"TEXCOORD_0":39,
						"TEXCOORD_1":40
					},
					"indices":41,
					"material":2
				},
				{
					"attributes":{
						"POSITION":42,
						"NORMAL":43,
						"TEXCOORD_0":44,
						"TEXCOORD_1":45
					},
					"indices":46,
					"material":3
				}
			]
		}
	],
	"textures":[
		{
			"sampler":0,
			"source":0
		},
		{
			"sampler":0,
			"source":1
		},
		{
			"sampler":0,
			"source":2
		},
		{
			"sampler":0,
			"source":3
		},
		{
			"sampler":0,
			"source":4
		},
		{
			"sampler":0,
			"source":5
		},
		{
			"sampler":0,
			"source":6
		},
		{
			"sampler":0,
			"source":7
		},
		{
			"sampler":0,
			"source":8
		}
	],
	"images":[
		{
			"mimeType":"image/png",
			"name":"T_WoodTrim_Normal",
			"uri":"T_WoodTrim_Normal.png"
		},
		{
			"mimeType":"image/png",
			"name":"T_WoodTrim_BaseColor",
			"uri":"T_WoodTrim_BaseColor.png"
		},
		{
			"mimeType":"image/png",
			"name":"T_WoodTrim_Roughness",
			"uri":"T_WoodTrim_Roughness.png"
		},
		{
			"mimeType":"image/png",
			"name":"T_RoundTiles_Normal",
			"uri":"T_RoundTiles_Normal.png"
		},
		{
			"mimeType":"image/png",
			"name":"T_RoundTiles_BaseColor",
			"uri":"T_RoundTiles_BaseColor.png"
		},
		{
			"mimeType":"image/png",
			"name":"T_RoundTiles_Roughness",
			"uri":"T_RoundTiles_Roughness.png"
		},
		{
			"mimeType":"image/png",
			"name":"T_FlatTiles_Normal",
			"uri":"T_FlatTiles_Normal.png"
		},
		{
			"mimeType":"image/png",
			"name":"T_FlatTiles_BaseColor",
			"uri":"T_FlatTiles_BaseColor.png"
		},
		{
			"mimeType":"image/png",
			"name":"T_FlatTiles_Roughness",
			"uri":"T_FlatTiles_Roughness.png"
		}
	],
	"accessors":[
		{
			"bufferView":0,
			"componentType":5126,
			"count":24,
			"max":[
				2.8325328826904297,
				2.275977611541748,
				0.9837334752082825
			],
			"min":[
				1.4186744689941406,
				0.5533663034439087,
				-1.0000033378601074
			],
			"type":"VEC3"
		},
		{
			"bufferView":1,
			"componentType":5126,
			"count":24,
			"type":"VEC3"
		},
		{
			"bufferView":2,
			"componentType":5126,
			"count":24,
			"type":"VEC2"
		},
		{
			"bufferView":3,
			"componentType":5123,
			"count":36,
			"type":"SCALAR"
		},
		{
			"bufferView":4,
			"componentType":5126,
			"count":36,
			"max":[
				0.37111249566078186,
				4.865694999694824,
				1.0545501708984375
			],
			"min":[
				-0.3539327085018158,
				4.314400672912598,
				-0.24673819541931152
			],
			"type":"VEC3"
		},
		{
			"bufferView":5,
			"componentType":5126,
			"count":36,
			"type":"VEC3"
		},
		{
			"bufferView":6,
			"componentType":5126,
			"count":36,
			"type":"VEC2"
		},
		{
			"bufferView":7,
			"componentType":5123,
			"count":60,
			"type":"SCALAR"
		},
		{
			"bufferView":8,
			"componentType":5126,
			"count":24,
			"max":[
				0.0016677983803674579,
				4.645810127258301,
				0.9837306141853333
			],
			"min":[
				-1.7295626401901245,
				1.9367820024490356,
				-1.000002384185791
			],
			"type":"VEC3"
		},
		{
			"bufferView":9,
			"componentType":5126,
			"count":24,
			"type":"VEC3"
		},
		{
			"bufferView":10,
			"componentType":5126,
			"count":24,
			"type":"VEC2"
		},
		{
			"bufferView":11,
			"componentType":5123,
			"count":36,
			"type":"SCALAR"
		},
		{
			"bufferView":12,
			"componentType":5126,
			"count":24,
			"max":[
				-2.4988667964935303,
				0.8457726240158081,
				0.9837320446968079
			],
			"min":[
				-4.176274299621582,
				-0.9245302081108093,
				-1.0000004768371582
			],
			"type":"VEC3"
		},
		{
			"bufferView":13,
			"componentType":5126,
			"count":24,
			"type":"VEC3"
		},
		{
			"bufferView":14,
			"componentType":5126,
			"count":24,
			"type":"VEC2"
		},
		{
			"bufferView":15,
			"componentType":5123,
			"count":36,
			"type":"SCALAR"
		},
		{
			"bufferView":16,
			"componentType":5126,
			"count":24,
			"max":[
				-1.4186744689941406,
				2.275977611541748,
				0.9837320446968079
			],
			"min":[
				-2.8325328826904297,
				0.5533663034439087,
				-1.0000009536743164
			],
			"type":"VEC3"
		},
		{
			"bufferView":17,
			"componentType":5126,
			"count":24,
			"type":"VEC3"
		},
		{
			"bufferView":18,
			"componentType":5126,
			"count":24,
			"type":"VEC2"
		},
		{
			"bufferView":19,
			"componentType":5123,
			"count":36,
			"type":"SCALAR"
		},
		{
			"bufferView":20,
			"componentType":5126,
			"count":24,
			"max":[
				1.7295626401901245,
				4.645810127258301,
				0.9837320446968079
			],
			"min":[
				-0.0016677983803674579,
				1.9367820024490356,
				-1.0000038146972656
			],
			"type":"VEC3"
		},
		{
			"bufferView":21,
			"componentType":5126,
			"count":24,
			"type":"VEC3"
		},
		{
			"bufferView":22,
			"componentType":5126,
			"count":24,
			"type":"VEC2"
		},
		{
			"bufferView":23,
			"componentType":5123,
			"count":36,
			"type":"SCALAR"
		},
		{
			"bufferView":24,
			"componentType":5126,
			"count":24,
			"max":[
				4.072436332702637,
				0.8457726240158081,
				0.9837334752082825
			],
			"min":[
				2.4988667964935303,
				-0.8209012150764465,
				-1.000002384185791
			],
			"type":"VEC3"
		},
		{
			"bufferView":25,
			"componentType":5126,
			"count":24,
			"type":"VEC3"
		},
		{
			"bufferView":26,
			"componentType":5126,
			"count":24,
			"type":"VEC2"
		},
		{
			"bufferView":27,
			"componentType":5123,
			"count":36,
			"type":"SCALAR"
		},
		{
			"bufferView":28,
			"componentType":5126,
			"count":36,
			"max":[
				0.37111249566078186,
				4.865694999694824,
				0.09889233112335205
			],
			"min":[
				-0.3539327085018158,
				4.314400672912598,
				-1.2023959159851074
			],
			"type":"VEC3"
		},
		{
			"bufferView":29,
			"componentType":5126,
			"count":36,
			"type":"VEC3"
		},
		{
			"bufferView":30,
			"componentType":5126,
			"count":36,
			"type":"VEC2"
		},
		{
			"bufferView":31,
			"componentType":5123,
			"count":60,
			"type":"SCALAR"
		},
		{
			"bufferView":32,
			"componentType":5126,
			"count":544,
			"max":[
				3.958951234817505,
				4.342607498168945,
				0.9787101745605469
			],
			"min":[
				-3.958951234817505,
				-0.7821269035339355,
				-0.9999995231628418
			],
			"type":"VEC3"
		},
		{
			"bufferView":33,
			"componentType":5126,
			"count":544,
			"type":"VEC3"
		},
		{
			"bufferView":34,
			"componentType":5126,
			"count":544,
			"type":"VEC2"
		},
		{
			"bufferView":35,
			"componentType":5126,
			"count":544,
			"type":"VEC2"
		},
		{
			"bufferView":36,
			"componentType":5123,
			"count":948,
			"type":"SCALAR"
		},
		{
			"bufferView":37,
			"componentType":5126,
			"count":160,
			"max":[
				0.3307531774044037,
				4.890044689178467,
				1.045536756515503
			],
			"min":[
				-0.33246704936027527,
				4.384562015533447,
				-1.2061223983764648
			],
			"type":"VEC3"
		},
		{
			"bufferView":38,
			"componentType":5126,
			"count":160,
			"type":"VEC3"
		},
		{
			"bufferView":39,
			"componentType":5126,
			"count":160,
			"type":"VEC2"
		},
		{
			"bufferView":40,
			"componentType":5126,
			"count":160,
			"type":"VEC2"
		},
		{
			"bufferView":41,
			"componentType":5123,
			"count":408,
			"type":"SCALAR"
		},
		{
			"bufferView":42,
			"componentType":5126,
			"count":220,
			"max":[
				4.034413814544678,
				4.576201915740967,
				0.9400253295898438
			],
			"min":[
				-4.034413814544678,
				-0.6355158090591431,
				-1
			],
			"type":"VEC3"
		},
		{
			"bufferView":43,
			"componentType":5126,
			"count":220,
			"type":"VEC3"
		},
		{
			"bufferView":44,
			"componentType":5126,
			"count":220,
			"type":"VEC2"
		},
		{
			"bufferView":45,
			"componentType":5126,
			"count":220,
			"type":"VEC2"
		},
		{
			"bufferView":46,
			"componentType":5123,
			"count":762,
			"type":"SCALAR"
		}
	],
	"bufferViews":[
		{
			"buffer":0,
			"byteLength":288,
			"byteOffset":0,
			"target":34962
		},
		{
			"buffer":0,
			"byteLength":288,
			"byteOffset":288,
			"target":34962
		},
		{
			"buffer":0,
			"byteLength":192,
			"byteOffset":576,
			"target":34962
		},
		{
			"buffer":0,
			"byteLength":72,
			"byteOffset":768,
			"target":34963
		},
		{
			"buffer":0,
			"byteLength":432,
			"byteOffset":840,
			"target":34962
		},
		{
			"buffer":0,
			"byteLength":432,
			"byteOffset":1272,
			"target":34962
		},
		{
			"buffer":0,
			"byteLength":288,
			"byteOffset":1704,
			"target":34962
		},
		{
			"buffer":0,
			"byteLength":120,
			"byteOffset":1992,
			"target":34963
		},
		{
			"buffer":0,
			"byteLength":288,
			"byteOffset":2112,
			"target":34962
		},
		{
			"buffer":0,
			"byteLength":288,
			"byteOffset":2400,
			"target":34962
		},
		{
			"buffer":0,
			"byteLength":192,
			"byteOffset":2688,
			"target":34962
		},
		{
			"buffer":0,
			"byteLength":72,
			"byteOffset":2880,
			"target":34963
		},
		{
			"buffer":0,
			"byteLength":288,
			"byteOffset":2952,
			"target":34962
		},
		{
			"buffer":0,
			"byteLength":288,
			"byteOffset":3240,
			"target":34962
		},
		{
			"buffer":0,
			"byteLength":192,
			"byteOffset":3528,
			"target":34962
		},
		{
			"buffer":0,
			"byteLength":72,
			"byteOffset":3720,
			"target":34963
		},
		{
			"buffer":0,
			"byteLength":288,
			"byteOffset":3792,
			"target":34962
		},
		{
			"buffer":0,
			"byteLength":288,
			"byteOffset":4080,
			"target":34962
		},
		{
			"buffer":0,
			"byteLength":192,
			"byteOffset":4368,
			"target":34962
		},
		{
			"buffer":0,
			"byteLength":72,
			"byteOffset":4560,
			"target":34963
		},
		{
			"buffer":0,
			"byteLength":288,
			"byteOffset":4632,
			"target":34962
		},
		{
			"buffer":0,
			"byteLength":288,
			"byteOffset":4920,
			"target":34962
		},
		{
			"buffer":0,
			"byteLength":192,
			"byteOffset":5208,
			"target":34962
		},
		{
			"buffer":0,
			"byteLength":72,
			"byteOffset":5400,
			"target":34963
		},
		{
			"buffer":0,
			"byteLength":288,
			"byteOffset":5472,
			"target":34962
		},
		{
			"buffer":0,
			"byteLength":288,
			"byteOffset":5760,
			"target":34962
		},
		{
			"buffer":0,
			"byteLength":192,
			"byteOffset":6048,
			"target":34962
		},
		{
			"buffer":0,
			"byteLength":72,
			"byteOffset":6240,
			"target":34963
		},
		{
			"buffer":0,
			"byteLength":432,
			"byteOffset":6312,
			"target":34962
		},
		{
			"buffer":0,
			"byteLength":432,
			"byteOffset":6744,
			"target":34962
		},
		{
			"buffer":0,
			"byteLength":288,
			"byteOffset":7176,
			"target":34962
		},
		{
			"buffer":0,
			"byteLength":120,
			"byteOffset":7464,
			"target":34963
		},
		{
			"buffer":0,
			"byteLength":6528,
			"byteOffset":7584,
			"target":34962
		},
		{
			"buffer":0,
			"byteLength":6528,
			"byteOffset":14112,
			"target":34962
		},
		{
			"buffer":0,
			"byteLength":4352,
			"byteOffset":20640,
			"target":34962
		},
		{
			"buffer":0,
			"byteLength":4352,
			"byteOffset":24992,
			"target":34962
		},
		{
			"buffer":0,
			"byteLength":1896,
			"byteOffset":29344,
			"target":34963
		},
		{
			"buffer":0,
			"byteLength":1920,
			"byteOffset":31240,
			"target":34962
		},
		{
			"buffer":0,
			"byteLength":1920,
			"byteOffset":33160,
			"target":34962
		},
		{
			"buffer":0,
			"byteLength":1280,
			"byteOffset":35080,
			"target":34962
		},
		{
			"buffer":0,
			"byteLength":1280,
			"byteOffset":36360,
			"target":34962
		},
		{
			"buffer":0,
			"byteLength":816,
			"byteOffset":37640,
			"target":34963
		},
		{
			"buffer":0,
			"byteLength":2640,
			"byteOffset":38456,
			"target":34962
		},
		{
			"buffer":0,
			"byteLength":2640,
			"byteOffset":41096,
			"target":34962
		},
		{
			"buffer":0,
			"byteLength":1760,
			"byteOffset":43736,
			"target":34962
		},
		{
			"buffer":0,
			"byteLength":1760,
			"byteOffset":45496,
			"target":34962
		},
		{
			"buffer":0,
			"byteLength":1524,
			"byteOffset":47256,
			"target":34963
		}
	],
	"samplers":[
		{
			"magFilter":9729,
			"minFilter":9987
		}
	],
	"buffers":[
		{
			"byteLength":48780,
			"uri":"Roof_Modular_FlatTiles_6_L.bin"
		}
	]
}
