{
	"asset":{
		"generator":"Khronos glTF Blender I/O v4.0.44",
		"version":"2.0"
	},
	"scene":0,
	"scenes":[
		{
			"name":"Scene",
			"nodes":[
				8
			]
		}
	],
	"nodes":[
		{
			"mesh":0,
			"name":"Roof_RoundTiles_6x8_01-convcolonly"
		},
		{
			"mesh":1,
			"name":"Roof_RoundTiles_6x8_02-convcolonly"
		},
		{
			"mesh":2,
			"name":"Roof_RoundTiles_6x8_03-convcolonly"
		},
		{
			"mesh":3,
			"name":"Roof_RoundTiles_6x8_04-convcolonly"
		},
		{
			"mesh":4,
			"name":"Roof_RoundTiles_6x8_05-convcolonly"
		},
		{
			"mesh":5,
			"name":"Roof_RoundTiles_6x8_06-convcolonly"
		},
		{
			"mesh":6,
			"name":"Roof_RoundTiles_6x8_07-convcolonly"
		},
		{
			"mesh":7,
			"name":"Roof_RoundTiles_6x8_08-convcolonly"
		},
		{
			"children":[
				0,
				1,
				2,
				3,
				4,
				5,
				6,
				7
			],
			"mesh":8,
			"name":"Roof_RoundTiles_6x8"
		}
	],
	"materials":[
		{
			"doubleSided":true,
			"name":"Collision",
			"pbrMetallicRoughness":{
				"baseColorFactor":[
					0.05868536978960037,
					0.2907957136631012,
					0.8000074625015259,
					1
				],
				"metallicFactor":0,
				"roughnessFactor":0.5
			}
		},
		{
			"doubleSided":true,
			"name":"MI_WoodTrim",
			"normalTexture":{
				"index":0
			},
			"pbrMetallicRoughness":{
				"baseColorTexture":{
					"index":1
				},
				"metallicFactor":0,
				"metallicRoughnessTexture":{
					"index":2
				}
			}
		},
		{
			"doubleSided":true,
			"name":"MI_RoundTiles",
			"normalTexture":{
				"index":3
			},
			"pbrMetallicRoughness":{
				"baseColorTexture":{
					"index":4
				},
				"metallicFactor":0,
				"metallicRoughnessTexture":{
					"index":5
				}
			}
		}
	],
	"meshes":[
		{
			"name":"Cube.1315",
			"primitives":[
				{
					"attributes":{
						"POSITION":0,
						"NORMAL":1,
						"TEXCOORD_0":2
					},
					"indices":3,
					"material":0
				}
			]
		},
		{
			"name":"Cube.1316",
			"primitives":[
				{
					"attributes":{
						"POSITION":4,
						"NORMAL":5,
						"TEXCOORD_0":6
					},
					"indices":7,
					"material":0
				}
			]
		},
		{
			"name":"Cube.1317",
			"primitives":[
				{
					"attributes":{
						"POSITION":8,
						"NORMAL":9,
						"TEXCOORD_0":10
					},
					"indices":11,
					"material":0
				}
			]
		},
		{
			"name":"Cube.1318",
			"primitives":[
				{
					"attributes":{
						"POSITION":12,
						"NORMAL":13,
						"TEXCOORD_0":14
					},
					"indices":15,
					"material":0
				}
			]
		},
		{
			"name":"Cube.1319",
			"primitives":[
				{
					"attributes":{
						"POSITION":16,
						"NORMAL":17,
						"TEXCOORD_0":18
					},
					"indices":19,
					"material":0
				}
			]
		},
		{
			"name":"Cube.1320",
			"primitives":[
				{
					"attributes":{
						"POSITION":20,
						"NORMAL":21,
						"TEXCOORD_0":22
					},
					"indices":23,
					"material":0
				}
			]
		},
		{
			"name":"Cube.1321",
			"primitives":[
				{
					"attributes":{
						"POSITION":24,
						"NORMAL":25,
						"TEXCOORD_0":26
					},
					"indices":27,
					"material":0
				}
			]
		},
		{
			"name":"Cube.1322",
			"primitives":[
				{
					"attributes":{
						"POSITION":28,
						"NORMAL":29,
						"TEXCOORD_0":30
					},
					"indices":31,
					"material":0
				}
			]
		},
		{
			"name":"Cube.015",
			"primitives":[
				{
					"attributes":{
						"POSITION":32,
						"NORMAL":33,
						"TEXCOORD_0":34,
						"TEXCOORD_1":35
					},
					"indices":36,
					"material":1
				},
				{
					"attributes":{
						"POSITION":37,
						"NORMAL":38,
						"TEXCOORD_0":39,
						"TEXCOORD_1":40
					},
					"indices":41,
					"material":2
				}
			]
		}
	],
	"textures":[
		{
			"sampler":0,
			"source":0
		},
		{
			"sampler":0,
			"source":1
		},
		{
			"sampler":0,
			"source":2
		},
		{
			"sampler":0,
			"source":3
		},
		{
			"sampler":0,
			"source":4
		},
		{
			"sampler":0,
			"source":5
		}
	],
	"images":[
		{
			"mimeType":"image/png",
			"name":"T_WoodTrim_Normal",
			"uri":"T_WoodTrim_Normal.png"
		},
		{
			"mimeType":"image/png",
			"name":"T_WoodTrim_BaseColor",
			"uri":"T_WoodTrim_BaseColor.png"
		},
		{
			"mimeType":"image/png",
			"name":"T_WoodTrim_Roughness",
			"uri":"T_WoodTrim_Roughness.png"
		},
		{
			"mimeType":"image/png",
			"name":"T_RoundTiles_Normal",
			"uri":"T_RoundTiles_Normal.png"
		},
		{
			"mimeType":"image/png",
			"name":"T_RoundTiles_BaseColor",
			"uri":"T_RoundTiles_BaseColor.png"
		},
		{
			"mimeType":"image/png",
			"name":"T_RoundTiles_Roughness",
			"uri":"T_RoundTiles_Roughness.png"
		}
	],
	"accessors":[
		{
			"bufferView":0,
			"componentType":5126,
			"count":24,
			"max":[
				2.8325328826904297,
				2.320903778076172,
				4.8577189445495605
			],
			"min":[
				1.4186744689941406,
				0.5689729452133179,
				-4.914344310760498
			],
			"type":"VEC3"
		},
		{
			"bufferView":1,
			"componentType":5126,
			"count":24,
			"type":"VEC3"
		},
		{
			"bufferView":2,
			"componentType":5126,
			"count":24,
			"type":"VEC2"
		},
		{
			"bufferView":3,
			"componentType":5123,
			"count":36,
			"type":"SCALAR"
		},
		{
			"bufferView":4,
			"componentType":5126,
			"count":36,
			"max":[
				0.37111249566078186,
				4.8489298820495605,
				3.6629180908203125
			],
			"min":[
				-0.3539327085018158,
				4.4325971603393555,
				-4.7913970947265625
			],
			"type":"VEC3"
		},
		{
			"bufferView":5,
			"componentType":5126,
			"count":36,
			"type":"VEC3"
		},
		{
			"bufferView":6,
			"componentType":5126,
			"count":36,
			"type":"VEC2"
		},
		{
			"bufferView":7,
			"componentType":5123,
			"count":60,
			"type":"SCALAR"
		},
		{
			"bufferView":8,
			"componentType":5126,
			"count":36,
			"max":[
				0.34127336740493774,
				4.854940414428711,
				4.882392406463623
			],
			"min":[
				-0.3338979184627533,
				4.383116245269775,
				3.683105945587158
			],
			"type":"VEC3"
		},
		{
			"bufferView":9,
			"componentType":5126,
			"count":36,
			"type":"VEC3"
		},
		{
			"bufferView":10,
			"componentType":5126,
			"count":36,
			"type":"VEC2"
		},
		{
			"bufferView":11,
			"componentType":5123,
			"count":60,
			"type":"SCALAR"
		},
		{
			"bufferView":12,
			"componentType":5126,
			"count":24,
			"max":[
				0.0016677983803674579,
				4.690736293792725,
				4.8577165603637695
			],
			"min":[
				-1.7295626401901245,
				1.981708288192749,
				-4.914343357086182
			],
			"type":"VEC3"
		},
		{
			"bufferView":13,
			"componentType":5126,
			"count":24,
			"type":"VEC3"
		},
		{
			"bufferView":14,
			"componentType":5126,
			"count":24,
			"type":"VEC2"
		},
		{
			"bufferView":15,
			"componentType":5123,
			"count":36,
			"type":"SCALAR"
		},
		{
			"bufferView":16,
			"componentType":5126,
			"count":24,
			"max":[
				-2.4988667964935303,
				0.8906987905502319,
				4.857717990875244
			],
			"min":[
				-4.306371212005615,
				-0.7115386724472046,
				-4.914341926574707
			],
			"type":"VEC3"
		},
		{
			"bufferView":17,
			"componentType":5126,
			"count":24,
			"type":"VEC3"
		},
		{
			"bufferView":18,
			"componentType":5126,
			"count":24,
			"type":"VEC2"
		},
		{
			"bufferView":19,
			"componentType":5123,
			"count":36,
			"type":"SCALAR"
		},
		{
			"bufferView":20,
			"componentType":5126,
			"count":24,
			"max":[
				-1.4186744689941406,
				2.320903778076172,
				4.857717514038086
			],
			"min":[
				-2.8325328826904297,
				0.5689729452133179,
				-4.914342403411865
			],
			"type":"VEC3"
		},
		{
			"bufferView":21,
			"componentType":5126,
			"count":24,
			"type":"VEC3"
		},
		{
			"bufferView":22,
			"componentType":5126,
			"count":24,
			"type":"VEC2"
		},
		{
			"bufferView":23,
			"componentType":5123,
			"count":36,
			"type":"SCALAR"
		},
		{
			"bufferView":24,
			"componentType":5126,
			"count":24,
			"max":[
				1.7295626401901245,
				4.690736293792725,
				4.857717514038086
			],
			"min":[
				-0.0016677983803674579,
				1.981708288192749,
				-4.914344787597656
			],
			"type":"VEC3"
		},
		{
			"bufferView":25,
			"componentType":5126,
			"count":24,
			"type":"VEC3"
		},
		{
			"bufferView":26,
			"componentType":5126,
			"count":24,
			"type":"VEC2"
		},
		{
			"bufferView":27,
			"componentType":5123,
			"count":36,
			"type":"SCALAR"
		},
		{
			"bufferView":28,
			"componentType":5126,
			"count":24,
			"max":[
				4.306371212005615,
				0.8906987905502319,
				4.8577189445495605
			],
			"min":[
				2.4988667964935303,
				-0.7115386724472046,
				-4.914343357086182
			],
			"type":"VEC3"
		},
		{
			"bufferView":29,
			"componentType":5126,
			"count":24,
			"type":"VEC3"
		},
		{
			"bufferView":30,
			"componentType":5126,
			"count":24,
			"type":"VEC2"
		},
		{
			"bufferView":31,
			"componentType":5123,
			"count":36,
			"type":"SCALAR"
		},
		{
			"bufferView":32,
			"componentType":5126,
			"count":1752,
			"max":[
				3.958951234817505,
				4.342607498168945,
				4.828753471374512
			],
			"min":[
				-3.958951234817505,
				-0.7821269035339355,
				-4.828753471374512
			],
			"type":"VEC3"
		},
		{
			"bufferView":33,
			"componentType":5126,
			"count":1752,
			"type":"VEC3"
		},
		{
			"bufferView":34,
			"componentType":5126,
			"count":1752,
			"type":"VEC2"
		},
		{
			"bufferView":35,
			"componentType":5126,
			"count":1752,
			"type":"VEC2"
		},
		{
			"bufferView":36,
			"componentType":5123,
			"count":3048,
			"type":"SCALAR"
		},
		{
			"bufferView":37,
			"componentType":5126,
			"count":2372,
			"max":[
				4.124891757965088,
				4.890044689178467,
				4.8539862632751465
			],
			"min":[
				-4.124891757965088,
				-0.6384454965591431,
				-4.756110191345215
			],
			"type":"VEC3"
		},
		{
			"bufferView":38,
			"componentType":5126,
			"count":2372,
			"type":"VEC3"
		},
		{
			"bufferView":39,
			"componentType":5126,
			"count":2372,
			"type":"VEC2"
		},
		{
			"bufferView":40,
			"componentType":5126,
			"count":2372,
			"type":"VEC2"
		},
		{
			"bufferView":41,
			"componentType":5123,
			"count":8340,
			"type":"SCALAR"
		}
	],
	"bufferViews":[
		{
			"buffer":0,
			"byteLength":288,
			"byteOffset":0,
			"target":34962
		},
		{
			"buffer":0,
			"byteLength":288,
			"byteOffset":288,
			"target":34962
		},
		{
			"buffer":0,
			"byteLength":192,
			"byteOffset":576,
			"target":34962
		},
		{
			"buffer":0,
			"byteLength":72,
			"byteOffset":768,
			"target":34963
		},
		{
			"buffer":0,
			"byteLength":432,
			"byteOffset":840,
			"target":34962
		},
		{
			"buffer":0,
			"byteLength":432,
			"byteOffset":1272,
			"target":34962
		},
		{
			"buffer":0,
			"byteLength":288,
			"byteOffset":1704,
			"target":34962
		},
		{
			"buffer":0,
			"byteLength":120,
			"byteOffset":1992,
			"target":34963
		},
		{
			"buffer":0,
			"byteLength":432,
			"byteOffset":2112,
			"target":34962
		},
		{
			"buffer":0,
			"byteLength":432,
			"byteOffset":2544,
			"target":34962
		},
		{
			"buffer":0,
			"byteLength":288,
			"byteOffset":2976,
			"target":34962
		},
		{
			"buffer":0,
			"byteLength":120,
			"byteOffset":3264,
			"target":34963
		},
		{
			"buffer":0,
			"byteLength":288,
			"byteOffset":3384,
			"target":34962
		},
		{
			"buffer":0,
			"byteLength":288,
			"byteOffset":3672,
			"target":34962
		},
		{
			"buffer":0,
			"byteLength":192,
			"byteOffset":3960,
			"target":34962
		},
		{
			"buffer":0,
			"byteLength":72,
			"byteOffset":4152,
			"target":34963
		},
		{
			"buffer":0,
			"byteLength":288,
			"byteOffset":4224,
			"target":34962
		},
		{
			"buffer":0,
			"byteLength":288,
			"byteOffset":4512,
			"target":34962
		},
		{
			"buffer":0,
			"byteLength":192,
			"byteOffset":4800,
			"target":34962
		},
		{
			"buffer":0,
			"byteLength":72,
			"byteOffset":4992,
			"target":34963
		},
		{
			"buffer":0,
			"byteLength":288,
			"byteOffset":5064,
			"target":34962
		},
		{
			"buffer":0,
			"byteLength":288,
			"byteOffset":5352,
			"target":34962
		},
		{
			"buffer":0,
			"byteLength":192,
			"byteOffset":5640,
			"target":34962
		},
		{
			"buffer":0,
			"byteLength":72,
			"byteOffset":5832,
			"target":34963
		},
		{
			"buffer":0,
			"byteLength":288,
			"byteOffset":5904,
			"target":34962
		},
		{
			"buffer":0,
			"byteLength":288,
			"byteOffset":6192,
			"target":34962
		},
		{
			"buffer":0,
			"byteLength":192,
			"byteOffset":6480,
			"target":34962
		},
		{
			"buffer":0,
			"byteLength":72,
			"byteOffset":6672,
			"target":34963
		},
		{
			"buffer":0,
			"byteLength":288,
			"byteOffset":6744,
			"target":34962
		},
		{
			"buffer":0,
			"byteLength":288,
			"byteOffset":7032,
			"target":34962
		},
		{
			"buffer":0,
			"byteLength":192,
			"byteOffset":7320,
			"target":34962
		},
		{
			"buffer":0,
			"byteLength":72,
			"byteOffset":7512,
			"target":34963
		},
		{
			"buffer":0,
			"byteLength":21024,
			"byteOffset":7584,
			"target":34962
		},
		{
			"buffer":0,
			"byteLength":21024,
			"byteOffset":28608,
			"target":34962
		},
		{
			"buffer":0,
			"byteLength":14016,
			"byteOffset":49632,
			"target":34962
		},
		{
			"buffer":0,
			"byteLength":14016,
			"byteOffset":63648,
			"target":34962
		},
		{
			"buffer":0,
			"byteLength":6096,
			"byteOffset":77664,
			"target":34963
		},
		{
			"buffer":0,
			"byteLength":28464,
			"byteOffset":83760,
			"target":34962
		},
		{
			"buffer":0,
			"byteLength":28464,
			"byteOffset":112224,
			"target":34962
		},
		{
			"buffer":0,
			"byteLength":18976,
			"byteOffset":140688,
			"target":34962
		},
		{
			"buffer":0,
			"byteLength":18976,
			"byteOffset":159664,
			"target":34962
		},
		{
			"buffer":0,
			"byteLength":16680,
			"byteOffset":178640,
			"target":34963
		}
	],
	"samplers":[
		{
			"magFilter":9729,
			"minFilter":9987
		}
	],
	"buffers":[
		{
			"byteLength":195320,
			"uri":"Roof_RoundTiles_6x8.bin"
		}
	]
}
