{
	"asset":{
		"generator":"Khronos glTF Blender I/O v4.0.44",
		"version":"2.0"
	},
	"scene":0,
	"scenes":[
		{
			"name":"Scene",
			"nodes":[
				8
			]
		}
	],
	"nodes":[
		{
			"mesh":0,
			"name":"Roof_FlatTiles_6x12_01-convcolonly"
		},
		{
			"mesh":1,
			"name":"Roof_FlatTiles_6x12_02-convcolonly"
		},
		{
			"mesh":2,
			"name":"Roof_FlatTiles_6x12_03-convcolonly"
		},
		{
			"mesh":3,
			"name":"Roof_FlatTiles_6x12_04-convcolonly"
		},
		{
			"mesh":4,
			"name":"Roof_FlatTiles_6x12_05-convcolonly"
		},
		{
			"mesh":5,
			"name":"Roof_FlatTiles_6x12_06-convcolonly"
		},
		{
			"mesh":6,
			"name":"Roof_FlatTiles_6x12_07-convcolonly"
		},
		{
			"mesh":7,
			"name":"Roof_FlatTiles_6x12_08-convcolonly"
		},
		{
			"children":[
				0,
				1,
				2,
				3,
				4,
				5,
				6,
				7
			],
			"mesh":8,
			"name":"Roof_FlatTiles_6x12"
		}
	],
	"materials":[
		{
			"doubleSided":true,
			"name":"Collision",
			"pbrMetallicRoughness":{
				"baseColorFactor":[
					0.05868536978960037,
					0.2907957136631012,
					0.8000074625015259,
					1
				],
				"metallicFactor":0,
				"roughnessFactor":0.5
			}
		},
		{
			"doubleSided":true,
			"name":"MI_WoodTrim",
			"normalTexture":{
				"index":0
			},
			"pbrMetallicRoughness":{
				"baseColorTexture":{
					"index":1
				},
				"metallicFactor":0,
				"metallicRoughnessTexture":{
					"index":2
				}
			}
		},
		{
			"doubleSided":true,
			"name":"MI_FlatTiles",
			"normalTexture":{
				"index":3
			},
			"pbrMetallicRoughness":{
				"baseColorTexture":{
					"index":4
				},
				"metallicFactor":0,
				"metallicRoughnessTexture":{
					"index":5
				}
			}
		},
		{
			"doubleSided":true,
			"name":"MI_RoundTiles",
			"normalTexture":{
				"index":6
			},
			"pbrMetallicRoughness":{
				"baseColorTexture":{
					"index":7
				},
				"metallicFactor":0,
				"metallicRoughnessTexture":{
					"index":8
				}
			}
		}
	],
	"meshes":[
		{
			"name":"Cube.1401",
			"primitives":[
				{
					"attributes":{
						"POSITION":0,
						"NORMAL":1,
						"TEXCOORD_0":2
					},
					"indices":3,
					"material":0
				}
			]
		},
		{
			"name":"Cube.1402",
			"primitives":[
				{
					"attributes":{
						"POSITION":4,
						"NORMAL":5,
						"TEXCOORD_0":6
					},
					"indices":7,
					"material":0
				}
			]
		},
		{
			"name":"Cube.1403",
			"primitives":[
				{
					"attributes":{
						"POSITION":8,
						"NORMAL":9,
						"TEXCOORD_0":10
					},
					"indices":11,
					"material":0
				}
			]
		},
		{
			"name":"Cube.1404",
			"primitives":[
				{
					"attributes":{
						"POSITION":12,
						"NORMAL":13,
						"TEXCOORD_0":14
					},
					"indices":15,
					"material":0
				}
			]
		},
		{
			"name":"Cube.1405",
			"primitives":[
				{
					"attributes":{
						"POSITION":16,
						"NORMAL":17,
						"TEXCOORD_0":18
					},
					"indices":19,
					"material":0
				}
			]
		},
		{
			"name":"Cube.1406",
			"primitives":[
				{
					"attributes":{
						"POSITION":20,
						"NORMAL":21,
						"TEXCOORD_0":22
					},
					"indices":23,
					"material":0
				}
			]
		},
		{
			"name":"Cube.1407",
			"primitives":[
				{
					"attributes":{
						"POSITION":24,
						"NORMAL":25,
						"TEXCOORD_0":26
					},
					"indices":27,
					"material":0
				}
			]
		},
		{
			"name":"Cube.1408",
			"primitives":[
				{
					"attributes":{
						"POSITION":28,
						"NORMAL":29,
						"TEXCOORD_0":30
					},
					"indices":31,
					"material":0
				}
			]
		},
		{
			"name":"Cube.045",
			"primitives":[
				{
					"attributes":{
						"POSITION":32,
						"NORMAL":33,
						"TEXCOORD_0":34,
						"TEXCOORD_1":35
					},
					"indices":36,
					"material":1
				},
				{
					"attributes":{
						"POSITION":37,
						"NORMAL":38,
						"TEXCOORD_0":39,
						"TEXCOORD_1":40
					},
					"indices":41,
					"material":2
				},
				{
					"attributes":{
						"POSITION":42,
						"NORMAL":43,
						"TEXCOORD_0":44,
						"TEXCOORD_1":45
					},
					"indices":46,
					"material":3
				}
			]
		}
	],
	"textures":[
		{
			"sampler":0,
			"source":0
		},
		{
			"sampler":0,
			"source":1
		},
		{
			"sampler":0,
			"source":2
		},
		{
			"sampler":0,
			"source":3
		},
		{
			"sampler":0,
			"source":4
		},
		{
			"sampler":0,
			"source":5
		},
		{
			"sampler":0,
			"source":6
		},
		{
			"sampler":0,
			"source":7
		},
		{
			"sampler":0,
			"source":8
		}
	],
	"images":[
		{
			"mimeType":"image/png",
			"name":"T_WoodTrim_Normal",
			"uri":"T_WoodTrim_Normal.png"
		},
		{
			"mimeType":"image/png",
			"name":"T_WoodTrim_BaseColor",
			"uri":"T_WoodTrim_BaseColor.png"
		},
		{
			"mimeType":"image/png",
			"name":"T_WoodTrim_Roughness",
			"uri":"T_WoodTrim_Roughness.png"
		},
		{
			"mimeType":"image/png",
			"name":"T_FlatTiles_Normal",
			"uri":"T_FlatTiles_Normal.png"
		},
		{
			"mimeType":"image/png",
			"name":"T_FlatTiles_BaseColor",
			"uri":"T_FlatTiles_BaseColor.png"
		},
		{
			"mimeType":"image/png",
			"name":"T_FlatTiles_Roughness",
			"uri":"T_FlatTiles_Roughness.png"
		},
		{
			"mimeType":"image/png",
			"name":"T_RoundTiles_Normal",
			"uri":"T_RoundTiles_Normal.png"
		},
		{
			"mimeType":"image/png",
			"name":"T_RoundTiles_BaseColor",
			"uri":"T_RoundTiles_BaseColor.png"
		},
		{
			"mimeType":"image/png",
			"name":"T_RoundTiles_Roughness",
			"uri":"T_RoundTiles_Roughness.png"
		}
	],
	"accessors":[
		{
			"bufferView":0,
			"componentType":5126,
			"count":32,
			"max":[
				2.8320491313934326,
				2.1569149494171143,
				6.82309627532959
			],
			"min":[
				1.4184322357177734,
				0.4350580871105194,
				-6.902631759643555
			],
			"type":"VEC3"
		},
		{
			"bufferView":1,
			"componentType":5126,
			"count":32,
			"type":"VEC3"
		},
		{
			"bufferView":2,
			"componentType":5126,
			"count":32,
			"type":"VEC2"
		},
		{
			"bufferView":3,
			"componentType":5123,
			"count":60,
			"type":"SCALAR"
		},
		{
			"bufferView":4,
			"componentType":5126,
			"count":36,
			"max":[
				0.37111249566078186,
				4.859774589538574,
				5.502166271209717
			],
			"min":[
				-0.3539327085018158,
				4.440004348754883,
				-6.6526055335998535
			],
			"type":"VEC3"
		},
		{
			"bufferView":5,
			"componentType":5126,
			"count":36,
			"type":"VEC3"
		},
		{
			"bufferView":6,
			"componentType":5126,
			"count":36,
			"type":"VEC2"
		},
		{
			"bufferView":7,
			"componentType":5123,
			"count":60,
			"type":"SCALAR"
		},
		{
			"bufferView":8,
			"componentType":5126,
			"count":36,
			"max":[
				0.34127336740493774,
				4.854940414428711,
				6.694483280181885
			],
			"min":[
				-0.3338979184627533,
				4.383116245269775,
				5.49519681930542
			],
			"type":"VEC3"
		},
		{
			"bufferView":9,
			"componentType":5126,
			"count":36,
			"type":"VEC3"
		},
		{
			"bufferView":10,
			"componentType":5126,
			"count":36,
			"type":"VEC2"
		},
		{
			"bufferView":11,
			"componentType":5123,
			"count":60,
			"type":"SCALAR"
		},
		{
			"bufferView":12,
			"componentType":5126,
			"count":32,
			"max":[
				1.7292672395706177,
				4.526747703552246,
				6.823093891143799
			],
			"min":[
				-0.0016675136284902692,
				1.847793459892273,
				-6.902632236480713
			],
			"type":"VEC3"
		},
		{
			"bufferView":13,
			"componentType":5126,
			"count":32,
			"type":"VEC3"
		},
		{
			"bufferView":14,
			"componentType":5126,
			"count":32,
			"type":"VEC2"
		},
		{
			"bufferView":15,
			"componentType":5123,
			"count":60,
			"type":"SCALAR"
		},
		{
			"bufferView":16,
			"componentType":5126,
			"count":38,
			"max":[
				4.564695358276367,
				0.7267100811004639,
				6.82309627532959
			],
			"min":[
				2.4984400272369385,
				-1.0867366790771484,
				-6.90263032913208
			],
			"type":"VEC3"
		},
		{
			"bufferView":17,
			"componentType":5126,
			"count":38,
			"type":"VEC3"
		},
		{
			"bufferView":18,
			"componentType":5126,
			"count":38,
			"type":"VEC2"
		},
		{
			"bufferView":19,
			"componentType":5123,
			"count":60,
			"type":"SCALAR"
		},
		{
			"bufferView":20,
			"componentType":5126,
			"count":32,
			"max":[
				-1.4184322357177734,
				2.1569149494171143,
				6.82309627532959
			],
			"min":[
				-2.8320491313934326,
				0.4350580871105194,
				-6.902631759643555
			],
			"type":"VEC3"
		},
		{
			"bufferView":21,
			"componentType":5126,
			"count":32,
			"type":"VEC3"
		},
		{
			"bufferView":22,
			"componentType":5126,
			"count":32,
			"type":"VEC2"
		},
		{
			"bufferView":23,
			"componentType":5123,
			"count":60,
			"type":"SCALAR"
		},
		{
			"bufferView":24,
			"componentType":5126,
			"count":32,
			"max":[
				0.0016675136284902692,
				4.526747703552246,
				6.823093891143799
			],
			"min":[
				-1.7292672395706177,
				1.847793459892273,
				-6.902632236480713
			],
			"type":"VEC3"
		},
		{
			"bufferView":25,
			"componentType":5126,
			"count":32,
			"type":"VEC3"
		},
		{
			"bufferView":26,
			"componentType":5126,
			"count":32,
			"type":"VEC2"
		},
		{
			"bufferView":27,
			"componentType":5123,
			"count":60,
			"type":"SCALAR"
		},
		{
			"bufferView":28,
			"componentType":5126,
			"count":38,
			"max":[
				-2.4984400272369385,
				0.7267100811004639,
				6.82309627532959
			],
			"min":[
				-4.564695358276367,
				-1.0867366790771484,
				-6.90263032913208
			],
			"type":"VEC3"
		},
		{
			"bufferView":29,
			"componentType":5126,
			"count":38,
			"type":"VEC3"
		},
		{
			"bufferView":30,
			"componentType":5126,
			"count":38,
			"type":"VEC2"
		},
		{
			"bufferView":31,
			"componentType":5123,
			"count":60,
			"type":"SCALAR"
		},
		{
			"bufferView":32,
			"componentType":5126,
			"count":1640,
			"max":[
				3.958951234817505,
				4.342607498168945,
				6.828753471374512
			],
			"min":[
				-3.958951234817505,
				-0.7821269035339355,
				-6.828753471374512
			],
			"type":"VEC3"
		},
		{
			"bufferView":33,
			"componentType":5126,
			"count":1640,
			"type":"VEC3"
		},
		{
			"bufferView":34,
			"componentType":5126,
			"count":1640,
			"type":"VEC2"
		},
		{
			"bufferView":35,
			"componentType":5126,
			"count":1640,
			"type":"VEC2"
		},
		{
			"bufferView":36,
			"componentType":5123,
			"count":2712,
			"type":"SCALAR"
		},
		{
			"bufferView":37,
			"componentType":5126,
			"count":1673,
			"max":[
				4.563756942749023,
				4.576201915740967,
				6.8062944412231445
			],
			"min":[
				-4.563756942749023,
				-1.1347471475601196,
				-6.792281627655029
			],
			"type":"VEC3"
		},
		{
			"bufferView":38,
			"componentType":5126,
			"count":1673,
			"type":"VEC3"
		},
		{
			"bufferView":39,
			"componentType":5126,
			"count":1673,
			"type":"VEC2"
		},
		{
			"bufferView":40,
			"componentType":5126,
			"count":1673,
			"type":"VEC2"
		},
		{
			"bufferView":41,
			"componentType":5123,
			"count":5196,
			"type":"SCALAR"
		},
		{
			"bufferView":42,
			"componentType":5126,
			"count":1360,
			"max":[
				0.3307531774044037,
				4.890044689178467,
				6.670813083648682
			],
			"min":[
				-0.33246704936027527,
				4.384562015533447,
				-6.701374053955078
			],
			"type":"VEC3"
		},
		{
			"bufferView":43,
			"componentType":5126,
			"count":1360,
			"type":"VEC3"
		},
		{
			"bufferView":44,
			"componentType":5126,
			"count":1360,
			"type":"VEC2"
		},
		{
			"bufferView":45,
			"componentType":5126,
			"count":1360,
			"type":"VEC2"
		},
		{
			"bufferView":46,
			"componentType":5123,
			"count":3468,
			"type":"SCALAR"
		}
	],
	"bufferViews":[
		{
			"buffer":0,
			"byteLength":384,
			"byteOffset":0,
			"target":34962
		},
		{
			"buffer":0,
			"byteLength":384,
			"byteOffset":384,
			"target":34962
		},
		{
			"buffer":0,
			"byteLength":256,
			"byteOffset":768,
			"target":34962
		},
		{
			"buffer":0,
			"byteLength":120,
			"byteOffset":1024,
			"target":34963
		},
		{
			"buffer":0,
			"byteLength":432,
			"byteOffset":1144,
			"target":34962
		},
		{
			"buffer":0,
			"byteLength":432,
			"byteOffset":1576,
			"target":34962
		},
		{
			"buffer":0,
			"byteLength":288,
			"byteOffset":2008,
			"target":34962
		},
		{
			"buffer":0,
			"byteLength":120,
			"byteOffset":2296,
			"target":34963
		},
		{
			"buffer":0,
			"byteLength":432,
			"byteOffset":2416,
			"target":34962
		},
		{
			"buffer":0,
			"byteLength":432,
			"byteOffset":2848,
			"target":34962
		},
		{
			"buffer":0,
			"byteLength":288,
			"byteOffset":3280,
			"target":34962
		},
		{
			"buffer":0,
			"byteLength":120,
			"byteOffset":3568,
			"target":34963
		},
		{
			"buffer":0,
			"byteLength":384,
			"byteOffset":3688,
			"target":34962
		},
		{
			"buffer":0,
			"byteLength":384,
			"byteOffset":4072,
			"target":34962
		},
		{
			"buffer":0,
			"byteLength":256,
			"byteOffset":4456,
			"target":34962
		},
		{
			"buffer":0,
			"byteLength":120,
			"byteOffset":4712,
			"target":34963
		},
		{
			"buffer":0,
			"byteLength":456,
			"byteOffset":4832,
			"target":34962
		},
		{
			"buffer":0,
			"byteLength":456,
			"byteOffset":5288,
			"target":34962
		},
		{
			"buffer":0,
			"byteLength":304,
			"byteOffset":5744,
			"target":34962
		},
		{
			"buffer":0,
			"byteLength":120,
			"byteOffset":6048,
			"target":34963
		},
		{
			"buffer":0,
			"byteLength":384,
			"byteOffset":6168,
			"target":34962
		},
		{
			"buffer":0,
			"byteLength":384,
			"byteOffset":6552,
			"target":34962
		},
		{
			"buffer":0,
			"byteLength":256,
			"byteOffset":6936,
			"target":34962
		},
		{
			"buffer":0,
			"byteLength":120,
			"byteOffset":7192,
			"target":34963
		},
		{
			"buffer":0,
			"byteLength":384,
			"byteOffset":7312,
			"target":34962
		},
		{
			"buffer":0,
			"byteLength":384,
			"byteOffset":7696,
			"target":34962
		},
		{
			"buffer":0,
			"byteLength":256,
			"byteOffset":8080,
			"target":34962
		},
		{
			"buffer":0,
			"byteLength":120,
			"byteOffset":8336,
			"target":34963
		},
		{
			"buffer":0,
			"byteLength":456,
			"byteOffset":8456,
			"target":34962
		},
		{
			"buffer":0,
			"byteLength":456,
			"byteOffset":8912,
			"target":34962
		},
		{
			"buffer":0,
			"byteLength":304,
			"byteOffset":9368,
			"target":34962
		},
		{
			"buffer":0,
			"byteLength":120,
			"byteOffset":9672,
			"target":34963
		},
		{
			"buffer":0,
			"byteLength":19680,
			"byteOffset":9792,
			"target":34962
		},
		{
			"buffer":0,
			"byteLength":19680,
			"byteOffset":29472,
			"target":34962
		},
		{
			"buffer":0,
			"byteLength":13120,
			"byteOffset":49152,
			"target":34962
		},
		{
			"buffer":0,
			"byteLength":13120,
			"byteOffset":62272,
			"target":34962
		},
		{
			"buffer":0,
			"byteLength":5424,
			"byteOffset":75392,
			"target":34963
		},
		{
			"buffer":0,
			"byteLength":20076,
			"byteOffset":80816,
			"target":34962
		},
		{
			"buffer":0,
			"byteLength":20076,
			"byteOffset":100892,
			"target":34962
		},
		{
			"buffer":0,
			"byteLength":13384,
			"byteOffset":120968,
			"target":34962
		},
		{
			"buffer":0,
			"byteLength":13384,
			"byteOffset":134352,
			"target":34962
		},
		{
			"buffer":0,
			"byteLength":10392,
			"byteOffset":147736,
			"target":34963
		},
		{
			"buffer":0,
			"byteLength":16320,
			"byteOffset":158128,
			"target":34962
		},
		{
			"buffer":0,
			"byteLength":16320,
			"byteOffset":174448,
			"target":34962
		},
		{
			"buffer":0,
			"byteLength":10880,
			"byteOffset":190768,
			"target":34962
		},
		{
			"buffer":0,
			"byteLength":10880,
			"byteOffset":201648,
			"target":34962
		},
		{
			"buffer":0,
			"byteLength":6936,
			"byteOffset":212528,
			"target":34963
		}
	],
	"samplers":[
		{
			"magFilter":9729,
			"minFilter":9987
		}
	],
	"buffers":[
		{
			"byteLength":219464,
			"uri":"Roof_FlatTiles_6x12.bin"
		}
	]
}
