{
	"asset":{
		"generator":"Khronos glTF Blender I/O v4.0.44",
		"version":"2.0"
	},
	"extensionsUsed":[
		"KHR_materials_specular",
		"KHR_materials_ior"
	],
	"scene":0,
	"scenes":[
		{
			"name":"Scene",
			"nodes":[
				0
			]
		}
	],
	"nodes":[
		{
			"mesh":0,
			"name":"SampleScene_Ground",
			"rotation":[
				0.7071068286895752,
				0,
				0,
				0.7071068286895752
			],
			"scale":[
				0.009999999776482582,
				0.009999999776482582,
				0.009999999776482582
			],
			"translation":[
				-124,
				-3,
				-188
			]
		}
	],
	"materials":[
		{
			"doubleSided":true,
			"extensions":{
				"KHR_materials_specular":{
					"specularColorFactor":[
						2.0,
						2.0,
						2.0
					]
				},
				"KHR_materials_ior":{
					"ior":1.4500000476837158
				}
			},
			"name":"MI_SampleScene_Landscape",
			"pbrMetallicRoughness":{
				"baseColorFactor":[
					0.2158605009317398,
					0.2158605009317398,
					0.2158605009317398,
					1
				],
				"roughnessFactor":0.5527864098548889
			}
		}
	],
	"meshes":[
		{
			"name":"Landscape_0.001",
			"primitives":[
				{
					"attributes":{
						"COLOR_0":0,
						"POSITION":1,
						"NORMAL":2,
						"TEXCOORD_0":3
					},
					"indices":4,
					"material":0
				}
			]
		}
	],
	"accessors":[
		{
			"bufferView":0,
			"componentType":5123,
			"count":122785,
			"normalized":true,
			"type":"VEC4"
		},
		{
			"bufferView":1,
			"componentType":5126,
			"count":122785,
			"max":[
				24800,
				24800.021484375,
				0.182111918926239
			],
			"min":[
				-0.010098163038492203,
				-0.05476446822285652,
				-2133.59375
			],
			"type":"VEC3"
		},
		{
			"bufferView":2,
			"componentType":5126,
			"count":122785,
			"type":"VEC3"
		},
		{
			"bufferView":3,
			"componentType":5126,
			"count":122785,
			"type":"VEC2"
		},
		{
			"bufferView":4,
			"componentType":5125,
			"count":720750,
			"type":"SCALAR"
		}
	],
	"bufferViews":[
		{
			"buffer":0,
			"byteLength":982280,
			"byteOffset":0,
			"target":34962
		},
		{
			"buffer":0,
			"byteLength":1473420,
			"byteOffset":982280,
			"target":34962
		},
		{
			"buffer":0,
			"byteLength":1473420,
			"byteOffset":2455700,
			"target":34962
		},
		{
			"buffer":0,
			"byteLength":982280,
			"byteOffset":3929120,
			"target":34962
		},
		{
			"buffer":0,
			"byteLength":2883000,
			"byteOffset":4911400,
			"target":34963
		}
	],
	"buffers":[
		{
			"byteLength":7794400,
			"uri":"SampleScene_Ground.bin"
		}
	]
}
