{
	"asset":{
		"generator":"Khronos glTF Blender I/O v4.0.44",
		"version":"2.0"
	},
	"scene":0,
	"scenes":[
		{
			"name":"Scene",
			"nodes":[
				7
			]
		}
	],
	"nodes":[
		{
			"mesh":0,
			"name":"Stair_Interior_SolidCorner_01-convcolonly"
		},
		{
			"mesh":1,
			"name":"Stair_Interior_SolidCorner_02-convcolonly"
		},
		{
			"mesh":2,
			"name":"Stair_Interior_SolidCorner_03-convcolonly"
		},
		{
			"mesh":3,
			"name":"Stair_Interior_SolidCorner_04-convcolonly"
		},
		{
			"mesh":4,
			"name":"Stair_Interior_SolidCorner_05-convcolonly"
		},
		{
			"mesh":5,
			"name":"Stair_Interior_SolidCorner_06-convcolonly"
		},
		{
			"mesh":6,
			"name":"Stair_Interior_SolidCorner_07-convcolonly"
		},
		{
			"children":[
				0,
				1,
				2,
				3,
				4,
				5,
				6
			],
			"mesh":7,
			"name":"Stair_Interior_SolidCorner"
		}
	],
	"materials":[
		{
			"doubleSided":true,
			"name":"Collision",
			"pbrMetallicRoughness":{
				"baseColorFactor":[
					0.05868536978960037,
					0.2907957136631012,
					0.8000074625015259,
					1
				],
				"metallicFactor":0,
				"roughnessFactor":0.5
			}
		},
		{
			"doubleSided":true,
			"name":"MI_WoodTrim",
			"normalTexture":{
				"index":0
			},
			"pbrMetallicRoughness":{
				"baseColorTexture":{
					"index":1
				},
				"metallicFactor":0,
				"metallicRoughnessTexture":{
					"index":2
				}
			}
		}
	],
	"meshes":[
		{
			"name":"Cube.109",
			"primitives":[
				{
					"attributes":{
						"POSITION":0,
						"NORMAL":1,
						"TEXCOORD_0":2
					},
					"indices":3,
					"material":0
				}
			]
		},
		{
			"name":"Cube.948",
			"primitives":[
				{
					"attributes":{
						"POSITION":4,
						"NORMAL":5,
						"TEXCOORD_0":6
					},
					"indices":7,
					"material":0
				}
			]
		},
		{
			"name":"Cube.949",
			"primitives":[
				{
					"attributes":{
						"POSITION":8,
						"NORMAL":9,
						"TEXCOORD_0":10
					},
					"indices":11,
					"material":0
				}
			]
		},
		{
			"name":"Cube.950",
			"primitives":[
				{
					"attributes":{
						"POSITION":12,
						"NORMAL":13,
						"TEXCOORD_0":14
					},
					"indices":15,
					"material":0
				}
			]
		},
		{
			"name":"Cube.951",
			"primitives":[
				{
					"attributes":{
						"POSITION":16,
						"NORMAL":17,
						"TEXCOORD_0":18
					},
					"indices":19,
					"material":0
				}
			]
		},
		{
			"name":"Cube.952",
			"primitives":[
				{
					"attributes":{
						"POSITION":20,
						"NORMAL":21,
						"TEXCOORD_0":22
					},
					"indices":23,
					"material":0
				}
			]
		},
		{
			"name":"Cube.953",
			"primitives":[
				{
					"attributes":{
						"POSITION":24,
						"NORMAL":25,
						"TEXCOORD_0":26
					},
					"indices":27,
					"material":0
				}
			]
		},
		{
			"name":"Cube.083",
			"primitives":[
				{
					"attributes":{
						"POSITION":28,
						"NORMAL":29,
						"TEXCOORD_0":30,
						"TEXCOORD_1":31
					},
					"indices":32,
					"material":1
				}
			]
		}
	],
	"textures":[
		{
			"sampler":0,
			"source":0
		},
		{
			"sampler":0,
			"source":1
		},
		{
			"sampler":0,
			"source":2
		}
	],
	"images":[
		{
			"mimeType":"image/png",
			"name":"T_WoodTrim_Normal",
			"uri":"T_WoodTrim_Normal.png"
		},
		{
			"mimeType":"image/png",
			"name":"T_WoodTrim_BaseColor",
			"uri":"T_WoodTrim_BaseColor.png"
		},
		{
			"mimeType":"image/png",
			"name":"T_WoodTrim_Roughness",
			"uri":"T_WoodTrim_Roughness.png"
		}
	],
	"accessors":[
		{
			"bufferView":0,
			"componentType":5126,
			"count":24,
			"max":[
				0.8229140043258667,
				1.5088703632354736,
				0.2514352798461914
			],
			"min":[
				-0.8229140043258667,
				0,
				-3.7288761138916016
			],
			"type":"VEC3"
		},
		{
			"bufferView":1,
			"componentType":5126,
			"count":24,
			"type":"VEC3"
		},
		{
			"bufferView":2,
			"componentType":5126,
			"count":24,
			"type":"VEC2"
		},
		{
			"bufferView":3,
			"componentType":5123,
			"count":36,
			"type":"SCALAR"
		},
		{
			"bufferView":4,
			"componentType":5126,
			"count":34,
			"max":[
				4.962825298309326,
				3.023737668991089,
				-2.1770856380462646
			],
			"min":[
				0.6408377885818481,
				0,
				-3.8229141235351562
			],
			"type":"VEC3"
		},
		{
			"bufferView":5,
			"componentType":5126,
			"count":34,
			"type":"VEC3"
		},
		{
			"bufferView":6,
			"componentType":5126,
			"count":34,
			"type":"VEC2"
		},
		{
			"bufferView":7,
			"componentType":5123,
			"count":60,
			"type":"SCALAR"
		},
		{
			"bufferView":8,
			"componentType":5126,
			"count":34,
			"max":[
				0.8814324140548706,
				1.7948956489562988,
				0.25466346740722656
			],
			"min":[
				0.7176246047019958,
				0.04494374990463257,
				-2.305882692337036
			],
			"type":"VEC3"
		},
		{
			"bufferView":9,
			"componentType":5126,
			"count":34,
			"type":"VEC3"
		},
		{
			"bufferView":10,
			"componentType":5126,
			"count":34,
			"type":"VEC2"
		},
		{
			"bufferView":11,
			"componentType":5123,
			"count":60,
			"type":"SCALAR"
		},
		{
			"bufferView":12,
			"componentType":5126,
			"count":34,
			"max":[
				-0.7111741900444031,
				1.627284049987793,
				0.25466346740722656
			],
			"min":[
				-0.8814324140548706,
				0.044943809509277344,
				-3.844782590866089
			],
			"type":"VEC3"
		},
		{
			"bufferView":13,
			"componentType":5126,
			"count":34,
			"type":"VEC3"
		},
		{
			"bufferView":14,
			"componentType":5126,
			"count":34,
			"type":"VEC2"
		},
		{
			"bufferView":15,
			"componentType":5123,
			"count":60,
			"type":"SCALAR"
		},
		{
			"bufferView":16,
			"componentType":5126,
			"count":34,
			"max":[
				4.582076072692871,
				3.036221981048584,
				-3.6941068172454834
			],
			"min":[
				0.4826299250125885,
				1.4538816213607788,
				-3.8314599990844727
			],
			"type":"VEC3"
		},
		{
			"bufferView":17,
			"componentType":5126,
			"count":34,
			"type":"VEC3"
		},
		{
			"bufferView":18,
			"componentType":5126,
			"count":34,
			"type":"VEC2"
		},
		{
			"bufferView":19,
			"componentType":5123,
			"count":60,
			"type":"SCALAR"
		},
		{
			"bufferView":20,
			"componentType":5126,
			"count":24,
			"max":[
				0.6405375003814697,
				1.627284049987793,
				-3.6575381755828857
			],
			"min":[
				-0.8814324140548706,
				0.044943809509277344,
				-3.844782590866089
			],
			"type":"VEC3"
		},
		{
			"bufferView":21,
			"componentType":5126,
			"count":24,
			"type":"VEC3"
		},
		{
			"bufferView":22,
			"componentType":5126,
			"count":24,
			"type":"VEC2"
		},
		{
			"bufferView":23,
			"componentType":5123,
			"count":36,
			"type":"SCALAR"
		},
		{
			"bufferView":24,
			"componentType":5126,
			"count":34,
			"max":[
				4.582076072692871,
				3.036221981048584,
				-2.1685447692871094
			],
			"min":[
				0.7235517501831055,
				1.4538816213607788,
				-2.3058977127075195
			],
			"type":"VEC3"
		},
		{
			"bufferView":25,
			"componentType":5126,
			"count":34,
			"type":"VEC3"
		},
		{
			"bufferView":26,
			"componentType":5126,
			"count":34,
			"type":"VEC2"
		},
		{
			"bufferView":27,
			"componentType":5123,
			"count":60,
			"type":"SCALAR"
		},
		{
			"bufferView":28,
			"componentType":5126,
			"count":922,
			"max":[
				4.987251281738281,
				3.0278210639953613,
				0.35783982276916504
			],
			"min":[
				-0.8845078945159912,
				-0.018151553347706795,
				-3.8761343955993652
			],
			"type":"VEC3"
		},
		{
			"bufferView":29,
			"componentType":5126,
			"count":922,
			"type":"VEC3"
		},
		{
			"bufferView":30,
			"componentType":5126,
			"count":922,
			"type":"VEC2"
		},
		{
			"bufferView":31,
			"componentType":5126,
			"count":922,
			"type":"VEC2"
		},
		{
			"bufferView":32,
			"componentType":5123,
			"count":1479,
			"type":"SCALAR"
		}
	],
	"bufferViews":[
		{
			"buffer":0,
			"byteLength":288,
			"byteOffset":0,
			"target":34962
		},
		{
			"buffer":0,
			"byteLength":288,
			"byteOffset":288,
			"target":34962
		},
		{
			"buffer":0,
			"byteLength":192,
			"byteOffset":576,
			"target":34962
		},
		{
			"buffer":0,
			"byteLength":72,
			"byteOffset":768,
			"target":34963
		},
		{
			"buffer":0,
			"byteLength":408,
			"byteOffset":840,
			"target":34962
		},
		{
			"buffer":0,
			"byteLength":408,
			"byteOffset":1248,
			"target":34962
		},
		{
			"buffer":0,
			"byteLength":272,
			"byteOffset":1656,
			"target":34962
		},
		{
			"buffer":0,
			"byteLength":120,
			"byteOffset":1928,
			"target":34963
		},
		{
			"buffer":0,
			"byteLength":408,
			"byteOffset":2048,
			"target":34962
		},
		{
			"buffer":0,
			"byteLength":408,
			"byteOffset":2456,
			"target":34962
		},
		{
			"buffer":0,
			"byteLength":272,
			"byteOffset":2864,
			"target":34962
		},
		{
			"buffer":0,
			"byteLength":120,
			"byteOffset":3136,
			"target":34963
		},
		{
			"buffer":0,
			"byteLength":408,
			"byteOffset":3256,
			"target":34962
		},
		{
			"buffer":0,
			"byteLength":408,
			"byteOffset":3664,
			"target":34962
		},
		{
			"buffer":0,
			"byteLength":272,
			"byteOffset":4072,
			"target":34962
		},
		{
			"buffer":0,
			"byteLength":120,
			"byteOffset":4344,
			"target":34963
		},
		{
			"buffer":0,
			"byteLength":408,
			"byteOffset":4464,
			"target":34962
		},
		{
			"buffer":0,
			"byteLength":408,
			"byteOffset":4872,
			"target":34962
		},
		{
			"buffer":0,
			"byteLength":272,
			"byteOffset":5280,
			"target":34962
		},
		{
			"buffer":0,
			"byteLength":120,
			"byteOffset":5552,
			"target":34963
		},
		{
			"buffer":0,
			"byteLength":288,
			"byteOffset":5672,
			"target":34962
		},
		{
			"buffer":0,
			"byteLength":288,
			"byteOffset":5960,
			"target":34962
		},
		{
			"buffer":0,
			"byteLength":192,
			"byteOffset":6248,
			"target":34962
		},
		{
			"buffer":0,
			"byteLength":72,
			"byteOffset":6440,
			"target":34963
		},
		{
			"buffer":0,
			"byteLength":408,
			"byteOffset":6512,
			"target":34962
		},
		{
			"buffer":0,
			"byteLength":408,
			"byteOffset":6920,
			"target":34962
		},
		{
			"buffer":0,
			"byteLength":272,
			"byteOffset":7328,
			"target":34962
		},
		{
			"buffer":0,
			"byteLength":120,
			"byteOffset":7600,
			"target":34963
		},
		{
			"buffer":0,
			"byteLength":11064,
			"byteOffset":7720,
			"target":34962
		},
		{
			"buffer":0,
			"byteLength":11064,
			"byteOffset":18784,
			"target":34962
		},
		{
			"buffer":0,
			"byteLength":7376,
			"byteOffset":29848,
			"target":34962
		},
		{
			"buffer":0,
			"byteLength":7376,
			"byteOffset":37224,
			"target":34962
		},
		{
			"buffer":0,
			"byteLength":2958,
			"byteOffset":44600,
			"target":34963
		}
	],
	"samplers":[
		{
			"magFilter":9729,
			"minFilter":9987
		}
	],
	"buffers":[
		{
			"byteLength":47560,
			"uri":"Stair_Interior_SolidCorner.bin"
		}
	]
}
