{
	"asset":{
		"generator":"Khronos glTF Blender I/O v4.0.44",
		"version":"2.0"
	},
	"scene":0,
	"scenes":[
		{
			"name":"Scene",
			"nodes":[
				3
			]
		}
	],
	"nodes":[
		{
			"mesh":0,
			"name":"Stair_Interior_Solid_1-convcolonly"
		},
		{
			"mesh":1,
			"name":"Stair_Interior_Solid_2-convcolonly"
		},
		{
			"mesh":2,
			"name":"Stair_Interior_Solid_3-convcolonly"
		},
		{
			"children":[
				0,
				1,
				2
			],
			"mesh":3,
			"name":"Stair_Interior_Solid"
		}
	],
	"materials":[
		{
			"doubleSided":true,
			"name":"Collision",
			"pbrMetallicRoughness":{
				"baseColorFactor":[
					0.05868536978960037,
					0.2907957136631012,
					0.8000074625015259,
					1
				],
				"metallicFactor":0,
				"roughnessFactor":0.5
			}
		},
		{
			"doubleSided":true,
			"name":"MI_WoodTrim",
			"normalTexture":{
				"index":0
			},
			"pbrMetallicRoughness":{
				"baseColorTexture":{
					"index":1
				},
				"metallicFactor":0,
				"metallicRoughnessTexture":{
					"index":2
				}
			}
		}
	],
	"meshes":[
		{
			"name":"Cube.049",
			"primitives":[
				{
					"attributes":{
						"POSITION":0,
						"NORMAL":1,
						"TEXCOORD_0":2
					},
					"indices":3,
					"material":0
				}
			]
		},
		{
			"name":"Cube.838",
			"primitives":[
				{
					"attributes":{
						"POSITION":4,
						"NORMAL":5,
						"TEXCOORD_0":6
					},
					"indices":3,
					"material":0
				}
			]
		},
		{
			"name":"Cube.839",
			"primitives":[
				{
					"attributes":{
						"POSITION":7,
						"NORMAL":8,
						"TEXCOORD_0":9
					},
					"indices":3,
					"material":0
				}
			]
		},
		{
			"name":"Cube.058",
			"primitives":[
				{
					"attributes":{
						"POSITION":10,
						"NORMAL":11,
						"TEXCOORD_0":12
					},
					"indices":13,
					"material":1
				}
			]
		}
	],
	"textures":[
		{
			"sampler":0,
			"source":0
		},
		{
			"sampler":0,
			"source":1
		},
		{
			"sampler":0,
			"source":2
		}
	],
	"images":[
		{
			"mimeType":"image/png",
			"name":"T_WoodTrim_Normal",
			"uri":"T_WoodTrim_Normal.png"
		},
		{
			"mimeType":"image/png",
			"name":"T_WoodTrim_BaseColor",
			"uri":"T_WoodTrim_BaseColor.png"
		},
		{
			"mimeType":"image/png",
			"name":"T_WoodTrim_Roughness",
			"uri":"T_WoodTrim_Roughness.png"
		}
	],
	"accessors":[
		{
			"bufferView":0,
			"componentType":5126,
			"count":28,
			"max":[
				0.8923830986022949,
				3.023737668991089,
				0.2514352798461914
			],
			"min":[
				-0.8923830986022949,
				0,
				-4.323219299316406
			],
			"type":"VEC3"
		},
		{
			"bufferView":1,
			"componentType":5126,
			"count":28,
			"type":"VEC3"
		},
		{
			"bufferView":2,
			"componentType":5126,
			"count":28,
			"type":"VEC2"
		},
		{
			"bufferView":3,
			"componentType":5123,
			"count":48,
			"type":"SCALAR"
		},
		{
			"bufferView":4,
			"componentType":5126,
			"count":28,
			"max":[
				-0.6692639589309692,
				3.056286573410034,
				0.33472663164138794
			],
			"min":[
				-0.8857325315475464,
				0.03254891559481621,
				-4.338958740234375
			],
			"type":"VEC3"
		},
		{
			"bufferView":5,
			"componentType":5126,
			"count":28,
			"type":"VEC3"
		},
		{
			"bufferView":6,
			"componentType":5126,
			"count":28,
			"type":"VEC2"
		},
		{
			"bufferView":7,
			"componentType":5126,
			"count":28,
			"max":[
				0.8923830986022949,
				3.056286573410034,
				0.33472663164138794
			],
			"min":[
				0.6759145259857178,
				0.03254891559481621,
				-4.338958740234375
			],
			"type":"VEC3"
		},
		{
			"bufferView":8,
			"componentType":5126,
			"count":28,
			"type":"VEC3"
		},
		{
			"bufferView":9,
			"componentType":5126,
			"count":28,
			"type":"VEC2"
		},
		{
			"bufferView":10,
			"componentType":5126,
			"count":606,
			"max":[
				0.8843992948532104,
				3.0278208255767822,
				0.35783979296684265
			],
			"min":[
				-0.8843992948532104,
				-0.018151555210351944,
				-4.351832866668701
			],
			"type":"VEC3"
		},
		{
			"bufferView":11,
			"componentType":5126,
			"count":606,
			"type":"VEC3"
		},
		{
			"bufferView":12,
			"componentType":5126,
			"count":606,
			"type":"VEC2"
		},
		{
			"bufferView":13,
			"componentType":5123,
			"count":918,
			"type":"SCALAR"
		}
	],
	"bufferViews":[
		{
			"buffer":0,
			"byteLength":336,
			"byteOffset":0,
			"target":34962
		},
		{
			"buffer":0,
			"byteLength":336,
			"byteOffset":336,
			"target":34962
		},
		{
			"buffer":0,
			"byteLength":224,
			"byteOffset":672,
			"target":34962
		},
		{
			"buffer":0,
			"byteLength":96,
			"byteOffset":896,
			"target":34963
		},
		{
			"buffer":0,
			"byteLength":336,
			"byteOffset":992,
			"target":34962
		},
		{
			"buffer":0,
			"byteLength":336,
			"byteOffset":1328,
			"target":34962
		},
		{
			"buffer":0,
			"byteLength":224,
			"byteOffset":1664,
			"target":34962
		},
		{
			"buffer":0,
			"byteLength":336,
			"byteOffset":1888,
			"target":34962
		},
		{
			"buffer":0,
			"byteLength":336,
			"byteOffset":2224,
			"target":34962
		},
		{
			"buffer":0,
			"byteLength":224,
			"byteOffset":2560,
			"target":34962
		},
		{
			"buffer":0,
			"byteLength":7272,
			"byteOffset":2784,
			"target":34962
		},
		{
			"buffer":0,
			"byteLength":7272,
			"byteOffset":10056,
			"target":34962
		},
		{
			"buffer":0,
			"byteLength":4848,
			"byteOffset":17328,
			"target":34962
		},
		{
			"buffer":0,
			"byteLength":1836,
			"byteOffset":22176,
			"target":34963
		}
	],
	"samplers":[
		{
			"magFilter":9729,
			"minFilter":9987
		}
	],
	"buffers":[
		{
			"byteLength":24012,
			"uri":"Stair_Interior_Solid.bin"
		}
	]
}
