{
	"asset":{
		"generator":"Khronos glTF Blender I/O v4.0.44",
		"version":"2.0"
	},
	"scene":0,
	"scenes":[
		{
			"name":"Scene",
			"nodes":[
				1
			]
		}
	],
	"nodes":[
		{
			"mesh":0,
			"name":"Stairs_Exterior_Straight_Center_1-convcolonly"
		},
		{
			"children":[
				0
			],
			"mesh":1,
			"name":"Stairs_Exterior_Straight_Center"
		}
	],
	"materials":[
		{
			"doubleSided":true,
			"name":"Collision",
			"pbrMetallicRoughness":{
				"baseColorFactor":[
					0.05868536978960037,
					0.2907957136631012,
					0.8000074625015259,
					1
				],
				"metallicFactor":0,
				"roughnessFactor":0.5
			}
		},
		{
			"doubleSided":true,
			"name":"MI_RockTrim",
			"normalTexture":{
				"index":0
			},
			"pbrMetallicRoughness":{
				"baseColorTexture":{
					"index":1
				},
				"metallicRoughnessTexture":{
					"index":2
				}
			}
		}
	],
	"meshes":[
		{
			"name":"Cube.052",
			"primitives":[
				{
					"attributes":{
						"POSITION":0,
						"NORMAL":1,
						"TEXCOORD_0":2
					},
					"indices":3,
					"material":0
				}
			]
		},
		{
			"name":"Cube.056",
			"primitives":[
				{
					"attributes":{
						"POSITION":4,
						"NORMAL":5,
						"TEXCOORD_0":6
					},
					"indices":7,
					"material":1
				}
			]
		}
	],
	"textures":[
		{
			"sampler":0,
			"source":0
		},
		{
			"sampler":0,
			"source":1
		},
		{
			"sampler":0,
			"source":2
		}
	],
	"images":[
		{
			"mimeType":"image/png",
			"name":"T_RockTrim_Normal",
			"uri":"T_RockTrim_Normal.png"
		},
		{
			"mimeType":"image/png",
			"name":"T_RockTrim_BaseColor",
			"uri":"T_RockTrim_BaseColor.png"
		},
		{
			"mimeType":"image/png",
			"name":"T_RockTrim_ORM",
			"uri":"T_RockTrim_ORM.png"
		}
	],
	"accessors":[
		{
			"bufferView":0,
			"componentType":5126,
			"count":20,
			"max":[
				1.000000238418579,
				1,
				1
			],
			"min":[
				-1.00257408618927,
				-3.820675516279714e-16,
				-1
			],
			"type":"VEC3"
		},
		{
			"bufferView":1,
			"componentType":5126,
			"count":20,
			"type":"VEC3"
		},
		{
			"bufferView":2,
			"componentType":5126,
			"count":20,
			"type":"VEC2"
		},
		{
			"bufferView":3,
			"componentType":5123,
			"count":30,
			"type":"SCALAR"
		},
		{
			"bufferView":4,
			"componentType":5126,
			"count":90,
			"max":[
				1,
				0.8184158205986023,
				1.00067138671875
			],
			"min":[
				-1.000000238418579,
				-0.20368799567222595,
				-1.0772459506988525
			],
			"type":"VEC3"
		},
		{
			"bufferView":5,
			"componentType":5126,
			"count":90,
			"type":"VEC3"
		},
		{
			"bufferView":6,
			"componentType":5126,
			"count":90,
			"type":"VEC2"
		},
		{
			"bufferView":7,
			"componentType":5123,
			"count":150,
			"type":"SCALAR"
		}
	],
	"bufferViews":[
		{
			"buffer":0,
			"byteLength":240,
			"byteOffset":0,
			"target":34962
		},
		{
			"buffer":0,
			"byteLength":240,
			"byteOffset":240,
			"target":34962
		},
		{
			"buffer":0,
			"byteLength":160,
			"byteOffset":480,
			"target":34962
		},
		{
			"buffer":0,
			"byteLength":60,
			"byteOffset":640,
			"target":34963
		},
		{
			"buffer":0,
			"byteLength":1080,
			"byteOffset":700,
			"target":34962
		},
		{
			"buffer":0,
			"byteLength":1080,
			"byteOffset":1780,
			"target":34962
		},
		{
			"buffer":0,
			"byteLength":720,
			"byteOffset":2860,
			"target":34962
		},
		{
			"buffer":0,
			"byteLength":300,
			"byteOffset":3580,
			"target":34963
		}
	],
	"samplers":[
		{
			"magFilter":9729,
			"minFilter":9987
		}
	],
	"buffers":[
		{
			"byteLength":3880,
			"uri":"Stairs_Exterior_Straight_Center.bin"
		}
	]
}
