{
	"asset":{
		"generator":"Khronos glTF Blender I/O v4.0.44",
		"version":"2.0"
	},
	"scene":0,
	"scenes":[
		{
			"name":"Scene",
			"nodes":[
				2
			]
		}
	],
	"nodes":[
		{
			"mesh":0,
			"name":"Stair_Interior_Rails_1-convcolonly"
		},
		{
			"mesh":1,
			"name":"Stair_Interior_Rails_2-convcolonly"
		},
		{
			"children":[
				0,
				1
			],
			"mesh":2,
			"name":"Stair_Interior_Rails"
		}
	],
	"materials":[
		{
			"doubleSided":true,
			"name":"Collision",
			"pbrMetallicRoughness":{
				"baseColorFactor":[
					0.05868536978960037,
					0.2907957136631012,
					0.8000074625015259,
					1
				],
				"metallicFactor":0,
				"roughnessFactor":0.5
			}
		},
		{
			"doubleSided":true,
			"name":"MI_WoodTrim",
			"normalTexture":{
				"index":0
			},
			"pbrMetallicRoughness":{
				"baseColorTexture":{
					"index":1
				},
				"metallicFactor":0,
				"metallicRoughnessTexture":{
					"index":2
				}
			}
		}
	],
	"meshes":[
		{
			"name":"Cube.941",
			"primitives":[
				{
					"attributes":{
						"POSITION":0,
						"NORMAL":1,
						"TEXCOORD_0":2
					},
					"indices":3,
					"material":0
				}
			]
		},
		{
			"name":"Cube.942",
			"primitives":[
				{
					"attributes":{
						"POSITION":4,
						"NORMAL":5,
						"TEXCOORD_0":6
					},
					"indices":7,
					"material":0
				}
			]
		},
		{
			"name":"Cube.073",
			"primitives":[
				{
					"attributes":{
						"POSITION":8,
						"NORMAL":9,
						"TEXCOORD_0":10
					},
					"indices":11,
					"material":1
				}
			]
		}
	],
	"textures":[
		{
			"sampler":0,
			"source":0
		},
		{
			"sampler":0,
			"source":1
		},
		{
			"sampler":0,
			"source":2
		}
	],
	"images":[
		{
			"mimeType":"image/png",
			"name":"T_WoodTrim_Normal",
			"uri":"T_WoodTrim_Normal.png"
		},
		{
			"mimeType":"image/png",
			"name":"T_WoodTrim_BaseColor",
			"uri":"T_WoodTrim_BaseColor.png"
		},
		{
			"mimeType":"image/png",
			"name":"T_WoodTrim_Roughness",
			"uri":"T_WoodTrim_Roughness.png"
		}
	],
	"accessors":[
		{
			"bufferView":0,
			"componentType":5126,
			"count":30,
			"max":[
				0.8814324140548706,
				3.9281725883483887,
				0.25466346740722656
			],
			"min":[
				0.7440797090530396,
				0,
				-4.323219299316406
			],
			"type":"VEC3"
		},
		{
			"bufferView":1,
			"componentType":5126,
			"count":30,
			"type":"VEC3"
		},
		{
			"bufferView":2,
			"componentType":5126,
			"count":30,
			"type":"VEC2"
		},
		{
			"bufferView":3,
			"componentType":5123,
			"count":48,
			"type":"SCALAR"
		},
		{
			"bufferView":4,
			"componentType":5126,
			"count":30,
			"max":[
				-0.7440797090530396,
				3.9281725883483887,
				0.25466346740722656
			],
			"min":[
				-0.8814324140548706,
				0,
				-4.323219299316406
			],
			"type":"VEC3"
		},
		{
			"bufferView":5,
			"componentType":5126,
			"count":30,
			"type":"VEC3"
		},
		{
			"bufferView":6,
			"componentType":5126,
			"count":30,
			"type":"VEC2"
		},
		{
			"bufferView":7,
			"componentType":5123,
			"count":48,
			"type":"SCALAR"
		},
		{
			"bufferView":8,
			"componentType":5126,
			"count":3640,
			"max":[
				0.8583554625511169,
				3.9530751705169678,
				0.24431560933589935
			],
			"min":[
				-0.8583554625511169,
				0.02250903844833374,
				-4.31890869140625
			],
			"type":"VEC3"
		},
		{
			"bufferView":9,
			"componentType":5126,
			"count":3640,
			"type":"VEC3"
		},
		{
			"bufferView":10,
			"componentType":5126,
			"count":3640,
			"type":"VEC2"
		},
		{
			"bufferView":11,
			"componentType":5123,
			"count":9432,
			"type":"SCALAR"
		}
	],
	"bufferViews":[
		{
			"buffer":0,
			"byteLength":360,
			"byteOffset":0,
			"target":34962
		},
		{
			"buffer":0,
			"byteLength":360,
			"byteOffset":360,
			"target":34962
		},
		{
			"buffer":0,
			"byteLength":240,
			"byteOffset":720,
			"target":34962
		},
		{
			"buffer":0,
			"byteLength":96,
			"byteOffset":960,
			"target":34963
		},
		{
			"buffer":0,
			"byteLength":360,
			"byteOffset":1056,
			"target":34962
		},
		{
			"buffer":0,
			"byteLength":360,
			"byteOffset":1416,
			"target":34962
		},
		{
			"buffer":0,
			"byteLength":240,
			"byteOffset":1776,
			"target":34962
		},
		{
			"buffer":0,
			"byteLength":96,
			"byteOffset":2016,
			"target":34963
		},
		{
			"buffer":0,
			"byteLength":43680,
			"byteOffset":2112,
			"target":34962
		},
		{
			"buffer":0,
			"byteLength":43680,
			"byteOffset":45792,
			"target":34962
		},
		{
			"buffer":0,
			"byteLength":29120,
			"byteOffset":89472,
			"target":34962
		},
		{
			"buffer":0,
			"byteLength":18864,
			"byteOffset":118592,
			"target":34963
		}
	],
	"samplers":[
		{
			"magFilter":9729,
			"minFilter":9987
		}
	],
	"buffers":[
		{
			"byteLength":137456,
			"uri":"Stair_Interior_Rails.bin"
		}
	]
}
