{
	"asset":{
		"generator":"Khronos glTF Blender I/O v4.0.44",
		"version":"2.0"
	},
	"scene":0,
	"scenes":[
		{
			"name":"Scene",
			"nodes":[
				6
			]
		}
	],
	"nodes":[
		{
			"mesh":0,
			"name":"Wall_Plaster_Door_Round_1-convcolonly"
		},
		{
			"mesh":1,
			"name":"Wall_Plaster_Door_Round_2-convcolonly"
		},
		{
			"mesh":2,
			"name":"Wall_Plaster_Door_Round_3-convcolonly"
		},
		{
			"mesh":3,
			"name":"Wall_Plaster_Door_Round_4-convcolonly"
		},
		{
			"mesh":4,
			"name":"Wall_Plaster_Door_Round_5-convcolonly"
		},
		{
			"mesh":5,
			"name":"Wall_Plaster_Door_Round_6-convcolonly"
		},
		{
			"children":[
				0,
				1,
				2,
				3,
				4,
				5
			],
			"mesh":6,
			"name":"Wall_Plaster_Door_Round"
		}
	],
	"materials":[
		{
			"doubleSided":true,
			"name":"Collision",
			"pbrMetallicRoughness":{
				"baseColorFactor":[
					0.05868536978960037,
					0.2907957136631012,
					0.8000074625015259,
					1
				],
				"metallicFactor":0,
				"roughnessFactor":0.5
			}
		},
		{
			"doubleSided":true,
			"name":"MI_WoodTrim",
			"normalTexture":{
				"index":0
			},
			"pbrMetallicRoughness":{
				"baseColorTexture":{
					"index":1
				},
				"metallicFactor":0,
				"metallicRoughnessTexture":{
					"index":2
				}
			}
		},
		{
			"doubleSided":true,
			"name":"MI_Plaster",
			"normalTexture":{
				"index":3
			},
			"pbrMetallicRoughness":{
				"baseColorTexture":{
					"index":4
				},
				"metallicRoughnessTexture":{
					"index":5
				}
			}
		},
		{
			"doubleSided":true,
			"name":"MI_RockTrim",
			"normalTexture":{
				"index":6
			},
			"pbrMetallicRoughness":{
				"baseColorTexture":{
					"index":7
				},
				"metallicRoughnessTexture":{
					"index":8
				}
			}
		}
	],
	"meshes":[
		{
			"name":"Cube.551",
			"primitives":[
				{
					"attributes":{
						"POSITION":0,
						"NORMAL":1,
						"TEXCOORD_0":2
					},
					"indices":3,
					"material":0
				}
			]
		},
		{
			"name":"Cube.552",
			"primitives":[
				{
					"attributes":{
						"POSITION":4,
						"NORMAL":5,
						"TEXCOORD_0":6
					},
					"indices":7,
					"material":0
				}
			]
		},
		{
			"name":"Cube.553",
			"primitives":[
				{
					"attributes":{
						"POSITION":8,
						"NORMAL":9,
						"TEXCOORD_0":10
					},
					"indices":11,
					"material":0
				}
			]
		},
		{
			"name":"Cube.554",
			"primitives":[
				{
					"attributes":{
						"POSITION":12,
						"NORMAL":13,
						"TEXCOORD_0":14
					},
					"indices":15,
					"material":0
				}
			]
		},
		{
			"name":"Cube.555",
			"primitives":[
				{
					"attributes":{
						"POSITION":16,
						"NORMAL":17,
						"TEXCOORD_0":18
					},
					"indices":19,
					"material":0
				}
			]
		},
		{
			"name":"Cube.556",
			"primitives":[
				{
					"attributes":{
						"POSITION":20,
						"NORMAL":21,
						"TEXCOORD_0":22
					},
					"indices":23,
					"material":0
				}
			]
		},
		{
			"name":"Cube.227",
			"primitives":[
				{
					"attributes":{
						"POSITION":24,
						"NORMAL":25,
						"TEXCOORD_0":26,
						"TEXCOORD_1":27
					},
					"indices":28,
					"material":1
				},
				{
					"attributes":{
						"POSITION":29,
						"NORMAL":30,
						"TEXCOORD_0":31,
						"TEXCOORD_1":32
					},
					"indices":33,
					"material":2
				},
				{
					"attributes":{
						"POSITION":34,
						"NORMAL":35,
						"TEXCOORD_0":36,
						"TEXCOORD_1":37
					},
					"indices":38,
					"material":3
				}
			]
		}
	],
	"textures":[
		{
			"sampler":0,
			"source":0
		},
		{
			"sampler":0,
			"source":1
		},
		{
			"sampler":0,
			"source":2
		},
		{
			"sampler":0,
			"source":3
		},
		{
			"sampler":0,
			"source":4
		},
		{
			"sampler":0,
			"source":5
		},
		{
			"sampler":0,
			"source":6
		},
		{
			"sampler":0,
			"source":7
		},
		{
			"sampler":0,
			"source":8
		}
	],
	"images":[
		{
			"mimeType":"image/png",
			"name":"T_WoodTrim_Normal",
			"uri":"T_WoodTrim_Normal.png"
		},
		{
			"mimeType":"image/png",
			"name":"T_WoodTrim_BaseColor",
			"uri":"T_WoodTrim_BaseColor.png"
		},
		{
			"mimeType":"image/png",
			"name":"T_WoodTrim_Roughness",
			"uri":"T_WoodTrim_Roughness.png"
		},
		{
			"mimeType":"image/png",
			"name":"T_Plaster_Normal",
			"uri":"T_Plaster_Normal.png"
		},
		{
			"mimeType":"image/png",
			"name":"T_Plaster_BaseColor",
			"uri":"T_Plaster_BaseColor.png"
		},
		{
			"mimeType":"image/png",
			"name":"T_Plaster_ORM",
			"uri":"T_Plaster_ORM.png"
		},
		{
			"mimeType":"image/png",
			"name":"T_RockTrim_Normal",
			"uri":"T_RockTrim_Normal.png"
		},
		{
			"mimeType":"image/png",
			"name":"T_RockTrim_BaseColor",
			"uri":"T_RockTrim_BaseColor.png"
		},
		{
			"mimeType":"image/png",
			"name":"T_RockTrim_ORM",
			"uri":"T_RockTrim_ORM.png"
		}
	],
	"accessors":[
		{
			"bufferView":0,
			"componentType":5126,
			"count":24,
			"max":[
				-0.6369142532348633,
				2.1406877040863037,
				0.10000002384185791
			],
			"min":[
				-1,
				0,
				-0.30000001192092896
			],
			"type":"VEC3"
		},
		{
			"bufferView":1,
			"componentType":5126,
			"count":24,
			"type":"VEC3"
		},
		{
			"bufferView":2,
			"componentType":5126,
			"count":24,
			"type":"VEC2"
		},
		{
			"bufferView":3,
			"componentType":5123,
			"count":36,
			"type":"SCALAR"
		},
		{
			"bufferView":4,
			"componentType":5126,
			"count":24,
			"max":[
				1,
				2.1406877040863037,
				0.10000002384185791
			],
			"min":[
				0.6369142532348633,
				0,
				-0.30000001192092896
			],
			"type":"VEC3"
		},
		{
			"bufferView":5,
			"componentType":5126,
			"count":24,
			"type":"VEC3"
		},
		{
			"bufferView":6,
			"componentType":5126,
			"count":24,
			"type":"VEC2"
		},
		{
			"bufferView":7,
			"componentType":5123,
			"count":36,
			"type":"SCALAR"
		},
		{
			"bufferView":8,
			"componentType":5126,
			"count":34,
			"max":[
				-0.32235199213027954,
				3.1000001430511475,
				0.10000002384185791
			],
			"min":[
				-1,
				2.1406877040863037,
				-0.30000001192092896
			],
			"type":"VEC3"
		},
		{
			"bufferView":9,
			"componentType":5126,
			"count":34,
			"type":"VEC3"
		},
		{
			"bufferView":10,
			"componentType":5126,
			"count":34,
			"type":"VEC2"
		},
		{
			"bufferView":11,
			"componentType":5123,
			"count":60,
			"type":"SCALAR"
		},
		{
			"bufferView":12,
			"componentType":5126,
			"count":34,
			"max":[
				1,
				3.1000001430511475,
				0.10000002384185791
			],
			"min":[
				0.3188096582889557,
				2.1406877040863037,
				-0.30000001192092896
			],
			"type":"VEC3"
		},
		{
			"bufferView":13,
			"componentType":5126,
			"count":34,
			"type":"VEC3"
		},
		{
			"bufferView":14,
			"componentType":5126,
			"count":34,
			"type":"VEC2"
		},
		{
			"bufferView":15,
			"componentType":5123,
			"count":60,
			"type":"SCALAR"
		},
		{
			"bufferView":16,
			"componentType":5126,
			"count":24,
			"max":[
				0,
				3.1000001430511475,
				0.10000002384185791
			],
			"min":[
				-0.3223520517349243,
				2.4117591381073,
				-0.30000001192092896
			],
			"type":"VEC3"
		},
		{
			"bufferView":17,
			"componentType":5126,
			"count":24,
			"type":"VEC3"
		},
		{
			"bufferView":18,
			"componentType":5126,
			"count":24,
			"type":"VEC2"
		},
		{
			"bufferView":19,
			"componentType":5123,
			"count":36,
			"type":"SCALAR"
		},
		{
			"bufferView":20,
			"componentType":5126,
			"count":24,
			"max":[
				0.3188096582889557,
				3.1000001430511475,
				0.10000002384185791
			],
			"min":[
				0,
				2.4117591381073,
				-0.30000001192092896
			],
			"type":"VEC3"
		},
		{
			"bufferView":21,
			"componentType":5126,
			"count":24,
			"type":"VEC3"
		},
		{
			"bufferView":22,
			"componentType":5126,
			"count":24,
			"type":"VEC2"
		},
		{
			"bufferView":23,
			"componentType":5123,
			"count":36,
			"type":"SCALAR"
		},
		{
			"bufferView":24,
			"componentType":5126,
			"count":124,
			"max":[
				1,
				3.1226887702941895,
				0.0924467146396637
			],
			"min":[
				-1.0000001192092896,
				0.6495776176452637,
				-0.3140353262424469
			],
			"type":"VEC3"
		},
		{
			"bufferView":25,
			"componentType":5126,
			"count":124,
			"type":"VEC3"
		},
		{
			"bufferView":26,
			"componentType":5126,
			"count":124,
			"type":"VEC2"
		},
		{
			"bufferView":27,
			"componentType":5126,
			"count":124,
			"type":"VEC2"
		},
		{
			"bufferView":28,
			"componentType":5123,
			"count":204,
			"type":"SCALAR"
		},
		{
			"bufferView":29,
			"componentType":5126,
			"count":69,
			"max":[
				1,
				3,
				1.3113417196564114e-07
			],
			"min":[
				-1,
				0,
				-0.2000000923871994
			],
			"type":"VEC3"
		},
		{
			"bufferView":30,
			"componentType":5126,
			"count":69,
			"type":"VEC3"
		},
		{
			"bufferView":31,
			"componentType":5126,
			"count":69,
			"type":"VEC2"
		},
		{
			"bufferView":32,
			"componentType":5126,
			"count":69,
			"type":"VEC2"
		},
		{
			"bufferView":33,
			"componentType":5123,
			"count":195,
			"type":"SCALAR"
		},
		{
			"bufferView":34,
			"componentType":5126,
			"count":8,
			"max":[
				1,
				0.9100615382194519,
				4.3711395392165286e-08
			],
			"min":[
				-1,
				0,
				0
			],
			"type":"VEC3"
		},
		{
			"bufferView":35,
			"componentType":5126,
			"count":8,
			"type":"VEC3"
		},
		{
			"bufferView":36,
			"componentType":5126,
			"count":8,
			"type":"VEC2"
		},
		{
			"bufferView":37,
			"componentType":5126,
			"count":8,
			"type":"VEC2"
		},
		{
			"bufferView":38,
			"componentType":5123,
			"count":12,
			"type":"SCALAR"
		}
	],
	"bufferViews":[
		{
			"buffer":0,
			"byteLength":288,
			"byteOffset":0,
			"target":34962
		},
		{
			"buffer":0,
			"byteLength":288,
			"byteOffset":288,
			"target":34962
		},
		{
			"buffer":0,
			"byteLength":192,
			"byteOffset":576,
			"target":34962
		},
		{
			"buffer":0,
			"byteLength":72,
			"byteOffset":768,
			"target":34963
		},
		{
			"buffer":0,
			"byteLength":288,
			"byteOffset":840,
			"target":34962
		},
		{
			"buffer":0,
			"byteLength":288,
			"byteOffset":1128,
			"target":34962
		},
		{
			"buffer":0,
			"byteLength":192,
			"byteOffset":1416,
			"target":34962
		},
		{
			"buffer":0,
			"byteLength":72,
			"byteOffset":1608,
			"target":34963
		},
		{
			"buffer":0,
			"byteLength":408,
			"byteOffset":1680,
			"target":34962
		},
		{
			"buffer":0,
			"byteLength":408,
			"byteOffset":2088,
			"target":34962
		},
		{
			"buffer":0,
			"byteLength":272,
			"byteOffset":2496,
			"target":34962
		},
		{
			"buffer":0,
			"byteLength":120,
			"byteOffset":2768,
			"target":34963
		},
		{
			"buffer":0,
			"byteLength":408,
			"byteOffset":2888,
			"target":34962
		},
		{
			"buffer":0,
			"byteLength":408,
			"byteOffset":3296,
			"target":34962
		},
		{
			"buffer":0,
			"byteLength":272,
			"byteOffset":3704,
			"target":34962
		},
		{
			"buffer":0,
			"byteLength":120,
			"byteOffset":3976,
			"target":34963
		},
		{
			"buffer":0,
			"byteLength":288,
			"byteOffset":4096,
			"target":34962
		},
		{
			"buffer":0,
			"byteLength":288,
			"byteOffset":4384,
			"target":34962
		},
		{
			"buffer":0,
			"byteLength":192,
			"byteOffset":4672,
			"target":34962
		},
		{
			"buffer":0,
			"byteLength":72,
			"byteOffset":4864,
			"target":34963
		},
		{
			"buffer":0,
			"byteLength":288,
			"byteOffset":4936,
			"target":34962
		},
		{
			"buffer":0,
			"byteLength":288,
			"byteOffset":5224,
			"target":34962
		},
		{
			"buffer":0,
			"byteLength":192,
			"byteOffset":5512,
			"target":34962
		},
		{
			"buffer":0,
			"byteLength":72,
			"byteOffset":5704,
			"target":34963
		},
		{
			"buffer":0,
			"byteLength":1488,
			"byteOffset":5776,
			"target":34962
		},
		{
			"buffer":0,
			"byteLength":1488,
			"byteOffset":7264,
			"target":34962
		},
		{
			"buffer":0,
			"byteLength":992,
			"byteOffset":8752,
			"target":34962
		},
		{
			"buffer":0,
			"byteLength":992,
			"byteOffset":9744,
			"target":34962
		},
		{
			"buffer":0,
			"byteLength":408,
			"byteOffset":10736,
			"target":34963
		},
		{
			"buffer":0,
			"byteLength":828,
			"byteOffset":11144,
			"target":34962
		},
		{
			"buffer":0,
			"byteLength":828,
			"byteOffset":11972,
			"target":34962
		},
		{
			"buffer":0,
			"byteLength":552,
			"byteOffset":12800,
			"target":34962
		},
		{
			"buffer":0,
			"byteLength":552,
			"byteOffset":13352,
			"target":34962
		},
		{
			"buffer":0,
			"byteLength":390,
			"byteOffset":13904,
			"target":34963
		},
		{
			"buffer":0,
			"byteLength":96,
			"byteOffset":14296,
			"target":34962
		},
		{
			"buffer":0,
			"byteLength":96,
			"byteOffset":14392,
			"target":34962
		},
		{
			"buffer":0,
			"byteLength":64,
			"byteOffset":14488,
			"target":34962
		},
		{
			"buffer":0,
			"byteLength":64,
			"byteOffset":14552,
			"target":34962
		},
		{
			"buffer":0,
			"byteLength":24,
			"byteOffset":14616,
			"target":34963
		}
	],
	"samplers":[
		{
			"magFilter":9729,
			"minFilter":9987
		}
	],
	"buffers":[
		{
			"byteLength":14640,
			"uri":"Wall_Plaster_Door_Round.bin"
		}
	]
}
