{
	"asset":{
		"generator":"Khronos glTF Blender I/O v4.0.44",
		"version":"2.0"
	},
	"scene":0,
	"scenes":[
		{
			"name":"Scene",
			"nodes":[
				8
			]
		}
	],
	"nodes":[
		{
			"mesh":0,
			"name":"Wall_Arch_01-convcolonly"
		},
		{
			"mesh":1,
			"name":"Wall_Arch_02-convcolonly"
		},
		{
			"mesh":2,
			"name":"Wall_Arch_03-convcolonly"
		},
		{
			"mesh":3,
			"name":"Wall_Arch_04-convcolonly"
		},
		{
			"mesh":4,
			"name":"Wall_Arch_05-convcolonly"
		},
		{
			"mesh":5,
			"name":"Wall_Arch_06-convcolonly"
		},
		{
			"mesh":6,
			"name":"Wall_Arch_07-convcolonly"
		},
		{
			"mesh":7,
			"name":"Wall_Arch_08-convcolonly"
		},
		{
			"children":[
				0,
				1,
				2,
				3,
				4,
				5,
				6,
				7
			],
			"mesh":8,
			"name":"Wall_Arch"
		}
	],
	"materials":[
		{
			"doubleSided":true,
			"name":"Collision",
			"pbrMetallicRoughness":{
				"baseColorFactor":[
					0.05868536978960037,
					0.2907957136631012,
					0.8000074625015259,
					1
				],
				"metallicFactor":0,
				"roughnessFactor":0.5
			}
		},
		{
			"doubleSided":true,
			"name":"MI_WoodTrim",
			"normalTexture":{
				"index":0
			},
			"pbrMetallicRoughness":{
				"baseColorTexture":{
					"index":1
				},
				"metallicFactor":0,
				"metallicRoughnessTexture":{
					"index":2
				}
			}
		}
	],
	"meshes":[
		{
			"name":"Plane.038",
			"primitives":[
				{
					"attributes":{
						"POSITION":0,
						"NORMAL":1,
						"TEXCOORD_0":2
					},
					"indices":3,
					"material":0
				}
			]
		},
		{
			"name":"Plane.056",
			"primitives":[
				{
					"attributes":{
						"POSITION":4,
						"NORMAL":5,
						"TEXCOORD_0":6
					},
					"indices":7,
					"material":0
				}
			]
		},
		{
			"name":"Plane.057",
			"primitives":[
				{
					"attributes":{
						"POSITION":8,
						"NORMAL":9,
						"TEXCOORD_0":10
					},
					"indices":11,
					"material":0
				}
			]
		},
		{
			"name":"Plane.058",
			"primitives":[
				{
					"attributes":{
						"POSITION":12,
						"NORMAL":13,
						"TEXCOORD_0":14
					},
					"indices":15,
					"material":0
				}
			]
		},
		{
			"name":"Plane.059",
			"primitives":[
				{
					"attributes":{
						"POSITION":16,
						"NORMAL":17,
						"TEXCOORD_0":18
					},
					"indices":19,
					"material":0
				}
			]
		},
		{
			"name":"Plane.060",
			"primitives":[
				{
					"attributes":{
						"POSITION":20,
						"NORMAL":21,
						"TEXCOORD_0":22
					},
					"indices":23,
					"material":0
				}
			]
		},
		{
			"name":"Plane.061",
			"primitives":[
				{
					"attributes":{
						"POSITION":24,
						"NORMAL":25,
						"TEXCOORD_0":26
					},
					"indices":27,
					"material":0
				}
			]
		},
		{
			"name":"Plane.062",
			"primitives":[
				{
					"attributes":{
						"POSITION":28,
						"NORMAL":29,
						"TEXCOORD_0":30
					},
					"indices":31,
					"material":0
				}
			]
		},
		{
			"name":"Plane.007",
			"primitives":[
				{
					"attributes":{
						"POSITION":32,
						"NORMAL":33,
						"TEXCOORD_0":34
					},
					"indices":35,
					"material":1
				}
			]
		}
	],
	"textures":[
		{
			"sampler":0,
			"source":0
		},
		{
			"sampler":0,
			"source":1
		},
		{
			"sampler":0,
			"source":2
		}
	],
	"images":[
		{
			"mimeType":"image/png",
			"name":"T_WoodTrim_Normal",
			"uri":"T_WoodTrim_Normal.png"
		},
		{
			"mimeType":"image/png",
			"name":"T_WoodTrim_BaseColor",
			"uri":"T_WoodTrim_BaseColor.png"
		},
		{
			"mimeType":"image/png",
			"name":"T_WoodTrim_Roughness",
			"uri":"T_WoodTrim_Roughness.png"
		}
	],
	"accessors":[
		{
			"bufferView":0,
			"componentType":5126,
			"count":24,
			"max":[
				0,
				3,
				0.06404569000005722
			],
			"min":[
				-0.4166666865348816,
				2.629966974258423,
				-3.725290298461914e-08
			],
			"type":"VEC3"
		},
		{
			"bufferView":1,
			"componentType":5126,
			"count":24,
			"type":"VEC3"
		},
		{
			"bufferView":2,
			"componentType":5126,
			"count":24,
			"type":"VEC2"
		},
		{
			"bufferView":3,
			"componentType":5123,
			"count":36,
			"type":"SCALAR"
		},
		{
			"bufferView":4,
			"componentType":5126,
			"count":23,
			"max":[
				-0.6666666865348816,
				3,
				0.06404569000005722
			],
			"min":[
				-0.8333333730697632,
				2.0373713970184326,
				-3.725290298461914e-08
			],
			"type":"VEC3"
		},
		{
			"bufferView":5,
			"componentType":5126,
			"count":23,
			"type":"VEC3"
		},
		{
			"bufferView":6,
			"componentType":5126,
			"count":23,
			"type":"VEC2"
		},
		{
			"bufferView":7,
			"componentType":5123,
			"count":36,
			"type":"SCALAR"
		},
		{
			"bufferView":8,
			"componentType":5126,
			"count":23,
			"max":[
				0.8333333730697632,
				3,
				0.06404569000005722
			],
			"min":[
				0.6666666865348816,
				2.0373713970184326,
				-3.725290298461914e-08
			],
			"type":"VEC3"
		},
		{
			"bufferView":9,
			"componentType":5126,
			"count":23,
			"type":"VEC3"
		},
		{
			"bufferView":10,
			"componentType":5126,
			"count":23,
			"type":"VEC2"
		},
		{
			"bufferView":11,
			"componentType":5123,
			"count":36,
			"type":"SCALAR"
		},
		{
			"bufferView":12,
			"componentType":5126,
			"count":24,
			"max":[
				0.4166666865348816,
				3,
				0.06404569000005722
			],
			"min":[
				-8.094938461869932e-23,
				2.629966974258423,
				-3.725290298461914e-08
			],
			"type":"VEC3"
		},
		{
			"bufferView":13,
			"componentType":5126,
			"count":24,
			"type":"VEC3"
		},
		{
			"bufferView":14,
			"componentType":5126,
			"count":24,
			"type":"VEC2"
		},
		{
			"bufferView":15,
			"componentType":5123,
			"count":36,
			"type":"SCALAR"
		},
		{
			"bufferView":16,
			"componentType":5126,
			"count":24,
			"max":[
				-0.8333333730697632,
				3,
				0.06404569000005722
			],
			"min":[
				-1,
				-1.1920928955078125e-07,
				-3.725290298461914e-08
			],
			"type":"VEC3"
		},
		{
			"bufferView":17,
			"componentType":5126,
			"count":24,
			"type":"VEC3"
		},
		{
			"bufferView":18,
			"componentType":5126,
			"count":24,
			"type":"VEC2"
		},
		{
			"bufferView":19,
			"componentType":5123,
			"count":36,
			"type":"SCALAR"
		},
		{
			"bufferView":20,
			"componentType":5126,
			"count":23,
			"max":[
				-0.4166666865348816,
				3,
				0.06404569000005722
			],
			"min":[
				-0.6666666865348816,
				2.413029193878174,
				-3.725290298461914e-08
			],
			"type":"VEC3"
		},
		{
			"bufferView":21,
			"componentType":5126,
			"count":23,
			"type":"VEC3"
		},
		{
			"bufferView":22,
			"componentType":5126,
			"count":23,
			"type":"VEC2"
		},
		{
			"bufferView":23,
			"componentType":5123,
			"count":36,
			"type":"SCALAR"
		},
		{
			"bufferView":24,
			"componentType":5126,
			"count":24,
			"max":[
				1,
				3,
				0.06404569000005722
			],
			"min":[
				0.8333333730697632,
				-1.1920928955078125e-07,
				-3.725290298461914e-08
			],
			"type":"VEC3"
		},
		{
			"bufferView":25,
			"componentType":5126,
			"count":24,
			"type":"VEC3"
		},
		{
			"bufferView":26,
			"componentType":5126,
			"count":24,
			"type":"VEC2"
		},
		{
			"bufferView":27,
			"componentType":5123,
			"count":36,
			"type":"SCALAR"
		},
		{
			"bufferView":28,
			"componentType":5126,
			"count":23,
			"max":[
				0.6666666865348816,
				3,
				0.06404569000005722
			],
			"min":[
				0.4166666865348816,
				2.413029193878174,
				-3.725290298461914e-08
			],
			"type":"VEC3"
		},
		{
			"bufferView":29,
			"componentType":5126,
			"count":23,
			"type":"VEC3"
		},
		{
			"bufferView":30,
			"componentType":5126,
			"count":23,
			"type":"VEC2"
		},
		{
			"bufferView":31,
			"componentType":5123,
			"count":36,
			"type":"SCALAR"
		},
		{
			"bufferView":32,
			"componentType":5126,
			"count":260,
			"max":[
				1,
				3,
				0.06404569000005722
			],
			"min":[
				-1,
				-1.1920928955078125e-07,
				-3.725290298461914e-08
			],
			"type":"VEC3"
		},
		{
			"bufferView":33,
			"componentType":5126,
			"count":260,
			"type":"VEC3"
		},
		{
			"bufferView":34,
			"componentType":5126,
			"count":260,
			"type":"VEC2"
		},
		{
			"bufferView":35,
			"componentType":5123,
			"count":588,
			"type":"SCALAR"
		}
	],
	"bufferViews":[
		{
			"buffer":0,
			"byteLength":288,
			"byteOffset":0,
			"target":34962
		},
		{
			"buffer":0,
			"byteLength":288,
			"byteOffset":288,
			"target":34962
		},
		{
			"buffer":0,
			"byteLength":192,
			"byteOffset":576,
			"target":34962
		},
		{
			"buffer":0,
			"byteLength":72,
			"byteOffset":768,
			"target":34963
		},
		{
			"buffer":0,
			"byteLength":276,
			"byteOffset":840,
			"target":34962
		},
		{
			"buffer":0,
			"byteLength":276,
			"byteOffset":1116,
			"target":34962
		},
		{
			"buffer":0,
			"byteLength":184,
			"byteOffset":1392,
			"target":34962
		},
		{
			"buffer":0,
			"byteLength":72,
			"byteOffset":1576,
			"target":34963
		},
		{
			"buffer":0,
			"byteLength":276,
			"byteOffset":1648,
			"target":34962
		},
		{
			"buffer":0,
			"byteLength":276,
			"byteOffset":1924,
			"target":34962
		},
		{
			"buffer":0,
			"byteLength":184,
			"byteOffset":2200,
			"target":34962
		},
		{
			"buffer":0,
			"byteLength":72,
			"byteOffset":2384,
			"target":34963
		},
		{
			"buffer":0,
			"byteLength":288,
			"byteOffset":2456,
			"target":34962
		},
		{
			"buffer":0,
			"byteLength":288,
			"byteOffset":2744,
			"target":34962
		},
		{
			"buffer":0,
			"byteLength":192,
			"byteOffset":3032,
			"target":34962
		},
		{
			"buffer":0,
			"byteLength":72,
			"byteOffset":3224,
			"target":34963
		},
		{
			"buffer":0,
			"byteLength":288,
			"byteOffset":3296,
			"target":34962
		},
		{
			"buffer":0,
			"byteLength":288,
			"byteOffset":3584,
			"target":34962
		},
		{
			"buffer":0,
			"byteLength":192,
			"byteOffset":3872,
			"target":34962
		},
		{
			"buffer":0,
			"byteLength":72,
			"byteOffset":4064,
			"target":34963
		},
		{
			"buffer":0,
			"byteLength":276,
			"byteOffset":4136,
			"target":34962
		},
		{
			"buffer":0,
			"byteLength":276,
			"byteOffset":4412,
			"target":34962
		},
		{
			"buffer":0,
			"byteLength":184,
			"byteOffset":4688,
			"target":34962
		},
		{
			"buffer":0,
			"byteLength":72,
			"byteOffset":4872,
			"target":34963
		},
		{
			"buffer":0,
			"byteLength":288,
			"byteOffset":4944,
			"target":34962
		},
		{
			"buffer":0,
			"byteLength":288,
			"byteOffset":5232,
			"target":34962
		},
		{
			"buffer":0,
			"byteLength":192,
			"byteOffset":5520,
			"target":34962
		},
		{
			"buffer":0,
			"byteLength":72,
			"byteOffset":5712,
			"target":34963
		},
		{
			"buffer":0,
			"byteLength":276,
			"byteOffset":5784,
			"target":34962
		},
		{
			"buffer":0,
			"byteLength":276,
			"byteOffset":6060,
			"target":34962
		},
		{
			"buffer":0,
			"byteLength":184,
			"byteOffset":6336,
			"target":34962
		},
		{
			"buffer":0,
			"byteLength":72,
			"byteOffset":6520,
			"target":34963
		},
		{
			"buffer":0,
			"byteLength":3120,
			"byteOffset":6592,
			"target":34962
		},
		{
			"buffer":0,
			"byteLength":3120,
			"byteOffset":9712,
			"target":34962
		},
		{
			"buffer":0,
			"byteLength":2080,
			"byteOffset":12832,
			"target":34962
		},
		{
			"buffer":0,
			"byteLength":1176,
			"byteOffset":14912,
			"target":34963
		}
	],
	"samplers":[
		{
			"magFilter":9729,
			"minFilter":9987
		}
	],
	"buffers":[
		{
			"byteLength":16088,
			"uri":"Wall_Arch.bin"
		}
	]
}
