{
	"asset":{
		"generator":"Khronos glTF Blender I/O v4.0.44",
		"version":"2.0"
	},
	"scene":0,
	"scenes":[
		{
			"name":"Scene",
			"nodes":[
				3
			]
		}
	],
	"nodes":[
		{
			"mesh":0,
			"name":"Wall_Plaster_Door_Flat_1-convcolonly"
		},
		{
			"mesh":1,
			"name":"Wall_Plaster_Door_Flat_2-convcolonly"
		},
		{
			"mesh":2,
			"name":"Wall_Plaster_Door_Flat_3-convcolonly"
		},
		{
			"children":[
				0,
				1,
				2
			],
			"mesh":3,
			"name":"Wall_Plaster_Door_Flat"
		}
	],
	"materials":[
		{
			"doubleSided":true,
			"name":"Collision",
			"pbrMetallicRoughness":{
				"baseColorFactor":[
					0.05868536978960037,
					0.2907957136631012,
					0.8000074625015259,
					1
				],
				"metallicFactor":0,
				"roughnessFactor":0.5
			}
		},
		{
			"doubleSided":true,
			"name":"MI_WoodTrim",
			"normalTexture":{
				"index":0
			},
			"pbrMetallicRoughness":{
				"baseColorTexture":{
					"index":1
				},
				"metallicFactor":0,
				"metallicRoughnessTexture":{
					"index":2
				}
			}
		},
		{
			"doubleSided":true,
			"name":"MI_Plaster",
			"normalTexture":{
				"index":3
			},
			"pbrMetallicRoughness":{
				"baseColorTexture":{
					"index":4
				},
				"metallicRoughnessTexture":{
					"index":5
				}
			}
		},
		{
			"doubleSided":true,
			"name":"MI_RockTrim",
			"normalTexture":{
				"index":6
			},
			"pbrMetallicRoughness":{
				"baseColorTexture":{
					"index":7
				},
				"metallicRoughnessTexture":{
					"index":8
				}
			}
		}
	],
	"meshes":[
		{
			"name":"Cube.473",
			"primitives":[
				{
					"attributes":{
						"POSITION":0,
						"NORMAL":1,
						"TEXCOORD_0":2
					},
					"indices":3,
					"material":0
				}
			]
		},
		{
			"name":"Cube.474",
			"primitives":[
				{
					"attributes":{
						"POSITION":4,
						"NORMAL":5,
						"TEXCOORD_0":6
					},
					"indices":7,
					"material":0
				}
			]
		},
		{
			"name":"Cube.475",
			"primitives":[
				{
					"attributes":{
						"POSITION":8,
						"NORMAL":9,
						"TEXCOORD_0":10
					},
					"indices":11,
					"material":0
				}
			]
		},
		{
			"name":"Cube.221",
			"primitives":[
				{
					"attributes":{
						"POSITION":12,
						"NORMAL":13,
						"TEXCOORD_0":14,
						"TEXCOORD_1":15
					},
					"indices":16,
					"material":1
				},
				{
					"attributes":{
						"POSITION":17,
						"NORMAL":18,
						"TEXCOORD_0":19,
						"TEXCOORD_1":20
					},
					"indices":21,
					"material":2
				},
				{
					"attributes":{
						"POSITION":22,
						"NORMAL":23,
						"TEXCOORD_0":24,
						"TEXCOORD_1":25
					},
					"indices":26,
					"material":3
				}
			]
		}
	],
	"textures":[
		{
			"sampler":0,
			"source":0
		},
		{
			"sampler":0,
			"source":1
		},
		{
			"sampler":0,
			"source":2
		},
		{
			"sampler":0,
			"source":3
		},
		{
			"sampler":0,
			"source":4
		},
		{
			"sampler":0,
			"source":5
		},
		{
			"sampler":0,
			"source":6
		},
		{
			"sampler":0,
			"source":7
		},
		{
			"sampler":0,
			"source":8
		}
	],
	"images":[
		{
			"mimeType":"image/png",
			"name":"T_WoodTrim_Normal",
			"uri":"T_WoodTrim_Normal.png"
		},
		{
			"mimeType":"image/png",
			"name":"T_WoodTrim_BaseColor",
			"uri":"T_WoodTrim_BaseColor.png"
		},
		{
			"mimeType":"image/png",
			"name":"T_WoodTrim_Roughness",
			"uri":"T_WoodTrim_Roughness.png"
		},
		{
			"mimeType":"image/png",
			"name":"T_Plaster_Normal",
			"uri":"T_Plaster_Normal.png"
		},
		{
			"mimeType":"image/png",
			"name":"T_Plaster_BaseColor",
			"uri":"T_Plaster_BaseColor.png"
		},
		{
			"mimeType":"image/png",
			"name":"T_Plaster_ORM",
			"uri":"T_Plaster_ORM.png"
		},
		{
			"mimeType":"image/png",
			"name":"T_RockTrim_Normal",
			"uri":"T_RockTrim_Normal.png"
		},
		{
			"mimeType":"image/png",
			"name":"T_RockTrim_BaseColor",
			"uri":"T_RockTrim_BaseColor.png"
		},
		{
			"mimeType":"image/png",
			"name":"T_RockTrim_ORM",
			"uri":"T_RockTrim_ORM.png"
		}
	],
	"accessors":[
		{
			"bufferView":0,
			"componentType":5126,
			"count":24,
			"max":[
				-0.6369142532348633,
				2.1406877040863037,
				0.10000002384185791
			],
			"min":[
				-1,
				0,
				-0.30000001192092896
			],
			"type":"VEC3"
		},
		{
			"bufferView":1,
			"componentType":5126,
			"count":24,
			"type":"VEC3"
		},
		{
			"bufferView":2,
			"componentType":5126,
			"count":24,
			"type":"VEC2"
		},
		{
			"bufferView":3,
			"componentType":5123,
			"count":36,
			"type":"SCALAR"
		},
		{
			"bufferView":4,
			"componentType":5126,
			"count":24,
			"max":[
				1,
				2.1406877040863037,
				0.10000002384185791
			],
			"min":[
				0.6369142532348633,
				0,
				-0.30000001192092896
			],
			"type":"VEC3"
		},
		{
			"bufferView":5,
			"componentType":5126,
			"count":24,
			"type":"VEC3"
		},
		{
			"bufferView":6,
			"componentType":5126,
			"count":24,
			"type":"VEC2"
		},
		{
			"bufferView":7,
			"componentType":5123,
			"count":36,
			"type":"SCALAR"
		},
		{
			"bufferView":8,
			"componentType":5126,
			"count":24,
			"max":[
				1,
				3.1000001430511475,
				0.10000002384185791
			],
			"min":[
				-1,
				2.1406877040863037,
				-0.30000001192092896
			],
			"type":"VEC3"
		},
		{
			"bufferView":9,
			"componentType":5126,
			"count":24,
			"type":"VEC3"
		},
		{
			"bufferView":10,
			"componentType":5126,
			"count":24,
			"type":"VEC2"
		},
		{
			"bufferView":11,
			"componentType":5123,
			"count":36,
			"type":"SCALAR"
		},
		{
			"bufferView":12,
			"componentType":5126,
			"count":124,
			"max":[
				1,
				3.1226887702941895,
				0.0924467146396637
			],
			"min":[
				-1.0000001192092896,
				0.6495776176452637,
				-0.3140353262424469
			],
			"type":"VEC3"
		},
		{
			"bufferView":13,
			"componentType":5126,
			"count":124,
			"type":"VEC3"
		},
		{
			"bufferView":14,
			"componentType":5126,
			"count":124,
			"type":"VEC2"
		},
		{
			"bufferView":15,
			"componentType":5126,
			"count":124,
			"type":"VEC2"
		},
		{
			"bufferView":16,
			"componentType":5123,
			"count":204,
			"type":"SCALAR"
		},
		{
			"bufferView":17,
			"componentType":5126,
			"count":24,
			"max":[
				1,
				3,
				1.3113415775478643e-07
			],
			"min":[
				-1,
				0,
				-0.2000000923871994
			],
			"type":"VEC3"
		},
		{
			"bufferView":18,
			"componentType":5126,
			"count":24,
			"type":"VEC3"
		},
		{
			"bufferView":19,
			"componentType":5126,
			"count":24,
			"type":"VEC2"
		},
		{
			"bufferView":20,
			"componentType":5126,
			"count":24,
			"type":"VEC2"
		},
		{
			"bufferView":21,
			"componentType":5123,
			"count":60,
			"type":"SCALAR"
		},
		{
			"bufferView":22,
			"componentType":5126,
			"count":8,
			"max":[
				1,
				0.8799999952316284,
				4.371138828673793e-08
			],
			"min":[
				-1,
				0,
				0
			],
			"type":"VEC3"
		},
		{
			"bufferView":23,
			"componentType":5126,
			"count":8,
			"type":"VEC3"
		},
		{
			"bufferView":24,
			"componentType":5126,
			"count":8,
			"type":"VEC2"
		},
		{
			"bufferView":25,
			"componentType":5126,
			"count":8,
			"type":"VEC2"
		},
		{
			"bufferView":26,
			"componentType":5123,
			"count":12,
			"type":"SCALAR"
		}
	],
	"bufferViews":[
		{
			"buffer":0,
			"byteLength":288,
			"byteOffset":0,
			"target":34962
		},
		{
			"buffer":0,
			"byteLength":288,
			"byteOffset":288,
			"target":34962
		},
		{
			"buffer":0,
			"byteLength":192,
			"byteOffset":576,
			"target":34962
		},
		{
			"buffer":0,
			"byteLength":72,
			"byteOffset":768,
			"target":34963
		},
		{
			"buffer":0,
			"byteLength":288,
			"byteOffset":840,
			"target":34962
		},
		{
			"buffer":0,
			"byteLength":288,
			"byteOffset":1128,
			"target":34962
		},
		{
			"buffer":0,
			"byteLength":192,
			"byteOffset":1416,
			"target":34962
		},
		{
			"buffer":0,
			"byteLength":72,
			"byteOffset":1608,
			"target":34963
		},
		{
			"buffer":0,
			"byteLength":288,
			"byteOffset":1680,
			"target":34962
		},
		{
			"buffer":0,
			"byteLength":288,
			"byteOffset":1968,
			"target":34962
		},
		{
			"buffer":0,
			"byteLength":192,
			"byteOffset":2256,
			"target":34962
		},
		{
			"buffer":0,
			"byteLength":72,
			"byteOffset":2448,
			"target":34963
		},
		{
			"buffer":0,
			"byteLength":1488,
			"byteOffset":2520,
			"target":34962
		},
		{
			"buffer":0,
			"byteLength":1488,
			"byteOffset":4008,
			"target":34962
		},
		{
			"buffer":0,
			"byteLength":992,
			"byteOffset":5496,
			"target":34962
		},
		{
			"buffer":0,
			"byteLength":992,
			"byteOffset":6488,
			"target":34962
		},
		{
			"buffer":0,
			"byteLength":408,
			"byteOffset":7480,
			"target":34963
		},
		{
			"buffer":0,
			"byteLength":288,
			"byteOffset":7888,
			"target":34962
		},
		{
			"buffer":0,
			"byteLength":288,
			"byteOffset":8176,
			"target":34962
		},
		{
			"buffer":0,
			"byteLength":192,
			"byteOffset":8464,
			"target":34962
		},
		{
			"buffer":0,
			"byteLength":192,
			"byteOffset":8656,
			"target":34962
		},
		{
			"buffer":0,
			"byteLength":120,
			"byteOffset":8848,
			"target":34963
		},
		{
			"buffer":0,
			"byteLength":96,
			"byteOffset":8968,
			"target":34962
		},
		{
			"buffer":0,
			"byteLength":96,
			"byteOffset":9064,
			"target":34962
		},
		{
			"buffer":0,
			"byteLength":64,
			"byteOffset":9160,
			"target":34962
		},
		{
			"buffer":0,
			"byteLength":64,
			"byteOffset":9224,
			"target":34962
		},
		{
			"buffer":0,
			"byteLength":24,
			"byteOffset":9288,
			"target":34963
		}
	],
	"samplers":[
		{
			"magFilter":9729,
			"minFilter":9987
		}
	],
	"buffers":[
		{
			"byteLength":9312,
			"uri":"Wall_Plaster_Door_Flat.bin"
		}
	]
}
