{
	"asset":{
		"generator":"Khronos glTF Blender I/O v4.0.44",
		"version":"2.0"
	},
	"scene":0,
	"scenes":[
		{
			"name":"Scene",
			"nodes":[
				5
			]
		}
	],
	"nodes":[
		{
			"mesh":0,
			"name":"Wall_UnevenBrick_Window_Thin_Round_1-convcolonly"
		},
		{
			"mesh":1,
			"name":"Wall_UnevenBrick_Window_Thin_Round_2-convcolonly"
		},
		{
			"mesh":2,
			"name":"Wall_UnevenBrick_Window_Thin_Round_3-convcolonly"
		},
		{
			"mesh":3,
			"name":"Wall_UnevenBrick_Window_Thin_Round_4-convcolonly"
		},
		{
			"mesh":4,
			"name":"Wall_UnevenBrick_Window_Thin_Round_5-convcolonly"
		},
		{
			"children":[
				0,
				1,
				2,
				3,
				4
			],
			"mesh":5,
			"name":"Wall_UnevenBrick_Window_Thin_Round"
		}
	],
	"materials":[
		{
			"doubleSided":true,
			"name":"Collision",
			"pbrMetallicRoughness":{
				"baseColorFactor":[
					0.05868536978960037,
					0.2907957136631012,
					0.8000074625015259,
					1
				],
				"metallicFactor":0,
				"roughnessFactor":0.5
			}
		},
		{
			"doubleSided":true,
			"name":"MI_WoodTrim",
			"normalTexture":{
				"index":0
			},
			"pbrMetallicRoughness":{
				"baseColorTexture":{
					"index":1
				},
				"metallicFactor":0,
				"metallicRoughnessTexture":{
					"index":2
				}
			}
		},
		{
			"doubleSided":true,
			"name":"MI_Plaster",
			"normalTexture":{
				"index":3
			},
			"pbrMetallicRoughness":{
				"baseColorTexture":{
					"index":4
				},
				"metallicRoughnessTexture":{
					"index":5
				}
			}
		},
		{
			"doubleSided":true,
			"name":"MI_UnevenBrick",
			"normalTexture":{
				"index":6
			},
			"pbrMetallicRoughness":{
				"baseColorTexture":{
					"index":7
				},
				"metallicFactor":0,
				"metallicRoughnessTexture":{
					"index":8
				}
			}
		}
	],
	"meshes":[
		{
			"name":"Cube.536",
			"primitives":[
				{
					"attributes":{
						"POSITION":0,
						"NORMAL":1,
						"TEXCOORD_0":2
					},
					"indices":3,
					"material":0
				}
			]
		},
		{
			"name":"Cube.537",
			"primitives":[
				{
					"attributes":{
						"POSITION":4,
						"NORMAL":5,
						"TEXCOORD_0":6
					},
					"indices":7,
					"material":0
				}
			]
		},
		{
			"name":"Cube.538",
			"primitives":[
				{
					"attributes":{
						"POSITION":8,
						"NORMAL":9,
						"TEXCOORD_0":10
					},
					"indices":11,
					"material":0
				}
			]
		},
		{
			"name":"Cube.539",
			"primitives":[
				{
					"attributes":{
						"POSITION":12,
						"NORMAL":13,
						"TEXCOORD_0":14
					},
					"indices":15,
					"material":0
				}
			]
		},
		{
			"name":"Cube.540",
			"primitives":[
				{
					"attributes":{
						"POSITION":16,
						"NORMAL":17,
						"TEXCOORD_0":18
					},
					"indices":19,
					"material":0
				}
			]
		},
		{
			"name":"Cube.123",
			"primitives":[
				{
					"attributes":{
						"POSITION":20,
						"NORMAL":21,
						"TEXCOORD_0":22,
						"TEXCOORD_1":23
					},
					"indices":24,
					"material":1
				},
				{
					"attributes":{
						"POSITION":25,
						"NORMAL":26,
						"TEXCOORD_0":27,
						"TEXCOORD_1":28
					},
					"indices":29,
					"material":2
				},
				{
					"attributes":{
						"POSITION":30,
						"NORMAL":31,
						"TEXCOORD_0":32,
						"TEXCOORD_1":33
					},
					"indices":34,
					"material":3
				}
			]
		}
	],
	"textures":[
		{
			"sampler":0,
			"source":0
		},
		{
			"sampler":0,
			"source":1
		},
		{
			"sampler":0,
			"source":2
		},
		{
			"sampler":0,
			"source":3
		},
		{
			"sampler":0,
			"source":4
		},
		{
			"sampler":0,
			"source":5
		},
		{
			"sampler":0,
			"source":6
		},
		{
			"sampler":0,
			"source":7
		},
		{
			"sampler":0,
			"source":8
		}
	],
	"images":[
		{
			"mimeType":"image/png",
			"name":"T_WoodTrim_Normal",
			"uri":"T_WoodTrim_Normal.png"
		},
		{
			"mimeType":"image/png",
			"name":"T_WoodTrim_BaseColor",
			"uri":"T_WoodTrim_BaseColor.png"
		},
		{
			"mimeType":"image/png",
			"name":"T_WoodTrim_Roughness",
			"uri":"T_WoodTrim_Roughness.png"
		},
		{
			"mimeType":"image/png",
			"name":"T_Plaster_Normal",
			"uri":"T_Plaster_Normal.png"
		},
		{
			"mimeType":"image/png",
			"name":"T_Plaster_BaseColor",
			"uri":"T_Plaster_BaseColor.png"
		},
		{
			"mimeType":"image/png",
			"name":"T_Plaster_ORM",
			"uri":"T_Plaster_ORM.png"
		},
		{
			"mimeType":"image/png",
			"name":"T_UnevenBrick_Normal",
			"uri":"T_UnevenBrick_Normal.png"
		},
		{
			"mimeType":"image/png",
			"name":"T_UnevenBrick_BaseColor",
			"uri":"T_UnevenBrick_BaseColor.png"
		},
		{
			"mimeType":"image/png",
			"name":"T_UnevenBrick_Roughness",
			"uri":"T_UnevenBrick_Roughness.png"
		}
	],
	"accessors":[
		{
			"bufferView":0,
			"componentType":5126,
			"count":24,
			"max":[
				1,
				1.0417976379394531,
				0.10000002384185791
			],
			"min":[
				-1,
				0,
				-0.30000001192092896
			],
			"type":"VEC3"
		},
		{
			"bufferView":1,
			"componentType":5126,
			"count":24,
			"type":"VEC3"
		},
		{
			"bufferView":2,
			"componentType":5126,
			"count":24,
			"type":"VEC2"
		},
		{
			"bufferView":3,
			"componentType":5123,
			"count":36,
			"type":"SCALAR"
		},
		{
			"bufferView":4,
			"componentType":5126,
			"count":34,
			"max":[
				0,
				3.1000001430511475,
				0.10000002384185791
			],
			"min":[
				-1,
				2.316228151321411,
				-0.30000001192092896
			],
			"type":"VEC3"
		},
		{
			"bufferView":5,
			"componentType":5126,
			"count":34,
			"type":"VEC3"
		},
		{
			"bufferView":6,
			"componentType":5126,
			"count":34,
			"type":"VEC2"
		},
		{
			"bufferView":7,
			"componentType":5123,
			"count":60,
			"type":"SCALAR"
		},
		{
			"bufferView":8,
			"componentType":5126,
			"count":24,
			"max":[
				1,
				2.316228151321411,
				0.10000002384185791
			],
			"min":[
				0.32315778732299805,
				1.035233497619629,
				-0.30000001192092896
			],
			"type":"VEC3"
		},
		{
			"bufferView":9,
			"componentType":5126,
			"count":24,
			"type":"VEC3"
		},
		{
			"bufferView":10,
			"componentType":5126,
			"count":24,
			"type":"VEC2"
		},
		{
			"bufferView":11,
			"componentType":5123,
			"count":36,
			"type":"SCALAR"
		},
		{
			"bufferView":12,
			"componentType":5126,
			"count":24,
			"max":[
				-0.3231578469276428,
				2.316228151321411,
				0.10000002384185791
			],
			"min":[
				-1,
				1.035233497619629,
				-0.30000001192092896
			],
			"type":"VEC3"
		},
		{
			"bufferView":13,
			"componentType":5126,
			"count":24,
			"type":"VEC3"
		},
		{
			"bufferView":14,
			"componentType":5126,
			"count":24,
			"type":"VEC2"
		},
		{
			"bufferView":15,
			"componentType":5123,
			"count":36,
			"type":"SCALAR"
		},
		{
			"bufferView":16,
			"componentType":5126,
			"count":34,
			"max":[
				1,
				3.1000001430511475,
				0.10000002384185791
			],
			"min":[
				0,
				2.316228151321411,
				-0.30000001192092896
			],
			"type":"VEC3"
		},
		{
			"bufferView":17,
			"componentType":5126,
			"count":34,
			"type":"VEC3"
		},
		{
			"bufferView":18,
			"componentType":5126,
			"count":34,
			"type":"VEC2"
		},
		{
			"bufferView":19,
			"componentType":5123,
			"count":60,
			"type":"SCALAR"
		},
		{
			"bufferView":20,
			"componentType":5126,
			"count":64,
			"max":[
				1,
				3.1226887702941895,
				0.09244640171527863
			],
			"min":[
				-1.0000001192092896,
				2.877309799194336,
				-0.3140353262424469
			],
			"type":"VEC3"
		},
		{
			"bufferView":21,
			"componentType":5126,
			"count":64,
			"type":"VEC3"
		},
		{
			"bufferView":22,
			"componentType":5126,
			"count":64,
			"type":"VEC2"
		},
		{
			"bufferView":23,
			"componentType":5126,
			"count":64,
			"type":"VEC2"
		},
		{
			"bufferView":24,
			"componentType":5123,
			"count":150,
			"type":"SCALAR"
		},
		{
			"bufferView":25,
			"componentType":5126,
			"count":44,
			"max":[
				1,
				3,
				-0.19999991357326508
			],
			"min":[
				-1,
				0,
				-0.2000000923871994
			],
			"type":"VEC3"
		},
		{
			"bufferView":26,
			"componentType":5126,
			"count":44,
			"type":"VEC3"
		},
		{
			"bufferView":27,
			"componentType":5126,
			"count":44,
			"type":"VEC2"
		},
		{
			"bufferView":28,
			"componentType":5126,
			"count":44,
			"type":"VEC2"
		},
		{
			"bufferView":29,
			"componentType":5123,
			"count":132,
			"type":"SCALAR"
		},
		{
			"bufferView":30,
			"componentType":5126,
			"count":57,
			"max":[
				1,
				3,
				1.3113415775478643e-07
			],
			"min":[
				-1,
				0,
				0
			],
			"type":"VEC3"
		},
		{
			"bufferView":31,
			"componentType":5126,
			"count":57,
			"type":"VEC3"
		},
		{
			"bufferView":32,
			"componentType":5126,
			"count":57,
			"type":"VEC2"
		},
		{
			"bufferView":33,
			"componentType":5126,
			"count":57,
			"type":"VEC2"
		},
		{
			"bufferView":34,
			"componentType":5123,
			"count":192,
			"type":"SCALAR"
		}
	],
	"bufferViews":[
		{
			"buffer":0,
			"byteLength":288,
			"byteOffset":0,
			"target":34962
		},
		{
			"buffer":0,
			"byteLength":288,
			"byteOffset":288,
			"target":34962
		},
		{
			"buffer":0,
			"byteLength":192,
			"byteOffset":576,
			"target":34962
		},
		{
			"buffer":0,
			"byteLength":72,
			"byteOffset":768,
			"target":34963
		},
		{
			"buffer":0,
			"byteLength":408,
			"byteOffset":840,
			"target":34962
		},
		{
			"buffer":0,
			"byteLength":408,
			"byteOffset":1248,
			"target":34962
		},
		{
			"buffer":0,
			"byteLength":272,
			"byteOffset":1656,
			"target":34962
		},
		{
			"buffer":0,
			"byteLength":120,
			"byteOffset":1928,
			"target":34963
		},
		{
			"buffer":0,
			"byteLength":288,
			"byteOffset":2048,
			"target":34962
		},
		{
			"buffer":0,
			"byteLength":288,
			"byteOffset":2336,
			"target":34962
		},
		{
			"buffer":0,
			"byteLength":192,
			"byteOffset":2624,
			"target":34962
		},
		{
			"buffer":0,
			"byteLength":72,
			"byteOffset":2816,
			"target":34963
		},
		{
			"buffer":0,
			"byteLength":288,
			"byteOffset":2888,
			"target":34962
		},
		{
			"buffer":0,
			"byteLength":288,
			"byteOffset":3176,
			"target":34962
		},
		{
			"buffer":0,
			"byteLength":192,
			"byteOffset":3464,
			"target":34962
		},
		{
			"buffer":0,
			"byteLength":72,
			"byteOffset":3656,
			"target":34963
		},
		{
			"buffer":0,
			"byteLength":408,
			"byteOffset":3728,
			"target":34962
		},
		{
			"buffer":0,
			"byteLength":408,
			"byteOffset":4136,
			"target":34962
		},
		{
			"buffer":0,
			"byteLength":272,
			"byteOffset":4544,
			"target":34962
		},
		{
			"buffer":0,
			"byteLength":120,
			"byteOffset":4816,
			"target":34963
		},
		{
			"buffer":0,
			"byteLength":768,
			"byteOffset":4936,
			"target":34962
		},
		{
			"buffer":0,
			"byteLength":768,
			"byteOffset":5704,
			"target":34962
		},
		{
			"buffer":0,
			"byteLength":512,
			"byteOffset":6472,
			"target":34962
		},
		{
			"buffer":0,
			"byteLength":512,
			"byteOffset":6984,
			"target":34962
		},
		{
			"buffer":0,
			"byteLength":300,
			"byteOffset":7496,
			"target":34963
		},
		{
			"buffer":0,
			"byteLength":528,
			"byteOffset":7796,
			"target":34962
		},
		{
			"buffer":0,
			"byteLength":528,
			"byteOffset":8324,
			"target":34962
		},
		{
			"buffer":0,
			"byteLength":352,
			"byteOffset":8852,
			"target":34962
		},
		{
			"buffer":0,
			"byteLength":352,
			"byteOffset":9204,
			"target":34962
		},
		{
			"buffer":0,
			"byteLength":264,
			"byteOffset":9556,
			"target":34963
		},
		{
			"buffer":0,
			"byteLength":684,
			"byteOffset":9820,
			"target":34962
		},
		{
			"buffer":0,
			"byteLength":684,
			"byteOffset":10504,
			"target":34962
		},
		{
			"buffer":0,
			"byteLength":456,
			"byteOffset":11188,
			"target":34962
		},
		{
			"buffer":0,
			"byteLength":456,
			"byteOffset":11644,
			"target":34962
		},
		{
			"buffer":0,
			"byteLength":384,
			"byteOffset":12100,
			"target":34963
		}
	],
	"samplers":[
		{
			"magFilter":9729,
			"minFilter":9987
		}
	],
	"buffers":[
		{
			"byteLength":12484,
			"uri":"Wall_UnevenBrick_Window_Thin_Round.bin"
		}
	]
}
