{
	"asset":{
		"generator":"Khronos glTF Blender I/O v4.0.44",
		"version":"2.0"
	},
	"scene":0,
	"scenes":[
		{
			"name":"Scene",
			"nodes":[
				1
			]
		}
	],
	"nodes":[
		{
			"mesh":0,
			"name":"Wall_Plaster_Straight_1-convcolonly"
		},
		{
			"children":[
				0
			],
			"mesh":1,
			"name":"Wall_Plaster_Straight"
		}
	],
	"materials":[
		{
			"doubleSided":true,
			"name":"Collision",
			"pbrMetallicRoughness":{
				"baseColorFactor":[
					0.05868536978960037,
					0.2907957136631012,
					0.8000074625015259,
					1
				],
				"metallicFactor":0,
				"roughnessFactor":0.5
			}
		},
		{
			"doubleSided":true,
			"name":"MI_WoodTrim",
			"normalTexture":{
				"index":0
			},
			"pbrMetallicRoughness":{
				"baseColorTexture":{
					"index":1
				},
				"metallicFactor":0,
				"metallicRoughnessTexture":{
					"index":2
				}
			}
		},
		{
			"doubleSided":true,
			"name":"MI_Plaster",
			"normalTexture":{
				"index":3
			},
			"pbrMetallicRoughness":{
				"baseColorTexture":{
					"index":4
				},
				"metallicRoughnessTexture":{
					"index":5
				}
			}
		}
	],
	"meshes":[
		{
			"name":"Cube.466",
			"primitives":[
				{
					"attributes":{
						"POSITION":0,
						"NORMAL":1,
						"TEXCOORD_0":2
					},
					"indices":3,
					"material":0
				}
			]
		},
		{
			"name":"Cube.027",
			"primitives":[
				{
					"attributes":{
						"POSITION":4,
						"NORMAL":5,
						"TEXCOORD_0":6,
						"TEXCOORD_1":7
					},
					"indices":8,
					"material":1
				},
				{
					"attributes":{
						"POSITION":9,
						"NORMAL":10,
						"TEXCOORD_0":11,
						"TEXCOORD_1":12
					},
					"indices":13,
					"material":2
				}
			]
		}
	],
	"textures":[
		{
			"sampler":0,
			"source":0
		},
		{
			"sampler":0,
			"source":1
		},
		{
			"sampler":0,
			"source":2
		},
		{
			"sampler":0,
			"source":3
		},
		{
			"sampler":0,
			"source":4
		},
		{
			"sampler":0,
			"source":5
		}
	],
	"images":[
		{
			"mimeType":"image/png",
			"name":"T_WoodTrim_Normal",
			"uri":"T_WoodTrim_Normal.png"
		},
		{
			"mimeType":"image/png",
			"name":"T_WoodTrim_BaseColor",
			"uri":"T_WoodTrim_BaseColor.png"
		},
		{
			"mimeType":"image/png",
			"name":"T_WoodTrim_Roughness",
			"uri":"T_WoodTrim_Roughness.png"
		},
		{
			"mimeType":"image/png",
			"name":"T_Plaster_Normal",
			"uri":"T_Plaster_Normal.png"
		},
		{
			"mimeType":"image/png",
			"name":"T_Plaster_BaseColor",
			"uri":"T_Plaster_BaseColor.png"
		},
		{
			"mimeType":"image/png",
			"name":"T_Plaster_ORM",
			"uri":"T_Plaster_ORM.png"
		}
	],
	"accessors":[
		{
			"bufferView":0,
			"componentType":5126,
			"count":24,
			"max":[
				1,
				3.1000001430511475,
				0.10000002384185791
			],
			"min":[
				-1,
				0,
				-0.30000001192092896
			],
			"type":"VEC3"
		},
		{
			"bufferView":1,
			"componentType":5126,
			"count":24,
			"type":"VEC3"
		},
		{
			"bufferView":2,
			"componentType":5126,
			"count":24,
			"type":"VEC2"
		},
		{
			"bufferView":3,
			"componentType":5123,
			"count":36,
			"type":"SCALAR"
		},
		{
			"bufferView":4,
			"componentType":5126,
			"count":122,
			"max":[
				1,
				3.1226887702941895,
				0.0924467146396637
			],
			"min":[
				-1.0000001192092896,
				-0.0020958781242370605,
				-0.3140353262424469
			],
			"type":"VEC3"
		},
		{
			"bufferView":5,
			"componentType":5126,
			"count":122,
			"type":"VEC3"
		},
		{
			"bufferView":6,
			"componentType":5126,
			"count":122,
			"type":"VEC2"
		},
		{
			"bufferView":7,
			"componentType":5126,
			"count":122,
			"type":"VEC2"
		},
		{
			"bufferView":8,
			"componentType":5123,
			"count":240,
			"type":"SCALAR"
		},
		{
			"bufferView":9,
			"componentType":5126,
			"count":12,
			"max":[
				1,
				3,
				1.3113415775478643e-07
			],
			"min":[
				-1,
				0,
				-0.2000000923871994
			],
			"type":"VEC3"
		},
		{
			"bufferView":10,
			"componentType":5126,
			"count":12,
			"type":"VEC3"
		},
		{
			"bufferView":11,
			"componentType":5126,
			"count":12,
			"type":"VEC2"
		},
		{
			"bufferView":12,
			"componentType":5126,
			"count":12,
			"type":"VEC2"
		},
		{
			"bufferView":13,
			"componentType":5123,
			"count":18,
			"type":"SCALAR"
		}
	],
	"bufferViews":[
		{
			"buffer":0,
			"byteLength":288,
			"byteOffset":0,
			"target":34962
		},
		{
			"buffer":0,
			"byteLength":288,
			"byteOffset":288,
			"target":34962
		},
		{
			"buffer":0,
			"byteLength":192,
			"byteOffset":576,
			"target":34962
		},
		{
			"buffer":0,
			"byteLength":72,
			"byteOffset":768,
			"target":34963
		},
		{
			"buffer":0,
			"byteLength":1464,
			"byteOffset":840,
			"target":34962
		},
		{
			"buffer":0,
			"byteLength":1464,
			"byteOffset":2304,
			"target":34962
		},
		{
			"buffer":0,
			"byteLength":976,
			"byteOffset":3768,
			"target":34962
		},
		{
			"buffer":0,
			"byteLength":976,
			"byteOffset":4744,
			"target":34962
		},
		{
			"buffer":0,
			"byteLength":480,
			"byteOffset":5720,
			"target":34963
		},
		{
			"buffer":0,
			"byteLength":144,
			"byteOffset":6200,
			"target":34962
		},
		{
			"buffer":0,
			"byteLength":144,
			"byteOffset":6344,
			"target":34962
		},
		{
			"buffer":0,
			"byteLength":96,
			"byteOffset":6488,
			"target":34962
		},
		{
			"buffer":0,
			"byteLength":96,
			"byteOffset":6584,
			"target":34962
		},
		{
			"buffer":0,
			"byteLength":36,
			"byteOffset":6680,
			"target":34963
		}
	],
	"samplers":[
		{
			"magFilter":9729,
			"minFilter":9987
		}
	],
	"buffers":[
		{
			"byteLength":6716,
			"uri":"Wall_Plaster_Straight.bin"
		}
	]
}
