{
	"asset":{
		"generator":"Khronos glTF Blender I/O v4.0.44",
		"version":"2.0"
	},
	"scene":0,
	"scenes":[
		{
			"name":"Scene",
			"nodes":[
				1
			]
		}
	],
	"nodes":[
		{
			"mesh":0,
			"name":"Wall_WoodBrick_Straight_1-convcolonly"
		},
		{
			"children":[
				0
			],
			"mesh":1,
			"name":"Wall_WoodBrick_Straight"
		}
	],
	"materials":[
		{
			"doubleSided":true,
			"name":"Collision",
			"pbrMetallicRoughness":{
				"baseColorFactor":[
					0.05868536978960037,
					0.2907957136631012,
					0.8000074625015259,
					1
				],
				"metallicFactor":0,
				"roughnessFactor":0.5
			}
		},
		{
			"doubleSided":true,
			"name":"MI_WoodTrim_Wear",
			"normalTexture":{
				"index":0
			},
			"pbrMetallicRoughness":{
				"baseColorTexture":{
					"index":1
				},
				"metallicFactor":0,
				"metallicRoughnessTexture":{
					"index":2
				}
			}
		},
		{
			"doubleSided":true,
			"name":"MI_WoodTrim",
			"normalTexture":{
				"index":3
			},
			"pbrMetallicRoughness":{
				"baseColorTexture":{
					"index":4
				},
				"metallicFactor":0,
				"metallicRoughnessTexture":{
					"index":5
				}
			}
		},
		{
			"doubleSided":true,
			"name":"MI_UnevenBrick",
			"normalTexture":{
				"index":6
			},
			"pbrMetallicRoughness":{
				"baseColorTexture":{
					"index":7
				},
				"metallicFactor":0,
				"metallicRoughnessTexture":{
					"index":8
				}
			}
		},
		{
			"doubleSided":true,
			"name":"MI_Plaster",
			"normalTexture":{
				"index":9
			},
			"pbrMetallicRoughness":{
				"baseColorTexture":{
					"index":10
				},
				"metallicRoughnessTexture":{
					"index":11
				}
			}
		}
	],
	"meshes":[
		{
			"name":"Cube.471",
			"primitives":[
				{
					"attributes":{
						"POSITION":0,
						"NORMAL":1,
						"TEXCOORD_0":2
					},
					"indices":3,
					"material":0
				}
			]
		},
		{
			"name":"Plane.051",
			"primitives":[
				{
					"attributes":{
						"POSITION":4,
						"NORMAL":5,
						"TEXCOORD_0":6,
						"TEXCOORD_1":7
					},
					"indices":8,
					"material":1
				},
				{
					"attributes":{
						"POSITION":9,
						"NORMAL":10,
						"TEXCOORD_0":11,
						"TEXCOORD_1":12
					},
					"indices":13,
					"material":2
				},
				{
					"attributes":{
						"POSITION":14,
						"NORMAL":15,
						"TEXCOORD_0":16,
						"TEXCOORD_1":17
					},
					"indices":18,
					"material":3
				},
				{
					"attributes":{
						"POSITION":19,
						"NORMAL":20,
						"TEXCOORD_0":21,
						"TEXCOORD_1":22
					},
					"indices":23,
					"material":4
				}
			]
		}
	],
	"textures":[
		{
			"sampler":0,
			"source":0
		},
		{
			"sampler":0,
			"source":1
		},
		{
			"sampler":0,
			"source":2
		},
		{
			"sampler":0,
			"source":0
		},
		{
			"sampler":0,
			"source":1
		},
		{
			"sampler":0,
			"source":2
		},
		{
			"sampler":0,
			"source":3
		},
		{
			"sampler":0,
			"source":4
		},
		{
			"sampler":0,
			"source":5
		},
		{
			"sampler":0,
			"source":6
		},
		{
			"sampler":0,
			"source":7
		},
		{
			"sampler":0,
			"source":8
		}
	],
	"images":[
		{
			"mimeType":"image/png",
			"name":"T_WoodTrim_Normal",
			"uri":"T_WoodTrim_Normal.png"
		},
		{
			"mimeType":"image/png",
			"name":"T_WoodTrim_BaseColor",
			"uri":"T_WoodTrim_BaseColor.png"
		},
		{
			"mimeType":"image/png",
			"name":"T_WoodTrim_Roughness",
			"uri":"T_WoodTrim_Roughness.png"
		},
		{
			"mimeType":"image/png",
			"name":"T_UnevenBrick_Normal",
			"uri":"T_UnevenBrick_Normal.png"
		},
		{
			"mimeType":"image/png",
			"name":"T_UnevenBrick_BaseColor",
			"uri":"T_UnevenBrick_BaseColor.png"
		},
		{
			"mimeType":"image/png",
			"name":"T_UnevenBrick_Roughness",
			"uri":"T_UnevenBrick_Roughness.png"
		},
		{
			"mimeType":"image/png",
			"name":"T_Plaster_Normal",
			"uri":"T_Plaster_Normal.png"
		},
		{
			"mimeType":"image/png",
			"name":"T_Plaster_BaseColor",
			"uri":"T_Plaster_BaseColor.png"
		},
		{
			"mimeType":"image/png",
			"name":"T_Plaster_ORM",
			"uri":"T_Plaster_ORM.png"
		}
	],
	"accessors":[
		{
			"bufferView":0,
			"componentType":5126,
			"count":24,
			"max":[
				1,
				3.1000001430511475,
				0.10000002384185791
			],
			"min":[
				-1,
				0,
				-0.30000001192092896
			],
			"type":"VEC3"
		},
		{
			"bufferView":1,
			"componentType":5126,
			"count":24,
			"type":"VEC3"
		},
		{
			"bufferView":2,
			"componentType":5126,
			"count":24,
			"type":"VEC2"
		},
		{
			"bufferView":3,
			"componentType":5123,
			"count":36,
			"type":"SCALAR"
		},
		{
			"bufferView":4,
			"componentType":5126,
			"count":96,
			"max":[
				1.000000238418579,
				0.8310797214508057,
				0.03513365983963013
			],
			"min":[
				-0.9999999403953552,
				-1.9470715528768778e-07,
				-1.3583529323568655e-07
			],
			"type":"VEC3"
		},
		{
			"bufferView":5,
			"componentType":5126,
			"count":96,
			"type":"VEC3"
		},
		{
			"bufferView":6,
			"componentType":5126,
			"count":96,
			"type":"VEC2"
		},
		{
			"bufferView":7,
			"componentType":5126,
			"count":96,
			"type":"VEC2"
		},
		{
			"bufferView":8,
			"componentType":5123,
			"count":144,
			"type":"SCALAR"
		},
		{
			"bufferView":9,
			"componentType":5126,
			"count":80,
			"max":[
				1,
				3.1226887702941895,
				0.09244657307863235
			],
			"min":[
				-1.0000001192092896,
				0.6495776176452637,
				-0.3140353262424469
			],
			"type":"VEC3"
		},
		{
			"bufferView":10,
			"componentType":5126,
			"count":80,
			"type":"VEC3"
		},
		{
			"bufferView":11,
			"componentType":5126,
			"count":80,
			"type":"VEC2"
		},
		{
			"bufferView":12,
			"componentType":5126,
			"count":80,
			"type":"VEC2"
		},
		{
			"bufferView":13,
			"componentType":5123,
			"count":174,
			"type":"SCALAR"
		},
		{
			"bufferView":14,
			"componentType":5126,
			"count":4,
			"max":[
				1,
				3,
				-9.965879854689774e-08
			],
			"min":[
				-1,
				0.8799999952316284,
				-3.576278402306343e-07
			],
			"type":"VEC3"
		},
		{
			"bufferView":15,
			"componentType":5126,
			"count":4,
			"type":"VEC3"
		},
		{
			"bufferView":16,
			"componentType":5126,
			"count":4,
			"type":"VEC2"
		},
		{
			"bufferView":17,
			"componentType":5126,
			"count":4,
			"type":"VEC2"
		},
		{
			"bufferView":18,
			"componentType":5123,
			"count":6,
			"type":"SCALAR"
		},
		{
			"bufferView":19,
			"componentType":5126,
			"count":4,
			"max":[
				1,
				3,
				-0.2000000923871994
			],
			"min":[
				-1,
				-3.258415048890129e-08,
				-0.20000040531158447
			],
			"type":"VEC3"
		},
		{
			"bufferView":20,
			"componentType":5126,
			"count":4,
			"type":"VEC3"
		},
		{
			"bufferView":21,
			"componentType":5126,
			"count":4,
			"type":"VEC2"
		},
		{
			"bufferView":22,
			"componentType":5126,
			"count":4,
			"type":"VEC2"
		},
		{
			"bufferView":23,
			"componentType":5123,
			"count":6,
			"type":"SCALAR"
		}
	],
	"bufferViews":[
		{
			"buffer":0,
			"byteLength":288,
			"byteOffset":0,
			"target":34962
		},
		{
			"buffer":0,
			"byteLength":288,
			"byteOffset":288,
			"target":34962
		},
		{
			"buffer":0,
			"byteLength":192,
			"byteOffset":576,
			"target":34962
		},
		{
			"buffer":0,
			"byteLength":72,
			"byteOffset":768,
			"target":34963
		},
		{
			"buffer":0,
			"byteLength":1152,
			"byteOffset":840,
			"target":34962
		},
		{
			"buffer":0,
			"byteLength":1152,
			"byteOffset":1992,
			"target":34962
		},
		{
			"buffer":0,
			"byteLength":768,
			"byteOffset":3144,
			"target":34962
		},
		{
			"buffer":0,
			"byteLength":768,
			"byteOffset":3912,
			"target":34962
		},
		{
			"buffer":0,
			"byteLength":288,
			"byteOffset":4680,
			"target":34963
		},
		{
			"buffer":0,
			"byteLength":960,
			"byteOffset":4968,
			"target":34962
		},
		{
			"buffer":0,
			"byteLength":960,
			"byteOffset":5928,
			"target":34962
		},
		{
			"buffer":0,
			"byteLength":640,
			"byteOffset":6888,
			"target":34962
		},
		{
			"buffer":0,
			"byteLength":640,
			"byteOffset":7528,
			"target":34962
		},
		{
			"buffer":0,
			"byteLength":348,
			"byteOffset":8168,
			"target":34963
		},
		{
			"buffer":0,
			"byteLength":48,
			"byteOffset":8516,
			"target":34962
		},
		{
			"buffer":0,
			"byteLength":48,
			"byteOffset":8564,
			"target":34962
		},
		{
			"buffer":0,
			"byteLength":32,
			"byteOffset":8612,
			"target":34962
		},
		{
			"buffer":0,
			"byteLength":32,
			"byteOffset":8644,
			"target":34962
		},
		{
			"buffer":0,
			"byteLength":12,
			"byteOffset":8676,
			"target":34963
		},
		{
			"buffer":0,
			"byteLength":48,
			"byteOffset":8688,
			"target":34962
		},
		{
			"buffer":0,
			"byteLength":48,
			"byteOffset":8736,
			"target":34962
		},
		{
			"buffer":0,
			"byteLength":32,
			"byteOffset":8784,
			"target":34962
		},
		{
			"buffer":0,
			"byteLength":32,
			"byteOffset":8816,
			"target":34962
		},
		{
			"buffer":0,
			"byteLength":12,
			"byteOffset":8848,
			"target":34963
		}
	],
	"samplers":[
		{
			"magFilter":9729,
			"minFilter":9987
		}
	],
	"buffers":[
		{
			"byteLength":8860,
			"uri":"Wall_WoodBrick_Straight.bin"
		}
	]
}
