{
	"asset":{
		"generator":"Khronos glTF Blender I/O v4.0.44",
		"version":"2.0"
	},
	"scene":0,
	"scenes":[
		{
			"name":"Scene",
			"nodes":[
				12
			]
		}
	],
	"nodes":[
		{
			"mesh":0,
			"name":"Wall_Plaster_Door_RoundInset_1-convcolonly"
		},
		{
			"mesh":1,
			"name":"Wall_Plaster_Door_RoundInset_10-convcolonly"
		},
		{
			"mesh":2,
			"name":"Wall_Plaster_Door_RoundInset_11-convcolonly"
		},
		{
			"mesh":3,
			"name":"Wall_Plaster_Door_RoundInset_12-convcolonly"
		},
		{
			"mesh":4,
			"name":"Wall_Plaster_Door_RoundInset_2-convcolonly"
		},
		{
			"mesh":5,
			"name":"Wall_Plaster_Door_RoundInset_3-convcolonly"
		},
		{
			"mesh":6,
			"name":"Wall_Plaster_Door_RoundInset_4-convcolonly"
		},
		{
			"mesh":7,
			"name":"Wall_Plaster_Door_RoundInset_5-convcolonly"
		},
		{
			"mesh":8,
			"name":"Wall_Plaster_Door_RoundInset_6-convcolonly"
		},
		{
			"mesh":9,
			"name":"Wall_Plaster_Door_RoundInset_7-convcolonly"
		},
		{
			"mesh":10,
			"name":"Wall_Plaster_Door_RoundInset_8-convcolonly"
		},
		{
			"mesh":11,
			"name":"Wall_Plaster_Door_RoundInset_9-convcolonly"
		},
		{
			"children":[
				0,
				1,
				2,
				3,
				4,
				5,
				6,
				7,
				8,
				9,
				10,
				11
			],
			"mesh":12,
			"name":"Wall_Plaster_Door_RoundInset"
		}
	],
	"materials":[
		{
			"doubleSided":true,
			"name":"Collision",
			"pbrMetallicRoughness":{
				"baseColorFactor":[
					0.05868536978960037,
					0.2907957136631012,
					0.8000074625015259,
					1
				],
				"metallicFactor":0,
				"roughnessFactor":0.5
			}
		},
		{
			"doubleSided":true,
			"name":"MI_WoodTrim",
			"normalTexture":{
				"index":0
			},
			"pbrMetallicRoughness":{
				"baseColorTexture":{
					"index":1
				},
				"metallicFactor":0,
				"metallicRoughnessTexture":{
					"index":2
				}
			}
		},
		{
			"doubleSided":true,
			"name":"MI_Plaster",
			"normalTexture":{
				"index":3
			},
			"pbrMetallicRoughness":{
				"baseColorTexture":{
					"index":4
				},
				"metallicRoughnessTexture":{
					"index":5
				}
			}
		},
		{
			"doubleSided":true,
			"name":"MI_RockTrim",
			"normalTexture":{
				"index":6
			},
			"pbrMetallicRoughness":{
				"baseColorTexture":{
					"index":7
				},
				"metallicRoughnessTexture":{
					"index":8
				}
			}
		}
	],
	"meshes":[
		{
			"name":"Cube.575",
			"primitives":[
				{
					"attributes":{
						"POSITION":0,
						"NORMAL":1,
						"TEXCOORD_0":2
					},
					"indices":3,
					"material":0
				}
			]
		},
		{
			"name":"Cube.584",
			"primitives":[
				{
					"attributes":{
						"POSITION":4,
						"NORMAL":5,
						"TEXCOORD_0":6
					},
					"indices":7,
					"material":0
				}
			]
		},
		{
			"name":"Cube.585",
			"primitives":[
				{
					"attributes":{
						"POSITION":8,
						"NORMAL":9,
						"TEXCOORD_0":10
					},
					"indices":11,
					"material":0
				}
			]
		},
		{
			"name":"Cube.586",
			"primitives":[
				{
					"attributes":{
						"POSITION":12,
						"NORMAL":13,
						"TEXCOORD_0":14
					},
					"indices":15,
					"material":0
				}
			]
		},
		{
			"name":"Cube.576",
			"primitives":[
				{
					"attributes":{
						"POSITION":16,
						"NORMAL":17,
						"TEXCOORD_0":18
					},
					"indices":19,
					"material":0
				}
			]
		},
		{
			"name":"Cube.577",
			"primitives":[
				{
					"attributes":{
						"POSITION":20,
						"NORMAL":21,
						"TEXCOORD_0":22
					},
					"indices":23,
					"material":0
				}
			]
		},
		{
			"name":"Cube.578",
			"primitives":[
				{
					"attributes":{
						"POSITION":24,
						"NORMAL":25,
						"TEXCOORD_0":26
					},
					"indices":27,
					"material":0
				}
			]
		},
		{
			"name":"Cube.579",
			"primitives":[
				{
					"attributes":{
						"POSITION":28,
						"NORMAL":29,
						"TEXCOORD_0":30
					},
					"indices":31,
					"material":0
				}
			]
		},
		{
			"name":"Cube.580",
			"primitives":[
				{
					"attributes":{
						"POSITION":32,
						"NORMAL":33,
						"TEXCOORD_0":34
					},
					"indices":15,
					"material":0
				}
			]
		},
		{
			"name":"Cube.581",
			"primitives":[
				{
					"attributes":{
						"POSITION":35,
						"NORMAL":36,
						"TEXCOORD_0":37
					},
					"indices":38,
					"material":0
				}
			]
		},
		{
			"name":"Cube.582",
			"primitives":[
				{
					"attributes":{
						"POSITION":39,
						"NORMAL":40,
						"TEXCOORD_0":41
					},
					"indices":19,
					"material":0
				}
			]
		},
		{
			"name":"Cube.583",
			"primitives":[
				{
					"attributes":{
						"POSITION":42,
						"NORMAL":43,
						"TEXCOORD_0":44
					},
					"indices":45,
					"material":0
				}
			]
		},
		{
			"name":"Cube.038",
			"primitives":[
				{
					"attributes":{
						"POSITION":46,
						"NORMAL":47,
						"TEXCOORD_0":48,
						"TEXCOORD_1":49
					},
					"indices":50,
					"material":1
				},
				{
					"attributes":{
						"POSITION":51,
						"NORMAL":52,
						"TEXCOORD_0":53,
						"TEXCOORD_1":54
					},
					"indices":55,
					"material":2
				},
				{
					"attributes":{
						"POSITION":56,
						"NORMAL":57,
						"TEXCOORD_0":58,
						"TEXCOORD_1":59
					},
					"indices":60,
					"material":3
				}
			]
		}
	],
	"textures":[
		{
			"sampler":0,
			"source":0
		},
		{
			"sampler":0,
			"source":1
		},
		{
			"sampler":0,
			"source":2
		},
		{
			"sampler":0,
			"source":3
		},
		{
			"sampler":0,
			"source":4
		},
		{
			"sampler":0,
			"source":5
		},
		{
			"sampler":0,
			"source":6
		},
		{
			"sampler":0,
			"source":7
		},
		{
			"sampler":0,
			"source":8
		}
	],
	"images":[
		{
			"mimeType":"image/png",
			"name":"T_WoodTrim_Normal",
			"uri":"T_WoodTrim_Normal.png"
		},
		{
			"mimeType":"image/png",
			"name":"T_WoodTrim_BaseColor",
			"uri":"T_WoodTrim_BaseColor.png"
		},
		{
			"mimeType":"image/png",
			"name":"T_WoodTrim_Roughness",
			"uri":"T_WoodTrim_Roughness.png"
		},
		{
			"mimeType":"image/png",
			"name":"T_Plaster_Normal",
			"uri":"T_Plaster_Normal.png"
		},
		{
			"mimeType":"image/png",
			"name":"T_Plaster_BaseColor",
			"uri":"T_Plaster_BaseColor.png"
		},
		{
			"mimeType":"image/png",
			"name":"T_Plaster_ORM",
			"uri":"T_Plaster_ORM.png"
		},
		{
			"mimeType":"image/png",
			"name":"T_RockTrim_Normal",
			"uri":"T_RockTrim_Normal.png"
		},
		{
			"mimeType":"image/png",
			"name":"T_RockTrim_BaseColor",
			"uri":"T_RockTrim_BaseColor.png"
		},
		{
			"mimeType":"image/png",
			"name":"T_RockTrim_ORM",
			"uri":"T_RockTrim_ORM.png"
		}
	],
	"accessors":[
		{
			"bufferView":0,
			"componentType":5126,
			"count":24,
			"max":[
				-0.6369142532348633,
				2.1406877040863037,
				0.10000002384185791
			],
			"min":[
				-1,
				0,
				-0.30000001192092896
			],
			"type":"VEC3"
		},
		{
			"bufferView":1,
			"componentType":5126,
			"count":24,
			"type":"VEC3"
		},
		{
			"bufferView":2,
			"componentType":5126,
			"count":24,
			"type":"VEC2"
		},
		{
			"bufferView":3,
			"componentType":5123,
			"count":36,
			"type":"SCALAR"
		},
		{
			"bufferView":4,
			"componentType":5126,
			"count":24,
			"max":[
				0.6376193165779114,
				2.4783084392547607,
				-0.29999998211860657
			],
			"min":[
				0.3188096582889557,
				2.1406877040863037,
				-0.9999998807907104
			],
			"type":"VEC3"
		},
		{
			"bufferView":5,
			"componentType":5126,
			"count":24,
			"type":"VEC3"
		},
		{
			"bufferView":6,
			"componentType":5126,
			"count":24,
			"type":"VEC2"
		},
		{
			"bufferView":7,
			"componentType":5123,
			"count":36,
			"type":"SCALAR"
		},
		{
			"bufferView":8,
			"componentType":5126,
			"count":24,
			"max":[
				0,
				2.5470480918884277,
				-0.29999998211860657
			],
			"min":[
				-0.3223520517349243,
				2.4117591381073,
				-0.9999998807907104
			],
			"type":"VEC3"
		},
		{
			"bufferView":9,
			"componentType":5126,
			"count":24,
			"type":"VEC3"
		},
		{
			"bufferView":10,
			"componentType":5126,
			"count":24,
			"type":"VEC2"
		},
		{
			"bufferView":11,
			"componentType":5123,
			"count":36,
			"type":"SCALAR"
		},
		{
			"bufferView":12,
			"componentType":5126,
			"count":24,
			"max":[
				0.3188096582889557,
				2.5470480918884277,
				-0.29999998211860657
			],
			"min":[
				0,
				2.4117591381073,
				-0.9999998807907104
			],
			"type":"VEC3"
		},
		{
			"bufferView":13,
			"componentType":5126,
			"count":24,
			"type":"VEC3"
		},
		{
			"bufferView":14,
			"componentType":5126,
			"count":24,
			"type":"VEC2"
		},
		{
			"bufferView":15,
			"componentType":5123,
			"count":36,
			"type":"SCALAR"
		},
		{
			"bufferView":16,
			"componentType":5126,
			"count":24,
			"max":[
				1,
				2.1406877040863037,
				0.10000002384185791
			],
			"min":[
				0.6369142532348633,
				0,
				-0.30000001192092896
			],
			"type":"VEC3"
		},
		{
			"bufferView":17,
			"componentType":5126,
			"count":24,
			"type":"VEC3"
		},
		{
			"bufferView":18,
			"componentType":5126,
			"count":24,
			"type":"VEC2"
		},
		{
			"bufferView":19,
			"componentType":5123,
			"count":36,
			"type":"SCALAR"
		},
		{
			"bufferView":20,
			"componentType":5126,
			"count":34,
			"max":[
				-0.32235199213027954,
				3.1000001430511475,
				0.10000002384185791
			],
			"min":[
				-1,
				2.1406877040863037,
				-0.30000001192092896
			],
			"type":"VEC3"
		},
		{
			"bufferView":21,
			"componentType":5126,
			"count":34,
			"type":"VEC3"
		},
		{
			"bufferView":22,
			"componentType":5126,
			"count":34,
			"type":"VEC2"
		},
		{
			"bufferView":23,
			"componentType":5123,
			"count":60,
			"type":"SCALAR"
		},
		{
			"bufferView":24,
			"componentType":5126,
			"count":34,
			"max":[
				1,
				3.1000001430511475,
				0.10000002384185791
			],
			"min":[
				0.3188096582889557,
				2.1406877040863037,
				-0.30000001192092896
			],
			"type":"VEC3"
		},
		{
			"bufferView":25,
			"componentType":5126,
			"count":34,
			"type":"VEC3"
		},
		{
			"bufferView":26,
			"componentType":5126,
			"count":34,
			"type":"VEC2"
		},
		{
			"bufferView":27,
			"componentType":5123,
			"count":60,
			"type":"SCALAR"
		},
		{
			"bufferView":28,
			"componentType":5126,
			"count":24,
			"max":[
				0,
				3.1000001430511475,
				0.10000002384185791
			],
			"min":[
				-0.3223520517349243,
				2.4117591381073,
				-0.30000001192092896
			],
			"type":"VEC3"
		},
		{
			"bufferView":29,
			"componentType":5126,
			"count":24,
			"type":"VEC3"
		},
		{
			"bufferView":30,
			"componentType":5126,
			"count":24,
			"type":"VEC2"
		},
		{
			"bufferView":31,
			"componentType":5123,
			"count":36,
			"type":"SCALAR"
		},
		{
			"bufferView":32,
			"componentType":5126,
			"count":24,
			"max":[
				0.3188096582889557,
				3.1000001430511475,
				0.10000002384185791
			],
			"min":[
				0,
				2.4117591381073,
				-0.30000001192092896
			],
			"type":"VEC3"
		},
		{
			"bufferView":33,
			"componentType":5126,
			"count":24,
			"type":"VEC3"
		},
		{
			"bufferView":34,
			"componentType":5126,
			"count":24,
			"type":"VEC2"
		},
		{
			"bufferView":35,
			"componentType":5126,
			"count":24,
			"max":[
				-0.6369142532348633,
				2.2667739391326904,
				-0.29999998211860657
			],
			"min":[
				-0.7217609286308289,
				0,
				-0.9999998807907104
			],
			"type":"VEC3"
		},
		{
			"bufferView":36,
			"componentType":5126,
			"count":24,
			"type":"VEC3"
		},
		{
			"bufferView":37,
			"componentType":5126,
			"count":24,
			"type":"VEC2"
		},
		{
			"bufferView":38,
			"componentType":5123,
			"count":36,
			"type":"SCALAR"
		},
		{
			"bufferView":39,
			"componentType":5126,
			"count":24,
			"max":[
				0.7217609286308289,
				2.2667739391326904,
				-0.29999998211860657
			],
			"min":[
				0.6369142532348633,
				0,
				-0.9999998807907104
			],
			"type":"VEC3"
		},
		{
			"bufferView":40,
			"componentType":5126,
			"count":24,
			"type":"VEC3"
		},
		{
			"bufferView":41,
			"componentType":5126,
			"count":24,
			"type":"VEC2"
		},
		{
			"bufferView":42,
			"componentType":5126,
			"count":24,
			"max":[
				-0.32235199213027954,
				2.4783084392547607,
				-0.29999998211860657
			],
			"min":[
				-0.6447041034698486,
				2.1406877040863037,
				-0.9999998807907104
			],
			"type":"VEC3"
		},
		{
			"bufferView":43,
			"componentType":5126,
			"count":24,
			"type":"VEC3"
		},
		{
			"bufferView":44,
			"componentType":5126,
			"count":24,
			"type":"VEC2"
		},
		{
			"bufferView":45,
			"componentType":5123,
			"count":36,
			"type":"SCALAR"
		},
		{
			"bufferView":46,
			"componentType":5126,
			"count":68,
			"max":[
				1,
				3.1226887702941895,
				0.09244640171527863
			],
			"min":[
				-1.0000001192092896,
				2.877309799194336,
				-0.3140353262424469
			],
			"type":"VEC3"
		},
		{
			"bufferView":47,
			"componentType":5126,
			"count":68,
			"type":"VEC3"
		},
		{
			"bufferView":48,
			"componentType":5126,
			"count":68,
			"type":"VEC2"
		},
		{
			"bufferView":49,
			"componentType":5126,
			"count":68,
			"type":"VEC2"
		},
		{
			"bufferView":50,
			"componentType":5123,
			"count":156,
			"type":"SCALAR"
		},
		{
			"bufferView":51,
			"componentType":5126,
			"count":121,
			"max":[
				1,
				3,
				1.3113417196564114e-07
			],
			"min":[
				-1,
				0,
				-0.9999999403953552
			],
			"type":"VEC3"
		},
		{
			"bufferView":52,
			"componentType":5126,
			"count":121,
			"type":"VEC3"
		},
		{
			"bufferView":53,
			"componentType":5126,
			"count":121,
			"type":"VEC2"
		},
		{
			"bufferView":54,
			"componentType":5126,
			"count":121,
			"type":"VEC2"
		},
		{
			"bufferView":55,
			"componentType":5123,
			"count":348,
			"type":"SCALAR"
		},
		{
			"bufferView":56,
			"componentType":5126,
			"count":20,
			"max":[
				1,
				0.9100615382194519,
				4.3711395392165286e-08
			],
			"min":[
				-1,
				-1.1278182812197925e-16,
				-1
			],
			"type":"VEC3"
		},
		{
			"bufferView":57,
			"componentType":5126,
			"count":20,
			"type":"VEC3"
		},
		{
			"bufferView":58,
			"componentType":5126,
			"count":20,
			"type":"VEC2"
		},
		{
			"bufferView":59,
			"componentType":5126,
			"count":20,
			"type":"VEC2"
		},
		{
			"bufferView":60,
			"componentType":5123,
			"count":36,
			"type":"SCALAR"
		}
	],
	"bufferViews":[
		{
			"buffer":0,
			"byteLength":288,
			"byteOffset":0,
			"target":34962
		},
		{
			"buffer":0,
			"byteLength":288,
			"byteOffset":288,
			"target":34962
		},
		{
			"buffer":0,
			"byteLength":192,
			"byteOffset":576,
			"target":34962
		},
		{
			"buffer":0,
			"byteLength":72,
			"byteOffset":768,
			"target":34963
		},
		{
			"buffer":0,
			"byteLength":288,
			"byteOffset":840,
			"target":34962
		},
		{
			"buffer":0,
			"byteLength":288,
			"byteOffset":1128,
			"target":34962
		},
		{
			"buffer":0,
			"byteLength":192,
			"byteOffset":1416,
			"target":34962
		},
		{
			"buffer":0,
			"byteLength":72,
			"byteOffset":1608,
			"target":34963
		},
		{
			"buffer":0,
			"byteLength":288,
			"byteOffset":1680,
			"target":34962
		},
		{
			"buffer":0,
			"byteLength":288,
			"byteOffset":1968,
			"target":34962
		},
		{
			"buffer":0,
			"byteLength":192,
			"byteOffset":2256,
			"target":34962
		},
		{
			"buffer":0,
			"byteLength":72,
			"byteOffset":2448,
			"target":34963
		},
		{
			"buffer":0,
			"byteLength":288,
			"byteOffset":2520,
			"target":34962
		},
		{
			"buffer":0,
			"byteLength":288,
			"byteOffset":2808,
			"target":34962
		},
		{
			"buffer":0,
			"byteLength":192,
			"byteOffset":3096,
			"target":34962
		},
		{
			"buffer":0,
			"byteLength":72,
			"byteOffset":3288,
			"target":34963
		},
		{
			"buffer":0,
			"byteLength":288,
			"byteOffset":3360,
			"target":34962
		},
		{
			"buffer":0,
			"byteLength":288,
			"byteOffset":3648,
			"target":34962
		},
		{
			"buffer":0,
			"byteLength":192,
			"byteOffset":3936,
			"target":34962
		},
		{
			"buffer":0,
			"byteLength":72,
			"byteOffset":4128,
			"target":34963
		},
		{
			"buffer":0,
			"byteLength":408,
			"byteOffset":4200,
			"target":34962
		},
		{
			"buffer":0,
			"byteLength":408,
			"byteOffset":4608,
			"target":34962
		},
		{
			"buffer":0,
			"byteLength":272,
			"byteOffset":5016,
			"target":34962
		},
		{
			"buffer":0,
			"byteLength":120,
			"byteOffset":5288,
			"target":34963
		},
		{
			"buffer":0,
			"byteLength":408,
			"byteOffset":5408,
			"target":34962
		},
		{
			"buffer":0,
			"byteLength":408,
			"byteOffset":5816,
			"target":34962
		},
		{
			"buffer":0,
			"byteLength":272,
			"byteOffset":6224,
			"target":34962
		},
		{
			"buffer":0,
			"byteLength":120,
			"byteOffset":6496,
			"target":34963
		},
		{
			"buffer":0,
			"byteLength":288,
			"byteOffset":6616,
			"target":34962
		},
		{
			"buffer":0,
			"byteLength":288,
			"byteOffset":6904,
			"target":34962
		},
		{
			"buffer":0,
			"byteLength":192,
			"byteOffset":7192,
			"target":34962
		},
		{
			"buffer":0,
			"byteLength":72,
			"byteOffset":7384,
			"target":34963
		},
		{
			"buffer":0,
			"byteLength":288,
			"byteOffset":7456,
			"target":34962
		},
		{
			"buffer":0,
			"byteLength":288,
			"byteOffset":7744,
			"target":34962
		},
		{
			"buffer":0,
			"byteLength":192,
			"byteOffset":8032,
			"target":34962
		},
		{
			"buffer":0,
			"byteLength":288,
			"byteOffset":8224,
			"target":34962
		},
		{
			"buffer":0,
			"byteLength":288,
			"byteOffset":8512,
			"target":34962
		},
		{
			"buffer":0,
			"byteLength":192,
			"byteOffset":8800,
			"target":34962
		},
		{
			"buffer":0,
			"byteLength":72,
			"byteOffset":8992,
			"target":34963
		},
		{
			"buffer":0,
			"byteLength":288,
			"byteOffset":9064,
			"target":34962
		},
		{
			"buffer":0,
			"byteLength":288,
			"byteOffset":9352,
			"target":34962
		},
		{
			"buffer":0,
			"byteLength":192,
			"byteOffset":9640,
			"target":34962
		},
		{
			"buffer":0,
			"byteLength":288,
			"byteOffset":9832,
			"target":34962
		},
		{
			"buffer":0,
			"byteLength":288,
			"byteOffset":10120,
			"target":34962
		},
		{
			"buffer":0,
			"byteLength":192,
			"byteOffset":10408,
			"target":34962
		},
		{
			"buffer":0,
			"byteLength":72,
			"byteOffset":10600,
			"target":34963
		},
		{
			"buffer":0,
			"byteLength":816,
			"byteOffset":10672,
			"target":34962
		},
		{
			"buffer":0,
			"byteLength":816,
			"byteOffset":11488,
			"target":34962
		},
		{
			"buffer":0,
			"byteLength":544,
			"byteOffset":12304,
			"target":34962
		},
		{
			"buffer":0,
			"byteLength":544,
			"byteOffset":12848,
			"target":34962
		},
		{
			"buffer":0,
			"byteLength":312,
			"byteOffset":13392,
			"target":34963
		},
		{
			"buffer":0,
			"byteLength":1452,
			"byteOffset":13704,
			"target":34962
		},
		{
			"buffer":0,
			"byteLength":1452,
			"byteOffset":15156,
			"target":34962
		},
		{
			"buffer":0,
			"byteLength":968,
			"byteOffset":16608,
			"target":34962
		},
		{
			"buffer":0,
			"byteLength":968,
			"byteOffset":17576,
			"target":34962
		},
		{
			"buffer":0,
			"byteLength":696,
			"byteOffset":18544,
			"target":34963
		},
		{
			"buffer":0,
			"byteLength":240,
			"byteOffset":19240,
			"target":34962
		},
		{
			"buffer":0,
			"byteLength":240,
			"byteOffset":19480,
			"target":34962
		},
		{
			"buffer":0,
			"byteLength":160,
			"byteOffset":19720,
			"target":34962
		},
		{
			"buffer":0,
			"byteLength":160,
			"byteOffset":19880,
			"target":34962
		},
		{
			"buffer":0,
			"byteLength":72,
			"byteOffset":20040,
			"target":34963
		}
	],
	"samplers":[
		{
			"magFilter":9729,
			"minFilter":9987
		}
	],
	"buffers":[
		{
			"byteLength":20112,
			"uri":"Wall_Plaster_Door_RoundInset.bin"
		}
	]
}
