{
	"asset":{
		"generator":"Khronos glTF Blender I/O v4.0.44",
		"version":"2.0"
	},
	"scene":0,
	"scenes":[
		{
			"name":"Scene",
			"nodes":[
				1
			]
		}
	],
	"nodes":[
		{
			"mesh":0,
			"name":"Window_Thin_Round3_1-convcolonly"
		},
		{
			"children":[
				0
			],
			"mesh":1,
			"name":"Window_Thin_Round3"
		}
	],
	"materials":[
		{
			"doubleSided":true,
			"name":"Collision",
			"pbrMetallicRoughness":{
				"baseColorFactor":[
					0.05868536978960037,
					0.2907957136631012,
					0.8000074625015259,
					1
				],
				"metallicFactor":0,
				"roughnessFactor":0.5
			}
		},
		{
			"doubleSided":true,
			"name":"MI_WoodTrim_Wear",
			"normalTexture":{
				"index":0
			},
			"pbrMetallicRoughness":{
				"baseColorTexture":{
					"index":1
				},
				"metallicFactor":0,
				"metallicRoughnessTexture":{
					"index":2
				}
			}
		},
		{
			"alphaMode":"BLEND",
			"doubleSided":true,
			"name":"MI_WindowGlass",
			"pbrMetallicRoughness":{
				"baseColorFactor":[
					0.800000011920929,
					0.800000011920929,
					0.800000011920929,
					0.09545451402664185
				],
				"metallicFactor":0,
				"roughnessFactor":0.5
			}
		}
	],
	"meshes":[
		{
			"name":"Cube.351",
			"primitives":[
				{
					"attributes":{
						"POSITION":0,
						"NORMAL":1,
						"TEXCOORD_0":2
					},
					"indices":3,
					"material":0
				}
			]
		},
		{
			"name":"Cube.018",
			"primitives":[
				{
					"attributes":{
						"POSITION":4,
						"NORMAL":5,
						"TEXCOORD_0":6,
						"TEXCOORD_1":7
					},
					"indices":8,
					"material":1
				},
				{
					"attributes":{
						"POSITION":9,
						"NORMAL":10,
						"TEXCOORD_0":11,
						"TEXCOORD_1":12
					},
					"indices":13,
					"material":2
				}
			]
		}
	],
	"textures":[
		{
			"sampler":0,
			"source":0
		},
		{
			"sampler":0,
			"source":1
		},
		{
			"sampler":0,
			"source":2
		}
	],
	"images":[
		{
			"mimeType":"image/png",
			"name":"T_WoodTrim_Normal",
			"uri":"T_WoodTrim_Normal.png"
		},
		{
			"mimeType":"image/png",
			"name":"T_WoodTrim_BaseColor",
			"uri":"T_WoodTrim_BaseColor.png"
		},
		{
			"mimeType":"image/png",
			"name":"T_WoodTrim_Roughness",
			"uri":"T_WoodTrim_Roughness.png"
		}
	],
	"accessors":[
		{
			"bufferView":0,
			"componentType":5126,
			"count":54,
			"max":[
				0.4220433533191681,
				2.5934343338012695,
				0.1604621410369873
			],
			"min":[
				-0.41809114813804626,
				0.970946729183197,
				-0.2518408000469208
			],
			"type":"VEC3"
		},
		{
			"bufferView":1,
			"componentType":5126,
			"count":54,
			"type":"VEC3"
		},
		{
			"bufferView":2,
			"componentType":5126,
			"count":54,
			"type":"VEC2"
		},
		{
			"bufferView":3,
			"componentType":5123,
			"count":108,
			"type":"SCALAR"
		},
		{
			"bufferView":4,
			"componentType":5126,
			"count":658,
			"max":[
				0.44560837745666504,
				2.5875401496887207,
				0.1691620796918869
			],
			"min":[
				-0.4374321401119232,
				0.9818627834320068,
				-0.24436704814434052
			],
			"type":"VEC3"
		},
		{
			"bufferView":5,
			"componentType":5126,
			"count":658,
			"type":"VEC3"
		},
		{
			"bufferView":6,
			"componentType":5126,
			"count":658,
			"type":"VEC2"
		},
		{
			"bufferView":7,
			"componentType":5126,
			"count":658,
			"type":"VEC2"
		},
		{
			"bufferView":8,
			"componentType":5123,
			"count":1356,
			"type":"SCALAR"
		},
		{
			"bufferView":9,
			"componentType":5126,
			"count":138,
			"max":[
				0.277061402797699,
				2.407123565673828,
				0.003888234496116638
			],
			"min":[
				-0.27706146240234375,
				1.1722246408462524,
				0.0038879886269569397
			],
			"type":"VEC3"
		},
		{
			"bufferView":10,
			"componentType":5126,
			"count":138,
			"type":"VEC3"
		},
		{
			"bufferView":11,
			"componentType":5126,
			"count":138,
			"type":"VEC2"
		},
		{
			"bufferView":12,
			"componentType":5126,
			"count":138,
			"type":"VEC2"
		},
		{
			"bufferView":13,
			"componentType":5123,
			"count":348,
			"type":"SCALAR"
		}
	],
	"bufferViews":[
		{
			"buffer":0,
			"byteLength":648,
			"byteOffset":0,
			"target":34962
		},
		{
			"buffer":0,
			"byteLength":648,
			"byteOffset":648,
			"target":34962
		},
		{
			"buffer":0,
			"byteLength":432,
			"byteOffset":1296,
			"target":34962
		},
		{
			"buffer":0,
			"byteLength":216,
			"byteOffset":1728,
			"target":34963
		},
		{
			"buffer":0,
			"byteLength":7896,
			"byteOffset":1944,
			"target":34962
		},
		{
			"buffer":0,
			"byteLength":7896,
			"byteOffset":9840,
			"target":34962
		},
		{
			"buffer":0,
			"byteLength":5264,
			"byteOffset":17736,
			"target":34962
		},
		{
			"buffer":0,
			"byteLength":5264,
			"byteOffset":23000,
			"target":34962
		},
		{
			"buffer":0,
			"byteLength":2712,
			"byteOffset":28264,
			"target":34963
		},
		{
			"buffer":0,
			"byteLength":1656,
			"byteOffset":30976,
			"target":34962
		},
		{
			"buffer":0,
			"byteLength":1656,
			"byteOffset":32632,
			"target":34962
		},
		{
			"buffer":0,
			"byteLength":1104,
			"byteOffset":34288,
			"target":34962
		},
		{
			"buffer":0,
			"byteLength":1104,
			"byteOffset":35392,
			"target":34962
		},
		{
			"buffer":0,
			"byteLength":696,
			"byteOffset":36496,
			"target":34963
		}
	],
	"samplers":[
		{
			"magFilter":9729,
			"minFilter":9987
		}
	],
	"buffers":[
		{
			"byteLength":37192,
			"uri":"Window_Thin_Round3.bin"
		}
	]
}
