{
	"asset":{
		"generator":"Khronos glTF Blender I/O v4.0.44",
		"version":"2.0"
	},
	"scene":0,
	"scenes":[
		{
			"name":"Scene",
			"nodes":[
				1
			]
		}
	],
	"nodes":[
		{
			"mesh":0,
			"name":"Window_Thin_Round1_1-convcolonly"
		},
		{
			"children":[
				0
			],
			"mesh":1,
			"name":"Window_Thin_Round1"
		}
	],
	"materials":[
		{
			"doubleSided":true,
			"name":"Collision",
			"pbrMetallicRoughness":{
				"baseColorFactor":[
					0.05868536978960037,
					0.2907957136631012,
					0.8000074625015259,
					1
				],
				"metallicFactor":0,
				"roughnessFactor":0.5
			}
		},
		{
			"doubleSided":true,
			"name":"MI_WoodTrim_Wear",
			"normalTexture":{
				"index":0
			},
			"pbrMetallicRoughness":{
				"baseColorTexture":{
					"index":1
				},
				"metallicFactor":0,
				"metallicRoughnessTexture":{
					"index":2
				}
			}
		},
		{
			"alphaMode":"BLEND",
			"doubleSided":true,
			"name":"MI_WindowGlass",
			"pbrMetallicRoughness":{
				"baseColorFactor":[
					0.800000011920929,
					0.800000011920929,
					0.800000011920929,
					0.09545451402664185
				],
				"metallicFactor":0,
				"roughnessFactor":0.5
			}
		}
	],
	"meshes":[
		{
			"name":"Cube.349",
			"primitives":[
				{
					"attributes":{
						"POSITION":0,
						"NORMAL":1,
						"TEXCOORD_0":2
					},
					"indices":3,
					"material":0
				}
			]
		},
		{
			"name":"Cube.128",
			"primitives":[
				{
					"attributes":{
						"POSITION":4,
						"NORMAL":5,
						"TEXCOORD_0":6,
						"TEXCOORD_1":7
					},
					"indices":8,
					"material":1
				},
				{
					"attributes":{
						"POSITION":9,
						"NORMAL":10,
						"TEXCOORD_0":11,
						"TEXCOORD_1":12
					},
					"indices":13,
					"material":2
				}
			]
		}
	],
	"textures":[
		{
			"sampler":0,
			"source":0
		},
		{
			"sampler":0,
			"source":1
		},
		{
			"sampler":0,
			"source":2
		}
	],
	"images":[
		{
			"mimeType":"image/png",
			"name":"T_WoodTrim_Normal",
			"uri":"T_WoodTrim_Normal.png"
		},
		{
			"mimeType":"image/png",
			"name":"T_WoodTrim_BaseColor",
			"uri":"T_WoodTrim_BaseColor.png"
		},
		{
			"mimeType":"image/png",
			"name":"T_WoodTrim_Roughness",
			"uri":"T_WoodTrim_Roughness.png"
		}
	],
	"accessors":[
		{
			"bufferView":0,
			"componentType":5126,
			"count":54,
			"max":[
				0.4220433533191681,
				2.6357345581054688,
				0.1604621410369873
			],
			"min":[
				-0.41809114813804626,
				1.0055559873580933,
				-0.2518408000469208
			],
			"type":"VEC3"
		},
		{
			"bufferView":1,
			"componentType":5126,
			"count":54,
			"type":"VEC3"
		},
		{
			"bufferView":2,
			"componentType":5126,
			"count":54,
			"type":"VEC2"
		},
		{
			"bufferView":3,
			"componentType":5123,
			"count":108,
			"type":"SCALAR"
		},
		{
			"bufferView":4,
			"componentType":5126,
			"count":440,
			"max":[
				0.44381028413772583,
				2.6207287311553955,
				0.0923665463924408
			],
			"min":[
				-0.44381028413772583,
				1.01604425907135,
				-0.2520223557949066
			],
			"type":"VEC3"
		},
		{
			"bufferView":5,
			"componentType":5126,
			"count":440,
			"type":"VEC3"
		},
		{
			"bufferView":6,
			"componentType":5126,
			"count":440,
			"type":"VEC2"
		},
		{
			"bufferView":7,
			"componentType":5126,
			"count":440,
			"type":"VEC2"
		},
		{
			"bufferView":8,
			"componentType":5123,
			"count":900,
			"type":"SCALAR"
		},
		{
			"bufferView":9,
			"componentType":5126,
			"count":143,
			"max":[
				0.277061402797699,
				2.478931427001953,
				0.003888234496116638
			],
			"min":[
				-0.27893951535224915,
				1.0875728130340576,
				0.0038879886269569397
			],
			"type":"VEC3"
		},
		{
			"bufferView":10,
			"componentType":5126,
			"count":143,
			"type":"VEC3"
		},
		{
			"bufferView":11,
			"componentType":5126,
			"count":143,
			"type":"VEC2"
		},
		{
			"bufferView":12,
			"componentType":5126,
			"count":143,
			"type":"VEC2"
		},
		{
			"bufferView":13,
			"componentType":5123,
			"count":354,
			"type":"SCALAR"
		}
	],
	"bufferViews":[
		{
			"buffer":0,
			"byteLength":648,
			"byteOffset":0,
			"target":34962
		},
		{
			"buffer":0,
			"byteLength":648,
			"byteOffset":648,
			"target":34962
		},
		{
			"buffer":0,
			"byteLength":432,
			"byteOffset":1296,
			"target":34962
		},
		{
			"buffer":0,
			"byteLength":216,
			"byteOffset":1728,
			"target":34963
		},
		{
			"buffer":0,
			"byteLength":5280,
			"byteOffset":1944,
			"target":34962
		},
		{
			"buffer":0,
			"byteLength":5280,
			"byteOffset":7224,
			"target":34962
		},
		{
			"buffer":0,
			"byteLength":3520,
			"byteOffset":12504,
			"target":34962
		},
		{
			"buffer":0,
			"byteLength":3520,
			"byteOffset":16024,
			"target":34962
		},
		{
			"buffer":0,
			"byteLength":1800,
			"byteOffset":19544,
			"target":34963
		},
		{
			"buffer":0,
			"byteLength":1716,
			"byteOffset":21344,
			"target":34962
		},
		{
			"buffer":0,
			"byteLength":1716,
			"byteOffset":23060,
			"target":34962
		},
		{
			"buffer":0,
			"byteLength":1144,
			"byteOffset":24776,
			"target":34962
		},
		{
			"buffer":0,
			"byteLength":1144,
			"byteOffset":25920,
			"target":34962
		},
		{
			"buffer":0,
			"byteLength":708,
			"byteOffset":27064,
			"target":34963
		}
	],
	"samplers":[
		{
			"magFilter":9729,
			"minFilter":9987
		}
	],
	"buffers":[
		{
			"byteLength":27772,
			"uri":"Window_Thin_Round1.bin"
		}
	]
}
