{
	"asset":{
		"generator":"Khronos glTF Blender I/O v4.0.44",
		"version":"2.0"
	},
	"scene":0,
	"scenes":[
		{
			"name":"Scene",
			"nodes":[
				1
			]
		}
	],
	"nodes":[
		{
			"mesh":0,
			"name":"Window_Wide_Flat2_1-convcolonly"
		},
		{
			"children":[
				0
			],
			"mesh":1,
			"name":"Window_Wide_Flat2"
		}
	],
	"materials":[
		{
			"doubleSided":true,
			"name":"Collision",
			"pbrMetallicRoughness":{
				"baseColorFactor":[
					0.05868536978960037,
					0.2907957136631012,
					0.8000074625015259,
					1
				],
				"metallicFactor":0,
				"roughnessFactor":0.5
			}
		},
		{
			"doubleSided":true,
			"name":"MI_WoodTrim_Wear",
			"normalTexture":{
				"index":0
			},
			"pbrMetallicRoughness":{
				"baseColorTexture":{
					"index":1
				},
				"metallicFactor":0,
				"metallicRoughnessTexture":{
					"index":2
				}
			}
		},
		{
			"alphaMode":"BLEND",
			"doubleSided":true,
			"name":"MI_WindowGlass",
			"pbrMetallicRoughness":{
				"baseColorFactor":[
					0.800000011920929,
					0.800000011920929,
					0.800000011920929,
					0.09545451402664185
				],
				"metallicFactor":0,
				"roughnessFactor":0.5
			}
		}
	],
	"meshes":[
		{
			"name":"Cube.341",
			"primitives":[
				{
					"attributes":{
						"POSITION":0,
						"NORMAL":1,
						"TEXCOORD_0":2
					},
					"indices":3,
					"material":0
				}
			]
		},
		{
			"name":"Cube.096",
			"primitives":[
				{
					"attributes":{
						"POSITION":4,
						"NORMAL":5,
						"TEXCOORD_0":6,
						"TEXCOORD_1":7
					},
					"indices":8,
					"material":1
				},
				{
					"attributes":{
						"POSITION":9,
						"NORMAL":10,
						"TEXCOORD_0":11,
						"TEXCOORD_1":12
					},
					"indices":13,
					"material":2
				}
			]
		}
	],
	"textures":[
		{
			"sampler":0,
			"source":0
		},
		{
			"sampler":0,
			"source":1
		},
		{
			"sampler":0,
			"source":2
		}
	],
	"images":[
		{
			"mimeType":"image/png",
			"name":"T_WoodTrim_Normal",
			"uri":"T_WoodTrim_Normal.png"
		},
		{
			"mimeType":"image/png",
			"name":"T_WoodTrim_BaseColor",
			"uri":"T_WoodTrim_BaseColor.png"
		},
		{
			"mimeType":"image/png",
			"name":"T_WoodTrim_Roughness",
			"uri":"T_WoodTrim_Roughness.png"
		}
	],
	"accessors":[
		{
			"bufferView":0,
			"componentType":5126,
			"count":24,
			"max":[
				0.671493649482727,
				2.501652479171753,
				0.15901684761047363
			],
			"min":[
				-0.6714933514595032,
				0.8951946496963501,
				-0.23377300798892975
			],
			"type":"VEC3"
		},
		{
			"bufferView":1,
			"componentType":5126,
			"count":24,
			"type":"VEC3"
		},
		{
			"bufferView":2,
			"componentType":5126,
			"count":24,
			"type":"VEC2"
		},
		{
			"bufferView":3,
			"componentType":5123,
			"count":36,
			"type":"SCALAR"
		},
		{
			"bufferView":4,
			"componentType":5126,
			"count":714,
			"max":[
				0.6713857650756836,
				2.565035820007324,
				0.16916213929653168
			],
			"min":[
				-0.6713876724243164,
				0.9530816674232483,
				-0.2443670928478241
			],
			"type":"VEC3"
		},
		{
			"bufferView":5,
			"componentType":5126,
			"count":714,
			"type":"VEC3"
		},
		{
			"bufferView":6,
			"componentType":5126,
			"count":714,
			"type":"VEC2"
		},
		{
			"bufferView":7,
			"componentType":5126,
			"count":714,
			"type":"VEC2"
		},
		{
			"bufferView":8,
			"componentType":5123,
			"count":1548,
			"type":"SCALAR"
		},
		{
			"bufferView":9,
			"componentType":5126,
			"count":128,
			"max":[
				0.4554469883441925,
				2.364259719848633,
				0.003888234496116638
			],
			"min":[
				-0.4554469883441925,
				1.1060431003570557,
				0.0038879886269569397
			],
			"type":"VEC3"
		},
		{
			"bufferView":10,
			"componentType":5126,
			"count":128,
			"type":"VEC3"
		},
		{
			"bufferView":11,
			"componentType":5126,
			"count":128,
			"type":"VEC2"
		},
		{
			"bufferView":12,
			"componentType":5126,
			"count":128,
			"type":"VEC2"
		},
		{
			"bufferView":13,
			"componentType":5123,
			"count":336,
			"type":"SCALAR"
		}
	],
	"bufferViews":[
		{
			"buffer":0,
			"byteLength":288,
			"byteOffset":0,
			"target":34962
		},
		{
			"buffer":0,
			"byteLength":288,
			"byteOffset":288,
			"target":34962
		},
		{
			"buffer":0,
			"byteLength":192,
			"byteOffset":576,
			"target":34962
		},
		{
			"buffer":0,
			"byteLength":72,
			"byteOffset":768,
			"target":34963
		},
		{
			"buffer":0,
			"byteLength":8568,
			"byteOffset":840,
			"target":34962
		},
		{
			"buffer":0,
			"byteLength":8568,
			"byteOffset":9408,
			"target":34962
		},
		{
			"buffer":0,
			"byteLength":5712,
			"byteOffset":17976,
			"target":34962
		},
		{
			"buffer":0,
			"byteLength":5712,
			"byteOffset":23688,
			"target":34962
		},
		{
			"buffer":0,
			"byteLength":3096,
			"byteOffset":29400,
			"target":34963
		},
		{
			"buffer":0,
			"byteLength":1536,
			"byteOffset":32496,
			"target":34962
		},
		{
			"buffer":0,
			"byteLength":1536,
			"byteOffset":34032,
			"target":34962
		},
		{
			"buffer":0,
			"byteLength":1024,
			"byteOffset":35568,
			"target":34962
		},
		{
			"buffer":0,
			"byteLength":1024,
			"byteOffset":36592,
			"target":34962
		},
		{
			"buffer":0,
			"byteLength":672,
			"byteOffset":37616,
			"target":34963
		}
	],
	"samplers":[
		{
			"magFilter":9729,
			"minFilter":9987
		}
	],
	"buffers":[
		{
			"byteLength":38288,
			"uri":"Window_Wide_Flat2.bin"
		}
	]
}
