{
	"asset":{
		"generator":"Khronos glTF Blender I/O v4.0.44",
		"version":"2.0"
	},
	"scene":0,
	"scenes":[
		{
			"name":"Scene",
			"nodes":[
				2
			]
		}
	],
	"nodes":[
		{
			"mesh":0,
			"name":"WindowShutters_Thin_Round_Open_1-convcolonly"
		},
		{
			"mesh":1,
			"name":"WindowShutters_Thin_Round_Open_2-convcolonly"
		},
		{
			"children":[
				0,
				1
			],
			"mesh":2,
			"name":"WindowShutters_Thin_Round_Open"
		}
	],
	"materials":[
		{
			"doubleSided":true,
			"name":"Collision",
			"pbrMetallicRoughness":{
				"baseColorFactor":[
					0.05868536978960037,
					0.2907957136631012,
					0.8000074625015259,
					1
				],
				"metallicFactor":0,
				"roughnessFactor":0.5
			}
		},
		{
			"doubleSided":true,
			"name":"MI_WoodTrim_Wear",
			"normalTexture":{
				"index":0
			},
			"pbrMetallicRoughness":{
				"baseColorTexture":{
					"index":1
				},
				"metallicFactor":0,
				"metallicRoughnessTexture":{
					"index":2
				}
			}
		}
	],
	"meshes":[
		{
			"name":"Cube.368",
			"primitives":[
				{
					"attributes":{
						"POSITION":0,
						"NORMAL":1,
						"TEXCOORD_0":2
					},
					"indices":3,
					"material":0
				}
			]
		},
		{
			"name":"Cube.369",
			"primitives":[
				{
					"attributes":{
						"POSITION":4,
						"NORMAL":5,
						"TEXCOORD_0":6
					},
					"indices":7,
					"material":0
				}
			]
		},
		{
			"name":"Cube.183",
			"primitives":[
				{
					"attributes":{
						"POSITION":8,
						"NORMAL":9,
						"TEXCOORD_0":10,
						"TEXCOORD_1":11
					},
					"indices":12,
					"material":1
				}
			]
		}
	],
	"textures":[
		{
			"sampler":0,
			"source":0
		},
		{
			"sampler":0,
			"source":1
		},
		{
			"sampler":0,
			"source":2
		}
	],
	"images":[
		{
			"mimeType":"image/png",
			"name":"T_WoodTrim_Normal",
			"uri":"T_WoodTrim_Normal.png"
		},
		{
			"mimeType":"image/png",
			"name":"T_WoodTrim_BaseColor",
			"uri":"T_WoodTrim_BaseColor.png"
		},
		{
			"mimeType":"image/png",
			"name":"T_WoodTrim_Roughness",
			"uri":"T_WoodTrim_Roughness.png"
		}
	],
	"accessors":[
		{
			"bufferView":0,
			"componentType":5126,
			"count":34,
			"max":[
				-0.3951788544654846,
				2.6470465660095215,
				0.4053196310997009
			],
			"min":[
				-0.8092074394226074,
				1.0635404586791992,
				0.05547793209552765
			],
			"type":"VEC3"
		},
		{
			"bufferView":1,
			"componentType":5126,
			"count":34,
			"type":"VEC3"
		},
		{
			"bufferView":2,
			"componentType":5126,
			"count":34,
			"type":"VEC2"
		},
		{
			"bufferView":3,
			"componentType":5123,
			"count":60,
			"type":"SCALAR"
		},
		{
			"bufferView":4,
			"componentType":5126,
			"count":34,
			"max":[
				0.788305401802063,
				2.6470465660095215,
				0.43552225828170776
			],
			"min":[
				0.3967956006526947,
				1.0635404586791992,
				0.05533331632614136
			],
			"type":"VEC3"
		},
		{
			"bufferView":5,
			"componentType":5126,
			"count":34,
			"type":"VEC3"
		},
		{
			"bufferView":6,
			"componentType":5126,
			"count":34,
			"type":"VEC2"
		},
		{
			"bufferView":7,
			"componentType":5123,
			"count":60,
			"type":"SCALAR"
		},
		{
			"bufferView":8,
			"componentType":5126,
			"count":220,
			"max":[
				0.7867056131362915,
				2.6116669178009033,
				0.4355051815509796
			],
			"min":[
				-0.8195725083351135,
				1.0932440757751465,
				0.059017062187194824
			],
			"type":"VEC3"
		},
		{
			"bufferView":9,
			"componentType":5126,
			"count":220,
			"type":"VEC3"
		},
		{
			"bufferView":10,
			"componentType":5126,
			"count":220,
			"type":"VEC2"
		},
		{
			"bufferView":11,
			"componentType":5126,
			"count":220,
			"type":"VEC2"
		},
		{
			"bufferView":12,
			"componentType":5123,
			"count":336,
			"type":"SCALAR"
		}
	],
	"bufferViews":[
		{
			"buffer":0,
			"byteLength":408,
			"byteOffset":0,
			"target":34962
		},
		{
			"buffer":0,
			"byteLength":408,
			"byteOffset":408,
			"target":34962
		},
		{
			"buffer":0,
			"byteLength":272,
			"byteOffset":816,
			"target":34962
		},
		{
			"buffer":0,
			"byteLength":120,
			"byteOffset":1088,
			"target":34963
		},
		{
			"buffer":0,
			"byteLength":408,
			"byteOffset":1208,
			"target":34962
		},
		{
			"buffer":0,
			"byteLength":408,
			"byteOffset":1616,
			"target":34962
		},
		{
			"buffer":0,
			"byteLength":272,
			"byteOffset":2024,
			"target":34962
		},
		{
			"buffer":0,
			"byteLength":120,
			"byteOffset":2296,
			"target":34963
		},
		{
			"buffer":0,
			"byteLength":2640,
			"byteOffset":2416,
			"target":34962
		},
		{
			"buffer":0,
			"byteLength":2640,
			"byteOffset":5056,
			"target":34962
		},
		{
			"buffer":0,
			"byteLength":1760,
			"byteOffset":7696,
			"target":34962
		},
		{
			"buffer":0,
			"byteLength":1760,
			"byteOffset":9456,
			"target":34962
		},
		{
			"buffer":0,
			"byteLength":672,
			"byteOffset":11216,
			"target":34963
		}
	],
	"samplers":[
		{
			"magFilter":9729,
			"minFilter":9987
		}
	],
	"buffers":[
		{
			"byteLength":11888,
			"uri":"WindowShutters_Thin_Round_Open.bin"
		}
	]
}
