{
	"asset":{
		"generator":"Khronos glTF Blender I/O v4.0.44",
		"version":"2.0"
	},
	"scene":0,
	"scenes":[
		{
			"name":"Scene",
			"nodes":[
				1
			]
		}
	],
	"nodes":[
		{
			"mesh":0,
			"name":"Window_Thin_Round2_1-convcolonly"
		},
		{
			"children":[
				0
			],
			"mesh":1,
			"name":"Window_Thin_Round2"
		}
	],
	"materials":[
		{
			"doubleSided":true,
			"name":"Collision",
			"pbrMetallicRoughness":{
				"baseColorFactor":[
					0.05868536978960037,
					0.2907957136631012,
					0.8000074625015259,
					1
				],
				"metallicFactor":0,
				"roughnessFactor":0.5
			}
		},
		{
			"doubleSided":true,
			"name":"MI_WoodTrim_Wear",
			"normalTexture":{
				"index":0
			},
			"pbrMetallicRoughness":{
				"baseColorTexture":{
					"index":1
				},
				"metallicFactor":0,
				"metallicRoughnessTexture":{
					"index":2
				}
			}
		},
		{
			"alphaMode":"BLEND",
			"doubleSided":true,
			"name":"MI_WindowGlass",
			"pbrMetallicRoughness":{
				"baseColorFactor":[
					0.800000011920929,
					0.800000011920929,
					0.800000011920929,
					0.09545451402664185
				],
				"metallicFactor":0,
				"roughnessFactor":0.5
			}
		},
		{
			"doubleSided":true,
			"name":"MI_WoodTrim",
			"normalTexture":{
				"index":3
			},
			"pbrMetallicRoughness":{
				"baseColorTexture":{
					"index":4
				},
				"metallicFactor":0,
				"metallicRoughnessTexture":{
					"index":5
				}
			}
		}
	],
	"meshes":[
		{
			"name":"Cube.350",
			"primitives":[
				{
					"attributes":{
						"POSITION":0,
						"NORMAL":1,
						"TEXCOORD_0":2
					},
					"indices":3,
					"material":0
				}
			]
		},
		{
			"name":"Cube.137",
			"primitives":[
				{
					"attributes":{
						"POSITION":4,
						"NORMAL":5,
						"TEXCOORD_0":6,
						"TEXCOORD_1":7
					},
					"indices":8,
					"material":1
				},
				{
					"attributes":{
						"POSITION":9,
						"NORMAL":10,
						"TEXCOORD_0":11,
						"TEXCOORD_1":12
					},
					"indices":13,
					"material":2
				},
				{
					"attributes":{
						"POSITION":14,
						"NORMAL":15,
						"TEXCOORD_0":16,
						"TEXCOORD_1":17
					},
					"indices":18,
					"material":3
				}
			]
		}
	],
	"textures":[
		{
			"sampler":0,
			"source":0
		},
		{
			"sampler":0,
			"source":1
		},
		{
			"sampler":0,
			"source":2
		},
		{
			"sampler":0,
			"source":0
		},
		{
			"sampler":0,
			"source":1
		},
		{
			"sampler":0,
			"source":2
		}
	],
	"images":[
		{
			"mimeType":"image/png",
			"name":"T_WoodTrim_Normal",
			"uri":"T_WoodTrim_Normal.png"
		},
		{
			"mimeType":"image/png",
			"name":"T_WoodTrim_BaseColor",
			"uri":"T_WoodTrim_BaseColor.png"
		},
		{
			"mimeType":"image/png",
			"name":"T_WoodTrim_Roughness",
			"uri":"T_WoodTrim_Roughness.png"
		}
	],
	"accessors":[
		{
			"bufferView":0,
			"componentType":5126,
			"count":54,
			"max":[
				0.4220433533191681,
				2.6357345581054688,
				0.1604621410369873
			],
			"min":[
				-0.41809114813804626,
				1.0055559873580933,
				-0.2518408000469208
			],
			"type":"VEC3"
		},
		{
			"bufferView":1,
			"componentType":5126,
			"count":54,
			"type":"VEC3"
		},
		{
			"bufferView":2,
			"componentType":5126,
			"count":54,
			"type":"VEC2"
		},
		{
			"bufferView":3,
			"componentType":5123,
			"count":108,
			"type":"SCALAR"
		},
		{
			"bufferView":4,
			"componentType":5126,
			"count":256,
			"max":[
				0.44381028413772583,
				2.6207287311553955,
				0.2669132947921753
			],
			"min":[
				-0.44381028413772583,
				1.01604425907135,
				-0.2520223557949066
			],
			"type":"VEC3"
		},
		{
			"bufferView":5,
			"componentType":5126,
			"count":256,
			"type":"VEC3"
		},
		{
			"bufferView":6,
			"componentType":5126,
			"count":256,
			"type":"VEC2"
		},
		{
			"bufferView":7,
			"componentType":5126,
			"count":256,
			"type":"VEC2"
		},
		{
			"bufferView":8,
			"componentType":5123,
			"count":600,
			"type":"SCALAR"
		},
		{
			"bufferView":9,
			"componentType":5126,
			"count":320,
			"max":[
				0.35088369250297546,
				2.5640053749084473,
				0.010110246017575264
			],
			"min":[
				-0.3479582965373993,
				1.0726933479309082,
				0.010109958238899708
			],
			"type":"VEC3"
		},
		{
			"bufferView":10,
			"componentType":5126,
			"count":320,
			"type":"VEC3"
		},
		{
			"bufferView":11,
			"componentType":5126,
			"count":320,
			"type":"VEC2"
		},
		{
			"bufferView":12,
			"componentType":5126,
			"count":320,
			"type":"VEC2"
		},
		{
			"bufferView":13,
			"componentType":5123,
			"count":480,
			"type":"SCALAR"
		},
		{
			"bufferView":14,
			"componentType":5126,
			"count":320,
			"max":[
				0.35088396072387695,
				2.5338761806488037,
				0.01901133731007576
			],
			"min":[
				-0.34795868396759033,
				1.0726932287216187,
				-0.008634921163320541
			],
			"type":"VEC3"
		},
		{
			"bufferView":15,
			"componentType":5126,
			"count":320,
			"type":"VEC3"
		},
		{
			"bufferView":16,
			"componentType":5126,
			"count":320,
			"type":"VEC2"
		},
		{
			"bufferView":17,
			"componentType":5126,
			"count":320,
			"type":"VEC2"
		},
		{
			"bufferView":18,
			"componentType":5123,
			"count":480,
			"type":"SCALAR"
		}
	],
	"bufferViews":[
		{
			"buffer":0,
			"byteLength":648,
			"byteOffset":0,
			"target":34962
		},
		{
			"buffer":0,
			"byteLength":648,
			"byteOffset":648,
			"target":34962
		},
		{
			"buffer":0,
			"byteLength":432,
			"byteOffset":1296,
			"target":34962
		},
		{
			"buffer":0,
			"byteLength":216,
			"byteOffset":1728,
			"target":34963
		},
		{
			"buffer":0,
			"byteLength":3072,
			"byteOffset":1944,
			"target":34962
		},
		{
			"buffer":0,
			"byteLength":3072,
			"byteOffset":5016,
			"target":34962
		},
		{
			"buffer":0,
			"byteLength":2048,
			"byteOffset":8088,
			"target":34962
		},
		{
			"buffer":0,
			"byteLength":2048,
			"byteOffset":10136,
			"target":34962
		},
		{
			"buffer":0,
			"byteLength":1200,
			"byteOffset":12184,
			"target":34963
		},
		{
			"buffer":0,
			"byteLength":3840,
			"byteOffset":13384,
			"target":34962
		},
		{
			"buffer":0,
			"byteLength":3840,
			"byteOffset":17224,
			"target":34962
		},
		{
			"buffer":0,
			"byteLength":2560,
			"byteOffset":21064,
			"target":34962
		},
		{
			"buffer":0,
			"byteLength":2560,
			"byteOffset":23624,
			"target":34962
		},
		{
			"buffer":0,
			"byteLength":960,
			"byteOffset":26184,
			"target":34963
		},
		{
			"buffer":0,
			"byteLength":3840,
			"byteOffset":27144,
			"target":34962
		},
		{
			"buffer":0,
			"byteLength":3840,
			"byteOffset":30984,
			"target":34962
		},
		{
			"buffer":0,
			"byteLength":2560,
			"byteOffset":34824,
			"target":34962
		},
		{
			"buffer":0,
			"byteLength":2560,
			"byteOffset":37384,
			"target":34962
		},
		{
			"buffer":0,
			"byteLength":960,
			"byteOffset":39944,
			"target":34963
		}
	],
	"samplers":[
		{
			"magFilter":9729,
			"minFilter":9987
		}
	],
	"buffers":[
		{
			"byteLength":40904,
			"uri":"Window_Thin_Round2.bin"
		}
	]
}
